<svg width="118" height="49" viewBox="0 0 118 49" fill="none" xmlns="http://www.w3.org/2000/svg">
<rect x="0.730225" y="0.486328" width="117" height="48" rx="8" fill="#DEF7F3"/>
<path d="M39.1386 22.2328C39.0988 21.8317 38.9281 21.5202 38.6265 21.2981C38.3249 21.0761 37.9156 20.965 37.3985 20.965C37.0472 20.965 36.7506 21.0147 36.5086 21.1142C36.2667 21.2103 36.0811 21.3445 35.9518 21.5169C35.8259 21.6892 35.7629 21.8848 35.7629 22.1035C35.7563 22.2858 35.7944 22.4449 35.8772 22.5808C35.9634 22.7167 36.0811 22.8343 36.2302 22.9338C36.3794 23.0299 36.5517 23.1144 36.7473 23.1873C36.9428 23.2569 37.1516 23.3166 37.3737 23.3663L38.2885 23.585C38.7326 23.6845 39.1403 23.8171 39.5115 23.9828C39.8827 24.1485 40.2042 24.3523 40.476 24.5943C40.7477 24.8362 40.9582 25.1213 41.1074 25.4494C41.2598 25.7775 41.3377 26.1537 41.341 26.5779C41.3377 27.2011 41.1786 27.7413 40.8637 28.1987C40.5522 28.6528 40.1014 29.0057 39.5115 29.2576C38.9248 29.5062 38.2172 29.6305 37.3886 29.6305C36.5666 29.6305 35.8507 29.5046 35.2409 29.2527C34.6343 29.0008 34.1604 28.6279 33.819 28.1341C33.4809 27.6369 33.3036 27.0221 33.287 26.2896H35.3701C35.3933 26.631 35.4911 26.916 35.6635 27.1447C35.8391 27.3701 36.0728 27.5408 36.3645 27.6568C36.6594 27.7695 36.9925 27.8258 37.3637 27.8258C37.7283 27.8258 38.0449 27.7728 38.3133 27.6667C38.5851 27.5607 38.7956 27.4132 38.9447 27.2243C39.0939 27.0353 39.1684 26.8182 39.1684 26.573C39.1684 26.3443 39.1005 26.152 38.9646 25.9963C38.832 25.8405 38.6365 25.7079 38.378 25.5985C38.1227 25.4892 37.8095 25.3897 37.4383 25.3002L36.3297 25.0218C35.4712 24.813 34.7934 24.4866 34.2963 24.0424C33.7991 23.5983 33.5522 23.0001 33.5555 22.2477C33.5522 21.6312 33.7163 21.0926 34.0477 20.6319C34.3825 20.1712 34.8415 19.8116 35.4248 19.5531C36.0082 19.2946 36.671 19.1653 37.4135 19.1653C38.1691 19.1653 38.8287 19.2946 39.3922 19.5531C39.9589 19.8116 40.3997 20.1712 40.7146 20.6319C41.0295 21.0926 41.1919 21.6262 41.2018 22.2328H39.1386ZM42.7492 29.4863V21.85H44.8671V29.4863H42.7492ZM43.8131 20.8656C43.4983 20.8656 43.2282 20.7612 43.0028 20.5524C42.7807 20.3403 42.6697 20.0867 42.6697 19.7917C42.6697 19.5001 42.7807 19.2498 43.0028 19.041C43.2282 18.8289 43.4983 18.7228 43.8131 18.7228C44.128 18.7228 44.3965 18.8289 44.6185 19.041C44.8439 19.2498 44.9566 19.5001 44.9566 19.7917C44.9566 20.0867 44.8439 20.3403 44.6185 20.5524C44.3965 20.7612 44.128 20.8656 43.8131 20.8656ZM50.004 32.5091C49.3179 32.5091 48.7296 32.4146 48.2391 32.2257C47.7519 32.0401 47.3641 31.7865 47.0758 31.465C46.7874 31.1435 46.6001 30.7823 46.514 30.3812L48.4728 30.1177C48.5324 30.2702 48.6269 30.4127 48.7561 30.5453C48.8854 30.6779 49.0561 30.7839 49.2682 30.8635C49.4837 30.9463 49.7455 30.9877 50.0537 30.9877C50.5144 30.9877 50.8939 30.8751 51.1922 30.6497C51.4938 30.4276 51.6446 30.0547 51.6446 29.5311V28.1341H51.5552C51.4624 28.3462 51.3231 28.5467 51.1375 28.7356C50.9519 28.9245 50.7133 29.0787 50.4216 29.198C50.13 29.3173 49.782 29.377 49.3776 29.377C48.8042 29.377 48.2822 29.2444 47.8115 28.9792C47.3442 28.7108 46.9713 28.3014 46.6929 27.7512C46.4178 27.1977 46.2803 26.4984 46.2803 25.6532C46.2803 24.7882 46.4212 24.0656 46.7029 23.4856C46.9846 22.9056 47.3591 22.4714 47.8265 22.1831C48.2971 21.8947 48.8125 21.7505 49.3726 21.7505C49.8002 21.7505 50.1581 21.8234 50.4465 21.9693C50.7348 22.1118 50.9668 22.2908 51.1425 22.5062C51.3215 22.7183 51.459 22.9271 51.5552 23.1326H51.6347V21.85H53.7377V29.5609C53.7377 30.2105 53.5786 30.7541 53.2604 31.1916C52.9422 31.6291 52.5014 31.9572 51.938 32.176C51.3778 32.398 50.7332 32.5091 50.004 32.5091ZM50.0488 27.786C50.3901 27.786 50.6785 27.7015 50.9138 27.5325C51.1525 27.3601 51.3347 27.1149 51.4607 26.7967C51.59 26.4752 51.6546 26.0907 51.6546 25.6433C51.6546 25.1958 51.5916 24.8081 51.4657 24.4799C51.3397 24.1485 51.1574 23.8916 50.9188 23.7093C50.6802 23.527 50.3901 23.4359 50.0488 23.4359C49.7008 23.4359 49.4074 23.5304 49.1688 23.7193C48.9302 23.9049 48.7495 24.1634 48.6269 24.4949C48.5043 24.8263 48.4429 25.2091 48.4429 25.6433C48.4429 26.0841 48.5043 26.4653 48.6269 26.7868C48.7528 27.1049 48.9335 27.3519 49.1688 27.5275C49.4074 27.6999 49.7008 27.786 50.0488 27.786ZM57.5409 25.0716V29.4863H55.4231V21.85H57.4415V23.1973H57.531C57.7 22.7531 57.9834 22.4018 58.3811 22.1433C58.7789 21.8815 59.2611 21.7505 59.8279 21.7505C60.3582 21.7505 60.8205 21.8665 61.215 22.0985C61.6094 22.3306 61.9159 22.662 62.1347 23.0929C62.3534 23.5204 62.4628 24.0308 62.4628 24.6241V29.4863H60.3449V25.002C60.3482 24.5346 60.2289 24.17 59.987 23.9082C59.745 23.6431 59.4119 23.5105 58.9877 23.5105C58.7026 23.5105 58.4508 23.5718 58.232 23.6944C58.0166 23.8171 57.8475 23.996 57.7249 24.2314C57.6056 24.4634 57.5443 24.7434 57.5409 25.0716ZM73.7011 19.3045H75.8538V25.9167C75.8538 26.6592 75.6765 27.3088 75.3218 27.8656C74.9705 28.4224 74.4783 28.8566 73.8453 29.1681C73.2122 29.4764 72.4748 29.6305 71.6329 29.6305C70.7878 29.6305 70.0486 29.4764 69.4156 29.1681C68.7825 28.8566 68.2904 28.4224 67.939 27.8656C67.5877 27.3088 67.412 26.6592 67.412 25.9167V19.3045H69.5647V25.7328C69.5647 26.1206 69.6493 26.4653 69.8183 26.7669C69.9906 27.0685 70.2326 27.3055 70.5441 27.4778C70.8557 27.6502 71.2186 27.7363 71.6329 27.7363C72.0505 27.7363 72.4135 27.6502 72.7217 27.4778C73.0333 27.3055 73.2735 27.0685 73.4426 26.7669C73.6149 26.4653 73.7011 26.1206 73.7011 25.7328V19.3045ZM77.5852 32.35V21.85H79.6732V23.1326H79.7677C79.8605 22.9271 79.9947 22.7183 80.1704 22.5062C80.3494 22.2908 80.5814 22.1118 80.8664 21.9693C81.1548 21.8234 81.5127 21.7505 81.9403 21.7505C82.4971 21.7505 83.0108 21.8964 83.4815 22.188C83.9521 22.4764 84.3283 22.9122 84.61 23.4956C84.8917 24.0756 85.0326 24.8031 85.0326 25.6781C85.0326 26.5299 84.8951 27.2491 84.62 27.8358C84.3482 28.4191 83.977 28.8616 83.5063 29.1632C83.039 29.4615 82.5153 29.6106 81.9353 29.6106C81.5243 29.6106 81.1746 29.5427 80.8863 29.4068C80.6013 29.2709 80.3676 29.1002 80.1853 28.8947C80.003 28.6859 79.8638 28.4754 79.7677 28.2633H79.7031V32.35H77.5852ZM79.6583 25.6681C79.6583 26.1222 79.7213 26.5183 79.8472 26.8564C79.9732 27.1944 80.1555 27.4579 80.3941 27.6468C80.6327 27.8324 80.9228 27.9252 81.2641 27.9252C81.6088 27.9252 81.9005 27.8308 82.1391 27.6419C82.3778 27.4496 82.5584 27.1845 82.681 26.8464C82.807 26.505 82.87 26.1123 82.87 25.6681C82.87 25.2273 82.8086 24.8395 82.686 24.5048C82.5634 24.17 82.3827 23.9082 82.1441 23.7193C81.9055 23.5304 81.6121 23.4359 81.2641 23.4359C80.9194 23.4359 80.6278 23.527 80.3891 23.7093C80.1538 23.8916 79.9732 24.1502 79.8472 24.4849C79.7213 24.8197 79.6583 25.2141 79.6583 25.6681Z" fill="#09A387"/>
</svg>
