<svg width="33" height="33" viewBox="0 0 33 33" fill="none" xmlns="http://www.w3.org/2000/svg">
<path d="M14.3061 20.9853L21.2248 16.986L14.3061 12.9867V20.9853ZM29.7167 10.5471C29.89 11.1737 30.01 12.0135 30.09 13.08C30.1833 14.1465 30.2233 15.0663 30.2233 15.8662L30.3033 16.986C30.3033 19.9055 30.09 22.0518 29.7167 23.4249C29.3834 24.6247 28.6102 25.3979 27.4104 25.7312C26.7839 25.9045 25.6374 26.0244 23.8777 26.1044C22.1447 26.1977 20.5583 26.2377 19.0919 26.2377L16.9723 26.3177C11.3866 26.3177 7.90716 26.1044 6.53407 25.7312C5.33428 25.3979 4.56108 24.6247 4.2278 23.4249C4.0545 22.7983 3.93452 21.9585 3.85453 20.892C3.76121 19.8255 3.72122 18.9057 3.72122 18.1058L3.64124 16.986C3.64124 14.0665 3.85453 11.9202 4.2278 10.5471C4.56108 9.34734 5.33428 8.57414 6.53407 8.24086C7.16062 8.06756 8.30709 7.94758 10.0668 7.86759C11.7998 7.77428 13.3862 7.73428 14.8526 7.73428L16.9723 7.6543C22.558 7.6543 26.0373 7.86759 27.4104 8.24086C28.6102 8.57414 29.3834 9.34734 29.7167 10.5471Z" fill="#626467"/>
</svg>
