<svg width="249" height="40" viewBox="0 0 249 40" fill="none" xmlns="http://www.w3.org/2000/svg">
<g clip-path="url(#clip0_1236_35961)">
<rect width="249" height="40" rx="20" fill="#09A387"/>
<path d="M30.9418 21.7598H32.6508C32.5961 22.4115 32.4138 22.9925 32.1039 23.5029C31.794 24.0088 31.3588 24.4076 30.7982 24.6992C30.2377 24.9909 29.5564 25.1367 28.7543 25.1367C28.1391 25.1367 27.5854 25.0273 27.0932 24.8086C26.601 24.5853 26.1794 24.2708 25.8285 23.8652C25.4776 23.4551 25.2087 22.9606 25.0219 22.3818C24.8396 21.8031 24.7484 21.1559 24.7484 20.4404V19.6133C24.7484 18.8978 24.8419 18.2507 25.0287 17.6719C25.2201 17.0931 25.4936 16.5986 25.849 16.1885C26.2045 15.7738 26.6306 15.457 27.1273 15.2383C27.6286 15.0195 28.1915 14.9102 28.8158 14.9102C29.6088 14.9102 30.2787 15.056 30.8256 15.3477C31.3725 15.6393 31.7963 16.0426 32.0971 16.5576C32.4024 17.0726 32.5893 17.6628 32.6576 18.3281H30.9486C30.9031 17.8997 30.8028 17.5329 30.6479 17.2275C30.4975 16.9222 30.2742 16.6898 29.9779 16.5303C29.6817 16.3662 29.2943 16.2842 28.8158 16.2842C28.4239 16.2842 28.0821 16.3571 27.7904 16.5029C27.4988 16.6488 27.2549 16.863 27.059 17.1455C26.863 17.4281 26.7149 17.7767 26.6146 18.1914C26.5189 18.6016 26.4711 19.071 26.4711 19.5996V20.4404C26.4711 20.9417 26.5144 21.3975 26.601 21.8076C26.6921 22.2132 26.8288 22.5618 27.0111 22.8535C27.198 23.1452 27.435 23.3708 27.7221 23.5303C28.0092 23.6898 28.3533 23.7695 28.7543 23.7695C29.2419 23.7695 29.6361 23.6921 29.9369 23.5371C30.2423 23.3822 30.4724 23.1566 30.6273 22.8604C30.7868 22.5596 30.8917 22.1927 30.9418 21.7598ZM42.2459 19.75V20.2969C42.2459 21.0488 42.1479 21.7233 41.952 22.3203C41.756 22.9173 41.4757 23.4255 41.1111 23.8447C40.7511 24.264 40.3182 24.5853 39.8123 24.8086C39.3064 25.0273 38.7459 25.1367 38.1307 25.1367C37.52 25.1367 36.9617 25.0273 36.4559 24.8086C35.9546 24.5853 35.5193 24.264 35.1502 23.8447C34.7811 23.4255 34.4939 22.9173 34.2889 22.3203C34.0883 21.7233 33.9881 21.0488 33.9881 20.2969V19.75C33.9881 18.998 34.0883 18.3258 34.2889 17.7334C34.4894 17.1364 34.7719 16.6283 35.1365 16.209C35.5057 15.7852 35.9409 15.4639 36.4422 15.2451C36.948 15.0218 37.5063 14.9102 38.117 14.9102C38.7322 14.9102 39.2928 15.0218 39.7986 15.2451C40.3045 15.4639 40.7397 15.7852 41.1043 16.209C41.4689 16.6283 41.7492 17.1364 41.9451 17.7334C42.1456 18.3258 42.2459 18.998 42.2459 19.75ZM40.5301 20.2969V19.7363C40.5301 19.1803 40.4754 18.6904 40.366 18.2666C40.2612 17.8382 40.104 17.4805 39.8943 17.1934C39.6893 16.9017 39.4363 16.6829 39.1355 16.5371C38.8348 16.3867 38.4952 16.3115 38.117 16.3115C37.7387 16.3115 37.4015 16.3867 37.1053 16.5371C36.809 16.6829 36.5561 16.9017 36.3465 17.1934C36.1414 17.4805 35.9842 17.8382 35.8748 18.2666C35.7654 18.6904 35.7107 19.1803 35.7107 19.7363V20.2969C35.7107 20.8529 35.7654 21.3451 35.8748 21.7734C35.9842 22.2018 36.1437 22.5641 36.3533 22.8604C36.5675 23.152 36.8227 23.373 37.1189 23.5234C37.4152 23.6693 37.7524 23.7422 38.1307 23.7422C38.5135 23.7422 38.853 23.6693 39.1492 23.5234C39.4454 23.373 39.6961 23.152 39.9012 22.8604C40.1062 22.5641 40.2612 22.2018 40.366 21.7734C40.4754 21.3451 40.5301 20.8529 40.5301 20.2969ZM51.9572 15.0469V25H50.2414L45.7775 17.8701V25H44.0617V15.0469H45.7775L50.2551 22.1904V15.0469H51.9572ZM57.9908 15.0469V25H56.2887V15.0469H57.9908ZM61.1148 15.0469V16.4141H53.192V15.0469H61.1148ZM65.7471 16.373L62.7734 25H60.9756L64.7217 15.0469H65.8701L65.7471 16.373ZM68.2354 25L65.2549 16.373L65.125 15.0469H66.2803L70.04 25H68.2354ZM68.0918 21.3086V22.6689H62.6777V21.3086H68.0918ZM77.0238 21.7598H78.7328C78.6781 22.4115 78.4958 22.9925 78.1859 23.5029C77.876 24.0088 77.4408 24.4076 76.8803 24.6992C76.3197 24.9909 75.6384 25.1367 74.8363 25.1367C74.2211 25.1367 73.6674 25.0273 73.1752 24.8086C72.683 24.5853 72.2615 24.2708 71.9105 23.8652C71.5596 23.4551 71.2908 22.9606 71.1039 22.3818C70.9216 21.8031 70.8305 21.1559 70.8305 20.4404V19.6133C70.8305 18.8978 70.9239 18.2507 71.1107 17.6719C71.3021 17.0931 71.5756 16.5986 71.9311 16.1885C72.2865 15.7738 72.7126 15.457 73.2094 15.2383C73.7107 15.0195 74.2735 14.9102 74.8979 14.9102C75.6908 14.9102 76.3607 15.056 76.9076 15.3477C77.4545 15.6393 77.8783 16.0426 78.1791 16.5576C78.4844 17.0726 78.6713 17.6628 78.7396 18.3281H77.0307C76.9851 17.8997 76.8848 17.5329 76.7299 17.2275C76.5795 16.9222 76.3562 16.6898 76.06 16.5303C75.7637 16.3662 75.3764 16.2842 74.8979 16.2842C74.5059 16.2842 74.1641 16.3571 73.8725 16.5029C73.5808 16.6488 73.337 16.863 73.141 17.1455C72.9451 17.4281 72.7969 17.7767 72.6967 18.1914C72.601 18.6016 72.5531 19.071 72.5531 19.5996V20.4404C72.5531 20.9417 72.5964 21.3975 72.683 21.8076C72.7742 22.2132 72.9109 22.5618 73.0932 22.8535C73.28 23.1452 73.517 23.3708 73.8041 23.5303C74.0912 23.6898 74.4353 23.7695 74.8363 23.7695C75.324 23.7695 75.7182 23.6921 76.0189 23.5371C76.3243 23.3822 76.5544 23.1566 76.7094 22.8604C76.8689 22.5596 76.9737 22.1927 77.0238 21.7598ZM84.2811 15.0469V25H82.5789V15.0469H84.2811ZM87.4051 15.0469V16.4141H79.4822V15.0469H87.4051ZM97.9547 21.7598H99.6637C99.609 22.4115 99.4267 22.9925 99.1168 23.5029C98.8069 24.0088 98.3717 24.4076 97.8111 24.6992C97.2506 24.9909 96.5693 25.1367 95.7672 25.1367C95.152 25.1367 94.5982 25.0273 94.1061 24.8086C93.6139 24.5853 93.1923 24.2708 92.8414 23.8652C92.4905 23.4551 92.2216 22.9606 92.0348 22.3818C91.8525 21.8031 91.7613 21.1559 91.7613 20.4404V19.6133C91.7613 18.8978 91.8548 18.2507 92.0416 17.6719C92.233 17.0931 92.5064 16.5986 92.8619 16.1885C93.2174 15.7738 93.6435 15.457 94.1402 15.2383C94.6415 15.0195 95.2044 14.9102 95.8287 14.9102C96.6217 14.9102 97.2916 15.056 97.8385 15.3477C98.3854 15.6393 98.8092 16.0426 99.11 16.5576C99.4153 17.0726 99.6021 17.6628 99.6705 18.3281H97.9615C97.916 17.8997 97.8157 17.5329 97.6607 17.2275C97.5104 16.9222 97.287 16.6898 96.9908 16.5303C96.6946 16.3662 96.3072 16.2842 95.8287 16.2842C95.4368 16.2842 95.095 16.3571 94.8033 16.5029C94.5117 16.6488 94.2678 16.863 94.0719 17.1455C93.8759 17.4281 93.7278 17.7767 93.6275 18.1914C93.5318 18.6016 93.484 19.071 93.484 19.5996V20.4404C93.484 20.9417 93.5273 21.3975 93.6139 21.8076C93.705 22.2132 93.8417 22.5618 94.024 22.8535C94.2109 23.1452 94.4479 23.3708 94.735 23.5303C95.0221 23.6898 95.3661 23.7695 95.7672 23.7695C96.2548 23.7695 96.649 23.6921 96.9498 23.5371C97.2551 23.3822 97.4853 23.1566 97.6402 22.8604C97.7997 22.5596 97.9046 22.1927 97.9547 21.7598ZM106.907 15.0469H108.616V21.6982C108.616 22.4548 108.452 23.0882 108.124 23.5986C107.796 24.109 107.349 24.4941 106.784 24.7539C106.224 25.0091 105.597 25.1367 104.904 25.1367C104.189 25.1367 103.551 25.0091 102.99 24.7539C102.43 24.4941 101.988 24.109 101.664 23.5986C101.345 23.0882 101.186 22.4548 101.186 21.6982V15.0469H102.895V21.6982C102.895 22.1768 102.977 22.571 103.141 22.8809C103.305 23.1862 103.537 23.4118 103.838 23.5576C104.139 23.7035 104.494 23.7764 104.904 23.7764C105.314 23.7764 105.668 23.7035 105.964 23.5576C106.265 23.4118 106.497 23.1862 106.661 22.8809C106.825 22.571 106.907 22.1768 106.907 21.6982V15.0469ZM115.819 22.4365C115.819 22.2314 115.787 22.0492 115.723 21.8896C115.664 21.7301 115.557 21.5843 115.402 21.4521C115.247 21.32 115.028 21.1924 114.746 21.0693C114.468 20.9417 114.112 20.8118 113.679 20.6797C113.205 20.5339 112.768 20.3721 112.367 20.1943C111.97 20.012 111.624 19.8024 111.328 19.5654C111.031 19.3239 110.801 19.0482 110.637 18.7383C110.473 18.4238 110.391 18.0615 110.391 17.6514C110.391 17.2458 110.475 16.8766 110.644 16.5439C110.817 16.2113 111.061 15.9242 111.375 15.6826C111.694 15.4365 112.07 15.2474 112.503 15.1152C112.936 14.9785 113.415 14.9102 113.939 14.9102C114.677 14.9102 115.313 15.0469 115.846 15.3203C116.384 15.5938 116.796 15.9606 117.083 16.4209C117.375 16.8812 117.521 17.3893 117.521 17.9453H115.819C115.819 17.6172 115.748 17.3278 115.607 17.0771C115.47 16.8219 115.26 16.6214 114.978 16.4756C114.7 16.3298 114.347 16.2568 113.918 16.2568C113.513 16.2568 113.176 16.3184 112.907 16.4414C112.638 16.5645 112.437 16.7308 112.305 16.9404C112.173 17.1501 112.107 17.387 112.107 17.6514C112.107 17.8382 112.15 18.0091 112.237 18.1641C112.323 18.3145 112.455 18.4557 112.633 18.5879C112.811 18.7155 113.034 18.8363 113.303 18.9502C113.572 19.0641 113.889 19.1735 114.253 19.2783C114.805 19.4424 115.286 19.6247 115.696 19.8252C116.106 20.0212 116.448 20.2445 116.721 20.4951C116.995 20.7458 117.2 21.0306 117.336 21.3496C117.473 21.6641 117.541 22.0218 117.541 22.4229C117.541 22.8421 117.457 23.2204 117.288 23.5576C117.12 23.8903 116.878 24.1751 116.564 24.4121C116.254 24.6445 115.88 24.8245 115.443 24.9521C115.01 25.0752 114.527 25.1367 113.994 25.1367C113.515 25.1367 113.043 25.0729 112.579 24.9453C112.118 24.8177 111.699 24.624 111.321 24.3643C110.942 24.0999 110.642 23.7718 110.418 23.3799C110.195 22.9834 110.083 22.5208 110.083 21.9922H111.799C111.799 22.3158 111.854 22.5915 111.963 22.8193C112.077 23.0472 112.234 23.234 112.435 23.3799C112.635 23.5212 112.868 23.626 113.132 23.6943C113.401 23.7627 113.688 23.7969 113.994 23.7969C114.395 23.7969 114.73 23.7399 114.998 23.626C115.272 23.512 115.477 23.3525 115.614 23.1475C115.75 22.9424 115.819 22.7054 115.819 22.4365ZM123.254 15.0469V25H121.552V15.0469H123.254ZM126.378 15.0469V16.4141H118.455V15.0469H126.378ZM135.535 19.75V20.2969C135.535 21.0488 135.437 21.7233 135.241 22.3203C135.045 22.9173 134.765 23.4255 134.401 23.8447C134.041 24.264 133.608 24.5853 133.102 24.8086C132.596 25.0273 132.035 25.1367 131.42 25.1367C130.809 25.1367 130.251 25.0273 129.745 24.8086C129.244 24.5853 128.809 24.264 128.44 23.8447C128.071 23.4255 127.783 22.9173 127.578 22.3203C127.378 21.7233 127.278 21.0488 127.278 20.2969V19.75C127.278 18.998 127.378 18.3258 127.578 17.7334C127.779 17.1364 128.061 16.6283 128.426 16.209C128.795 15.7852 129.23 15.4639 129.732 15.2451C130.237 15.0218 130.796 14.9102 131.406 14.9102C132.022 14.9102 132.582 15.0218 133.088 15.2451C133.594 15.4639 134.029 15.7852 134.394 16.209C134.758 16.6283 135.039 17.1364 135.235 17.7334C135.435 18.3258 135.535 18.998 135.535 19.75ZM133.82 20.2969V19.7363C133.82 19.1803 133.765 18.6904 133.655 18.2666C133.551 17.8382 133.393 17.4805 133.184 17.1934C132.979 16.9017 132.726 16.6829 132.425 16.5371C132.124 16.3867 131.785 16.3115 131.406 16.3115C131.028 16.3115 130.691 16.3867 130.395 16.5371C130.098 16.6829 129.846 16.9017 129.636 17.1934C129.431 17.4805 129.274 17.8382 129.164 18.2666C129.055 18.6904 129 19.1803 129 19.7363V20.2969C129 20.8529 129.055 21.3451 129.164 21.7734C129.274 22.2018 129.433 22.5641 129.643 22.8604C129.857 23.152 130.112 23.373 130.408 23.5234C130.705 23.6693 131.042 23.7422 131.42 23.7422C131.803 23.7422 132.142 23.6693 132.439 23.5234C132.735 23.373 132.986 23.152 133.191 22.8604C133.396 22.5641 133.551 22.2018 133.655 21.7734C133.765 21.3451 133.82 20.8529 133.82 20.2969ZM138.048 15.0469H139.58L142.458 22.7236L145.329 15.0469H146.86L143.059 25H141.842L138.048 15.0469ZM137.351 15.0469H138.807L139.06 21.6914V25H137.351V15.0469ZM146.101 15.0469H147.564V25H145.848V21.6914L146.101 15.0469ZM156.216 23.6396V25H150.932V23.6396H156.216ZM151.417 15.0469V25H149.701V15.0469H151.417ZM155.525 19.2031V20.543H150.932V19.2031H155.525ZM156.182 15.0469V16.4141H150.932V15.0469H156.182ZM157.717 15.0469H161.238C161.994 15.0469 162.639 15.1608 163.172 15.3887C163.705 15.6165 164.113 15.9538 164.396 16.4004C164.683 16.8424 164.827 17.3893 164.827 18.041C164.827 18.5378 164.735 18.9753 164.553 19.3535C164.371 19.7318 164.113 20.0508 163.781 20.3105C163.448 20.5658 163.052 20.764 162.591 20.9053L162.072 21.1582H158.907L158.893 19.7979H161.265C161.675 19.7979 162.017 19.7249 162.29 19.5791C162.564 19.4333 162.769 19.235 162.906 18.9844C163.047 18.7292 163.118 18.4421 163.118 18.123C163.118 17.7767 163.049 17.4759 162.913 17.2207C162.78 16.9609 162.575 16.7627 162.297 16.626C162.019 16.4847 161.666 16.4141 161.238 16.4141H159.433V25H157.717V15.0469ZM163.398 25L161.06 20.5293L162.858 20.5225L165.23 24.9111V25H163.398ZM175.458 22.4365C175.458 22.2314 175.426 22.0492 175.362 21.8896C175.303 21.7301 175.196 21.5843 175.041 21.4521C174.886 21.32 174.668 21.1924 174.385 21.0693C174.107 20.9417 173.751 20.8118 173.319 20.6797C172.845 20.5339 172.407 20.3721 172.006 20.1943C171.61 20.012 171.263 19.8024 170.967 19.5654C170.671 19.3239 170.441 19.0482 170.277 18.7383C170.112 18.4238 170.03 18.0615 170.03 17.6514C170.03 17.2458 170.115 16.8766 170.283 16.5439C170.457 16.2113 170.7 15.9242 171.015 15.6826C171.334 15.4365 171.71 15.2474 172.143 15.1152C172.576 14.9785 173.054 14.9102 173.578 14.9102C174.317 14.9102 174.952 15.0469 175.486 15.3203C176.023 15.5938 176.436 15.9606 176.723 16.4209C177.015 16.8812 177.16 17.3893 177.16 17.9453H175.458C175.458 17.6172 175.388 17.3278 175.246 17.0771C175.11 16.8219 174.9 16.6214 174.617 16.4756C174.339 16.3298 173.986 16.2568 173.558 16.2568C173.152 16.2568 172.815 16.3184 172.546 16.4414C172.277 16.5645 172.077 16.7308 171.945 16.9404C171.812 17.1501 171.746 17.387 171.746 17.6514C171.746 17.8382 171.79 18.0091 171.876 18.1641C171.963 18.3145 172.095 18.4557 172.273 18.5879C172.45 18.7155 172.674 18.8363 172.943 18.9502C173.211 19.0641 173.528 19.1735 173.893 19.2783C174.444 19.4424 174.925 19.6247 175.335 19.8252C175.745 20.0212 176.087 20.2445 176.361 20.4951C176.634 20.7458 176.839 21.0306 176.976 21.3496C177.112 21.6641 177.181 22.0218 177.181 22.4229C177.181 22.8421 177.097 23.2204 176.928 23.5576C176.759 23.8903 176.518 24.1751 176.203 24.4121C175.893 24.6445 175.52 24.8245 175.082 24.9521C174.649 25.0752 174.166 25.1367 173.633 25.1367C173.154 25.1367 172.683 25.0729 172.218 24.9453C171.758 24.8177 171.338 24.624 170.96 24.3643C170.582 24.0999 170.281 23.7718 170.058 23.3799C169.834 22.9834 169.723 22.5208 169.723 21.9922H171.439C171.439 22.3158 171.493 22.5915 171.603 22.8193C171.717 23.0472 171.874 23.234 172.074 23.3799C172.275 23.5212 172.507 23.626 172.772 23.6943C173.041 23.7627 173.328 23.7969 173.633 23.7969C174.034 23.7969 174.369 23.7399 174.638 23.626C174.911 23.512 175.116 23.3525 175.253 23.1475C175.39 22.9424 175.458 22.7054 175.458 22.4365ZM185.313 23.6396V25H180.029V23.6396H185.313ZM180.514 15.0469V25H178.798V15.0469H180.514ZM184.623 19.2031V20.543H180.029V19.2031H184.623ZM185.279 15.0469V16.4141H180.029V15.0469H185.279ZM186.814 15.0469H190.335C191.091 15.0469 191.736 15.1608 192.27 15.3887C192.803 15.6165 193.211 15.9538 193.493 16.4004C193.78 16.8424 193.924 17.3893 193.924 18.041C193.924 18.5378 193.833 18.9753 193.65 19.3535C193.468 19.7318 193.211 20.0508 192.878 20.3105C192.545 20.5658 192.149 20.764 191.688 20.9053L191.169 21.1582H188.004L187.99 19.7979H190.362C190.772 19.7979 191.114 19.7249 191.388 19.5791C191.661 19.4333 191.866 19.235 192.003 18.9844C192.144 18.7292 192.215 18.4421 192.215 18.123C192.215 17.7767 192.146 17.4759 192.01 17.2207C191.878 16.9609 191.673 16.7627 191.395 16.626C191.117 16.4847 190.763 16.4141 190.335 16.4141H188.53V25H186.814V15.0469ZM192.495 25L190.157 20.5293L191.955 20.5225L194.327 24.9111V25H192.495ZM199.007 23.1816L201.625 15.0469H203.519L199.951 25H198.672L199.007 23.1816ZM196.587 15.0469L199.185 23.1816L199.54 25H198.255L194.701 15.0469H196.587ZM206.565 15.0469V25H204.849V15.0469H206.565ZM214.677 21.7598H216.386C216.331 22.4115 216.149 22.9925 215.839 23.5029C215.529 24.0088 215.094 24.4076 214.533 24.6992C213.973 24.9909 213.292 25.1367 212.489 25.1367C211.874 25.1367 211.32 25.0273 210.828 24.8086C210.336 24.5853 209.915 24.2708 209.564 23.8652C209.213 23.4551 208.944 22.9606 208.757 22.3818C208.575 21.8031 208.484 21.1559 208.484 20.4404V19.6133C208.484 18.8978 208.577 18.2507 208.764 17.6719C208.955 17.0931 209.229 16.5986 209.584 16.1885C209.94 15.7738 210.366 15.457 210.862 15.2383C211.364 15.0195 211.927 14.9102 212.551 14.9102C213.344 14.9102 214.014 15.056 214.561 15.3477C215.108 15.6393 215.531 16.0426 215.832 16.5576C216.138 17.0726 216.324 17.6628 216.393 18.3281H214.684C214.638 17.8997 214.538 17.5329 214.383 17.2275C214.233 16.9222 214.009 16.6898 213.713 16.5303C213.417 16.3662 213.029 16.2842 212.551 16.2842C212.159 16.2842 211.817 16.3571 211.526 16.5029C211.234 16.6488 210.99 16.863 210.794 17.1455C210.598 17.4281 210.45 17.7767 210.35 18.1914C210.254 18.6016 210.206 19.071 210.206 19.5996V20.4404C210.206 20.9417 210.25 21.3975 210.336 21.8076C210.427 22.2132 210.564 22.5618 210.746 22.8535C210.933 23.1452 211.17 23.3708 211.457 23.5303C211.744 23.6898 212.088 23.7695 212.489 23.7695C212.977 23.7695 213.371 23.6921 213.672 23.5371C213.977 23.3822 214.208 23.1566 214.362 22.8604C214.522 22.5596 214.627 22.1927 214.677 21.7598ZM224.559 23.6396V25H219.275V23.6396H224.559ZM219.76 15.0469V25H218.045V15.0469H219.76ZM223.869 19.2031V20.543H219.275V19.2031H223.869ZM224.525 15.0469V16.4141H219.275V15.0469H224.525Z" fill="white"/>
</g>
<defs>
<clipPath id="clip0_1236_35961">
<rect width="249" height="40" rx="20" fill="white"/>
</clipPath>
</defs>
</svg>
