<svg width="185" height="69" viewBox="0 0 185 69" fill="none" xmlns="http://www.w3.org/2000/svg">
<g filter="url(#filter0_dd_690_38964)">
<rect x="4.92627" y="2.49707" width="176" height="64" rx="8" fill="#F2F2F2"/>
<g clip-path="url(#clip0_690_38964)">
<path d="M29.3275 43.4772H46.5248C46.625 43.4779 46.7213 43.4352 46.7931 43.3584C46.8649 43.2815 46.9063 43.1766 46.9083 43.0664V30.1039C46.9084 30.0488 46.8986 29.9942 46.8794 29.9433C46.8603 29.8924 46.8323 29.8461 46.7969 29.8071C46.7615 29.7681 46.7195 29.7372 46.6732 29.7161C46.627 29.695 46.5774 29.6841 46.5273 29.6841H41.5191V27.3596C41.5191 26.3423 40.9043 25.5156 40.148 25.5156H35.6748C34.9181 25.5156 34.3032 26.3415 34.3032 27.3596V29.6841H29.3271C29.2769 29.6839 29.2272 29.6946 29.1808 29.7156C29.1343 29.7366 29.0921 29.7675 29.0565 29.8065C29.021 29.8455 28.9928 29.8919 28.9735 29.9429C28.9542 29.9939 28.9443 30.0486 28.9443 30.1039V43.0664C28.9464 43.1765 28.9877 43.2814 29.0594 43.3582C29.1311 43.4351 29.2274 43.4778 29.3275 43.4772V43.4772ZM44.1139 30.5257H46.1417V42.627H44.1139V30.5257ZM35.0681 27.3596C35.0681 26.817 35.3458 26.358 35.6669 26.358H40.144C40.4734 26.358 40.7428 26.817 40.7428 27.3596V29.6841H35.0681V27.3596ZM32.3037 30.5257H43.3441V42.627H32.3037V30.5257ZM29.7089 30.5257H31.5391V42.627H29.711L29.7089 30.5257Z" fill="#09A387" stroke="#09A387" stroke-width="0.0446406" stroke-miterlimit="10"/>
</g>
<path d="M60.1718 36.5098V29.5439H61.8808V36.5098C61.8808 37.1706 61.7395 37.7334 61.4569 38.1982C61.1744 38.6631 60.7893 39.0186 60.3017 39.2646C59.814 39.5107 59.2603 39.6338 58.6405 39.6338C58.0071 39.6338 57.4442 39.5267 56.952 39.3125C56.4644 39.0983 56.0816 38.7702 55.8036 38.3281C55.5256 37.8861 55.3866 37.3255 55.3866 36.6465H57.1093C57.1093 37.0384 57.1708 37.3551 57.2938 37.5967C57.4215 37.8337 57.5992 38.0068 57.827 38.1162C58.0595 38.221 58.3306 38.2734 58.6405 38.2734C58.9367 38.2734 59.1988 38.2074 59.4267 38.0752C59.6591 37.9385 59.8414 37.7402 59.9735 37.4805C60.1057 37.2161 60.1718 36.8926 60.1718 36.5098ZM67.9622 38.0137V34.4863C67.9622 34.222 67.9144 33.9941 67.8187 33.8027C67.7229 33.6113 67.5771 33.4632 67.3812 33.3584C67.1897 33.2536 66.9482 33.2012 66.6565 33.2012C66.3877 33.2012 66.1552 33.2467 65.9593 33.3379C65.7633 33.429 65.6106 33.5521 65.5013 33.707C65.3919 33.862 65.3372 34.0374 65.3372 34.2334H63.6966C63.6966 33.9417 63.7672 33.6592 63.9085 33.3857C64.0498 33.1123 64.2548 32.8685 64.5237 32.6543C64.7926 32.4401 65.1139 32.2715 65.4876 32.1484C65.8613 32.0254 66.2806 31.9639 66.7454 31.9639C67.3014 31.9639 67.7936 32.0573 68.222 32.2441C68.6549 32.431 68.9944 32.7135 69.2405 33.0918C69.4912 33.4655 69.6165 33.9349 69.6165 34.5V37.7881C69.6165 38.1253 69.6393 38.4284 69.6849 38.6973C69.735 38.9616 69.8056 39.1917 69.8968 39.3877V39.4971H68.2083C68.1308 39.3193 68.0693 39.0938 68.0237 38.8203C67.9827 38.5423 67.9622 38.2734 67.9622 38.0137ZM68.2015 34.999L68.2151 36.0176H67.0325C66.7272 36.0176 66.4583 36.0472 66.2259 36.1064C65.9935 36.1611 65.7998 36.2432 65.6448 36.3525C65.4899 36.4619 65.3737 36.5941 65.2962 36.749C65.2187 36.904 65.18 37.0794 65.18 37.2754C65.18 37.4714 65.2256 37.6514 65.3167 37.8154C65.4078 37.9749 65.54 38.1003 65.7132 38.1914C65.8909 38.2826 66.1051 38.3281 66.3558 38.3281C66.693 38.3281 66.9869 38.2598 67.2376 38.123C67.4928 37.9818 67.6933 37.8109 67.8392 37.6104C67.985 37.4053 68.0625 37.2116 68.0716 37.0293L68.6048 37.7607C68.5501 37.9476 68.4567 38.1481 68.3245 38.3623C68.1923 38.5765 68.0192 38.7816 67.805 38.9775C67.5953 39.1689 67.3424 39.3262 67.0462 39.4492C66.7545 39.5723 66.4173 39.6338 66.0345 39.6338C65.5514 39.6338 65.1207 39.5381 64.7425 39.3467C64.3642 39.1507 64.068 38.8887 63.8538 38.5605C63.6396 38.2279 63.5325 37.8519 63.5325 37.4326C63.5325 37.0407 63.6054 36.6943 63.7513 36.3936C63.9017 36.0882 64.1204 35.833 64.4075 35.6279C64.6992 35.4229 65.0547 35.2679 65.4739 35.1631C65.8932 35.0537 66.3717 34.999 66.9095 34.999H68.2015ZM75.5886 37.4941C75.5886 37.3301 75.5476 37.182 75.4655 37.0498C75.3835 36.9131 75.2263 36.79 74.9938 36.6807C74.766 36.5713 74.4287 36.471 73.9821 36.3799C73.5902 36.2933 73.2302 36.1908 72.902 36.0723C72.5785 35.9492 72.3005 35.8011 72.0681 35.6279C71.8356 35.4548 71.6556 35.2497 71.528 35.0127C71.4004 34.7757 71.3366 34.5023 71.3366 34.1924C71.3366 33.8916 71.4027 33.6068 71.5349 33.3379C71.667 33.069 71.8562 32.832 72.1022 32.627C72.3483 32.4219 72.6468 32.2601 72.9978 32.1416C73.3532 32.0231 73.7497 31.9639 74.1872 31.9639C74.807 31.9639 75.3379 32.0687 75.78 32.2783C76.2266 32.4834 76.5684 32.7637 76.8054 33.1191C77.0423 33.4701 77.1608 33.8665 77.1608 34.3086H75.5134C75.5134 34.1126 75.4632 33.9303 75.363 33.7617C75.2673 33.5885 75.1215 33.4495 74.9255 33.3447C74.7295 33.2354 74.4834 33.1807 74.1872 33.1807C73.9047 33.1807 73.67 33.2262 73.4831 33.3174C73.3008 33.404 73.1641 33.5179 73.0729 33.6592C72.9864 33.8005 72.9431 33.9554 72.9431 34.124C72.9431 34.2471 72.9659 34.3587 73.0114 34.459C73.0616 34.5547 73.1436 34.6436 73.2575 34.7256C73.3715 34.8031 73.5264 34.876 73.7224 34.9443C73.9229 35.0127 74.1735 35.0788 74.4743 35.1426C75.0394 35.2611 75.5248 35.4137 75.9304 35.6006C76.3405 35.7829 76.655 36.0199 76.8737 36.3115C77.0925 36.5986 77.2019 36.9632 77.2019 37.4053C77.2019 37.7334 77.1312 38.0342 76.9899 38.3076C76.8532 38.5765 76.6527 38.8112 76.3884 39.0117C76.1241 39.2077 75.8073 39.3604 75.4382 39.4697C75.0736 39.5791 74.6634 39.6338 74.2077 39.6338C73.5378 39.6338 72.9704 39.5153 72.5056 39.2783C72.0407 39.0368 71.6875 38.7292 71.446 38.3555C71.209 37.9772 71.0905 37.5853 71.0905 37.1797H72.6833C72.7015 37.485 72.7858 37.7288 72.9362 37.9111C73.0912 38.0889 73.2826 38.2188 73.5104 38.3008C73.7429 38.3783 73.9821 38.417 74.2282 38.417C74.5244 38.417 74.7728 38.3783 74.9733 38.3008C75.1739 38.2188 75.3265 38.1094 75.4313 37.9727C75.5362 37.8314 75.5886 37.6719 75.5886 37.4941ZM82.9142 38.0137V34.4863C82.9142 34.222 82.8663 33.9941 82.7706 33.8027C82.6749 33.6113 82.5291 33.4632 82.3331 33.3584C82.1417 33.2536 81.9002 33.2012 81.6085 33.2012C81.3396 33.2012 81.1072 33.2467 80.9112 33.3379C80.7153 33.429 80.5626 33.5521 80.4532 33.707C80.3438 33.862 80.2892 34.0374 80.2892 34.2334H78.6485C78.6485 33.9417 78.7192 33.6592 78.8604 33.3857C79.0017 33.1123 79.2068 32.8685 79.4757 32.6543C79.7446 32.4401 80.0659 32.2715 80.4395 32.1484C80.8132 32.0254 81.2325 31.9639 81.6974 31.9639C82.2534 31.9639 82.7455 32.0573 83.1739 32.2441C83.6069 32.431 83.9464 32.7135 84.1925 33.0918C84.4431 33.4655 84.5685 33.9349 84.5685 34.5V37.7881C84.5685 38.1253 84.5912 38.4284 84.6368 38.6973C84.6869 38.9616 84.7576 39.1917 84.8487 39.3877V39.4971H83.1603C83.0828 39.3193 83.0213 39.0938 82.9757 38.8203C82.9347 38.5423 82.9142 38.2734 82.9142 38.0137ZM83.1534 34.999L83.1671 36.0176H81.9845C81.6791 36.0176 81.4103 36.0472 81.1778 36.1064C80.9454 36.1611 80.7517 36.2432 80.5968 36.3525C80.4418 36.4619 80.3256 36.5941 80.2481 36.749C80.1707 36.904 80.1319 37.0794 80.1319 37.2754C80.1319 37.4714 80.1775 37.6514 80.2687 37.8154C80.3598 37.9749 80.492 38.1003 80.6651 38.1914C80.8429 38.2826 81.0571 38.3281 81.3077 38.3281C81.645 38.3281 81.9389 38.2598 82.1895 38.123C82.4448 37.9818 82.6453 37.8109 82.7911 37.6104C82.9369 37.4053 83.0144 37.2116 83.0235 37.0293L83.5567 37.7607C83.502 37.9476 83.4086 38.1481 83.2765 38.3623C83.1443 38.5765 82.9711 38.7816 82.7569 38.9775C82.5473 39.1689 82.2944 39.3262 81.9981 39.4492C81.7065 39.5723 81.3692 39.6338 80.9864 39.6338C80.5034 39.6338 80.0727 39.5381 79.6944 39.3467C79.3162 39.1507 79.02 38.8887 78.8058 38.5605C78.5916 38.2279 78.4845 37.8519 78.4845 37.4326C78.4845 37.0407 78.5574 36.6943 78.7032 36.3936C78.8536 36.0882 79.0724 35.833 79.3595 35.6279C79.6511 35.4229 80.0066 35.2679 80.4259 35.1631C80.8451 35.0537 81.3237 34.999 81.8614 34.999H83.1534ZM91.6796 34.083L93.3954 32.9277C93.6825 32.7363 93.8876 32.5495 94.0106 32.3672C94.1337 32.1803 94.1952 31.9479 94.1952 31.6699C94.1952 31.4329 94.1041 31.2142 93.9218 31.0137C93.7395 30.8132 93.482 30.7129 93.1493 30.7129C92.9169 30.7129 92.7209 30.7676 92.5614 30.877C92.4019 30.9818 92.2812 31.123 92.1991 31.3008C92.1216 31.474 92.0829 31.6676 92.0829 31.8818C92.0829 32.0869 92.1353 32.2988 92.2401 32.5176C92.345 32.7318 92.4885 32.9574 92.6708 33.1943C92.8531 33.4268 93.0582 33.6774 93.286 33.9463L97.9892 39.4971H96.0819L92.2401 34.9785C91.9075 34.5775 91.6135 34.2106 91.3583 33.8779C91.1031 33.5407 90.9048 33.2148 90.7636 32.9004C90.6223 32.5814 90.5517 32.2533 90.5517 31.916C90.5517 31.3965 90.6588 30.9499 90.8729 30.5762C91.0871 30.2025 91.3902 29.9154 91.7821 29.7148C92.1741 29.5098 92.6321 29.4072 93.1562 29.4072C93.662 29.4072 94.0972 29.5098 94.4618 29.7148C94.831 29.9154 95.1135 30.182 95.3095 30.5146C95.51 30.8473 95.6103 31.2119 95.6103 31.6084C95.6103 31.9229 95.5533 32.21 95.4394 32.4697C95.3254 32.7295 95.1682 32.9665 94.9677 33.1807C94.7672 33.3949 94.5347 33.5977 94.2704 33.7891L92.1854 35.3066C91.9439 35.5026 91.7639 35.6917 91.6454 35.874C91.5315 36.0518 91.4563 36.2158 91.4198 36.3662C91.3834 36.5166 91.3651 36.6488 91.3651 36.7627C91.3651 37.0544 91.4267 37.3187 91.5497 37.5557C91.6773 37.7926 91.8619 37.9818 92.1034 38.123C92.3495 38.2598 92.648 38.3281 92.9989 38.3281C93.3772 38.3281 93.744 38.2438 94.0995 38.0752C94.455 37.902 94.774 37.6582 95.0565 37.3438C95.3391 37.0293 95.5624 36.6533 95.7265 36.2158C95.8951 35.7783 95.9794 35.293 95.9794 34.7598H97.4013C97.4013 35.2428 97.3534 35.7008 97.2577 36.1338C97.1666 36.5667 97.0185 36.9678 96.8134 37.3369C96.6129 37.7061 96.3485 38.0365 96.0204 38.3281C95.9885 38.36 95.952 38.401 95.911 38.4512C95.8746 38.4967 95.8381 38.5355 95.8017 38.5674C95.4097 38.9274 94.97 39.1963 94.4823 39.374C93.9992 39.5472 93.4843 39.6338 92.9374 39.6338C92.2766 39.6338 91.7047 39.513 91.2216 39.2715C90.7385 39.0299 90.3648 38.6973 90.1005 38.2734C89.8407 37.8496 89.7108 37.3643 89.7108 36.8174C89.7108 36.4118 89.7951 36.0563 89.9638 35.751C90.1324 35.4411 90.3625 35.154 90.6542 34.8896C90.9504 34.6208 91.2922 34.3519 91.6796 34.083ZM108.047 36.9336C108.047 36.7285 108.015 36.5462 107.951 36.3867C107.892 36.2272 107.785 36.0814 107.63 35.9492C107.475 35.8171 107.256 35.6895 106.973 35.5664C106.695 35.4388 106.34 35.3089 105.907 35.1768C105.433 35.0309 104.995 34.8691 104.594 34.6914C104.198 34.5091 103.852 34.2995 103.555 34.0625C103.259 33.821 103.029 33.5452 102.865 33.2354C102.701 32.9209 102.619 32.5586 102.619 32.1484C102.619 31.7428 102.703 31.3737 102.872 31.041C103.045 30.7083 103.289 30.4212 103.603 30.1797C103.922 29.9336 104.298 29.7445 104.731 29.6123C105.164 29.4756 105.643 29.4072 106.167 29.4072C106.905 29.4072 107.541 29.5439 108.074 29.8174C108.612 30.0908 109.024 30.4577 109.311 30.918C109.603 31.3783 109.749 31.8864 109.749 32.4424H108.047C108.047 32.1143 107.976 31.8249 107.835 31.5742C107.698 31.319 107.488 31.1185 107.206 30.9727C106.928 30.8268 106.575 30.7539 106.146 30.7539C105.741 30.7539 105.403 30.8154 105.134 30.9385C104.866 31.0615 104.665 31.2279 104.533 31.4375C104.401 31.6471 104.335 31.8841 104.335 32.1484C104.335 32.3353 104.378 32.5062 104.465 32.6611C104.551 32.8115 104.683 32.9528 104.861 33.085C105.039 33.2126 105.262 33.3333 105.531 33.4473C105.8 33.5612 106.117 33.6706 106.481 33.7754C107.033 33.9395 107.513 34.1217 107.924 34.3223C108.334 34.5182 108.675 34.7415 108.949 34.9922C109.222 35.2428 109.427 35.5277 109.564 35.8467C109.701 36.1611 109.769 36.5189 109.769 36.9199C109.769 37.3392 109.685 37.7174 109.516 38.0547C109.348 38.3874 109.106 38.6722 108.792 38.9092C108.482 39.1416 108.108 39.3216 107.671 39.4492C107.238 39.5723 106.755 39.6338 106.221 39.6338C105.743 39.6338 105.271 39.57 104.806 39.4424C104.346 39.3148 103.927 39.1211 103.549 38.8613C103.17 38.597 102.869 38.2689 102.646 37.877C102.423 37.4805 102.311 37.0179 102.311 36.4893H104.027C104.027 36.8128 104.082 37.0885 104.191 37.3164C104.305 37.5443 104.462 37.7311 104.663 37.877C104.863 38.0182 105.096 38.123 105.36 38.1914C105.629 38.2598 105.916 38.2939 106.221 38.2939C106.622 38.2939 106.957 38.237 107.226 38.123C107.5 38.0091 107.705 37.8496 107.842 37.6445C107.978 37.4395 108.047 37.2025 108.047 36.9336ZM114.483 39.6338C113.937 39.6338 113.442 39.5449 113 39.3672C112.563 39.1849 112.189 38.932 111.879 38.6084C111.574 38.2848 111.339 37.9043 111.175 37.4668C111.011 37.0293 110.929 36.5576 110.929 36.0518V35.7783C110.929 35.1995 111.013 34.6755 111.182 34.2061C111.35 33.7367 111.585 33.3356 111.886 33.0029C112.187 32.6657 112.542 32.4082 112.952 32.2305C113.362 32.0527 113.807 31.9639 114.285 31.9639C114.814 31.9639 115.276 32.0527 115.673 32.2305C116.069 32.4082 116.398 32.6589 116.657 32.9824C116.922 33.3014 117.118 33.682 117.245 34.124C117.377 34.5661 117.443 35.0537 117.443 35.5869V36.291H111.729V35.1084H115.817V34.9785C115.807 34.6823 115.748 34.4043 115.639 34.1445C115.534 33.8848 115.372 33.6751 115.153 33.5156C114.935 33.3561 114.643 33.2764 114.278 33.2764C114.005 33.2764 113.761 33.3356 113.547 33.4541C113.337 33.568 113.162 33.7344 113.021 33.9531C112.879 34.1719 112.77 34.4362 112.692 34.7461C112.62 35.0514 112.583 35.3955 112.583 35.7783V36.0518C112.583 36.3753 112.626 36.6761 112.713 36.9541C112.804 37.2275 112.936 37.4668 113.109 37.6719C113.283 37.877 113.492 38.0387 113.738 38.1572C113.984 38.2712 114.265 38.3281 114.579 38.3281C114.976 38.3281 115.329 38.2484 115.639 38.0889C115.949 37.9294 116.218 37.7038 116.445 37.4121L117.314 38.2529C117.154 38.4854 116.947 38.7087 116.692 38.9229C116.436 39.1325 116.124 39.3034 115.755 39.4355C115.39 39.5677 114.967 39.6338 114.483 39.6338ZM120.483 33.5088V39.4971H118.835V32.1006H120.408L120.483 33.5088ZM122.746 32.0527L122.732 33.584C122.632 33.5658 122.522 33.5521 122.404 33.543C122.29 33.5339 122.176 33.5293 122.062 33.5293C121.779 33.5293 121.531 33.5703 121.317 33.6523C121.103 33.7298 120.923 33.8438 120.777 33.9941C120.636 34.14 120.526 34.3177 120.449 34.5273C120.371 34.737 120.326 34.9717 120.312 35.2314L119.936 35.2588C119.936 34.7939 119.982 34.3633 120.073 33.9668C120.164 33.5703 120.301 33.2217 120.483 32.9209C120.67 32.6201 120.902 32.3854 121.18 32.2168C121.463 32.0482 121.789 31.9639 122.158 31.9639C122.258 31.9639 122.365 31.973 122.479 31.9912C122.597 32.0094 122.686 32.0299 122.746 32.0527ZM126.407 38.1914L128.219 32.1006H129.928L127.357 39.4971H126.291L126.407 38.1914ZM125.019 32.1006L126.865 38.2188L126.954 39.4971H125.888L123.304 32.1006H125.019ZM132.81 32.1006V39.4971H131.156V32.1006H132.81ZM131.046 30.1592C131.046 29.9085 131.128 29.7012 131.292 29.5371C131.461 29.3685 131.693 29.2842 131.99 29.2842C132.281 29.2842 132.511 29.3685 132.68 29.5371C132.849 29.7012 132.933 29.9085 132.933 30.1592C132.933 30.4053 132.849 30.6104 132.68 30.7744C132.511 30.9385 132.281 31.0205 131.99 31.0205C131.693 31.0205 131.461 30.9385 131.292 30.7744C131.128 30.6104 131.046 30.4053 131.046 30.1592ZM137.736 38.3213C138.005 38.3213 138.246 38.2689 138.461 38.1641C138.679 38.0547 138.855 37.9043 138.987 37.7129C139.124 37.5215 139.199 37.3005 139.213 37.0498H140.764C140.755 37.5283 140.614 37.9635 140.341 38.3555C140.067 38.7474 139.705 39.0596 139.254 39.292C138.802 39.5199 138.303 39.6338 137.757 39.6338C137.191 39.6338 136.699 39.5381 136.28 39.3467C135.861 39.1507 135.512 38.8818 135.234 38.54C134.956 38.1982 134.746 37.804 134.605 37.3574C134.468 36.9108 134.4 36.4323 134.4 35.9219V35.6826C134.4 35.1722 134.468 34.6937 134.605 34.2471C134.746 33.7959 134.956 33.3994 135.234 33.0576C135.512 32.7158 135.861 32.4492 136.28 32.2578C136.699 32.0618 137.189 31.9639 137.75 31.9639C138.342 31.9639 138.862 32.0824 139.308 32.3193C139.755 32.5518 140.106 32.8776 140.361 33.2969C140.621 33.7116 140.755 34.1947 140.764 34.7461H139.213C139.199 34.4727 139.131 34.2266 139.008 34.0078C138.889 33.7845 138.72 33.6068 138.502 33.4746C138.287 33.3424 138.03 33.2764 137.729 33.2764C137.397 33.2764 137.121 33.3447 136.902 33.4814C136.683 33.6136 136.512 33.7959 136.389 34.0283C136.266 34.2562 136.177 34.5137 136.123 34.8008C136.073 35.0833 136.048 35.3773 136.048 35.6826V35.9219C136.048 36.2272 136.073 36.5234 136.123 36.8105C136.173 37.0977 136.259 37.3551 136.383 37.583C136.51 37.8063 136.683 37.9863 136.902 38.123C137.121 38.2552 137.399 38.3213 137.736 38.3213ZM145.39 39.6338C144.843 39.6338 144.348 39.5449 143.906 39.3672C143.469 39.1849 143.095 38.932 142.785 38.6084C142.48 38.2848 142.245 37.9043 142.081 37.4668C141.917 37.0293 141.835 36.5576 141.835 36.0518V35.7783C141.835 35.1995 141.919 34.6755 142.088 34.2061C142.257 33.7367 142.491 33.3356 142.792 33.0029C143.093 32.6657 143.448 32.4082 143.858 32.2305C144.269 32.0527 144.713 31.9639 145.192 31.9639C145.72 31.9639 146.183 32.0527 146.579 32.2305C146.976 32.4082 147.304 32.6589 147.564 32.9824C147.828 33.3014 148.024 33.682 148.151 34.124C148.284 34.5661 148.35 35.0537 148.35 35.5869V36.291H142.635V35.1084H146.723V34.9785C146.714 34.6823 146.654 34.4043 146.545 34.1445C146.44 33.8848 146.278 33.6751 146.06 33.5156C145.841 33.3561 145.549 33.2764 145.185 33.2764C144.911 33.2764 144.667 33.3356 144.453 33.4541C144.244 33.568 144.068 33.7344 143.927 33.9531C143.786 34.1719 143.676 34.4362 143.599 34.7461C143.526 35.0514 143.489 35.3955 143.489 35.7783V36.0518C143.489 36.3753 143.533 36.6761 143.619 36.9541C143.71 37.2275 143.843 37.4668 144.016 37.6719C144.189 37.877 144.399 38.0387 144.645 38.1572C144.891 38.2712 145.171 38.3281 145.485 38.3281C145.882 38.3281 146.235 38.2484 146.545 38.0889C146.855 37.9294 147.124 37.7038 147.352 37.4121L148.22 38.2529C148.06 38.4854 147.853 38.7087 147.598 38.9229C147.343 39.1325 147.03 39.3034 146.661 39.4355C146.297 39.5677 145.873 39.6338 145.39 39.6338Z" fill="#49454F"/>
</g>
<defs>
<filter id="filter0_dd_690_38964" x="0.92627" y="-0.50293" width="184" height="72" filterUnits="userSpaceOnUse" color-interpolation-filters="sRGB">
<feFlood flood-opacity="0" result="BackgroundImageFix"/>
<feColorMatrix in="SourceAlpha" type="matrix" values="0 0 0 0 0 0 0 0 0 0 0 0 0 0 0 0 0 0 127 0" result="hardAlpha"/>
<feMorphology radius="1" operator="dilate" in="SourceAlpha" result="effect1_dropShadow_690_38964"/>
<feOffset dy="1"/>
<feGaussianBlur stdDeviation="1.5"/>
<feColorMatrix type="matrix" values="0 0 0 0 0 0 0 0 0 0 0 0 0 0 0 0 0 0 0.15 0"/>
<feBlend mode="normal" in2="BackgroundImageFix" result="effect1_dropShadow_690_38964"/>
<feColorMatrix in="SourceAlpha" type="matrix" values="0 0 0 0 0 0 0 0 0 0 0 0 0 0 0 0 0 0 127 0" result="hardAlpha"/>
<feOffset dy="1"/>
<feGaussianBlur stdDeviation="1"/>
<feColorMatrix type="matrix" values="0 0 0 0 0 0 0 0 0 0 0 0 0 0 0 0 0 0 0.3 0"/>
<feBlend mode="normal" in2="effect1_dropShadow_690_38964" result="effect2_dropShadow_690_38964"/>
<feBlend mode="normal" in="SourceGraphic" in2="effect2_dropShadow_690_38964" result="shape"/>
</filter>
<clipPath id="clip0_690_38964">
<rect width="18" height="18" fill="white" transform="translate(28.9263 25.4971)"/>
</clipPath>
</defs>
</svg>
