<svg width="33" height="33" viewBox="0 0 33 33" fill="none" xmlns="http://www.w3.org/2000/svg">
<path d="M17.5307 21.9581V8.62705C17.5307 7.8908 16.9339 7.29395 16.1976 7.29395H5.53281C4.79656 7.29395 4.19971 7.8908 4.19971 8.62705V21.9581C4.19971 22.6943 4.79656 23.2912 5.53281 23.2912H6.86591M17.5307 21.9581C17.5307 22.6943 16.9339 23.2912 16.1976 23.2912H12.1983M17.5307 21.9581L17.5307 11.2933C17.5307 10.557 18.1276 9.96015 18.8638 9.96015H22.311C22.6645 9.96015 23.0036 10.1006 23.2536 10.3506L27.8051 14.9021C28.0551 15.1521 28.1956 15.4912 28.1956 15.8447V21.9581C28.1956 22.6943 27.5987 23.2912 26.8624 23.2912H25.5293M17.5307 21.9581C17.5307 22.6943 18.1276 23.2912 18.8638 23.2912H20.1969M6.86591 23.2912C6.86591 24.7637 8.05961 25.9574 9.53211 25.9574C11.0046 25.9574 12.1983 24.7637 12.1983 23.2912M6.86591 23.2912C6.86591 21.8187 8.05961 20.625 9.53211 20.625C11.0046 20.625 12.1983 21.8187 12.1983 23.2912M20.1969 23.2912C20.1969 24.7637 21.3906 25.9574 22.8631 25.9574C24.3356 25.9574 25.5293 24.7637 25.5293 23.2912M20.1969 23.2912C20.1969 21.8187 21.3906 20.625 22.8631 20.625C24.3356 20.625 25.5293 21.8187 25.5293 23.2912" stroke="#111827" stroke-width="2"/>
</svg>
