<svg width="61" height="61" viewBox="0 0 61 61" fill="none" xmlns="http://www.w3.org/2000/svg">
<path d="M54.6363 35.8568C54.5303 34.0953 53.7559 32.4408 52.4712 31.231C51.1865 30.0213 49.4884 29.3477 47.7238 29.3477C45.9592 29.3477 44.2611 30.0213 42.9764 31.231C41.6917 32.4408 40.9173 34.0953 40.8113 35.8568V38.3568C40.8113 38.6568 40.8113 39.0068 40.8113 39.3568V40.9568C40.8178 41.4298 41.0104 41.8812 41.3472 42.2134C41.6841 42.5456 42.1382 42.7318 42.6113 42.7318C42.9144 42.7367 43.2133 42.6605 43.477 42.511C43.7408 42.3616 43.9598 42.1443 44.1113 41.8818C44.1195 41.8237 44.1195 41.7648 44.1113 41.7068C44.219 41.4886 44.2787 41.2499 44.2863 41.0068V35.7568C44.286 35.3225 44.3733 34.8927 44.5432 34.493C44.713 34.0934 44.9618 33.7321 45.2746 33.431C45.5875 33.1298 45.9579 32.8949 46.3637 32.7404C46.7695 32.5859 47.2024 32.5149 47.6363 32.5318C48.3323 32.488 49.023 32.6784 49.5983 33.0725C50.1737 33.4667 50.6006 34.0419 50.8113 34.7068C50.9101 35.048 50.9606 35.4015 50.9613 35.7568V40.9818C50.9689 41.2249 51.0285 41.4636 51.1363 41.6818V41.8568C51.2899 42.1231 51.5128 42.3428 51.7813 42.4925C52.0499 42.6422 52.354 42.7162 52.6613 42.7068C53.13 42.7003 53.5778 42.5112 53.9092 42.1797C54.2407 41.8482 54.4298 41.4005 54.4363 40.9318V35.9318L54.6363 35.8568Z" fill="#61308C"/>
<path d="M40.8113 23.7318C40.4363 24.9068 38.9113 28.7318 36.8363 27.8818C35.7379 27.258 34.8634 26.3048 34.3363 25.1568C34.0821 24.7307 33.8566 24.288 33.6613 23.8318C31.9057 23.9799 30.1497 23.5497 28.6613 22.6068C28.5221 22.4624 28.4118 22.2927 28.3363 22.1068C28.1853 21.6953 28.1853 21.2434 28.3363 20.8318C28.7775 19.6161 29.4966 18.5203 30.4363 17.6318L30.8363 17.2568C30.4227 16.1473 30.1619 14.9867 30.0613 13.8068C30.071 13.3943 30.1827 12.9907 30.3863 12.6318C30.4642 12.5126 30.5566 12.4034 30.6613 12.3068C31.9863 11.2318 34.2863 12.3068 35.6613 13.1568L36.0613 13.3818L36.4363 13.1318C37.0886 12.6564 37.7645 12.2142 38.4613 11.8068C39.5363 11.2318 40.7363 10.8318 41.4863 11.3568C41.792 11.5294 42.0501 11.7749 42.2377 12.0716C42.4253 12.3682 42.5365 12.7067 42.5613 13.0568C42.5864 13.4564 42.5864 13.8572 42.5613 14.2568C42.5613 14.8318 42.4113 15.4068 42.3363 15.9068C42.2613 16.4068 42.1613 16.8568 42.1113 17.0818C42.6363 17.4818 43.3863 18.0318 44.0613 18.6568C44.4598 19.0422 44.8046 19.4795 45.0863 19.9568C45.2401 20.1995 45.3436 20.4706 45.3909 20.754C45.4381 21.0374 45.4281 21.3274 45.3613 21.6068C45.3238 21.7405 45.2647 21.8672 45.1863 21.9818C44.4113 23.1818 41.6863 23.5068 40.8863 23.6818" fill="#B3742A"/>
<path d="M40.6613 23.382C40.2863 24.507 38.8363 28.132 36.8113 27.382C35.7156 26.8009 34.8383 25.8797 34.3113 24.757C34.0729 24.3561 33.864 23.9383 33.6863 23.507C31.9977 23.6479 30.31 23.2259 28.8863 22.307C28.7478 22.1716 28.6374 22.0102 28.5613 21.832C28.4097 21.4292 28.4097 20.9849 28.5613 20.582C28.9991 19.4191 29.6909 18.3686 30.5863 17.507L30.9613 17.157C30.635 16.0694 30.4583 14.9424 30.4363 13.807C30.437 13.4124 30.5404 13.0247 30.7363 12.682C30.808 12.5654 30.9014 12.4636 31.0113 12.382C32.2613 11.332 34.4863 12.382 35.8613 13.207L36.2613 13.432C36.3759 13.3341 36.5018 13.2502 36.6363 13.182C37.2597 12.7176 37.9109 12.2918 38.5863 11.907C39.6113 11.332 40.7613 10.957 41.4863 11.457C41.7486 11.6549 41.9601 11.9121 42.1035 12.2077C42.247 12.5032 42.3182 12.8286 42.3113 13.157C42.3483 13.5395 42.3483 13.9246 42.3113 14.307C42.274 14.8354 42.2072 15.3612 42.1113 15.882C42.1113 16.407 41.9363 16.807 41.9113 17.032C42.5635 17.4957 43.1817 18.0053 43.7613 18.557C44.1585 18.9249 44.5034 19.3455 44.7863 19.807C44.9298 20.0401 45.0258 20.2993 45.0687 20.5696C45.1116 20.8399 45.1006 21.116 45.0363 21.382C45.0016 21.5047 44.9512 21.6224 44.8863 21.732C44.1113 22.907 41.4863 23.232 40.7113 23.382" fill="#FBF28B"/>
<path d="M44.6363 21.2063C44.6126 21.3325 44.5614 21.452 44.4863 21.5563C43.7613 22.7063 41.2113 23.0063 40.4613 23.1563C40.0863 24.2563 38.6863 27.7563 36.7113 27.0563C35.6775 26.4921 34.8467 25.6177 34.3363 24.5563C34.0613 24.0813 33.8613 23.6313 33.7113 23.3063C32.0764 23.4529 30.4394 23.0481 29.0613 22.1563C28.9291 22.0251 28.8193 21.8731 28.7363 21.7063C28.6099 21.3077 28.6099 20.8798 28.7363 20.4813C29.1575 19.3584 29.8336 18.3486 30.7113 17.5313L31.0863 17.1813C30.7726 16.1335 30.5962 15.0495 30.5613 13.9563C30.5617 13.5695 30.6653 13.1897 30.8613 12.8563C30.9311 12.7531 31.0153 12.6605 31.1113 12.5813C32.3363 11.5563 34.5113 12.5813 35.8363 13.3813L36.2113 13.5813L36.5863 13.3313C37.0363 13.0313 37.7363 12.5063 38.4613 12.1063C39.1863 11.7063 40.5363 11.1813 41.2613 11.6563C41.502 11.8464 41.6951 12.09 41.8253 12.3677C41.9554 12.6454 42.0191 12.9497 42.0113 13.2563C42.0363 13.6309 42.0363 14.0067 42.0113 14.3813C42.0113 14.9313 41.8863 15.4563 41.8113 15.9313C41.7363 16.4063 41.6363 16.8313 41.6113 17.0313C42.2399 17.487 42.8409 17.9796 43.4113 18.5063C43.7986 18.8609 44.1277 19.2743 44.3863 19.7313C44.6599 20.1711 44.7496 20.7009 44.6363 21.2063Z" fill="url(#paint0_linear_29_3469)"/>
<path d="M42.0113 14.3562C42.0113 14.9062 41.8863 15.4313 41.8113 15.8813C38.0219 15.7647 34.2409 16.3061 30.6363 17.4812L31.0113 17.1313C30.6976 16.0835 30.5212 14.9994 30.4863 13.9063C32.228 13.5799 33.9909 13.3793 35.7613 13.3062L36.1363 13.5312L36.4863 13.2812C38.9863 13.2812 41.1113 13.2812 42.0113 13.2812C42.0341 13.6392 42.0341 13.9983 42.0113 14.3562Z" fill="url(#paint1_linear_29_3469)"/>
<path d="M44.4113 19.7068C41.3033 21.7455 37.9413 23.3677 34.4113 24.5318C34.1897 24.1259 33.9894 23.7087 33.8113 23.2818C33.8113 23.2818 29.5613 23.2818 28.8113 21.6568C28.6854 21.2753 28.6854 20.8634 28.8113 20.4818C33.8243 21.1545 38.926 20.4725 43.5863 18.5068C43.9037 18.876 44.1803 19.2784 44.4113 19.7068Z" fill="url(#paint2_linear_29_3469)"/>
<path d="M41.6363 15.1566C41.4863 15.7066 41.0613 16.0566 40.6613 15.9566C40.2613 15.8566 40.0863 15.3316 40.2363 14.7816C40.3863 14.2316 40.8113 13.8566 41.2113 13.9566C41.4181 14.0685 41.5761 14.2532 41.6546 14.4749C41.7331 14.6965 41.7266 14.9394 41.6363 15.1566Z" fill="#FBF28D"/>
<path d="M41.2863 17.1322C41.212 17.2025 41.1136 17.2417 41.0113 17.2417C40.909 17.2417 40.8106 17.2025 40.7363 17.1322C40.6518 17.0716 40.5924 16.9823 40.5694 16.8809C40.5464 16.7796 40.5613 16.6733 40.6113 16.5822C40.6856 16.5119 40.784 16.4727 40.8863 16.4727C40.9886 16.4727 41.087 16.5119 41.1613 16.5822C41.1992 16.6173 41.2294 16.6598 41.25 16.7072C41.2707 16.7545 41.2813 16.8055 41.2813 16.8572C41.2813 16.9088 41.2707 16.9599 41.25 17.0072C41.2294 17.0545 41.1992 17.0971 41.1613 17.1322" fill="#FBF28D"/>
<path d="M35.8363 17.1561C35.4113 17.8061 34.7863 18.1561 34.4363 17.9311C34.0863 17.7061 34.1613 17.0062 34.5863 16.3562C35.0113 15.7062 35.6113 15.3561 35.9613 15.5561C36.3113 15.7561 36.2363 16.5061 35.9613 17.1561" fill="#231F20"/>
<path d="M39.7113 20.5565V20.3815C39.9107 20.0648 40.0308 19.7046 40.0613 19.3315C40.0613 19.0815 40.0613 18.9065 39.9113 18.8315C39.8314 18.7854 39.7409 18.7612 39.6488 18.7612C39.5566 18.7612 39.4661 18.7854 39.3863 18.8315C39.1081 18.9963 38.876 19.2284 38.7113 19.5065H38.5363C38.5363 19.5065 38.5363 19.5065 38.5363 19.3315C38.7369 19.0281 39.0014 18.7721 39.3113 18.5815C39.4282 18.5109 39.5622 18.4736 39.6988 18.4736C39.8353 18.4736 39.9693 18.5109 40.0863 18.5815C40.2031 18.6635 40.2921 18.7794 40.3412 18.9134C40.3904 19.0475 40.3974 19.1934 40.3613 19.3315C40.3268 19.6921 40.1974 20.0371 39.9863 20.3315C39.9863 20.3315 39.7613 20.5565 39.7113 20.5565Z" fill="#231F20"/>
<path d="M35.9862 16.6067C35.7862 16.8817 35.5362 17.0317 35.3862 16.9567C35.2362 16.8817 35.3862 16.5567 35.3862 16.2817C35.3862 16.0067 35.8362 15.8317 35.9612 15.9317C36.0862 16.0317 35.9612 16.3317 35.9612 16.6067" fill="white"/>
<path d="M35.0613 16.5312C35.0613 16.5312 34.8863 16.6812 34.8363 16.6562C34.7863 16.6312 34.8363 16.5062 34.8363 16.4062C34.8363 16.3062 34.9863 16.2562 35.0613 16.4062C35.1363 16.5562 35.0613 16.5562 35.0613 16.6562" fill="white"/>
<path d="M35.0613 17.157C35.0613 17.157 34.8863 17.332 34.8363 17.282C34.7863 17.232 34.8363 17.157 34.8363 17.032C34.8363 16.907 34.9863 16.882 35.0613 17.032C35.1363 17.182 35.0613 17.032 35.0613 17.257" fill="white"/>
<path d="M34.5363 18.2813C34.5363 18.2813 34.1363 18.2813 33.8613 18.2813C33.5863 18.2813 33.4113 17.8563 33.4863 17.7313C33.5613 17.6063 33.8613 17.7313 34.1613 17.7313C34.4613 17.7313 34.6113 18.1563 34.5363 18.2813Z" fill="#D96282"/>
<path d="M39.2613 21.3317C39.2613 21.3317 38.8863 21.3317 38.5863 21.3317C38.2863 21.3317 38.1363 20.8817 38.2113 20.7567C38.2863 20.6317 38.5863 20.7567 38.8863 20.7567C39.1863 20.7567 39.3363 21.2067 39.2613 21.3317Z" fill="#D96282"/>
<path d="M34.8613 22.3069C34.4318 22.1589 34.0781 21.8475 33.8768 21.4403C33.6756 21.0331 33.643 20.5629 33.7863 20.1319C33.7863 19.7819 34.1363 19.6819 34.4113 19.7819L34.8613 20.0819C35.0903 20.2578 35.3427 20.4008 35.6113 20.5069C35.8843 20.6166 36.1698 20.6921 36.4613 20.7319H36.9613C37.2613 20.8569 37.3113 21.0819 37.1863 21.4319C36.9727 21.8352 36.612 22.1407 36.179 22.285C35.7461 22.4293 35.2742 22.4014 34.8613 22.2069" fill="white"/>
<path d="M36.9363 20.957C37.1113 20.957 37.2113 21.157 37.0863 21.482C36.8711 21.8433 36.5331 22.115 36.1341 22.2474C35.7351 22.3799 35.3017 22.3643 34.9133 22.2034C34.5248 22.0426 34.2072 21.7473 34.0187 21.3715C33.8301 20.9957 33.7831 20.5646 33.8863 20.157C34.0113 19.857 34.1613 19.807 34.3613 19.907C34.5613 20.007 35.0363 20.407 35.5613 20.632C36.0863 20.857 36.6363 20.832 36.9363 20.957ZM36.9363 20.732L36.4613 20.557C36.1875 20.5231 35.9188 20.4559 35.6613 20.357C35.4468 20.2568 35.2454 20.1309 35.0613 19.982L34.5863 19.682C34.51 19.6462 34.4265 19.6284 34.3422 19.63C34.2579 19.6316 34.1751 19.6525 34.1002 19.6911C34.0253 19.7298 33.9603 19.7852 33.9102 19.8529C33.8601 19.9207 33.8263 19.9991 33.8113 20.082C33.7329 20.3101 33.7005 20.5515 33.7159 20.7922C33.7314 21.0329 33.7944 21.2682 33.9013 21.4844C34.0083 21.7006 34.157 21.8935 34.3389 22.0518C34.5209 22.2102 34.7324 22.3309 34.9613 22.407C35.1808 22.5177 35.4202 22.5835 35.6654 22.6006C35.9107 22.6177 36.1569 22.5858 36.3896 22.5066C36.6224 22.4275 36.837 22.3028 37.021 22.1397C37.205 21.9767 37.3547 21.7786 37.4613 21.557C37.6863 21.032 37.4613 20.807 37.1863 20.732" fill="#231F20"/>
<path d="M37.0363 21.582C36.8058 21.9002 36.4762 22.1328 36.0992 22.2435C35.7222 22.3543 35.3192 22.3368 34.9532 22.1938C34.5872 22.0509 34.279 21.7905 34.0769 21.4536C33.8748 21.1167 33.7902 20.7222 33.8363 20.332C34.2213 20.761 34.7005 21.0947 35.2363 21.307C35.8022 21.5536 36.4226 21.6484 37.0363 21.582ZM37.0363 21.382H36.9113C36.3467 21.4371 35.7775 21.3422 35.2613 21.107C34.75 20.9252 34.2938 20.6153 33.9363 20.207C33.8964 20.2221 33.8601 20.2455 33.8299 20.2756C33.7997 20.3058 33.7763 20.3421 33.7613 20.382C33.7036 20.8263 33.7967 21.277 34.0257 21.662C34.2546 22.047 34.6062 22.344 35.0241 22.5054C35.442 22.6668 35.9019 22.6832 36.3302 22.552C36.7586 22.4209 37.1304 22.1497 37.3863 21.782C37.411 21.745 37.4242 21.7015 37.4242 21.657C37.4242 21.6125 37.411 21.569 37.3863 21.532" fill="#231F20"/>
<path d="M17.5613 18.9813C16.2354 18.0703 14.7242 17.4642 13.1363 17.2063C11.8698 16.996 10.635 16.6264 9.46132 16.1063C9.33997 16.0279 9.23993 15.9206 9.17014 15.7941C9.10034 15.6676 9.06295 15.5258 9.06132 15.3813C9.06023 15.2203 9.10117 15.0618 9.18009 14.9215C9.25902 14.7812 9.37319 14.664 9.51132 14.5813C10.2001 14.2385 10.9697 14.0915 11.7363 14.1563C12.3365 14.1335 12.9343 14.2445 13.4863 14.4813C13.6968 14.5739 13.8721 14.7317 13.9863 14.9313C14.1473 15.1873 14.3677 15.4006 14.6289 15.5529C14.8901 15.7053 15.1843 15.7922 15.4863 15.8063C15.7269 15.8097 15.9657 15.7648 16.1887 15.6742C16.4116 15.5837 16.6141 15.4494 16.7843 15.2793C16.9544 15.1091 17.0887 14.9066 17.1793 14.6837C17.2698 14.4607 17.3147 14.2219 17.3113 13.9813C17.3252 13.865 17.3252 13.7475 17.3113 13.6313C17.2123 13.2813 17.0123 12.9682 16.7363 12.7313L16.3113 12.3063C14.9222 11.5428 13.3426 11.1956 11.7613 11.3063C10.0634 11.1734 8.37296 11.6425 6.98632 12.6313C6.50366 13.0231 6.1158 13.5189 5.85172 14.0817C5.58765 14.6445 5.45419 15.2597 5.46132 15.8813C5.43864 16.5495 5.59039 17.2122 5.90162 17.804C6.21286 18.3958 6.67286 18.8963 7.23632 19.2563C9.1539 20.1976 11.2016 20.8464 13.3113 21.1813C13.7833 21.2388 14.2318 21.4199 14.6113 21.7063C14.7095 21.8045 14.7867 21.9216 14.8383 22.0505C14.8899 22.1794 14.9147 22.3175 14.9113 22.4563C14.9143 22.6606 14.8682 22.8626 14.7769 23.0453C14.6855 23.228 14.5516 23.3861 14.3863 23.5063C13.7075 23.9529 12.8937 24.1475 12.0863 24.0563C9.68632 23.9563 9.31132 23.0563 9.31132 23.0563C9.1751 22.7085 8.93262 22.4125 8.61842 22.2105C8.30421 22.0085 7.93429 21.9108 7.56132 21.9313H7.36132C7.04064 21.9796 6.73932 22.1149 6.49009 22.3224C6.24085 22.5299 6.05323 22.8017 5.94759 23.1083C5.84195 23.4149 5.82233 23.7446 5.89086 24.0616C5.95939 24.3786 6.11346 24.6707 6.33632 24.9063C6.61314 25.1829 6.91436 25.4339 7.23632 25.6563C8.68827 26.5564 10.3802 26.9925 12.0863 26.9063C13.874 27.013 15.6428 26.4913 17.0863 25.4313C17.6147 25.0022 18.0412 24.4612 18.3352 23.8473C18.6292 23.2334 18.7833 22.5619 18.7863 21.8813C18.8133 21.3369 18.7172 20.7935 18.5051 20.2914C18.293 19.7893 17.9704 19.3415 17.5613 18.9813Z" fill="#61308C"/>
<path d="M27.3863 45.5564C27.28 45.3128 27.1053 45.1052 26.8835 44.9588C26.6616 44.8124 26.4021 44.7334 26.1363 44.7314C25.7924 44.7386 25.4631 44.872 25.2113 45.1064C23.7499 46.5312 21.7898 47.3286 19.7488 47.3286C17.7078 47.3286 15.7477 46.5312 14.2863 45.1064C14.0345 44.872 13.7052 44.7386 13.3613 44.7314C13.0977 44.738 12.8419 44.8216 12.6253 44.972C12.4087 45.1223 12.2409 45.3327 12.1425 45.5773C12.0442 45.8219 12.0196 46.0899 12.0718 46.3483C12.124 46.6067 12.2507 46.8442 12.4363 47.0314C14.4115 48.9053 17.0388 49.9365 19.7613 49.9064C22.4833 49.9339 25.1096 48.9031 27.0863 47.0314C27.2716 46.8397 27.3982 46.599 27.4514 46.3377C27.5045 46.0764 27.4819 45.8053 27.3863 45.5564Z" fill="#BD202F"/>
<path d="M54.6613 12.8811C54.601 12.4392 54.3832 12.034 54.0478 11.74C53.7125 11.446 53.2822 11.283 52.8363 11.2811C52.0502 11.1391 51.2432 11.1623 50.4666 11.3495C49.6901 11.5366 48.961 11.8835 48.3259 12.3681C47.6909 12.8526 47.1637 13.4641 46.7781 14.1637C46.3925 14.8632 46.1569 15.6354 46.0863 16.4311C46.0863 16.5561 46.0863 16.6561 46.0863 16.7811V25.1561C46.0789 25.3956 46.1214 25.634 46.2113 25.8561C46.3521 26.1762 46.5832 26.4483 46.8762 26.6393C47.1692 26.8302 47.5115 26.9316 47.8613 26.9311C48.2145 26.9328 48.5603 26.829 48.8542 26.633C49.1482 26.437 49.3769 26.1578 49.5113 25.8311C49.5609 25.6088 49.5609 25.3784 49.5113 25.1561V17.8811C49.4324 17.4308 49.4639 16.968 49.6033 16.5325C49.7426 16.0971 49.9856 15.702 50.3113 15.3811C50.5819 15.1628 50.8951 15.0033 51.2309 14.9129C51.5667 14.8225 51.9176 14.8032 52.2613 14.8561C52.5563 14.9732 52.8773 15.0091 53.1909 14.96C53.5044 14.9109 53.7991 14.7787 54.0442 14.577C54.2893 14.3753 54.4758 14.1116 54.5843 13.8133C54.6929 13.515 54.7194 13.1931 54.6613 12.8811Z" fill="#61308C"/>
<path d="M39.0363 30.0562C38.9025 29.7362 38.6766 29.4631 38.3873 29.2717C38.0979 29.0803 37.7582 28.9792 37.4113 28.9812C37.0595 28.9707 36.7128 29.068 36.4179 29.2602C36.1229 29.4523 35.8938 29.7301 35.7613 30.0562C35.6643 30.277 35.6133 30.5151 35.6113 30.7562V35.0562V36.7312V41.0312C35.6133 41.2723 35.6643 41.5105 35.7613 41.7312C35.8938 42.0574 36.1229 42.3352 36.4179 42.5273C36.7128 42.7195 37.0595 42.8168 37.4113 42.8062C37.7582 42.8083 38.0979 42.7072 38.3873 42.5158C38.6766 42.3244 38.9025 42.0513 39.0363 41.7312C39.1362 41.5114 39.1874 41.2727 39.1863 41.0312V30.7562C39.1874 30.5148 39.1362 30.276 39.0363 30.0562Z" fill="#61308C"/>
<path d="M26.9112 23.4314C26.5832 23.4843 26.2476 23.4647 25.928 23.374C25.6084 23.2833 25.3125 23.1237 25.0612 22.9064C24.7337 22.5868 24.4896 22.1918 24.3501 21.756C24.2107 21.3202 24.1801 20.8568 24.2612 20.4064V18.1814H26.0112C26.2421 18.2293 26.4803 18.2293 26.7112 18.1814C27.0313 18.0406 27.3035 17.8095 27.4944 17.5165C27.6853 17.2235 27.7867 16.8812 27.7862 16.5314C27.7913 16.1774 27.6889 15.8302 27.4925 15.5356C27.2961 15.241 27.015 15.0129 26.6862 14.8814C26.464 14.8319 26.2335 14.8319 26.0112 14.8814H24.2612V13.0564C24.2595 12.8234 24.2083 12.5933 24.1112 12.3814C23.9832 12.0573 23.7587 11.7803 23.468 11.588C23.1773 11.3958 22.8346 11.2975 22.4862 11.3064C22.1344 11.2959 21.7877 11.3932 21.4927 11.5854C21.1978 11.7775 20.9687 12.0553 20.8362 12.3814C20.7115 12.5867 20.6346 12.8174 20.6112 13.0564V21.4564C20.5988 21.5644 20.5988 21.6735 20.6112 21.7814C20.6823 22.5778 20.9179 23.3508 21.3032 24.0514C21.6886 24.752 22.2152 25.3649 22.8497 25.8514C23.4842 26.3379 24.2129 26.6873 24.9895 26.8775C25.7661 27.0677 26.5737 27.0946 27.3612 26.9564C27.8094 26.9485 28.24 26.7802 28.5748 26.4821C28.9096 26.184 29.1265 25.7757 29.1862 25.3314C29.2194 25.0395 29.1795 24.744 29.0703 24.4712C28.9611 24.1985 28.7858 23.9572 28.5604 23.7688C28.3349 23.5805 28.0662 23.4511 27.7783 23.3922C27.4905 23.3333 27.1926 23.3468 26.9112 23.4314Z" fill="#61308C"/>
<path d="M27.5613 28.9814C25.7313 28.9814 23.9762 29.7084 22.6822 31.0024C21.3882 32.2964 20.6613 34.0515 20.6613 35.8814C20.6613 37.7114 21.3882 39.4665 22.6822 40.7605C23.9762 42.0545 25.7313 42.7814 27.5613 42.7814C29.3912 42.7814 31.1463 42.0545 32.4403 40.7605C33.7343 39.4665 34.4613 37.7114 34.4613 35.8814C34.4613 34.0515 33.7343 32.2964 32.4403 31.0024C31.1463 29.7084 29.3912 28.9814 27.5613 28.9814ZM27.5613 39.2314C26.8987 39.2314 26.251 39.035 25.7001 38.6669C25.1492 38.2988 24.7198 37.7756 24.4663 37.1634C24.2127 36.5513 24.1464 35.8777 24.2756 35.2279C24.4049 34.5781 24.7239 33.9811 25.1924 33.5126C25.661 33.0441 26.2579 32.7251 26.9077 32.5958C27.5575 32.4666 28.2311 32.5329 28.8432 32.7864C29.4554 33.04 29.9786 33.4694 30.3467 34.0203C30.7148 34.5712 30.9113 35.2189 30.9113 35.8814C30.9113 36.7699 30.5583 37.622 29.9301 38.2503C29.3018 38.8785 28.4497 39.2314 27.5613 39.2314Z" fill="#61308C"/>
<path d="M5.43634 35.9068C5.42389 36.1066 5.42389 36.307 5.43634 36.5068C5.43634 36.0068 5.43634 35.5068 5.43634 35.0068C5.46134 35.3068 5.43634 35.5568 5.43634 35.9068ZM9.86134 42.3068H9.58634L10.0863 42.5068L9.86134 42.3068Z" fill="#61308C"/>
<path d="M12.7863 28.9566H11.6113C10.0529 29.1026 8.5926 29.7817 7.47676 30.8793C6.36092 31.9769 5.6579 33.4259 5.48633 34.9816C5.48633 35.4816 5.48633 35.9816 5.48633 36.4816C5.48633 37.8566 5.48633 39.3566 5.48633 41.2066V46.2066C5.48633 46.6774 5.67334 47.1289 6.00621 47.4618C6.33909 47.7946 6.79057 47.9816 7.26133 47.9816C7.73442 47.9817 8.18851 47.7955 8.52536 47.4633C8.86222 47.1311 9.05476 46.6797 9.06133 46.2066V42.3316C9.06133 42.3316 9.06133 42.0316 9.36133 42.1316H9.66133H9.93633H10.1613C10.8531 42.3716 11.5791 42.4982 12.3113 42.5066C14.0939 42.4972 15.8042 41.8007 17.0862 40.5621C18.3682 39.3235 19.1232 37.6382 19.1941 35.857C19.265 34.0758 18.6462 32.3359 17.4666 30.9994C16.2871 29.6629 14.6375 28.8327 12.8613 28.6816L12.7863 28.9566ZM12.2863 39.2066H11.7113H11.3113L10.9863 39.0816H10.8113C10.521 38.8366 10.2683 38.5502 10.0613 38.2316L9.81133 38.0566L9.61133 37.8066V37.6816L9.46133 37.4316V37.2566V37.0816C9.44695 36.9654 9.44695 36.8479 9.46133 36.7316V36.5816C9.43676 36.3573 9.43676 36.131 9.46133 35.9066C9.46133 35.9066 9.46133 35.7066 9.46133 35.6316C9.46133 35.5566 9.46133 35.4566 9.46133 35.3816C9.46133 35.3816 9.46133 35.2566 9.46133 35.1816C9.45049 35.1322 9.45049 35.0811 9.46133 35.0316C9.52131 34.8904 9.59677 34.7562 9.68633 34.6316L9.83633 34.4316L9.98633 34.2316L10.0613 33.4316L10.2363 33.2816L10.4363 33.0566H10.6613H10.9113H11.1363H11.3863H11.6863H12.1363C13.0248 33.0566 13.8769 33.4096 14.5051 34.0378C15.1334 34.6661 15.4863 35.5182 15.4863 36.4066C15.4863 37.2951 15.1334 38.1472 14.5051 38.7754C13.8769 39.4037 13.0248 39.7566 12.1363 39.7566L12.2863 39.2066Z" fill="#61308C"/>
<defs>
<linearGradient id="paint0_linear_29_3469" x1="31.3113" y1="19.2313" x2="42.7113" y2="19.2313" gradientUnits="userSpaceOnUse">
<stop stop-color="#F6B419"/>
<stop offset="1" stop-color="#FBE822"/>
</linearGradient>
<linearGradient id="paint1_linear_29_3469" x1="30.4863" y1="15.3313" x2="42.0363" y2="15.3313" gradientUnits="userSpaceOnUse">
<stop stop-color="#FFC809"/>
<stop offset="1" stop-color="#F5ED6D"/>
</linearGradient>
<linearGradient id="paint2_linear_29_3469" x1="28.5863" y1="21.5068" x2="44.4113" y2="21.5068" gradientUnits="userSpaceOnUse">
<stop stop-color="#F4A51E"/>
<stop offset="1" stop-color="#FFE000"/>
</linearGradient>
</defs>
</svg>
