<svg width="90" height="90" viewBox="0 0 90 90" fill="none" xmlns="http://www.w3.org/2000/svg">
<g clip-path="url(#clip0_1198_35976)">
<path d="M61.7701 19.7305C59.8032 19.728 57.8962 20.4077 56.3743 21.6538C54.8524 22.9 53.8098 24.6353 53.4242 26.5641C53.0386 28.4929 53.3339 30.4957 54.2597 32.2312C55.1855 33.9667 56.6845 35.3273 58.5012 36.0813C60.3179 36.8352 62.3399 36.9358 64.2225 36.3658C66.105 35.7958 67.7316 34.5905 68.825 32.9554C69.9184 31.3204 70.4109 29.3567 70.2185 27.3992C70.0262 25.4417 69.1609 23.6114 67.7701 22.2205C66.9844 21.4292 66.0495 20.8017 65.0196 20.3743C63.9897 19.9469 62.8852 19.7281 61.7701 19.7305ZM64.4001 30.8605C63.8799 31.3809 63.2171 31.7353 62.4954 31.8789C61.7738 32.0226 61.0258 31.949 60.3459 31.6674C59.6661 31.3859 59.0851 30.9091 58.6763 30.2973C58.2674 29.6856 58.0492 28.9663 58.0492 28.2305C58.0492 27.4947 58.2674 26.7754 58.6763 26.1636C59.0851 25.5519 59.6661 25.0751 60.3459 24.7935C61.0258 24.512 61.7738 24.4384 62.4954 24.5821C63.2171 24.7257 63.8799 25.0801 64.4001 25.6005C65.0975 26.2981 65.4892 27.2441 65.4892 28.2305C65.4892 29.2169 65.0975 30.1629 64.4001 30.8605Z" fill="#09A387"/>
<path d="M17.8999 59.1503C18.3481 58.7021 18.5999 58.0942 18.5999 57.4603C18.5999 56.8265 18.3481 56.2185 17.8999 55.7703C17.4517 55.3221 16.8438 55.0703 16.2099 55.0703C15.576 55.0703 14.9681 55.3221 14.5199 55.7703L0.699909 69.5903C0.247715 70.0385 -0.00790568 70.648 -0.0107187 71.2847C-0.0135318 71.9214 0.236693 72.5331 0.684909 72.9853C1.13312 73.4375 1.74262 73.6931 2.3793 73.696C3.01599 73.6988 3.62771 73.4485 4.07991 73.0003L17.8999 59.1503Z" fill="#09A387"/>
<path d="M21.5701 68.4298C21.3489 68.2067 21.0856 68.0295 20.7955 67.9087C20.5055 67.7878 20.1943 67.7256 19.8801 67.7256C19.5659 67.7256 19.2547 67.7878 18.9647 67.9087C18.6746 68.0295 18.4114 68.2067 18.1901 68.4298L3.79011 82.8298C3.34189 83.278 3.09009 83.8859 3.09009 84.5198C3.09009 85.1537 3.34189 85.7616 3.79011 86.2098C4.23832 86.658 4.84624 86.9098 5.48011 86.9098C6.11398 86.9098 6.72189 86.658 7.17011 86.2098L21.5701 71.8098C21.7932 71.5885 21.9704 71.3253 22.0912 71.0352C22.2121 70.7451 22.2743 70.434 22.2743 70.1198C22.2743 69.8056 22.2121 69.4944 22.0912 69.2044C21.9704 68.9143 21.7932 68.651 21.5701 68.4298Z" fill="#09A387"/>
<path d="M30.8501 72.1004L17.0001 85.9204C16.5519 86.3686 16.3 86.9765 16.3 87.6104C16.3 88.2443 16.5519 88.8522 17.0001 89.3004C17.4483 89.7486 18.0562 90.0004 18.6901 90.0004C19.3239 90.0004 19.9319 89.7486 20.3801 89.3004L34.2301 75.4804C34.452 75.2585 34.6281 74.995 34.7482 74.705C34.8683 74.4151 34.9301 74.1043 34.9301 73.7904C34.9301 73.4766 34.8683 73.1658 34.7482 72.8758C34.6281 72.5858 34.452 72.3223 34.2301 72.1004C34.0081 71.8785 33.7447 71.7024 33.4547 71.5823C33.1647 71.4622 32.8539 71.4004 32.5401 71.4004C32.2262 71.4004 31.9154 71.4622 31.6254 71.5823C31.3355 71.7024 31.072 71.8785 30.8501 72.1004Z" fill="#09A387"/>
<path d="M89.2999 0.700336C89.0349 0.428159 88.709 0.22278 88.3492 0.101086C87.9893 -0.0206068 87.6057 -0.055137 87.2299 0.00033595C81.7876 1.03615 76.4543 2.57956 71.2999 4.61034C66.1217 6.58275 61.1204 8.99141 56.3499 11.8103C50.8591 15.0516 45.7791 18.943 41.2199 23.4003L23.2199 26.9203C22.7549 27.0114 22.3271 27.2375 21.9899 27.5703L5.58988 43.8703C5.25087 44.2367 5.03452 44.6996 4.97096 45.1947C4.90739 45.6898 4.99977 46.1924 5.23524 46.6325C5.4707 47.0726 5.83753 47.4284 6.28467 47.6503C6.7318 47.8721 7.23698 47.949 7.72988 47.8703L26.1799 44.2803C24.9699 46.6403 23.8499 49.0803 22.8099 51.6203C22.6297 52.0549 22.583 52.5333 22.6756 52.9945C22.7682 53.4557 22.9959 53.879 23.3299 54.2103L27.8499 58.7303L23.6499 63.0003C23.2986 63.4604 23.1262 64.0323 23.1647 64.6099C23.2033 65.1875 23.4501 65.7314 23.8595 66.1408C24.2688 66.5501 24.8127 66.7969 25.3903 66.8355C25.9679 66.874 26.5398 66.7016 26.9999 66.3503L31.1999 62.1503L35.7099 66.6703C36.0435 67.004 36.4685 67.2314 36.9312 67.324C37.3938 67.4165 37.8736 67.37 38.3099 67.1903C40.8499 66.1903 43.3099 65.0203 45.6499 63.8203L42.0899 82.2703C42.0221 82.6161 42.0315 82.9727 42.1177 83.3144C42.2038 83.6561 42.3644 83.9746 42.588 84.247C42.8117 84.5193 43.0928 84.7389 43.4112 84.8899C43.7296 85.0408 44.0775 85.1196 44.4299 85.1203C44.7462 85.1209 45.0595 85.0584 45.3514 84.9365C45.6433 84.8146 45.9079 84.6357 46.1299 84.4103L62.4299 68.0603C62.7642 67.7242 62.9906 67.2959 63.0799 66.8303L66.5899 48.8303C71.0532 44.2738 74.9482 39.1935 78.1899 33.7003C81.0088 28.9298 83.4175 23.9285 85.3899 18.7503C87.4237 13.5798 88.9671 8.22963 89.9999 2.77034C90.0554 2.39452 90.0208 2.01091 89.8991 1.65105C89.7774 1.29118 89.5721 0.965348 89.2999 0.700336ZM14.5199 41.7003L24.7999 31.4703L35.8599 29.3203C33.4138 32.3386 31.1848 35.5266 29.1899 38.8603L14.5199 41.7003ZM58.5199 65.1803L48.2799 75.4803L51.1399 60.8103C54.4736 58.8154 57.6616 56.5865 60.6799 54.1403L58.5199 65.1803ZM80.8799 17.1103C77.8799 24.9803 72.2999 36.3203 62.9299 45.6903C58.44 50.1355 53.399 53.9869 47.9299 57.1503L47.6399 57.3203C44.5224 59.118 41.3038 60.734 37.9999 62.1603L34.6199 58.7703L41.4299 52.0003C41.6518 51.7784 41.8279 51.5149 41.948 51.225C42.0681 50.935 42.1299 50.6242 42.1299 50.3103C42.1299 49.9965 42.0681 49.6857 41.948 49.3957C41.8279 49.1057 41.6518 48.8423 41.4299 48.6203C41.2079 48.3984 40.9445 48.2224 40.6545 48.1022C40.3645 47.9821 40.0537 47.9203 39.7399 47.9203C39.426 47.9203 39.1152 47.9821 38.8253 48.1022C38.5353 48.2224 38.2718 48.3984 38.0499 48.6203L31.2299 55.4403L27.8499 52.0003C29.2685 48.6914 30.8813 45.4691 32.6799 42.3503C32.7424 42.2572 32.7992 42.1604 32.8499 42.0603C36.0133 36.5913 39.8647 31.5502 44.3099 27.0603C53.6799 17.6903 65.0199 12.1303 72.8899 9.06034C76.6813 7.60211 80.5626 6.3896 84.5099 5.43034C83.5531 9.3979 82.3406 13.2994 80.8799 17.1103Z" fill="#09A387"/>
</g>
<defs>
<clipPath id="clip0_1198_35976">
<rect width="90" height="90" fill="white"/>
</clipPath>
</defs>
</svg>
