<svg width="223" height="69" viewBox="0 0 223 69" fill="none" xmlns="http://www.w3.org/2000/svg">
<g filter="url(#filter0_dd_690_38940)">
<rect x="4.5" y="2.49707" width="214.426" height="64" rx="8" fill="#F2F2F2"/>
<g clip-path="url(#clip0_690_38940)">
<path d="M40.7403 36.471C40.4675 36.471 40.1988 36.4138 39.9577 36.3042C39.0758 35.9182 38.4817 34.8912 38.4817 33.7504C38.4817 32.2489 39.4948 31.0273 40.7403 31.0273C41.9858 31.0273 42.9993 32.2489 42.9993 33.7504C42.9993 34.8929 42.4038 35.9198 41.5172 36.3054C41.2778 36.4137 41.0113 36.47 40.7408 36.4693L40.7403 36.471ZM40.7403 31.4863C39.7897 31.4863 39.0162 32.5022 39.0162 33.7504C39.0162 34.7232 39.4934 35.5858 40.2034 35.8965C40.3679 35.9718 40.5515 36.0113 40.7379 36.0113C40.9243 36.0113 41.1079 35.9718 41.2724 35.8965C41.9882 35.5854 42.4654 34.7228 42.4654 33.7488C42.4654 32.5001 41.6918 31.4847 40.7408 31.4847L40.7403 31.4863Z" fill="#09A387" stroke="#09A387" stroke-width="0.148462" stroke-miterlimit="10"/>
<path d="M40.7388 43.4559C40.2177 43.4559 39.8092 43.1691 39.8092 42.8044V36.1772C39.8096 36.1498 39.8118 36.1225 39.8159 36.0953L39.8579 35.7785L40.1948 35.9105C40.3656 35.9775 40.5512 36.0122 40.739 36.0122C40.9268 36.0122 41.1125 35.9775 41.2833 35.9105L41.6216 35.7744L41.6622 36.0936C41.6663 36.1216 41.6685 36.1498 41.6689 36.1781V42.8048C41.6689 43.1699 41.2608 43.4559 40.7393 43.4559H40.7388ZM40.3437 36.4342V42.8044C40.3437 42.8953 40.5126 42.9974 40.7393 42.9974C40.9659 42.9974 41.1349 42.8953 41.1349 42.8044V36.4342C40.8743 36.4825 40.6047 36.4825 40.3441 36.4342H40.3437Z" fill="#09A387" stroke="#09A387" stroke-width="0.148462" stroke-miterlimit="10"/>
<path d="M40.4586 35.7806C39.8092 35.5146 39.3558 34.791 39.3043 33.9365C39.2728 33.4145 39.3997 32.9121 39.6569 32.526C39.9337 32.106 40.3393 31.8638 40.7927 31.8438L40.8203 32.3019C40.5545 32.3138 40.3055 32.4744 40.1184 32.7527C39.9099 33.0649 39.8096 33.4759 39.8359 33.9111C39.8764 34.5783 40.2262 35.1762 40.6872 35.3647L40.4586 35.7806Z" fill="#09A387" stroke="#09A387" stroke-width="0.148462" stroke-miterlimit="10"/>
<path d="M33.7082 36.1989C33.2252 36.1097 32.7923 35.8811 32.4814 35.5513C32.1705 35.2215 32.0004 34.8103 31.9994 34.386V31.7031H32.5339V34.386C32.5345 34.7051 32.6622 35.0145 32.8959 35.2626C33.1296 35.5107 33.4552 35.6826 33.8185 35.7498L33.7082 36.1989Z" fill="#09A387" stroke="#09A387" stroke-width="0.148462" stroke-miterlimit="10"/>
<path d="M35.1741 36.1989L35.0643 35.7482C35.4276 35.681 35.7532 35.509 35.9869 35.2609C36.2206 35.0128 36.3484 34.7035 36.349 34.3844V31.7031H36.8834V34.386C36.8825 34.8103 36.7124 35.2216 36.4015 35.5514C36.0906 35.8812 35.6577 36.1097 35.1746 36.1989H35.1741Z" fill="#09A387" stroke="#09A387" stroke-width="0.148462" stroke-miterlimit="10"/>
<path d="M34.174 31.8135H34.7084V35.7376H34.174V31.8135Z" fill="#09A387" stroke="#09A387" stroke-width="0.148462" stroke-miterlimit="10"/>
<path d="M34.4402 43.4555C34.1784 43.455 33.9275 43.3653 33.7427 43.2061C33.5579 43.0469 33.4541 42.8313 33.4543 42.6065V36.181C33.4532 36.0815 33.4739 35.9828 33.5153 35.89C33.5833 35.7261 33.7088 35.5844 33.8745 35.4843C34.0403 35.3842 34.238 35.3306 34.4406 35.3311C34.703 35.3323 34.9543 35.4224 35.1397 35.5818C35.2453 35.6712 35.325 35.7805 35.3726 35.9011C35.4114 35.9903 35.4307 36.0849 35.4294 36.1801V42.6065C35.429 42.8316 35.3247 43.0475 35.1392 43.2066C34.9538 43.3658 34.7024 43.4553 34.4402 43.4555ZM34.4402 35.7925C34.3471 35.7923 34.2564 35.8169 34.1804 35.863C34.1045 35.9091 34.0471 35.9744 34.0164 36.0498C33.9972 36.0916 33.9876 36.1361 33.9883 36.181V42.6065C33.9883 42.7097 34.036 42.8087 34.121 42.8817C34.206 42.9547 34.3214 42.9958 34.4416 42.9958C34.5618 42.9958 34.6771 42.9547 34.7622 42.8817C34.8472 42.8087 34.8949 42.7097 34.8949 42.6065V36.181C34.8961 36.1391 34.888 36.0973 34.8711 36.058C34.8495 36.0008 34.8122 35.949 34.7623 35.9068C34.6772 35.8331 34.5615 35.7912 34.4406 35.7904L34.4402 35.7925Z" fill="#09A387" stroke="#09A387" stroke-width="0.148462" stroke-miterlimit="10"/>
<path d="M37.5 40.9131C36.6858 40.9127 35.8754 40.8181 35.0906 40.632L34.8945 40.5853V36.1813C34.8958 36.1394 34.8877 36.0977 34.8706 36.0584C34.8492 36.001 34.8119 35.949 34.7618 35.9067C34.6766 35.8331 34.5611 35.7913 34.4402 35.7904C34.3468 35.7903 34.2558 35.8153 34.1798 35.8619C34.1038 35.9085 34.0467 35.9743 34.0164 36.0502C33.9972 36.0919 33.9877 36.1364 33.9883 36.1813V40.3083L33.6065 40.1493C30.5329 38.8724 28.5477 36.1547 28.5477 33.2267C28.5477 28.9874 32.5638 25.5391 37.5 25.5391C42.4362 25.5391 46.4523 28.9866 46.4523 33.2267C46.4568 34.6522 45.9977 36.0505 45.1265 37.264C44.2554 38.4774 43.007 39.4579 41.5219 40.0948L41.1344 40.2624V36.4341C40.8736 36.4821 40.6039 36.4821 40.3432 36.4341V40.521L40.1552 40.571C39.2951 40.7986 38.4 40.9139 37.5 40.9131V40.9131ZM35.4294 40.2341C36.8699 40.544 38.3797 40.5252 39.8092 40.1796V36.1772C39.8095 36.1498 39.8118 36.1224 39.8159 36.0952L39.8583 35.7785L40.1948 35.9104C40.3656 35.9775 40.5512 36.0122 40.739 36.0122C40.9268 36.0122 41.1124 35.9775 41.2833 35.9104L41.6221 35.7744L41.6622 36.0932C41.6664 36.1212 41.6688 36.1494 41.6693 36.1776V39.5071C42.9627 38.8781 44.0379 37.9649 44.7845 36.8612C45.5311 35.7575 45.9223 34.5031 45.9178 33.2267C45.9178 29.2411 42.1417 25.998 37.5 25.998C32.8583 25.998 29.0822 29.2395 29.0822 33.2267C29.0822 35.8572 30.7848 38.3081 33.4543 39.567V36.1813C33.4532 36.0819 33.4739 35.9832 33.5154 35.8903C33.5832 35.7264 33.7086 35.5847 33.8743 35.4846C34.0399 35.3844 34.2376 35.3309 34.4402 35.3314C34.7028 35.3326 34.9541 35.4227 35.1398 35.5822C35.2455 35.6714 35.3253 35.7808 35.3727 35.9014C35.4113 35.9907 35.4304 36.0853 35.429 36.1805L35.4294 40.2341Z" fill="#09A387" stroke="#09A387" stroke-width="0.148462" stroke-miterlimit="10"/>
</g>
<path d="M182.449 33.8613V39.6787H180.801V32.2822H182.353L182.449 33.8613ZM182.155 35.707L181.621 35.7002C181.626 35.1761 181.699 34.6953 181.84 34.2578C181.986 33.8203 182.187 33.4443 182.442 33.1299C182.702 32.8154 183.011 32.5739 183.371 32.4053C183.731 32.2321 184.133 32.1455 184.575 32.1455C184.93 32.1455 185.251 32.1956 185.538 32.2959C185.83 32.3916 186.078 32.5488 186.284 32.7676C186.493 32.9863 186.653 33.2712 186.762 33.6221C186.871 33.9684 186.926 34.3945 186.926 34.9004V39.6787H185.272V34.8936C185.272 34.5381 185.219 34.2578 185.115 34.0527C185.014 33.8431 184.866 33.695 184.67 33.6084C184.479 33.5173 184.24 33.4717 183.953 33.4717C183.67 33.4717 183.417 33.5309 183.194 33.6494C182.97 33.7679 182.781 33.9297 182.626 34.1348C182.476 34.3398 182.36 34.5768 182.278 34.8457C182.196 35.1146 182.155 35.4017 182.155 35.707Z" fill="#49454F"/>
<path d="M177.338 38.1953V34.668C177.338 34.4036 177.29 34.1758 177.194 33.9844C177.099 33.793 176.953 33.6449 176.757 33.54C176.565 33.4352 176.324 33.3828 176.032 33.3828C175.763 33.3828 175.531 33.4284 175.335 33.5195C175.139 33.6107 174.986 33.7337 174.877 33.8887C174.768 34.0436 174.713 34.2191 174.713 34.415H173.072C173.072 34.1234 173.143 33.8408 173.284 33.5674C173.425 33.2939 173.631 33.0501 173.899 32.8359C174.168 32.6217 174.49 32.4531 174.863 32.3301C175.237 32.207 175.656 32.1455 176.121 32.1455C176.677 32.1455 177.169 32.2389 177.598 32.4258C178.031 32.6126 178.37 32.8952 178.616 33.2734C178.867 33.6471 178.992 34.1165 178.992 34.6816V37.9697C178.992 38.307 179.015 38.61 179.061 38.8789C179.111 39.1432 179.181 39.3734 179.272 39.5693V39.6787H177.584C177.507 39.501 177.445 39.2754 177.399 39.002C177.358 38.724 177.338 38.4551 177.338 38.1953ZM177.577 35.1807L177.591 36.1992H176.408C176.103 36.1992 175.834 36.2288 175.602 36.2881C175.369 36.3428 175.175 36.4248 175.021 36.5342C174.866 36.6436 174.749 36.7757 174.672 36.9307C174.594 37.0856 174.556 37.2611 174.556 37.457C174.556 37.653 174.601 37.833 174.692 37.9971C174.784 38.1566 174.916 38.2819 175.089 38.373C175.267 38.4642 175.481 38.5098 175.731 38.5098C176.069 38.5098 176.363 38.4414 176.613 38.3047C176.868 38.1634 177.069 37.9925 177.215 37.792C177.361 37.5869 177.438 37.3932 177.447 37.2109L177.98 37.9424C177.926 38.1292 177.832 38.3298 177.7 38.5439C177.568 38.7581 177.395 38.9632 177.181 39.1592C176.971 39.3506 176.718 39.5078 176.422 39.6309C176.13 39.7539 175.793 39.8154 175.41 39.8154C174.927 39.8154 174.496 39.7197 174.118 39.5283C173.74 39.3324 173.444 39.0703 173.229 38.7422C173.015 38.4095 172.908 38.0335 172.908 37.6143C172.908 37.2223 172.981 36.876 173.127 36.5752C173.277 36.2699 173.496 36.0146 173.783 35.8096C174.075 35.6045 174.43 35.4495 174.85 35.3447C175.269 35.2354 175.747 35.1807 176.285 35.1807H177.577Z" fill="#49454F"/>
<path d="M162.52 33.7861V39.6787H160.873V32.2822H162.424L162.52 33.7861ZM162.254 35.707L161.693 35.7002C161.693 35.1898 161.757 34.7181 161.884 34.2852C162.012 33.8522 162.199 33.4762 162.445 33.1572C162.691 32.8337 162.996 32.5853 163.361 32.4121C163.73 32.2344 164.156 32.1455 164.639 32.1455C164.977 32.1455 165.284 32.1956 165.562 32.2959C165.845 32.3916 166.089 32.5443 166.294 32.7539C166.503 32.9635 166.663 33.2324 166.772 33.5605C166.886 33.8887 166.943 34.2852 166.943 34.75V39.6787H165.296V34.8936C165.296 34.5335 165.241 34.251 165.131 34.0459C165.027 33.8408 164.874 33.695 164.673 33.6084C164.477 33.5173 164.243 33.4717 163.969 33.4717C163.659 33.4717 163.395 33.5309 163.176 33.6494C162.962 33.7679 162.787 33.9297 162.65 34.1348C162.513 34.3398 162.413 34.5768 162.349 34.8457C162.285 35.1146 162.254 35.4017 162.254 35.707ZM166.84 35.2695L166.068 35.4404C166.068 34.9938 166.13 34.5723 166.253 34.1758C166.38 33.7747 166.565 33.4238 166.806 33.123C167.052 32.8177 167.355 32.5785 167.715 32.4053C168.075 32.2321 168.488 32.1455 168.953 32.1455C169.331 32.1455 169.668 32.1979 169.964 32.3027C170.265 32.403 170.52 32.5625 170.73 32.7812C170.94 33 171.099 33.2848 171.209 33.6357C171.318 33.9821 171.373 34.4014 171.373 34.8936V39.6787H169.718V34.8867C169.718 34.513 169.664 34.2236 169.554 34.0186C169.45 33.8135 169.299 33.6722 169.103 33.5947C168.907 33.5127 168.672 33.4717 168.399 33.4717C168.144 33.4717 167.918 33.5195 167.722 33.6152C167.531 33.7064 167.369 33.8363 167.237 34.0049C167.105 34.1689 167.005 34.3581 166.936 34.5723C166.872 34.7865 166.84 35.0189 166.84 35.2695Z" fill="#49454F"/>
<path d="M157.43 37.9355V32.2822H159.084V39.6787H157.526L157.43 37.9355ZM157.662 36.3975L158.216 36.3838C158.216 36.8805 158.161 37.3385 158.052 37.7578C157.943 38.1725 157.774 38.5348 157.546 38.8447C157.318 39.1501 157.027 39.3893 156.671 39.5625C156.316 39.7311 155.89 39.8154 155.393 39.8154C155.033 39.8154 154.702 39.763 154.402 39.6582C154.101 39.5534 153.841 39.3916 153.622 39.1729C153.408 38.9541 153.242 38.6693 153.123 38.3184C153.005 37.9674 152.946 37.5482 152.946 37.0605V32.2822H154.593V37.0742C154.593 37.3431 154.625 37.5687 154.689 37.751C154.753 37.9287 154.839 38.0723 154.948 38.1816C155.058 38.291 155.185 38.3685 155.331 38.4141C155.477 38.4596 155.632 38.4824 155.796 38.4824C156.266 38.4824 156.635 38.3913 156.904 38.209C157.177 38.0221 157.371 37.7715 157.485 37.457C157.603 37.1426 157.662 36.7894 157.662 36.3975Z" fill="#49454F"/>
<path d="M146.72 33.8613V39.6787H145.073V32.2822H146.625L146.72 33.8613ZM146.427 35.707L145.893 35.7002C145.898 35.1761 145.971 34.6953 146.112 34.2578C146.258 33.8203 146.458 33.4443 146.714 33.1299C146.973 32.8154 147.283 32.5739 147.643 32.4053C148.003 32.2321 148.404 32.1455 148.846 32.1455C149.202 32.1455 149.523 32.1956 149.81 32.2959C150.102 32.3916 150.35 32.5488 150.555 32.7676C150.765 32.9863 150.925 33.2712 151.034 33.6221C151.143 33.9684 151.198 34.3945 151.198 34.9004V39.6787H149.544V34.8936C149.544 34.5381 149.491 34.2578 149.386 34.0527C149.286 33.8431 149.138 33.695 148.942 33.6084C148.751 33.5173 148.511 33.4717 148.224 33.4717C147.942 33.4717 147.689 33.5309 147.466 33.6494C147.242 33.7679 147.053 33.9297 146.898 34.1348C146.748 34.3398 146.632 34.5768 146.55 34.8457C146.468 35.1146 146.427 35.4017 146.427 35.707Z" fill="#49454F"/>
<path d="M143.182 32.2822V39.6787H141.528V32.2822H143.182ZM141.418 30.3408C141.418 30.0902 141.5 29.8828 141.664 29.7188C141.833 29.5501 142.065 29.4658 142.362 29.4658C142.653 29.4658 142.884 29.5501 143.052 29.7188C143.221 29.8828 143.305 30.0902 143.305 30.3408C143.305 30.5869 143.221 30.792 143.052 30.9561C142.884 31.1201 142.653 31.2021 142.362 31.2021C142.065 31.2021 141.833 31.1201 141.664 30.9561C141.5 30.792 141.418 30.5869 141.418 30.3408Z" fill="#49454F"/>
<path d="M129.93 29.7256H131.461L134.339 37.4023L137.21 29.7256H138.741L134.94 39.6787H133.724L129.93 29.7256ZM129.232 29.7256H130.688L130.941 36.3701V39.6787H129.232V29.7256ZM137.982 29.7256H139.445V39.6787H137.729V36.3701L137.982 29.7256Z" fill="#49454F"/>
<path d="M118.102 34.2646L119.818 33.1094C120.105 32.918 120.31 32.7311 120.433 32.5488C120.556 32.362 120.617 32.1296 120.617 31.8516C120.617 31.6146 120.526 31.3958 120.344 31.1953C120.162 30.9948 119.904 30.8945 119.572 30.8945C119.339 30.8945 119.143 30.9492 118.984 31.0586C118.824 31.1634 118.703 31.3047 118.621 31.4824C118.544 31.6556 118.505 31.8493 118.505 32.0635C118.505 32.2686 118.558 32.4805 118.662 32.6992C118.767 32.9134 118.911 33.139 119.093 33.376C119.275 33.6084 119.48 33.859 119.708 34.1279L124.411 39.6787H122.504L118.662 35.1602C118.33 34.7591 118.036 34.3923 117.781 34.0596C117.525 33.7223 117.327 33.3965 117.186 33.082C117.045 32.763 116.974 32.4349 116.974 32.0977C116.974 31.5781 117.081 31.1315 117.295 30.7578C117.509 30.3841 117.812 30.097 118.204 29.8965C118.596 29.6914 119.054 29.5889 119.578 29.5889C120.084 29.5889 120.519 29.6914 120.884 29.8965C121.253 30.097 121.536 30.3636 121.732 30.6963C121.932 31.029 122.032 31.3936 122.032 31.79C122.032 32.1045 121.976 32.3916 121.862 32.6514C121.748 32.9111 121.59 33.1481 121.39 33.3623C121.189 33.5765 120.957 33.7793 120.693 33.9707L118.608 35.4883C118.366 35.6842 118.186 35.8734 118.068 36.0557C117.954 36.2334 117.879 36.3975 117.842 36.5479C117.806 36.6982 117.787 36.8304 117.787 36.9443C117.787 37.236 117.849 37.5003 117.972 37.7373C118.1 37.9743 118.284 38.1634 118.526 38.3047C118.772 38.4414 119.07 38.5098 119.421 38.5098C119.799 38.5098 120.166 38.4255 120.522 38.2568C120.877 38.0837 121.196 37.8398 121.479 37.5254C121.761 37.2109 121.985 36.835 122.149 36.3975C122.317 35.96 122.402 35.4746 122.402 34.9414H123.823C123.823 35.4245 123.776 35.8825 123.68 36.3154C123.589 36.7484 123.441 37.1494 123.236 37.5186C123.035 37.8877 122.771 38.2181 122.443 38.5098C122.411 38.5417 122.374 38.5827 122.333 38.6328C122.297 38.6784 122.26 38.7171 122.224 38.749C121.832 39.109 121.392 39.3779 120.905 39.5557C120.421 39.7288 119.906 39.8154 119.36 39.8154C118.699 39.8154 118.127 39.6947 117.644 39.4531C117.161 39.2116 116.787 38.8789 116.523 38.4551C116.263 38.0312 116.133 37.5459 116.133 36.999C116.133 36.5934 116.217 36.238 116.386 35.9326C116.555 35.6227 116.785 35.3356 117.076 35.0713C117.373 34.8024 117.714 34.5335 118.102 34.2646Z" fill="#49454F"/>
<path d="M106.554 33.8613V39.6787H104.907V32.2822H106.458L106.554 33.8613ZM106.26 35.707L105.727 35.7002C105.731 35.1761 105.804 34.6953 105.946 34.2578C106.092 33.8203 106.292 33.4443 106.547 33.1299C106.807 32.8154 107.117 32.5739 107.477 32.4053C107.837 32.2321 108.238 32.1455 108.68 32.1455C109.036 32.1455 109.357 32.1956 109.644 32.2959C109.936 32.3916 110.184 32.5488 110.389 32.7676C110.599 32.9863 110.758 33.2712 110.868 33.6221C110.977 33.9684 111.032 34.3945 111.032 34.9004V39.6787H109.377V34.8936C109.377 34.5381 109.325 34.2578 109.22 34.0527C109.12 33.8431 108.972 33.695 108.776 33.6084C108.584 33.5173 108.345 33.4717 108.058 33.4717C107.775 33.4717 107.523 33.5309 107.299 33.6494C107.076 33.7679 106.887 33.9297 106.732 34.1348C106.581 34.3398 106.465 34.5768 106.383 34.8457C106.301 35.1146 106.26 35.4017 106.26 35.707Z" fill="#49454F"/>
<path d="M101.443 38.1953V34.668C101.443 34.4036 101.396 34.1758 101.3 33.9844C101.204 33.793 101.058 33.6449 100.862 33.54C100.671 33.4352 100.429 33.3828 100.138 33.3828C99.8688 33.3828 99.6364 33.4284 99.4404 33.5195C99.2445 33.6107 99.0918 33.7337 98.9824 33.8887C98.873 34.0436 98.8184 34.2191 98.8184 34.415H97.1777C97.1777 34.1234 97.2484 33.8408 97.3896 33.5674C97.5309 33.2939 97.736 33.0501 98.0049 32.8359C98.2738 32.6217 98.5951 32.4531 98.9688 32.3301C99.3424 32.207 99.7617 32.1455 100.227 32.1455C100.783 32.1455 101.275 32.2389 101.703 32.4258C102.136 32.6126 102.476 32.8952 102.722 33.2734C102.972 33.6471 103.098 34.1165 103.098 34.6816V37.9697C103.098 38.307 103.12 38.61 103.166 38.8789C103.216 39.1432 103.287 39.3734 103.378 39.5693V39.6787H101.689C101.612 39.501 101.55 39.2754 101.505 39.002C101.464 38.724 101.443 38.4551 101.443 38.1953ZM101.683 35.1807L101.696 36.1992H100.514C100.208 36.1992 99.9395 36.2288 99.707 36.2881C99.4746 36.3428 99.2809 36.4248 99.126 36.5342C98.971 36.6436 98.8548 36.7757 98.7773 36.9307C98.6999 37.0856 98.6611 37.2611 98.6611 37.457C98.6611 37.653 98.7067 37.833 98.7979 37.9971C98.889 38.1566 99.0212 38.2819 99.1943 38.373C99.3721 38.4642 99.5863 38.5098 99.8369 38.5098C100.174 38.5098 100.468 38.4414 100.719 38.3047C100.974 38.1634 101.174 37.9925 101.32 37.792C101.466 37.5869 101.544 37.3932 101.553 37.2109L102.086 37.9424C102.031 38.1292 101.938 38.3298 101.806 38.5439C101.674 38.7581 101.5 38.9632 101.286 39.1592C101.076 39.3506 100.824 39.5078 100.527 39.6309C100.236 39.7539 99.8984 39.8154 99.5156 39.8154C99.0326 39.8154 98.6019 39.7197 98.2236 39.5283C97.8454 39.3324 97.5492 39.0703 97.335 38.7422C97.1208 38.4095 97.0137 38.0335 97.0137 37.6143C97.0137 37.2223 97.0866 36.876 97.2324 36.5752C97.3828 36.2699 97.6016 36.0146 97.8887 35.8096C98.1803 35.6045 98.5358 35.4495 98.9551 35.3447C99.3743 35.2354 99.8529 35.1807 100.391 35.1807H101.683Z" fill="#49454F"/>
<path d="M91.0143 33.8613V39.6787H89.3668V32.2822H90.9186L91.0143 33.8613ZM90.7203 35.707L90.1871 35.7002C90.1917 35.1761 90.2646 34.6953 90.4059 34.2578C90.5517 33.8203 90.7522 33.4443 91.0074 33.1299C91.2672 32.8154 91.5771 32.5739 91.9371 32.4053C92.2972 32.2321 92.6982 32.1455 93.1403 32.1455C93.4957 32.1455 93.817 32.1956 94.1041 32.2959C94.3958 32.3916 94.6442 32.5488 94.8492 32.7676C95.0589 32.9863 95.2184 33.2712 95.3278 33.6221C95.4371 33.9684 95.4918 34.3945 95.4918 34.9004V39.6787H93.8375V34.8936C93.8375 34.5381 93.7851 34.2578 93.6803 34.0527C93.58 33.8431 93.4319 33.695 93.236 33.6084C93.0446 33.5173 92.8053 33.4717 92.5182 33.4717C92.2356 33.4717 91.9827 33.5309 91.7594 33.6494C91.5361 33.7679 91.347 33.9297 91.192 34.1348C91.0416 34.3398 90.9254 34.5768 90.8434 34.8457C90.7614 35.1146 90.7203 35.4017 90.7203 35.707Z" fill="#49454F"/>
<path d="M85.9036 38.1953V34.668C85.9036 34.4036 85.8557 34.1758 85.76 33.9844C85.6643 33.793 85.5185 33.6449 85.3225 33.54C85.1311 33.4352 84.8896 33.3828 84.5979 33.3828C84.329 33.3828 84.0966 33.4284 83.9006 33.5195C83.7047 33.6107 83.552 33.7337 83.4426 33.8887C83.3333 34.0436 83.2786 34.2191 83.2786 34.415H81.6379C81.6379 34.1234 81.7086 33.8408 81.8499 33.5674C81.9911 33.2939 82.1962 33.0501 82.4651 32.8359C82.734 32.6217 83.0553 32.4531 83.429 32.3301C83.8027 32.207 84.2219 32.1455 84.6868 32.1455C85.2428 32.1455 85.7349 32.2389 86.1633 32.4258C86.5963 32.6126 86.9358 32.8952 87.1819 33.2734C87.4325 33.6471 87.5579 34.1165 87.5579 34.6816V37.9697C87.5579 38.307 87.5806 38.61 87.6262 38.8789C87.6764 39.1432 87.747 39.3734 87.8381 39.5693V39.6787H86.1497C86.0722 39.501 86.0107 39.2754 85.9651 39.002C85.9241 38.724 85.9036 38.4551 85.9036 38.1953ZM86.1428 35.1807L86.1565 36.1992H84.9739C84.6685 36.1992 84.3997 36.2288 84.1672 36.2881C83.9348 36.3428 83.7411 36.4248 83.5862 36.5342C83.4312 36.6436 83.315 36.7757 83.2375 36.9307C83.1601 37.0856 83.1213 37.2611 83.1213 37.457C83.1213 37.653 83.1669 37.833 83.2581 37.9971C83.3492 38.1566 83.4814 38.2819 83.6545 38.373C83.8323 38.4642 84.0465 38.5098 84.2971 38.5098C84.6344 38.5098 84.9283 38.4414 85.179 38.3047C85.4342 38.1634 85.6347 37.9925 85.7805 37.792C85.9264 37.5869 86.0038 37.3932 86.0129 37.2109L86.5461 37.9424C86.4915 38.1292 86.398 38.3298 86.2659 38.5439C86.1337 38.7581 85.9605 38.9632 85.7463 39.1592C85.5367 39.3506 85.2838 39.5078 84.9875 39.6309C84.6959 39.7539 84.3586 39.8154 83.9758 39.8154C83.4928 39.8154 83.0621 39.7197 82.6838 39.5283C82.3056 39.3324 82.0094 39.0703 81.7952 38.7422C81.581 38.4095 81.4739 38.0335 81.4739 37.6143C81.4739 37.2223 81.5468 36.876 81.6926 36.5752C81.843 36.2699 82.0618 36.0146 82.3489 35.8096C82.6405 35.6045 82.996 35.4495 83.4153 35.3447C83.8346 35.2354 84.3131 35.1807 84.8508 35.1807H86.1428Z" fill="#49454F"/>
<path d="M75.9939 29.1787V39.6787H74.3396V29.1787H75.9939ZM80.5876 32.2822L77.3679 35.8506L75.6042 37.6553L75.1736 36.2607L76.5066 34.6133L78.5984 32.2822H80.5876ZM78.9539 39.6787L76.5544 36.2061L77.5935 35.0508L80.8611 39.6787H78.9539Z" fill="#49454F"/>
<path d="M70.8558 38.1953V34.668C70.8558 34.4036 70.808 34.1758 70.7123 33.9844C70.6166 33.793 70.4707 33.6449 70.2748 33.54C70.0834 33.4352 69.8418 33.3828 69.5502 33.3828C69.2813 33.3828 69.0489 33.4284 68.8529 33.5195C68.6569 33.6107 68.5043 33.7337 68.3949 33.8887C68.2855 34.0436 68.2308 34.2191 68.2308 34.415H66.5902C66.5902 34.1234 66.6608 33.8408 66.8021 33.5674C66.9434 33.2939 67.1485 33.0501 67.4174 32.8359C67.6862 32.6217 68.0075 32.4531 68.3812 32.3301C68.7549 32.207 69.1742 32.1455 69.639 32.1455C70.195 32.1455 70.6872 32.2389 71.1156 32.4258C71.5485 32.6126 71.8881 32.8952 72.1342 33.2734C72.3848 33.6471 72.5101 34.1165 72.5101 34.6816V37.9697C72.5101 38.307 72.5329 38.61 72.5785 38.8789C72.6286 39.1432 72.6993 39.3734 72.7904 39.5693V39.6787H71.1019C71.0245 39.501 70.9629 39.2754 70.9174 39.002C70.8763 38.724 70.8558 38.4551 70.8558 38.1953ZM71.0951 35.1807L71.1088 36.1992H69.9261C69.6208 36.1992 69.3519 36.2288 69.1195 36.2881C68.8871 36.3428 68.6934 36.4248 68.5385 36.5342C68.3835 36.6436 68.2673 36.7757 68.1898 36.9307C68.1123 37.0856 68.0736 37.2611 68.0736 37.457C68.0736 37.653 68.1192 37.833 68.2103 37.9971C68.3015 38.1566 68.4336 38.2819 68.6068 38.373C68.7845 38.4642 68.9987 38.5098 69.2494 38.5098C69.5866 38.5098 69.8806 38.4414 70.1312 38.3047C70.3864 38.1634 70.587 37.9925 70.7328 37.792C70.8786 37.5869 70.9561 37.3932 70.9652 37.2109L71.4984 37.9424C71.4437 38.1292 71.3503 38.3298 71.2181 38.5439C71.086 38.7581 70.9128 38.9632 70.6986 39.1592C70.489 39.3506 70.236 39.5078 69.9398 39.6309C69.6482 39.7539 69.3109 39.8154 68.9281 39.8154C68.445 39.8154 68.0144 39.7197 67.6361 39.5283C67.2579 39.3324 66.9616 39.0703 66.7474 38.7422C66.5332 38.4095 66.4261 38.0335 66.4261 37.6143C66.4261 37.2223 66.4991 36.876 66.6449 36.5752C66.7953 36.2699 67.014 36.0146 67.3011 35.8096C67.5928 35.6045 67.9483 35.4495 68.3676 35.3447C68.7868 35.2354 69.2653 35.1807 69.8031 35.1807H71.0951Z" fill="#49454F"/>
<path d="M55.1973 29.7256H56.7285L59.6064 37.4023L62.4775 29.7256H64.0088L60.208 39.6787H58.9912L55.1973 29.7256ZM54.5 29.7256H55.9561L56.209 36.3701V39.6787H54.5V29.7256ZM63.25 29.7256H64.7129V39.6787H62.9971V36.3701L63.25 29.7256Z" fill="#49454F"/>
</g>
<defs>
<filter id="filter0_dd_690_38940" x="0.5" y="-0.50293" width="222.426" height="72" filterUnits="userSpaceOnUse" color-interpolation-filters="sRGB">
<feFlood flood-opacity="0" result="BackgroundImageFix"/>
<feColorMatrix in="SourceAlpha" type="matrix" values="0 0 0 0 0 0 0 0 0 0 0 0 0 0 0 0 0 0 127 0" result="hardAlpha"/>
<feMorphology radius="1" operator="dilate" in="SourceAlpha" result="effect1_dropShadow_690_38940"/>
<feOffset dy="1"/>
<feGaussianBlur stdDeviation="1.5"/>
<feColorMatrix type="matrix" values="0 0 0 0 0 0 0 0 0 0 0 0 0 0 0 0 0 0 0.15 0"/>
<feBlend mode="normal" in2="BackgroundImageFix" result="effect1_dropShadow_690_38940"/>
<feColorMatrix in="SourceAlpha" type="matrix" values="0 0 0 0 0 0 0 0 0 0 0 0 0 0 0 0 0 0 127 0" result="hardAlpha"/>
<feOffset dy="1"/>
<feGaussianBlur stdDeviation="1"/>
<feColorMatrix type="matrix" values="0 0 0 0 0 0 0 0 0 0 0 0 0 0 0 0 0 0 0.3 0"/>
<feBlend mode="normal" in2="effect1_dropShadow_690_38940" result="effect2_dropShadow_690_38940"/>
<feBlend mode="normal" in="SourceGraphic" in2="effect2_dropShadow_690_38940" result="shape"/>
</filter>
<clipPath id="clip0_690_38940">
<rect width="18" height="18" fill="white" transform="translate(28.5 25.4971)"/>
</clipPath>
</defs>
</svg>
