<svg width="33" height="33" viewBox="0 0 33 33" fill="none" xmlns="http://www.w3.org/2000/svg">
<path d="M30.9249 8.98749C29.8984 9.45408 28.7919 9.76069 27.6454 9.90733C28.8186 9.20079 29.7251 8.08098 30.1517 6.73455C29.0452 7.4011 27.8187 7.86769 26.5256 8.13431C25.4725 6.98784 23.9927 6.32129 22.313 6.32129C19.1802 6.32129 16.6207 8.88085 16.6207 12.0403C16.6207 12.4936 16.674 12.9335 16.7673 13.3467C12.0215 13.1068 7.79555 10.8272 4.98271 7.37444C4.48946 8.21429 4.20951 9.20079 4.20951 10.2406C4.20951 12.2269 5.20933 13.9866 6.75573 14.9865C5.80923 14.9865 4.92938 14.7198 4.15618 14.3199V14.3599C4.15618 17.1327 6.12917 19.4523 8.74205 19.9723C7.90317 20.2018 7.02248 20.2338 6.16917 20.0656C6.53125 21.202 7.24036 22.1964 8.19684 22.909C9.15331 23.6216 10.309 24.0165 11.5016 24.0382C9.4801 25.6385 6.97436 26.5035 4.39614 26.4911C3.94289 26.4911 3.48963 26.4645 3.03638 26.4111C5.56927 28.0375 8.58208 28.984 11.8082 28.984C22.313 28.984 28.0854 20.2655 28.0854 12.7068C28.0854 12.4536 28.0854 12.2136 28.072 11.9603C29.1918 11.1604 30.1517 10.1473 30.9249 8.98749V8.98749Z" fill="#626467"/>
</svg>
