<svg width="33" height="33" viewBox="0 0 33 33" fill="none" xmlns="http://www.w3.org/2000/svg">
<path d="M23.2867 27.2906H29.9522V24.6244C29.9522 22.4156 28.1617 20.6251 25.9529 20.6251C24.679 20.6251 23.5442 21.2207 22.8118 22.1487M23.2867 27.2906H9.95567M23.2867 27.2906V24.6244C23.2867 23.7495 23.1182 22.9141 22.8118 22.1487M9.95567 27.2906H3.29016V24.6244C3.29016 22.4156 5.08071 20.6251 7.28947 20.6251C8.56339 20.6251 9.69819 21.2207 10.4306 22.1487M9.95567 27.2906V24.6244C9.95567 23.7495 10.1242 22.9141 10.4306 22.1487M10.4306 22.1487C11.4134 19.6933 13.8148 17.9589 16.6212 17.9589C19.4276 17.9589 21.8289 19.6933 22.8118 22.1487M20.6205 9.96024C20.6205 12.169 18.8299 13.9595 16.6212 13.9595C14.4124 13.9595 12.6219 12.169 12.6219 9.96024C12.6219 7.75149 14.4124 5.96094 16.6212 5.96094C18.8299 5.96094 20.6205 7.75149 20.6205 9.96024ZM28.6191 13.9595C28.6191 15.4321 27.4254 16.6258 25.9529 16.6258C24.4804 16.6258 23.2867 15.4321 23.2867 13.9595C23.2867 12.487 24.4804 11.2933 25.9529 11.2933C27.4254 11.2933 28.6191 12.487 28.6191 13.9595ZM9.95567 13.9595C9.95567 15.4321 8.76197 16.6258 7.28947 16.6258C5.81696 16.6258 4.62326 15.4321 4.62326 13.9595C4.62326 12.487 5.81696 11.2933 7.28947 11.2933C8.76197 11.2933 9.95567 12.487 9.95567 13.9595Z" stroke="#111827" stroke-width="2" stroke-linecap="round" stroke-linejoin="round"/>
</svg>
