<svg width="300" height="49" viewBox="0 0 300 49" fill="none" xmlns="http://www.w3.org/2000/svg">
<rect y="0.984375" width="300" height="48" rx="8" fill="#D9D9D9"/>
<path d="M113.869 23.3672H111.691C111.651 23.0855 111.57 22.8352 111.447 22.6165C111.325 22.3944 111.167 22.2055 110.975 22.0497C110.783 21.8939 110.561 21.7746 110.309 21.6918C110.06 21.6089 109.79 21.5675 109.499 21.5675C108.972 21.5675 108.513 21.6984 108.121 21.9602C107.73 22.2187 107.427 22.5966 107.212 23.0938C106.996 23.5876 106.888 24.1875 106.888 24.8935C106.888 25.6193 106.996 26.2292 107.212 26.723C107.43 27.2169 107.735 27.5897 108.126 27.8416C108.518 28.0935 108.97 28.2195 109.484 28.2195C109.772 28.2195 110.039 28.1813 110.284 28.1051C110.533 28.0289 110.753 27.9179 110.945 27.772C111.138 27.6229 111.297 27.4422 111.423 27.2301C111.552 27.018 111.641 26.776 111.691 26.5043L113.869 26.5142C113.812 26.9815 113.671 27.4323 113.446 27.8665C113.224 28.2973 112.924 28.6835 112.546 29.0249C112.172 29.3629 111.724 29.6314 111.204 29.8303C110.687 30.0258 110.102 30.1236 109.449 30.1236C108.541 30.1236 107.729 29.9181 107.013 29.5071C106.3 29.0961 105.737 28.5012 105.322 27.7223C104.911 26.9434 104.706 26.0005 104.706 24.8935C104.706 23.7831 104.915 22.8385 105.332 22.0597C105.75 21.2808 106.317 20.6875 107.033 20.2798C107.749 19.8688 108.554 19.6634 109.449 19.6634C110.039 19.6634 110.586 19.7462 111.089 19.9119C111.597 20.0777 112.046 20.3196 112.437 20.6378C112.828 20.9527 113.146 21.3388 113.391 21.7962C113.64 22.2536 113.799 22.7772 113.869 23.3672ZM118.823 30.1335C118.051 30.1335 117.383 29.9695 116.819 29.6413C116.259 29.3099 115.827 28.8492 115.522 28.2592C115.217 27.666 115.064 26.9782 115.064 26.196C115.064 25.4072 115.217 24.7178 115.522 24.1278C115.827 23.5346 116.259 23.0739 116.819 22.7457C117.383 22.4143 118.051 22.2486 118.823 22.2486C119.595 22.2486 120.261 22.4143 120.821 22.7457C121.385 23.0739 121.819 23.5346 122.124 24.1278C122.429 24.7178 122.581 25.4072 122.581 26.196C122.581 26.9782 122.429 27.666 122.124 28.2592C121.819 28.8492 121.385 29.3099 120.821 29.6413C120.261 29.9695 119.595 30.1335 118.823 30.1335ZM118.833 28.4929C119.184 28.4929 119.477 28.3935 119.713 28.1946C119.948 27.9924 120.125 27.7173 120.245 27.3693C120.367 27.0213 120.429 26.6252 120.429 26.1811C120.429 25.737 120.367 25.3409 120.245 24.9929C120.125 24.6449 119.948 24.3698 119.713 24.1676C119.477 23.9654 119.184 23.8643 118.833 23.8643C118.478 23.8643 118.18 23.9654 117.938 24.1676C117.699 24.3698 117.519 24.6449 117.396 24.9929C117.277 25.3409 117.217 25.737 117.217 26.1811C117.217 26.6252 117.277 27.0213 117.396 27.3693C117.519 27.7173 117.699 27.9924 117.938 28.1946C118.18 28.3935 118.478 28.4929 118.833 28.4929ZM123.958 29.9844V22.348H125.977V23.6953H126.066C126.225 23.2479 126.491 22.8949 126.862 22.6364C127.233 22.3778 127.677 22.2486 128.194 22.2486C128.718 22.2486 129.164 22.3795 129.532 22.6413C129.9 22.8999 130.145 23.2512 130.267 23.6953H130.347C130.503 23.2578 130.784 22.9081 131.192 22.6463C131.603 22.3812 132.089 22.2486 132.649 22.2486C133.361 22.2486 133.94 22.4756 134.384 22.9297C134.831 23.3804 135.055 24.0201 135.055 24.8487V29.9844H132.942V25.2663C132.942 24.8421 132.829 24.5239 132.604 24.3118C132.379 24.0997 132.097 23.9936 131.759 23.9936C131.374 23.9936 131.074 24.1162 130.859 24.3615C130.644 24.6035 130.536 24.9233 130.536 25.321V29.9844H128.483V25.2216C128.483 24.8471 128.375 24.5488 128.159 24.3267C127.947 24.1046 127.667 23.9936 127.319 23.9936C127.084 23.9936 126.872 24.0533 126.683 24.1726C126.497 24.2886 126.35 24.4527 126.24 24.6648C126.131 24.8736 126.076 25.1188 126.076 25.4006V29.9844H123.958ZM136.728 29.9844V22.348H138.846V29.9844H136.728ZM137.792 21.3636C137.477 21.3636 137.207 21.2592 136.982 21.0504C136.759 20.8383 136.648 20.5848 136.648 20.2898C136.648 19.9981 136.759 19.7479 136.982 19.5391C137.207 19.3269 137.477 19.2209 137.792 19.2209C138.107 19.2209 138.375 19.3269 138.597 19.5391C138.823 19.7479 138.935 19.9981 138.935 20.2898C138.935 20.5848 138.823 20.8383 138.597 21.0504C138.375 21.2592 138.107 21.3636 137.792 21.3636ZM142.66 25.5696V29.9844H140.542V22.348H142.561V23.6953H142.65C142.819 23.2512 143.103 22.8999 143.501 22.6413C143.898 22.3795 144.381 22.2486 144.947 22.2486C145.478 22.2486 145.94 22.3646 146.334 22.5966C146.729 22.8286 147.035 23.16 147.254 23.5909C147.473 24.0185 147.582 24.5289 147.582 25.1222V29.9844H145.464V25.5C145.468 25.0327 145.348 24.6681 145.106 24.4062C144.864 24.1411 144.531 24.0085 144.107 24.0085C143.822 24.0085 143.57 24.0698 143.351 24.1925C143.136 24.3151 142.967 24.4941 142.844 24.7294C142.725 24.9614 142.664 25.2415 142.66 25.5696ZM152.692 33.0071C152.006 33.0071 151.417 32.9126 150.927 32.7237C150.44 32.5381 150.052 32.2846 149.763 31.9631C149.475 31.6416 149.288 31.2803 149.202 30.8793L151.161 30.6158C151.22 30.7682 151.315 30.9107 151.444 31.0433C151.573 31.1759 151.744 31.282 151.956 31.3615C152.171 31.4444 152.433 31.4858 152.741 31.4858C153.202 31.4858 153.582 31.3731 153.88 31.1477C154.182 30.9257 154.332 30.5528 154.332 30.0291V28.6321H154.243C154.15 28.8442 154.011 29.0447 153.825 29.2337C153.64 29.4226 153.401 29.5767 153.109 29.696C152.818 29.8153 152.47 29.875 152.065 29.875C151.492 29.875 150.97 29.7424 150.499 29.4773C150.032 29.2088 149.659 28.7995 149.381 28.2493C149.106 27.6958 148.968 26.9964 148.968 26.1513C148.968 25.2862 149.109 24.5637 149.391 23.9837C149.672 23.4036 150.047 22.9695 150.514 22.6811C150.985 22.3928 151.5 22.2486 152.06 22.2486C152.488 22.2486 152.846 22.3215 153.134 22.4673C153.423 22.6098 153.655 22.7888 153.83 23.0043C154.009 23.2164 154.147 23.4252 154.243 23.6307H154.322V22.348H156.425V30.0589C156.425 30.7086 156.266 31.2521 155.948 31.6896C155.63 32.1271 155.189 32.4553 154.626 32.674C154.066 32.8961 153.421 33.0071 152.692 33.0071ZM152.737 28.2841C153.078 28.2841 153.366 28.1996 153.602 28.0305C153.84 27.8582 154.022 27.6129 154.148 27.2947C154.278 26.9732 154.342 26.5888 154.342 26.1413C154.342 25.6939 154.279 25.3061 154.153 24.978C154.027 24.6465 153.845 24.3897 153.607 24.2074C153.368 24.0251 153.078 23.9339 152.737 23.9339C152.388 23.9339 152.095 24.0284 151.857 24.2173C151.618 24.4029 151.437 24.6615 151.315 24.9929C151.192 25.3243 151.131 25.7071 151.131 26.1413C151.131 26.5821 151.192 26.9633 151.315 27.2848C151.441 27.603 151.621 27.8499 151.857 28.0256C152.095 28.1979 152.388 28.2841 152.737 28.2841ZM166.914 22.7308C166.874 22.3298 166.704 22.0182 166.402 21.7962C166.101 21.5741 165.691 21.4631 165.174 21.4631C164.823 21.4631 164.526 21.5128 164.284 21.6122C164.042 21.7083 163.857 21.8426 163.727 22.0149C163.602 22.1873 163.539 22.3828 163.539 22.6016C163.532 22.7839 163.57 22.9429 163.653 23.0788C163.739 23.2147 163.857 23.3324 164.006 23.4318C164.155 23.5279 164.327 23.6125 164.523 23.6854C164.718 23.755 164.927 23.8146 165.149 23.8643L166.064 24.0831C166.508 24.1825 166.916 24.3151 167.287 24.4808C167.658 24.6465 167.98 24.8504 168.252 25.0923C168.523 25.3343 168.734 25.6193 168.883 25.9474C169.035 26.2756 169.113 26.6518 169.117 27.076C169.113 27.6991 168.954 28.2393 168.639 28.6967C168.328 29.1508 167.877 29.5038 167.287 29.7557C166.7 30.0043 165.993 30.1286 165.164 30.1286C164.342 30.1286 163.626 30.0026 163.017 29.7507C162.41 29.4988 161.936 29.1259 161.595 28.6321C161.257 28.1349 161.079 27.5201 161.063 26.7876H163.146C163.169 27.129 163.267 27.4141 163.439 27.6428C163.615 27.8681 163.848 28.0388 164.14 28.1548C164.435 28.2675 164.768 28.3239 165.139 28.3239C165.504 28.3239 165.82 28.2708 166.089 28.1648C166.361 28.0587 166.571 27.9112 166.72 27.7223C166.869 27.5334 166.944 27.3163 166.944 27.071C166.944 26.8423 166.876 26.6501 166.74 26.4943C166.608 26.3385 166.412 26.206 166.154 26.0966C165.898 25.9872 165.585 25.8878 165.214 25.7983L164.105 25.5199C163.247 25.3111 162.569 24.9846 162.072 24.5405C161.575 24.0964 161.328 23.4981 161.331 22.7457C161.328 22.1293 161.492 21.5907 161.823 21.13C162.158 20.6693 162.617 20.3097 163.2 20.0511C163.784 19.7926 164.447 19.6634 165.189 19.6634C165.945 19.6634 166.604 19.7926 167.168 20.0511C167.735 20.3097 168.175 20.6693 168.49 21.13C168.805 21.5907 168.968 22.1243 168.977 22.7308H166.914ZM173.975 30.1335C173.203 30.1335 172.535 29.9695 171.972 29.6413C171.411 29.3099 170.979 28.8492 170.674 28.2592C170.369 27.666 170.217 26.9782 170.217 26.196C170.217 25.4072 170.369 24.7178 170.674 24.1278C170.979 23.5346 171.411 23.0739 171.972 22.7457C172.535 22.4143 173.203 22.2486 173.975 22.2486C174.747 22.2486 175.414 22.4143 175.974 22.7457C176.537 23.0739 176.971 23.5346 177.276 24.1278C177.581 24.7178 177.734 25.4072 177.734 26.196C177.734 26.9782 177.581 27.666 177.276 28.2592C176.971 28.8492 176.537 29.3099 175.974 29.6413C175.414 29.9695 174.747 30.1335 173.975 30.1335ZM173.985 28.4929C174.336 28.4929 174.63 28.3935 174.865 28.1946C175.1 27.9924 175.278 27.7173 175.397 27.3693C175.52 27.0213 175.581 26.6252 175.581 26.1811C175.581 25.737 175.52 25.3409 175.397 24.9929C175.278 24.6449 175.1 24.3698 174.865 24.1676C174.63 23.9654 174.336 23.8643 173.985 23.8643C173.63 23.8643 173.332 23.9654 173.09 24.1676C172.852 24.3698 172.671 24.6449 172.548 24.9929C172.429 25.3409 172.369 25.737 172.369 26.1811C172.369 26.6252 172.429 27.0213 172.548 27.3693C172.671 27.7173 172.852 27.9924 173.09 28.1946C173.332 28.3935 173.63 28.4929 173.985 28.4929ZM182.561 30.1335C181.789 30.1335 181.121 29.9695 180.558 29.6413C179.997 29.3099 179.565 28.8492 179.26 28.2592C178.955 27.666 178.803 26.9782 178.803 26.196C178.803 25.4072 178.955 24.7178 179.26 24.1278C179.565 23.5346 179.997 23.0739 180.558 22.7457C181.121 22.4143 181.789 22.2486 182.561 22.2486C183.333 22.2486 184 22.4143 184.56 22.7457C185.123 23.0739 185.557 23.5346 185.862 24.1278C186.167 24.7178 186.32 25.4072 186.32 26.196C186.32 26.9782 186.167 27.666 185.862 28.2592C185.557 28.8492 185.123 29.3099 184.56 29.6413C184 29.9695 183.333 30.1335 182.561 30.1335ZM182.571 28.4929C182.922 28.4929 183.216 28.3935 183.451 28.1946C183.686 27.9924 183.864 27.7173 183.983 27.3693C184.106 27.0213 184.167 26.6252 184.167 26.1811C184.167 25.737 184.106 25.3409 183.983 24.9929C183.864 24.6449 183.686 24.3698 183.451 24.1676C183.216 23.9654 182.922 23.8643 182.571 23.8643C182.216 23.8643 181.918 23.9654 181.676 24.1676C181.438 24.3698 181.257 24.6449 181.134 24.9929C181.015 25.3409 180.955 25.737 180.955 26.1811C180.955 26.6252 181.015 27.0213 181.134 27.3693C181.257 27.7173 181.438 27.9924 181.676 28.1946C181.918 28.3935 182.216 28.4929 182.571 28.4929ZM189.815 25.5696V29.9844H187.697V22.348H189.715V23.6953H189.805C189.974 23.2512 190.257 22.8999 190.655 22.6413C191.053 22.3795 191.535 22.2486 192.102 22.2486C192.632 22.2486 193.094 22.3646 193.489 22.5966C193.883 22.8286 194.19 23.16 194.408 23.5909C194.627 24.0185 194.737 24.5289 194.737 25.1222V29.9844H192.619V25.5C192.622 25.0327 192.503 24.6681 192.261 24.4062C192.019 24.1411 191.686 24.0085 191.261 24.0085C190.976 24.0085 190.724 24.0698 190.506 24.1925C190.29 24.3151 190.121 24.4941 189.999 24.7294C189.879 24.9614 189.818 25.2415 189.815 25.5696Z" fill="#B5B7BB"/>
</svg>
