<svg width="33" height="33" viewBox="0 0 33 33" fill="none" xmlns="http://www.w3.org/2000/svg">
<path d="M16.7745 11.2934V28.6238M16.7745 11.2934C16.7745 11.2934 16.7745 9.30342 16.7745 8.62724C16.7745 7.15473 17.9682 5.96103 19.4407 5.96103C20.9132 5.96103 22.1069 7.15473 22.1069 8.62724C22.1069 10.0997 20.9132 11.2934 19.4407 11.2934C18.6444 11.2934 16.7745 11.2934 16.7745 11.2934ZM16.7745 11.2934C16.7745 11.2934 16.7745 8.7111 16.7745 7.96068C16.7745 6.12005 15.2824 4.62793 13.4418 4.62793C11.6011 4.62793 10.109 6.12005 10.109 7.96068C10.109 9.80131 11.6011 11.2934 13.4418 11.2934C14.532 11.2934 16.7745 11.2934 16.7745 11.2934ZM7.44282 16.6258H26.1062M7.44282 16.6258C5.97031 16.6258 4.77661 15.4321 4.77661 13.9596C4.77661 12.4871 5.97031 11.2934 7.44282 11.2934H26.1062C27.5787 11.2934 28.7724 12.4871 28.7724 13.9596C28.7724 15.4321 27.5787 16.6258 26.1062 16.6258M7.44282 16.6258L7.44282 25.9576C7.44282 27.4301 8.63652 28.6238 10.109 28.6238H23.44C24.9125 28.6238 26.1062 27.4301 26.1062 25.9576V16.6258" stroke="#111827" stroke-width="2" stroke-linecap="round" stroke-linejoin="round"/>
</svg>
