<svg width="159" height="73" viewBox="0 0 159 73" fill="none" xmlns="http://www.w3.org/2000/svg">
<g filter="url(#filter0_dd_690_38952)">
<rect x="4.92627" y="3.49707" width="150" height="64" rx="8" fill="#F2F2F2"/>
<g clip-path="url(#clip0_690_38952)">
<path d="M41.7431 35.7438C41.692 35.683 41.6188 35.6449 41.5396 35.6379C41.4604 35.6309 41.3817 35.6555 41.3207 35.7065C40.7581 36.177 40.1599 36.6031 39.5313 36.981C39.4968 37.0011 39.4667 37.0278 39.4426 37.0596C39.4186 37.0914 39.4012 37.1277 39.3913 37.1664C39.3815 37.205 39.3795 37.2453 39.3854 37.2847C39.3913 37.3241 39.405 37.362 39.4257 37.3961C39.4465 37.4302 39.4738 37.4598 39.5061 37.4832C39.5384 37.5065 39.5751 37.5233 39.6139 37.5323C39.6528 37.5414 39.693 37.5426 39.7324 37.5359C39.7717 37.5292 39.8093 37.5148 39.843 37.4934C40.4981 37.0993 41.1218 36.6552 41.7085 36.165C41.769 36.1135 41.8067 36.0401 41.8131 35.9608C41.8195 35.8816 41.7942 35.803 41.7427 35.7424L41.7431 35.7438Z" fill="#09A387"/>
<path d="M31.776 28.7528C31.9689 28.094 32.3289 27.4963 32.8211 27.0176C32.8526 26.991 32.8784 26.9582 32.8967 26.9213C32.915 26.8843 32.9255 26.844 32.9275 26.8028C32.9295 26.7616 32.923 26.7205 32.9084 26.6819C32.8938 26.6434 32.8714 26.6082 32.8426 26.5787C32.8137 26.5492 32.7791 26.5259 32.7409 26.5104C32.7027 26.4949 32.6617 26.4874 32.6205 26.4884C32.5792 26.4894 32.5386 26.4989 32.5012 26.5163C32.4638 26.5337 32.4304 26.5586 32.4031 26.5895C31.8363 27.1403 31.4218 27.8285 31.2 28.5869C31.1882 28.6249 31.1841 28.6649 31.1879 28.7046C31.1917 28.7442 31.2034 28.7827 31.2223 28.8178C31.2411 28.8529 31.2668 28.8839 31.2978 28.9089C31.3288 28.934 31.3644 28.9526 31.4027 28.9638C31.4409 28.9749 31.481 28.9783 31.5206 28.9738C31.5602 28.9692 31.5985 28.9569 31.6333 28.9374C31.668 28.9179 31.6985 28.8917 31.7231 28.8603C31.7476 28.8289 31.7656 28.7929 31.776 28.7545V28.7528Z" fill="#09A387"/>
<path d="M37.2499 36.826C37.4572 36.9397 37.6898 36.9993 37.9263 36.9993C38.1628 36.9993 38.3955 36.9397 38.6028 36.826C42.018 34.9365 43.7114 32.5923 43.6339 29.8687C43.6367 28.9804 43.2869 28.1273 42.6612 27.4965C42.0356 26.8657 41.1851 26.5087 40.2965 26.5039C39.8549 26.5031 39.4176 26.5907 39.0105 26.7617C38.6034 26.9328 38.2348 27.1836 37.9263 27.4995C37.6178 27.1839 37.2491 26.9334 36.8421 26.7627C36.4351 26.592 35.9979 26.5046 35.5565 26.5056C34.6692 26.5101 33.8198 26.8657 33.1943 27.4948C32.5687 28.1238 32.218 28.9749 32.2188 29.8619C32.1423 32.5934 33.8347 34.9379 37.2499 36.8277V36.826ZM35.5565 27.1037C35.9676 27.103 36.3734 27.1958 36.7432 27.3751C37.1131 27.5544 37.4372 27.8156 37.6911 28.1387C37.7203 28.1725 37.7564 28.1996 37.797 28.2182C37.8376 28.2367 37.8817 28.2464 37.9263 28.2464C37.971 28.2464 38.0151 28.2367 38.0557 28.2182C38.0963 28.1996 38.1324 28.1725 38.1615 28.1387C38.4155 27.8155 38.7397 27.5544 39.1096 27.3751C39.4795 27.1957 39.8854 27.1029 40.2965 27.1037C41.0274 27.1086 41.7265 27.4034 42.24 27.9234C42.7536 28.4434 43.0395 29.146 43.0349 29.8766C43.1062 32.4018 41.5606 34.5033 38.3134 36.3013C38.1952 36.3662 38.0624 36.4002 37.9275 36.4002C37.7926 36.4002 37.6599 36.3662 37.5416 36.3013C34.292 34.502 32.7492 32.4028 32.8178 29.8684C32.8148 29.1389 33.1016 28.438 33.6152 27.9197C34.1287 27.4013 34.827 27.1078 35.5568 27.1037H35.5565Z" fill="#09A387"/>
<path d="M36.4862 32.6217H36.9062V33.0415C36.9063 33.2165 36.9758 33.3842 37.0996 33.5079C37.2233 33.6316 37.3912 33.7012 37.5662 33.7013H38.2862C38.4612 33.7012 38.629 33.6316 38.7528 33.5079C38.8765 33.3842 38.9461 33.2165 38.9462 33.0415V32.6217H39.3662C39.5412 32.6216 39.709 32.5521 39.8328 32.4283C39.9565 32.3046 40.0261 32.1369 40.0262 31.9619V31.2422C40.0261 31.0673 39.9565 30.8995 39.8328 30.7758C39.709 30.6521 39.5412 30.5826 39.3662 30.5825H38.9462V30.1627C38.9461 29.9877 38.8765 29.82 38.7528 29.6963C38.629 29.5726 38.4612 29.503 38.2862 29.5029H37.5662C37.3912 29.503 37.2233 29.5726 37.0996 29.6963C36.9758 29.82 36.9063 29.9877 36.9062 30.1627V30.5825H36.4862C36.3112 30.5826 36.1433 30.6521 36.0196 30.7758C35.8958 30.8995 35.8263 31.0673 35.8262 31.2422V31.9619C35.8263 32.1369 35.8958 32.3046 36.0196 32.4283C36.1433 32.5521 36.3112 32.6216 36.4862 32.6217ZM36.4262 31.2422C36.4263 31.2264 36.4326 31.2112 36.4438 31.1999C36.4551 31.1887 36.4703 31.1823 36.4862 31.1823H37.2062C37.2456 31.1823 37.2846 31.1746 37.321 31.1595C37.3574 31.1445 37.3905 31.1224 37.4184 31.0945C37.4463 31.0667 37.4684 31.0336 37.4834 30.9972C37.4985 30.9608 37.5062 30.9218 37.5062 30.8824V30.1627C37.5063 30.1468 37.5126 30.1316 37.5238 30.1204C37.5351 30.1091 37.5503 30.1028 37.5662 30.1027H38.2862C38.2941 30.1026 38.3019 30.1042 38.3092 30.1072C38.3165 30.1102 38.3231 30.1146 38.3287 30.1202C38.3343 30.1257 38.3387 30.1324 38.3417 30.1397C38.3447 30.147 38.3462 30.1548 38.3462 30.1627V30.8824C38.3461 30.9218 38.3539 30.9608 38.3689 30.9972C38.384 31.0336 38.4061 31.0667 38.4339 31.0945C38.4618 31.1224 38.4949 31.1445 38.5313 31.1595C38.5677 31.1746 38.6068 31.1823 38.6462 31.1823H39.3662C39.3741 31.1822 39.3819 31.1837 39.3892 31.1867C39.3965 31.1897 39.4031 31.1941 39.4087 31.1997C39.4143 31.2053 39.4187 31.2119 39.4217 31.2192C39.4247 31.2265 39.4262 31.2343 39.4262 31.2422V31.9619C39.4262 31.9698 39.4247 31.9777 39.4217 31.985C39.4187 31.9922 39.4143 31.9989 39.4087 32.0045C39.4031 32.01 39.3965 32.0145 39.3892 32.0174C39.3819 32.0204 39.3741 32.022 39.3662 32.0219H38.6462C38.5666 32.0219 38.4903 32.0535 38.434 32.1098C38.3778 32.166 38.3462 32.2423 38.3462 32.3218V33.0415C38.3462 33.0494 38.3447 33.0572 38.3417 33.0645C38.3387 33.0718 38.3343 33.0784 38.3287 33.084C38.3231 33.0896 38.3165 33.094 38.3092 33.097C38.3019 33.1 38.2941 33.1015 38.2862 33.1015H37.5662C37.5503 33.1014 37.5351 33.0951 37.5238 33.0838C37.5126 33.0726 37.5063 33.0574 37.5062 33.0415V32.3218C37.5062 32.2824 37.4985 32.2434 37.4834 32.207C37.4684 32.1706 37.4463 32.1375 37.4184 32.1097C37.3905 32.0818 37.3574 32.0597 37.321 32.0447C37.2846 32.0296 37.2456 32.0219 37.2062 32.0219H36.4862C36.4703 32.0218 36.4551 32.0155 36.4438 32.0043C36.4326 31.993 36.4263 31.9778 36.4262 31.9619V31.2422Z" fill="#09A387"/>
<path d="M42.7262 35.2003C42.7262 35.2596 42.7086 35.3176 42.6757 35.3669C42.6427 35.4162 42.5958 35.4546 42.541 35.4773C42.4862 35.5 42.4259 35.506 42.3677 35.4944C42.3095 35.4828 42.256 35.4543 42.2141 35.4123C42.1721 35.3704 42.1436 35.3169 42.132 35.2588C42.1204 35.2006 42.1264 35.1403 42.1491 35.0855C42.1718 35.0307 42.2102 34.9839 42.2596 34.9509C42.3089 34.918 42.3669 34.9004 42.4262 34.9004C42.5058 34.9004 42.5821 34.932 42.6384 34.9882C42.6946 35.0445 42.7262 35.1207 42.7262 35.2003Z" fill="#09A387"/>
<path d="M31.6264 29.8028C31.6264 29.8621 31.6088 29.9201 31.5758 29.9694C31.5428 30.0187 31.496 30.0572 31.4412 30.0799C31.3864 30.1026 31.326 30.1085 31.2678 30.0969C31.2096 30.0854 31.1562 30.0568 31.1142 30.0149C31.0723 29.9729 31.0437 29.9195 31.0321 29.8613C31.0206 29.8031 31.0265 29.7428 31.0492 29.6881C31.0719 29.6333 31.1104 29.5864 31.1597 29.5535C31.209 29.5205 31.267 29.5029 31.3264 29.5029C31.4059 29.5029 31.4822 29.5345 31.5385 29.5908C31.5948 29.647 31.6264 29.7233 31.6264 29.8028Z" fill="#09A387"/>
<path d="M35.8263 41.8039V40.4844C35.8268 40.2874 35.7882 40.0923 35.7127 39.9104C35.6373 39.7284 35.5265 39.5632 35.3867 39.4244L32.0291 36.0705C31.9 35.9415 31.7396 35.8482 31.5636 35.7996C31.3876 35.751 31.202 35.7488 31.0249 35.7933V33.5944C31.0271 33.3295 30.9325 33.0729 30.759 32.8727C30.5854 32.6726 30.3447 32.5426 30.082 32.5073C29.9363 32.494 29.7894 32.5112 29.6506 32.5575C29.5117 32.6038 29.384 32.6784 29.2755 32.7765C29.1669 32.8746 29.0798 32.9941 29.0197 33.1275C28.9596 33.2609 28.9278 33.4052 28.9263 33.5515V38.1782C28.9261 38.3749 28.9649 38.5696 29.0403 38.7511C29.1157 38.9327 29.2264 39.0976 29.3658 39.2362L31.3263 41.1966V41.8039C31.1632 41.8173 31.011 41.8914 30.8999 42.0115C30.7888 42.1316 30.7268 42.2891 30.7263 42.4527V43.8424C30.7265 44.016 30.7956 44.1824 30.9184 44.3052C31.0412 44.4279 31.2078 44.4969 31.3815 44.497H35.77C35.9437 44.4969 36.1103 44.4279 36.2331 44.3052C36.356 44.1824 36.4251 44.016 36.4252 43.8424V42.4527C36.4247 42.2891 36.3627 42.1316 36.2516 42.0115C36.1405 41.8914 35.9884 41.8173 35.8252 41.8039H35.8263ZM29.7899 38.8126C29.6216 38.6436 29.5269 38.415 29.5263 38.1765V33.5515C29.5272 33.4888 29.5411 33.4269 29.5671 33.3699C29.5931 33.3128 29.6306 33.2617 29.6774 33.2198C29.7241 33.178 29.779 33.1462 29.8386 33.1266C29.8983 33.107 29.9613 33.1 30.0238 33.106C30.139 33.1248 30.2435 33.1849 30.3175 33.2751C30.3916 33.3653 30.4303 33.4794 30.4263 33.5961V36.2241C30.2825 36.4229 30.2153 36.6669 30.237 36.9113C30.2587 37.1557 30.3679 37.3841 30.5446 37.5545L31.7891 38.7958C31.8167 38.8249 31.8498 38.8481 31.8865 38.8642C31.9232 38.8803 31.9628 38.8888 32.0028 38.8893C32.0429 38.8899 32.0827 38.8824 32.1198 38.8673C32.1569 38.8522 32.1906 38.8299 32.219 38.8015C32.2473 38.7732 32.2697 38.7395 32.2847 38.7024C32.2998 38.6653 32.3073 38.6256 32.3068 38.5855C32.3063 38.5455 32.2977 38.5059 32.2816 38.4692C32.2656 38.4325 32.2423 38.3994 32.2132 38.3719L30.9752 37.1343C30.9308 37.0941 30.8953 37.045 30.8711 36.9903C30.8468 36.9355 30.8343 36.8763 30.8343 36.8164C30.8343 36.7566 30.8468 36.6974 30.8711 36.6426C30.8953 36.5879 30.9308 36.5388 30.9752 36.4986C31.0163 36.4559 31.0657 36.4219 31.1202 36.3987C31.1748 36.3755 31.2335 36.3635 31.2928 36.3635C31.3522 36.3635 31.4109 36.3755 31.4654 36.3987C31.52 36.4219 31.5694 36.4559 31.6105 36.4986L34.964 39.849C35.1321 40.0181 35.2268 40.2467 35.2276 40.4851V41.7984H31.9263V41.0725C31.9263 41.0332 31.9185 40.9942 31.9035 40.9579C31.8884 40.9215 31.8663 40.8885 31.8385 40.8607L29.7899 38.8126ZM35.8263 43.8424C35.8262 43.857 35.8204 43.871 35.8102 43.8814C35.805 43.8865 35.7989 43.8905 35.7922 43.8932C35.7855 43.8959 35.7783 43.8973 35.7711 43.8972H31.3825C31.3753 43.8973 31.3681 43.8959 31.3614 43.8932C31.3547 43.8905 31.3486 43.8865 31.3434 43.8814C31.3332 43.871 31.3274 43.857 31.3273 43.8424V42.4527C31.3274 42.4381 31.3332 42.4242 31.3434 42.4139C31.3485 42.4087 31.3546 42.4046 31.3613 42.4019C31.368 42.3991 31.3752 42.3977 31.3825 42.3978H35.7711C35.7783 42.3977 35.7855 42.3991 35.7923 42.4019C35.799 42.4046 35.8051 42.4087 35.8102 42.4139C35.8204 42.4242 35.8262 42.4381 35.8263 42.4527V43.8424Z" fill="#09A387"/>
<path d="M39.4263 42.4528V43.8425C39.4265 44.0161 39.4955 44.1826 39.6184 44.3053C39.7412 44.428 39.9078 44.497 40.0815 44.4971H44.47C44.5561 44.4972 44.6414 44.4803 44.721 44.4475C44.8005 44.4146 44.8728 44.3664 44.9338 44.3057C44.9947 44.2449 45.0431 44.1727 45.0761 44.0932C45.1091 44.0138 45.1262 43.9286 45.1263 43.8425V42.4528C45.1257 42.2892 45.0637 42.1317 44.9526 42.0116C44.8415 41.8915 44.6894 41.8174 44.5263 41.804V41.1967L46.4867 39.2363C46.6264 39.0975 46.7372 38.9323 46.8126 38.7503C46.8881 38.5684 46.9267 38.3733 46.9263 38.1763V33.5517C46.9248 33.4052 46.8929 33.2607 46.8327 33.1272C46.7725 32.9938 46.6853 32.8742 46.5766 32.7761C46.4679 32.6779 46.34 32.6034 46.201 32.5572C46.062 32.5109 45.915 32.494 45.7691 32.5074C45.5065 32.5428 45.2658 32.6727 45.0922 32.8729C44.9186 33.073 44.8241 33.3296 44.8263 33.5945V35.7934C44.6495 35.7491 44.4642 35.7512 44.2885 35.7997C44.1128 35.8481 43.9526 35.941 43.8234 36.0696L40.4672 39.4252C40.3274 39.564 40.2165 39.7292 40.1411 39.9112C40.0656 40.0931 40.0271 40.2882 40.0276 40.4852V41.8047C39.8645 41.8176 39.7121 41.8915 39.601 42.0115C39.4898 42.1316 39.4279 42.2892 39.4276 42.4528H39.4263ZM44.014 40.8605C43.9862 40.8883 43.9641 40.9213 43.9491 40.9577C43.934 40.994 43.9263 41.033 43.9263 41.0723V41.7982H40.6263V40.4849C40.627 40.2464 40.7217 40.0179 40.8899 39.8488L44.2427 36.4973C44.2839 36.4547 44.3333 36.4209 44.3879 36.3977C44.4424 36.3746 44.5011 36.3627 44.5604 36.3627C44.6197 36.3627 44.6783 36.3746 44.7329 36.3977C44.7875 36.4209 44.8368 36.4547 44.878 36.4973C44.9224 36.5376 44.9579 36.5867 44.9822 36.6414C45.0064 36.6962 45.019 36.7555 45.019 36.8154C45.019 36.8753 45.0064 36.9345 44.9822 36.9893C44.9579 37.0441 44.9224 37.0932 44.878 37.1334L43.64 38.3706C43.5873 38.4275 43.5586 38.5025 43.56 38.58C43.5614 38.6575 43.5928 38.7315 43.6476 38.7863C43.7023 38.8412 43.7762 38.8728 43.8538 38.8744C43.9313 38.876 44.0064 38.8475 44.0634 38.7949L45.3066 37.5519C45.4832 37.3816 45.5924 37.1534 45.6142 36.9092C45.6361 36.6649 45.5691 36.421 45.4256 36.2221V33.5941C45.4216 33.4775 45.4602 33.3634 45.5343 33.2732C45.6084 33.183 45.7129 33.1228 45.8281 33.1041C45.8908 33.098 45.954 33.105 46.0138 33.1246C46.0736 33.1443 46.1287 33.1761 46.1756 33.2182C46.2224 33.2602 46.26 33.3116 46.2859 33.3689C46.3119 33.4263 46.3256 33.4884 46.3263 33.5513V38.178C46.3257 38.4165 46.2309 38.6451 46.0626 38.8141L44.014 40.8605ZM40.0263 42.4528C40.0263 42.4455 40.0277 42.4383 40.0304 42.4316C40.0332 42.4249 40.0373 42.4188 40.0424 42.4137C40.0475 42.4086 40.0536 42.4045 40.0603 42.4018C40.067 42.3991 40.0742 42.3978 40.0815 42.3979H44.47C44.4773 42.3978 44.4845 42.3991 44.4912 42.4018C44.4979 42.4045 44.504 42.4086 44.5091 42.4137C44.5143 42.4188 44.5183 42.4249 44.5211 42.4316C44.5238 42.4383 44.5253 42.4455 44.5252 42.4528V43.8425C44.5252 43.8497 44.5238 43.8569 44.521 43.8636C44.5183 43.8702 44.5142 43.8763 44.5091 43.8814C44.5039 43.8865 44.4978 43.8905 44.4911 43.8933C44.4844 43.896 44.4773 43.8974 44.47 43.8973H40.0815C40.0742 43.8974 40.0671 43.896 40.0604 43.8933C40.0537 43.8905 40.0476 43.8865 40.0425 43.8814C40.0373 43.8763 40.0333 43.8702 40.0305 43.8636C40.0277 43.8569 40.0263 43.8497 40.0263 43.8425V42.4528Z" fill="#09A387"/>
</g>
<path d="M58.1474 30.5439V40.4971H56.4315V30.5439H58.1474ZM64.1288 30.5439L60.0956 35.3359L57.7987 37.7695L57.4979 36.0674L59.1386 34.0439L62.037 30.5439H64.1288ZM62.2831 40.4971L59.0087 35.7803L60.1913 34.6113L64.3202 40.4971H62.2831ZM68.2962 40.6338C67.7493 40.6338 67.2548 40.5449 66.8128 40.3672C66.3753 40.1849 66.0016 39.932 65.6917 39.6084C65.3864 39.2848 65.1517 38.9043 64.9876 38.4668C64.8235 38.0293 64.7415 37.5576 64.7415 37.0518V36.7783C64.7415 36.1995 64.8258 35.6755 64.9944 35.2061C65.1631 34.7367 65.3978 34.3356 65.6985 34.0029C65.9993 33.6657 66.3548 33.4082 66.7649 33.2305C67.1751 33.0527 67.6194 32.9639 68.0979 32.9639C68.6266 32.9639 69.0892 33.0527 69.4856 33.2305C69.8821 33.4082 70.2103 33.6589 70.47 33.9824C70.7343 34.3014 70.9303 34.682 71.0579 35.124C71.1901 35.5661 71.2562 36.0537 71.2562 36.5869V37.291H65.5413V36.1084H69.6292V35.9785C69.6201 35.6823 69.5608 35.4043 69.4515 35.1445C69.3466 34.8848 69.1849 34.6751 68.9661 34.5156C68.7474 34.3561 68.4557 34.2764 68.0911 34.2764C67.8177 34.2764 67.5739 34.3356 67.3597 34.4541C67.15 34.568 66.9746 34.7344 66.8333 34.9531C66.692 35.1719 66.5826 35.4362 66.5052 35.7461C66.4323 36.0514 66.3958 36.3955 66.3958 36.7783V37.0518C66.3958 37.3753 66.4391 37.6761 66.5257 37.9541C66.6168 38.2275 66.749 38.4668 66.9222 38.6719C67.0953 38.877 67.305 39.0387 67.5511 39.1572C67.7972 39.2712 68.0774 39.3281 68.3919 39.3281C68.7884 39.3281 69.1416 39.2484 69.4515 39.0889C69.7614 38.9294 70.0302 38.7038 70.2581 38.4121L71.1263 39.2529C70.9668 39.4854 70.7594 39.7087 70.5042 39.9229C70.249 40.1325 69.9368 40.3034 69.5677 40.4355C69.2031 40.5677 68.7793 40.6338 68.2962 40.6338ZM76.7907 38.4941C76.7907 38.3301 76.7497 38.182 76.6677 38.0498C76.5856 37.9131 76.4284 37.79 76.196 37.6807C75.9681 37.5713 75.6309 37.471 75.1843 37.3799C74.7923 37.2933 74.4323 37.1908 74.1042 37.0723C73.7806 36.9492 73.5026 36.8011 73.2702 36.6279C73.0378 36.4548 72.8578 36.2497 72.7302 36.0127C72.6026 35.7757 72.5388 35.5023 72.5388 35.1924C72.5388 34.8916 72.6048 34.6068 72.737 34.3379C72.8692 34.069 73.0583 33.832 73.3044 33.627C73.5505 33.4219 73.849 33.2601 74.1999 33.1416C74.5554 33.0231 74.9519 32.9639 75.3894 32.9639C76.0091 32.9639 76.5401 33.0687 76.9821 33.2783C77.4287 33.4834 77.7705 33.7637 78.0075 34.1191C78.2445 34.4701 78.363 34.8665 78.363 35.3086H76.7155C76.7155 35.1126 76.6654 34.9303 76.5651 34.7617C76.4694 34.5885 76.3236 34.4495 76.1276 34.3447C75.9317 34.2354 75.6856 34.1807 75.3894 34.1807C75.1068 34.1807 74.8721 34.2262 74.6853 34.3174C74.503 34.404 74.3662 34.5179 74.2751 34.6592C74.1885 34.8005 74.1452 34.9554 74.1452 35.124C74.1452 35.2471 74.168 35.3587 74.2136 35.459C74.2637 35.5547 74.3457 35.6436 74.4597 35.7256C74.5736 35.8031 74.7285 35.876 74.9245 35.9443C75.125 36.0127 75.3757 36.0788 75.6765 36.1426C76.2416 36.2611 76.7269 36.4137 77.1325 36.6006C77.5427 36.7829 77.8571 37.0199 78.0759 37.3115C78.2946 37.5986 78.404 37.9632 78.404 38.4053C78.404 38.7334 78.3334 39.0342 78.1921 39.3076C78.0554 39.5765 77.8548 39.8112 77.5905 40.0117C77.3262 40.2077 77.0095 40.3604 76.6403 40.4697C76.2757 40.5791 75.8656 40.6338 75.4099 40.6338C74.7399 40.6338 74.1726 40.5153 73.7077 40.2783C73.2429 40.0368 72.8897 39.7292 72.6481 39.3555C72.4112 38.9772 72.2927 38.5853 72.2927 38.1797H73.8854C73.9037 38.485 73.988 38.7288 74.1384 38.9111C74.2933 39.0889 74.4847 39.2188 74.7126 39.3008C74.945 39.3783 75.1843 39.417 75.4304 39.417C75.7266 39.417 75.975 39.3783 76.1755 39.3008C76.376 39.2188 76.5287 39.1094 76.6335 38.9727C76.7383 38.8314 76.7907 38.6719 76.7907 38.4941ZM83.2071 40.6338C82.6603 40.6338 82.1658 40.5449 81.7237 40.3672C81.2862 40.1849 80.9125 39.932 80.6026 39.6084C80.2973 39.2848 80.0626 38.9043 79.8985 38.4668C79.7345 38.0293 79.6524 37.5576 79.6524 37.0518V36.7783C79.6524 36.1995 79.7367 35.6755 79.9054 35.2061C80.074 34.7367 80.3087 34.3356 80.6095 34.0029C80.9103 33.6657 81.2657 33.4082 81.6759 33.2305C82.086 33.0527 82.5304 32.9639 83.0089 32.9639C83.5375 32.9639 84.0001 33.0527 84.3966 33.2305C84.7931 33.4082 85.1212 33.6589 85.381 33.9824C85.6453 34.3014 85.8412 34.682 85.9688 35.124C86.101 35.5661 86.1671 36.0537 86.1671 36.5869V37.291H80.4522V36.1084H84.5401V35.9785C84.531 35.6823 84.4718 35.4043 84.3624 35.1445C84.2576 34.8848 84.0958 34.6751 83.877 34.5156C83.6583 34.3561 83.3666 34.2764 83.002 34.2764C82.7286 34.2764 82.4848 34.3356 82.2706 34.4541C82.061 34.568 81.8855 34.7344 81.7442 34.9531C81.603 35.1719 81.4936 35.4362 81.4161 35.7461C81.3432 36.0514 81.3067 36.3955 81.3067 36.7783V37.0518C81.3067 37.3753 81.35 37.6761 81.4366 37.9541C81.5278 38.2275 81.6599 38.4668 81.8331 38.6719C82.0063 38.877 82.2159 39.0387 82.462 39.1572C82.7081 39.2712 82.9884 39.3281 83.3028 39.3281C83.6993 39.3281 84.0525 39.2484 84.3624 39.0889C84.6723 38.9294 84.9412 38.7038 85.169 38.4121L86.0372 39.2529C85.8777 39.4854 85.6703 39.7087 85.4151 39.9229C85.1599 40.1325 84.8478 40.3034 84.4786 40.4355C84.114 40.5677 83.6902 40.6338 83.2071 40.6338ZM89.1792 29.9971V40.4971H87.5386V29.9971H89.1792ZM88.8921 36.5254L88.3589 36.5186C88.3634 36.0081 88.4341 35.5365 88.5708 35.1035C88.7121 34.6706 88.908 34.2946 89.1587 33.9756C89.4139 33.652 89.7192 33.4036 90.0747 33.2305C90.4302 33.0527 90.8244 32.9639 91.2573 32.9639C91.6219 32.9639 91.95 33.014 92.2417 33.1143C92.5379 33.2145 92.7931 33.3763 93.0073 33.5996C93.2215 33.8184 93.3833 34.1055 93.4927 34.4609C93.6066 34.8118 93.6636 35.2402 93.6636 35.7461V40.4971H92.0093V35.7324C92.0093 35.377 91.9569 35.0944 91.852 34.8848C91.7518 34.6751 91.6037 34.5247 91.4077 34.4336C91.2117 34.3379 90.9725 34.29 90.6899 34.29C90.3937 34.29 90.1317 34.3493 89.9038 34.4678C89.6805 34.5863 89.4937 34.748 89.3433 34.9531C89.1929 35.1582 89.0789 35.3952 89.0015 35.6641C88.9285 35.9329 88.8921 36.2201 88.8921 36.5254ZM99.6015 39.0137V35.4863C99.6015 35.222 99.5536 34.9941 99.4579 34.8027C99.3622 34.6113 99.2164 34.4632 99.0204 34.3584C98.829 34.2536 98.5875 34.2012 98.2958 34.2012C98.0269 34.2012 97.7945 34.2467 97.5985 34.3379C97.4026 34.429 97.2499 34.5521 97.1405 34.707C97.0312 34.862 96.9765 35.0374 96.9765 35.2334H95.3358C95.3358 34.9417 95.4065 34.6592 95.5478 34.3857C95.689 34.1123 95.8941 33.8685 96.163 33.6543C96.4319 33.4401 96.7532 33.2715 97.1269 33.1484C97.5006 33.0254 97.9198 32.9639 98.3847 32.9639C98.9407 32.9639 99.4328 33.0573 99.8612 33.2441C100.294 33.431 100.634 33.7135 100.88 34.0918C101.13 34.4655 101.256 34.9349 101.256 35.5V38.7881C101.256 39.1253 101.279 39.4284 101.324 39.6973C101.374 39.9616 101.445 40.1917 101.536 40.3877V40.4971H99.8476C99.7701 40.3193 99.7086 40.0938 99.663 39.8203C99.622 39.5423 99.6015 39.2734 99.6015 39.0137ZM99.8407 35.999L99.8544 37.0176H98.6718C98.3664 37.0176 98.0976 37.0472 97.8651 37.1064C97.6327 37.1611 97.439 37.2432 97.2841 37.3525C97.1291 37.4619 97.0129 37.5941 96.9354 37.749C96.858 37.904 96.8192 38.0794 96.8192 38.2754C96.8192 38.4714 96.8648 38.6514 96.956 38.8154C97.0471 38.9749 97.1793 39.1003 97.3524 39.1914C97.5302 39.2826 97.7444 39.3281 97.995 39.3281C98.3323 39.3281 98.6262 39.2598 98.8769 39.123C99.1321 38.9818 99.3326 38.8109 99.4784 38.6104C99.6242 38.4053 99.7017 38.2116 99.7108 38.0293L100.244 38.7607C100.189 38.9476 100.096 39.1481 99.9638 39.3623C99.8316 39.5765 99.6584 39.7816 99.4442 39.9775C99.2346 40.1689 98.9817 40.3262 98.6854 40.4492C98.3938 40.5723 98.0565 40.6338 97.6737 40.6338C97.1907 40.6338 96.76 40.5381 96.3817 40.3467C96.0035 40.1507 95.7073 39.8887 95.4931 39.5605C95.2789 39.2279 95.1718 38.8519 95.1718 38.4326C95.1718 38.0407 95.2447 37.6943 95.3905 37.3936C95.5409 37.0882 95.7597 36.833 96.0468 36.6279C96.3384 36.4229 96.6939 36.2679 97.1132 36.1631C97.5325 36.0537 98.011 35.999 98.5487 35.999H99.8407ZM106.469 33.1006V34.3037H102.299V33.1006H106.469ZM103.502 31.2891H105.15V38.4531C105.15 38.681 105.182 38.8564 105.245 38.9795C105.314 39.098 105.407 39.1777 105.526 39.2188C105.644 39.2598 105.783 39.2803 105.943 39.2803C106.057 39.2803 106.166 39.2734 106.271 39.2598C106.376 39.2461 106.46 39.2324 106.524 39.2188L106.531 40.4766C106.394 40.5176 106.234 40.554 106.052 40.5859C105.874 40.6178 105.669 40.6338 105.437 40.6338C105.059 40.6338 104.724 40.5677 104.432 40.4355C104.14 40.2988 103.912 40.0778 103.748 39.7725C103.584 39.4671 103.502 39.0615 103.502 38.5557V31.2891ZM112.01 39.0137V35.4863C112.01 35.222 111.963 34.9941 111.867 34.8027C111.771 34.6113 111.625 34.4632 111.429 34.3584C111.238 34.2536 110.996 34.2012 110.705 34.2012C110.436 34.2012 110.203 34.2467 110.008 34.3379C109.812 34.429 109.659 34.5521 109.55 34.707C109.44 34.862 109.385 35.0374 109.385 35.2334H107.745C107.745 34.9417 107.815 34.6592 107.957 34.3857C108.098 34.1123 108.303 33.8685 108.572 33.6543C108.841 33.4401 109.162 33.2715 109.536 33.1484C109.91 33.0254 110.329 32.9639 110.794 32.9639C111.35 32.9639 111.842 33.0573 112.27 33.2441C112.703 33.431 113.043 33.7135 113.289 34.0918C113.539 34.4655 113.665 34.9349 113.665 35.5V38.7881C113.665 39.1253 113.688 39.4284 113.733 39.6973C113.783 39.9616 113.854 40.1917 113.945 40.3877V40.4971H112.257C112.179 40.3193 112.118 40.0938 112.072 39.8203C112.031 39.5423 112.01 39.2734 112.01 39.0137ZM112.25 35.999L112.263 37.0176H111.081C110.775 37.0176 110.507 37.0472 110.274 37.1064C110.042 37.1611 109.848 37.2432 109.693 37.3525C109.538 37.4619 109.422 37.5941 109.344 37.749C109.267 37.904 109.228 38.0794 109.228 38.2754C109.228 38.4714 109.274 38.6514 109.365 38.8154C109.456 38.9749 109.588 39.1003 109.761 39.1914C109.939 39.2826 110.153 39.3281 110.404 39.3281C110.741 39.3281 111.035 39.2598 111.286 39.123C111.541 38.9818 111.742 38.8109 111.887 38.6104C112.033 38.4053 112.111 38.2116 112.12 38.0293L112.653 38.7607C112.598 38.9476 112.505 39.1481 112.373 39.3623C112.241 39.5765 112.067 39.7816 111.853 39.9775C111.644 40.1689 111.391 40.3262 111.094 40.4492C110.803 40.5723 110.466 40.6338 110.083 40.6338C109.6 40.6338 109.169 40.5381 108.791 40.3467C108.412 40.1507 108.116 39.8887 107.902 39.5605C107.688 39.2279 107.581 38.8519 107.581 38.4326C107.581 38.0407 107.654 37.6943 107.8 37.3936C107.95 37.0882 108.169 36.833 108.456 36.6279C108.747 36.4229 109.103 36.2679 109.522 36.1631C109.941 36.0537 110.42 35.999 110.958 35.999H112.25ZM117.121 34.6797V40.4971H115.474V33.1006H117.025L117.121 34.6797ZM116.827 36.5254L116.294 36.5186C116.299 35.9945 116.372 35.5137 116.513 35.0762C116.659 34.6387 116.859 34.2627 117.114 33.9482C117.374 33.6338 117.684 33.3923 118.044 33.2236C118.404 33.0505 118.805 32.9639 119.247 32.9639C119.603 32.9639 119.924 33.014 120.211 33.1143C120.503 33.21 120.751 33.3672 120.956 33.5859C121.166 33.8047 121.325 34.0895 121.435 34.4404C121.544 34.7868 121.599 35.2129 121.599 35.7188V40.4971H119.944V35.7119C119.944 35.3564 119.892 35.0762 119.787 34.8711C119.687 34.6615 119.539 34.5133 119.343 34.4268C119.151 34.3356 118.912 34.29 118.625 34.29C118.343 34.29 118.09 34.3493 117.866 34.4678C117.643 34.5863 117.454 34.748 117.299 34.9531C117.149 35.1582 117.032 35.3952 116.95 35.6641C116.868 35.9329 116.827 36.2201 116.827 36.5254Z" fill="#49454F"/>
</g>
<defs>
<filter id="filter0_dd_690_38952" x="0.92627" y="0.49707" width="158" height="72" filterUnits="userSpaceOnUse" color-interpolation-filters="sRGB">
<feFlood flood-opacity="0" result="BackgroundImageFix"/>
<feColorMatrix in="SourceAlpha" type="matrix" values="0 0 0 0 0 0 0 0 0 0 0 0 0 0 0 0 0 0 127 0" result="hardAlpha"/>
<feMorphology radius="1" operator="dilate" in="SourceAlpha" result="effect1_dropShadow_690_38952"/>
<feOffset dy="1"/>
<feGaussianBlur stdDeviation="1.5"/>
<feColorMatrix type="matrix" values="0 0 0 0 0 0 0 0 0 0 0 0 0 0 0 0 0 0 0.15 0"/>
<feBlend mode="normal" in2="BackgroundImageFix" result="effect1_dropShadow_690_38952"/>
<feColorMatrix in="SourceAlpha" type="matrix" values="0 0 0 0 0 0 0 0 0 0 0 0 0 0 0 0 0 0 127 0" result="hardAlpha"/>
<feOffset dy="1"/>
<feGaussianBlur stdDeviation="1"/>
<feColorMatrix type="matrix" values="0 0 0 0 0 0 0 0 0 0 0 0 0 0 0 0 0 0 0.3 0"/>
<feBlend mode="normal" in2="effect1_dropShadow_690_38952" result="effect2_dropShadow_690_38952"/>
<feBlend mode="normal" in="SourceGraphic" in2="effect2_dropShadow_690_38952" result="shape"/>
</filter>
<clipPath id="clip0_690_38952">
<rect width="18" height="18" fill="white" transform="translate(28.9263 26.4971)"/>
</clipPath>
</defs>
</svg>
