<svg width="151" height="73" viewBox="0 0 151 73" fill="none" xmlns="http://www.w3.org/2000/svg">
<g filter="url(#filter0_dd_690_38930)">
<rect x="4.92627" y="3.49707" width="142" height="64" rx="8" fill="#F2F2F2"/>
<g clip-path="url(#clip0_690_38930)">
<path fill-rule="evenodd" clip-rule="evenodd" d="M30.2715 32.593H29.8926C29.6366 32.5942 29.3915 32.7138 29.2105 32.9255C29.0295 33.1373 28.9273 33.4241 28.9263 33.7236V36.2729C28.9287 36.3719 28.9635 36.4661 29.0233 36.5362C29.0832 36.6062 29.1637 36.6468 29.2484 36.6497C30.0266 36.6497 30.6694 37.4019 30.6694 38.3345C30.6694 39.2671 30.0442 40.0189 29.2484 40.0189C29.1637 40.0218 29.0832 40.0624 29.0233 40.1324C28.9635 40.2025 28.9287 40.2967 28.9263 40.3957V43.3647C28.9273 43.6641 29.0295 43.951 29.2105 44.1627C29.3915 44.3745 29.6366 44.494 29.8926 44.4952H45.96C46.2157 44.494 46.4606 44.3747 46.6416 44.1633C46.8225 43.9519 46.9248 43.6654 46.9263 43.3662V40.4183C46.9238 40.3193 46.8891 40.2251 46.8292 40.155C46.7693 40.085 46.6888 40.0443 46.6042 40.0414C45.826 40.0414 45.1831 39.2893 45.1831 38.3567C45.1831 37.424 45.8084 36.6719 46.6042 36.6719C46.6888 36.669 46.7693 36.6284 46.8292 36.5583C46.8891 36.4883 46.9238 36.3941 46.9263 36.295V33.7461C46.9252 33.4467 46.8231 33.1598 46.6421 32.9481C46.4611 32.7363 46.2159 32.6168 45.96 32.6156H44.7473L43.1368 27.2505C43.0525 26.9725 42.8779 26.7445 42.651 26.6159C42.424 26.4872 42.1629 26.4684 41.9242 26.5633C40.9578 26.9402 39.0631 27.6717 37.8302 28.1816C37.8112 28.1816 37.7923 28.2037 37.7733 28.2037L36.6 26.8277C36.5106 26.7224 36.4044 26.6388 36.2873 26.5818C36.1702 26.5247 36.0447 26.4953 35.9178 26.4952C35.7908 26.4932 35.6647 26.5216 35.5474 26.5788C35.43 26.636 35.324 26.7207 35.2357 26.8277C34.0421 28.1816 30.9157 31.8615 30.2715 32.593ZM42.4357 33.3451V34.3649C42.4386 34.4163 42.4324 34.4679 42.4175 34.5164C42.4027 34.5649 42.3795 34.6094 42.3493 34.647C42.3192 34.6846 42.2828 34.7146 42.2424 34.7351C42.202 34.7555 42.1584 34.7661 42.1143 34.7661C42.0703 34.7661 42.0267 34.7555 41.9862 34.7351C41.9458 34.7146 41.9094 34.6846 41.8793 34.647C41.8492 34.6094 41.826 34.5649 41.8111 34.5164C41.7962 34.4679 41.79 34.4163 41.7929 34.3649V33.3467H29.8926C29.8077 33.3492 29.7269 33.3897 29.6667 33.4598C29.6065 33.5299 29.5716 33.6243 29.5691 33.7236V35.9404C30.5544 36.1177 31.3123 37.1374 31.3123 38.3551C31.3123 39.5727 30.5544 40.5941 29.5691 40.7698V43.4078C29.5716 43.5068 29.6063 43.601 29.6662 43.6711C29.7261 43.7411 29.8066 43.7818 29.8912 43.7847H41.7915V43.4078C41.7887 43.3564 41.7949 43.3048 41.8097 43.2563C41.8246 43.2077 41.8478 43.1633 41.8779 43.1257C41.9081 43.0881 41.9445 43.0581 41.9849 43.0376C42.0253 43.0171 42.0689 43.0065 42.113 43.0065C42.157 43.0065 42.2006 43.0171 42.241 43.0376C42.2815 43.0581 42.3179 43.0881 42.348 43.1257C42.3781 43.1633 42.4013 43.2077 42.4162 43.2563C42.4311 43.3048 42.4372 43.3564 42.4344 43.4078V43.7847H45.9789C46.0635 43.7818 46.1441 43.7411 46.2039 43.6711C46.2638 43.601 46.2985 43.5068 46.301 43.4078V40.773C45.3157 40.5956 44.5578 39.5743 44.5578 38.3567C44.5578 37.139 45.3157 36.1177 46.301 35.9419V33.7251C46.2985 33.6261 46.2638 33.5319 46.2039 33.4619C46.1441 33.3918 46.0635 33.3512 45.9789 33.3483L42.4357 33.3451ZM36.8097 40.0636C36.5548 40.063 36.3054 40.1509 36.0932 40.3161C35.8809 40.4814 35.7154 40.7166 35.6175 40.992C35.5195 41.2674 35.4936 41.5705 35.543 41.8632C35.5924 42.1558 35.7149 42.4247 35.895 42.6358C36.0751 42.8469 36.3047 42.9908 36.5547 43.0492C36.8047 43.1077 37.0639 43.078 37.2995 42.964C37.535 42.85 37.7364 42.6568 37.8781 42.4088C38.0198 42.1609 38.0954 41.8693 38.0954 41.571C38.0778 40.7286 37.5094 40.0636 36.8097 40.0636ZM41.7929 40.773V42.2804C41.7982 42.3759 41.8344 42.4655 41.8941 42.531C41.9538 42.5964 42.0325 42.6328 42.1143 42.6328C42.1961 42.6328 42.2749 42.5964 42.3346 42.531C42.3943 42.4655 42.4304 42.3759 42.4357 42.2804V40.773C42.4333 40.6739 42.3985 40.5798 42.3387 40.5097C42.2788 40.4396 42.1983 40.399 42.1136 40.3961C42.0712 40.3957 42.0292 40.4052 41.9899 40.424C41.9507 40.4427 41.9151 40.4705 41.8851 40.5056C41.8551 40.5406 41.8314 40.5824 41.8153 40.6283C41.7993 40.6742 41.7912 40.7234 41.7915 40.773H41.7929ZM36.8097 40.8173C36.9369 40.8173 37.0612 40.8614 37.1669 40.9441C37.2726 41.0267 37.355 41.1442 37.4037 41.2816C37.4523 41.4191 37.465 41.5703 37.4402 41.7162C37.4154 41.8621 37.3542 41.9961 37.2643 42.1013C37.1744 42.2065 37.0598 42.2781 36.9351 42.3071C36.8104 42.3361 36.6812 42.3212 36.5637 42.2643C36.4463 42.2074 36.3459 42.111 36.2752 41.9873C36.2046 41.8636 36.1669 41.7182 36.1669 41.5694C36.1663 41.4705 36.1826 41.3724 36.2147 41.2809C36.2468 41.1893 36.2942 41.1062 36.354 41.0362C36.4138 40.9662 36.4848 40.9109 36.5631 40.8733C36.6413 40.8357 36.7252 40.8167 36.8097 40.8173ZM34.8 41.4159L38.3431 36.162C38.3961 36.0827 38.4199 35.9819 38.4093 35.882C38.3988 35.7821 38.3548 35.6912 38.2869 35.6292C38.2191 35.5673 38.133 35.5394 38.0476 35.5517C37.9622 35.564 37.8845 35.6156 37.8315 35.6949L34.306 40.9503C34.2784 40.9889 34.2579 41.0337 34.2458 41.082C34.2337 41.1302 34.2302 41.1809 34.2355 41.2308C34.2409 41.2807 34.2549 41.3288 34.2768 41.3721C34.2987 41.4153 34.328 41.4529 34.3628 41.4824C34.4954 41.615 34.6849 41.5932 34.7986 41.4159H34.8ZM41.7915 38.135V39.6424C41.7968 39.7379 41.833 39.8275 41.8927 39.893C41.9524 39.9584 42.0311 39.9949 42.113 39.9949C42.1948 39.9949 42.2735 39.9584 42.3332 39.893C42.3929 39.8275 42.4291 39.7379 42.4344 39.6424V38.135C42.4319 38.036 42.3972 37.9418 42.3373 37.8717C42.2774 37.8017 42.1969 37.761 42.1123 37.7581C42.07 37.7579 42.0281 37.7675 41.989 37.7864C41.9499 37.8053 41.9144 37.8331 41.8846 37.8681C41.8548 37.9032 41.8312 37.9448 41.8152 37.9906C41.7992 38.0365 41.7912 38.0855 41.7915 38.135ZM41.7915 35.497V37.0044C41.7887 37.0559 41.7949 37.1074 41.8097 37.156C41.8246 37.2045 41.8478 37.2489 41.8779 37.2865C41.9081 37.3242 41.9445 37.3541 41.9849 37.3746C42.0253 37.3951 42.0689 37.4057 42.113 37.4057C42.157 37.4057 42.2006 37.3951 42.241 37.3746C42.2815 37.3541 42.3179 37.3242 42.348 37.2865C42.3781 37.2489 42.4013 37.2045 42.4162 37.156C42.4311 37.1074 42.4372 37.0559 42.4344 37.0044V35.497C42.4291 35.4015 42.3929 35.3119 42.3332 35.2464C42.2735 35.181 42.1948 35.1446 42.113 35.1446C42.0311 35.1446 41.9524 35.181 41.8927 35.2464C41.833 35.3119 41.7968 35.4015 41.7915 35.497ZM35.8421 34.0323C35.5872 34.0323 35.3381 34.1207 35.1263 34.2864C34.9144 34.452 34.7492 34.6874 34.6517 34.9629C34.5542 35.2383 34.5287 35.5414 34.5784 35.8338C34.6281 36.1262 34.7508 36.3948 34.931 36.6057C35.1112 36.8165 35.3408 36.96 35.5907 37.0182C35.8406 37.0764 36.0997 37.0465 36.3351 36.9324C36.5705 36.8183 36.7718 36.6251 36.9133 36.3772C37.0549 36.1293 37.1305 35.8379 37.1305 35.5398C37.1301 35.1401 36.9943 34.7569 36.7527 34.4743C36.5112 34.1917 36.1837 34.0328 35.8421 34.0323ZM35.8421 34.7845C35.9692 34.7845 36.0935 34.8286 36.1992 34.9112C36.3049 34.9939 36.3873 35.1113 36.436 35.2488C36.4846 35.3862 36.4974 35.5374 36.4726 35.6833C36.4478 35.8292 36.3865 35.9632 36.2966 36.0684C36.2067 36.1736 36.0922 36.2452 35.9675 36.2743C35.8428 36.3033 35.7135 36.2884 35.596 36.2315C35.4786 36.1745 35.3782 36.0781 35.3075 35.9544C35.2369 35.8308 35.1992 35.6853 35.1992 35.5366C35.202 35.3384 35.2707 35.1494 35.3908 35.0095C35.5108 34.8697 35.6727 34.7901 35.8421 34.7876V34.7845ZM40.6357 32.5898L36.1263 27.3392C36.0967 27.3037 36.0614 27.2756 36.0223 27.2566C35.9832 27.2375 35.9412 27.2279 35.8989 27.2283C35.8141 27.2318 35.7333 27.2712 35.6715 27.3392C34.6673 28.5141 32.28 31.3294 31.181 32.593L40.6357 32.5898ZM44.0652 32.5898C43.7431 31.5479 42.9284 28.7769 42.5305 27.469C42.5171 27.4237 42.4961 27.3819 42.4687 27.3462C42.4414 27.3104 42.4082 27.2813 42.3712 27.2607C42.3342 27.2401 42.294 27.2283 42.253 27.226C42.2121 27.2237 42.1711 27.231 42.1326 27.2473C41.2231 27.6036 39.4989 28.2671 38.2863 28.7769L41.5642 32.612H44.0652V32.5898Z" fill="#09A387"/>
</g>
<path d="M59.3927 38.6787L62.0108 30.5439H63.9044L60.336 40.4971H59.0577L59.3927 38.6787ZM56.9728 30.5439L59.5704 38.6787L59.9259 40.4971H58.6407L55.086 30.5439H56.9728ZM64.3257 36.8809V36.7236C64.3257 36.1904 64.4032 35.696 64.5581 35.2402C64.7131 34.7799 64.9364 34.3812 65.228 34.0439C65.5243 33.7021 65.8843 33.4378 66.3081 33.251C66.7365 33.0596 67.2196 32.9639 67.7573 32.9639C68.2996 32.9639 68.7827 33.0596 69.2065 33.251C69.6349 33.4378 69.9972 33.7021 70.2935 34.0439C70.5897 34.3812 70.8153 34.7799 70.9702 35.2402C71.1252 35.696 71.2026 36.1904 71.2026 36.7236V36.8809C71.2026 37.4141 71.1252 37.9085 70.9702 38.3643C70.8153 38.82 70.5897 39.2188 70.2935 39.5605C69.9972 39.8978 69.6372 40.1621 69.2134 40.3535C68.7896 40.5404 68.3088 40.6338 67.771 40.6338C67.2287 40.6338 66.7433 40.5404 66.3149 40.3535C65.8911 40.1621 65.5311 39.8978 65.2349 39.5605C64.9386 39.2188 64.7131 38.82 64.5581 38.3643C64.4032 37.9085 64.3257 37.4141 64.3257 36.8809ZM65.9731 36.7236V36.8809C65.9731 37.2135 66.0073 37.528 66.0757 37.8242C66.144 38.1204 66.2511 38.3802 66.397 38.6035C66.5428 38.8268 66.7297 39.0023 66.9575 39.1299C67.1854 39.2575 67.4565 39.3213 67.771 39.3213C68.0763 39.3213 68.3407 39.2575 68.564 39.1299C68.7918 39.0023 68.9787 38.8268 69.1245 38.6035C69.2703 38.3802 69.3774 38.1204 69.4458 37.8242C69.5187 37.528 69.5552 37.2135 69.5552 36.8809V36.7236C69.5552 36.3955 69.5187 36.0856 69.4458 35.7939C69.3774 35.4977 69.2681 35.2357 69.1177 35.0078C68.9718 34.7799 68.785 34.6022 68.5571 34.4746C68.3338 34.3424 68.0672 34.2764 67.7573 34.2764C67.4474 34.2764 67.1785 34.3424 66.9507 34.4746C66.7274 34.6022 66.5428 34.7799 66.397 35.0078C66.2511 35.2357 66.144 35.4977 66.0757 35.7939C66.0073 36.0856 65.9731 36.3955 65.9731 36.7236ZM77.1337 38.7539V33.1006H78.788V40.4971H77.2294L77.1337 38.7539ZM77.3661 37.2158L77.9198 37.2021C77.9198 37.6989 77.8651 38.1569 77.7558 38.5762C77.6464 38.9909 77.4778 39.3532 77.2499 39.6631C77.022 39.9684 76.7304 40.2077 76.3749 40.3809C76.0194 40.5495 75.5933 40.6338 75.0966 40.6338C74.7366 40.6338 74.4062 40.5814 74.1054 40.4766C73.8046 40.3717 73.5448 40.21 73.3261 39.9912C73.1119 39.7725 72.9455 39.4876 72.8271 39.1367C72.7086 38.7858 72.6493 38.3665 72.6493 37.8789V33.1006H74.2968V37.8926C74.2968 38.1615 74.3287 38.387 74.3925 38.5693C74.4563 38.7471 74.5429 38.8906 74.6522 39C74.7616 39.1094 74.8892 39.1868 75.0351 39.2324C75.1809 39.278 75.3358 39.3008 75.4999 39.3008C75.9693 39.3008 76.3384 39.2096 76.6073 39.0273C76.8808 38.8405 77.0744 38.5898 77.1884 38.2754C77.3069 37.9609 77.3661 37.6077 77.3661 37.2158ZM83.5979 39.3213C83.8668 39.3213 84.1084 39.2689 84.3226 39.1641C84.5413 39.0547 84.7168 38.9043 84.8489 38.7129C84.9856 38.5215 85.0608 38.3005 85.0745 38.0498H86.6263C86.6172 38.5283 86.4759 38.9635 86.2024 39.3555C85.929 39.7474 85.5667 40.0596 85.1155 40.292C84.6644 40.5199 84.1653 40.6338 83.6185 40.6338C83.0534 40.6338 82.5612 40.5381 82.1419 40.3467C81.7226 40.1507 81.374 39.8818 81.096 39.54C80.818 39.1982 80.6084 38.804 80.4671 38.3574C80.3304 37.9108 80.262 37.4323 80.262 36.9219V36.6826C80.262 36.1722 80.3304 35.6937 80.4671 35.2471C80.6084 34.7959 80.818 34.3994 81.096 34.0576C81.374 33.7158 81.7226 33.4492 82.1419 33.2578C82.5612 33.0618 83.0511 32.9639 83.6116 32.9639C84.2041 32.9639 84.7236 33.0824 85.1702 33.3193C85.6168 33.5518 85.9677 33.8776 86.2229 34.2969C86.4827 34.7116 86.6172 35.1947 86.6263 35.7461H85.0745C85.0608 35.4727 84.9925 35.2266 84.8694 35.0078C84.7509 34.7845 84.5823 34.6068 84.3636 34.4746C84.1494 34.3424 83.8919 34.2764 83.5911 34.2764C83.2584 34.2764 82.9827 34.3447 82.764 34.4814C82.5452 34.6136 82.3743 34.7959 82.2513 35.0283C82.1282 35.2562 82.0394 35.5137 81.9847 35.8008C81.9345 36.0833 81.9095 36.3773 81.9095 36.6826V36.9219C81.9095 37.2272 81.9345 37.5234 81.9847 37.8105C82.0348 38.0977 82.1214 38.3551 82.2444 38.583C82.372 38.8063 82.5452 38.9863 82.764 39.123C82.9827 39.2552 83.2607 39.3213 83.5979 39.3213ZM89.6179 29.9971V40.4971H87.9772V29.9971H89.6179ZM89.3308 36.5254L88.7976 36.5186C88.8021 36.0081 88.8728 35.5365 89.0095 35.1035C89.1508 34.6706 89.3467 34.2946 89.5974 33.9756C89.8526 33.652 90.1579 33.4036 90.5134 33.2305C90.8689 33.0527 91.2631 32.9639 91.696 32.9639C92.0606 32.9639 92.3887 33.014 92.6804 33.1143C92.9766 33.2145 93.2318 33.3763 93.446 33.5996C93.6602 33.8184 93.822 34.1055 93.9314 34.4609C94.0453 34.8118 94.1022 35.2402 94.1022 35.7461V40.4971H92.448V35.7324C92.448 35.377 92.3955 35.0944 92.2907 34.8848C92.1905 34.6751 92.0424 34.5247 91.8464 34.4336C91.6504 34.3379 91.4112 34.29 91.1286 34.29C90.8324 34.29 90.5703 34.3493 90.3425 34.4678C90.1192 34.5863 89.9323 34.748 89.7819 34.9531C89.6315 35.1582 89.5176 35.3952 89.4401 35.6641C89.3672 35.9329 89.3308 36.2201 89.3308 36.5254ZM99.131 40.6338C98.5841 40.6338 98.0896 40.5449 97.6476 40.3672C97.2101 40.1849 96.8364 39.932 96.5265 39.6084C96.2211 39.2848 95.9864 38.9043 95.8224 38.4668C95.6583 38.0293 95.5763 37.5576 95.5763 37.0518V36.7783C95.5763 36.1995 95.6606 35.6755 95.8292 35.2061C95.9978 34.7367 96.2325 34.3356 96.5333 34.0029C96.8341 33.6657 97.1896 33.4082 97.5997 33.2305C98.0099 33.0527 98.4542 32.9639 98.9327 32.9639C99.4614 32.9639 99.9239 33.0527 100.32 33.2305C100.717 33.4082 101.045 33.6589 101.305 33.9824C101.569 34.3014 101.765 34.682 101.893 35.124C102.025 35.5661 102.091 36.0537 102.091 36.5869V37.291H96.3761V36.1084H100.464V35.9785C100.455 35.6823 100.396 35.4043 100.286 35.1445C100.181 34.8848 100.02 34.6751 99.8009 34.5156C99.5821 34.3561 99.2905 34.2764 98.9259 34.2764C98.6524 34.2764 98.4086 34.3356 98.1944 34.4541C97.9848 34.568 97.8093 34.7344 97.6681 34.9531C97.5268 35.1719 97.4174 35.4362 97.3399 35.7461C97.267 36.0514 97.2306 36.3955 97.2306 36.7783V37.0518C97.2306 37.3753 97.2739 37.6761 97.3605 37.9541C97.4516 38.2275 97.5838 38.4668 97.7569 38.6719C97.9301 38.877 98.1397 39.0387 98.3858 39.1572C98.6319 39.2712 98.9122 39.3281 99.2267 39.3281C99.6231 39.3281 99.9763 39.2484 100.286 39.0889C100.596 38.9294 100.865 38.7038 101.093 38.4121L101.961 39.2529C101.802 39.4854 101.594 39.7087 101.339 39.9229C101.084 40.1325 100.772 40.3034 100.402 40.4355C100.038 40.5677 99.614 40.6338 99.131 40.6338ZM105.13 34.5088V40.4971H103.483V33.1006H105.055L105.13 34.5088ZM107.393 33.0527L107.379 34.584C107.279 34.5658 107.17 34.5521 107.051 34.543C106.937 34.5339 106.823 34.5293 106.709 34.5293C106.427 34.5293 106.179 34.5703 105.964 34.6523C105.75 34.7298 105.57 34.8438 105.424 34.9941C105.283 35.14 105.174 35.3177 105.096 35.5273C105.019 35.737 104.973 35.9717 104.959 36.2314L104.583 36.2588C104.583 35.7939 104.629 35.3633 104.72 34.9668C104.811 34.5703 104.948 34.2217 105.13 33.9209C105.317 33.6201 105.55 33.3854 105.828 33.2168C106.11 33.0482 106.436 32.9639 106.805 32.9639C106.905 32.9639 107.013 32.973 107.126 32.9912C107.245 33.0094 107.334 33.0299 107.393 33.0527ZM112.675 38.4941C112.675 38.3301 112.634 38.182 112.552 38.0498C112.47 37.9131 112.312 37.79 112.08 37.6807C111.852 37.5713 111.515 37.471 111.068 37.3799C110.676 37.2933 110.316 37.1908 109.988 37.0723C109.665 36.9492 109.387 36.8011 109.154 36.6279C108.922 36.4548 108.742 36.2497 108.614 36.0127C108.487 35.7757 108.423 35.5023 108.423 35.1924C108.423 34.8916 108.489 34.6068 108.621 34.3379C108.753 34.069 108.942 33.832 109.188 33.627C109.434 33.4219 109.733 33.2601 110.084 33.1416C110.439 33.0231 110.836 32.9639 111.273 32.9639C111.893 32.9639 112.424 33.0687 112.866 33.2783C113.313 33.4834 113.655 33.7637 113.892 34.1191C114.128 34.4701 114.247 34.8665 114.247 35.3086H112.6C112.6 35.1126 112.549 34.9303 112.449 34.7617C112.353 34.5885 112.208 34.4495 112.012 34.3447C111.816 34.2354 111.57 34.1807 111.273 34.1807C110.991 34.1807 110.756 34.2262 110.569 34.3174C110.387 34.404 110.25 34.5179 110.159 34.6592C110.072 34.8005 110.029 34.9554 110.029 35.124C110.029 35.2471 110.052 35.3587 110.098 35.459C110.148 35.5547 110.23 35.6436 110.344 35.7256C110.458 35.8031 110.613 35.876 110.808 35.9443C111.009 36.0127 111.26 36.0788 111.56 36.1426C112.126 36.2611 112.611 36.4137 113.017 36.6006C113.427 36.7829 113.741 37.0199 113.96 37.3115C114.179 37.5986 114.288 37.9632 114.288 38.4053C114.288 38.7334 114.217 39.0342 114.076 39.3076C113.939 39.5765 113.739 39.8112 113.475 40.0117C113.21 40.2077 112.893 40.3604 112.524 40.4697C112.16 40.5791 111.75 40.6338 111.294 40.6338C110.624 40.6338 110.057 40.5153 109.592 40.2783C109.127 40.0368 108.774 39.7292 108.532 39.3555C108.295 38.9772 108.177 38.5853 108.177 38.1797H109.769C109.788 38.485 109.872 38.7288 110.022 38.9111C110.177 39.0889 110.369 39.2188 110.597 39.3008C110.829 39.3783 111.068 39.417 111.314 39.417C111.611 39.417 111.859 39.3783 112.059 39.3008C112.26 39.2188 112.413 39.1094 112.517 38.9727C112.622 38.8314 112.675 38.6719 112.675 38.4941Z" fill="#49454F"/>
</g>
<defs>
<filter id="filter0_dd_690_38930" x="0.92627" y="0.49707" width="150" height="72" filterUnits="userSpaceOnUse" color-interpolation-filters="sRGB">
<feFlood flood-opacity="0" result="BackgroundImageFix"/>
<feColorMatrix in="SourceAlpha" type="matrix" values="0 0 0 0 0 0 0 0 0 0 0 0 0 0 0 0 0 0 127 0" result="hardAlpha"/>
<feMorphology radius="1" operator="dilate" in="SourceAlpha" result="effect1_dropShadow_690_38930"/>
<feOffset dy="1"/>
<feGaussianBlur stdDeviation="1.5"/>
<feColorMatrix type="matrix" values="0 0 0 0 0 0 0 0 0 0 0 0 0 0 0 0 0 0 0.15 0"/>
<feBlend mode="normal" in2="BackgroundImageFix" result="effect1_dropShadow_690_38930"/>
<feColorMatrix in="SourceAlpha" type="matrix" values="0 0 0 0 0 0 0 0 0 0 0 0 0 0 0 0 0 0 127 0" result="hardAlpha"/>
<feOffset dy="1"/>
<feGaussianBlur stdDeviation="1"/>
<feColorMatrix type="matrix" values="0 0 0 0 0 0 0 0 0 0 0 0 0 0 0 0 0 0 0.3 0"/>
<feBlend mode="normal" in2="effect1_dropShadow_690_38930" result="effect2_dropShadow_690_38930"/>
<feBlend mode="normal" in="SourceGraphic" in2="effect2_dropShadow_690_38930" result="shape"/>
</filter>
<clipPath id="clip0_690_38930">
<rect width="18" height="18" fill="white" transform="translate(28.9263 26.4971)"/>
</clipPath>
</defs>
</svg>
