<svg width="26" height="26" viewBox="0 0 26 26" fill="none" xmlns="http://www.w3.org/2000/svg">
<path d="M10.1513 1.85H4.4975C3.92219 1.85 3.37043 2.07854 2.96362 2.48535C2.55681 2.89216 2.32827 3.44391 2.32827 4.01923V9.67308C2.32827 10.2484 2.55681 10.8001 2.96362 11.207C3.37043 11.6138 3.92219 11.8423 4.4975 11.8423H10.1513C10.7267 11.8423 11.2784 11.6138 11.6852 11.207C12.092 10.8001 12.3206 10.2484 12.3206 9.67308V4.01923C12.3206 3.44392 12.092 2.89216 11.6852 2.48535C11.2784 2.07854 10.7267 1.85 10.1513 1.85ZM11.2129 9.67308C11.2129 9.95461 11.101 10.2246 10.902 10.4237C10.7029 10.6228 10.4329 10.7346 10.1513 10.7346H4.4975C4.21596 10.7346 3.94596 10.6228 3.74688 10.4237C3.5478 10.2246 3.43596 9.95461 3.43596 9.67308V4.01923C3.43596 3.73769 3.5478 3.46769 3.74688 3.26861C3.94596 3.06953 4.21596 2.95769 4.4975 2.95769H10.1513C10.4329 2.95769 10.7029 3.06953 10.902 3.26861C11.101 3.46769 11.2129 3.73769 11.2129 4.01923V9.67308ZM21.459 1.85H15.8052C15.2299 1.85 14.6781 2.07854 14.2713 2.48535C13.8645 2.89216 13.636 3.44391 13.636 4.01923V9.67308C13.636 10.2484 13.8645 10.8001 14.2713 11.207C14.6781 11.6138 15.2299 11.8423 15.8052 11.8423H21.459C22.0344 11.8423 22.5861 11.6138 22.9929 11.207C23.3997 10.8001 23.6283 10.2484 23.6283 9.67308V4.01923C23.6283 3.44391 23.3997 2.89216 22.9929 2.48535C22.5861 2.07854 22.0344 1.85 21.459 1.85ZM22.5206 9.67308C22.5206 9.95461 22.4087 10.2246 22.2097 10.4237C22.0106 10.6228 21.7406 10.7346 21.459 10.7346H15.8052C15.5237 10.7346 15.2536 10.6228 15.0546 10.4237C14.8555 10.2246 14.7437 9.95461 14.7437 9.67308V4.01923C14.7437 3.73769 14.8555 3.46769 15.0546 3.26861C15.2536 3.06953 15.5237 2.95769 15.8052 2.95769H21.459C21.7406 2.95769 22.0106 3.06953 22.2097 3.26861C22.4087 3.46769 22.5206 3.73769 22.5206 4.01923V9.67308ZM10.1513 13.1577H4.4975C3.92219 13.1577 3.37043 13.3862 2.96362 13.793C2.55681 14.1999 2.32827 14.7516 2.32827 15.3269V20.9808C2.32827 21.5561 2.55681 22.1078 2.96362 22.5146C3.37043 22.9215 3.92219 23.15 4.4975 23.15H10.1513C10.7267 23.15 11.2784 22.9215 11.6852 22.5146C12.092 22.1078 12.3206 21.5561 12.3206 20.9808V15.3269C12.3206 14.7516 12.092 14.1999 11.6852 13.793C11.2784 13.3862 10.7267 13.1577 10.1513 13.1577ZM11.2129 20.9808C11.2129 21.2623 11.101 21.5323 10.902 21.7314C10.7029 21.9305 10.4329 22.0423 10.1513 22.0423H4.4975C4.21597 22.0423 3.94596 21.9305 3.74688 21.7314C3.5478 21.5323 3.43596 21.2623 3.43596 20.9808V15.3269C3.43596 15.0454 3.5478 14.7754 3.74688 14.5763C3.94596 14.3772 4.21596 14.2654 4.4975 14.2654H10.1513C10.4329 14.2654 10.7029 14.3772 10.902 14.5763C11.101 14.7754 11.2129 15.0454 11.2129 15.3269V20.9808ZM18.6321 13.1577C17.644 13.1577 16.678 13.4507 15.8564 13.9997C15.0348 14.5487 14.3944 15.329 14.0163 16.2419C13.6381 17.1548 13.5392 18.1594 13.732 19.1285C13.9247 20.0977 14.4006 20.9879 15.0993 21.6867C15.798 22.3854 16.6883 22.8612 17.6574 23.054C18.6266 23.2468 19.6311 23.1478 20.5441 22.7697C21.457 22.3915 22.2373 21.7512 22.7863 20.9296C23.3352 20.1079 23.6283 19.142 23.6283 18.1538C23.6283 16.8288 23.1019 15.558 22.1649 14.621C21.228 13.6841 19.9572 13.1577 18.6321 13.1577ZM18.6321 22.0423C17.8631 22.0423 17.1113 21.8143 16.4718 21.387C15.8323 20.9597 15.334 20.3524 15.0396 19.6419C14.7453 18.9314 14.6683 18.1495 14.8184 17.3952C14.9684 16.641 15.3387 15.9481 15.8826 15.4043C16.4264 14.8605 17.1192 14.4901 17.8735 14.3401C18.6278 14.1901 19.4096 14.2671 20.1202 14.5614C20.8307 14.8557 21.438 15.3541 21.8653 15.9935C22.2925 16.633 22.5206 17.3848 22.5206 18.1538C22.5206 19.1851 22.1109 20.1742 21.3817 20.9034C20.6524 21.6326 19.6634 22.0423 18.6321 22.0423Z" fill="#1C1C1C" stroke="#1C1C1C" stroke-width="0.3"/>
</svg>
