<svg width="217" height="69" viewBox="0 0 217 69" fill="none" xmlns="http://www.w3.org/2000/svg">
<g filter="url(#filter0_dd_690_38911)">
<rect x="4.92615" y="2.49707" width="208" height="64" rx="8" fill="#F2F2F2"/>
<g clip-path="url(#clip0_690_38911)">
<path d="M42.6735 25.582H31.5033C31.207 25.582 30.9229 25.7386 30.7134 26.0172C30.504 26.2959 30.3863 26.6738 30.3863 27.0679V38.2117H29.8278C29.6057 38.2122 29.3928 38.3298 29.2357 38.5386C29.0787 38.7475 28.9903 39.0307 28.99 39.3261C28.9906 40.0155 29.1967 40.6764 29.5632 41.1639C29.9297 41.6514 30.4265 41.9256 30.9448 41.9264H41.3956C41.4697 41.9264 41.5407 41.8872 41.5931 41.8176C41.6455 41.7479 41.6749 41.6534 41.6749 41.5549C41.6749 41.4564 41.6455 41.3619 41.5931 41.2922C41.5407 41.2226 41.4697 41.1834 41.3956 41.1834H30.9448C30.5746 41.183 30.2196 40.9872 29.9578 40.639C29.6961 40.2907 29.5488 39.8186 29.5485 39.3261C29.5486 39.2277 29.578 39.1332 29.6304 39.0636C29.6827 38.994 29.7537 38.9548 29.8278 38.9547H31.7825V39.3261C31.7829 39.6216 31.8713 39.9047 32.0283 40.1136C32.1853 40.3225 32.3982 40.4401 32.6203 40.4405H41.2772C41.3513 40.4405 41.4223 40.4014 41.4747 40.3317C41.5271 40.2621 41.5565 40.1676 41.5565 40.0691C41.5565 39.9705 41.5271 39.8761 41.4747 39.8064C41.4223 39.7367 41.3513 39.6976 41.2772 39.6976H32.6203C32.5463 39.6975 32.4753 39.6583 32.4229 39.5887C32.3706 39.519 32.3411 39.4246 32.3411 39.3261V38.9547H41.2772C41.3513 38.9547 41.4223 38.9155 41.4747 38.8459C41.5271 38.7762 41.5565 38.6817 41.5565 38.5832C41.5565 38.4847 41.5271 38.3902 41.4747 38.3205C41.4223 38.2509 41.3513 38.2117 41.2772 38.2117H30.9448V27.0679C30.9449 26.8709 31.0038 26.6821 31.1085 26.5428C31.2133 26.4035 31.3552 26.3252 31.5033 26.325H42.6735C42.8216 26.3252 42.9635 26.4035 43.0682 26.5428C43.1729 26.6821 43.2318 26.8709 43.232 27.0679V33.0113C43.232 33.1098 43.2614 33.2043 43.3138 33.2739C43.3662 33.3436 43.4372 33.3827 43.5113 33.3827C43.5853 33.3827 43.6564 33.3436 43.7087 33.2739C43.7611 33.2043 43.7905 33.1098 43.7905 33.0113V27.0679C43.7905 26.6738 43.6728 26.2959 43.4634 26.0172C43.2539 25.7386 42.9698 25.582 42.6735 25.582Z" fill="#09A387" stroke="#09A387" stroke-width="0.198582" stroke-miterlimit="10"/>
<path d="M42.1149 27.4395H32.0617C31.9877 27.4395 31.9166 27.4786 31.8643 27.5483C31.8119 27.6179 31.7825 27.7124 31.7825 27.8109V36.726C31.7825 36.8245 31.8119 36.919 31.8643 36.9887C31.9166 37.0583 31.9877 37.0975 32.0617 37.0975H41.2772C41.3512 37.0975 41.4222 37.0583 41.4746 36.9887C41.527 36.919 41.5564 36.8245 41.5564 36.726C41.5564 36.6275 41.527 36.533 41.4746 36.4633C41.4222 36.3937 41.3512 36.3545 41.2772 36.3545H32.341V28.1824H41.8357V33.1689C41.8357 33.2674 41.8651 33.3619 41.9175 33.4316C41.9698 33.5012 42.0409 33.5403 42.1149 33.5403C42.189 33.5403 42.26 33.5012 42.3124 33.4316C42.3648 33.3619 42.3942 33.2674 42.3942 33.1689V27.8109C42.3942 27.7621 42.387 27.7138 42.373 27.6687C42.359 27.6236 42.3384 27.5826 42.3125 27.5481C42.2865 27.5136 42.2557 27.4863 42.2218 27.4676C42.1879 27.449 42.1516 27.4394 42.1149 27.4395Z" fill="#09A387" stroke="#09A387" stroke-width="0.198582" stroke-miterlimit="10"/>
<path d="M46.0245 33.7539H42.6735C42.4514 33.7544 42.2385 33.8719 42.0814 34.0808C41.9244 34.2897 41.836 34.5729 41.8357 34.8683V42.2975C41.836 42.593 41.9244 42.8761 42.0814 43.085C42.2385 43.2939 42.4514 43.4115 42.6735 43.4119H46.0245C46.2466 43.4115 46.4595 43.2939 46.6165 43.085C46.7736 42.8761 46.862 42.593 46.8623 42.2975V34.8683C46.862 34.5729 46.7736 34.2897 46.6165 34.0808C46.4595 33.8719 46.2466 33.7544 46.0245 33.7539ZM46.3038 42.2975C46.3038 42.3961 46.2744 42.4905 46.222 42.5602C46.1696 42.6299 46.0986 42.669 46.0245 42.669H42.6735C42.5994 42.669 42.5284 42.6299 42.476 42.5602C42.4236 42.4905 42.3942 42.3961 42.3942 42.2975V41.9261H45.7453C45.8193 41.9261 45.8904 41.8869 45.9427 41.8173C45.9951 41.7476 46.0245 41.6531 46.0245 41.5546C46.0245 41.4561 45.9951 41.3616 45.9427 41.292C45.8904 41.2223 45.8193 41.1832 45.7453 41.1832H42.3942V34.8683C42.3942 34.7698 42.4236 34.6753 42.476 34.6056C42.5284 34.536 42.5994 34.4968 42.6735 34.4968H46.0245C46.0986 34.4968 46.1696 34.536 46.222 34.6056C46.2744 34.6753 46.3038 34.7698 46.3038 34.8683V42.2975Z" fill="#09A387" stroke="#09A387" stroke-width="0.198582" stroke-miterlimit="10"/>
<path d="M44.6283 35.6117C44.6283 35.6852 44.612 35.757 44.5813 35.8181C44.5506 35.8792 44.507 35.9268 44.4559 35.9549C44.4049 35.983 44.3488 35.9904 44.2946 35.976C44.2404 35.9617 44.1907 35.9263 44.1516 35.8744C44.1126 35.8224 44.086 35.7562 44.0752 35.6842C44.0644 35.6121 44.0699 35.5374 44.0911 35.4695C44.1122 35.4017 44.148 35.3437 44.1939 35.3028C44.2399 35.262 44.2938 35.2402 44.3491 35.2402C44.4231 35.2402 44.4942 35.2794 44.5465 35.349C44.5989 35.4187 44.6283 35.5132 44.6283 35.6117Z" fill="#09A387"/>
<path d="M44.6283 35.6117C44.6283 35.6852 44.612 35.757 44.5813 35.8181C44.5506 35.8792 44.507 35.9268 44.4559 35.9549C44.4049 35.983 44.3488 35.9904 44.2946 35.976C44.2404 35.9617 44.1907 35.9263 44.1516 35.8744C44.1126 35.8224 44.086 35.7562 44.0752 35.6842C44.0644 35.6121 44.0699 35.5374 44.0911 35.4695C44.1122 35.4017 44.148 35.3437 44.1939 35.3028C44.2399 35.262 44.2938 35.2402 44.3491 35.2402C44.4231 35.2402 44.4942 35.2794 44.5465 35.349C44.5989 35.4187 44.6283 35.5132 44.6283 35.6117" stroke="#09A387" stroke-width="0.198582" stroke-miterlimit="10"/>
</g>
<path d="M62.865 38.1367V39.4971H57.5808V38.1367H62.865ZM58.0662 29.5439V39.4971H56.3504V29.5439H58.0662ZM62.1746 33.7002V35.04H57.5808V33.7002H62.1746ZM62.8308 29.5439V30.9111H57.5808V29.5439H62.8308ZM65.966 28.9971V39.4971H64.3117V28.9971H65.966ZM71.1314 39.6338C70.5845 39.6338 70.0901 39.5449 69.648 39.3672C69.2105 39.1849 68.8368 38.932 68.5269 38.6084C68.2216 38.2848 67.9869 37.9043 67.8228 37.4668C67.6588 37.0293 67.5767 36.5576 67.5767 36.0518V35.7783C67.5767 35.1995 67.661 34.6755 67.8297 34.2061C67.9983 33.7367 68.233 33.3356 68.5338 33.0029C68.8345 32.6657 69.19 32.4082 69.6002 32.2305C70.0103 32.0527 70.4547 31.9639 70.9332 31.9639C71.4618 31.9639 71.9244 32.0527 72.3209 32.2305C72.7174 32.4082 73.0455 32.6589 73.3052 32.9824C73.5696 33.3014 73.7655 33.682 73.8931 34.124C74.0253 34.5661 74.0914 35.0537 74.0914 35.5869V36.291H68.3765V35.1084H72.4644V34.9785C72.4553 34.6823 72.3961 34.4043 72.2867 34.1445C72.1819 33.8848 72.0201 33.6751 71.8013 33.5156C71.5826 33.3561 71.2909 33.2764 70.9263 33.2764C70.6529 33.2764 70.4091 33.3356 70.1949 33.4541C69.9853 33.568 69.8098 33.7344 69.6685 33.9531C69.5273 34.1719 69.4179 34.4362 69.3404 34.7461C69.2675 35.0514 69.231 35.3955 69.231 35.7783V36.0518C69.231 36.3753 69.2743 36.6761 69.3609 36.9541C69.4521 37.2275 69.5842 37.4668 69.7574 37.6719C69.9306 37.877 70.1402 38.0387 70.3863 38.1572C70.6324 38.2712 70.9127 38.3281 71.2271 38.3281C71.6236 38.3281 71.9768 38.2484 72.2867 38.0889C72.5966 37.9294 72.8655 37.7038 73.0933 37.4121L73.9615 38.2529C73.802 38.4854 73.5946 38.7087 73.3394 38.9229C73.0842 39.1325 72.772 39.3034 72.4029 39.4355C72.0383 39.5677 71.6145 39.6338 71.1314 39.6338ZM77.1377 28.9971V39.4971H75.4834V28.9971H77.1377ZM81.7314 32.1006L78.5117 35.6689L76.748 37.4736L76.3174 36.0791L77.6504 34.4316L79.7422 32.1006H81.7314ZM80.0976 39.4971L77.6982 36.0244L78.7373 34.8691L82.0049 39.4971H80.0976ZM86.2679 32.1006V33.3037H82.098V32.1006H86.2679ZM83.3011 30.2891H84.9486V37.4531C84.9486 37.681 84.9805 37.8564 85.0443 37.9795C85.1127 38.098 85.2061 38.1777 85.3246 38.2188C85.4431 38.2598 85.5821 38.2803 85.7416 38.2803C85.8555 38.2803 85.9649 38.2734 86.0697 38.2598C86.1745 38.2461 86.2588 38.2324 86.3226 38.2188L86.3295 39.4766C86.1927 39.5176 86.0332 39.554 85.851 39.5859C85.6732 39.6178 85.4681 39.6338 85.2357 39.6338C84.8575 39.6338 84.5225 39.5677 84.2308 39.4355C83.9392 39.2988 83.7113 39.0778 83.5472 38.7725C83.3832 38.4671 83.3011 38.0615 83.3011 37.5557V30.2891ZM89.2937 33.5088V39.4971H87.6463V32.1006H89.2185L89.2937 33.5088ZM91.5564 32.0527L91.5427 33.584C91.4425 33.5658 91.3331 33.5521 91.2146 33.543C91.1007 33.5339 90.9868 33.5293 90.8728 33.5293C90.5903 33.5293 90.3419 33.5703 90.1277 33.6523C89.9135 33.7298 89.7335 33.8438 89.5877 33.9941C89.4464 34.14 89.337 34.3177 89.2595 34.5273C89.1821 34.737 89.1365 34.9717 89.1228 35.2314L88.7468 35.2588C88.7468 34.7939 88.7924 34.3633 88.8836 33.9668C88.9747 33.5703 89.1114 33.2217 89.2937 32.9209C89.4806 32.6201 89.713 32.3854 89.991 32.2168C90.2735 32.0482 90.5994 31.9639 90.9685 31.9639C91.0688 31.9639 91.1759 31.973 91.2898 31.9912C91.4083 32.0094 91.4972 32.0299 91.5564 32.0527ZM92.1965 35.8809V35.7236C92.1965 35.1904 92.2739 34.696 92.4289 34.2402C92.5838 33.7799 92.8071 33.3812 93.0988 33.0439C93.395 32.7021 93.7551 32.4378 94.1789 32.251C94.6073 32.0596 95.0903 31.9639 95.6281 31.9639C96.1704 31.9639 96.6535 32.0596 97.0773 32.251C97.5057 32.4378 97.868 32.7021 98.1642 33.0439C98.4605 33.3812 98.686 33.7799 98.841 34.2402C98.9959 34.696 99.0734 35.1904 99.0734 35.7236V35.8809C99.0734 36.4141 98.9959 36.9085 98.841 37.3643C98.686 37.82 98.4605 38.2188 98.1642 38.5605C97.868 38.8978 97.508 39.1621 97.0842 39.3535C96.6603 39.5404 96.1795 39.6338 95.6418 39.6338C95.0995 39.6338 94.6141 39.5404 94.1857 39.3535C93.7619 39.1621 93.4019 38.8978 93.1056 38.5605C92.8094 38.2188 92.5838 37.82 92.4289 37.3643C92.2739 36.9085 92.1965 36.4141 92.1965 35.8809ZM93.8439 35.7236V35.8809C93.8439 36.2135 93.8781 36.528 93.9465 36.8242C94.0148 37.1204 94.1219 37.3802 94.2677 37.6035C94.4136 37.8268 94.6004 38.0023 94.8283 38.1299C95.0562 38.2575 95.3273 38.3213 95.6418 38.3213C95.9471 38.3213 96.2114 38.2575 96.4347 38.1299C96.6626 38.0023 96.8495 37.8268 96.9953 37.6035C97.1411 37.3802 97.2482 37.1204 97.3166 36.8242C97.3895 36.528 97.4259 36.2135 97.4259 35.8809V35.7236C97.4259 35.3955 97.3895 35.0856 97.3166 34.7939C97.2482 34.4977 97.1388 34.2357 96.9884 34.0078C96.8426 33.7799 96.6558 33.6022 96.4279 33.4746C96.2046 33.3424 95.938 33.2764 95.6281 33.2764C95.3182 33.2764 95.0493 33.3424 94.8215 33.4746C94.5981 33.6022 94.4136 33.7799 94.2677 34.0078C94.1219 34.2357 94.0148 34.4977 93.9465 34.7939C93.8781 35.0856 93.8439 35.3955 93.8439 35.7236ZM102.188 33.6797V39.4971H100.541V32.1006H102.092L102.188 33.6797ZM101.894 35.5254L101.361 35.5186C101.365 34.9945 101.438 34.5137 101.58 34.0762C101.725 33.6387 101.926 33.2627 102.181 32.9482C102.441 32.6338 102.751 32.3923 103.111 32.2236C103.471 32.0505 103.872 31.9639 104.314 31.9639C104.67 31.9639 104.991 32.014 105.278 32.1143C105.57 32.21 105.818 32.3672 106.023 32.5859C106.233 32.8047 106.392 33.0895 106.502 33.4404C106.611 33.7868 106.666 34.2129 106.666 34.7188V39.4971H105.011V34.7119C105.011 34.3564 104.959 34.0762 104.854 33.8711C104.754 33.6615 104.606 33.5133 104.41 33.4268C104.218 33.3356 103.979 33.29 103.692 33.29C103.409 33.29 103.156 33.3493 102.933 33.4678C102.71 33.5863 102.521 33.748 102.366 33.9531C102.215 34.1582 102.099 34.3952 102.017 34.6641C101.935 34.9329 101.894 35.2201 101.894 35.5254ZM110.211 32.1006V39.4971H108.557V32.1006H110.211ZM108.447 30.1592C108.447 29.9085 108.529 29.7012 108.693 29.5371C108.862 29.3685 109.094 29.2842 109.391 29.2842C109.682 29.2842 109.912 29.3685 110.081 29.5371C110.25 29.7012 110.334 29.9085 110.334 30.1592C110.334 30.4053 110.25 30.6104 110.081 30.7744C109.912 30.9385 109.682 31.0205 109.391 31.0205C109.094 31.0205 108.862 30.9385 108.693 30.7744C108.529 30.6104 108.447 30.4053 108.447 30.1592ZM113.777 28.9971V39.4971H112.122V28.9971H113.777ZM118.37 32.1006L115.151 35.6689L113.387 37.4736L112.956 36.0791L114.289 34.4316L116.381 32.1006H118.37ZM116.737 39.4971L114.337 36.0244L115.376 34.8691L118.644 39.4971H116.737ZM124.805 34.083L126.521 32.9277C126.808 32.7363 127.013 32.5495 127.136 32.3672C127.259 32.1803 127.32 31.9479 127.32 31.6699C127.32 31.4329 127.229 31.2142 127.047 31.0137C126.865 30.8132 126.607 30.7129 126.275 30.7129C126.042 30.7129 125.846 30.7676 125.687 30.877C125.527 30.9818 125.406 31.123 125.324 31.3008C125.247 31.474 125.208 31.6676 125.208 31.8818C125.208 32.0869 125.261 32.2988 125.365 32.5176C125.47 32.7318 125.614 32.9574 125.796 33.1943C125.978 33.4268 126.183 33.6774 126.411 33.9463L131.114 39.4971H129.207L125.365 34.9785C125.033 34.5775 124.739 34.2106 124.484 33.8779C124.228 33.5407 124.03 33.2148 123.889 32.9004C123.748 32.5814 123.677 32.2533 123.677 31.916C123.677 31.3965 123.784 30.9499 123.998 30.5762C124.212 30.2025 124.515 29.9154 124.907 29.7148C125.299 29.5098 125.757 29.4072 126.281 29.4072C126.787 29.4072 127.222 29.5098 127.587 29.7148C127.956 29.9154 128.239 30.182 128.435 30.5146C128.635 30.8473 128.736 31.2119 128.736 31.6084C128.736 31.9229 128.679 32.21 128.565 32.4697C128.451 32.7295 128.293 32.9665 128.093 33.1807C127.892 33.3949 127.66 33.5977 127.396 33.7891L125.311 35.3066C125.069 35.5026 124.889 35.6917 124.771 35.874C124.657 36.0518 124.582 36.2158 124.545 36.3662C124.509 36.5166 124.49 36.6488 124.49 36.7627C124.49 37.0544 124.552 37.3187 124.675 37.5557C124.803 37.7926 124.987 37.9818 125.229 38.123C125.475 38.2598 125.773 38.3281 126.124 38.3281C126.502 38.3281 126.869 38.2438 127.225 38.0752C127.58 37.902 127.899 37.6582 128.182 37.3438C128.464 37.0293 128.688 36.6533 128.852 36.2158C129.02 35.7783 129.105 35.293 129.105 34.7598H130.527C130.527 35.2428 130.479 35.7008 130.383 36.1338C130.292 36.5667 130.144 36.9678 129.939 37.3369C129.738 37.7061 129.474 38.0365 129.146 38.3281C129.114 38.36 129.077 38.401 129.036 38.4512C129 38.4967 128.963 38.5355 128.927 38.5674C128.535 38.9274 128.095 39.1963 127.608 39.374C127.125 39.5472 126.61 39.6338 126.063 39.6338C125.402 39.6338 124.83 39.513 124.347 39.2715C123.864 39.0299 123.49 38.6973 123.226 38.2734C122.966 37.8496 122.836 37.3643 122.836 36.8174C122.836 36.4118 122.92 36.0563 123.089 35.751C123.258 35.4411 123.488 35.154 123.779 34.8896C124.076 34.6208 124.417 34.3519 124.805 34.083ZM143.578 34.4111V38.2119C143.437 38.3988 143.216 38.6038 142.915 38.8271C142.619 39.0459 142.225 39.235 141.732 39.3945C141.24 39.554 140.627 39.6338 139.894 39.6338C139.269 39.6338 138.697 39.529 138.178 39.3193C137.658 39.1051 137.209 38.793 136.831 38.3828C136.457 37.9727 136.168 37.4736 135.963 36.8857C135.758 36.2933 135.655 35.6188 135.655 34.8623V34.1719C135.655 33.4199 135.749 32.75 135.936 32.1621C136.127 31.5697 136.4 31.0684 136.756 30.6582C137.111 30.248 137.54 29.9382 138.041 29.7285C138.547 29.5143 139.119 29.4072 139.757 29.4072C140.573 29.4072 141.247 29.5439 141.78 29.8174C142.318 30.0863 142.733 30.46 143.024 30.9385C143.316 31.417 143.501 31.9639 143.578 32.5791H141.896C141.842 32.2327 141.735 31.9229 141.575 31.6494C141.42 31.376 141.197 31.1618 140.905 31.0068C140.618 30.8473 140.244 30.7676 139.784 30.7676C139.388 30.7676 139.039 30.8428 138.738 30.9932C138.437 31.1436 138.187 31.3646 137.986 31.6562C137.79 31.9479 137.642 32.3034 137.542 32.7227C137.442 33.1419 137.392 33.6204 137.392 34.1582V34.8623C137.392 35.4092 137.449 35.8945 137.562 36.3184C137.681 36.7422 137.85 37.0999 138.068 37.3916C138.292 37.6833 138.563 37.9043 138.882 38.0547C139.201 38.2005 139.561 38.2734 139.962 38.2734C140.354 38.2734 140.675 38.2415 140.926 38.1777C141.176 38.1094 141.375 38.0296 141.52 37.9385C141.671 37.8428 141.787 37.7516 141.869 37.665V35.6895H139.798V34.4111H143.578ZM149.584 38.0137V34.4863C149.584 34.222 149.536 33.9941 149.441 33.8027C149.345 33.6113 149.199 33.4632 149.003 33.3584C148.812 33.2536 148.57 33.2012 148.279 33.2012C148.01 33.2012 147.777 33.2467 147.581 33.3379C147.385 33.429 147.233 33.5521 147.123 33.707C147.014 33.862 146.959 34.0374 146.959 34.2334H145.319C145.319 33.9417 145.389 33.6592 145.531 33.3857C145.672 33.1123 145.877 32.8685 146.146 32.6543C146.415 32.4401 146.736 32.2715 147.11 32.1484C147.483 32.0254 147.903 31.9639 148.368 31.9639C148.924 31.9639 149.416 32.0573 149.844 32.2441C150.277 32.431 150.617 32.7135 150.863 33.0918C151.113 33.4655 151.239 33.9349 151.239 34.5V37.7881C151.239 38.1253 151.261 38.4284 151.307 38.6973C151.357 38.9616 151.428 39.1917 151.519 39.3877V39.4971H149.83C149.753 39.3193 149.691 39.0938 149.646 38.8203C149.605 38.5423 149.584 38.2734 149.584 38.0137ZM149.824 34.999L149.837 36.0176H148.655C148.349 36.0176 148.08 36.0472 147.848 36.1064C147.616 36.1611 147.422 36.2432 147.267 36.3525C147.112 36.4619 146.996 36.5941 146.918 36.749C146.841 36.904 146.802 37.0794 146.802 37.2754C146.802 37.4714 146.848 37.6514 146.939 37.8154C147.03 37.9749 147.162 38.1003 147.335 38.1914C147.513 38.2826 147.727 38.3281 147.978 38.3281C148.315 38.3281 148.609 38.2598 148.86 38.123C149.115 37.9818 149.315 37.8109 149.461 37.6104C149.607 37.4053 149.685 37.2116 149.694 37.0293L150.227 37.7607C150.172 37.9476 150.079 38.1481 149.947 38.3623C149.814 38.5765 149.641 38.7816 149.427 38.9775C149.217 39.1689 148.965 39.3262 148.668 39.4492C148.377 39.5723 148.039 39.6338 147.657 39.6338C147.174 39.6338 146.743 39.5381 146.365 39.3467C145.986 39.1507 145.69 38.8887 145.476 38.5605C145.262 38.2279 145.155 37.8519 145.155 37.4326C145.155 37.0407 145.228 36.6943 145.373 36.3936C145.524 36.0882 145.743 35.833 146.03 35.6279C146.321 35.4229 146.677 35.2679 147.096 35.1631C147.515 35.0537 147.994 34.999 148.532 34.999H149.824ZM157.573 37.9658V28.9971H159.227V39.4971H157.73L157.573 37.9658ZM152.761 35.8809V35.7373C152.761 35.1768 152.827 34.6663 152.959 34.2061C153.091 33.7412 153.282 33.3424 153.533 33.0098C153.784 32.6725 154.089 32.415 154.449 32.2373C154.809 32.055 155.215 31.9639 155.666 31.9639C156.112 31.9639 156.504 32.0505 156.842 32.2236C157.179 32.3968 157.466 32.6452 157.703 32.9688C157.94 33.2878 158.129 33.6706 158.27 34.1172C158.412 34.5592 158.512 35.0514 158.571 35.5938V36.0518C158.512 36.5804 158.412 37.0635 158.27 37.501C158.129 37.9385 157.94 38.3167 157.703 38.6357C157.466 38.9548 157.177 39.2008 156.835 39.374C156.498 39.5472 156.103 39.6338 155.652 39.6338C155.206 39.6338 154.802 39.5404 154.442 39.3535C154.087 39.1667 153.784 38.9046 153.533 38.5674C153.282 38.2301 153.091 37.8337 152.959 37.3779C152.827 36.9176 152.761 36.4186 152.761 35.8809ZM154.408 35.7373V35.8809C154.408 36.2181 154.438 36.5326 154.497 36.8242C154.561 37.1159 154.659 37.3734 154.791 37.5967C154.923 37.8154 155.094 37.9886 155.303 38.1162C155.518 38.2393 155.773 38.3008 156.069 38.3008C156.443 38.3008 156.75 38.2188 156.992 38.0547C157.234 37.8906 157.423 37.6696 157.559 37.3916C157.701 37.109 157.796 36.7946 157.846 36.4482V35.2109C157.819 34.9421 157.762 34.6914 157.676 34.459C157.594 34.2266 157.482 34.0238 157.341 33.8506C157.199 33.6729 157.024 33.5361 156.814 33.4404C156.609 33.3402 156.365 33.29 156.083 33.29C155.782 33.29 155.527 33.3538 155.317 33.4814C155.108 33.609 154.934 33.7845 154.798 34.0078C154.665 34.2311 154.567 34.4909 154.504 34.7871C154.44 35.0833 154.408 35.4001 154.408 35.7373ZM165.787 32.1006H167.284V39.292C167.284 39.9574 167.143 40.5225 166.861 40.9873C166.578 41.4521 166.184 41.8053 165.678 42.0469C165.172 42.293 164.586 42.416 163.921 42.416C163.639 42.416 163.324 42.375 162.978 42.293C162.636 42.2109 162.303 42.0788 161.98 41.8965C161.661 41.7188 161.394 41.484 161.18 41.1924L161.952 40.2217C162.217 40.5361 162.508 40.7663 162.827 40.9121C163.146 41.0579 163.481 41.1309 163.832 41.1309C164.21 41.1309 164.532 41.0602 164.796 40.9189C165.065 40.7822 165.272 40.5794 165.418 40.3105C165.564 40.0417 165.637 39.7135 165.637 39.3262V33.7754L165.787 32.1006ZM160.763 35.8809V35.7373C160.763 35.1768 160.831 34.6663 160.968 34.2061C161.105 33.7412 161.301 33.3424 161.556 33.0098C161.811 32.6725 162.121 32.415 162.486 32.2373C162.85 32.055 163.263 31.9639 163.723 31.9639C164.201 31.9639 164.609 32.0505 164.946 32.2236C165.288 32.3968 165.573 32.6452 165.801 32.9688C166.029 33.2878 166.207 33.6706 166.334 34.1172C166.466 34.5592 166.564 35.0514 166.628 35.5938V36.0518C166.569 36.5804 166.469 37.0635 166.327 37.501C166.186 37.9385 165.999 38.3167 165.767 38.6357C165.534 38.9548 165.247 39.2008 164.905 39.374C164.568 39.5472 164.169 39.6338 163.709 39.6338C163.258 39.6338 162.85 39.5404 162.486 39.3535C162.125 39.1667 161.816 38.9046 161.556 38.5674C161.301 38.2301 161.105 37.8337 160.968 37.3779C160.831 36.9176 160.763 36.4186 160.763 35.8809ZM162.41 35.7373V35.8809C162.41 36.2181 162.442 36.5326 162.506 36.8242C162.574 37.1159 162.677 37.3734 162.814 37.5967C162.955 37.8154 163.133 37.9886 163.347 38.1162C163.566 38.2393 163.823 38.3008 164.119 38.3008C164.507 38.3008 164.823 38.2188 165.07 38.0547C165.32 37.8906 165.512 37.6696 165.644 37.3916C165.78 37.109 165.876 36.7946 165.931 36.4482V35.2109C165.903 34.9421 165.847 34.6914 165.76 34.459C165.678 34.2266 165.566 34.0238 165.425 33.8506C165.284 33.6729 165.106 33.5361 164.892 33.4404C164.678 33.3402 164.425 33.29 164.133 33.29C163.837 33.29 163.579 33.3538 163.361 33.4814C163.142 33.609 162.962 33.7845 162.82 34.0078C162.684 34.2311 162.581 34.4909 162.513 34.7871C162.445 35.0833 162.41 35.4001 162.41 35.7373ZM172.354 39.6338C171.807 39.6338 171.313 39.5449 170.871 39.3672C170.433 39.1849 170.059 38.932 169.75 38.6084C169.444 38.2848 169.21 37.9043 169.045 37.4668C168.881 37.0293 168.799 36.5576 168.799 36.0518V35.7783C168.799 35.1995 168.884 34.6755 169.052 34.2061C169.221 33.7367 169.456 33.3356 169.756 33.0029C170.057 32.6657 170.413 32.4082 170.823 32.2305C171.233 32.0527 171.677 31.9639 172.156 31.9639C172.684 31.9639 173.147 32.0527 173.544 32.2305C173.94 32.4082 174.268 32.6589 174.528 32.9824C174.792 33.3014 174.988 33.682 175.116 34.124C175.248 34.5661 175.314 35.0537 175.314 35.5869V36.291H169.599V35.1084H173.687V34.9785C173.678 34.6823 173.619 34.4043 173.509 34.1445C173.405 33.8848 173.243 33.6751 173.024 33.5156C172.805 33.3561 172.514 33.2764 172.149 33.2764C171.876 33.2764 171.632 33.3356 171.418 33.4541C171.208 33.568 171.032 33.7344 170.891 33.9531C170.75 34.1719 170.641 34.4362 170.563 34.7461C170.49 35.0514 170.454 35.3955 170.454 35.7783V36.0518C170.454 36.3753 170.497 36.6761 170.584 36.9541C170.675 37.2275 170.807 37.4668 170.98 37.6719C171.153 37.877 171.363 38.0387 171.609 38.1572C171.855 38.2712 172.135 38.3281 172.45 38.3281C172.846 38.3281 173.199 38.2484 173.509 38.0889C173.819 37.9294 174.088 37.7038 174.316 37.4121L175.184 38.2529C175.025 38.4854 174.817 38.7087 174.562 38.9229C174.307 39.1325 173.995 39.3034 173.626 39.4355C173.261 39.5677 172.837 39.6338 172.354 39.6338ZM180.09 32.1006V33.3037H175.92V32.1006H180.09ZM177.123 30.2891H178.77V37.4531C178.77 37.681 178.802 37.8564 178.866 37.9795C178.935 38.098 179.028 38.1777 179.146 38.2188C179.265 38.2598 179.404 38.2803 179.563 38.2803C179.677 38.2803 179.787 38.2734 179.892 38.2598C179.996 38.2461 180.081 38.2324 180.145 38.2188L180.151 39.4766C180.015 39.5176 179.855 39.554 179.673 39.5859C179.495 39.6178 179.29 39.6338 179.058 39.6338C178.679 39.6338 178.344 39.5677 178.053 39.4355C177.761 39.2988 177.533 39.0778 177.369 38.7725C177.205 38.4671 177.123 38.0615 177.123 37.5557V30.2891Z" fill="#49454F"/>
</g>
<defs>
<filter id="filter0_dd_690_38911" x="0.926147" y="-0.50293" width="216" height="72" filterUnits="userSpaceOnUse" color-interpolation-filters="sRGB">
<feFlood flood-opacity="0" result="BackgroundImageFix"/>
<feColorMatrix in="SourceAlpha" type="matrix" values="0 0 0 0 0 0 0 0 0 0 0 0 0 0 0 0 0 0 127 0" result="hardAlpha"/>
<feMorphology radius="1" operator="dilate" in="SourceAlpha" result="effect1_dropShadow_690_38911"/>
<feOffset dy="1"/>
<feGaussianBlur stdDeviation="1.5"/>
<feColorMatrix type="matrix" values="0 0 0 0 0 0 0 0 0 0 0 0 0 0 0 0 0 0 0.15 0"/>
<feBlend mode="normal" in2="BackgroundImageFix" result="effect1_dropShadow_690_38911"/>
<feColorMatrix in="SourceAlpha" type="matrix" values="0 0 0 0 0 0 0 0 0 0 0 0 0 0 0 0 0 0 127 0" result="hardAlpha"/>
<feOffset dy="1"/>
<feGaussianBlur stdDeviation="1"/>
<feColorMatrix type="matrix" values="0 0 0 0 0 0 0 0 0 0 0 0 0 0 0 0 0 0 0.3 0"/>
<feBlend mode="normal" in2="effect1_dropShadow_690_38911" result="effect2_dropShadow_690_38911"/>
<feBlend mode="normal" in="SourceGraphic" in2="effect2_dropShadow_690_38911" result="shape"/>
</filter>
<clipPath id="clip0_690_38911">
<rect width="18" height="18" fill="white" transform="translate(28.9261 25.4971)"/>
</clipPath>
</defs>
</svg>
