<svg width="181" height="69" viewBox="0 0 181 69" fill="none" xmlns="http://www.w3.org/2000/svg">
<g filter="url(#filter0_dd_690_38977)">
<rect x="4.92627" y="2.49707" width="172" height="64" rx="8" fill="#F2F2F2"/>
<g clip-path="url(#clip0_690_38977)">
<path d="M43.9842 34.1065C43.9842 34.1727 43.9645 34.2375 43.9275 34.2926C43.8906 34.3477 43.8381 34.3906 43.7766 34.416C43.7152 34.4413 43.6476 34.448 43.5824 34.435C43.5172 34.4221 43.4573 34.3902 43.4102 34.3434C43.3632 34.2965 43.3312 34.2368 43.3182 34.1718C43.3053 34.1069 43.3119 34.0395 43.3374 33.9783C43.3628 33.9171 43.4059 33.8648 43.4612 33.8279C43.5165 33.7911 43.5815 33.7715 43.648 33.7715C43.7371 33.7715 43.8227 33.8068 43.8857 33.8696C43.9488 33.9324 43.9842 34.0176 43.9842 34.1065Z" fill="#09A387"/>
<path d="M43.9842 34.1065C43.9842 34.1727 43.9645 34.2375 43.9275 34.2926C43.8906 34.3477 43.8381 34.3906 43.7766 34.416C43.7152 34.4413 43.6476 34.448 43.5824 34.435C43.5172 34.4221 43.4573 34.3902 43.4102 34.3434C43.3632 34.2965 43.3312 34.2368 43.3182 34.1718C43.3053 34.1069 43.3119 34.0395 43.3374 33.9783C43.3628 33.9171 43.4059 33.8648 43.4612 33.8279C43.5165 33.7911 43.5815 33.7715 43.648 33.7715C43.7371 33.7715 43.8227 33.8068 43.8857 33.8696C43.9488 33.9324 43.9842 34.0176 43.9842 34.1065" stroke="#09A387" stroke-width="0.0522136" stroke-miterlimit="10"/>
<path d="M37.4468 27.1895H35.2432C35.154 27.1895 35.0685 27.1542 35.0055 27.0914C34.9424 27.0286 34.907 26.9434 34.907 26.8545C34.907 26.7657 34.9424 26.6805 35.0055 26.6177C35.0685 26.5548 35.154 26.5195 35.2432 26.5195H37.4468C37.536 26.5195 37.6215 26.5548 37.6845 26.6177C37.7476 26.6805 37.783 26.7657 37.783 26.8545C37.783 26.9434 37.7476 27.0286 37.6845 27.0914C37.6215 27.1542 37.536 27.1895 37.4468 27.1895Z" fill="#09A387" stroke="#09A387" stroke-width="0.0522136" stroke-miterlimit="10"/>
<path d="M37.4503 37.9394H35.3546C35.1814 37.9394 35.0152 37.8708 34.8927 37.7487C34.7702 37.6267 34.7014 37.4611 34.7014 37.2885V36.8237C34.7019 36.6512 34.7709 36.486 34.8933 36.364C35.0157 36.2421 35.1815 36.1734 35.3546 36.1729H37.4503C37.6233 36.1736 37.789 36.2424 37.9114 36.3643C38.0337 36.4862 38.1027 36.6513 38.1035 36.8237V37.2873C38.1029 37.4598 38.034 37.6251 37.9116 37.747C37.7892 37.869 37.6233 37.9377 37.4503 37.9382V37.9394ZM37.4322 36.8233L35.355 36.8413L35.3731 37.2873L37.4322 37.2694V36.8233Z" fill="#09A387" stroke="#09A387" stroke-width="0.0522136" stroke-miterlimit="10"/>
<path d="M46.1586 33.2629H45.0701C44.9291 33.0239 44.7299 32.8242 44.4908 32.6824C44.2517 32.5406 43.9806 32.4612 43.7025 32.4516C43.4244 32.4421 43.1484 32.5027 42.9001 32.6278C42.6518 32.7529 42.4392 32.9384 42.2821 33.1672V31.8334H42.6067C42.9084 31.8329 43.1976 31.7133 43.4109 31.5007C43.6242 31.2881 43.7442 30.9999 43.7445 30.6993V29.1633C43.7441 28.8628 43.6241 28.5747 43.4108 28.3623C43.1975 28.1498 42.9083 28.0304 42.6067 28.0301H42.2824V27.2923C42.282 26.8215 42.0942 26.3702 41.7602 26.0373C41.4261 25.7044 40.9732 25.5171 40.5007 25.5166H32.1897C31.7173 25.5172 31.2644 25.7045 30.9304 26.0374C30.5963 26.3703 30.4085 26.8216 30.408 27.2923V28.0301H30.0837C29.782 28.0304 29.4929 28.1498 29.2795 28.3623C29.0662 28.5747 28.9461 28.8628 28.9456 29.1633V30.6993C28.9461 30.9999 29.0661 31.2881 29.2795 31.5006C29.4928 31.7132 29.782 31.8328 30.0837 31.8334H30.408V37.1103C30.4093 37.51 30.546 37.8976 30.7959 38.2103C31.0458 38.5229 31.3944 38.7424 31.7851 38.8331V39.3262C31.7861 39.5587 31.8793 39.7812 32.0443 39.9455C32.2094 40.1097 32.4329 40.2023 32.6661 40.203H33.5968C33.8303 40.2028 34.0543 40.1102 34.2194 39.9456C34.3845 39.781 34.4773 39.5578 34.4774 39.3251V38.8856H38.2122V39.3262C38.2132 39.5587 38.3064 39.7812 38.4715 39.9455C38.6365 40.1097 38.86 40.2023 39.0933 40.203H40.0239C40.2417 40.2019 40.4513 40.12 40.6118 39.9733V40.0697C40.6136 40.6182 40.8108 41.1481 41.1682 41.5651C41.5256 41.9822 42.02 42.2593 42.5633 42.347V42.3994C42.5633 42.6861 42.6776 42.961 42.881 43.1637C43.0844 43.3664 43.3603 43.4802 43.648 43.4802C43.9357 43.4802 44.2116 43.3664 44.415 43.1637C44.6185 42.961 44.7327 42.6861 44.7327 42.3994V42.347C45.2756 42.2593 45.7697 41.9826 46.1271 41.566C46.4845 41.1494 46.6819 40.6201 46.6843 40.072V35.869C46.6842 35.6672 46.6037 35.4736 46.4605 35.3308C46.3172 35.1881 46.123 35.1077 45.9204 35.1075H44.9633C45.0236 35.0288 45.0766 34.9447 45.1216 34.8564H46.159C46.3575 34.8562 46.5477 34.7775 46.6881 34.6377C46.8284 34.4979 46.9073 34.3083 46.9075 34.1106V34.0087C46.9073 33.811 46.8284 33.6214 46.6881 33.4816C46.5477 33.3418 46.3575 33.2631 46.159 33.2629H46.1586ZM30.0837 31.1634C29.9603 31.1631 29.842 31.1142 29.7547 31.0272C29.6675 30.9402 29.6185 30.8223 29.6184 30.6993V29.1633C29.6186 29.0404 29.6677 28.9227 29.7549 28.8358C29.8421 28.749 29.9604 28.7002 30.0837 28.7001H30.408V31.1634H30.0837ZM40.4811 33.0665H32.2093C32.2 33.0666 32.1908 33.0648 32.1822 33.0613C32.1737 33.0578 32.1659 33.0527 32.1593 33.0461C32.1527 33.0396 32.1475 33.0319 32.144 33.0234C32.1404 33.0148 32.1386 33.0057 32.1386 32.9965V28.2154C32.1385 28.2061 32.1403 28.1969 32.1439 28.1883C32.1474 28.1798 32.1526 28.172 32.1592 28.1654C32.1657 28.1589 32.1736 28.1537 32.1822 28.1502C32.1908 28.1466 32.2 28.1449 32.2093 28.1449H40.4811C40.4998 28.1449 40.5177 28.1522 40.5311 28.1652C40.5443 28.1786 40.5517 28.1966 40.5518 28.2154V32.9965C40.5518 33.0057 40.55 33.0148 40.5465 33.0234C40.5429 33.0319 40.5377 33.0396 40.5311 33.0461C40.5245 33.0527 40.5167 33.0578 40.5082 33.0613C40.4996 33.0648 40.4904 33.0666 40.4811 33.0665ZM41.0613 34.1106V34.0087C41.0613 33.9884 41.0694 33.969 41.0838 33.9546C41.0983 33.9402 41.1178 33.9322 41.1382 33.9322H42.0043C41.9951 33.9899 41.9892 34.048 41.9866 34.1064C41.9866 34.1336 41.9931 34.1588 41.9947 34.186H41.1378C41.1174 34.186 41.0979 34.1779 41.0835 34.1636C41.0691 34.1492 41.061 34.1297 41.061 34.1094L41.0613 34.1106ZM42.6067 28.7001C42.7301 28.7003 42.8483 28.7492 42.9355 28.8361C43.0228 28.923 43.0719 29.0408 43.0721 29.1637V30.6997C43.072 30.8226 43.0229 30.9405 42.9357 31.0274C42.8484 31.1144 42.7301 31.1633 42.6067 31.1634H42.2824V28.7001H42.6067ZM31.0796 37.1103V27.2923C31.0801 26.9992 31.1972 26.7183 31.4052 26.5111C31.6132 26.304 31.8952 26.1874 32.1893 26.187H40.5007C40.7948 26.1875 41.0766 26.3041 41.2846 26.5113C41.4925 26.7185 41.6095 26.9993 41.61 27.2923V33.2649H41.1724C41.2064 33.1796 41.224 33.0886 41.2243 32.9969V28.2154C41.2241 28.019 41.1457 27.8308 41.0064 27.692C40.8671 27.5532 40.6782 27.4751 40.4811 27.4749H32.2093C32.0122 27.4751 31.8234 27.5532 31.684 27.692C31.5447 27.8308 31.4664 28.019 31.4662 28.2154V32.9965C31.4665 33.1927 31.5449 33.3808 31.6842 33.5196C31.8235 33.6583 32.0123 33.7363 32.2093 33.7365H40.4423C40.4074 33.8231 40.3893 33.9155 40.3889 34.0087V34.1106C40.39 34.1422 40.3932 34.1736 40.3985 34.2048H39.1717C38.8128 34.2052 38.4688 34.3474 38.2152 34.6003C37.9615 34.8532 37.819 35.196 37.8188 35.5536V35.8216C37.8189 35.9104 37.8543 35.9955 37.9173 36.0583C37.9804 36.1211 38.0658 36.1565 38.155 36.1566H39.7088C40.0464 36.1558 40.3713 36.0286 40.6191 35.8001C40.6168 35.8239 40.6118 35.8468 40.6118 35.871V38.2091C40.5749 38.2138 40.5379 38.2166 40.5007 38.2175H32.1901C31.8959 38.2173 31.6138 38.1008 31.4058 37.8935C31.1977 37.6863 31.0807 37.4053 31.0804 37.1122L31.0796 37.1103ZM40.3855 34.8748C40.3688 35.0424 40.2903 35.1978 40.1651 35.311C40.04 35.4242 39.8771 35.487 39.7081 35.4873H38.4939C38.5105 35.3197 38.5891 35.1643 38.7142 35.0511C38.8394 34.9379 39.0023 34.8751 39.1713 34.8748H40.3855ZM33.805 39.3262C33.805 39.3813 33.7831 39.4341 33.744 39.4731C33.705 39.5121 33.652 39.534 33.5968 39.5341H32.6661C32.6108 39.5341 32.5577 39.5122 32.5186 39.4732C32.4795 39.4343 32.4575 39.3814 32.4575 39.3262V38.8856H33.805V39.3262ZM40.0239 39.5341H39.0937C39.0387 39.5336 38.9861 39.5115 38.9474 39.4726C38.9087 39.4336 38.8869 39.381 38.8869 39.3262V38.8856H40.2318V39.3262C40.2318 39.3814 40.2098 39.4343 40.1707 39.4732C40.1315 39.5122 40.0785 39.5341 40.0231 39.5341H40.0239ZM40.9918 35.2147C41.0307 35.0963 41.0528 34.9729 41.0575 34.8483C41.0841 34.8526 41.1109 34.8552 41.1378 34.8564H42.1752C42.2204 34.9448 42.2733 35.029 42.3336 35.1079H41.3756C41.2403 35.1085 41.1076 35.1454 40.9914 35.2147H40.9918ZM42.5149 40.7865C42.4587 40.7874 42.403 40.7749 42.3526 40.7501C42.3022 40.7254 42.2584 40.689 42.2248 40.644C42.1955 40.6054 42.176 40.5604 42.1678 40.5127C42.1597 40.465 42.1631 40.416 42.1779 40.3699L42.5264 39.2734C42.586 39.0923 42.6901 38.929 42.8293 38.7984C42.9685 38.6678 43.1384 38.574 43.3233 38.5257C43.536 38.4675 43.7605 38.4675 43.9731 38.5257C44.158 38.574 44.3278 38.6678 44.467 38.7984C44.6061 38.929 44.7102 39.0923 44.7696 39.2734L45.1181 40.3699C45.1331 40.4159 45.1367 40.4649 45.1286 40.5126C45.1205 40.5604 45.101 40.6054 45.0716 40.644C45.0381 40.689 44.9943 40.7254 44.9438 40.7501C44.8934 40.7749 44.8378 40.7874 44.7815 40.7865H42.5149ZM44.0607 42.3998C44.0574 42.5066 44.0125 42.608 43.9355 42.6824C43.8585 42.7568 43.7555 42.7985 43.6482 42.7985C43.541 42.7985 43.4379 42.7568 43.3609 42.6824C43.2839 42.608 43.239 42.5066 43.2357 42.3998V41.4565H44.0607V42.3998ZM46.0122 35.8694V40.0724C46.0106 40.4429 45.8834 40.802 45.6512 41.0914C45.419 41.3808 45.0955 41.5835 44.7331 41.6666V41.4568H44.7815C44.9434 41.4572 45.1031 41.4196 45.2477 41.3472C45.3923 41.2748 45.5179 41.1695 45.6142 41.0399C45.7062 40.9165 45.7673 40.773 45.7925 40.6213C45.8177 40.4696 45.8062 40.3141 45.759 40.1678L45.4109 39.0716C45.3178 38.7838 45.1537 38.5239 44.9335 38.3157C44.7134 38.1076 44.4443 37.9578 44.151 37.8802C43.8214 37.7898 43.4735 37.7898 43.1439 37.8802C42.8506 37.9578 42.5815 38.1076 42.3614 38.3157C42.1412 38.5239 41.9771 38.7838 41.884 39.0716L41.5382 40.1678C41.4911 40.3142 41.4798 40.4697 41.505 40.6213C41.5303 40.773 41.5914 40.9165 41.6834 41.0399C41.7797 41.1695 41.9052 41.2748 42.0499 41.3473C42.1945 41.4197 42.3542 41.4572 42.5161 41.4568H42.5645V41.6666C42.2021 41.5835 41.8786 41.3808 41.6464 41.0914C41.4142 40.802 41.287 40.4429 41.2854 40.0724V35.8694C41.2854 35.8452 41.295 35.822 41.3121 35.8049C41.3293 35.7877 41.3525 35.778 41.3768 35.7779H45.9204C45.9325 35.7779 45.9444 35.7803 45.9555 35.7849C45.9666 35.7895 45.9767 35.7962 45.9852 35.8047C45.9937 35.8132 46.0004 35.8233 46.005 35.8344C46.0096 35.8455 46.0119 35.8574 46.0119 35.8694H46.0122ZM43.5024 35.1079C43.2474 35.0711 43.0158 34.9394 42.8543 34.7394C42.6928 34.5393 42.6133 34.2858 42.6319 34.0297C42.6504 33.7736 42.7656 33.534 42.9542 33.3591C43.1428 33.1842 43.3909 33.087 43.6486 33.087C43.9063 33.087 44.1544 33.1842 44.343 33.3591C44.5317 33.534 44.6468 33.7736 44.6654 34.0297C44.6839 34.2858 44.6044 34.5393 44.4429 34.7394C44.2814 34.9394 44.0498 35.0711 43.7948 35.1079H43.5024ZM46.2351 34.1125C46.2351 34.1328 46.227 34.1523 46.2126 34.1666C46.1982 34.181 46.1786 34.1891 46.1583 34.1891H45.3037C45.3037 34.1623 45.3118 34.1366 45.3118 34.1094C45.309 34.0511 45.3031 33.9929 45.2941 33.9352H46.1602C46.1806 33.9352 46.2001 33.9433 46.2145 33.9577C46.2289 33.972 46.237 33.9915 46.237 34.0118L46.2351 34.1125Z" fill="#09A387" stroke="#09A387" stroke-width="0.0522136" stroke-miterlimit="10"/>
<path d="M34.5353 36.1545C34.5795 36.1546 34.6232 36.146 34.664 36.1291C34.7049 36.1123 34.7419 36.0877 34.7732 36.0565C34.8044 36.0254 34.8292 35.9885 34.846 35.9478C34.8629 35.9071 34.8716 35.8636 34.8715 35.8195V35.5515C34.8714 35.194 34.7288 34.851 34.475 34.5982C34.2213 34.3453 33.8771 34.2032 33.5182 34.2031H31.9644C31.9202 34.2031 31.8765 34.2117 31.8357 34.2285C31.7948 34.2453 31.7578 34.27 31.7265 34.3011C31.6953 34.3322 31.6705 34.3692 31.6537 34.4099C31.6368 34.4505 31.6281 34.4941 31.6282 34.5381V34.8061C31.6286 35.1636 31.7713 35.5063 32.025 35.759C32.2787 36.0117 32.6227 36.1539 32.9815 36.1542L34.5353 36.1545ZM32.304 34.8739H33.5182C33.687 34.874 33.8497 34.9365 33.9749 35.0493C34.1 35.1621 34.1787 35.3172 34.1957 35.4845H32.9815C32.8127 35.4843 32.65 35.4217 32.5248 35.3089C32.3997 35.1962 32.3209 35.0412 32.3037 34.8739H32.304Z" fill="#09A387" stroke="#09A387" stroke-width="0.0522136" stroke-miterlimit="10"/>
</g>
<path d="M56.6632 29.5439H58.1944L61.0724 37.2207L63.9435 29.5439H65.4747L61.6739 39.4971H60.4571L56.6632 29.5439ZM55.9659 29.5439H57.422L57.6749 36.1885V39.4971H55.9659V29.5439ZM64.7159 29.5439H66.1788V39.4971H64.463V36.1885L64.7159 29.5439ZM67.8374 35.8809V35.7236C67.8374 35.1904 67.9149 34.696 68.0698 34.2402C68.2248 33.7799 68.4481 33.3812 68.7397 33.0439C69.036 32.7021 69.396 32.4378 69.8198 32.251C70.2482 32.0596 70.7313 31.9639 71.269 31.9639C71.8114 31.9639 72.2944 32.0596 72.7183 32.251C73.1466 32.4378 73.509 32.7021 73.8052 33.0439C74.1014 33.3812 74.327 33.7799 74.4819 34.2402C74.6369 34.696 74.7144 35.1904 74.7144 35.7236V35.8809C74.7144 36.4141 74.6369 36.9085 74.4819 37.3643C74.327 37.82 74.1014 38.2188 73.8052 38.5605C73.509 38.8978 73.1489 39.1621 72.7251 39.3535C72.3013 39.5404 71.8205 39.6338 71.2827 39.6338C70.7404 39.6338 70.255 39.5404 69.8267 39.3535C69.4028 39.1621 69.0428 38.8978 68.7466 38.5605C68.4504 38.2188 68.2248 37.82 68.0698 37.3643C67.9149 36.9085 67.8374 36.4141 67.8374 35.8809ZM69.4849 35.7236V35.8809C69.4849 36.2135 69.519 36.528 69.5874 36.8242C69.6558 37.1204 69.7629 37.3802 69.9087 37.6035C70.0545 37.8268 70.2414 38.0023 70.4692 38.1299C70.6971 38.2575 70.9683 38.3213 71.2827 38.3213C71.5881 38.3213 71.8524 38.2575 72.0757 38.1299C72.3036 38.0023 72.4904 37.8268 72.6362 37.6035C72.7821 37.3802 72.8892 37.1204 72.9575 36.8242C73.0304 36.528 73.0669 36.2135 73.0669 35.8809V35.7236C73.0669 35.3955 73.0304 35.0856 72.9575 34.7939C72.8892 34.4977 72.7798 34.2357 72.6294 34.0078C72.4836 33.7799 72.2967 33.6022 72.0688 33.4746C71.8455 33.3424 71.5789 33.2764 71.269 33.2764C70.9591 33.2764 70.6903 33.3424 70.4624 33.4746C70.2391 33.6022 70.0545 33.7799 69.9087 34.0078C69.7629 34.2357 69.6558 34.4977 69.5874 34.7939C69.519 35.0856 69.4849 35.3955 69.4849 35.7236ZM76.2021 28.9971H77.8495V37.918L77.6923 39.4971H76.2021V28.9971ZM82.6757 35.7305V35.874C82.6757 36.4209 82.6142 36.9245 82.4911 37.3848C82.3726 37.8405 82.1903 38.237 81.9442 38.5742C81.7027 38.9115 81.4019 39.1735 81.0419 39.3604C80.6864 39.5426 80.274 39.6338 79.8046 39.6338C79.3443 39.6338 78.9433 39.5472 78.6015 39.374C78.2597 39.2008 77.9726 38.9548 77.7401 38.6357C77.5123 38.3167 77.3277 37.9362 77.1864 37.4941C77.0452 37.0521 76.9449 36.5645 76.8856 36.0312V35.5732C76.9449 35.0355 77.0452 34.5479 77.1864 34.1104C77.3277 33.6683 77.5123 33.2878 77.7401 32.9688C77.9726 32.6452 78.2574 32.3968 78.5946 32.2236C78.9364 32.0505 79.3352 31.9639 79.7909 31.9639C80.2649 31.9639 80.6819 32.055 81.0419 32.2373C81.4065 32.4196 81.7095 32.6794 81.9511 33.0166C82.1926 33.3493 82.3726 33.7458 82.4911 34.2061C82.6142 34.6663 82.6757 35.1745 82.6757 35.7305ZM81.0282 35.874V35.7305C81.0282 35.3978 81.0009 35.0856 80.9462 34.7939C80.8915 34.4977 80.8004 34.238 80.6728 34.0146C80.5497 33.7913 80.3811 33.6159 80.1669 33.4883C79.9573 33.3561 79.6952 33.29 79.3808 33.29C79.0891 33.29 78.8384 33.3402 78.6288 33.4404C78.4192 33.5407 78.2437 33.6774 78.1024 33.8506C77.9612 34.0238 77.8495 34.2243 77.7675 34.4521C77.69 34.68 77.6376 34.9261 77.6103 35.1904V36.4277C77.6513 36.7695 77.7379 37.084 77.87 37.3711C78.0067 37.6536 78.1981 37.8815 78.4442 38.0547C78.6903 38.2233 79.0071 38.3076 79.3944 38.3076C79.6998 38.3076 79.9573 38.2461 80.1669 38.123C80.3765 38 80.5429 37.8291 80.6659 37.6104C80.7935 37.387 80.8847 37.1273 80.9394 36.8311C80.9986 36.5348 81.0282 36.2158 81.0282 35.874ZM85.9339 32.1006V39.4971H84.2796V32.1006H85.9339ZM84.1702 30.1592C84.1702 29.9085 84.2522 29.7012 84.4163 29.5371C84.5849 29.3685 84.8174 29.2842 85.1136 29.2842C85.4052 29.2842 85.6354 29.3685 85.804 29.5371C85.9726 29.7012 86.0569 29.9085 86.0569 30.1592C86.0569 30.4053 85.9726 30.6104 85.804 30.7744C85.6354 30.9385 85.4052 31.0205 85.1136 31.0205C84.8174 31.0205 84.5849 30.9385 84.4163 30.7744C84.2522 30.6104 84.1702 30.4053 84.1702 30.1592ZM89.6022 28.9971V39.4971H87.948V28.9971H89.6022ZM96.7954 34.083L98.5112 32.9277C98.7983 32.7363 99.0034 32.5495 99.1265 32.3672C99.2495 32.1803 99.311 31.9479 99.311 31.6699C99.311 31.4329 99.2199 31.2142 99.0376 31.0137C98.8553 30.8132 98.5978 30.7129 98.2651 30.7129C98.0327 30.7129 97.8368 30.7676 97.6772 30.877C97.5177 30.9818 97.397 31.123 97.3149 31.3008C97.2375 31.474 97.1987 31.6676 97.1987 31.8818C97.1987 32.0869 97.2511 32.2988 97.356 32.5176C97.4608 32.7318 97.6043 32.9574 97.7866 33.1943C97.9689 33.4268 98.174 33.6774 98.4019 33.9463L103.105 39.4971H101.198L97.356 34.9785C97.0233 34.5775 96.7293 34.2106 96.4741 33.8779C96.2189 33.5407 96.0207 33.2148 95.8794 32.9004C95.7381 32.5814 95.6675 32.2533 95.6675 31.916C95.6675 31.3965 95.7746 30.9499 95.9888 30.5762C96.203 30.2025 96.506 29.9154 96.8979 29.7148C97.2899 29.5098 97.7479 29.4072 98.272 29.4072C98.7778 29.4072 99.2131 29.5098 99.5776 29.7148C99.9468 29.9154 100.229 30.182 100.425 30.5146C100.626 30.8473 100.726 31.2119 100.726 31.6084C100.726 31.9229 100.669 32.21 100.555 32.4697C100.441 32.7295 100.284 32.9665 100.083 33.1807C99.883 33.3949 99.6506 33.5977 99.3862 33.7891L97.3013 35.3066C97.0597 35.5026 96.8797 35.6917 96.7612 35.874C96.6473 36.0518 96.5721 36.2158 96.5356 36.3662C96.4992 36.5166 96.481 36.6488 96.481 36.7627C96.481 37.0544 96.5425 37.3187 96.6655 37.5557C96.7931 37.7926 96.9777 37.9818 97.2192 38.123C97.4653 38.2598 97.7638 38.3281 98.1147 38.3281C98.493 38.3281 98.8599 38.2438 99.2153 38.0752C99.5708 37.902 99.8898 37.6582 100.172 37.3438C100.455 37.0293 100.678 36.6533 100.842 36.2158C101.011 35.7783 101.095 35.293 101.095 34.7598H102.517C102.517 35.2428 102.469 35.7008 102.374 36.1338C102.282 36.5667 102.134 36.9678 101.929 37.3369C101.729 37.7061 101.464 38.0365 101.136 38.3281C101.104 38.36 101.068 38.401 101.027 38.4512C100.99 38.4967 100.954 38.5355 100.917 38.5674C100.526 38.9274 100.086 39.1963 99.5981 39.374C99.1151 39.5472 98.6001 39.6338 98.0532 39.6338C97.3924 39.6338 96.8205 39.513 96.3374 39.2715C95.8543 39.0299 95.4806 38.6973 95.2163 38.2734C94.9565 37.8496 94.8267 37.3643 94.8267 36.8174C94.8267 36.4118 94.911 36.0563 95.0796 35.751C95.2482 35.4411 95.4784 35.154 95.77 34.8896C96.0662 34.6208 96.408 34.3519 96.7954 34.083ZM108.623 29.5439H110.155L113.033 37.2207L115.904 29.5439H117.435L113.634 39.4971H112.417L108.623 29.5439ZM107.926 29.5439H109.382L109.635 36.1885V39.4971H107.926V29.5439ZM116.676 29.5439H118.139V39.4971H116.423V36.1885L116.676 29.5439ZM119.798 35.8809V35.7236C119.798 35.1904 119.875 34.696 120.03 34.2402C120.185 33.7799 120.408 33.3812 120.7 33.0439C120.996 32.7021 121.356 32.4378 121.78 32.251C122.208 32.0596 122.691 31.9639 123.229 31.9639C123.772 31.9639 124.255 32.0596 124.678 32.251C125.107 32.4378 125.469 32.7021 125.765 33.0439C126.062 33.3812 126.287 33.7799 126.442 34.2402C126.597 34.696 126.675 35.1904 126.675 35.7236V35.8809C126.675 36.4141 126.597 36.9085 126.442 37.3643C126.287 37.82 126.062 38.2188 125.765 38.5605C125.469 38.8978 125.109 39.1621 124.685 39.3535C124.261 39.5404 123.781 39.6338 123.243 39.6338C122.701 39.6338 122.215 39.5404 121.787 39.3535C121.363 39.1621 121.003 38.8978 120.707 38.5605C120.411 38.2188 120.185 37.82 120.03 37.3643C119.875 36.9085 119.798 36.4141 119.798 35.8809ZM121.445 35.7236V35.8809C121.445 36.2135 121.479 36.528 121.548 36.8242C121.616 37.1204 121.723 37.3802 121.869 37.6035C122.015 37.8268 122.202 38.0023 122.429 38.1299C122.657 38.2575 122.928 38.3213 123.243 38.3213C123.548 38.3213 123.813 38.2575 124.036 38.1299C124.264 38.0023 124.451 37.8268 124.596 37.6035C124.742 37.3802 124.849 37.1204 124.918 36.8242C124.991 36.528 125.027 36.2135 125.027 35.8809V35.7236C125.027 35.3955 124.991 35.0856 124.918 34.7939C124.849 34.4977 124.74 34.2357 124.59 34.0078C124.444 33.7799 124.257 33.6022 124.029 33.4746C123.806 33.3424 123.539 33.2764 123.229 33.2764C122.919 33.2764 122.65 33.3424 122.423 33.4746C122.199 33.6022 122.015 33.7799 121.869 34.0078C121.723 34.2357 121.616 34.4977 121.548 34.7939C121.479 35.0856 121.445 35.3955 121.445 35.7236ZM131.546 32.1006V33.3037H127.376V32.1006H131.546ZM128.579 30.2891H130.227V37.4531C130.227 37.681 130.259 37.8564 130.322 37.9795C130.391 38.098 130.484 38.1777 130.603 38.2188C130.721 38.2598 130.86 38.2803 131.02 38.2803C131.134 38.2803 131.243 38.2734 131.348 38.2598C131.453 38.2461 131.537 38.2324 131.601 38.2188L131.608 39.4766C131.471 39.5176 131.311 39.554 131.129 39.5859C130.951 39.6178 130.746 39.6338 130.514 39.6338C130.136 39.6338 129.801 39.5677 129.509 39.4355C129.217 39.2988 128.989 39.0778 128.825 38.7725C128.661 38.4671 128.579 38.0615 128.579 37.5557V30.2891ZM132.439 35.8809V35.7236C132.439 35.1904 132.516 34.696 132.671 34.2402C132.826 33.7799 133.05 33.3812 133.341 33.0439C133.638 32.7021 133.998 32.4378 134.421 32.251C134.85 32.0596 135.333 31.9639 135.871 31.9639C136.413 31.9639 136.896 32.0596 137.32 32.251C137.748 32.4378 138.111 32.7021 138.407 33.0439C138.703 33.3812 138.929 33.7799 139.083 34.2402C139.238 34.696 139.316 35.1904 139.316 35.7236V35.8809C139.316 36.4141 139.238 36.9085 139.083 37.3643C138.929 37.82 138.703 38.2188 138.407 38.5605C138.111 38.8978 137.75 39.1621 137.327 39.3535C136.903 39.5404 136.422 39.6338 135.884 39.6338C135.342 39.6338 134.857 39.5404 134.428 39.3535C134.004 39.1621 133.644 38.8978 133.348 38.5605C133.052 38.2188 132.826 37.82 132.671 37.3643C132.516 36.9085 132.439 36.4141 132.439 35.8809ZM134.086 35.7236V35.8809C134.086 36.2135 134.121 36.528 134.189 36.8242C134.257 37.1204 134.364 37.3802 134.51 37.6035C134.656 37.8268 134.843 38.0023 135.071 38.1299C135.299 38.2575 135.57 38.3213 135.884 38.3213C136.19 38.3213 136.454 38.2575 136.677 38.1299C136.905 38.0023 137.092 37.8268 137.238 37.6035C137.384 37.3802 137.491 37.1204 137.559 36.8242C137.632 36.528 137.668 36.2135 137.668 35.8809V35.7236C137.668 35.3955 137.632 35.0856 137.559 34.7939C137.491 34.4977 137.381 34.2357 137.231 34.0078C137.085 33.7799 136.898 33.6022 136.67 33.4746C136.447 33.3424 136.181 33.2764 135.871 33.2764C135.561 33.2764 135.292 33.3424 135.064 33.4746C134.841 33.6022 134.656 33.7799 134.51 34.0078C134.364 34.2357 134.257 34.4977 134.189 34.7939C134.121 35.0856 134.086 35.3955 134.086 35.7236ZM142.451 33.5088V39.4971H140.804V32.1006H142.376L142.451 33.5088ZM144.714 32.0527L144.7 33.584C144.6 33.5658 144.49 33.5521 144.372 33.543C144.258 33.5339 144.144 33.5293 144.03 33.5293C143.748 33.5293 143.499 33.5703 143.285 33.6523C143.071 33.7298 142.891 33.8438 142.745 33.9941C142.604 34.14 142.494 34.3177 142.417 34.5273C142.339 34.737 142.294 34.9717 142.28 35.2314L141.904 35.2588C141.904 34.7939 141.95 34.3633 142.041 33.9668C142.132 33.5703 142.269 33.2217 142.451 32.9209C142.638 32.6201 142.87 32.3854 143.148 32.2168C143.431 32.0482 143.757 31.9639 144.126 31.9639C144.226 31.9639 144.333 31.973 144.447 31.9912C144.566 32.0094 144.655 32.0299 144.714 32.0527Z" fill="#49454F"/>
</g>
<defs>
<filter id="filter0_dd_690_38977" x="0.92627" y="-0.50293" width="180" height="72" filterUnits="userSpaceOnUse" color-interpolation-filters="sRGB">
<feFlood flood-opacity="0" result="BackgroundImageFix"/>
<feColorMatrix in="SourceAlpha" type="matrix" values="0 0 0 0 0 0 0 0 0 0 0 0 0 0 0 0 0 0 127 0" result="hardAlpha"/>
<feMorphology radius="1" operator="dilate" in="SourceAlpha" result="effect1_dropShadow_690_38977"/>
<feOffset dy="1"/>
<feGaussianBlur stdDeviation="1.5"/>
<feColorMatrix type="matrix" values="0 0 0 0 0 0 0 0 0 0 0 0 0 0 0 0 0 0 0.15 0"/>
<feBlend mode="normal" in2="BackgroundImageFix" result="effect1_dropShadow_690_38977"/>
<feColorMatrix in="SourceAlpha" type="matrix" values="0 0 0 0 0 0 0 0 0 0 0 0 0 0 0 0 0 0 127 0" result="hardAlpha"/>
<feOffset dy="1"/>
<feGaussianBlur stdDeviation="1"/>
<feColorMatrix type="matrix" values="0 0 0 0 0 0 0 0 0 0 0 0 0 0 0 0 0 0 0.3 0"/>
<feBlend mode="normal" in2="effect1_dropShadow_690_38977" result="effect2_dropShadow_690_38977"/>
<feBlend mode="normal" in="SourceGraphic" in2="effect2_dropShadow_690_38977" result="shape"/>
</filter>
<clipPath id="clip0_690_38977">
<rect width="18" height="18" fill="white" transform="translate(28.9263 25.4971)"/>
</clipPath>
</defs>
</svg>
