<svg width="194" height="73" viewBox="0 0 194 73" fill="none" xmlns="http://www.w3.org/2000/svg">
<g filter="url(#filter0_dd_690_38919)">
<rect x="4.92615" y="3.49707" width="185" height="64" rx="8" fill="#F2F2F2"/>
<g clip-path="url(#clip0_690_38919)">
<path d="M46.926 35.3495C46.9268 33.6835 46.4469 32.0514 45.5422 30.6431C45.6056 30.5803 45.668 30.519 45.729 30.4583L46.4146 31.1327L46.8386 30.7156L46.153 30.0411C46.5544 29.6442 46.8386 29.3616 46.8386 29.3616C46.8946 29.3063 46.9261 29.2314 46.9261 29.1533C46.9261 29.0753 46.8946 29.0004 46.8386 28.9451L44.4391 26.5844C44.4113 26.557 44.3782 26.5352 44.3418 26.5204C44.3054 26.5056 44.2664 26.4979 44.2271 26.4979C44.1877 26.4979 44.1487 26.5056 44.1123 26.5204C44.0759 26.5352 44.0429 26.557 44.015 26.5844L43.3267 27.2602L42.6391 26.5837L42.215 27.0009L42.9027 27.6774L42.7162 27.8609C41.2835 26.9694 39.623 26.4965 37.9277 26.4971C32.9662 26.4971 28.9295 30.4684 28.9295 35.3495C28.9305 36.2906 29.0846 37.2254 29.3857 38.1186C28.5918 39.7093 28.8277 41.6751 30.0823 43.0385C30.4902 43.4858 30.987 43.8459 31.5421 44.0966C32.0972 44.3473 32.6987 44.4833 33.3093 44.4961C33.3474 44.4961 33.3861 44.4961 33.4245 44.4961C34.2072 44.4967 34.9763 44.2946 35.6543 43.9099C36.3964 44.1023 37.1604 44.2004 37.9277 44.202C42.8893 44.202 46.926 40.2307 46.926 35.3495ZM38.2277 43.6044V40.1258C38.4856 39.7358 38.8332 39.4111 39.2424 39.1778C39.5893 38.9829 39.9005 38.7321 40.1631 38.4359C40.2526 38.3356 40.3364 38.2304 40.414 38.1209C40.4811 38.0257 40.5432 37.9272 40.6002 37.8259C42.5719 38.4588 43.8502 39.7302 43.9197 41.1331C42.4161 42.6457 40.3786 43.5312 38.2294 43.6061L38.2277 43.6044ZM42.3028 31.8085L40.2245 33.8535C39.9889 33.5744 39.7114 33.3322 39.4018 33.1352L41.5271 31.0444L42.3028 31.8085ZM42.7268 32.2257L43.1145 32.6071C43.1426 32.6346 43.1758 32.6564 43.2122 32.6715C43.4021 32.7481 43.4021 32.7491 44.1302 32.0345L44.2313 31.9353L44.9149 32.6075L45.3389 32.1903L44.6554 31.5182L45.1113 31.0686C45.8539 32.2737 46.2688 33.6464 46.3162 35.0548H40.8871C40.8093 34.8081 40.7041 34.5706 40.5734 34.3466L42.7268 32.2257ZM41.0197 35.6446H46.3189C46.2557 37.4391 45.597 39.1639 44.4435 40.5554C44.1114 39.1445 42.7807 37.9203 40.848 37.2843C41.0349 36.7589 41.0936 36.1977 41.0194 35.646L41.0197 35.6446ZM44.2265 27.2093L46.2027 29.1535L44.9505 30.3922C44.0154 31.3152 43.554 31.7681 43.3305 31.9856L41.3512 30.0381L44.2265 27.2093ZM41.827 28.7356L41.1394 28.0592L40.7153 28.4763L41.403 29.1528L40.7153 29.8293C40.6875 29.8567 40.6653 29.8892 40.6503 29.925C40.6352 29.9608 40.6274 29.9991 40.6274 30.0379C40.6274 30.0766 40.6352 30.115 40.6503 30.1508C40.6653 30.1866 40.6875 30.2191 40.7153 30.2465L41.103 30.6282L38.8468 32.8479C38.6469 32.7652 38.4398 32.7004 38.228 32.6543V27.0974C39.6615 27.1438 41.0585 27.553 42.2843 28.2854L41.827 28.7356ZM37.6278 27.0947V32.5707C36.9634 32.5391 36.3032 32.6898 35.7209 33.0061C33.5071 32.4402 32.0118 31.0784 31.9361 29.5663C33.4397 28.0536 35.4772 27.1682 37.6264 27.0933L37.6278 27.0947ZM29.9719 37.2279C29.9136 37.2954 29.8573 37.3662 29.8029 37.4404C29.6476 36.8533 29.559 36.251 29.5389 35.6446H32.7691C32.6488 35.6923 32.5252 35.7313 32.3992 35.7613C31.4491 35.9766 30.5967 36.4917 29.9719 37.2279ZM33.7162 35.0544H29.5365C29.5995 33.2601 30.2581 31.5353 31.4116 30.1439C31.7544 31.5738 33.1297 32.8142 35.0898 33.4394C35.0274 33.493 34.964 33.545 34.905 33.6026C34.7073 33.7974 34.5332 34.0141 34.3864 34.2485C34.2017 34.5461 33.9761 34.8173 33.7162 35.0544ZM33.3241 43.9056C32.7947 43.8944 32.2733 43.7766 31.7921 43.5592C31.3109 43.3419 30.8801 43.0297 30.5265 42.6419C29.4169 41.4366 29.2267 39.6867 29.9667 38.2946C29.9667 38.2912 29.9715 38.2889 29.9733 38.2855C30.1002 38.0443 30.2535 37.8175 30.4305 37.609C30.9719 36.9706 31.7105 36.5239 32.5339 36.337C33.4739 36.1231 34.313 35.4918 34.8971 34.5587C35.0194 34.3635 35.1645 34.1831 35.3294 34.0212C35.4018 33.9498 35.478 33.8823 35.5577 33.8188C35.5892 33.7939 35.6228 33.7719 35.655 33.748C35.7037 33.7122 35.752 33.6758 35.8024 33.6431C35.8449 33.6151 35.8898 33.5912 35.9337 33.5659C35.9776 33.5406 36.0177 33.5156 36.0612 33.4934C36.1113 33.4677 36.1641 33.4452 36.2148 33.4222C36.2542 33.405 36.2933 33.3865 36.3331 33.3706C36.3879 33.3487 36.4445 33.3302 36.5004 33.3119C36.5391 33.2991 36.5778 33.286 36.6173 33.2748C36.6742 33.2587 36.7321 33.2448 36.7886 33.232C36.8294 33.2229 36.8699 33.2138 36.911 33.2064C36.9676 33.1966 37.0248 33.1885 37.0824 33.1814C37.1277 33.1757 37.1726 33.1713 37.2195 33.1679C37.2723 33.1639 37.3258 33.1615 37.3793 33.1602C37.4591 33.1585 37.5383 33.1568 37.6192 33.1602C38.0432 33.1822 38.4575 33.2931 38.8344 33.4855C39.2112 33.6779 39.5419 33.9473 39.8042 34.2758C40.6235 35.2875 40.6725 36.7271 39.9228 37.78C39.8576 37.8715 39.7876 37.9595 39.713 38.0437C39.4939 38.2915 39.2341 38.5013 38.9445 38.6646C38.5118 38.9117 38.1349 39.2432 37.837 39.6387C37.5391 40.0342 37.3265 40.4853 37.212 40.9645C37.191 41.0506 37.1672 41.1356 37.1407 41.2195C37.138 41.2286 37.1342 41.2377 37.1311 41.2468C37.103 41.3335 37.0711 41.4191 37.0368 41.5034C36.8869 41.8688 36.6807 42.2093 36.4253 42.5128C36.3468 42.6058 36.2659 42.6969 36.1781 42.7826C36.071 42.8877 35.9575 42.9862 35.8381 43.0776L35.8323 43.0817C35.7099 43.1754 35.5823 43.2623 35.45 43.342C34.8109 43.7258 34.0734 43.9214 33.3247 43.9059L33.3241 43.9056ZM36.6022 43.2004C36.9769 42.8311 37.2824 42.3996 37.5044 41.9256C37.5501 41.8305 37.5911 41.7339 37.6275 41.6356V43.6041C37.1873 43.589 36.749 43.5402 36.3166 43.458C36.4165 43.3755 36.5117 43.2896 36.6022 43.2004Z" fill="#09A387"/>
<path d="M32.0167 39.3941L32.4408 38.9766L34.5404 41.0421L34.1163 41.4596L32.0167 39.3941Z" fill="#09A387"/>
<path d="M35.2284 40.0713C35.5843 40.0713 35.9323 39.9674 36.2282 39.7729C36.5242 39.5783 36.7548 39.3018 36.891 38.9783C37.0272 38.6548 37.0629 38.2988 36.9934 37.9554C36.924 37.6119 36.7526 37.2964 36.5009 37.0488C36.2492 36.8012 35.9286 36.6326 35.5795 36.5643C35.2304 36.496 34.8685 36.531 34.5397 36.665C34.2108 36.799 33.9298 37.026 33.732 37.3171C33.5343 37.6083 33.4287 37.9506 33.4287 38.3008C33.4293 38.7702 33.619 39.2202 33.9564 39.5521C34.2938 39.884 34.7512 40.0707 35.2284 40.0713ZM35.2284 37.1204C35.4657 37.1204 35.6976 37.1897 35.8949 37.3194C36.0922 37.4491 36.246 37.6334 36.3368 37.8491C36.4276 38.0648 36.4514 38.3021 36.4051 38.531C36.3588 38.76 36.2445 38.9703 36.0767 39.1354C35.9089 39.3005 35.6952 39.4129 35.4624 39.4584C35.2297 39.504 34.9885 39.4806 34.7692 39.3912C34.55 39.3019 34.3626 39.1506 34.2308 38.9565C34.099 38.7624 34.0286 38.5342 34.0286 38.3008C34.0286 37.9877 34.155 37.6875 34.38 37.4661C34.605 37.2448 34.9102 37.1204 35.2284 37.1204Z" fill="#09A387"/>
<path d="M42.2148 29.8294L42.8147 29.2393L43.2388 29.6568L42.6389 30.2466L42.2148 29.8294Z" fill="#09A387"/>
<path d="M43.4146 28.6494L44.0144 28.0596L44.4385 28.4767L43.8386 29.0669L43.4146 28.6494Z" fill="#09A387"/>
<path d="M43.1146 30.7142L43.7145 30.124L44.1385 30.5415L43.5387 31.1313L43.1146 30.7142Z" fill="#09A387"/>
<path d="M44.3143 29.5345L44.9142 28.9443L45.3383 29.3618L44.7384 29.9517L44.3143 29.5345Z" fill="#09A387"/>
</g>
<path d="M62.5299 34.7002V36.0605H57.2457V34.7002H62.5299ZM57.6695 30.5439V40.4971H55.9537V30.5439H57.6695ZM63.8492 30.5439V40.4971H62.1402V30.5439H63.8492ZM65.5146 36.8809V36.7236C65.5146 36.1904 65.5921 35.696 65.747 35.2402C65.902 34.7799 66.1253 34.3812 66.417 34.0439C66.7132 33.7021 67.0732 33.4378 67.497 33.251C67.9254 33.0596 68.4085 32.9639 68.9463 32.9639C69.4886 32.9639 69.9717 33.0596 70.3955 33.251C70.8239 33.4378 71.1862 33.7021 71.4824 34.0439C71.7786 34.3812 72.0042 34.7799 72.1592 35.2402C72.3141 35.696 72.3916 36.1904 72.3916 36.7236V36.8809C72.3916 37.4141 72.3141 37.9085 72.1592 38.3643C72.0042 38.82 71.7786 39.2188 71.4824 39.5605C71.1862 39.8978 70.8261 40.1621 70.4023 40.3535C69.9785 40.5404 69.4977 40.6338 68.9599 40.6338C68.4176 40.6338 67.9323 40.5404 67.5039 40.3535C67.0801 40.1621 66.72 39.8978 66.4238 39.5605C66.1276 39.2188 65.902 38.82 65.747 38.3643C65.5921 37.9085 65.5146 37.4141 65.5146 36.8809ZM67.1621 36.7236V36.8809C67.1621 37.2135 67.1963 37.528 67.2646 37.8242C67.333 38.1204 67.4401 38.3802 67.5859 38.6035C67.7317 38.8268 67.9186 39.0023 68.1465 39.1299C68.3743 39.2575 68.6455 39.3213 68.9599 39.3213C69.2653 39.3213 69.5296 39.2575 69.7529 39.1299C69.9808 39.0023 70.1676 38.8268 70.3135 38.6035C70.4593 38.3802 70.5664 38.1204 70.6347 37.8242C70.7077 37.528 70.7441 37.2135 70.7441 36.8809V36.7236C70.7441 36.3955 70.7077 36.0856 70.6347 35.7939C70.5664 35.4977 70.457 35.2357 70.3066 35.0078C70.1608 34.7799 69.9739 34.6022 69.7461 34.4746C69.5228 34.3424 69.2562 34.2764 68.9463 34.2764C68.6364 34.2764 68.3675 34.3424 68.1396 34.4746C67.9163 34.6022 67.7317 34.7799 67.5859 35.0078C67.4401 35.2357 67.333 35.4977 67.2646 35.7939C67.1963 36.0856 67.1621 36.3955 67.1621 36.7236ZM73.8793 29.9971H75.5267V38.918L75.3695 40.4971H73.8793V29.9971ZM80.3529 36.7305V36.874C80.3529 37.4209 80.2914 37.9245 80.1683 38.3848C80.0498 38.8405 79.8676 39.237 79.6215 39.5742C79.3799 39.9115 79.0791 40.1735 78.7191 40.3604C78.3636 40.5426 77.9512 40.6338 77.4818 40.6338C77.0215 40.6338 76.6205 40.5472 76.2787 40.374C75.9369 40.2008 75.6498 39.9548 75.4174 39.6357C75.1895 39.3167 75.0049 38.9362 74.8636 38.4941C74.7224 38.0521 74.6221 37.5645 74.5629 37.0312V36.5732C74.6221 36.0355 74.7224 35.5479 74.8636 35.1104C75.0049 34.6683 75.1895 34.2878 75.4174 33.9688C75.6498 33.6452 75.9346 33.3968 76.2719 33.2236C76.6136 33.0505 77.0124 32.9639 77.4681 32.9639C77.9421 32.9639 78.3591 33.055 78.7191 33.2373C79.0837 33.4196 79.3868 33.6794 79.6283 34.0166C79.8698 34.3493 80.0498 34.7458 80.1683 35.2061C80.2914 35.6663 80.3529 36.1745 80.3529 36.7305ZM78.7054 36.874V36.7305C78.7054 36.3978 78.6781 36.0856 78.6234 35.7939C78.5687 35.4977 78.4776 35.238 78.35 35.0146C78.2269 34.7913 78.0583 34.6159 77.8441 34.4883C77.6345 34.3561 77.3724 34.29 77.058 34.29C76.7663 34.29 76.5157 34.3402 76.306 34.4404C76.0964 34.5407 75.9209 34.6774 75.7797 34.8506C75.6384 35.0238 75.5267 35.2243 75.4447 35.4521C75.3672 35.68 75.3148 35.9261 75.2875 36.1904V37.4277C75.3285 37.7695 75.4151 38.084 75.5472 38.3711C75.684 38.6536 75.8754 38.8815 76.1215 39.0547C76.3676 39.2233 76.6843 39.3076 77.0717 39.3076C77.377 39.3076 77.6345 39.2461 77.8441 39.123C78.0538 39 78.2201 38.8291 78.3431 38.6104C78.4707 38.387 78.5619 38.1273 78.6166 37.8311C78.6758 37.5348 78.7054 37.2158 78.7054 36.874ZM83.6111 33.1006V40.4971H81.9568V33.1006H83.6111ZM81.8474 31.1592C81.8474 30.9085 81.9295 30.7012 82.0935 30.5371C82.2621 30.3685 82.4946 30.2842 82.7908 30.2842C83.0825 30.2842 83.3126 30.3685 83.4812 30.5371C83.6498 30.7012 83.7342 30.9085 83.7342 31.1592C83.7342 31.4053 83.6498 31.6104 83.4812 31.7744C83.3126 31.9385 83.0825 32.0205 82.7908 32.0205C82.4946 32.0205 82.2621 31.9385 82.0935 31.7744C81.9295 31.6104 81.8474 31.4053 81.8474 31.1592ZM90.8043 35.083L92.5201 33.9277C92.8072 33.7363 93.0123 33.5495 93.1353 33.3672C93.2584 33.1803 93.3199 32.9479 93.3199 32.6699C93.3199 32.4329 93.2288 32.2142 93.0465 32.0137C92.8642 31.8132 92.6067 31.7129 92.274 31.7129C92.0416 31.7129 91.8456 31.7676 91.6861 31.877C91.5266 31.9818 91.4058 32.123 91.3238 32.3008C91.2463 32.474 91.2076 32.6676 91.2076 32.8818C91.2076 33.0869 91.26 33.2988 91.3648 33.5176C91.4696 33.7318 91.6132 33.9574 91.7955 34.1943C91.9778 34.4268 92.1829 34.6774 92.4107 34.9463L97.1138 40.4971H95.2066L91.3648 35.9785C91.0321 35.5775 90.7382 35.2106 90.483 34.8779C90.2278 34.5407 90.0295 34.2148 89.8883 33.9004C89.747 33.5814 89.6763 33.2533 89.6763 32.916C89.6763 32.3965 89.7834 31.9499 89.9976 31.5762C90.2118 31.2025 90.5149 30.9154 90.9068 30.7148C91.2987 30.5098 91.7567 30.4072 92.2808 30.4072C92.7867 30.4072 93.2219 30.5098 93.5865 30.7148C93.9556 30.9154 94.2382 31.182 94.4342 31.5146C94.6347 31.8473 94.7349 32.2119 94.7349 32.6084C94.7349 32.9229 94.678 33.21 94.564 33.4697C94.4501 33.7295 94.2929 33.9665 94.0924 34.1807C93.8918 34.3949 93.6594 34.5977 93.3951 34.7891L91.3101 36.3066C91.0686 36.5026 90.8886 36.6917 90.7701 36.874C90.6562 37.0518 90.581 37.2158 90.5445 37.3662C90.508 37.5166 90.4898 37.6488 90.4898 37.7627C90.4898 38.0544 90.5513 38.3187 90.6744 38.5557C90.802 38.7926 90.9866 38.9818 91.2281 39.123C91.4742 39.2598 91.7727 39.3281 92.1236 39.3281C92.5019 39.3281 92.8687 39.2438 93.2242 39.0752C93.5797 38.902 93.8987 38.6582 94.1812 38.3438C94.4638 38.0293 94.6871 37.6533 94.8511 37.2158C95.0198 36.7783 95.1041 36.293 95.1041 35.7598H96.526C96.526 36.2428 96.4781 36.7008 96.3824 37.1338C96.2913 37.5667 96.1431 37.9678 95.9381 38.3369C95.7375 38.7061 95.4732 39.0365 95.1451 39.3281C95.1132 39.36 95.0767 39.401 95.0357 39.4512C94.9993 39.4967 94.9628 39.5355 94.9263 39.5674C94.5344 39.9274 94.0946 40.1963 93.607 40.374C93.1239 40.5472 92.609 40.6338 92.0621 40.6338C91.4013 40.6338 90.8293 40.513 90.3463 40.2715C89.8632 40.0299 89.4895 39.6973 89.2252 39.2734C88.9654 38.8496 88.8355 38.3643 88.8355 37.8174C88.8355 37.4118 88.9198 37.0563 89.0885 36.751C89.2571 36.4411 89.4872 36.154 89.7789 35.8896C90.0751 35.6208 90.4169 35.3519 90.8043 35.083ZM109.871 35.2471V35.7939C109.871 36.5459 109.773 37.2204 109.578 37.8174C109.382 38.4144 109.101 38.9225 108.737 39.3418C108.377 39.7611 107.944 40.0824 107.438 40.3057C106.932 40.5244 106.371 40.6338 105.756 40.6338C105.146 40.6338 104.587 40.5244 104.081 40.3057C103.58 40.0824 103.145 39.7611 102.776 39.3418C102.407 38.9225 102.12 38.4144 101.914 37.8174C101.714 37.2204 101.614 36.5459 101.614 35.7939V35.2471C101.614 34.4951 101.714 33.8229 101.914 33.2305C102.115 32.6335 102.398 32.1253 102.762 31.7061C103.131 31.2822 103.566 30.9609 104.068 30.7422C104.574 30.5189 105.132 30.4072 105.743 30.4072C106.358 30.4072 106.918 30.5189 107.424 30.7422C107.93 30.9609 108.365 31.2822 108.73 31.7061C109.094 32.1253 109.375 32.6335 109.571 33.2305C109.771 33.8229 109.871 34.4951 109.871 35.2471ZM108.156 35.7939V35.2334C108.156 34.6774 108.101 34.1875 107.992 33.7637C107.887 33.3353 107.73 32.9775 107.52 32.6904C107.315 32.3988 107.062 32.18 106.761 32.0342C106.46 31.8838 106.121 31.8086 105.743 31.8086C105.364 31.8086 105.027 31.8838 104.731 32.0342C104.435 32.18 104.182 32.3988 103.972 32.6904C103.767 32.9775 103.61 33.3353 103.5 33.7637C103.391 34.1875 103.336 34.6774 103.336 35.2334V35.7939C103.336 36.3499 103.391 36.8421 103.5 37.2705C103.61 37.6989 103.769 38.0612 103.979 38.3574C104.193 38.6491 104.448 38.8701 104.745 39.0205C105.041 39.1663 105.378 39.2393 105.756 39.2393C106.139 39.2393 106.479 39.1663 106.775 39.0205C107.071 38.8701 107.322 38.6491 107.527 38.3574C107.732 38.0612 107.887 37.6989 107.992 37.2705C108.101 36.8421 108.156 36.3499 108.156 35.7939ZM113.287 29.9971V40.4971H111.633V29.9971H113.287ZM119.361 39.0137V35.4863C119.361 35.222 119.314 34.9941 119.218 34.8027C119.122 34.6113 118.976 34.4632 118.78 34.3584C118.589 34.2536 118.348 34.2012 118.056 34.2012C117.787 34.2012 117.555 34.2467 117.359 34.3379C117.163 34.429 117.01 34.5521 116.901 34.707C116.791 34.862 116.736 35.0374 116.736 35.2334H115.096C115.096 34.9417 115.167 34.6592 115.308 34.3857C115.449 34.1123 115.654 33.8685 115.923 33.6543C116.192 33.4401 116.513 33.2715 116.887 33.1484C117.261 33.0254 117.68 32.9639 118.145 32.9639C118.701 32.9639 119.193 33.0573 119.621 33.2441C120.054 33.431 120.394 33.7135 120.64 34.0918C120.89 34.4655 121.016 34.9349 121.016 35.5V38.7881C121.016 39.1253 121.039 39.4284 121.084 39.6973C121.134 39.9616 121.205 40.1917 121.296 40.3877V40.4971H119.608C119.53 40.3193 119.469 40.0938 119.423 39.8203C119.382 39.5423 119.361 39.2734 119.361 39.0137ZM119.601 35.999L119.614 37.0176H118.432C118.126 37.0176 117.858 37.0472 117.625 37.1064C117.393 37.1611 117.199 37.2432 117.044 37.3525C116.889 37.4619 116.773 37.5941 116.695 37.749C116.618 37.904 116.579 38.0794 116.579 38.2754C116.579 38.4714 116.625 38.6514 116.716 38.8154C116.807 38.9749 116.939 39.1003 117.112 39.1914C117.29 39.2826 117.504 39.3281 117.755 39.3281C118.092 39.3281 118.386 39.2598 118.637 39.123C118.892 38.9818 119.093 38.8109 119.238 38.6104C119.384 38.4053 119.462 38.2116 119.471 38.0293L120.004 38.7607C119.949 38.9476 119.856 39.1481 119.724 39.3623C119.592 39.5765 119.418 39.7816 119.204 39.9775C118.995 40.1689 118.742 40.3262 118.445 40.4492C118.154 40.5723 117.817 40.6338 117.434 40.6338C116.951 40.6338 116.52 40.5381 116.142 40.3467C115.764 40.1507 115.467 39.8887 115.253 39.5605C115.039 39.2279 114.932 38.8519 114.932 38.4326C114.932 38.0407 115.005 37.6943 115.151 37.3936C115.301 37.0882 115.52 36.833 115.807 36.6279C116.098 36.4229 116.454 36.2679 116.873 36.1631C117.292 36.0537 117.771 35.999 118.309 35.999H119.601ZM124.465 29.9971V40.4971H122.825V29.9971H124.465ZM124.178 36.5254L123.645 36.5186C123.65 36.0081 123.72 35.5365 123.857 35.1035C123.998 34.6706 124.194 34.2946 124.445 33.9756C124.7 33.652 125.005 33.4036 125.361 33.2305C125.716 33.0527 126.111 32.9639 126.544 32.9639C126.908 32.9639 127.236 33.014 127.528 33.1143C127.824 33.2145 128.079 33.3763 128.294 33.5996C128.508 33.8184 128.67 34.1055 128.779 34.4609C128.893 34.8118 128.95 35.2402 128.95 35.7461V40.4971H127.295V35.7324C127.295 35.377 127.243 35.0944 127.138 34.8848C127.038 34.6751 126.89 34.5247 126.694 34.4336C126.498 34.3379 126.259 34.29 125.976 34.29C125.68 34.29 125.418 34.3493 125.19 34.4678C124.967 34.5863 124.78 34.748 124.629 34.9531C124.479 35.1582 124.365 35.3952 124.288 35.6641C124.215 35.9329 124.178 36.2201 124.178 36.5254ZM132.372 34.5088V40.4971H130.725V33.1006H132.297L132.372 34.5088ZM134.635 33.0527L134.621 34.584C134.521 34.5658 134.411 34.5521 134.293 34.543C134.179 34.5339 134.065 34.5293 133.951 34.5293C133.669 34.5293 133.42 34.5703 133.206 34.6523C132.992 34.7298 132.812 34.8438 132.666 34.9941C132.525 35.14 132.415 35.3177 132.338 35.5273C132.26 35.737 132.215 35.9717 132.201 36.2314L131.825 36.2588C131.825 35.7939 131.871 35.3633 131.962 34.9668C132.053 34.5703 132.19 34.2217 132.372 33.9209C132.559 33.6201 132.791 33.3854 133.069 33.2168C133.352 33.0482 133.678 32.9639 134.047 32.9639C134.147 32.9639 134.254 32.973 134.368 32.9912C134.487 33.0094 134.575 33.0299 134.635 33.0527ZM139.691 39.0137V35.4863C139.691 35.222 139.643 34.9941 139.547 34.8027C139.452 34.6113 139.306 34.4632 139.11 34.3584C138.918 34.2536 138.677 34.2012 138.385 34.2012C138.116 34.2012 137.884 34.2467 137.688 34.3379C137.492 34.429 137.339 34.5521 137.23 34.707C137.12 34.862 137.066 35.0374 137.066 35.2334H135.425C135.425 34.9417 135.496 34.6592 135.637 34.3857C135.778 34.1123 135.983 33.8685 136.252 33.6543C136.521 33.4401 136.842 33.2715 137.216 33.1484C137.59 33.0254 138.009 32.9639 138.474 32.9639C139.03 32.9639 139.522 33.0573 139.951 33.2441C140.384 33.431 140.723 33.7135 140.969 34.0918C141.22 34.4655 141.345 34.9349 141.345 35.5V38.7881C141.345 39.1253 141.368 39.4284 141.413 39.6973C141.464 39.9616 141.534 40.1917 141.625 40.3877V40.4971H139.937C139.859 40.3193 139.798 40.0938 139.752 39.8203C139.711 39.5423 139.691 39.2734 139.691 39.0137ZM139.93 35.999L139.944 37.0176H138.761C138.456 37.0176 138.187 37.0472 137.954 37.1064C137.722 37.1611 137.528 37.2432 137.373 37.3525C137.218 37.4619 137.102 37.5941 137.025 37.749C136.947 37.904 136.909 38.0794 136.909 38.2754C136.909 38.4714 136.954 38.6514 137.045 38.8154C137.136 38.9749 137.269 39.1003 137.442 39.1914C137.62 39.2826 137.834 39.3281 138.084 39.3281C138.422 39.3281 138.716 39.2598 138.966 39.123C139.221 38.9818 139.422 38.8109 139.568 38.6104C139.714 38.4053 139.791 38.2116 139.8 38.0293L140.333 38.7607C140.279 38.9476 140.185 39.1481 140.053 39.3623C139.921 39.5765 139.748 39.7816 139.534 39.9775C139.324 40.1689 139.071 40.3262 138.775 40.4492C138.483 40.5723 138.146 40.6338 137.763 40.6338C137.28 40.6338 136.849 40.5381 136.471 40.3467C136.093 40.1507 135.797 39.8887 135.582 39.5605C135.368 39.2279 135.261 38.8519 135.261 38.4326C135.261 38.0407 135.334 37.6943 135.48 37.3936C135.63 37.0882 135.849 36.833 136.136 36.6279C136.428 36.4229 136.783 36.2679 137.203 36.1631C137.622 36.0537 138.1 35.999 138.638 35.999H139.93ZM147.905 33.1006H149.402V40.292C149.402 40.9574 149.261 41.5225 148.978 41.9873C148.696 42.4521 148.302 42.8053 147.796 43.0469C147.29 43.293 146.704 43.416 146.039 43.416C145.756 43.416 145.442 43.375 145.095 43.293C144.754 43.2109 144.421 43.0788 144.097 42.8965C143.778 42.7188 143.512 42.484 143.298 42.1924L144.07 41.2217C144.334 41.5361 144.626 41.7663 144.945 41.9121C145.264 42.0579 145.599 42.1309 145.95 42.1309C146.328 42.1309 146.65 42.0602 146.914 41.9189C147.183 41.7822 147.39 41.5794 147.536 41.3105C147.682 41.0417 147.755 40.7135 147.755 40.3262V34.7754L147.905 33.1006ZM142.881 36.8809V36.7373C142.881 36.1768 142.949 35.6663 143.086 35.2061C143.222 34.7412 143.418 34.3424 143.674 34.0098C143.929 33.6725 144.239 33.415 144.603 33.2373C144.968 33.055 145.38 32.9639 145.841 32.9639C146.319 32.9639 146.727 33.0505 147.064 33.2236C147.406 33.3968 147.691 33.6452 147.919 33.9688C148.147 34.2878 148.324 34.6706 148.452 35.1172C148.584 35.5592 148.682 36.0514 148.746 36.5938V37.0518C148.687 37.5804 148.586 38.0635 148.445 38.501C148.304 38.9385 148.117 39.3167 147.885 39.6357C147.652 39.9548 147.365 40.2008 147.023 40.374C146.686 40.5472 146.287 40.6338 145.827 40.6338C145.376 40.6338 144.968 40.5404 144.603 40.3535C144.243 40.1667 143.933 39.9046 143.674 39.5674C143.418 39.2301 143.222 38.8337 143.086 38.3779C142.949 37.9176 142.881 37.4186 142.881 36.8809ZM144.528 36.7373V36.8809C144.528 37.2181 144.56 37.5326 144.624 37.8242C144.692 38.1159 144.795 38.3734 144.931 38.5967C145.073 38.8154 145.25 38.9886 145.465 39.1162C145.683 39.2393 145.941 39.3008 146.237 39.3008C146.624 39.3008 146.941 39.2188 147.187 39.0547C147.438 38.8906 147.629 38.6696 147.762 38.3916C147.898 38.109 147.994 37.7946 148.049 37.4482V36.2109C148.021 35.9421 147.964 35.6914 147.878 35.459C147.796 35.2266 147.684 35.0238 147.543 34.8506C147.401 34.6729 147.224 34.5361 147.01 34.4404C146.795 34.3402 146.542 34.29 146.251 34.29C145.955 34.29 145.697 34.3538 145.478 34.4814C145.26 34.609 145.08 34.7845 144.938 35.0078C144.802 35.2311 144.699 35.4909 144.631 35.7871C144.562 36.0833 144.528 36.4001 144.528 36.7373ZM155.381 39.0137V35.4863C155.381 35.222 155.333 34.9941 155.237 34.8027C155.142 34.6113 154.996 34.4632 154.8 34.3584C154.609 34.2536 154.367 34.2012 154.075 34.2012C153.806 34.2012 153.574 34.2467 153.378 34.3379C153.182 34.429 153.029 34.5521 152.92 34.707C152.811 34.862 152.756 35.0374 152.756 35.2334H151.115C151.115 34.9417 151.186 34.6592 151.327 34.3857C151.469 34.1123 151.674 33.8685 151.943 33.6543C152.211 33.4401 152.533 33.2715 152.906 33.1484C153.28 33.0254 153.699 32.9639 154.164 32.9639C154.72 32.9639 155.212 33.0573 155.641 33.2441C156.074 33.431 156.413 33.7135 156.659 34.0918C156.91 34.4655 157.035 34.9349 157.035 35.5V38.7881C157.035 39.1253 157.058 39.4284 157.104 39.6973C157.154 39.9616 157.224 40.1917 157.316 40.3877V40.4971H155.627C155.55 40.3193 155.488 40.0938 155.443 39.8203C155.402 39.5423 155.381 39.2734 155.381 39.0137ZM155.62 35.999L155.634 37.0176H154.451C154.146 37.0176 153.877 37.0472 153.645 37.1064C153.412 37.1611 153.219 37.2432 153.064 37.3525C152.909 37.4619 152.792 37.5941 152.715 37.749C152.638 37.904 152.599 38.0794 152.599 38.2754C152.599 38.4714 152.644 38.6514 152.736 38.8154C152.827 38.9749 152.959 39.1003 153.132 39.1914C153.31 39.2826 153.524 39.3281 153.775 39.3281C154.112 39.3281 154.406 39.2598 154.656 39.123C154.912 38.9818 155.112 38.8109 155.258 38.6104C155.404 38.4053 155.481 38.2116 155.49 38.0293L156.024 38.7607C155.969 38.9476 155.875 39.1481 155.743 39.3623C155.611 39.5765 155.438 39.7816 155.224 39.9775C155.014 40.1689 154.761 40.3262 154.465 40.4492C154.173 40.5723 153.836 40.6338 153.453 40.6338C152.97 40.6338 152.54 40.5381 152.161 40.3467C151.783 40.1507 151.487 39.8887 151.273 39.5605C151.058 39.2279 150.951 38.8519 150.951 38.4326C150.951 38.0407 151.024 37.6943 151.17 37.3936C151.32 37.0882 151.539 36.833 151.826 36.6279C152.118 36.4229 152.473 36.2679 152.893 36.1631C153.312 36.0537 153.791 35.999 154.328 35.999H155.62Z" fill="#49454F"/>
</g>
<defs>
<filter id="filter0_dd_690_38919" x="0.926147" y="0.49707" width="193" height="72" filterUnits="userSpaceOnUse" color-interpolation-filters="sRGB">
<feFlood flood-opacity="0" result="BackgroundImageFix"/>
<feColorMatrix in="SourceAlpha" type="matrix" values="0 0 0 0 0 0 0 0 0 0 0 0 0 0 0 0 0 0 127 0" result="hardAlpha"/>
<feMorphology radius="1" operator="dilate" in="SourceAlpha" result="effect1_dropShadow_690_38919"/>
<feOffset dy="1"/>
<feGaussianBlur stdDeviation="1.5"/>
<feColorMatrix type="matrix" values="0 0 0 0 0 0 0 0 0 0 0 0 0 0 0 0 0 0 0.15 0"/>
<feBlend mode="normal" in2="BackgroundImageFix" result="effect1_dropShadow_690_38919"/>
<feColorMatrix in="SourceAlpha" type="matrix" values="0 0 0 0 0 0 0 0 0 0 0 0 0 0 0 0 0 0 127 0" result="hardAlpha"/>
<feOffset dy="1"/>
<feGaussianBlur stdDeviation="1"/>
<feColorMatrix type="matrix" values="0 0 0 0 0 0 0 0 0 0 0 0 0 0 0 0 0 0 0.3 0"/>
<feBlend mode="normal" in2="effect1_dropShadow_690_38919" result="effect2_dropShadow_690_38919"/>
<feBlend mode="normal" in="SourceGraphic" in2="effect2_dropShadow_690_38919" result="shape"/>
</filter>
<clipPath id="clip0_690_38919">
<rect width="18" height="18" fill="white" transform="translate(28.9261 26.4971)"/>
</clipPath>
</defs>
</svg>
