<svg width="167" height="69" viewBox="0 0 167 69" fill="none" xmlns="http://www.w3.org/2000/svg">
<g filter="url(#filter0_dd_690_38895)">
<rect x="2.5" y="2.49707" width="160" height="64" rx="8" fill="#F2F2F2"/>
<path d="M33.0455 26.1104H28.1364C27.5715 26.1104 27.1136 26.5682 27.1136 27.1331V32.0422C27.1136 32.607 27.5715 33.0649 28.1364 33.0649H33.0455C33.6103 33.0649 34.0682 32.607 34.0682 32.0422V27.1331C34.0682 26.5682 33.6103 26.1104 33.0455 26.1104Z" stroke="#09A387" stroke-width="1.5"/>
<path d="M33.0455 35.9287H28.1364C27.5715 35.9287 27.1136 36.3866 27.1136 36.9514V41.8605C27.1136 42.4254 27.5715 42.8833 28.1364 42.8833H33.0455C33.6103 42.8833 34.0682 42.4254 34.0682 41.8605V36.9514C34.0682 36.3866 33.6103 35.9287 33.0455 35.9287Z" stroke="#09A387" stroke-width="1.5"/>
<path d="M42.8637 26.1104H37.9546C37.3898 26.1104 36.9319 26.5682 36.9319 27.1331V32.0422C36.9319 32.607 37.3898 33.0649 37.9546 33.0649H42.8637C43.4285 33.0649 43.8864 32.607 43.8864 32.0422V27.1331C43.8864 26.5682 43.4285 26.1104 42.8637 26.1104Z" stroke="#09A387" stroke-width="1.5"/>
<path d="M43.8864 39.406C43.8864 37.4855 42.3296 35.9287 40.4092 35.9287C38.4887 35.9287 36.9319 37.4855 36.9319 39.406C36.9319 41.3264 38.4887 42.8833 40.4092 42.8833C42.3296 42.8833 43.8864 41.3264 43.8864 39.406Z" stroke="#09A387" stroke-width="1.5"/>
<path d="M59.8213 38.1367V39.4971H54.8242V38.1367H59.8213ZM55.3027 29.5439V39.4971H53.5869V29.5439H55.3027ZM62.8471 32.1006V39.4971H61.1928V32.1006H62.8471ZM61.0834 30.1592C61.0834 29.9085 61.1654 29.7012 61.3295 29.5371C61.4981 29.3685 61.7305 29.2842 62.0268 29.2842C62.3184 29.2842 62.5486 29.3685 62.7172 29.5371C62.8858 29.7012 62.9701 29.9085 62.9701 30.1592C62.9701 30.4053 62.8858 30.6104 62.7172 30.7744C62.5486 30.9385 62.3184 31.0205 62.0268 31.0205C61.7305 31.0205 61.4981 30.9385 61.3295 30.7744C61.1654 30.6104 61.0834 30.4053 61.0834 30.1592ZM66.3787 28.9971V39.4971H64.7381V28.9971H66.3787ZM66.0916 35.5254L65.5584 35.5186C65.563 35.0081 65.6336 34.5365 65.7703 34.1035C65.9116 33.6706 66.1076 33.2946 66.3582 32.9756C66.6134 32.652 66.9187 32.4036 67.2742 32.2305C67.6297 32.0527 68.0239 31.9639 68.4568 31.9639C68.8214 31.9639 69.1495 32.014 69.4412 32.1143C69.7374 32.2145 69.9926 32.3763 70.2068 32.5996C70.421 32.8184 70.5828 33.1055 70.6922 33.4609C70.8061 33.8118 70.8631 34.2402 70.8631 34.7461V39.4971H69.2088V34.7324C69.2088 34.377 69.1564 34.0944 69.0516 33.8848C68.9513 33.6751 68.8032 33.5247 68.6072 33.4336C68.4113 33.3379 68.172 33.29 67.8895 33.29C67.5932 33.29 67.3312 33.3493 67.1033 33.4678C66.88 33.5863 66.6932 33.748 66.5428 33.9531C66.3924 34.1582 66.2785 34.3952 66.201 34.6641C66.1281 34.9329 66.0916 35.2201 66.0916 35.5254ZM76.801 38.0137V34.4863C76.801 34.222 76.7531 33.9941 76.6574 33.8027C76.5617 33.6113 76.4159 33.4632 76.2199 33.3584C76.0285 33.2536 75.787 33.2012 75.4953 33.2012C75.2264 33.2012 74.994 33.2467 74.798 33.3379C74.6021 33.429 74.4494 33.5521 74.34 33.707C74.2307 33.862 74.176 34.0374 74.176 34.2334H72.5354C72.5354 33.9417 72.606 33.6592 72.7473 33.3857C72.8885 33.1123 73.0936 32.8685 73.3625 32.6543C73.6314 32.4401 73.9527 32.2715 74.3264 32.1484C74.7001 32.0254 75.1193 31.9639 75.5842 31.9639C76.1402 31.9639 76.6324 32.0573 77.0607 32.2441C77.4937 32.431 77.8332 32.7135 78.0793 33.0918C78.3299 33.4655 78.4553 33.9349 78.4553 34.5V37.7881C78.4553 38.1253 78.4781 38.4284 78.5236 38.6973C78.5738 38.9616 78.6444 39.1917 78.7355 39.3877V39.4971H77.0471C76.9696 39.3193 76.9081 39.0938 76.8625 38.8203C76.8215 38.5423 76.801 38.2734 76.801 38.0137ZM77.0402 34.999L77.0539 36.0176H75.8713C75.5659 36.0176 75.2971 36.0472 75.0646 36.1064C74.8322 36.1611 74.6385 36.2432 74.4836 36.3525C74.3286 36.4619 74.2124 36.5941 74.135 36.749C74.0575 36.904 74.0187 37.0794 74.0187 37.2754C74.0187 37.4714 74.0643 37.6514 74.1555 37.8154C74.2466 37.9749 74.3788 38.1003 74.552 38.1914C74.7297 38.2826 74.9439 38.3281 75.1945 38.3281C75.5318 38.3281 75.8257 38.2598 76.0764 38.123C76.3316 37.9818 76.5321 37.8109 76.6779 37.6104C76.8238 37.4053 76.9012 37.2116 76.9104 37.0293L77.4436 37.7607C77.3889 37.9476 77.2954 38.1481 77.1633 38.3623C77.0311 38.5765 76.8579 38.7816 76.6437 38.9775C76.4341 39.1689 76.1812 39.3262 75.885 39.4492C75.5933 39.5723 75.2561 39.6338 74.8732 39.6338C74.3902 39.6338 73.9595 39.5381 73.5812 39.3467C73.203 39.1507 72.9068 38.8887 72.6926 38.5605C72.4784 38.2279 72.3713 37.8519 72.3713 37.4326C72.3713 37.0407 72.4442 36.6943 72.59 36.3936C72.7404 36.0882 72.9592 35.833 73.2463 35.6279C73.538 35.4229 73.8934 35.2679 74.3127 35.1631C74.732 35.0537 75.2105 34.999 75.7482 34.999H77.0402ZM83.6686 32.1006V33.3037H79.4986V32.1006H83.6686ZM80.7018 30.2891H82.3492V37.4531C82.3492 37.681 82.3811 37.8564 82.4449 37.9795C82.5133 38.098 82.6067 38.1777 82.7252 38.2188C82.8437 38.2598 82.9827 38.2803 83.1422 38.2803C83.2561 38.2803 83.3655 38.2734 83.4703 38.2598C83.5751 38.2461 83.6594 38.2324 83.7232 38.2188L83.7301 39.4766C83.5934 39.5176 83.4339 39.554 83.2516 39.5859C83.0738 39.6178 82.8687 39.6338 82.6363 39.6338C82.2581 39.6338 81.9231 39.5677 81.6314 39.4355C81.3398 39.2988 81.1119 39.0778 80.9479 38.7725C80.7838 38.4671 80.7018 38.0615 80.7018 37.5557V30.2891ZM92.7758 37.4941C92.7758 37.3301 92.7348 37.182 92.6527 37.0498C92.5707 36.9131 92.4135 36.79 92.1811 36.6807C91.9532 36.5713 91.6159 36.471 91.1693 36.3799C90.7774 36.2933 90.4174 36.1908 90.0893 36.0723C89.7657 35.9492 89.4877 35.8011 89.2553 35.6279C89.0229 35.4548 88.8428 35.2497 88.7152 35.0127C88.5876 34.7757 88.5238 34.5023 88.5238 34.1924C88.5238 33.8916 88.5899 33.6068 88.7221 33.3379C88.8542 33.069 89.0434 32.832 89.2895 32.627C89.5355 32.4219 89.834 32.2601 90.185 32.1416C90.5404 32.0231 90.9369 31.9639 91.3744 31.9639C91.9942 31.9639 92.5251 32.0687 92.9672 32.2783C93.4138 32.4834 93.7556 32.7637 93.9926 33.1191C94.2296 33.4701 94.348 33.8665 94.348 34.3086H92.7006C92.7006 34.1126 92.6505 33.9303 92.5502 33.7617C92.4545 33.5885 92.3087 33.4495 92.1127 33.3447C91.9167 33.2354 91.6706 33.1807 91.3744 33.1807C91.0919 33.1807 90.8572 33.2262 90.6703 33.3174C90.488 33.404 90.3513 33.5179 90.2602 33.6592C90.1736 33.8005 90.1303 33.9554 90.1303 34.124C90.1303 34.2471 90.1531 34.3587 90.1986 34.459C90.2488 34.5547 90.3308 34.6436 90.4447 34.7256C90.5587 34.8031 90.7136 34.876 90.9096 34.9443C91.1101 35.0127 91.3607 35.0788 91.6615 35.1426C92.2266 35.2611 92.712 35.4137 93.1176 35.6006C93.5277 35.7829 93.8422 36.0199 94.0609 36.3115C94.2797 36.5986 94.3891 36.9632 94.3891 37.4053C94.3891 37.7334 94.3184 38.0342 94.1771 38.3076C94.0404 38.5765 93.8399 38.8112 93.5756 39.0117C93.3113 39.2077 92.9945 39.3604 92.6254 39.4697C92.2608 39.5791 91.8506 39.6338 91.3949 39.6338C90.725 39.6338 90.1576 39.5153 89.6928 39.2783C89.2279 39.0368 88.8747 38.7292 88.6332 38.3555C88.3962 37.9772 88.2777 37.5853 88.2777 37.1797H89.8705C89.8887 37.485 89.973 37.7288 90.1234 37.9111C90.2784 38.0889 90.4698 38.2188 90.6977 38.3008C90.9301 38.3783 91.1693 38.417 91.4154 38.417C91.7117 38.417 91.96 38.3783 92.1605 38.3008C92.3611 38.2188 92.5137 38.1094 92.6186 37.9727C92.7234 37.8314 92.7758 37.6719 92.7758 37.4941ZM99.1922 39.6338C98.6453 39.6338 98.1508 39.5449 97.7088 39.3672C97.2713 39.1849 96.8976 38.932 96.5877 38.6084C96.2824 38.2848 96.0477 37.9043 95.8836 37.4668C95.7195 37.0293 95.6375 36.5576 95.6375 36.0518V35.7783C95.6375 35.1995 95.7218 34.6755 95.8904 34.2061C96.0591 33.7367 96.2938 33.3356 96.5945 33.0029C96.8953 32.6657 97.2508 32.4082 97.6609 32.2305C98.0711 32.0527 98.5154 31.9639 98.9939 31.9639C99.5226 31.9639 99.9852 32.0527 100.382 32.2305C100.778 32.4082 101.106 32.6589 101.366 32.9824C101.63 33.3014 101.826 33.682 101.954 34.124C102.086 34.5661 102.152 35.0537 102.152 35.5869V36.291H96.4373V35.1084H100.525V34.9785C100.516 34.6823 100.457 34.4043 100.347 34.1445C100.243 33.8848 100.081 33.6751 99.8621 33.5156C99.6434 33.3561 99.3517 33.2764 98.9871 33.2764C98.7137 33.2764 98.4699 33.3356 98.2557 33.4541C98.046 33.568 97.8706 33.7344 97.7293 33.9531C97.588 34.1719 97.4786 34.4362 97.4012 34.7461C97.3283 35.0514 97.2918 35.3955 97.2918 35.7783V36.0518C97.2918 36.3753 97.3351 36.6761 97.4217 36.9541C97.5128 37.2275 97.645 37.4668 97.8182 37.6719C97.9913 37.877 98.201 38.0387 98.4471 38.1572C98.6932 38.2712 98.9734 38.3281 99.2879 38.3281C99.6844 38.3281 100.038 38.2484 100.347 38.0889C100.657 37.9294 100.926 37.7038 101.154 37.4121L102.022 38.2529C101.863 38.4854 101.655 38.7087 101.4 38.9229C101.145 39.1325 100.833 39.3034 100.464 39.4355C100.099 39.5677 99.6753 39.6338 99.1922 39.6338ZM105.185 33.6045V39.4971H103.537V32.1006H105.089L105.185 33.6045ZM104.918 35.5254L104.358 35.5186C104.358 35.0081 104.421 34.5365 104.549 34.1035C104.677 33.6706 104.863 33.2946 105.11 32.9756C105.356 32.652 105.661 32.4036 106.026 32.2305C106.395 32.0527 106.821 31.9639 107.304 31.9639C107.641 31.9639 107.949 32.014 108.227 32.1143C108.509 32.21 108.753 32.3626 108.958 32.5723C109.168 32.7819 109.327 33.0508 109.437 33.3789C109.551 33.707 109.608 34.1035 109.608 34.5684V39.4971H107.96V34.7119C107.96 34.3519 107.905 34.0693 107.796 33.8643C107.691 33.6592 107.539 33.5133 107.338 33.4268C107.142 33.3356 106.907 33.29 106.634 33.29C106.324 33.29 106.06 33.3493 105.841 33.4678C105.627 33.5863 105.451 33.748 105.315 33.9531C105.178 34.1582 105.078 34.3952 105.014 34.6641C104.95 34.9329 104.918 35.2201 104.918 35.5254ZM109.505 35.0879L108.733 35.2588C108.733 34.8122 108.794 34.3906 108.917 33.9941C109.045 33.5931 109.229 33.2422 109.471 32.9414C109.717 32.6361 110.02 32.3968 110.38 32.2236C110.74 32.0505 111.153 31.9639 111.617 31.9639C111.996 31.9639 112.333 32.0163 112.629 32.1211C112.93 32.2214 113.185 32.3809 113.395 32.5996C113.604 32.8184 113.764 33.1032 113.873 33.4541C113.983 33.8005 114.037 34.2197 114.037 34.7119V39.4971H112.383V34.7051C112.383 34.3314 112.328 34.042 112.219 33.8369C112.114 33.6318 111.964 33.4906 111.768 33.4131C111.572 33.3311 111.337 33.29 111.064 33.29C110.808 33.29 110.583 33.3379 110.387 33.4336C110.196 33.5247 110.034 33.6546 109.902 33.8232C109.769 33.9873 109.669 34.1764 109.601 34.3906C109.537 34.6048 109.505 34.8372 109.505 35.0879ZM120.283 37.7539V32.1006H121.937V39.4971H120.379L120.283 37.7539ZM120.515 36.2158L121.069 36.2021C121.069 36.6989 121.014 37.1569 120.905 37.5762C120.796 37.9909 120.627 38.3532 120.399 38.6631C120.171 38.9684 119.879 39.2077 119.524 39.3809C119.169 39.5495 118.742 39.6338 118.246 39.6338C117.886 39.6338 117.555 39.5814 117.254 39.4766C116.954 39.3717 116.694 39.21 116.475 38.9912C116.261 38.7725 116.095 38.4876 115.976 38.1367C115.858 37.7858 115.798 37.3665 115.798 36.8789V32.1006H117.446V36.8926C117.446 37.1615 117.478 37.387 117.542 37.5693C117.605 37.7471 117.692 37.8906 117.801 38C117.911 38.1094 118.038 38.1868 118.184 38.2324C118.33 38.278 118.485 38.3008 118.649 38.3008C119.118 38.3008 119.488 38.2096 119.756 38.0273C120.03 37.8405 120.224 37.5898 120.338 37.2754C120.456 36.9609 120.515 36.6077 120.515 36.2158ZM127.896 38.0137V34.4863C127.896 34.222 127.848 33.9941 127.752 33.8027C127.656 33.6113 127.51 33.4632 127.314 33.3584C127.123 33.2536 126.882 33.2012 126.59 33.2012C126.321 33.2012 126.089 33.2467 125.893 33.3379C125.697 33.429 125.544 33.5521 125.435 33.707C125.325 33.862 125.271 34.0374 125.271 34.2334H123.63C123.63 33.9417 123.701 33.6592 123.842 33.3857C123.983 33.1123 124.188 32.8685 124.457 32.6543C124.726 32.4401 125.047 32.2715 125.421 32.1484C125.795 32.0254 126.214 31.9639 126.679 31.9639C127.235 31.9639 127.727 32.0573 128.155 32.2441C128.588 32.431 128.928 32.7135 129.174 33.0918C129.424 33.4655 129.55 33.9349 129.55 34.5V37.7881C129.55 38.1253 129.573 38.4284 129.618 38.6973C129.668 38.9616 129.739 39.1917 129.83 39.3877V39.4971H128.142C128.064 39.3193 128.003 39.0938 127.957 38.8203C127.916 38.5423 127.896 38.2734 127.896 38.0137ZM128.135 34.999L128.148 36.0176H126.966C126.66 36.0176 126.392 36.0472 126.159 36.1064C125.927 36.1611 125.733 36.2432 125.578 36.3525C125.423 36.4619 125.307 36.5941 125.229 36.749C125.152 36.904 125.113 37.0794 125.113 37.2754C125.113 37.4714 125.159 37.6514 125.25 37.8154C125.341 37.9749 125.473 38.1003 125.646 38.1914C125.824 38.2826 126.038 38.3281 126.289 38.3281C126.626 38.3281 126.92 38.2598 127.171 38.123C127.426 37.9818 127.627 37.8109 127.772 37.6104C127.918 37.4053 127.996 37.2116 128.005 37.0293L128.538 37.7607C128.483 37.9476 128.39 38.1481 128.258 38.3623C128.126 38.5765 127.952 38.7816 127.738 38.9775C127.529 39.1689 127.276 39.3262 126.979 39.4492C126.688 39.5723 126.351 39.6338 125.968 39.6338C125.485 39.6338 125.054 39.5381 124.676 39.3467C124.298 39.1507 124.001 38.8887 123.787 38.5605C123.573 38.2279 123.466 37.8519 123.466 37.4326C123.466 37.0407 123.539 36.6943 123.685 36.3936C123.835 36.0882 124.054 35.833 124.341 35.6279C124.632 35.4229 124.988 35.2679 125.407 35.1631C125.826 35.0537 126.305 34.999 126.843 34.999H128.135Z" fill="#49454F"/>
</g>
<defs>
<filter id="filter0_dd_690_38895" x="-1.5" y="-0.50293" width="168" height="72" filterUnits="userSpaceOnUse" color-interpolation-filters="sRGB">
<feFlood flood-opacity="0" result="BackgroundImageFix"/>
<feColorMatrix in="SourceAlpha" type="matrix" values="0 0 0 0 0 0 0 0 0 0 0 0 0 0 0 0 0 0 127 0" result="hardAlpha"/>
<feMorphology radius="1" operator="dilate" in="SourceAlpha" result="effect1_dropShadow_690_38895"/>
<feOffset dy="1"/>
<feGaussianBlur stdDeviation="1.5"/>
<feColorMatrix type="matrix" values="0 0 0 0 0 0 0 0 0 0 0 0 0 0 0 0 0 0 0.15 0"/>
<feBlend mode="normal" in2="BackgroundImageFix" result="effect1_dropShadow_690_38895"/>
<feColorMatrix in="SourceAlpha" type="matrix" values="0 0 0 0 0 0 0 0 0 0 0 0 0 0 0 0 0 0 127 0" result="hardAlpha"/>
<feOffset dy="1"/>
<feGaussianBlur stdDeviation="1"/>
<feColorMatrix type="matrix" values="0 0 0 0 0 0 0 0 0 0 0 0 0 0 0 0 0 0 0.3 0"/>
<feBlend mode="normal" in2="effect1_dropShadow_690_38895" result="effect2_dropShadow_690_38895"/>
<feBlend mode="normal" in="SourceGraphic" in2="effect2_dropShadow_690_38895" result="shape"/>
</filter>
</defs>
</svg>
