<svg width="32" height="33" viewBox="0 0 32 33" fill="none" xmlns="http://www.w3.org/2000/svg">
<path d="M10.39 3.65527H21.588C25.8539 3.65527 29.32 7.12134 29.32 11.3873V22.5853C29.32 24.636 28.5054 26.6026 27.0554 28.0527C25.6053 29.5027 23.6387 30.3173 21.588 30.3173H10.39C6.12402 30.3173 2.65796 26.8512 2.65796 22.5853V11.3873C2.65796 9.33661 3.47258 7.36995 4.92261 5.91992C6.37264 4.46989 8.3393 3.65527 10.39 3.65527M10.1233 6.32148C8.85051 6.32148 7.62983 6.8271 6.72981 7.72712C5.82979 8.62714 5.32416 9.84783 5.32416 11.1206V22.8519C5.32416 25.5048 7.47046 27.6511 10.1233 27.6511H21.8546C23.1274 27.6511 24.3481 27.1455 25.2482 26.2455C26.1482 25.3454 26.6538 24.1248 26.6538 22.8519V11.1206C26.6538 8.46777 24.5075 6.32148 21.8546 6.32148H10.1233ZM22.9878 8.32113C23.4297 8.32113 23.8536 8.49669 24.1661 8.8092C24.4786 9.12171 24.6541 9.54556 24.6541 9.98751C24.6541 10.4295 24.4786 10.8533 24.1661 11.1658C23.8536 11.4783 23.4297 11.6539 22.9878 11.6539C22.5458 11.6539 22.122 11.4783 21.8095 11.1658C21.4969 10.8533 21.3214 10.4295 21.3214 9.98751C21.3214 9.54556 21.4969 9.12171 21.8095 8.8092C22.122 8.49669 22.5458 8.32113 22.9878 8.32113ZM15.989 10.3208C17.7568 10.3208 19.4522 11.023 20.7022 12.2731C21.9522 13.5231 22.6545 15.2185 22.6545 16.9863C22.6545 18.7541 21.9522 20.4495 20.7022 21.6995C19.4522 22.9495 17.7568 23.6518 15.989 23.6518C14.2212 23.6518 12.5258 22.9495 11.2758 21.6995C10.0257 20.4495 9.32347 18.7541 9.32347 16.9863C9.32347 15.2185 10.0257 13.5231 11.2758 12.2731C12.5258 11.023 14.2212 10.3208 15.989 10.3208M15.989 12.987C14.9283 12.987 13.9111 13.4083 13.161 14.1584C12.411 14.9084 11.9897 15.9256 11.9897 16.9863C11.9897 18.047 12.411 19.0642 13.161 19.8142C13.9111 20.5642 14.9283 20.9856 15.989 20.9856C17.0497 20.9856 18.0669 20.5642 18.8169 19.8142C19.5669 19.0642 19.9883 18.047 19.9883 16.9863C19.9883 15.9256 19.5669 14.9084 18.8169 14.1584C18.0669 13.4083 17.0497 12.987 15.989 12.987Z" fill="#626467"/>
</svg>
