<svg width="143" height="73" viewBox="0 0 143 73" fill="none" xmlns="http://www.w3.org/2000/svg">
<g filter="url(#filter0_dd_690_38969)">
<rect x="4.92615" y="3.49707" width="134" height="64" rx="8" fill="#F2F2F2"/>
<g clip-path="url(#clip0_690_38969)">
<path d="M32.5616 28.3151L29.4259 27.5029C29.3308 27.4847 29.2324 27.5027 29.1504 27.5531C29.0684 27.6036 29.009 27.6826 28.9842 27.7744C28.9595 27.8661 28.9712 27.9637 29.0171 28.0472C29.063 28.1308 29.1395 28.1942 29.2312 28.2245L32.0824 28.9629V40.268C32.0823 40.3172 32.0922 40.3658 32.1113 40.4112C32.1305 40.4566 32.1586 40.4979 32.194 40.5326C32.2294 40.5674 32.2715 40.5949 32.3178 40.6137C32.3641 40.6325 32.4138 40.6421 32.4639 40.642H46.5243C46.6254 40.642 46.7225 40.6026 46.794 40.5325C46.8656 40.4624 46.9058 40.3672 46.9058 40.268C46.9058 40.1688 46.8656 40.0737 46.794 40.0035C46.7225 39.9334 46.6254 39.894 46.5243 39.894H45.139V31.624H46.3656C46.4468 31.6237 46.5257 31.5981 46.591 31.5508C46.6563 31.5036 46.7046 31.4372 46.7287 31.3612C46.7529 31.2853 46.7518 31.2037 46.7256 31.1284C46.6993 31.0532 46.6493 30.988 46.5827 30.9425L45.029 29.8906V27.0603C45.0289 26.961 44.9886 26.8659 44.917 26.7958C44.8454 26.7256 44.7483 26.6862 44.6471 26.6862H42.6333C42.5321 26.6862 42.4351 26.7256 42.3635 26.7958C42.292 26.8659 42.2518 26.9611 42.2518 27.0603V28.0056L40.1542 26.584C40.0905 26.5408 40.0148 26.5176 39.9373 26.5176C39.8598 26.5176 39.7841 26.5408 39.7204 26.584L33.2898 30.9421C33.223 30.9875 33.1727 31.0525 33.1463 31.1279C33.1199 31.2032 33.1187 31.2848 33.1428 31.3609C33.167 31.437 33.2153 31.5035 33.2808 31.5507C33.3462 31.598 33.4253 31.6235 33.5065 31.6236H34.7332V39.8976H32.8458V28.6771C32.8457 28.5946 32.8177 28.5145 32.7663 28.4492C32.7149 28.384 32.6429 28.3372 32.5616 28.3163V28.3151ZM38.2316 39.8908V35.1675H41.6422V39.8908H38.2316ZM43.0156 27.4347H44.2697V29.373L43.0148 28.5219L43.0156 27.4347ZM34.7299 30.8759L39.9371 27.3481L45.1439 30.8759H34.7299ZM35.4986 31.624H44.376V39.8976H42.4055V34.7935C42.4055 34.7443 42.3957 34.6956 42.3765 34.6502C42.3573 34.6048 42.3291 34.5636 42.2937 34.5288C42.2582 34.4941 42.2161 34.4666 42.1698 34.4478C42.1234 34.429 42.0738 34.4194 42.0236 34.4194H37.8501C37.8 34.4194 37.7504 34.4291 37.7041 34.4479C37.6577 34.4668 37.6157 34.4943 37.5802 34.5291C37.5448 34.5639 37.5167 34.6052 37.4976 34.6506C37.4784 34.696 37.4686 34.7447 37.4686 34.7939V39.8976H35.4986V31.624Z" fill="#09A387" stroke="#09A387" stroke-width="0.0556793" stroke-miterlimit="10"/>
<path d="M33.125 42.8331C33.125 43.1582 33.2233 43.476 33.4075 43.7463C33.5917 44.0166 33.8536 44.2272 34.1599 44.3516C34.4662 44.476 34.8033 44.5086 35.1285 44.4452C35.4537 44.3818 35.7524 44.2252 35.9869 43.9953C36.2213 43.7655 36.381 43.4726 36.4457 43.1538C36.5103 42.8349 36.4771 42.5044 36.3503 42.2041C36.2234 41.9038 36.0085 41.6471 35.7328 41.4665C35.4571 41.2859 35.133 41.1895 34.8014 41.1895C34.357 41.1901 33.931 41.3635 33.6167 41.6716C33.3025 41.9797 33.1256 42.3974 33.125 42.8331ZM35.7182 42.8331C35.7182 43.0104 35.6645 43.1837 35.5641 43.3311C35.4636 43.4785 35.3208 43.5934 35.1538 43.6613C34.9867 43.7291 34.8029 43.7469 34.6255 43.7123C34.4482 43.6777 34.2853 43.5923 34.1574 43.467C34.0295 43.3416 33.9425 43.1819 33.9072 43.008C33.8719 42.8341 33.89 42.6539 33.9592 42.4901C34.0284 42.3263 34.1456 42.1863 34.2959 42.0878C34.4463 41.9893 34.6231 41.9367 34.8039 41.9367C35.0463 41.9369 35.2787 42.0314 35.4501 42.1995C35.6215 42.3676 35.7179 42.5954 35.7182 42.8331Z" fill="#09A387" stroke="#09A387" stroke-width="0.0556793" stroke-miterlimit="10"/>
<path d="M44.1853 44.4768C44.5169 44.4768 44.841 44.3804 45.1167 44.1998C45.3924 44.0191 45.6073 43.7624 45.7342 43.4621C45.8611 43.1618 45.8943 42.8313 45.8296 42.5124C45.7649 42.1936 45.6052 41.9007 45.3708 41.6709C45.1363 41.441 44.8376 41.2845 44.5124 41.221C44.1872 41.1576 43.8501 41.1902 43.5438 41.3146C43.2375 41.439 42.9757 41.6496 42.7914 41.9199C42.6072 42.1902 42.5089 42.508 42.5089 42.8331C42.5096 43.2688 42.6864 43.6865 43.0006 43.9946C43.3149 44.3027 43.7409 44.4761 44.1853 44.4768ZM44.1853 41.9359C44.3661 41.9359 44.5429 41.9885 44.6932 42.0869C44.8435 42.1854 44.9607 42.3253 45.0299 42.4891C45.0992 42.6528 45.1173 42.833 45.0821 43.0069C45.0469 43.1807 44.9599 43.3405 44.8321 43.4659C44.7043 43.5913 44.5415 43.6767 44.3642 43.7114C44.1869 43.7461 44.0031 43.7284 43.836 43.6607C43.669 43.593 43.5261 43.4782 43.4256 43.3309C43.325 43.1836 43.2712 43.0104 43.2711 42.8331C43.2714 42.5955 43.3678 42.3677 43.5392 42.1998C43.7106 42.0318 43.943 41.9373 44.1853 41.9371V41.9359Z" fill="#09A387" stroke="#09A387" stroke-width="0.0556793" stroke-miterlimit="10"/>
<path d="M39.937 30.4592C40.1818 30.4592 40.4211 30.388 40.6247 30.2547C40.8282 30.1214 40.9868 29.9318 41.0805 29.7101C41.1742 29.4884 41.1987 29.2444 41.151 29.009C41.1032 28.7736 40.9853 28.5574 40.8122 28.3877C40.6391 28.2179 40.4186 28.1024 40.1785 28.0555C39.9384 28.0087 39.6896 28.0328 39.4634 28.1246C39.2372 28.2164 39.0439 28.372 38.9079 28.5715C38.7719 28.7711 38.6993 29.0057 38.6993 29.2457C38.6998 29.5674 38.8303 29.8758 39.0623 30.1033C39.2944 30.3308 39.6089 30.4588 39.937 30.4592ZM39.937 28.7807C40.0308 28.7807 40.1226 28.808 40.2006 28.8591C40.2786 28.9102 40.3393 28.9828 40.3752 29.0678C40.4111 29.1527 40.4205 29.2462 40.4022 29.3364C40.3839 29.4267 40.3388 29.5095 40.2724 29.5746C40.2061 29.6396 40.1216 29.6839 40.0296 29.7018C39.9376 29.7198 39.8422 29.7106 39.7555 29.6754C39.6689 29.6402 39.5948 29.5806 39.5427 29.5041C39.4905 29.4276 39.4627 29.3377 39.4627 29.2457C39.4628 29.1224 39.5128 29.0042 39.6018 28.917C39.6907 28.8298 39.8113 28.7808 39.937 28.7807Z" fill="#09A387" stroke="#09A387" stroke-width="0.0556793" stroke-miterlimit="10"/>
</g>
<path d="M60.0888 36.7852H57.498V35.4248H60.0888C60.54 35.4248 60.9046 35.3519 61.1826 35.2061C61.4606 35.0602 61.6634 34.8597 61.791 34.6045C61.9232 34.3447 61.9892 34.0485 61.9892 33.7158C61.9892 33.4014 61.9232 33.1074 61.791 32.834C61.6634 32.556 61.4606 32.3327 61.1826 32.1641C60.9046 31.9954 60.54 31.9111 60.0888 31.9111H58.0244V40.4971H56.3086V30.5439H60.0888C60.859 30.5439 61.513 30.6807 62.0508 30.9541C62.5931 31.223 63.0055 31.5967 63.2881 32.0752C63.5706 32.5492 63.7119 33.0915 63.7119 33.7021C63.7119 34.3447 63.5706 34.8962 63.2881 35.3564C63.0055 35.8167 62.5931 36.1699 62.0508 36.416C61.513 36.6621 60.859 36.7852 60.0888 36.7852ZM66.8402 34.5088V40.4971H65.1927V33.1006H66.765L66.8402 34.5088ZM69.1029 33.0527L69.0892 34.584C68.989 34.5658 68.8796 34.5521 68.7611 34.543C68.6472 34.5339 68.5332 34.5293 68.4193 34.5293C68.1368 34.5293 67.8884 34.5703 67.6742 34.6523C67.46 34.7298 67.28 34.8438 67.1342 34.9941C66.9929 35.14 66.8835 35.3177 66.806 35.5273C66.7286 35.737 66.683 35.9717 66.6693 36.2314L66.2933 36.2588C66.2933 35.7939 66.3389 35.3633 66.4301 34.9668C66.5212 34.5703 66.6579 34.2217 66.8402 33.9209C67.0271 33.6201 67.2595 33.3854 67.5375 33.2168C67.82 33.0482 68.1459 32.9639 68.515 32.9639C68.6153 32.9639 68.7224 32.973 68.8363 32.9912C68.9548 33.0094 69.0437 33.0299 69.1029 33.0527ZM69.7429 36.8809V36.7236C69.7429 36.1904 69.8204 35.696 69.9754 35.2402C70.1303 34.7799 70.3536 34.3812 70.6453 34.0439C70.9415 33.7021 71.3015 33.4378 71.7254 33.251C72.1538 33.0596 72.6368 32.9639 73.1746 32.9639C73.7169 32.9639 74.2 33.0596 74.6238 33.251C75.0522 33.4378 75.4145 33.7021 75.7107 34.0439C76.0069 34.3812 76.2325 34.7799 76.3875 35.2402C76.5424 35.696 76.6199 36.1904 76.6199 36.7236V36.8809C76.6199 37.4141 76.5424 37.9085 76.3875 38.3643C76.2325 38.82 76.0069 39.2188 75.7107 39.5605C75.4145 39.8978 75.0545 40.1621 74.6306 40.3535C74.2068 40.5404 73.726 40.6338 73.1883 40.6338C72.6459 40.6338 72.1606 40.5404 71.7322 40.3535C71.3084 40.1621 70.9483 39.8978 70.6521 39.5605C70.3559 39.2188 70.1303 38.82 69.9754 38.3643C69.8204 37.9085 69.7429 37.4141 69.7429 36.8809ZM71.3904 36.7236V36.8809C71.3904 37.2135 71.4246 37.528 71.4929 37.8242C71.5613 38.1204 71.6684 38.3802 71.8142 38.6035C71.9601 38.8268 72.1469 39.0023 72.3748 39.1299C72.6026 39.2575 72.8738 39.3213 73.1883 39.3213C73.4936 39.3213 73.7579 39.2575 73.9812 39.1299C74.2091 39.0023 74.3959 38.8268 74.5418 38.6035C74.6876 38.3802 74.7947 38.1204 74.8631 37.8242C74.936 37.528 74.9724 37.2135 74.9724 36.8809V36.7236C74.9724 36.3955 74.936 36.0856 74.8631 35.7939C74.7947 35.4977 74.6853 35.2357 74.5349 35.0078C74.3891 34.7799 74.2023 34.6022 73.9744 34.4746C73.7511 34.3424 73.4845 34.2764 73.1746 34.2764C72.8647 34.2764 72.5958 34.3424 72.3679 34.4746C72.1446 34.6022 71.9601 34.7799 71.8142 35.0078C71.6684 35.2357 71.5613 35.4977 71.4929 35.7939C71.4246 36.0856 71.3904 36.3955 71.3904 36.7236ZM79.7551 34.5225V43.3408H78.1076V33.1006H79.6252L79.7551 34.5225ZM84.5744 36.7305V36.874C84.5744 37.4118 84.5106 37.9108 84.383 38.3711C84.2599 38.8268 84.0754 39.2256 83.8293 39.5674C83.5877 39.9046 83.2892 40.1667 82.9338 40.3535C82.5783 40.5404 82.1681 40.6338 81.7033 40.6338C81.243 40.6338 80.8397 40.5495 80.4933 40.3809C80.1515 40.2077 79.8621 39.9639 79.6252 39.6494C79.3882 39.335 79.1968 38.9658 79.051 38.542C78.9097 38.1136 78.8094 37.6442 78.7502 37.1338V36.5801C78.8094 36.0378 78.9097 35.5456 79.051 35.1035C79.1968 34.6615 79.3882 34.2809 79.6252 33.9619C79.8621 33.6429 80.1515 33.3968 80.4933 33.2236C80.8351 33.0505 81.2339 32.9639 81.6896 32.9639C82.1545 32.9639 82.5669 33.055 82.9269 33.2373C83.287 33.415 83.59 33.6702 83.8361 34.0029C84.0822 34.3311 84.2668 34.7275 84.3898 35.1924C84.5129 35.6527 84.5744 36.1654 84.5744 36.7305ZM82.9269 36.874V36.7305C82.9269 36.3887 82.895 36.0719 82.8312 35.7803C82.7674 35.484 82.6672 35.2243 82.5304 35.001C82.3937 34.7777 82.2183 34.6045 82.0041 34.4814C81.7944 34.3538 81.5415 34.29 81.2453 34.29C80.9536 34.29 80.703 34.3402 80.4933 34.4404C80.2837 34.5361 80.1082 34.6706 79.967 34.8438C79.8257 35.0169 79.7163 35.2197 79.6388 35.4521C79.5614 35.68 79.5067 35.9284 79.4748 36.1973V37.5234C79.5295 37.8516 79.6229 38.1523 79.7551 38.4258C79.8872 38.6992 80.0741 38.918 80.3156 39.082C80.5617 39.2415 80.8761 39.3213 81.259 39.3213C81.5552 39.3213 81.8081 39.2575 82.0177 39.1299C82.2274 39.0023 82.3983 38.8268 82.5304 38.6035C82.6672 38.3757 82.7674 38.1136 82.8312 37.8174C82.895 37.5212 82.9269 37.2067 82.9269 36.874ZM89.3365 40.6338C88.7896 40.6338 88.2952 40.5449 87.8531 40.3672C87.4156 40.1849 87.0419 39.932 86.732 39.6084C86.4267 39.2848 86.192 38.9043 86.0279 38.4668C85.8638 38.0293 85.7818 37.5576 85.7818 37.0518V36.7783C85.7818 36.1995 85.8661 35.6755 86.0347 35.2061C86.2034 34.7367 86.4381 34.3356 86.7388 34.0029C87.0396 33.6657 87.3951 33.4082 87.8052 33.2305C88.2154 33.0527 88.6597 32.9639 89.1383 32.9639C89.6669 32.9639 90.1295 33.0527 90.526 33.2305C90.9224 33.4082 91.2506 33.6589 91.5103 33.9824C91.7746 34.3014 91.9706 34.682 92.0982 35.124C92.2304 35.5661 92.2965 36.0537 92.2965 36.5869V37.291H86.5816V36.1084H90.6695V35.9785C90.6604 35.6823 90.6011 35.4043 90.4918 35.1445C90.387 34.8848 90.2252 34.6751 90.0064 34.5156C89.7877 34.3561 89.496 34.2764 89.1314 34.2764C88.858 34.2764 88.6142 34.3356 88.4 34.4541C88.1903 34.568 88.0149 34.7344 87.8736 34.9531C87.7323 35.1719 87.623 35.4362 87.5455 35.7461C87.4726 36.0514 87.4361 36.3955 87.4361 36.7783V37.0518C87.4361 37.3753 87.4794 37.6761 87.566 37.9541C87.6571 38.2275 87.7893 38.4668 87.9625 38.6719C88.1357 38.877 88.3453 39.0387 88.5914 39.1572C88.8375 39.2712 89.1177 39.3281 89.4322 39.3281C89.8287 39.3281 90.1819 39.2484 90.4918 39.0889C90.8017 38.9294 91.0705 38.7038 91.2984 38.4121L92.1666 39.2529C92.0071 39.4854 91.7997 39.7087 91.5445 39.9229C91.2893 40.1325 90.9771 40.3034 90.608 40.4355C90.2434 40.5677 89.8196 40.6338 89.3365 40.6338ZM95.3359 34.5088V40.4971H93.6885V33.1006H95.2607L95.3359 34.5088ZM97.5986 33.0527L97.5849 34.584C97.4847 34.5658 97.3753 34.5521 97.2568 34.543C97.1429 34.5339 97.0289 34.5293 96.915 34.5293C96.6325 34.5293 96.3841 34.5703 96.1699 34.6523C95.9557 34.7298 95.7757 34.8438 95.6299 34.9941C95.4886 35.14 95.3792 35.3177 95.3017 35.5273C95.2243 35.737 95.1787 35.9717 95.165 36.2314L94.789 36.2588C94.789 35.7939 94.8346 35.3633 94.9258 34.9668C95.0169 34.5703 95.1536 34.2217 95.3359 33.9209C95.5228 33.6201 95.7552 33.3854 96.0332 33.2168C96.3157 33.0482 96.6416 32.9639 97.0107 32.9639C97.111 32.9639 97.2181 32.973 97.332 32.9912C97.4505 33.0094 97.5394 33.0299 97.5986 33.0527ZM102.463 33.1006V34.3037H98.2933V33.1006H102.463ZM99.4965 31.2891H101.144V38.4531C101.144 38.681 101.176 38.8564 101.24 38.9795C101.308 39.098 101.401 39.1777 101.52 39.2188C101.638 39.2598 101.777 39.2803 101.937 39.2803C102.051 39.2803 102.16 39.2734 102.265 39.2598C102.37 39.2461 102.454 39.2324 102.518 39.2188L102.525 40.4766C102.388 40.5176 102.229 40.554 102.046 40.5859C101.869 40.6178 101.663 40.6338 101.431 40.6338C101.053 40.6338 100.718 40.5677 100.426 40.4355C100.134 40.2988 99.9066 40.0778 99.7426 39.7725C99.5785 39.4671 99.4965 39.0615 99.4965 38.5557V31.2891ZM105.598 33.1006V40.4971H103.944V33.1006H105.598ZM103.835 31.1592C103.835 30.9085 103.917 30.7012 104.081 30.5371C104.249 30.3685 104.482 30.2842 104.778 30.2842C105.07 30.2842 105.3 30.3685 105.469 30.5371C105.637 30.7012 105.721 30.9085 105.721 31.1592C105.721 31.4053 105.637 31.6104 105.469 31.7744C105.3 31.9385 105.07 32.0205 104.778 32.0205C104.482 32.0205 104.249 31.9385 104.081 31.7744C103.917 31.6104 103.835 31.4053 103.835 31.1592Z" fill="#49454F"/>
</g>
<defs>
<filter id="filter0_dd_690_38969" x="0.926147" y="0.49707" width="142" height="72" filterUnits="userSpaceOnUse" color-interpolation-filters="sRGB">
<feFlood flood-opacity="0" result="BackgroundImageFix"/>
<feColorMatrix in="SourceAlpha" type="matrix" values="0 0 0 0 0 0 0 0 0 0 0 0 0 0 0 0 0 0 127 0" result="hardAlpha"/>
<feMorphology radius="1" operator="dilate" in="SourceAlpha" result="effect1_dropShadow_690_38969"/>
<feOffset dy="1"/>
<feGaussianBlur stdDeviation="1.5"/>
<feColorMatrix type="matrix" values="0 0 0 0 0 0 0 0 0 0 0 0 0 0 0 0 0 0 0.15 0"/>
<feBlend mode="normal" in2="BackgroundImageFix" result="effect1_dropShadow_690_38969"/>
<feColorMatrix in="SourceAlpha" type="matrix" values="0 0 0 0 0 0 0 0 0 0 0 0 0 0 0 0 0 0 127 0" result="hardAlpha"/>
<feOffset dy="1"/>
<feGaussianBlur stdDeviation="1"/>
<feColorMatrix type="matrix" values="0 0 0 0 0 0 0 0 0 0 0 0 0 0 0 0 0 0 0.3 0"/>
<feBlend mode="normal" in2="effect1_dropShadow_690_38969" result="effect2_dropShadow_690_38969"/>
<feBlend mode="normal" in="SourceGraphic" in2="effect2_dropShadow_690_38969" result="shape"/>
</filter>
<clipPath id="clip0_690_38969">
<rect width="18" height="18" fill="white" transform="translate(28.9261 26.4971)"/>
</clipPath>
</defs>
</svg>
