<svg width="28" height="26" viewBox="0 0 28 26" fill="none" xmlns="http://www.w3.org/2000/svg">
<path d="M4.1521 4H5.5381C6.0481 4 6.4931 4.343 6.6251 4.835L7.0081 6.272M9.4021 15.25C8.60645 15.25 7.84339 15.5661 7.28078 16.1287C6.71817 16.6913 6.4021 17.4544 6.4021 18.25H22.1521M9.4021 15.25H20.6201C21.7411 12.95 22.7201 10.566 23.5441 8.112C18.144 6.73515 12.5787 6.11589 7.0081 6.272M9.4021 15.25L7.0081 6.272M7.9021 21.25C7.9021 21.4489 7.82308 21.6397 7.68243 21.7803C7.54178 21.921 7.35101 22 7.1521 22C6.95319 22 6.76242 21.921 6.62177 21.7803C6.48112 21.6397 6.4021 21.4489 6.4021 21.25C6.4021 21.0511 6.48112 20.8603 6.62177 20.7197C6.76242 20.579 6.95319 20.5 7.1521 20.5C7.35101 20.5 7.54178 20.579 7.68243 20.7197C7.82308 20.8603 7.9021 21.0511 7.9021 21.25V21.25ZM20.6521 21.25C20.6521 21.4489 20.5731 21.6397 20.4324 21.7803C20.2918 21.921 20.101 22 19.9021 22C19.7032 22 19.5124 21.921 19.3718 21.7803C19.2311 21.6397 19.1521 21.4489 19.1521 21.25C19.1521 21.0511 19.2311 20.8603 19.3718 20.7197C19.5124 20.579 19.7032 20.5 19.9021 20.5C20.101 20.5 20.2918 20.579 20.4324 20.7197C20.5731 20.8603 20.6521 21.0511 20.6521 21.25V21.25Z" stroke="black" stroke-width="1.5" stroke-linecap="round" stroke-linejoin="round"/>
</svg>
