<svg width="256" height="65" viewBox="0 0 256 65" fill="none" xmlns="http://www.w3.org/2000/svg">
<rect x="1.88745" y="1.49707" width="252.225" height="61.9889" rx="7" stroke="#09A387" stroke-width="2"/>
<path d="M89.2246 27.3094L91.6855 35.0452H91.78L94.2459 27.3094H96.6322L93.1223 37.4912H90.3481L86.8332 27.3094H89.2246ZM100.01 27.3094V37.4912H97.8577V27.3094H100.01ZM101.782 37.4912V27.3094H108.642V29.0843H103.934V31.5104H108.289V33.2852H103.934V35.7164H108.662V37.4912H101.782ZM112.646 37.4912L109.732 27.3094H112.084L113.769 34.384H113.854L115.713 27.3094H117.727L119.581 34.3989H119.671L121.356 27.3094H123.708L120.794 37.4912H118.696L116.757 30.8343H116.678L114.744 37.4912H112.646ZM128.1 27.3094H130.755L133.559 34.1503H133.678L136.482 27.3094H139.137V37.4912H137.049V30.8641H136.964L134.329 37.4415H132.907L130.272 30.8392H130.188V37.4912H128.1V27.3094ZM150.267 32.4003C150.267 33.5106 150.057 34.4552 149.636 35.2341C149.218 36.013 148.648 36.6079 147.925 37.0189C147.206 37.4266 146.397 37.6304 145.499 37.6304C144.594 37.6304 143.782 37.4249 143.063 37.0139C142.344 36.603 141.776 36.008 141.358 35.2291C140.94 34.4503 140.731 33.5073 140.731 32.4003C140.731 31.29 140.94 30.3454 141.358 29.5665C141.776 28.7876 142.344 28.1943 143.063 27.7867C143.782 27.3757 144.594 27.1702 145.499 27.1702C146.397 27.1702 147.206 27.3757 147.925 27.7867C148.648 28.1943 149.218 28.7876 149.636 29.5665C150.057 30.3454 150.267 31.29 150.267 32.4003ZM148.084 32.4003C148.084 31.6811 147.977 31.0745 147.761 30.5807C147.549 30.0869 147.249 29.7123 146.861 29.4571C146.474 29.2019 146.02 29.0743 145.499 29.0743C144.979 29.0743 144.525 29.2019 144.137 29.4571C143.749 29.7123 143.448 30.0869 143.232 30.5807C143.02 31.0745 142.914 31.6811 142.914 32.4003C142.914 33.1195 143.02 33.7261 143.232 34.2199C143.448 34.7137 143.749 35.0883 144.137 35.3435C144.525 35.5987 144.979 35.7263 145.499 35.7263C146.02 35.7263 146.474 35.5987 146.861 35.3435C147.249 35.0883 147.549 34.7137 147.761 34.2199C147.977 33.7261 148.084 33.1195 148.084 32.4003ZM151.862 37.4912V27.3094H155.879C156.648 27.3094 157.304 27.4469 157.847 27.722C158.394 27.9938 158.81 28.3799 159.095 28.8804C159.384 29.3776 159.528 29.9626 159.528 30.6354C159.528 31.3115 159.382 31.8932 159.09 32.3804C158.799 32.8643 158.376 33.2355 157.823 33.4941C157.272 33.7526 156.606 33.8818 155.824 33.8818H153.134V32.1517H155.476C155.887 32.1517 156.228 32.0954 156.5 31.9827C156.772 31.87 156.974 31.701 157.107 31.4756C157.243 31.2502 157.31 30.9701 157.31 30.6354C157.31 30.2973 157.243 30.0123 157.107 29.7803C156.974 29.5483 156.77 29.3726 156.495 29.2533C156.223 29.1307 155.88 29.0693 155.466 29.0693H154.014V37.4912H151.862ZM157.36 32.8577L159.891 37.4912H157.514L155.038 32.8577H157.36ZM161.049 37.4912V27.3094H167.91V29.0843H163.202V31.5104H167.557V33.2852H163.202V35.7164H167.93V37.4912H161.049Z" fill="#09A387"/>
</svg>
