<svg width="25" height="24" viewBox="0 0 25 24" fill="none" xmlns="http://www.w3.org/2000/svg">
<mask id="mask0_1285_1348" style="mask-type:alpha" maskUnits="userSpaceOnUse" x="0" y="0" width="25" height="24">
<rect x="0.1521" width="24" height="24" fill="#D9D9D9"/>
</mask>
<g mask="url(#mask0_1285_1348)">
<path d="M2.1521 22V4C2.1521 3.45 2.34793 2.97917 2.7396 2.5875C3.13127 2.19583 3.6021 2 4.1521 2H20.1521C20.7021 2 21.1729 2.19583 21.5646 2.5875C21.9563 2.97917 22.1521 3.45 22.1521 4V16C22.1521 16.55 21.9563 17.0208 21.5646 17.4125C21.1729 17.8042 20.7021 18 20.1521 18H6.1521L2.1521 22ZM5.3021 16H20.1521V4H4.1521V17.125L5.3021 16Z" fill="#1C1C1C"/>
</g>
</svg>
