<svg width="198" height="69" viewBox="0 0 198 69" fill="none" xmlns="http://www.w3.org/2000/svg">
<g filter="url(#filter0_dd_690_38935)">
<rect x="4.92615" y="2.49707" width="189" height="64" rx="8" fill="#F2F2F2"/>
<g clip-path="url(#clip0_690_38935)">
<path d="M45.9792 30.1607H44.1208V28.612C44.1207 28.3656 44.0228 28.1293 43.8486 27.9551C43.6743 27.7808 43.438 27.6829 43.1916 27.6828H42.2624V25.8244C42.2625 25.7837 42.2545 25.7434 42.2389 25.7058C42.2234 25.6682 42.2006 25.634 42.1718 25.6053C42.143 25.5765 42.1089 25.5537 42.0713 25.5381C42.0337 25.5226 41.9934 25.5146 41.9527 25.5146H33.8996C33.8175 25.5146 33.7387 25.5473 33.6806 25.6054C33.6225 25.6635 33.5899 25.7422 33.5899 25.8244V27.6828H32.6607C32.4143 27.6829 32.178 27.7808 32.0037 27.9551C31.8295 28.1293 31.7316 28.3656 31.7315 28.612V30.1607H29.8731C29.6266 30.1608 29.3903 30.2587 29.2161 30.4329C29.0419 30.6072 28.9439 30.8435 28.9438 31.0899V38.5235C28.9439 38.7699 29.0419 39.0062 29.2161 39.1804C29.3903 39.3547 29.6266 39.4526 29.8731 39.4527H33.8996C33.9348 39.4521 33.9695 39.4448 34.0019 39.4311L33.5899 43.1341C33.5842 43.1777 33.5881 43.222 33.6012 43.2639C33.6143 43.3059 33.6363 43.3445 33.6657 43.3772C33.6951 43.4098 33.7313 43.4357 33.7716 43.4531C33.812 43.4705 33.8557 43.4789 33.8996 43.4778H41.9527C41.9964 43.4784 42.0397 43.4697 42.0796 43.4521C42.1196 43.4345 42.1554 43.4085 42.1844 43.3759C42.2135 43.3434 42.2352 43.3049 42.2481 43.2632C42.261 43.2214 42.2648 43.1774 42.2592 43.1341L41.8476 39.4173C41.881 39.4344 41.9168 39.4463 41.9538 39.4527H45.9792C46.2257 39.4526 46.4619 39.3547 46.6362 39.1804C46.8104 39.0062 46.9084 38.7699 46.9084 38.5235V31.0899C46.9084 30.8435 46.8104 30.6072 46.6362 30.4329C46.4619 30.2587 46.2257 30.1608 45.9792 30.1607ZM43.1916 28.3023C43.2323 28.3022 43.2726 28.3102 43.3102 28.3257C43.3478 28.3413 43.382 28.3641 43.4108 28.3929C43.4395 28.4216 43.4623 28.4558 43.4779 28.4934C43.4934 28.531 43.5014 28.5713 43.5014 28.612V30.1607H42.2624V28.3023H43.1916ZM34.2093 26.1341H41.643V30.1607H34.2093V26.1341ZM32.3509 28.612C32.3509 28.5298 32.3836 28.4511 32.4416 28.393C32.4997 28.3349 32.5785 28.3023 32.6607 28.3023H33.5899V30.1607H32.3509V28.612ZM29.8731 30.7801H45.9792C46.0199 30.7801 46.0602 30.7881 46.0978 30.8036C46.1354 30.8192 46.1696 30.842 46.1984 30.8708C46.2271 30.8995 46.2499 30.9337 46.2655 30.9713C46.281 31.0089 46.289 31.0492 46.289 31.0899V33.258H29.5633V31.0899C29.5633 31.0077 29.5959 30.9289 29.654 30.8709C29.7121 30.8128 29.7909 30.7801 29.8731 30.7801ZM34.2465 42.8598L34.7977 37.904H41.0543L41.6058 42.8598H34.2465ZM41.7884 38.892L41.643 37.5603C41.6346 37.4842 41.5983 37.4139 41.5411 37.363C41.4839 37.312 41.4098 37.2841 41.3332 37.2846H34.5191C34.4425 37.284 34.3684 37.3119 34.3112 37.3629C34.2539 37.4138 34.2177 37.4842 34.2093 37.5603L34.0607 38.8863C34.0129 38.8542 33.9571 38.836 33.8996 38.8339H32.9704V37.2846C32.9703 37.1625 32.9942 37.0416 33.0408 36.9288C33.0875 36.816 33.1559 36.7135 33.2422 36.6272C33.3286 36.5409 33.431 36.4725 33.5438 36.4258C33.6566 36.3792 33.7775 36.3552 33.8996 36.3554H41.9527C42.0747 36.3553 42.1956 36.3793 42.3083 36.426C42.4211 36.4727 42.5236 36.5411 42.6098 36.6274C42.6961 36.7137 42.7646 36.8162 42.8113 36.9289C42.8579 37.0417 42.8819 37.1625 42.8819 37.2846V38.8332H41.9527C41.8934 38.8364 41.8363 38.8568 41.7884 38.892ZM45.9792 38.8332H43.5014V37.2846C43.5014 37.0812 43.4614 36.8798 43.3836 36.6919C43.3058 36.5039 43.1917 36.3332 43.0479 36.1894C42.9041 36.0456 42.7333 35.9315 42.5454 35.8537C42.3575 35.7759 42.1561 35.7358 41.9527 35.7359H33.8996C33.6962 35.7358 33.4948 35.7759 33.3069 35.8537C33.119 35.9315 32.9482 36.0456 32.8044 36.1894C32.6606 36.3332 32.5465 36.5039 32.4687 36.6919C32.3909 36.8798 32.3509 37.0812 32.3509 37.2846V38.8332H29.8731C29.7909 38.8332 29.7121 38.8006 29.654 38.7425C29.5959 38.6844 29.5633 38.6056 29.5633 38.5235V33.8775H46.289V38.5235C46.2889 38.6056 46.2562 38.6843 46.1982 38.7424C46.1401 38.8005 46.0614 38.8331 45.9792 38.8332ZM40.404 39.143C40.4039 39.2251 40.3713 39.3038 40.3132 39.3619C40.2551 39.4199 40.1764 39.4526 40.0943 39.4527H35.758C35.6759 39.4527 35.5971 39.4201 35.539 39.362C35.4809 39.3039 35.4483 39.2251 35.4483 39.143C35.4483 39.0608 35.4809 38.982 35.539 38.924C35.5971 38.8659 35.6759 38.8332 35.758 38.8332H40.0943C40.135 38.8332 40.1753 38.8412 40.2129 38.8567C40.2505 38.8723 40.2846 38.8951 40.3134 38.9238C40.3422 38.9526 40.365 38.9868 40.3805 39.0244C40.3961 39.062 40.4041 39.1023 40.404 39.143ZM45.6695 37.904C45.6694 37.9861 45.6368 38.0649 45.5787 38.1229C45.5206 38.181 45.4419 38.2137 45.3598 38.2138H44.4306C44.3484 38.2138 44.2696 38.1811 44.2116 38.123C44.1535 38.065 44.1208 37.9862 44.1208 37.904C44.1208 37.8219 44.1535 37.7431 44.2116 37.685C44.2696 37.6269 44.3484 37.5943 44.4306 37.5943H45.3598C45.4005 37.5942 45.4408 37.6022 45.4784 37.6178C45.516 37.6333 45.5501 37.6561 45.5789 37.6849C45.6077 37.7137 45.6305 37.7478 45.646 37.7854C45.6616 37.823 45.6696 37.8633 45.6695 37.904ZM40.404 41.6208C40.4039 41.703 40.3713 41.7817 40.3132 41.8398C40.2551 41.8978 40.1764 41.9305 40.0943 41.9306H35.758C35.6759 41.9306 35.5971 41.8979 35.539 41.8399C35.4809 41.7818 35.4483 41.703 35.4483 41.6208C35.4483 41.5387 35.4809 41.4599 35.539 41.4018C35.5971 41.3437 35.6759 41.3111 35.758 41.3111H40.0943C40.135 41.3111 40.1753 41.319 40.2129 41.3346C40.2505 41.3501 40.2846 41.373 40.3134 41.4017C40.3422 41.4305 40.365 41.4647 40.3805 41.5023C40.3961 41.5399 40.4041 41.5802 40.404 41.6208ZM40.404 40.3819C40.4039 40.464 40.3713 40.5428 40.3132 40.6008C40.2551 40.6589 40.1764 40.6915 40.0943 40.6916H35.758C35.6759 40.6916 35.5971 40.659 35.539 40.6009C35.4809 40.5428 35.4483 40.4641 35.4483 40.3819C35.4483 40.2998 35.4809 40.221 35.539 40.1629C35.5971 40.1048 35.6759 40.0722 35.758 40.0722H40.0943C40.135 40.0721 40.1753 40.0801 40.2129 40.0957C40.2505 40.1112 40.2846 40.134 40.3134 40.1628C40.3422 40.1916 40.365 40.2257 40.3805 40.2633C40.3961 40.3009 40.4041 40.3412 40.404 40.3819ZM44.7403 32.9483C44.9554 32.9483 45.1638 32.8738 45.3301 32.7374C45.4964 32.601 45.6102 32.4112 45.6522 32.2002C45.6942 31.9893 45.6618 31.7703 45.5604 31.5806C45.4591 31.391 45.2951 31.2423 45.0964 31.16C44.8977 31.0776 44.6766 31.0668 44.4708 31.1292C44.265 31.1916 44.0872 31.3235 43.9677 31.5023C43.8482 31.6811 43.7944 31.8958 43.8155 32.1099C43.8366 32.3239 43.9312 32.524 44.0833 32.6761C44.2576 32.8503 44.4939 32.9482 44.7403 32.9483ZM44.7403 31.7093C44.8016 31.7093 44.8615 31.7275 44.9124 31.7615C44.9633 31.7956 45.003 31.8439 45.0265 31.9005C45.0499 31.9571 45.056 32.0194 45.0441 32.0795C45.0321 32.1396 45.0026 32.1948 44.9593 32.2381C44.916 32.2814 44.8608 32.3109 44.8007 32.3229C44.7406 32.3348 44.6784 32.3287 44.6218 32.3052C44.5652 32.2818 44.5168 32.2421 44.4828 32.1912C44.4487 32.1402 44.4306 32.0803 44.4306 32.0191C44.4305 31.9784 44.4385 31.9381 44.4541 31.9005C44.4696 31.8629 44.4924 31.8287 44.5212 31.8C44.55 31.7712 44.5841 31.7484 44.6217 31.7328C44.6593 31.7173 44.6996 31.7093 44.7403 31.7093ZM31.112 32.9483C31.3271 32.9483 31.5355 32.8738 31.7018 32.7374C31.8681 32.601 31.9819 32.4112 32.0239 32.2002C32.0659 31.9893 32.0335 31.7703 31.9321 31.5806C31.8307 31.391 31.6668 31.2423 31.4681 31.16C31.2694 31.0776 31.0483 31.0668 30.8425 31.1292C30.6366 31.1916 30.4588 31.3235 30.3394 31.5023C30.2199 31.6811 30.1661 31.8958 30.1872 32.1099C30.2083 32.3239 30.3029 32.524 30.455 32.6761C30.6293 32.8503 30.8656 32.9482 31.112 32.9483ZM31.112 31.7093C31.1732 31.7093 31.2331 31.7275 31.2841 31.7615C31.335 31.7956 31.3747 31.8439 31.3981 31.9005C31.4216 31.9571 31.4277 32.0194 31.4158 32.0795C31.4038 32.1396 31.3743 32.1948 31.331 32.2381C31.2877 32.2814 31.2325 32.3109 31.1724 32.3229C31.1123 32.3348 31.0501 32.3287 30.9935 32.3052C30.9369 32.2818 30.8885 32.2421 30.8545 32.1912C30.8204 32.1402 30.8023 32.0803 30.8023 32.0191C30.8022 31.9784 30.8102 31.9381 30.8257 31.9005C30.8413 31.8629 30.8641 31.8287 30.8929 31.8C30.9216 31.7712 30.9558 31.7484 30.9934 31.7328C31.031 31.7173 31.0713 31.7093 31.112 31.7093Z" fill="#09A387" stroke="#09A387" stroke-width="0.0511308" stroke-miterlimit="10"/>
</g>
<path d="M60.0775 35.7852H57.4867V34.4248H60.0775C60.5287 34.4248 60.8933 34.3519 61.1713 34.2061C61.4493 34.0602 61.6521 33.8597 61.7797 33.6045C61.9118 33.3447 61.9779 33.0485 61.9779 32.7158C61.9779 32.4014 61.9118 32.1074 61.7797 31.834C61.6521 31.556 61.4493 31.3327 61.1713 31.1641C60.8933 30.9954 60.5287 30.9111 60.0775 30.9111H58.0131V39.4971H56.2972V29.5439H60.0775C60.8477 29.5439 61.5017 29.6807 62.0394 29.9541C62.5817 30.223 62.9942 30.5967 63.2767 31.0752C63.5593 31.5492 63.7006 32.0915 63.7006 32.7021C63.7006 33.3447 63.5593 33.8962 63.2767 34.3564C62.9942 34.8167 62.5817 35.1699 62.0394 35.416C61.5017 35.6621 60.8477 35.7852 60.0775 35.7852ZM68.3396 39.6338C67.7927 39.6338 67.2983 39.5449 66.8562 39.3672C66.4187 39.1849 66.045 38.932 65.7351 38.6084C65.4298 38.2848 65.1951 37.9043 65.031 37.4668C64.867 37.0293 64.7849 36.5576 64.7849 36.0518V35.7783C64.7849 35.1995 64.8692 34.6755 65.0379 34.2061C65.2065 33.7367 65.4412 33.3356 65.742 33.0029C66.0427 32.6657 66.3982 32.4082 66.8084 32.2305C67.2185 32.0527 67.6629 31.9639 68.1414 31.9639C68.67 31.9639 69.1326 32.0527 69.5291 32.2305C69.9256 32.4082 70.2537 32.6589 70.5135 32.9824C70.7778 33.3014 70.9737 33.682 71.1013 34.124C71.2335 34.5661 71.2996 35.0537 71.2996 35.5869V36.291H65.5847V35.1084H69.6726V34.9785C69.6635 34.6823 69.6043 34.4043 69.4949 34.1445C69.3901 33.8848 69.2283 33.6751 69.0095 33.5156C68.7908 33.3561 68.4991 33.2764 68.1345 33.2764C67.8611 33.2764 67.6173 33.3356 67.4031 33.4541C67.1935 33.568 67.018 33.7344 66.8767 33.9531C66.7355 34.1719 66.6261 34.4362 66.5486 34.7461C66.4757 35.0514 66.4392 35.3955 66.4392 35.7783V36.0518C66.4392 36.3753 66.4825 36.6761 66.5691 36.9541C66.6603 37.2275 66.7924 37.4668 66.9656 37.6719C67.1388 37.877 67.3484 38.0387 67.5945 38.1572C67.8406 38.2712 68.1209 38.3281 68.4353 38.3281C68.8318 38.3281 69.185 38.2484 69.4949 38.0889C69.8048 37.9294 70.0737 37.7038 70.3015 37.4121L71.1697 38.2529C71.0102 38.4854 70.8028 38.7087 70.5476 38.9229C70.2924 39.1325 69.9802 39.3034 69.6111 39.4355C69.2465 39.5677 68.8227 39.6338 68.3396 39.6338ZM74.339 33.5088V39.4971H72.6916V32.1006H74.2638L74.339 33.5088ZM76.6017 32.0527L76.5881 33.584C76.4878 33.5658 76.3784 33.5521 76.2599 33.543C76.146 33.5339 76.0321 33.5293 75.9181 33.5293C75.6356 33.5293 75.3872 33.5703 75.173 33.6523C74.9588 33.7298 74.7788 33.8438 74.633 33.9941C74.4917 34.14 74.3823 34.3177 74.3049 34.5273C74.2274 34.737 74.1818 34.9717 74.1681 35.2314L73.7922 35.2588C73.7922 34.7939 73.8377 34.3633 73.9289 33.9668C74.02 33.5703 74.1567 33.2217 74.339 32.9209C74.5259 32.6201 74.7583 32.3854 75.0363 32.2168C75.3189 32.0482 75.6447 31.9639 76.0138 31.9639C76.1141 31.9639 76.2212 31.973 76.3351 31.9912C76.4536 32.0094 76.5425 32.0299 76.6017 32.0527ZM81.6578 38.0137V34.4863C81.6578 34.222 81.6099 33.9941 81.5142 33.8027C81.4185 33.6113 81.2727 33.4632 81.0767 33.3584C80.8853 33.2536 80.6438 33.2012 80.3521 33.2012C80.0832 33.2012 79.8508 33.2467 79.6549 33.3379C79.4589 33.429 79.3062 33.5521 79.1968 33.707C79.0875 33.862 79.0328 34.0374 79.0328 34.2334H77.3922C77.3922 33.9417 77.4628 33.6592 77.6041 33.3857C77.7454 33.1123 77.9504 32.8685 78.2193 32.6543C78.4882 32.4401 78.8095 32.2715 79.1832 32.1484C79.5569 32.0254 79.9761 31.9639 80.441 31.9639C80.997 31.9639 81.4892 32.0573 81.9176 32.2441C82.3505 32.431 82.69 32.7135 82.9361 33.0918C83.1868 33.4655 83.3121 33.9349 83.3121 34.5V37.7881C83.3121 38.1253 83.3349 38.4284 83.3804 38.6973C83.4306 38.9616 83.5012 39.1917 83.5924 39.3877V39.4971H81.9039C81.8264 39.3193 81.7649 39.0938 81.7193 38.8203C81.6783 38.5423 81.6578 38.2734 81.6578 38.0137ZM81.897 34.999L81.9107 36.0176H80.7281C80.4228 36.0176 80.1539 36.0472 79.9215 36.1064C79.689 36.1611 79.4954 36.2432 79.3404 36.3525C79.1855 36.4619 79.0692 36.5941 78.9918 36.749C78.9143 36.904 78.8756 37.0794 78.8756 37.2754C78.8756 37.4714 78.9211 37.6514 79.0123 37.8154C79.1034 37.9749 79.2356 38.1003 79.4088 38.1914C79.5865 38.2826 79.8007 38.3281 80.0513 38.3281C80.3886 38.3281 80.6825 38.2598 80.9332 38.123C81.1884 37.9818 81.3889 37.8109 81.5347 37.6104C81.6806 37.4053 81.758 37.2116 81.7672 37.0293L82.3004 37.7607C82.2457 37.9476 82.1523 38.1481 82.0201 38.3623C81.8879 38.5765 81.7148 38.7816 81.5006 38.9775C81.2909 39.1689 81.038 39.3262 80.7418 39.4492C80.4501 39.5723 80.1129 39.6338 79.7301 39.6338C79.247 39.6338 78.8163 39.5381 78.4381 39.3467C78.0598 39.1507 77.7636 38.8887 77.5494 38.5605C77.3352 38.2279 77.2281 37.8519 77.2281 37.4326C77.2281 37.0407 77.301 36.6943 77.4468 36.3936C77.5972 36.0882 77.816 35.833 78.1031 35.6279C78.3948 35.4229 78.7502 35.2679 79.1695 35.1631C79.5888 35.0537 80.0673 34.999 80.6051 34.999H81.897ZM86.8984 28.9971V39.4971H85.2441V28.9971H86.8984ZM92.973 38.0137V34.4863C92.973 34.222 92.9252 33.9941 92.8295 33.8027C92.7338 33.6113 92.5879 33.4632 92.392 33.3584C92.2006 33.2536 91.959 33.2012 91.6674 33.2012C91.3985 33.2012 91.1661 33.2467 90.9701 33.3379C90.7741 33.429 90.6215 33.5521 90.5121 33.707C90.4027 33.862 90.348 34.0374 90.348 34.2334H88.7074C88.7074 33.9417 88.778 33.6592 88.9193 33.3857C89.0606 33.1123 89.2657 32.8685 89.5345 32.6543C89.8034 32.4401 90.1247 32.2715 90.4984 32.1484C90.8721 32.0254 91.2914 31.9639 91.7562 31.9639C92.3122 31.9639 92.8044 32.0573 93.2328 32.2441C93.6657 32.431 94.0052 32.7135 94.2513 33.0918C94.502 33.4655 94.6273 33.9349 94.6273 34.5V37.7881C94.6273 38.1253 94.6501 38.4284 94.6957 38.6973C94.7458 38.9616 94.8164 39.1917 94.9076 39.3877V39.4971H93.2191C93.1416 39.3193 93.0801 39.0938 93.0345 38.8203C92.9935 38.5423 92.973 38.2734 92.973 38.0137ZM93.2123 34.999L93.226 36.0176H92.0433C91.738 36.0176 91.4691 36.0472 91.2367 36.1064C91.0043 36.1611 90.8106 36.2432 90.6556 36.3525C90.5007 36.4619 90.3845 36.5941 90.307 36.749C90.2295 36.904 90.1908 37.0794 90.1908 37.2754C90.1908 37.4714 90.2364 37.6514 90.3275 37.8154C90.4187 37.9749 90.5508 38.1003 90.724 38.1914C90.9017 38.2826 91.1159 38.3281 91.3666 38.3281C91.7038 38.3281 91.9978 38.2598 92.2484 38.123C92.5036 37.9818 92.7041 37.8109 92.85 37.6104C92.9958 37.4053 93.0733 37.2116 93.0824 37.0293L93.6156 37.7607C93.5609 37.9476 93.4675 38.1481 93.3353 38.3623C93.2032 38.5765 93.03 38.7816 92.8158 38.9775C92.6062 39.1689 92.3532 39.3262 92.057 39.4492C91.7653 39.5723 91.4281 39.6338 91.0453 39.6338C90.5622 39.6338 90.1316 39.5381 89.7533 39.3467C89.375 39.1507 89.0788 38.8887 88.8646 38.5605C88.6504 38.2279 88.5433 37.8519 88.5433 37.4326C88.5433 37.0407 88.6163 36.6943 88.7621 36.3936C88.9125 36.0882 89.1312 35.833 89.4183 35.6279C89.71 35.4229 90.0655 35.2679 90.4847 35.1631C90.904 35.0537 91.3825 34.999 91.9203 34.999H93.2123ZM99.8406 32.1006V33.3037H95.6707V32.1006H99.8406ZM96.8738 30.2891H98.5213V37.4531C98.5213 37.681 98.5532 37.8564 98.617 37.9795C98.6853 38.098 98.7788 38.1777 98.8972 38.2188C99.0157 38.2598 99.1547 38.2803 99.3142 38.2803C99.4282 38.2803 99.5375 38.2734 99.6424 38.2598C99.7472 38.2461 99.8315 38.2324 99.8953 38.2188L99.9021 39.4766C99.7654 39.5176 99.6059 39.554 99.4236 39.5859C99.2459 39.6178 99.0408 39.6338 98.8084 39.6338C98.4301 39.6338 98.0952 39.5677 97.8035 39.4355C97.5118 39.2988 97.284 39.0778 97.1199 38.7725C96.9558 38.4671 96.8738 38.0615 96.8738 37.5557V30.2891ZM105.382 38.0137V34.4863C105.382 34.222 105.334 33.9941 105.238 33.8027C105.143 33.6113 104.997 33.4632 104.801 33.3584C104.61 33.2536 104.368 33.2012 104.076 33.2012C103.807 33.2012 103.575 33.2467 103.379 33.3379C103.183 33.429 103.03 33.5521 102.921 33.707C102.812 33.862 102.757 34.0374 102.757 34.2334H101.116C101.116 33.9417 101.187 33.6592 101.328 33.3857C101.47 33.1123 101.675 32.8685 101.944 32.6543C102.212 32.4401 102.534 32.2715 102.907 32.1484C103.281 32.0254 103.7 31.9639 104.165 31.9639C104.721 31.9639 105.213 32.0573 105.642 32.2441C106.075 32.431 106.414 32.7135 106.66 33.0918C106.911 33.4655 107.036 33.9349 107.036 34.5V37.7881C107.036 38.1253 107.059 38.4284 107.105 38.6973C107.155 38.9616 107.225 39.1917 107.317 39.3877V39.4971H105.628C105.551 39.3193 105.489 39.0938 105.444 38.8203C105.403 38.5423 105.382 38.2734 105.382 38.0137ZM105.621 34.999L105.635 36.0176H104.452C104.147 36.0176 103.878 36.0472 103.646 36.1064C103.413 36.1611 103.22 36.2432 103.065 36.3525C102.91 36.4619 102.793 36.5941 102.716 36.749C102.639 36.904 102.6 37.0794 102.6 37.2754C102.6 37.4714 102.645 37.6514 102.736 37.8154C102.828 37.9749 102.96 38.1003 103.133 38.1914C103.311 38.2826 103.525 38.3281 103.776 38.3281C104.113 38.3281 104.407 38.2598 104.657 38.123C104.913 37.9818 105.113 37.8109 105.259 37.6104C105.405 37.4053 105.482 37.2116 105.491 37.0293L106.025 37.7607C105.97 37.9476 105.876 38.1481 105.744 38.3623C105.612 38.5765 105.439 38.7816 105.225 38.9775C105.015 39.1689 104.762 39.3262 104.466 39.4492C104.174 39.5723 103.837 39.6338 103.454 39.6338C102.971 39.6338 102.541 39.5381 102.162 39.3467C101.784 39.1507 101.488 38.8887 101.274 38.5605C101.059 38.2279 100.952 37.8519 100.952 37.4326C100.952 37.0407 101.025 36.6943 101.171 36.3936C101.321 36.0882 101.54 35.833 101.827 35.6279C102.119 35.4229 102.474 35.2679 102.894 35.1631C103.313 35.0537 103.792 34.999 104.329 34.999H105.621ZM110.493 33.6797V39.4971H108.845V32.1006H110.397L110.493 33.6797ZM110.199 35.5254L109.666 35.5186C109.67 34.9945 109.743 34.5137 109.884 34.0762C110.03 33.6387 110.231 33.2627 110.486 32.9482C110.746 32.6338 111.056 32.3923 111.416 32.2236C111.776 32.0505 112.177 31.9639 112.619 31.9639C112.974 31.9639 113.295 32.014 113.583 32.1143C113.874 32.21 114.123 32.3672 114.328 32.5859C114.537 32.8047 114.697 33.0895 114.806 33.4404C114.916 33.7868 114.97 34.2129 114.97 34.7188V39.4971H113.316V34.7119C113.316 34.3564 113.264 34.0762 113.159 33.8711C113.059 33.6615 112.91 33.5133 112.714 33.4268C112.523 33.3356 112.284 33.29 111.997 33.29C111.714 33.29 111.461 33.3493 111.238 33.4678C111.015 33.5863 110.825 33.748 110.67 33.9531C110.52 34.1582 110.404 34.3952 110.322 34.6641C110.24 34.9329 110.199 35.2201 110.199 35.5254ZM122.218 29.5439V39.4971H120.502V29.5439H122.218ZM128.2 29.5439L124.166 34.3359L121.87 36.7695L121.569 35.0674L123.209 33.0439L126.108 29.5439H128.2ZM126.354 39.4971L123.079 34.7803L124.262 33.6113L128.391 39.4971H126.354ZM133.454 38.0137V34.4863C133.454 34.222 133.406 33.9941 133.31 33.8027C133.215 33.6113 133.069 33.4632 132.873 33.3584C132.681 33.2536 132.44 33.2012 132.148 33.2012C131.879 33.2012 131.647 33.2467 131.451 33.3379C131.255 33.429 131.102 33.5521 130.993 33.707C130.884 33.862 130.829 34.0374 130.829 34.2334H129.188C129.188 33.9417 129.259 33.6592 129.4 33.3857C129.541 33.1123 129.747 32.8685 130.015 32.6543C130.284 32.4401 130.606 32.2715 130.979 32.1484C131.353 32.0254 131.772 31.9639 132.237 31.9639C132.793 31.9639 133.285 32.0573 133.714 32.2441C134.147 32.431 134.486 32.7135 134.732 33.0918C134.983 33.4655 135.108 33.9349 135.108 34.5V37.7881C135.108 38.1253 135.131 38.4284 135.177 38.6973C135.227 38.9616 135.297 39.1917 135.388 39.3877V39.4971H133.7C133.623 39.3193 133.561 39.0938 133.515 38.8203C133.474 38.5423 133.454 38.2734 133.454 38.0137ZM133.693 34.999L133.707 36.0176H132.524C132.219 36.0176 131.95 36.0472 131.718 36.1064C131.485 36.1611 131.291 36.2432 131.136 36.3525C130.982 36.4619 130.865 36.5941 130.788 36.749C130.71 36.904 130.672 37.0794 130.672 37.2754C130.672 37.4714 130.717 37.6514 130.808 37.8154C130.9 37.9749 131.032 38.1003 131.205 38.1914C131.383 38.2826 131.597 38.3281 131.847 38.3281C132.185 38.3281 132.479 38.2598 132.729 38.123C132.984 37.9818 133.185 37.8109 133.331 37.6104C133.477 37.4053 133.554 37.2116 133.563 37.0293L134.096 37.7607C134.042 37.9476 133.948 38.1481 133.816 38.3623C133.684 38.5765 133.511 38.7816 133.297 38.9775C133.087 39.1689 132.834 39.3262 132.538 39.4492C132.246 39.5723 131.909 39.6338 131.526 39.6338C131.043 39.6338 130.612 39.5381 130.234 39.3467C129.856 39.1507 129.56 38.8887 129.345 38.5605C129.131 38.2279 129.024 37.8519 129.024 37.4326C129.024 37.0407 129.097 36.6943 129.243 36.3936C129.393 36.0882 129.612 35.833 129.899 35.6279C130.191 35.4229 130.546 35.2679 130.966 35.1631C131.385 35.0537 131.863 34.999 132.401 34.999H133.693ZM138.565 33.6797V39.4971H136.917V32.1006H138.469L138.565 33.6797ZM138.271 35.5254L137.737 35.5186C137.742 34.9945 137.815 34.5137 137.956 34.0762C138.102 33.6387 138.303 33.2627 138.558 32.9482C138.818 32.6338 139.127 32.3923 139.487 32.2236C139.847 32.0505 140.249 31.9639 140.691 31.9639C141.046 31.9639 141.367 32.014 141.654 32.1143C141.946 32.21 142.195 32.3672 142.4 32.5859C142.609 32.8047 142.769 33.0895 142.878 33.4404C142.987 33.7868 143.042 34.2129 143.042 34.7188V39.4971H141.388V34.7119C141.388 34.3564 141.335 34.0762 141.231 33.8711C141.13 33.6615 140.982 33.5133 140.786 33.4268C140.595 33.3356 140.356 33.29 140.069 33.29C139.786 33.29 139.533 33.3493 139.31 33.4678C139.086 33.5863 138.897 33.748 138.742 33.9531C138.592 34.1582 138.476 34.3952 138.394 34.6641C138.312 34.9329 138.271 35.2201 138.271 35.5254ZM148.214 32.1006V33.3037H144.045V32.1006H148.214ZM145.248 30.2891H146.895V37.4531C146.895 37.681 146.927 37.8564 146.991 37.9795C147.059 38.098 147.153 38.1777 147.271 38.2188C147.39 38.2598 147.529 38.2803 147.688 38.2803C147.802 38.2803 147.911 38.2734 148.016 38.2598C148.121 38.2461 148.205 38.2324 148.269 38.2188L148.276 39.4766C148.139 39.5176 147.98 39.554 147.797 39.5859C147.62 39.6178 147.415 39.6338 147.182 39.6338C146.804 39.6338 146.469 39.5677 146.177 39.4355C145.886 39.2988 145.658 39.0778 145.494 38.7725C145.33 38.4671 145.248 38.0615 145.248 37.5557V30.2891ZM149.107 35.8809V35.7236C149.107 35.1904 149.185 34.696 149.34 34.2402C149.495 33.7799 149.718 33.3812 150.01 33.0439C150.306 32.7021 150.666 32.4378 151.09 32.251C151.518 32.0596 152.001 31.9639 152.539 31.9639C153.081 31.9639 153.564 32.0596 153.988 32.251C154.417 32.4378 154.779 32.7021 155.075 33.0439C155.371 33.3812 155.597 33.7799 155.752 34.2402C155.907 34.696 155.984 35.1904 155.984 35.7236V35.8809C155.984 36.4141 155.907 36.9085 155.752 37.3643C155.597 37.82 155.371 38.2188 155.075 38.5605C154.779 38.8978 154.419 39.1621 153.995 39.3535C153.571 39.5404 153.09 39.6338 152.553 39.6338C152.01 39.6338 151.525 39.5404 151.097 39.3535C150.673 39.1621 150.313 38.8978 150.017 38.5605C149.72 38.2188 149.495 37.82 149.34 37.3643C149.185 36.9085 149.107 36.4141 149.107 35.8809ZM150.755 35.7236V35.8809C150.755 36.2135 150.789 36.528 150.857 36.8242C150.926 37.1204 151.033 37.3802 151.179 37.6035C151.325 37.8268 151.511 38.0023 151.739 38.1299C151.967 38.2575 152.238 38.3213 152.553 38.3213C152.858 38.3213 153.122 38.2575 153.346 38.1299C153.574 38.0023 153.76 37.8268 153.906 37.6035C154.052 37.3802 154.159 37.1204 154.228 36.8242C154.3 36.528 154.337 36.2135 154.337 35.8809V35.7236C154.337 35.3955 154.3 35.0856 154.228 34.7939C154.159 34.4977 154.05 34.2357 153.899 34.0078C153.754 33.7799 153.567 33.6022 153.339 33.4746C153.116 33.3424 152.849 33.2764 152.539 33.2764C152.229 33.2764 151.96 33.3424 151.732 33.4746C151.509 33.6022 151.325 33.7799 151.179 34.0078C151.033 34.2357 150.926 34.4977 150.857 34.7939C150.789 35.0856 150.755 35.3955 150.755 35.7236ZM159.12 33.5088V39.4971H157.472V32.1006H159.044L159.12 33.5088ZM161.382 32.0527L161.369 33.584C161.268 33.5658 161.159 33.5521 161.04 33.543C160.926 33.5339 160.813 33.5293 160.699 33.5293C160.416 33.5293 160.168 33.5703 159.953 33.6523C159.739 33.7298 159.559 33.8438 159.413 33.9941C159.272 34.14 159.163 34.3177 159.085 34.5273C159.008 34.737 158.962 34.9717 158.949 35.2314L158.573 35.2588C158.573 34.7939 158.618 34.3633 158.709 33.9668C158.8 33.5703 158.937 33.2217 159.12 32.9209C159.306 32.6201 159.539 32.3854 159.817 32.2168C160.099 32.0482 160.425 31.9639 160.794 31.9639C160.895 31.9639 161.002 31.973 161.116 31.9912C161.234 32.0094 161.323 32.0299 161.382 32.0527Z" fill="#49454F"/>
</g>
<defs>
<filter id="filter0_dd_690_38935" x="0.926147" y="-0.50293" width="197" height="72" filterUnits="userSpaceOnUse" color-interpolation-filters="sRGB">
<feFlood flood-opacity="0" result="BackgroundImageFix"/>
<feColorMatrix in="SourceAlpha" type="matrix" values="0 0 0 0 0 0 0 0 0 0 0 0 0 0 0 0 0 0 127 0" result="hardAlpha"/>
<feMorphology radius="1" operator="dilate" in="SourceAlpha" result="effect1_dropShadow_690_38935"/>
<feOffset dy="1"/>
<feGaussianBlur stdDeviation="1.5"/>
<feColorMatrix type="matrix" values="0 0 0 0 0 0 0 0 0 0 0 0 0 0 0 0 0 0 0.15 0"/>
<feBlend mode="normal" in2="BackgroundImageFix" result="effect1_dropShadow_690_38935"/>
<feColorMatrix in="SourceAlpha" type="matrix" values="0 0 0 0 0 0 0 0 0 0 0 0 0 0 0 0 0 0 127 0" result="hardAlpha"/>
<feOffset dy="1"/>
<feGaussianBlur stdDeviation="1"/>
<feColorMatrix type="matrix" values="0 0 0 0 0 0 0 0 0 0 0 0 0 0 0 0 0 0 0.3 0"/>
<feBlend mode="normal" in2="effect1_dropShadow_690_38935" result="effect2_dropShadow_690_38935"/>
<feBlend mode="normal" in="SourceGraphic" in2="effect2_dropShadow_690_38935" result="shape"/>
</filter>
<clipPath id="clip0_690_38935">
<rect width="18" height="18" fill="white" transform="translate(28.9261 25.4971)"/>
</clipPath>
</defs>
</svg>
