<svg width="139" height="40" viewBox="0 0 139 40" fill="none" xmlns="http://www.w3.org/2000/svg">
<rect width="139" height="40" rx="8" fill="#ECEFF1"/>
<path d="M21.5557 25.098C20.641 25.098 19.801 24.8833 19.0357 24.454C18.2704 24.0247 17.6637 23.432 17.2157 22.676C16.7677 21.9107 16.5437 21.0473 16.5437 20.086C16.5437 19.134 16.7677 18.28 17.2157 17.524C17.6637 16.7587 18.2704 16.1613 19.0357 15.732C19.801 15.3027 20.641 15.088 21.5557 15.088C22.4797 15.088 23.3197 15.3027 24.0757 15.732C24.841 16.1613 25.443 16.7587 25.8817 17.524C26.3297 18.28 26.5537 19.134 26.5537 20.086C26.5537 21.0473 26.3297 21.9107 25.8817 22.676C25.443 23.432 24.841 24.0247 24.0757 24.454C23.3104 24.8833 22.4704 25.098 21.5557 25.098ZM21.5557 23.348C22.1437 23.348 22.6617 23.2173 23.1097 22.956C23.5577 22.6853 23.9077 22.3027 24.1597 21.808C24.4117 21.3133 24.5377 20.7393 24.5377 20.086C24.5377 19.4327 24.4117 18.8633 24.1597 18.378C23.9077 17.8833 23.5577 17.5053 23.1097 17.244C22.6617 16.9827 22.1437 16.852 21.5557 16.852C20.9677 16.852 20.445 16.9827 19.9877 17.244C19.5397 17.5053 19.1897 17.8833 18.9377 18.378C18.6857 18.8633 18.5597 19.4327 18.5597 20.086C18.5597 20.7393 18.6857 21.3133 18.9377 21.808C19.1897 22.3027 19.5397 22.6853 19.9877 22.956C20.445 23.2173 20.9677 23.348 21.5557 23.348ZM30.2219 18.448C30.4739 18.0373 30.8006 17.7153 31.2019 17.482C31.6126 17.2487 32.0792 17.132 32.6019 17.132V19.19H32.0839C31.4679 19.19 31.0012 19.3347 30.6839 19.624C30.3759 19.9133 30.2219 20.4173 30.2219 21.136V25H28.2619V17.244H30.2219V18.448ZM33.6681 21.094C33.6681 20.31 33.8221 19.6147 34.1301 19.008C34.4474 18.4013 34.8767 17.9347 35.4181 17.608C35.9594 17.2813 36.5614 17.118 37.2241 17.118C37.7281 17.118 38.2087 17.23 38.6661 17.454C39.1234 17.6687 39.4874 17.958 39.7581 18.322V14.64H41.7461V25H39.7581V23.852C39.5154 24.2347 39.1747 24.5427 38.7361 24.776C38.2974 25.0093 37.7887 25.126 37.2101 25.126C36.5567 25.126 35.9594 24.958 35.4181 24.622C34.8767 24.286 34.4474 23.8147 34.1301 23.208C33.8221 22.592 33.6681 21.8873 33.6681 21.094ZM39.7721 21.122C39.7721 20.646 39.6787 20.24 39.4921 19.904C39.3054 19.5587 39.0534 19.2973 38.7361 19.12C38.4187 18.9333 38.0781 18.84 37.7141 18.84C37.3501 18.84 37.0141 18.9287 36.7061 19.106C36.3981 19.2833 36.1461 19.5447 35.9501 19.89C35.7634 20.226 35.6701 20.6273 35.6701 21.094C35.6701 21.5607 35.7634 21.9713 35.9501 22.326C36.1461 22.6713 36.3981 22.9373 36.7061 23.124C37.0234 23.3107 37.3594 23.404 37.7141 23.404C38.0781 23.404 38.4187 23.3153 38.7361 23.138C39.0534 22.9513 39.3054 22.69 39.4921 22.354C39.6787 22.0087 39.7721 21.598 39.7721 21.122ZM51.1203 20.954C51.1203 21.234 51.1017 21.486 51.0643 21.71H45.3943C45.441 22.27 45.637 22.7087 45.9823 23.026C46.3277 23.3433 46.7523 23.502 47.2563 23.502C47.9843 23.502 48.5023 23.1893 48.8103 22.564H50.9243C50.7003 23.3107 50.271 23.9267 49.6363 24.412C49.0017 24.888 48.2223 25.126 47.2983 25.126C46.5517 25.126 45.8797 24.9627 45.2823 24.636C44.6943 24.3 44.2323 23.8287 43.8963 23.222C43.5697 22.6153 43.4063 21.9153 43.4063 21.122C43.4063 20.3193 43.5697 19.6147 43.8963 19.008C44.223 18.4013 44.6803 17.9347 45.2683 17.608C45.8563 17.2813 46.533 17.118 47.2983 17.118C48.0357 17.118 48.6937 17.2767 49.2723 17.594C49.8603 17.9113 50.313 18.364 50.6303 18.952C50.957 19.5307 51.1203 20.198 51.1203 20.954ZM49.0903 20.394C49.081 19.89 48.899 19.4887 48.5443 19.19C48.1897 18.882 47.7557 18.728 47.2423 18.728C46.757 18.728 46.3463 18.8773 46.0103 19.176C45.6837 19.4653 45.483 19.8713 45.4083 20.394H49.0903ZM54.761 18.448C55.013 18.0373 55.3396 17.7153 55.741 17.482C56.1516 17.2487 56.6183 17.132 57.141 17.132V19.19H56.623C56.007 19.19 55.5403 19.3347 55.223 19.624C54.915 19.9133 54.761 20.4173 54.761 21.136V25H52.801V17.244H54.761V18.448ZM71.0751 15.228L67.4911 25H65.1111L61.5271 15.228H63.6271L66.3151 22.998L68.9891 15.228H71.0751ZM75.9442 25.126C75.1975 25.126 74.5255 24.9627 73.9282 24.636C73.3308 24.3 72.8595 23.8287 72.5142 23.222C72.1782 22.6153 72.0102 21.9153 72.0102 21.122C72.0102 20.3287 72.1828 19.6287 72.5282 19.022C72.8828 18.4153 73.3635 17.9487 73.9702 17.622C74.5768 17.286 75.2535 17.118 76.0002 17.118C76.7468 17.118 77.4235 17.286 78.0302 17.622C78.6368 17.9487 79.1128 18.4153 79.4582 19.022C79.8128 19.6287 79.9902 20.3287 79.9902 21.122C79.9902 21.9153 79.8082 22.6153 79.4442 23.222C79.0895 23.8287 78.6042 24.3 77.9882 24.636C77.3815 24.9627 76.7002 25.126 75.9442 25.126ZM75.9442 23.418C76.2988 23.418 76.6302 23.334 76.9382 23.166C77.2555 22.9887 77.5075 22.7273 77.6942 22.382C77.8808 22.0367 77.9742 21.6167 77.9742 21.122C77.9742 20.3847 77.7782 19.82 77.3862 19.428C77.0035 19.0267 76.5322 18.826 75.9722 18.826C75.4122 18.826 74.9408 19.0267 74.5582 19.428C74.1848 19.82 73.9982 20.3847 73.9982 21.122C73.9982 21.8593 74.1802 22.4287 74.5442 22.83C74.9175 23.222 75.3842 23.418 75.9442 23.418ZM88.9999 17.244V25H87.0259V24.02C86.7739 24.356 86.4426 24.622 86.0319 24.818C85.6306 25.0047 85.1919 25.098 84.7159 25.098C84.1092 25.098 83.5726 24.972 83.1059 24.72C82.6392 24.4587 82.2706 24.0807 81.9999 23.586C81.7386 23.082 81.6079 22.4847 81.6079 21.794V17.244H83.5679V21.514C83.5679 22.13 83.7219 22.606 84.0299 22.942C84.3379 23.2687 84.7579 23.432 85.2899 23.432C85.8312 23.432 86.2559 23.2687 86.5639 22.942C86.8719 22.606 87.0259 22.13 87.0259 21.514V17.244H88.9999ZM90.6798 21.122C90.6798 20.3193 90.8431 19.6193 91.1698 19.022C91.4964 18.4153 91.9491 17.9487 92.5278 17.622C93.1064 17.286 93.7691 17.118 94.5158 17.118C95.4771 17.118 96.2704 17.3607 96.8958 17.846C97.5304 18.322 97.9551 18.994 98.1698 19.862H96.0558C95.9438 19.526 95.7524 19.2647 95.4818 19.078C95.2204 18.882 94.8938 18.784 94.5018 18.784C93.9418 18.784 93.4984 18.9893 93.1718 19.4C92.8451 19.8013 92.6818 20.3753 92.6818 21.122C92.6818 21.8593 92.8451 22.4333 93.1718 22.844C93.4984 23.2453 93.9418 23.446 94.5018 23.446C95.2951 23.446 95.8131 23.0913 96.0558 22.382H98.1698C97.9551 23.222 97.5304 23.8893 96.8958 24.384C96.2611 24.8787 95.4678 25.126 94.5158 25.126C93.7691 25.126 93.1064 24.9627 92.5278 24.636C91.9491 24.3 91.4964 23.8333 91.1698 23.236C90.8431 22.6293 90.6798 21.9247 90.6798 21.122ZM104.224 17.132C104.812 17.132 105.334 17.2627 105.792 17.524C106.249 17.776 106.604 18.154 106.856 18.658C107.117 19.1527 107.248 19.75 107.248 20.45V25H105.288V20.716C105.288 20.1 105.134 19.6287 104.826 19.302C104.518 18.966 104.098 18.798 103.566 18.798C103.024 18.798 102.595 18.966 102.278 19.302C101.97 19.6287 101.816 20.1 101.816 20.716V25H99.8556V14.64H101.816V18.21C102.068 17.874 102.404 17.6127 102.824 17.426C103.244 17.23 103.71 17.132 104.224 17.132ZM116.572 20.954C116.572 21.234 116.553 21.486 116.516 21.71H110.846C110.892 22.27 111.088 22.7087 111.434 23.026C111.779 23.3433 112.204 23.502 112.708 23.502C113.436 23.502 113.954 23.1893 114.262 22.564H116.376C116.152 23.3107 115.722 23.9267 115.088 24.412C114.453 24.888 113.674 25.126 112.75 25.126C112.003 25.126 111.331 24.9627 110.734 24.636C110.146 24.3 109.684 23.8287 109.348 23.222C109.021 22.6153 108.858 21.9153 108.858 21.122C108.858 20.3193 109.021 19.6147 109.348 19.008C109.674 18.4013 110.132 17.9347 110.72 17.608C111.308 17.2813 111.984 17.118 112.75 17.118C113.487 17.118 114.145 17.2767 114.724 17.594C115.312 17.9113 115.764 18.364 116.082 18.952C116.408 19.5307 116.572 20.198 116.572 20.954ZM114.542 20.394C114.532 19.89 114.35 19.4887 113.996 19.19C113.641 18.882 113.207 18.728 112.694 18.728C112.208 18.728 111.798 18.8773 111.462 19.176C111.135 19.4653 110.934 19.8713 110.86 20.394H114.542ZM120.212 18.448C120.464 18.0373 120.791 17.7153 121.192 17.482C121.603 17.2487 122.069 17.132 122.592 17.132V19.19H122.074C121.458 19.19 120.991 19.3347 120.674 19.624C120.366 19.9133 120.212 20.4173 120.212 21.136V25H118.252V17.244H120.212V18.448Z" fill="#61308C"/>
</svg>
