<svg width="458" height="40" viewBox="0 0 458 40" fill="none" xmlns="http://www.w3.org/2000/svg">
<rect width="458" height="40" rx="8" fill="#3A379F"/>
<path d="M204.258 21.7266H206.594C206.547 22.4922 206.336 23.1719 205.961 23.7656C205.591 24.3594 205.073 24.8229 204.406 25.1562C203.745 25.4896 202.948 25.6562 202.016 25.6562C201.286 25.6562 200.633 25.5312 200.055 25.2812C199.477 25.026 198.982 24.6615 198.57 24.1875C198.164 23.7135 197.854 23.1406 197.641 22.4688C197.427 21.7969 197.32 21.0443 197.32 20.2109V19.4219C197.32 18.5885 197.43 17.8359 197.648 17.1641C197.872 16.487 198.19 15.9115 198.602 15.4375C199.018 14.9635 199.516 14.599 200.094 14.3438C200.672 14.0885 201.318 13.9609 202.031 13.9609C202.979 13.9609 203.779 14.1328 204.43 14.4766C205.086 14.8203 205.594 15.2943 205.953 15.8984C206.318 16.5026 206.536 17.1901 206.609 17.9609H204.266C204.24 17.5026 204.148 17.1146 203.992 16.7969C203.836 16.474 203.599 16.2318 203.281 16.0703C202.969 15.9036 202.552 15.8203 202.031 15.8203C201.641 15.8203 201.299 15.8932 201.008 16.0391C200.716 16.1849 200.471 16.4062 200.273 16.7031C200.076 17 199.927 17.375 199.828 17.8281C199.734 18.276 199.688 18.8021 199.688 19.4062V20.2109C199.688 20.7995 199.732 21.3177 199.82 21.7656C199.909 22.2083 200.044 22.5833 200.227 22.8906C200.414 23.1927 200.654 23.4219 200.945 23.5781C201.242 23.7292 201.599 23.8047 202.016 23.8047C202.505 23.8047 202.909 23.7266 203.227 23.5703C203.544 23.4141 203.786 23.1823 203.953 22.875C204.125 22.5677 204.227 22.1849 204.258 21.7266ZM207.633 21.3594V21.1953C207.633 20.5755 207.721 20.0052 207.898 19.4844C208.076 18.9583 208.333 18.5026 208.672 18.1172C209.01 17.7318 209.427 17.4323 209.922 17.2188C210.417 17 210.984 16.8906 211.625 16.8906C212.266 16.8906 212.836 17 213.336 17.2188C213.836 17.4323 214.255 17.7318 214.594 18.1172C214.938 18.5026 215.198 18.9583 215.375 19.4844C215.552 20.0052 215.641 20.5755 215.641 21.1953V21.3594C215.641 21.974 215.552 22.5443 215.375 23.0703C215.198 23.5911 214.938 24.0469 214.594 24.4375C214.255 24.8229 213.839 25.1224 213.344 25.3359C212.849 25.5495 212.281 25.6562 211.641 25.6562C211 25.6562 210.43 25.5495 209.93 25.3359C209.435 25.1224 209.016 24.8229 208.672 24.4375C208.333 24.0469 208.076 23.5911 207.898 23.0703C207.721 22.5443 207.633 21.974 207.633 21.3594ZM209.883 21.1953V21.3594C209.883 21.7135 209.914 22.0443 209.977 22.3516C210.039 22.6589 210.138 22.9297 210.273 23.1641C210.414 23.3932 210.596 23.5729 210.82 23.7031C211.044 23.8333 211.318 23.8984 211.641 23.8984C211.953 23.8984 212.221 23.8333 212.445 23.7031C212.669 23.5729 212.849 23.3932 212.984 23.1641C213.12 22.9297 213.219 22.6589 213.281 22.3516C213.349 22.0443 213.383 21.7135 213.383 21.3594V21.1953C213.383 20.8516 213.349 20.5286 213.281 20.2266C213.219 19.9193 213.117 19.6484 212.977 19.4141C212.841 19.1745 212.661 18.987 212.438 18.8516C212.214 18.7161 211.943 18.6484 211.625 18.6484C211.307 18.6484 211.036 18.7161 210.812 18.8516C210.594 18.987 210.414 19.1745 210.273 19.4141C210.138 19.6484 210.039 19.9193 209.977 20.2266C209.914 20.5286 209.883 20.8516 209.883 21.1953ZM219.227 18.8516V25.5H216.977V17.0469H219.086L219.227 18.8516ZM218.898 20.9766H218.289C218.289 20.3516 218.37 19.7891 218.531 19.2891C218.693 18.7839 218.919 18.3542 219.211 18C219.503 17.6406 219.849 17.3672 220.25 17.1797C220.656 16.987 221.109 16.8906 221.609 16.8906C222.005 16.8906 222.367 16.9479 222.695 17.0625C223.023 17.1771 223.305 17.3594 223.539 17.6094C223.779 17.8594 223.961 18.1901 224.086 18.6016C224.216 19.013 224.281 19.5156 224.281 20.1094V25.5H222.016V20.1016C222.016 19.7266 221.964 19.4349 221.859 19.2266C221.755 19.0182 221.602 18.8724 221.398 18.7891C221.201 18.7005 220.956 18.6562 220.664 18.6562C220.362 18.6562 220.099 18.7161 219.875 18.8359C219.656 18.9557 219.474 19.1224 219.328 19.3359C219.188 19.5443 219.081 19.7891 219.008 20.0703C218.935 20.3516 218.898 20.6536 218.898 20.9766ZM230.133 17.0469V18.6406H225.211V17.0469H230.133ZM226.43 14.9609H228.68V22.9531C228.68 23.1979 228.711 23.3854 228.773 23.5156C228.841 23.6458 228.94 23.737 229.07 23.7891C229.201 23.8359 229.365 23.8594 229.562 23.8594C229.703 23.8594 229.828 23.8542 229.938 23.8438C230.052 23.8281 230.148 23.8125 230.227 23.7969L230.234 25.4531C230.042 25.5156 229.833 25.5651 229.609 25.6016C229.385 25.638 229.138 25.6562 228.867 25.6562C228.372 25.6562 227.94 25.5755 227.57 25.4141C227.206 25.2474 226.924 24.9818 226.727 24.6172C226.529 24.2526 226.43 23.7734 226.43 23.1797V14.9609ZM233.789 17.0469V25.5H231.531V17.0469H233.789ZM231.391 14.8438C231.391 14.5156 231.505 14.2448 231.734 14.0312C231.964 13.8177 232.271 13.7109 232.656 13.7109C233.036 13.7109 233.341 13.8177 233.57 14.0312C233.805 14.2448 233.922 14.5156 233.922 14.8438C233.922 15.1719 233.805 15.4427 233.57 15.6562C233.341 15.8698 233.036 15.9766 232.656 15.9766C232.271 15.9766 231.964 15.8698 231.734 15.6562C231.505 15.4427 231.391 15.1719 231.391 14.8438ZM237.852 18.8516V25.5H235.602V17.0469H237.711L237.852 18.8516ZM237.523 20.9766H236.914C236.914 20.3516 236.995 19.7891 237.156 19.2891C237.318 18.7839 237.544 18.3542 237.836 18C238.128 17.6406 238.474 17.3672 238.875 17.1797C239.281 16.987 239.734 16.8906 240.234 16.8906C240.63 16.8906 240.992 16.9479 241.32 17.0625C241.648 17.1771 241.93 17.3594 242.164 17.6094C242.404 17.8594 242.586 18.1901 242.711 18.6016C242.841 19.013 242.906 19.5156 242.906 20.1094V25.5H240.641V20.1016C240.641 19.7266 240.589 19.4349 240.484 19.2266C240.38 19.0182 240.227 18.8724 240.023 18.7891C239.826 18.7005 239.581 18.6562 239.289 18.6562C238.987 18.6562 238.724 18.7161 238.5 18.8359C238.281 18.9557 238.099 19.1224 237.953 19.3359C237.812 19.5443 237.706 19.7891 237.633 20.0703C237.56 20.3516 237.523 20.6536 237.523 20.9766ZM249.617 23.4766V17.0469H251.867V25.5H249.75L249.617 23.4766ZM249.867 21.7422L250.531 21.7266C250.531 22.2891 250.466 22.8125 250.336 23.2969C250.206 23.776 250.01 24.1927 249.75 24.5469C249.49 24.8958 249.161 25.1693 248.766 25.3672C248.37 25.5599 247.904 25.6562 247.367 25.6562C246.956 25.6562 246.576 25.599 246.227 25.4844C245.883 25.3646 245.586 25.1797 245.336 24.9297C245.091 24.6745 244.898 24.349 244.758 23.9531C244.622 23.5521 244.555 23.0703 244.555 22.5078V17.0469H246.805V22.5234C246.805 22.7734 246.833 22.9844 246.891 23.1562C246.953 23.3281 247.039 23.4688 247.148 23.5781C247.258 23.6875 247.385 23.7656 247.531 23.8125C247.682 23.8594 247.849 23.8828 248.031 23.8828C248.495 23.8828 248.859 23.7891 249.125 23.6016C249.396 23.4141 249.586 23.1589 249.695 22.8359C249.81 22.5078 249.867 22.1432 249.867 21.7422ZM257.477 25.6562C256.82 25.6562 256.232 25.5521 255.711 25.3438C255.19 25.1302 254.747 24.8359 254.383 24.4609C254.023 24.0859 253.747 23.651 253.555 23.1562C253.362 22.6562 253.266 22.125 253.266 21.5625V21.25C253.266 20.6094 253.357 20.0234 253.539 19.4922C253.721 18.9609 253.982 18.5 254.32 18.1094C254.664 17.7188 255.081 17.4193 255.57 17.2109C256.06 16.9974 256.612 16.8906 257.227 16.8906C257.826 16.8906 258.357 16.9896 258.82 17.1875C259.284 17.3854 259.672 17.6667 259.984 18.0312C260.302 18.3958 260.542 18.8333 260.703 19.3438C260.865 19.849 260.945 20.4115 260.945 21.0312V21.9688H254.227V20.4688H258.734V20.2969C258.734 19.9844 258.677 19.7057 258.562 19.4609C258.453 19.2109 258.286 19.013 258.062 18.8672C257.839 18.7214 257.552 18.6484 257.203 18.6484C256.906 18.6484 256.651 18.7135 256.438 18.8438C256.224 18.974 256.049 19.1562 255.914 19.3906C255.784 19.625 255.685 19.901 255.617 20.2188C255.555 20.5312 255.523 20.875 255.523 21.25V21.5625C255.523 21.901 255.57 22.2135 255.664 22.5C255.763 22.7865 255.901 23.0339 256.078 23.2422C256.26 23.4505 256.479 23.612 256.734 23.7266C256.995 23.8411 257.289 23.8984 257.617 23.8984C258.023 23.8984 258.401 23.8203 258.75 23.6641C259.104 23.5026 259.409 23.2604 259.664 22.9375L260.758 24.125C260.581 24.3802 260.339 24.625 260.031 24.8594C259.729 25.0938 259.365 25.2865 258.938 25.4375C258.51 25.5833 258.023 25.6562 257.477 25.6562Z" fill="#FCFCFC"/>
</svg>
