<svg width="104" height="40" viewBox="0 0 104 40" fill="none" xmlns="http://www.w3.org/2000/svg">
<rect width="104" height="40" rx="8" fill="#3A379F"/>
<g clip-path="url(#clip0_1137_33319)">
<path d="M30.332 14.6667H27.532C26.4119 14.6667 25.8519 14.6667 25.4241 14.8846C25.0477 15.0764 24.7418 15.3824 24.55 15.7587C24.332 16.1865 24.332 16.7466 24.332 17.8667V23.4667C24.332 24.5868 24.332 25.1468 24.55 25.5746C24.7418 25.951 25.0477 26.2569 25.4241 26.4487C25.8519 26.6667 26.4119 26.6667 27.532 26.6667H33.132C34.2521 26.6667 34.8122 26.6667 35.24 26.4487C35.6163 26.2569 35.9223 25.951 36.114 25.5746C36.332 25.1468 36.332 24.5868 36.332 23.4667V20.6667M28.332 22.6667H29.4484C29.7745 22.6667 29.9376 22.6667 30.091 22.6298C30.2271 22.5972 30.3571 22.5433 30.4764 22.4702C30.611 22.3877 30.7263 22.2724 30.9569 22.0418L37.332 15.6667C37.8843 15.1144 37.8843 14.2189 37.332 13.6667C36.7797 13.1144 35.8843 13.1144 35.332 13.6667L28.9569 20.0418C28.7263 20.2724 28.6109 20.3877 28.5285 20.5223C28.4554 20.6416 28.4015 20.7716 28.3689 20.9077C28.332 21.0611 28.332 21.2242 28.332 21.5503V22.6667Z" stroke="white" stroke-width="2" stroke-linecap="round" stroke-linejoin="round"/>
</g>
<path d="M56.4192 16.81V19.26H59.7092V20.814H56.4192V23.404H60.1292V25H54.4592V15.214H60.1292V16.81H56.4192ZM61.6563 21.094C61.6563 20.31 61.8103 19.6147 62.1183 19.008C62.4357 18.4013 62.865 17.9347 63.4063 17.608C63.9477 17.2813 64.5497 17.118 65.2123 17.118C65.7163 17.118 66.197 17.23 66.6543 17.454C67.1117 17.6687 67.4757 17.958 67.7463 18.322V14.64H69.7343V25H67.7463V23.852C67.5037 24.2347 67.163 24.5427 66.7243 24.776C66.2857 25.0093 65.777 25.126 65.1983 25.126C64.545 25.126 63.9477 24.958 63.4063 24.622C62.865 24.286 62.4357 23.8147 62.1183 23.208C61.8103 22.592 61.6563 21.8873 61.6563 21.094ZM67.7603 21.122C67.7603 20.646 67.667 20.24 67.4803 19.904C67.2937 19.5587 67.0417 19.2973 66.7243 19.12C66.407 18.9333 66.0663 18.84 65.7023 18.84C65.3383 18.84 65.0023 18.9287 64.6943 19.106C64.3863 19.2833 64.1343 19.5447 63.9383 19.89C63.7517 20.226 63.6583 20.6273 63.6583 21.094C63.6583 21.5607 63.7517 21.9713 63.9383 22.326C64.1343 22.6713 64.3863 22.9373 64.6943 23.124C65.0117 23.3107 65.3477 23.404 65.7023 23.404C66.0663 23.404 66.407 23.3153 66.7243 23.138C67.0417 22.9513 67.2937 22.69 67.4803 22.354C67.667 22.0087 67.7603 21.598 67.7603 21.122ZM72.8926 16.32C72.5473 16.32 72.258 16.2127 72.0246 15.998C71.8006 15.774 71.6886 15.4987 71.6886 15.172C71.6886 14.8453 71.8006 14.5747 72.0246 14.36C72.258 14.136 72.5473 14.024 72.8926 14.024C73.238 14.024 73.5226 14.136 73.7466 14.36C73.98 14.5747 74.0966 14.8453 74.0966 15.172C74.0966 15.4987 73.98 15.774 73.7466 15.998C73.5226 16.2127 73.238 16.32 72.8926 16.32ZM73.8586 17.244V25H71.8986V17.244H73.8586ZM78.3271 18.854V22.606C78.3271 22.8673 78.3878 23.0587 78.5091 23.18C78.6398 23.292 78.8544 23.348 79.1531 23.348H80.0631V25H78.8311C77.1791 25 76.3531 24.1973 76.3531 22.592V18.854H75.4291V17.244H76.3531V15.326H78.3271V17.244H80.0631V18.854H78.3271Z" fill="white"/>
<defs>
<clipPath id="clip0_1137_33319">
<rect width="16" height="16" fill="white" transform="translate(23 12)"/>
</clipPath>
</defs>
</svg>
