<svg width="135" height="40" viewBox="0 0 135 40" fill="none" xmlns="http://www.w3.org/2000/svg">
<rect width="135" height="40" rx="8" fill="#3A379F"/>
<path d="M20.7814 25.098C20.1001 25.098 19.4841 24.9813 18.9334 24.748C18.3921 24.5147 17.9627 24.1787 17.6454 23.74C17.3281 23.3013 17.1647 22.7833 17.1554 22.186H19.2554C19.2834 22.5873 19.4234 22.9047 19.6754 23.138C19.9367 23.3713 20.2914 23.488 20.7394 23.488C21.1967 23.488 21.5561 23.3807 21.8174 23.166C22.0787 22.942 22.2094 22.6527 22.2094 22.298C22.2094 22.0087 22.1207 21.7707 21.9434 21.584C21.7661 21.3973 21.5421 21.2527 21.2714 21.15C21.0101 21.038 20.6461 20.9167 20.1794 20.786C19.5447 20.5993 19.0267 20.4173 18.6254 20.24C18.2334 20.0533 17.8927 19.778 17.6034 19.414C17.3234 19.0407 17.1834 18.546 17.1834 17.93C17.1834 17.3513 17.3281 16.8473 17.6174 16.418C17.9067 15.9887 18.3127 15.662 18.8354 15.438C19.3581 15.2047 19.9554 15.088 20.6274 15.088C21.6354 15.088 22.4521 15.3353 23.0774 15.83C23.7121 16.3153 24.0621 16.9967 24.1274 17.874H21.9714C21.9527 17.538 21.8081 17.2627 21.5374 17.048C21.2761 16.824 20.9261 16.712 20.4874 16.712C20.1047 16.712 19.7967 16.81 19.5634 17.006C19.3394 17.202 19.2274 17.4867 19.2274 17.86C19.2274 18.1213 19.3114 18.3407 19.4794 18.518C19.6567 18.686 19.8714 18.826 20.1234 18.938C20.3847 19.0407 20.7487 19.162 21.2154 19.302C21.8501 19.4887 22.3681 19.6753 22.7694 19.862C23.1707 20.0487 23.5161 20.3287 23.8054 20.702C24.0947 21.0753 24.2394 21.5653 24.2394 22.172C24.2394 22.6947 24.1041 23.18 23.8334 23.628C23.5627 24.076 23.1661 24.4353 22.6434 24.706C22.1207 24.9673 21.5001 25.098 20.7814 25.098ZM33.3987 20.954C33.3987 21.234 33.38 21.486 33.3427 21.71H27.6727C27.7193 22.27 27.9153 22.7087 28.2607 23.026C28.606 23.3433 29.0307 23.502 29.5347 23.502C30.2627 23.502 30.7807 23.1893 31.0887 22.564H33.2027C32.9787 23.3107 32.5493 23.9267 31.9147 24.412C31.28 24.888 30.5007 25.126 29.5767 25.126C28.83 25.126 28.158 24.9627 27.5607 24.636C26.9727 24.3 26.5107 23.8287 26.1747 23.222C25.848 22.6153 25.6847 21.9153 25.6847 21.122C25.6847 20.3193 25.848 19.6147 26.1747 19.008C26.5013 18.4013 26.9587 17.9347 27.5467 17.608C28.1347 17.2813 28.8113 17.118 29.5767 17.118C30.314 17.118 30.972 17.2767 31.5507 17.594C32.1387 17.9113 32.5913 18.364 32.9087 18.952C33.2353 19.5307 33.3987 20.198 33.3987 20.954ZM31.3687 20.394C31.3593 19.89 31.1773 19.4887 30.8227 19.19C30.468 18.882 30.034 18.728 29.5207 18.728C29.0353 18.728 28.6247 18.8773 28.2887 19.176C27.962 19.4653 27.7613 19.8713 27.6867 20.394H31.3687ZM39.3773 17.132C40.3013 17.132 41.0479 17.426 41.6173 18.014C42.1866 18.5927 42.4713 19.4047 42.4713 20.45V25H40.5113V20.716C40.5113 20.1 40.3573 19.6287 40.0493 19.302C39.7413 18.966 39.3213 18.798 38.7893 18.798C38.2479 18.798 37.8186 18.966 37.5013 19.302C37.1933 19.6287 37.0393 20.1 37.0393 20.716V25H35.0793V17.244H37.0393V18.21C37.3006 17.874 37.6319 17.6127 38.0333 17.426C38.4439 17.23 38.8919 17.132 39.3773 17.132ZM44.0811 21.094C44.0811 20.31 44.2351 19.6147 44.5431 19.008C44.8605 18.4013 45.2898 17.9347 45.8311 17.608C46.3725 17.2813 46.9745 17.118 47.6371 17.118C48.1411 17.118 48.6218 17.23 49.0791 17.454C49.5365 17.6687 49.9005 17.958 50.1711 18.322V14.64H52.1591V25H50.1711V23.852C49.9285 24.2347 49.5878 24.5427 49.1491 24.776C48.7105 25.0093 48.2018 25.126 47.6231 25.126C46.9698 25.126 46.3725 24.958 45.8311 24.622C45.2898 24.286 44.8605 23.8147 44.5431 23.208C44.2351 22.592 44.0811 21.8873 44.0811 21.094ZM50.1851 21.122C50.1851 20.646 50.0918 20.24 49.9051 19.904C49.7185 19.5587 49.4665 19.2973 49.1491 19.12C48.8318 18.9333 48.4911 18.84 48.1271 18.84C47.7631 18.84 47.4271 18.9287 47.1191 19.106C46.8111 19.2833 46.5591 19.5447 46.3631 19.89C46.1765 20.226 46.0831 20.6273 46.0831 21.094C46.0831 21.5607 46.1765 21.9713 46.3631 22.326C46.5591 22.6713 46.8111 22.9373 47.1191 23.124C47.4365 23.3107 47.7725 23.404 48.1271 23.404C48.4911 23.404 48.8318 23.3153 49.1491 23.138C49.4665 22.9513 49.7185 22.69 49.9051 22.354C50.0918 22.0087 50.1851 21.598 50.1851 21.122ZM66.6874 15.228L63.1034 25H60.7234L57.1394 15.228H59.2394L61.9274 22.998L64.6014 15.228H66.6874ZM71.5565 25.126C70.8098 25.126 70.1378 24.9627 69.5405 24.636C68.9432 24.3 68.4718 23.8287 68.1265 23.222C67.7905 22.6153 67.6225 21.9153 67.6225 21.122C67.6225 20.3287 67.7952 19.6287 68.1405 19.022C68.4952 18.4153 68.9758 17.9487 69.5825 17.622C70.1892 17.286 70.8658 17.118 71.6125 17.118C72.3592 17.118 73.0358 17.286 73.6425 17.622C74.2492 17.9487 74.7252 18.4153 75.0705 19.022C75.4252 19.6287 75.6025 20.3287 75.6025 21.122C75.6025 21.9153 75.4205 22.6153 75.0565 23.222C74.7018 23.8287 74.2165 24.3 73.6005 24.636C72.9938 24.9627 72.3125 25.126 71.5565 25.126ZM71.5565 23.418C71.9112 23.418 72.2425 23.334 72.5505 23.166C72.8678 22.9887 73.1198 22.7273 73.3065 22.382C73.4932 22.0367 73.5865 21.6167 73.5865 21.122C73.5865 20.3847 73.3905 19.82 72.9985 19.428C72.6158 19.0267 72.1445 18.826 71.5845 18.826C71.0245 18.826 70.5532 19.0267 70.1705 19.428C69.7972 19.82 69.6105 20.3847 69.6105 21.122C69.6105 21.8593 69.7925 22.4287 70.1565 22.83C70.5298 23.222 70.9965 23.418 71.5565 23.418ZM84.6122 17.244V25H82.6382V24.02C82.3862 24.356 82.0549 24.622 81.6442 24.818C81.2429 25.0047 80.8042 25.098 80.3282 25.098C79.7216 25.098 79.1849 24.972 78.7182 24.72C78.2516 24.4587 77.8829 24.0807 77.6122 23.586C77.3509 23.082 77.2202 22.4847 77.2202 21.794V17.244H79.1802V21.514C79.1802 22.13 79.3342 22.606 79.6422 22.942C79.9502 23.2687 80.3702 23.432 80.9022 23.432C81.4436 23.432 81.8682 23.2687 82.1762 22.942C82.4842 22.606 82.6382 22.13 82.6382 21.514V17.244H84.6122ZM86.2921 21.122C86.2921 20.3193 86.4554 19.6193 86.7821 19.022C87.1087 18.4153 87.5614 17.9487 88.1401 17.622C88.7187 17.286 89.3814 17.118 90.1281 17.118C91.0894 17.118 91.8827 17.3607 92.5081 17.846C93.1427 18.322 93.5674 18.994 93.7821 19.862H91.6681C91.5561 19.526 91.3647 19.2647 91.0941 19.078C90.8327 18.882 90.5061 18.784 90.1141 18.784C89.5541 18.784 89.1107 18.9893 88.7841 19.4C88.4574 19.8013 88.2941 20.3753 88.2941 21.122C88.2941 21.8593 88.4574 22.4333 88.7841 22.844C89.1107 23.2453 89.5541 23.446 90.1141 23.446C90.9074 23.446 91.4254 23.0913 91.6681 22.382H93.7821C93.5674 23.222 93.1427 23.8893 92.5081 24.384C91.8734 24.8787 91.0801 25.126 90.1281 25.126C89.3814 25.126 88.7187 24.9627 88.1401 24.636C87.5614 24.3 87.1087 23.8333 86.7821 23.236C86.4554 22.6293 86.2921 21.9247 86.2921 21.122ZM99.836 17.132C100.424 17.132 100.947 17.2627 101.404 17.524C101.861 17.776 102.216 18.154 102.468 18.658C102.729 19.1527 102.86 19.75 102.86 20.45V25H100.9V20.716C100.9 20.1 100.746 19.6287 100.438 19.302C100.13 18.966 99.71 18.798 99.178 18.798C98.6366 18.798 98.2073 18.966 97.89 19.302C97.582 19.6287 97.428 20.1 97.428 20.716V25H95.468V14.64H97.428V18.21C97.68 17.874 98.016 17.6127 98.436 17.426C98.856 17.23 99.3226 17.132 99.836 17.132ZM112.184 20.954C112.184 21.234 112.165 21.486 112.128 21.71H106.458C106.504 22.27 106.7 22.7087 107.046 23.026C107.391 23.3433 107.816 23.502 108.32 23.502C109.048 23.502 109.566 23.1893 109.874 22.564H111.988C111.764 23.3107 111.334 23.9267 110.7 24.412C110.065 24.888 109.286 25.126 108.362 25.126C107.615 25.126 106.943 24.9627 106.346 24.636C105.758 24.3 105.296 23.8287 104.96 23.222C104.633 22.6153 104.47 21.9153 104.47 21.122C104.47 20.3193 104.633 19.6147 104.96 19.008C105.286 18.4013 105.744 17.9347 106.332 17.608C106.92 17.2813 107.596 17.118 108.362 17.118C109.099 17.118 109.757 17.2767 110.336 17.594C110.924 17.9113 111.376 18.364 111.694 18.952C112.02 19.5307 112.184 20.198 112.184 20.954ZM110.154 20.394C110.144 19.89 109.962 19.4887 109.608 19.19C109.253 18.882 108.819 18.728 108.306 18.728C107.82 18.728 107.41 18.8773 107.074 19.176C106.747 19.4653 106.546 19.8713 106.472 20.394H110.154ZM115.824 18.448C116.076 18.0373 116.403 17.7153 116.804 17.482C117.215 17.2487 117.682 17.132 118.204 17.132V19.19H117.686C117.07 19.19 116.604 19.3347 116.286 19.624C115.978 19.9133 115.824 20.4173 115.824 21.136V25H113.864V17.244H115.824V18.448Z" fill="white"/>
</svg>
