<svg width="270" height="78" viewBox="0 0 270 78" fill="none" xmlns="http://www.w3.org/2000/svg">
<g filter="url(#filter0_d_1539_11201)">
<path d="M15 47C15 33.7452 25.7452 23 39 23H191.105C200.107 23 208.353 28.0379 212.461 36.0484L221.463 53.6021C226.94 64.2827 237.934 71 249.937 71H255H15V47Z" fill="white"/>
</g>
<path d="M56.4844 41.625H58.4688L61.3906 49.9766L64.3125 41.625H66.2969L62.1875 53H60.5938L56.4844 41.625ZM55.4141 41.625H57.3906L57.75 49.7656V53H55.4141V41.625ZM65.3906 41.625H67.375V53H65.0312V49.7656L65.3906 41.625ZM73.1797 53.1562C72.5234 53.1562 71.9349 53.0521 71.4141 52.8438C70.8932 52.6302 70.4505 52.3359 70.0859 51.9609C69.7266 51.5859 69.4505 51.151 69.2578 50.6562C69.0651 50.1562 68.9688 49.625 68.9688 49.0625V48.75C68.9688 48.1094 69.0599 47.5234 69.2422 46.9922C69.4245 46.4609 69.6849 46 70.0234 45.6094C70.3672 45.2188 70.7839 44.9193 71.2734 44.7109C71.763 44.4974 72.3151 44.3906 72.9297 44.3906C73.5286 44.3906 74.0599 44.4896 74.5234 44.6875C74.987 44.8854 75.375 45.1667 75.6875 45.5312C76.0052 45.8958 76.2448 46.3333 76.4062 46.8438C76.5677 47.349 76.6484 47.9115 76.6484 48.5312V49.4688H69.9297V47.9688H74.4375V47.7969C74.4375 47.4844 74.3802 47.2057 74.2656 46.9609C74.1562 46.7109 73.9896 46.513 73.7656 46.3672C73.5417 46.2214 73.2552 46.1484 72.9062 46.1484C72.6094 46.1484 72.3542 46.2135 72.1406 46.3438C71.9271 46.474 71.7526 46.6562 71.6172 46.8906C71.487 47.125 71.388 47.401 71.3203 47.7188C71.2578 48.0312 71.2266 48.375 71.2266 48.75V49.0625C71.2266 49.401 71.2734 49.7135 71.3672 50C71.4661 50.2865 71.6042 50.5339 71.7812 50.7422C71.9635 50.9505 72.1823 51.112 72.4375 51.2266C72.6979 51.3411 72.9922 51.3984 73.3203 51.3984C73.7266 51.3984 74.1042 51.3203 74.4531 51.1641C74.8073 51.0026 75.112 50.7604 75.3672 50.4375L76.4609 51.625C76.2839 51.8802 76.0417 52.125 75.7344 52.3594C75.4323 52.5938 75.0677 52.7865 74.6406 52.9375C74.2135 53.0833 73.7266 53.1562 73.1797 53.1562ZM80.1797 46.3906V53H77.9297V44.5469H80.0469L80.1797 46.3906ZM82.7266 44.4922L82.6875 46.5781C82.5781 46.5625 82.4453 46.5495 82.2891 46.5391C82.138 46.5234 82 46.5156 81.875 46.5156C81.5573 46.5156 81.2812 46.5573 81.0469 46.6406C80.8177 46.7188 80.625 46.8359 80.4688 46.9922C80.3177 47.1484 80.2031 47.3385 80.125 47.5625C80.0521 47.7865 80.0104 48.0417 80 48.3281L79.5469 48.1875C79.5469 47.6406 79.6016 47.138 79.7109 46.6797C79.8203 46.2161 79.9792 45.8125 80.1875 45.4688C80.401 45.125 80.6615 44.8594 80.9688 44.6719C81.276 44.4844 81.6276 44.3906 82.0234 44.3906C82.1484 44.3906 82.276 44.401 82.4062 44.4219C82.5365 44.4375 82.6432 44.4609 82.7266 44.4922ZM87.125 51.3984C87.401 51.3984 87.6458 51.3464 87.8594 51.2422C88.0729 51.1328 88.2396 50.9818 88.3594 50.7891C88.4844 50.5911 88.5495 50.3594 88.5547 50.0938H90.6719C90.6667 50.6875 90.5078 51.2161 90.1953 51.6797C89.8828 52.138 89.4635 52.5 88.9375 52.7656C88.4115 53.026 87.8229 53.1562 87.1719 53.1562C86.5156 53.1562 85.9427 53.0469 85.4531 52.8281C84.9688 52.6094 84.5651 52.3073 84.2422 51.9219C83.9193 51.5312 83.6771 51.0781 83.5156 50.5625C83.3542 50.0417 83.2734 49.4844 83.2734 48.8906V48.6641C83.2734 48.0651 83.3542 47.5078 83.5156 46.9922C83.6771 46.4714 83.9193 46.0182 84.2422 45.6328C84.5651 45.2422 84.9688 44.9375 85.4531 44.7188C85.9375 44.5 86.5052 44.3906 87.1562 44.3906C87.849 44.3906 88.4557 44.5234 88.9766 44.7891C89.5026 45.0547 89.9141 45.4349 90.2109 45.9297C90.513 46.4193 90.6667 47 90.6719 47.6719H88.5547C88.5495 47.3906 88.4896 47.1354 88.375 46.9062C88.2656 46.6771 88.1042 46.4948 87.8906 46.3594C87.6823 46.2188 87.4245 46.1484 87.1172 46.1484C86.7891 46.1484 86.5208 46.2188 86.3125 46.3594C86.1042 46.4948 85.9427 46.6823 85.8281 46.9219C85.7135 47.1562 85.6328 47.4245 85.5859 47.7266C85.5443 48.0234 85.5234 48.3359 85.5234 48.6641V48.8906C85.5234 49.2188 85.5443 49.5339 85.5859 49.8359C85.6276 50.138 85.7057 50.4062 85.8203 50.6406C85.9401 50.875 86.1042 51.0599 86.3125 51.1953C86.5208 51.3307 86.7917 51.3984 87.125 51.3984ZM94.1719 41V53H91.9219V41H94.1719ZM93.8516 48.4766H93.2344C93.2396 47.888 93.3177 47.3464 93.4688 46.8516C93.6198 46.3516 93.8359 45.9193 94.1172 45.5547C94.3984 45.1849 94.7344 44.8984 95.125 44.6953C95.5208 44.4922 95.9583 44.3906 96.4375 44.3906C96.8542 44.3906 97.2318 44.4505 97.5703 44.5703C97.9141 44.6849 98.2083 44.8724 98.4531 45.1328C98.7031 45.388 98.8958 45.724 99.0312 46.1406C99.1667 46.5573 99.2344 47.0625 99.2344 47.6562V53H96.9688V47.6406C96.9688 47.2656 96.9141 46.9714 96.8047 46.7578C96.7005 46.5391 96.5469 46.3854 96.3438 46.2969C96.1458 46.2031 95.901 46.1562 95.6094 46.1562C95.2865 46.1562 95.0104 46.2161 94.7812 46.3359C94.5573 46.4557 94.3776 46.6224 94.2422 46.8359C94.1068 47.0443 94.0078 47.2891 93.9453 47.5703C93.8828 47.8516 93.8516 48.1536 93.8516 48.4766ZM105.508 51.0938V47.3281C105.508 47.0573 105.464 46.8255 105.375 46.6328C105.286 46.4349 105.148 46.2812 104.961 46.1719C104.779 46.0625 104.542 46.0078 104.25 46.0078C104 46.0078 103.784 46.0521 103.602 46.1406C103.419 46.224 103.279 46.3464 103.18 46.5078C103.081 46.6641 103.031 46.849 103.031 47.0625H100.781C100.781 46.7031 100.865 46.362 101.031 46.0391C101.198 45.7161 101.44 45.4323 101.758 45.1875C102.076 44.9375 102.453 44.7422 102.891 44.6016C103.333 44.4609 103.828 44.3906 104.375 44.3906C105.031 44.3906 105.615 44.5 106.125 44.7188C106.635 44.9375 107.036 45.2656 107.328 45.7031C107.625 46.1406 107.773 46.6875 107.773 47.3438V50.9609C107.773 51.4245 107.802 51.8047 107.859 52.1016C107.917 52.3932 108 52.6484 108.109 52.8672V53H105.836C105.727 52.7708 105.643 52.4844 105.586 52.1406C105.534 51.7917 105.508 51.4427 105.508 51.0938ZM105.805 47.8516L105.82 49.125H104.562C104.266 49.125 104.008 49.1589 103.789 49.2266C103.57 49.2943 103.391 49.3906 103.25 49.5156C103.109 49.6354 103.005 49.776 102.938 49.9375C102.875 50.099 102.844 50.276 102.844 50.4688C102.844 50.6615 102.888 50.8359 102.977 50.9922C103.065 51.1432 103.193 51.263 103.359 51.3516C103.526 51.4349 103.721 51.4766 103.945 51.4766C104.284 51.4766 104.578 51.4089 104.828 51.2734C105.078 51.138 105.271 50.9714 105.406 50.7734C105.547 50.5755 105.62 50.388 105.625 50.2109L106.219 51.1641C106.135 51.3776 106.021 51.599 105.875 51.8281C105.734 52.0573 105.555 52.2734 105.336 52.4766C105.117 52.6745 104.854 52.8385 104.547 52.9688C104.24 53.0938 103.875 53.1562 103.453 53.1562C102.917 53.1562 102.43 53.0495 101.992 52.8359C101.56 52.6172 101.216 52.3177 100.961 51.9375C100.711 51.5521 100.586 51.1146 100.586 50.625C100.586 50.1823 100.669 49.7891 100.836 49.4453C101.003 49.1016 101.247 48.8125 101.57 48.5781C101.898 48.3385 102.307 48.1589 102.797 48.0391C103.286 47.9141 103.854 47.8516 104.5 47.8516H105.805ZM111.711 46.3516V53H109.461V44.5469H111.57L111.711 46.3516ZM111.383 48.4766H110.773C110.773 47.8516 110.854 47.2891 111.016 46.7891C111.177 46.2839 111.404 45.8542 111.695 45.5C111.987 45.1406 112.333 44.8672 112.734 44.6797C113.141 44.487 113.594 44.3906 114.094 44.3906C114.49 44.3906 114.852 44.4479 115.18 44.5625C115.508 44.6771 115.789 44.8594 116.023 45.1094C116.263 45.3594 116.445 45.6901 116.57 46.1016C116.701 46.513 116.766 47.0156 116.766 47.6094V53H114.5V47.6016C114.5 47.2266 114.448 46.9349 114.344 46.7266C114.24 46.5182 114.086 46.3724 113.883 46.2891C113.685 46.2005 113.44 46.1562 113.148 46.1562C112.846 46.1562 112.583 46.2161 112.359 46.3359C112.141 46.4557 111.958 46.6224 111.812 46.8359C111.672 47.0443 111.565 47.2891 111.492 47.5703C111.419 47.8516 111.383 48.1536 111.383 48.4766ZM122.617 44.5469V46.1406H117.695V44.5469H122.617ZM118.914 42.4609H121.164V50.4531C121.164 50.6979 121.195 50.8854 121.258 51.0156C121.326 51.1458 121.424 51.237 121.555 51.2891C121.685 51.3359 121.849 51.3594 122.047 51.3594C122.188 51.3594 122.312 51.3542 122.422 51.3438C122.536 51.3281 122.633 51.3125 122.711 51.2969L122.719 52.9531C122.526 53.0156 122.318 53.0651 122.094 53.1016C121.87 53.138 121.622 53.1562 121.352 53.1562C120.857 53.1562 120.424 53.0755 120.055 52.9141C119.69 52.7474 119.409 52.4818 119.211 52.1172C119.013 51.7526 118.914 51.2734 118.914 50.6797V42.4609ZM128.023 41.625H132.266C133.135 41.625 133.883 41.7552 134.508 42.0156C135.138 42.276 135.622 42.6615 135.961 43.1719C136.299 43.6823 136.469 44.3099 136.469 45.0547C136.469 45.6641 136.365 46.1875 136.156 46.625C135.953 47.0573 135.664 47.4193 135.289 47.7109C134.919 47.9974 134.484 48.2266 133.984 48.3984L133.242 48.7891H129.555L129.539 46.9609H132.281C132.693 46.9609 133.034 46.888 133.305 46.7422C133.576 46.5964 133.779 46.3932 133.914 46.1328C134.055 45.8724 134.125 45.5703 134.125 45.2266C134.125 44.862 134.057 44.5469 133.922 44.2812C133.786 44.0156 133.581 43.8125 133.305 43.6719C133.029 43.5312 132.682 43.4609 132.266 43.4609H130.367V53H128.023V41.625ZM134.383 53L131.789 47.9297L134.266 47.9141L136.891 52.8906V53H134.383ZM142.023 53.1562C141.367 53.1562 140.779 53.0521 140.258 52.8438C139.737 52.6302 139.294 52.3359 138.93 51.9609C138.57 51.5859 138.294 51.151 138.102 50.6562C137.909 50.1562 137.812 49.625 137.812 49.0625V48.75C137.812 48.1094 137.904 47.5234 138.086 46.9922C138.268 46.4609 138.529 46 138.867 45.6094C139.211 45.2188 139.628 44.9193 140.117 44.7109C140.607 44.4974 141.159 44.3906 141.773 44.3906C142.372 44.3906 142.904 44.4896 143.367 44.6875C143.831 44.8854 144.219 45.1667 144.531 45.5312C144.849 45.8958 145.089 46.3333 145.25 46.8438C145.411 47.349 145.492 47.9115 145.492 48.5312V49.4688H138.773V47.9688H143.281V47.7969C143.281 47.4844 143.224 47.2057 143.109 46.9609C143 46.7109 142.833 46.513 142.609 46.3672C142.385 46.2214 142.099 46.1484 141.75 46.1484C141.453 46.1484 141.198 46.2135 140.984 46.3438C140.771 46.474 140.596 46.6562 140.461 46.8906C140.331 47.125 140.232 47.401 140.164 47.7188C140.102 48.0312 140.07 48.375 140.07 48.75V49.0625C140.07 49.401 140.117 49.7135 140.211 50C140.31 50.2865 140.448 50.5339 140.625 50.7422C140.807 50.9505 141.026 51.112 141.281 51.2266C141.542 51.3411 141.836 51.3984 142.164 51.3984C142.57 51.3984 142.948 51.3203 143.297 51.1641C143.651 51.0026 143.956 50.7604 144.211 50.4375L145.305 51.625C145.128 51.8802 144.885 52.125 144.578 52.3594C144.276 52.5938 143.911 52.7865 143.484 52.9375C143.057 53.0833 142.57 53.1562 142.023 53.1562ZM149.023 46.1719V56.25H146.773V44.5469H148.859L149.023 46.1719ZM154.375 48.6797V48.8438C154.375 49.4583 154.302 50.0286 154.156 50.5547C154.016 51.0807 153.807 51.5391 153.531 51.9297C153.255 52.3151 152.911 52.6172 152.5 52.8359C152.094 53.0495 151.625 53.1562 151.094 53.1562C150.578 53.1562 150.13 53.0521 149.75 52.8438C149.37 52.6354 149.049 52.3438 148.789 51.9688C148.534 51.5885 148.328 51.1484 148.172 50.6484C148.016 50.1484 147.896 49.612 147.812 49.0391V48.6094C147.896 47.9948 148.016 47.4323 148.172 46.9219C148.328 46.4062 148.534 45.9609 148.789 45.5859C149.049 45.2057 149.367 44.9115 149.742 44.7031C150.122 44.4948 150.568 44.3906 151.078 44.3906C151.615 44.3906 152.086 44.4922 152.492 44.6953C152.904 44.8984 153.247 45.1901 153.523 45.5703C153.805 45.9505 154.016 46.4036 154.156 46.9297C154.302 47.4557 154.375 48.0391 154.375 48.6797ZM152.117 48.8438V48.6797C152.117 48.3203 152.086 47.9896 152.023 47.6875C151.966 47.3802 151.872 47.112 151.742 46.8828C151.617 46.6536 151.451 46.4766 151.242 46.3516C151.039 46.2214 150.792 46.1562 150.5 46.1562C150.193 46.1562 149.93 46.2057 149.711 46.3047C149.497 46.4036 149.323 46.5469 149.188 46.7344C149.052 46.9219 148.951 47.1458 148.883 47.4062C148.815 47.6667 148.773 47.9609 148.758 48.2891V49.375C148.784 49.7604 148.857 50.1068 148.977 50.4141C149.096 50.7161 149.281 50.9557 149.531 51.1328C149.781 51.3099 150.109 51.3984 150.516 51.3984C150.812 51.3984 151.062 51.3333 151.266 51.2031C151.469 51.0677 151.633 50.8828 151.758 50.6484C151.888 50.4141 151.979 50.1432 152.031 49.8359C152.089 49.5286 152.117 49.1979 152.117 48.8438ZM155.414 48.8594V48.6953C155.414 48.0755 155.503 47.5052 155.68 46.9844C155.857 46.4583 156.115 46.0026 156.453 45.6172C156.792 45.2318 157.208 44.9323 157.703 44.7188C158.198 44.5 158.766 44.3906 159.406 44.3906C160.047 44.3906 160.617 44.5 161.117 44.7188C161.617 44.9323 162.036 45.2318 162.375 45.6172C162.719 46.0026 162.979 46.4583 163.156 46.9844C163.333 47.5052 163.422 48.0755 163.422 48.6953V48.8594C163.422 49.474 163.333 50.0443 163.156 50.5703C162.979 51.0911 162.719 51.5469 162.375 51.9375C162.036 52.3229 161.62 52.6224 161.125 52.8359C160.63 53.0495 160.062 53.1562 159.422 53.1562C158.781 53.1562 158.211 53.0495 157.711 52.8359C157.216 52.6224 156.797 52.3229 156.453 51.9375C156.115 51.5469 155.857 51.0911 155.68 50.5703C155.503 50.0443 155.414 49.474 155.414 48.8594ZM157.664 48.6953V48.8594C157.664 49.2135 157.695 49.5443 157.758 49.8516C157.82 50.1589 157.919 50.4297 158.055 50.6641C158.195 50.8932 158.378 51.0729 158.602 51.2031C158.826 51.3333 159.099 51.3984 159.422 51.3984C159.734 51.3984 160.003 51.3333 160.227 51.2031C160.451 51.0729 160.63 50.8932 160.766 50.6641C160.901 50.4297 161 50.1589 161.062 49.8516C161.13 49.5443 161.164 49.2135 161.164 48.8594V48.6953C161.164 48.3516 161.13 48.0286 161.062 47.7266C161 47.4193 160.898 47.1484 160.758 46.9141C160.622 46.6745 160.443 46.487 160.219 46.3516C159.995 46.2161 159.724 46.1484 159.406 46.1484C159.089 46.1484 158.818 46.2161 158.594 46.3516C158.375 46.487 158.195 46.6745 158.055 46.9141C157.919 47.1484 157.82 47.4193 157.758 47.7266C157.695 48.0286 157.664 48.3516 157.664 48.6953ZM167.055 46.3906V53H164.805V44.5469H166.922L167.055 46.3906ZM169.602 44.4922L169.562 46.5781C169.453 46.5625 169.32 46.5495 169.164 46.5391C169.013 46.5234 168.875 46.5156 168.75 46.5156C168.432 46.5156 168.156 46.5573 167.922 46.6406C167.693 46.7188 167.5 46.8359 167.344 46.9922C167.193 47.1484 167.078 47.3385 167 47.5625C166.927 47.7865 166.885 48.0417 166.875 48.3281L166.422 48.1875C166.422 47.6406 166.477 47.138 166.586 46.6797C166.695 46.2161 166.854 45.8125 167.062 45.4688C167.276 45.125 167.536 44.8594 167.844 44.6719C168.151 44.4844 168.503 44.3906 168.898 44.3906C169.023 44.3906 169.151 44.401 169.281 44.4219C169.411 44.4375 169.518 44.4609 169.602 44.4922ZM175.195 44.5469V46.1406H170.273V44.5469H175.195ZM171.492 42.4609H173.742V50.4531C173.742 50.6979 173.773 50.8854 173.836 51.0156C173.904 51.1458 174.003 51.237 174.133 51.2891C174.263 51.3359 174.427 51.3594 174.625 51.3594C174.766 51.3594 174.891 51.3542 175 51.3438C175.115 51.3281 175.211 51.3125 175.289 51.2969L175.297 52.9531C175.104 53.0156 174.896 53.0651 174.672 53.1016C174.448 53.138 174.201 53.1562 173.93 53.1562C173.435 53.1562 173.003 53.0755 172.633 52.9141C172.268 52.7474 171.987 52.4818 171.789 52.1172C171.591 51.7526 171.492 51.2734 171.492 50.6797V42.4609Z" fill="#61308C"/>
<defs>
<filter id="filter0_d_1539_11201" x="0" y="0" width="270" height="78" filterUnits="userSpaceOnUse" color-interpolation-filters="sRGB">
<feFlood flood-opacity="0" result="BackgroundImageFix"/>
<feColorMatrix in="SourceAlpha" type="matrix" values="0 0 0 0 0 0 0 0 0 0 0 0 0 0 0 0 0 0 127 0" result="hardAlpha"/>
<feOffset dy="-8"/>
<feGaussianBlur stdDeviation="7.5"/>
<feComposite in2="hardAlpha" operator="out"/>
<feColorMatrix type="matrix" values="0 0 0 0 0.380392 0 0 0 0 0.188235 0 0 0 0 0.54902 0 0 0 0.05 0"/>
<feBlend mode="normal" in2="BackgroundImageFix" result="effect1_dropShadow_1539_11201"/>
<feBlend mode="normal" in="SourceGraphic" in2="effect1_dropShadow_1539_11201" result="shape"/>
</filter>
</defs>
</svg>
