<svg width="146" height="40" viewBox="0 0 146 40" fill="none" xmlns="http://www.w3.org/2000/svg">
<rect width="146" height="40" rx="8" fill="#3A379F"/>
<path d="M52.5 22V22.8C52.5 23.9201 52.5 24.4802 52.282 24.908C52.0903 25.2843 51.7843 25.5903 51.408 25.782C50.9802 26 50.4201 26 49.3 26H43.7C42.5799 26 42.0198 26 41.592 25.782C41.2157 25.5903 40.9097 25.2843 40.718 24.908C40.5 24.4802 40.5 23.9201 40.5 22.8V22M49.8333 18.6667L46.5 22M46.5 22L43.1667 18.6667M46.5 22V14" stroke="white" stroke-width="2" stroke-linecap="round" stroke-linejoin="round"/>
<path d="M74.0732 23.4004V25H68.7754V23.4004H74.0732ZM69.4453 15.0469V25H67.3945V15.0469H69.4453ZM73.3828 19.1006V20.6592H68.7754V19.1006H73.3828ZM74.0664 15.0469V16.6533H68.7754V15.0469H74.0664ZM76.7324 17.6035L77.9561 19.8525L79.2139 17.6035H81.3125L79.2207 21.2197L81.4082 25H79.3027L77.9697 22.6211L76.6367 25H74.5312L76.7188 21.2197L74.627 17.6035H76.7324ZM84.2383 19.0254V27.8438H82.2695V17.6035H84.0947L84.2383 19.0254ZM88.9209 21.2197V21.3633C88.9209 21.901 88.8571 22.4001 88.7295 22.8604C88.6064 23.3206 88.4242 23.7217 88.1826 24.0635C87.9411 24.4007 87.6403 24.665 87.2803 24.8564C86.9248 25.0433 86.5146 25.1367 86.0498 25.1367C85.5986 25.1367 85.2067 25.0456 84.874 24.8633C84.5413 24.681 84.2611 24.4258 84.0332 24.0977C83.8099 23.765 83.6299 23.3799 83.4932 22.9424C83.3564 22.5049 83.2516 22.0355 83.1787 21.5342V21.1582C83.2516 20.6204 83.3564 20.1283 83.4932 19.6816C83.6299 19.2305 83.8099 18.8408 84.0332 18.5127C84.2611 18.18 84.5391 17.9225 84.8672 17.7402C85.1999 17.5579 85.5895 17.4668 86.0361 17.4668C86.5055 17.4668 86.918 17.5557 87.2734 17.7334C87.6335 17.9111 87.9342 18.1663 88.1758 18.499C88.4219 18.8317 88.6064 19.2282 88.7295 19.6885C88.8571 20.1488 88.9209 20.6592 88.9209 21.2197ZM86.9453 21.3633V21.2197C86.9453 20.9053 86.918 20.6159 86.8633 20.3516C86.8132 20.0827 86.7311 19.848 86.6172 19.6475C86.5078 19.4469 86.362 19.292 86.1797 19.1826C86.002 19.0687 85.7855 19.0117 85.5303 19.0117C85.2614 19.0117 85.0312 19.055 84.8398 19.1416C84.653 19.2282 84.5003 19.3535 84.3818 19.5176C84.2633 19.6816 84.1745 19.8776 84.1152 20.1055C84.056 20.3333 84.0195 20.5908 84.0059 20.8779V21.8281C84.0286 22.1654 84.0924 22.4684 84.1973 22.7373C84.3021 23.0016 84.4639 23.2113 84.6826 23.3662C84.9014 23.5212 85.1885 23.5986 85.5439 23.5986C85.8037 23.5986 86.0225 23.5417 86.2002 23.4277C86.3779 23.3092 86.5215 23.1475 86.6309 22.9424C86.7448 22.7373 86.8245 22.5003 86.8701 22.2314C86.9202 21.9626 86.9453 21.6732 86.9453 21.3633ZM89.8301 21.377V21.2334C89.8301 20.6911 89.9076 20.1921 90.0625 19.7363C90.2174 19.276 90.443 18.8773 90.7393 18.54C91.0355 18.2028 91.4001 17.9408 91.833 17.7539C92.266 17.5625 92.7627 17.4668 93.3232 17.4668C93.8838 17.4668 94.3828 17.5625 94.8203 17.7539C95.2578 17.9408 95.6247 18.2028 95.9209 18.54C96.2217 18.8773 96.4495 19.276 96.6045 19.7363C96.7594 20.1921 96.8369 20.6911 96.8369 21.2334V21.377C96.8369 21.9147 96.7594 22.4137 96.6045 22.874C96.4495 23.3298 96.2217 23.7285 95.9209 24.0703C95.6247 24.4076 95.2601 24.6696 94.8271 24.8564C94.3942 25.0433 93.8975 25.1367 93.3369 25.1367C92.7764 25.1367 92.2773 25.0433 91.8398 24.8564C91.4069 24.6696 91.04 24.4076 90.7393 24.0703C90.443 23.7285 90.2174 23.3298 90.0625 22.874C89.9076 22.4137 89.8301 21.9147 89.8301 21.377ZM91.7988 21.2334V21.377C91.7988 21.6868 91.8262 21.9762 91.8809 22.2451C91.9355 22.514 92.0221 22.751 92.1406 22.9561C92.2637 23.1566 92.4232 23.3138 92.6191 23.4277C92.8151 23.5417 93.0544 23.5986 93.3369 23.5986C93.6104 23.5986 93.8451 23.5417 94.041 23.4277C94.237 23.3138 94.3942 23.1566 94.5127 22.9561C94.6312 22.751 94.7178 22.514 94.7725 22.2451C94.8317 21.9762 94.8613 21.6868 94.8613 21.377V21.2334C94.8613 20.9326 94.8317 20.6501 94.7725 20.3857C94.7178 20.1169 94.6289 19.8799 94.5059 19.6748C94.3874 19.4652 94.2301 19.3011 94.0342 19.1826C93.8382 19.0641 93.6012 19.0049 93.3232 19.0049C93.0452 19.0049 92.8083 19.0641 92.6123 19.1826C92.4209 19.3011 92.2637 19.4652 92.1406 19.6748C92.0221 19.8799 91.9355 20.1169 91.8809 20.3857C91.8262 20.6501 91.7988 20.9326 91.7988 21.2334ZM100.016 19.2168V25H98.0469V17.6035H99.8994L100.016 19.2168ZM102.244 17.5557L102.21 19.3809C102.114 19.3672 101.998 19.3558 101.861 19.3467C101.729 19.333 101.608 19.3262 101.499 19.3262C101.221 19.3262 100.979 19.3626 100.774 19.4355C100.574 19.5039 100.405 19.6064 100.269 19.7432C100.136 19.8799 100.036 20.0462 99.9678 20.2422C99.904 20.4382 99.8675 20.6615 99.8584 20.9121L99.4619 20.7891C99.4619 20.3105 99.5098 19.8708 99.6055 19.4697C99.7012 19.0641 99.8402 18.7109 100.022 18.4102C100.209 18.1094 100.437 17.877 100.706 17.7129C100.975 17.5488 101.283 17.4668 101.629 17.4668C101.738 17.4668 101.85 17.4759 101.964 17.4941C102.078 17.5078 102.171 17.5283 102.244 17.5557ZM107.139 17.6035V18.998H102.832V17.6035H107.139ZM103.898 15.7783H105.867V22.7715C105.867 22.9857 105.895 23.1497 105.949 23.2637C106.008 23.3776 106.095 23.4574 106.209 23.5029C106.323 23.5439 106.466 23.5645 106.64 23.5645C106.763 23.5645 106.872 23.5599 106.968 23.5508C107.068 23.5371 107.152 23.5234 107.221 23.5098L107.228 24.959C107.059 25.0137 106.877 25.057 106.681 25.0889C106.485 25.1208 106.268 25.1367 106.031 25.1367C105.598 25.1367 105.22 25.0661 104.896 24.9248C104.577 24.779 104.331 24.5465 104.158 24.2275C103.985 23.9085 103.898 23.4893 103.898 22.9697V15.7783Z" fill="#FCFCFC"/>
</svg>
