<svg width="131" height="40" viewBox="0 0 131 40" fill="none" xmlns="http://www.w3.org/2000/svg">
<g opacity="0.5">
<path d="M20 20H28M18 16H30M22 24H26" stroke="#546E7A" stroke-width="2" stroke-linecap="round" stroke-linejoin="round"/>
<path d="M46.6873 20.1C46.6873 19.1387 46.9019 18.28 47.3313 17.524C47.7699 16.7587 48.3626 16.166 49.1093 15.746C49.8653 15.3167 50.7099 15.102 51.6433 15.102C52.7353 15.102 53.6919 15.382 54.5133 15.942C55.3346 16.502 55.9086 17.2767 56.2353 18.266H53.9813C53.7573 17.7993 53.4399 17.4493 53.0293 17.216C52.6279 16.9827 52.1613 16.866 51.6293 16.866C51.0599 16.866 50.5513 17.0013 50.1033 17.272C49.6646 17.5333 49.3193 17.9067 49.0673 18.392C48.8246 18.8773 48.7033 19.4467 48.7033 20.1C48.7033 20.744 48.8246 21.3133 49.0673 21.808C49.3193 22.2933 49.6646 22.6713 50.1033 22.942C50.5513 23.2033 51.0599 23.334 51.6293 23.334C52.1613 23.334 52.6279 23.2173 53.0293 22.984C53.4399 22.7413 53.7573 22.3867 53.9813 21.92H56.2353C55.9086 22.9187 55.3346 23.698 54.5133 24.258C53.7013 24.8087 52.7446 25.084 51.6433 25.084C50.7099 25.084 49.8653 24.874 49.1093 24.454C48.3626 24.0247 47.7699 23.432 47.3313 22.676C46.9019 21.92 46.6873 21.0613 46.6873 20.1ZM57.6554 21.094C57.6554 20.31 57.8094 19.6147 58.1174 19.008C58.4347 18.4013 58.8594 17.9347 59.3914 17.608C59.9327 17.2813 60.5347 17.118 61.1974 17.118C61.776 17.118 62.28 17.2347 62.7094 17.468C63.148 17.7013 63.498 17.9953 63.7594 18.35V17.244H65.7334V25H63.7594V23.866C63.5074 24.23 63.1574 24.5333 62.7094 24.776C62.2707 25.0093 61.762 25.126 61.1834 25.126C60.53 25.126 59.9327 24.958 59.3914 24.622C58.8594 24.286 58.4347 23.8147 58.1174 23.208C57.8094 22.592 57.6554 21.8873 57.6554 21.094ZM63.7594 21.122C63.7594 20.646 63.666 20.24 63.4794 19.904C63.2927 19.5587 63.0407 19.2973 62.7234 19.12C62.406 18.9333 62.0654 18.84 61.7014 18.84C61.3374 18.84 61.0014 18.9287 60.6934 19.106C60.3854 19.2833 60.1334 19.5447 59.9374 19.89C59.7507 20.226 59.6574 20.6273 59.6574 21.094C59.6574 21.5607 59.7507 21.9713 59.9374 22.326C60.1334 22.6713 60.3854 22.9373 60.6934 23.124C61.0107 23.3107 61.3467 23.404 61.7014 23.404C62.0654 23.404 62.406 23.3153 62.7234 23.138C63.0407 22.9513 63.2927 22.69 63.4794 22.354C63.666 22.0087 63.7594 21.598 63.7594 21.122ZM70.1796 18.854V22.606C70.1796 22.8673 70.2403 23.0587 70.3616 23.18C70.4923 23.292 70.707 23.348 71.0056 23.348H71.9156V25H70.6836C69.0316 25 68.2056 24.1973 68.2056 22.592V18.854H67.2816V17.244H68.2056V15.326H70.1796V17.244H71.9156V18.854H70.1796ZM80.7854 20.954C80.7854 21.234 80.7667 21.486 80.7294 21.71H75.0594C75.106 22.27 75.302 22.7087 75.6474 23.026C75.9927 23.3433 76.4174 23.502 76.9214 23.502C77.6494 23.502 78.1674 23.1893 78.4754 22.564H80.5894C80.3654 23.3107 79.936 23.9267 79.3014 24.412C78.6667 24.888 77.8874 25.126 76.9634 25.126C76.2167 25.126 75.5447 24.9627 74.9474 24.636C74.3594 24.3 73.8974 23.8287 73.5614 23.222C73.2347 22.6153 73.0714 21.9153 73.0714 21.122C73.0714 20.3193 73.2347 19.6147 73.5614 19.008C73.888 18.4013 74.3454 17.9347 74.9334 17.608C75.5214 17.2813 76.198 17.118 76.9634 17.118C77.7007 17.118 78.3587 17.2767 78.9374 17.594C79.5254 17.9113 79.978 18.364 80.2954 18.952C80.622 19.5307 80.7854 20.198 80.7854 20.954ZM78.7554 20.394C78.746 19.89 78.564 19.4887 78.2094 19.19C77.8547 18.882 77.4207 18.728 76.9074 18.728C76.422 18.728 76.0114 18.8773 75.6754 19.176C75.3487 19.4653 75.148 19.8713 75.0734 20.394H78.7554ZM85.504 17.118C86.0827 17.118 86.5913 17.2347 87.03 17.468C87.4687 17.692 87.814 17.986 88.066 18.35V17.244H90.04V25.056C90.04 25.7747 89.8953 26.414 89.606 26.974C89.3167 27.5433 88.8827 27.9913 88.304 28.318C87.7253 28.654 87.0253 28.822 86.204 28.822C85.1027 28.822 84.1973 28.5653 83.488 28.052C82.788 27.5387 82.3913 26.8387 82.298 25.952H84.244C84.3467 26.3067 84.566 26.5867 84.902 26.792C85.2473 27.0067 85.6627 27.114 86.148 27.114C86.7173 27.114 87.1793 26.9413 87.534 26.596C87.8887 26.26 88.066 25.7467 88.066 25.056V23.852C87.814 24.216 87.464 24.5193 87.016 24.762C86.5773 25.0047 86.0733 25.126 85.504 25.126C84.8507 25.126 84.2533 24.958 83.712 24.622C83.1707 24.286 82.7413 23.8147 82.424 23.208C82.116 22.592 81.962 21.8873 81.962 21.094C81.962 20.31 82.116 19.6147 82.424 19.008C82.7413 18.4013 83.166 17.9347 83.698 17.608C84.2393 17.2813 84.8413 17.118 85.504 17.118ZM88.066 21.122C88.066 20.646 87.9727 20.24 87.786 19.904C87.5993 19.5587 87.3473 19.2973 87.03 19.12C86.7127 18.9333 86.372 18.84 86.008 18.84C85.644 18.84 85.308 18.9287 85 19.106C84.692 19.2833 84.44 19.5447 84.244 19.89C84.0573 20.226 83.964 20.6273 83.964 21.094C83.964 21.5607 84.0573 21.9713 84.244 22.326C84.44 22.6713 84.692 22.9373 85 23.124C85.3173 23.3107 85.6533 23.404 86.008 23.404C86.372 23.404 86.7127 23.3153 87.03 23.138C87.3473 22.9513 87.5993 22.69 87.786 22.354C87.9727 22.0087 88.066 21.598 88.066 21.122ZM95.6483 25.126C94.9016 25.126 94.2296 24.9627 93.6323 24.636C93.0349 24.3 92.5636 23.8287 92.2183 23.222C91.8823 22.6153 91.7143 21.9153 91.7143 21.122C91.7143 20.3287 91.8869 19.6287 92.2323 19.022C92.5869 18.4153 93.0676 17.9487 93.6743 17.622C94.2809 17.286 94.9576 17.118 95.7043 17.118C96.4509 17.118 97.1276 17.286 97.7343 17.622C98.3409 17.9487 98.8169 18.4153 99.1623 19.022C99.5169 19.6287 99.6943 20.3287 99.6943 21.122C99.6943 21.9153 99.5123 22.6153 99.1483 23.222C98.7936 23.8287 98.3083 24.3 97.6923 24.636C97.0856 24.9627 96.4043 25.126 95.6483 25.126ZM95.6483 23.418C96.0029 23.418 96.3343 23.334 96.6423 23.166C96.9596 22.9887 97.2116 22.7273 97.3983 22.382C97.5849 22.0367 97.6783 21.6167 97.6783 21.122C97.6783 20.3847 97.4823 19.82 97.0903 19.428C96.7076 19.0267 96.2363 18.826 95.6763 18.826C95.1163 18.826 94.6449 19.0267 94.2623 19.428C93.8889 19.82 93.7023 20.3847 93.7023 21.122C93.7023 21.8593 93.8843 22.4287 94.2483 22.83C94.6216 23.222 95.0883 23.418 95.6483 23.418ZM103.342 18.448C103.594 18.0373 103.921 17.7153 104.322 17.482C104.733 17.2487 105.199 17.132 105.722 17.132V19.19H105.204C104.588 19.19 104.121 19.3347 103.804 19.624C103.496 19.9133 103.342 20.4173 103.342 21.136V25H101.382V17.244H103.342V18.448ZM114.712 17.244L109.91 28.668H107.824L109.504 24.804L106.396 17.244H108.594L110.596 22.662L112.626 17.244H114.712Z" fill="#546E7A"/>
<rect x="1" y="1" width="129" height="38" rx="7" stroke="#D7D9DF" stroke-width="2"/>
</g>
</svg>
