<svg width="121" height="24" viewBox="0 0 121 24" fill="none" xmlns="http://www.w3.org/2000/svg">
<rect width="120.478" height="24" rx="6" fill="#9E0038"/>
<path d="M37.127 7.04688H40.8389C41.5999 7.04688 42.2539 7.16081 42.8008 7.38867C43.3522 7.61654 43.776 7.95378 44.0723 8.40039C44.3685 8.84701 44.5166 9.39616 44.5166 10.0479C44.5166 10.5811 44.4255 11.0391 44.2432 11.4219C44.0654 11.8001 43.8125 12.1169 43.4844 12.3721C43.1608 12.6227 42.7803 12.8232 42.3428 12.9736L41.6934 13.3154H38.4668L38.4531 11.7158H40.8525C41.2126 11.7158 41.5111 11.652 41.748 11.5244C41.985 11.3968 42.1628 11.2191 42.2812 10.9912C42.4043 10.7633 42.4658 10.499 42.4658 10.1982C42.4658 9.87923 42.4066 9.60352 42.2881 9.37109C42.1696 9.13867 41.9896 8.96094 41.748 8.83789C41.5065 8.71484 41.2035 8.65332 40.8389 8.65332H39.1777V17H37.127V7.04688ZM42.6914 17L40.4219 12.5635L42.5889 12.5498L44.8857 16.9043V17H42.6914ZM49.377 17.1367C48.8027 17.1367 48.2878 17.0456 47.832 16.8633C47.3763 16.6764 46.9889 16.4189 46.6699 16.0908C46.3555 15.7627 46.1139 15.3822 45.9453 14.9492C45.7767 14.5117 45.6924 14.0469 45.6924 13.5547V13.2812C45.6924 12.7207 45.7721 12.208 45.9316 11.7432C46.0911 11.2783 46.319 10.875 46.6152 10.5332C46.916 10.1914 47.2806 9.92936 47.709 9.74707C48.1374 9.56022 48.6204 9.4668 49.1582 9.4668C49.6823 9.4668 50.1471 9.55339 50.5527 9.72656C50.9583 9.89974 51.2979 10.1458 51.5713 10.4648C51.8493 10.7839 52.0589 11.1667 52.2002 11.6133C52.3415 12.0553 52.4121 12.5475 52.4121 13.0898V13.9102H46.5332V12.5977H50.4775V12.4473C50.4775 12.1738 50.4274 11.93 50.3271 11.7158C50.2314 11.4971 50.0856 11.3239 49.8896 11.1963C49.6937 11.0687 49.443 11.0049 49.1377 11.0049C48.8779 11.0049 48.6546 11.0618 48.4678 11.1758C48.2809 11.2897 48.1283 11.4492 48.0098 11.6543C47.8958 11.8594 47.8092 12.1009 47.75 12.3789C47.6953 12.6523 47.668 12.9531 47.668 13.2812V13.5547C47.668 13.8509 47.709 14.1243 47.791 14.375C47.8776 14.6257 47.9984 14.8421 48.1533 15.0244C48.3128 15.2067 48.5042 15.348 48.7275 15.4482C48.9554 15.5485 49.2129 15.5986 49.5 15.5986C49.8555 15.5986 50.1859 15.5303 50.4912 15.3936C50.8011 15.2523 51.0677 15.0404 51.291 14.7578L52.248 15.7969C52.0931 16.0202 51.8812 16.2344 51.6123 16.4395C51.348 16.6445 51.029 16.8132 50.6553 16.9453C50.2816 17.0729 49.8555 17.1367 49.377 17.1367ZM57.5322 14.9561C57.5322 14.8148 57.4912 14.6872 57.4092 14.5732C57.3271 14.4593 57.1745 14.3545 56.9512 14.2588C56.7324 14.1585 56.4157 14.0674 56.001 13.9854C55.6273 13.9033 55.2786 13.8008 54.9551 13.6777C54.6361 13.5501 54.3581 13.3975 54.1211 13.2197C53.8887 13.042 53.7064 12.8324 53.5742 12.5908C53.4421 12.3447 53.376 12.0645 53.376 11.75C53.376 11.4401 53.4421 11.1484 53.5742 10.875C53.7109 10.6016 53.9046 10.36 54.1553 10.1504C54.4105 9.9362 54.7204 9.76986 55.085 9.65137C55.4541 9.52832 55.8688 9.4668 56.3291 9.4668C56.9717 9.4668 57.5231 9.56934 57.9834 9.77441C58.4482 9.97949 58.8037 10.262 59.0498 10.6221C59.3005 10.9775 59.4258 11.3831 59.4258 11.8389H57.457C57.457 11.6475 57.416 11.4766 57.334 11.3262C57.2565 11.1712 57.1335 11.0505 56.9648 10.9639C56.8008 10.8727 56.5866 10.8271 56.3223 10.8271C56.1035 10.8271 55.9144 10.8659 55.7549 10.9434C55.5954 11.0163 55.4723 11.1165 55.3857 11.2441C55.3037 11.3672 55.2627 11.5039 55.2627 11.6543C55.2627 11.7682 55.2855 11.8708 55.3311 11.9619C55.3812 12.0485 55.4609 12.1283 55.5703 12.2012C55.6797 12.2741 55.821 12.3424 55.9941 12.4062C56.1719 12.4655 56.3906 12.5202 56.6504 12.5703C57.1836 12.6797 57.6598 12.8232 58.0791 13.001C58.4984 13.1742 58.8311 13.4111 59.0771 13.7119C59.3232 14.0081 59.4463 14.3978 59.4463 14.8809C59.4463 15.209 59.3734 15.5098 59.2275 15.7832C59.0817 16.0566 58.8721 16.2959 58.5986 16.501C58.3252 16.7015 57.9971 16.8587 57.6143 16.9727C57.236 17.082 56.8099 17.1367 56.3359 17.1367C55.6478 17.1367 55.0645 17.0137 54.5859 16.7676C54.112 16.5215 53.752 16.2093 53.5059 15.8311C53.2643 15.4482 53.1436 15.0563 53.1436 14.6553H55.0098C55.0189 14.9242 55.0872 15.1406 55.2148 15.3047C55.347 15.4688 55.5133 15.5872 55.7139 15.6602C55.9189 15.7331 56.14 15.7695 56.377 15.7695C56.6322 15.7695 56.8441 15.7354 57.0127 15.667C57.1813 15.5941 57.3089 15.4984 57.3955 15.3799C57.4867 15.2568 57.5322 15.1156 57.5322 14.9561ZM64.1289 17.1367C63.5547 17.1367 63.0397 17.0456 62.584 16.8633C62.1283 16.6764 61.7409 16.4189 61.4219 16.0908C61.1074 15.7627 60.8659 15.3822 60.6973 14.9492C60.5286 14.5117 60.4443 14.0469 60.4443 13.5547V13.2812C60.4443 12.7207 60.5241 12.208 60.6836 11.7432C60.8431 11.2783 61.071 10.875 61.3672 10.5332C61.668 10.1914 62.0326 9.92936 62.4609 9.74707C62.8893 9.56022 63.3724 9.4668 63.9102 9.4668C64.4342 9.4668 64.8991 9.55339 65.3047 9.72656C65.7103 9.89974 66.0498 10.1458 66.3232 10.4648C66.6012 10.7839 66.8109 11.1667 66.9521 11.6133C67.0934 12.0553 67.1641 12.5475 67.1641 13.0898V13.9102H61.2852V12.5977H65.2295V12.4473C65.2295 12.1738 65.1794 11.93 65.0791 11.7158C64.9834 11.4971 64.8376 11.3239 64.6416 11.1963C64.4456 11.0687 64.195 11.0049 63.8896 11.0049C63.6299 11.0049 63.4066 11.0618 63.2197 11.1758C63.0329 11.2897 62.8802 11.4492 62.7617 11.6543C62.6478 11.8594 62.5612 12.1009 62.502 12.3789C62.4473 12.6523 62.4199 12.9531 62.4199 13.2812V13.5547C62.4199 13.8509 62.4609 14.1243 62.543 14.375C62.6296 14.6257 62.7503 14.8421 62.9053 15.0244C63.0648 15.2067 63.2562 15.348 63.4795 15.4482C63.7074 15.5485 63.9648 15.5986 64.252 15.5986C64.6074 15.5986 64.9378 15.5303 65.2432 15.3936C65.5531 15.2523 65.8197 15.0404 66.043 14.7578L67 15.7969C66.8451 16.0202 66.6331 16.2344 66.3643 16.4395C66.0999 16.6445 65.7809 16.8132 65.4072 16.9453C65.0335 17.0729 64.6074 17.1367 64.1289 17.1367ZM70.2129 11.1826V17H68.2441V9.60352H70.0898L70.2129 11.1826ZM69.9258 13.042H69.3926C69.3926 12.4951 69.4632 12.0029 69.6045 11.5654C69.7458 11.1234 69.944 10.7474 70.1992 10.4375C70.4544 10.123 70.7575 9.88379 71.1084 9.71973C71.4639 9.55111 71.8604 9.4668 72.2979 9.4668C72.6442 9.4668 72.9609 9.51693 73.248 9.61719C73.5352 9.71745 73.7812 9.87695 73.9863 10.0957C74.196 10.3145 74.3555 10.6038 74.4648 10.9639C74.5788 11.3239 74.6357 11.7637 74.6357 12.2832V17H72.6533V12.2764C72.6533 11.9482 72.6077 11.693 72.5166 11.5107C72.4255 11.3285 72.291 11.2008 72.1133 11.1279C71.9401 11.0505 71.7259 11.0117 71.4707 11.0117C71.2064 11.0117 70.9762 11.0641 70.7803 11.1689C70.5889 11.2738 70.4294 11.4196 70.3018 11.6064C70.1787 11.7887 70.0853 12.0029 70.0215 12.249C69.9577 12.4951 69.9258 12.7594 69.9258 13.042ZM80.501 15.3867V6.5H82.4834V17H80.6992L80.501 15.3867ZM75.8252 13.3906V13.2471C75.8252 12.682 75.889 12.1693 76.0166 11.709C76.1442 11.2441 76.3311 10.8454 76.5771 10.5127C76.8232 10.18 77.1263 9.92253 77.4863 9.74023C77.8464 9.55794 78.2565 9.4668 78.7168 9.4668C79.1497 9.4668 79.528 9.55794 79.8516 9.74023C80.1797 9.92253 80.4577 10.1823 80.6855 10.5195C80.918 10.8522 81.1048 11.2464 81.2461 11.7021C81.3874 12.1533 81.4899 12.6478 81.5537 13.1855V13.5C81.4899 14.015 81.3874 14.4935 81.2461 14.9355C81.1048 15.3776 80.918 15.765 80.6855 16.0977C80.4577 16.4258 80.1797 16.681 79.8516 16.8633C79.5234 17.0456 79.1406 17.1367 78.7031 17.1367C78.2428 17.1367 77.8327 17.0433 77.4727 16.8564C77.1172 16.6696 76.8164 16.4076 76.5703 16.0703C76.3288 15.7331 76.1442 15.3366 76.0166 14.8809C75.889 14.4251 75.8252 13.9284 75.8252 13.3906ZM77.7939 13.2471V13.3906C77.7939 13.696 77.8167 13.9808 77.8623 14.2451C77.9124 14.5094 77.9922 14.7441 78.1016 14.9492C78.2155 15.1497 78.3613 15.307 78.5391 15.4209C78.7214 15.5303 78.9424 15.585 79.2021 15.585C79.5394 15.585 79.8174 15.5098 80.0361 15.3594C80.2549 15.2044 80.4212 14.9925 80.5352 14.7236C80.6536 14.4548 80.722 14.1449 80.7402 13.7939V12.8984C80.7266 12.6113 80.6855 12.3538 80.6172 12.126C80.5534 11.8936 80.4577 11.6953 80.3301 11.5312C80.207 11.3672 80.0521 11.2396 79.8652 11.1484C79.6829 11.0573 79.4665 11.0117 79.2158 11.0117C78.9606 11.0117 78.7419 11.071 78.5596 11.1895C78.3773 11.3034 78.2292 11.4606 78.1152 11.6611C78.0059 11.8617 77.9238 12.0986 77.8691 12.3721C77.819 12.641 77.7939 12.9326 77.7939 13.2471Z" fill="white"/>
</svg>
