<svg width="125" height="40" viewBox="0 0 125 40" fill="none" xmlns="http://www.w3.org/2000/svg">
<rect width="125" height="40" rx="8" fill="#3A379F"/>
<path d="M34.0505 18.7L33.2338 22.1833C32.5338 25.1917 31.1505 26.4083 28.5505 26.1583C28.1338 26.125 27.6838 26.05 27.2005 25.9333L25.8005 25.6C22.3255 24.775 21.2505 23.0583 22.0671 19.575L22.8838 16.0833C23.0505 15.375 23.2505 14.7583 23.5005 14.25C24.4755 12.2333 26.1338 11.6917 28.9171 12.35L30.3088 12.675C33.8005 13.4917 34.8671 15.2167 34.0505 18.7Z" stroke="white" stroke-width="2" stroke-linecap="round" stroke-linejoin="round"/>
<path d="M28.5503 26.1583C28.0336 26.5083 27.3836 26.8 26.592 27.0583L25.2753 27.4917C21.967 28.5583 20.2253 27.6667 19.1503 24.3583L18.0836 21.0667C17.017 17.7583 17.9003 16.0083 21.2086 14.9417L22.5253 14.5083C22.867 14.4 23.192 14.3083 23.5003 14.25C23.2503 14.7583 23.0503 15.375 22.8836 16.0833L22.067 19.575C21.2503 23.0583 22.3253 24.775 25.8003 25.6L27.2003 25.9333C27.6836 26.05 28.1336 26.125 28.5503 26.1583Z" stroke="white" stroke-width="2" stroke-linecap="round" stroke-linejoin="round"/>
<path d="M26.5332 17.1083L30.5749 18.1333" stroke="white" stroke-width="2" stroke-linecap="round" stroke-linejoin="round"/>
<path d="M25.7168 20.3333L28.1335 20.95" stroke="white" stroke-width="2" stroke-linecap="round" stroke-linejoin="round"/>
<rect x="28" y="7" width="13" height="13" rx="6.5" fill="#3A379F"/>
<path d="M34.4997 10.5833V16.4167M31.583 13.5H37.4163" stroke="white" stroke-width="2" stroke-linecap="round" stroke-linejoin="round"/>
<path d="M56.9355 16.749L54.2285 25H52.0479L55.7461 15.0469H57.1338L56.9355 16.749ZM59.1846 25L56.4707 16.749L56.252 15.0469H57.6533L61.3721 25H59.1846ZM59.0615 21.2949V22.9014H53.8047V21.2949H59.0615ZM66.54 23.3867V14.5H68.5225V25H66.7383L66.54 23.3867ZM61.8643 21.3906V21.2471C61.8643 20.682 61.9281 20.1693 62.0557 19.709C62.1833 19.2441 62.3701 18.8454 62.6162 18.5127C62.8623 18.18 63.1654 17.9225 63.5254 17.7402C63.8854 17.5579 64.2956 17.4668 64.7559 17.4668C65.1888 17.4668 65.5671 17.5579 65.8906 17.7402C66.2188 17.9225 66.4967 18.1823 66.7246 18.5195C66.957 18.8522 67.1439 19.2464 67.2852 19.7021C67.4264 20.1533 67.529 20.6478 67.5928 21.1855V21.5C67.529 22.015 67.4264 22.4935 67.2852 22.9355C67.1439 23.3776 66.957 23.765 66.7246 24.0977C66.4967 24.4258 66.2188 24.681 65.8906 24.8633C65.5625 25.0456 65.1797 25.1367 64.7422 25.1367C64.2819 25.1367 63.8717 25.0433 63.5117 24.8564C63.1562 24.6696 62.8555 24.4076 62.6094 24.0703C62.3678 23.7331 62.1833 23.3366 62.0557 22.8809C61.9281 22.4251 61.8643 21.9284 61.8643 21.3906ZM63.833 21.2471V21.3906C63.833 21.696 63.8558 21.9808 63.9014 22.2451C63.9515 22.5094 64.0312 22.7441 64.1406 22.9492C64.2546 23.1497 64.4004 23.307 64.5781 23.4209C64.7604 23.5303 64.9814 23.585 65.2412 23.585C65.5785 23.585 65.8564 23.5098 66.0752 23.3594C66.2939 23.2044 66.4603 22.9925 66.5742 22.7236C66.6927 22.4548 66.7611 22.1449 66.7793 21.7939V20.8984C66.7656 20.6113 66.7246 20.3538 66.6562 20.126C66.5924 19.8936 66.4967 19.6953 66.3691 19.5312C66.2461 19.3672 66.0911 19.2396 65.9043 19.1484C65.722 19.0573 65.5055 19.0117 65.2549 19.0117C64.9997 19.0117 64.7809 19.071 64.5986 19.1895C64.4163 19.3034 64.2682 19.4606 64.1543 19.6611C64.0449 19.8617 63.9629 20.0986 63.9082 20.3721C63.8581 20.641 63.833 20.9326 63.833 21.2471ZM74.4287 23.3867V14.5H76.4111V25H74.627L74.4287 23.3867ZM69.7529 21.3906V21.2471C69.7529 20.682 69.8167 20.1693 69.9443 19.709C70.0719 19.2441 70.2588 18.8454 70.5049 18.5127C70.751 18.18 71.054 17.9225 71.4141 17.7402C71.7741 17.5579 72.1842 17.4668 72.6445 17.4668C73.0775 17.4668 73.4557 17.5579 73.7793 17.7402C74.1074 17.9225 74.3854 18.1823 74.6133 18.5195C74.8457 18.8522 75.0326 19.2464 75.1738 19.7021C75.3151 20.1533 75.4176 20.6478 75.4814 21.1855V21.5C75.4176 22.015 75.3151 22.4935 75.1738 22.9355C75.0326 23.3776 74.8457 23.765 74.6133 24.0977C74.3854 24.4258 74.1074 24.681 73.7793 24.8633C73.4512 25.0456 73.0684 25.1367 72.6309 25.1367C72.1706 25.1367 71.7604 25.0433 71.4004 24.8564C71.0449 24.6696 70.7441 24.4076 70.498 24.0703C70.2565 23.7331 70.0719 23.3366 69.9443 22.8809C69.8167 22.4251 69.7529 21.9284 69.7529 21.3906ZM71.7217 21.2471V21.3906C71.7217 21.696 71.7445 21.9808 71.79 22.2451C71.8402 22.5094 71.9199 22.7441 72.0293 22.9492C72.1432 23.1497 72.2891 23.307 72.4668 23.4209C72.6491 23.5303 72.8701 23.585 73.1299 23.585C73.4671 23.585 73.7451 23.5098 73.9639 23.3594C74.1826 23.2044 74.349 22.9925 74.4629 22.7236C74.5814 22.4548 74.6497 22.1449 74.668 21.7939V20.8984C74.6543 20.6113 74.6133 20.3538 74.5449 20.126C74.4811 19.8936 74.3854 19.6953 74.2578 19.5312C74.1348 19.3672 73.9798 19.2396 73.793 19.1484C73.6107 19.0573 73.3942 19.0117 73.1436 19.0117C72.8883 19.0117 72.6696 19.071 72.4873 19.1895C72.305 19.3034 72.1569 19.4606 72.043 19.6611C71.9336 19.8617 71.8516 20.0986 71.7969 20.3721C71.7467 20.641 71.7217 20.9326 71.7217 21.2471ZM89.6592 15.0469V25H87.6084L83.6094 18.3281V25H81.5586V15.0469H83.6094L87.6152 21.7256V15.0469H89.6592ZM94.7246 25.1367C94.1504 25.1367 93.6354 25.0456 93.1797 24.8633C92.724 24.6764 92.3366 24.4189 92.0176 24.0908C91.7031 23.7627 91.4616 23.3822 91.293 22.9492C91.1243 22.5117 91.04 22.0469 91.04 21.5547V21.2812C91.04 20.7207 91.1198 20.208 91.2793 19.7432C91.4388 19.2783 91.6667 18.875 91.9629 18.5332C92.2637 18.1914 92.6283 17.9294 93.0566 17.7471C93.485 17.5602 93.9681 17.4668 94.5059 17.4668C95.0299 17.4668 95.4948 17.5534 95.9004 17.7266C96.306 17.8997 96.6455 18.1458 96.9189 18.4648C97.1969 18.7839 97.4066 19.1667 97.5479 19.6133C97.6891 20.0553 97.7598 20.5475 97.7598 21.0898V21.9102H91.8809V20.5977H95.8252V20.4473C95.8252 20.1738 95.7751 19.93 95.6748 19.7158C95.5791 19.4971 95.4333 19.3239 95.2373 19.1963C95.0413 19.0687 94.7907 19.0049 94.4854 19.0049C94.2256 19.0049 94.0023 19.0618 93.8154 19.1758C93.6286 19.2897 93.4759 19.4492 93.3574 19.6543C93.2435 19.8594 93.1569 20.1009 93.0977 20.3789C93.043 20.6523 93.0156 20.9531 93.0156 21.2812V21.5547C93.0156 21.8509 93.0566 22.1243 93.1387 22.375C93.2253 22.6257 93.346 22.8421 93.501 23.0244C93.6605 23.2067 93.8519 23.348 94.0752 23.4482C94.3031 23.5485 94.5605 23.5986 94.8477 23.5986C95.2031 23.5986 95.5335 23.5303 95.8389 23.3936C96.1488 23.2523 96.4154 23.0404 96.6387 22.7578L97.5957 23.7969C97.4408 24.0202 97.2288 24.2344 96.96 24.4395C96.6956 24.6445 96.3766 24.8132 96.0029 24.9453C95.6292 25.0729 95.2031 25.1367 94.7246 25.1367ZM100.993 23.0859L102.531 17.6035H103.782L103.379 19.7568L101.841 25H100.795L100.993 23.0859ZM100.214 17.6035L101.314 23.0791L101.417 25H100.187L98.3135 17.6035H100.214ZM105.19 22.9902L106.264 17.6035H108.171L106.298 25H105.074L105.19 22.9902ZM103.953 17.6035L105.484 23.0449L105.696 25H104.644L103.105 19.7637L102.716 17.6035H103.953Z" fill="white"/>
</svg>
