<svg width="76" height="24" viewBox="0 0 76 24" fill="none" xmlns="http://www.w3.org/2000/svg">
<path d="M37.4688 13.0078H34.5469L34.5312 11.3984H36.9844C37.4167 11.3984 37.7708 11.3438 38.0469 11.2344C38.3229 11.1198 38.5286 10.9557 38.6641 10.7422C38.8047 10.5234 38.875 10.2578 38.875 9.94531C38.875 9.59115 38.8073 9.30469 38.6719 9.08594C38.5417 8.86719 38.3359 8.70833 38.0547 8.60938C37.7786 8.51042 37.4219 8.46094 36.9844 8.46094H35.3594V18H33.0156V6.625H36.9844C37.6458 6.625 38.237 6.6875 38.7578 6.8125C39.2839 6.9375 39.7292 7.1276 40.0938 7.38281C40.4583 7.63802 40.737 7.96094 40.9297 8.35156C41.1224 8.73698 41.2188 9.19531 41.2188 9.72656C41.2188 10.1953 41.112 10.6276 40.8984 11.0234C40.6901 11.4193 40.3594 11.7422 39.9062 11.9922C39.4583 12.2422 38.8724 12.3802 38.1484 12.4062L37.4688 13.0078ZM37.3672 18H33.9062L34.8203 16.1719H37.3672C37.7786 16.1719 38.1146 16.1068 38.375 15.9766C38.6354 15.8411 38.8281 15.6589 38.9531 15.4297C39.0781 15.2005 39.1406 14.9375 39.1406 14.6406C39.1406 14.3073 39.0833 14.0182 38.9688 13.7734C38.8594 13.5286 38.6823 13.3411 38.4375 13.2109C38.1927 13.0755 37.8698 13.0078 37.4688 13.0078H35.2109L35.2266 11.3984H38.0391L38.5781 12.0312C39.2708 12.0208 39.8281 12.1432 40.25 12.3984C40.6771 12.6484 40.987 12.974 41.1797 13.375C41.3776 13.776 41.4766 14.2057 41.4766 14.6641C41.4766 15.3932 41.3177 16.0078 41 16.5078C40.6823 17.0026 40.2161 17.375 39.6016 17.625C38.9922 17.875 38.2474 18 37.3672 18ZM47.6562 16.0938V12.3281C47.6562 12.0573 47.612 11.8255 47.5234 11.6328C47.4349 11.4349 47.2969 11.2812 47.1094 11.1719C46.9271 11.0625 46.6901 11.0078 46.3984 11.0078C46.1484 11.0078 45.9323 11.0521 45.75 11.1406C45.5677 11.224 45.4271 11.3464 45.3281 11.5078C45.2292 11.6641 45.1797 11.849 45.1797 12.0625H42.9297C42.9297 11.7031 43.013 11.362 43.1797 11.0391C43.3464 10.7161 43.5885 10.4323 43.9062 10.1875C44.224 9.9375 44.6016 9.74219 45.0391 9.60156C45.4818 9.46094 45.9766 9.39062 46.5234 9.39062C47.1797 9.39062 47.763 9.5 48.2734 9.71875C48.7839 9.9375 49.1849 10.2656 49.4766 10.7031C49.7734 11.1406 49.9219 11.6875 49.9219 12.3438V15.9609C49.9219 16.4245 49.9505 16.8047 50.0078 17.1016C50.0651 17.3932 50.1484 17.6484 50.2578 17.8672V18H47.9844C47.875 17.7708 47.7917 17.4844 47.7344 17.1406C47.6823 16.7917 47.6562 16.4427 47.6562 16.0938ZM47.9531 12.8516L47.9688 14.125H46.7109C46.4141 14.125 46.1562 14.1589 45.9375 14.2266C45.7188 14.2943 45.5391 14.3906 45.3984 14.5156C45.2578 14.6354 45.1536 14.776 45.0859 14.9375C45.0234 15.099 44.9922 15.276 44.9922 15.4688C44.9922 15.6615 45.0365 15.8359 45.125 15.9922C45.2135 16.1432 45.3411 16.263 45.5078 16.3516C45.6745 16.4349 45.8698 16.4766 46.0938 16.4766C46.4323 16.4766 46.7266 16.4089 46.9766 16.2734C47.2266 16.138 47.4193 15.9714 47.5547 15.7734C47.6953 15.5755 47.7682 15.388 47.7734 15.2109L48.3672 16.1641C48.2839 16.3776 48.1693 16.599 48.0234 16.8281C47.8828 17.0573 47.7031 17.2734 47.4844 17.4766C47.2656 17.6745 47.0026 17.8385 46.6953 17.9688C46.388 18.0938 46.0234 18.1562 45.6016 18.1562C45.0651 18.1562 44.5781 18.0495 44.1406 17.8359C43.7083 17.6172 43.3646 17.3177 43.1094 16.9375C42.8594 16.5521 42.7344 16.1146 42.7344 15.625C42.7344 15.1823 42.8177 14.7891 42.9844 14.4453C43.151 14.1016 43.3958 13.8125 43.7188 13.5781C44.0469 13.3385 44.4557 13.1589 44.9453 13.0391C45.4349 12.9141 46.0026 12.8516 46.6484 12.8516H47.9531ZM55.1484 16.3984C55.4245 16.3984 55.6693 16.3464 55.8828 16.2422C56.0964 16.1328 56.263 15.9818 56.3828 15.7891C56.5078 15.5911 56.5729 15.3594 56.5781 15.0938H58.6953C58.6901 15.6875 58.5312 16.2161 58.2188 16.6797C57.9062 17.138 57.487 17.5 56.9609 17.7656C56.4349 18.026 55.8464 18.1562 55.1953 18.1562C54.5391 18.1562 53.9661 18.0469 53.4766 17.8281C52.9922 17.6094 52.5885 17.3073 52.2656 16.9219C51.9427 16.5312 51.7005 16.0781 51.5391 15.5625C51.3776 15.0417 51.2969 14.4844 51.2969 13.8906V13.6641C51.2969 13.0651 51.3776 12.5078 51.5391 11.9922C51.7005 11.4714 51.9427 11.0182 52.2656 10.6328C52.5885 10.2422 52.9922 9.9375 53.4766 9.71875C53.9609 9.5 54.5286 9.39062 55.1797 9.39062C55.8724 9.39062 56.4792 9.52344 57 9.78906C57.526 10.0547 57.9375 10.4349 58.2344 10.9297C58.5365 11.4193 58.6901 12 58.6953 12.6719H56.5781C56.5729 12.3906 56.513 12.1354 56.3984 11.9062C56.2891 11.6771 56.1276 11.4948 55.9141 11.3594C55.7057 11.2188 55.4479 11.1484 55.1406 11.1484C54.8125 11.1484 54.5443 11.2188 54.3359 11.3594C54.1276 11.4948 53.9661 11.6823 53.8516 11.9219C53.737 12.1562 53.6562 12.4245 53.6094 12.7266C53.5677 13.0234 53.5469 13.3359 53.5469 13.6641V13.8906C53.5469 14.2188 53.5677 14.5339 53.6094 14.8359C53.651 15.138 53.7292 15.4062 53.8438 15.6406C53.9635 15.875 54.1276 16.0599 54.3359 16.1953C54.5443 16.3307 54.8151 16.3984 55.1484 16.3984ZM62.25 5.99219V18H60V5.99219H62.25ZM67.5781 9.54688L63.9062 13.7344L61.9375 15.7266L61.1172 14.1016L62.6797 12.1172L64.875 9.54688H67.5781ZM65.2422 18L62.7422 14.0938L64.2969 12.7344L67.8359 18H65.2422Z" fill="#61308C"/>
<path d="M15 18L9 12L15 6" stroke="#61308C" stroke-width="2" stroke-linecap="round" stroke-linejoin="round"/>
</svg>
