<svg width="20" height="20" viewBox="0 0 20 20" fill="none" xmlns="http://www.w3.org/2000/svg">
<path d="M11.6668 1.89124V5.33335C11.6668 5.80006 11.6668 6.03342 11.7577 6.21168C11.8376 6.36848 11.965 6.49596 12.1218 6.57586C12.3001 6.66669 12.5335 6.66669 13.0002 6.66669H16.4423M13.3335 10.8333H6.66683M13.3335 14.1666H6.66683M8.3335 7.49996H6.66683M11.6668 1.66663H7.3335C5.93336 1.66663 5.2333 1.66663 4.69852 1.93911C4.22811 2.17879 3.84566 2.56124 3.60598 3.03165C3.3335 3.56643 3.3335 4.26649 3.3335 5.66663V14.3333C3.3335 15.7334 3.3335 16.4335 3.60598 16.9683C3.84566 17.4387 4.22811 17.8211 4.69852 18.0608C5.2333 18.3333 5.93336 18.3333 7.3335 18.3333H12.6668C14.067 18.3333 14.767 18.3333 15.3018 18.0608C15.7722 17.8211 16.1547 17.4387 16.3943 16.9683C16.6668 16.4335 16.6668 15.7334 16.6668 14.3333V6.66663L11.6668 1.66663Z" stroke="#61308C" stroke-width="2" stroke-linecap="round" stroke-linejoin="round"/>
</svg>
