<svg width="121" height="24" viewBox="0 0 121 24" fill="none" xmlns="http://www.w3.org/2000/svg">
<rect width="120.478" height="24" rx="12" fill="#D3FAD2"/>
<path d="M32.3965 13.6982H34.4404C34.3994 14.3682 34.2148 14.9629 33.8867 15.4824C33.5632 16.002 33.1097 16.4076 32.5264 16.6992C31.9476 16.9909 31.2503 17.1367 30.4346 17.1367C29.7965 17.1367 29.2246 17.0273 28.7188 16.8086C28.2129 16.5853 27.7799 16.2663 27.4199 15.8516C27.0645 15.4368 26.7933 14.9355 26.6064 14.3477C26.4196 13.7598 26.3262 13.1012 26.3262 12.3721V11.6816C26.3262 10.9525 26.4219 10.2939 26.6133 9.70605C26.8092 9.11361 27.0872 8.61003 27.4473 8.19531C27.8118 7.7806 28.2471 7.46159 28.7529 7.23828C29.2588 7.01497 29.8239 6.90332 30.4482 6.90332C31.2777 6.90332 31.9772 7.05371 32.5469 7.35449C33.1211 7.65527 33.5654 8.06999 33.8799 8.59863C34.1989 9.12728 34.3903 9.72884 34.4541 10.4033H32.4033C32.3805 10.0023 32.3008 9.66276 32.1641 9.38477C32.0273 9.10221 31.82 8.8903 31.542 8.74902C31.2686 8.60319 30.904 8.53027 30.4482 8.53027C30.1064 8.53027 29.8079 8.59408 29.5527 8.72168C29.2975 8.84928 29.0833 9.04297 28.9102 9.30273C28.737 9.5625 28.6071 9.89062 28.5205 10.2871C28.4385 10.679 28.3975 11.1393 28.3975 11.668V12.3721C28.3975 12.887 28.4362 13.3405 28.5137 13.7324C28.5911 14.1198 28.7096 14.4479 28.8691 14.7168C29.0332 14.9811 29.2428 15.1816 29.498 15.3184C29.7578 15.4505 30.07 15.5166 30.4346 15.5166C30.863 15.5166 31.2161 15.4482 31.4941 15.3115C31.7721 15.1748 31.984 14.972 32.1299 14.7031C32.2803 14.4342 32.3691 14.0993 32.3965 13.6982ZM35.3496 13.377V13.2334C35.3496 12.6911 35.4271 12.1921 35.582 11.7363C35.737 11.276 35.9626 10.8773 36.2588 10.54C36.555 10.2028 36.9196 9.94076 37.3525 9.75391C37.7855 9.5625 38.2822 9.4668 38.8428 9.4668C39.4033 9.4668 39.9023 9.5625 40.3398 9.75391C40.7773 9.94076 41.1442 10.2028 41.4404 10.54C41.7412 10.8773 41.9691 11.276 42.124 11.7363C42.279 12.1921 42.3564 12.6911 42.3564 13.2334V13.377C42.3564 13.9147 42.279 14.4137 42.124 14.874C41.9691 15.3298 41.7412 15.7285 41.4404 16.0703C41.1442 16.4076 40.7796 16.6696 40.3467 16.8564C39.9137 17.0433 39.417 17.1367 38.8564 17.1367C38.2959 17.1367 37.7969 17.0433 37.3594 16.8564C36.9264 16.6696 36.5596 16.4076 36.2588 16.0703C35.9626 15.7285 35.737 15.3298 35.582 14.874C35.4271 14.4137 35.3496 13.9147 35.3496 13.377ZM37.3184 13.2334V13.377C37.3184 13.6868 37.3457 13.9762 37.4004 14.2451C37.4551 14.514 37.5417 14.751 37.6602 14.9561C37.7832 15.1566 37.9427 15.3138 38.1387 15.4277C38.3346 15.5417 38.5739 15.5986 38.8564 15.5986C39.1299 15.5986 39.3646 15.5417 39.5605 15.4277C39.7565 15.3138 39.9137 15.1566 40.0322 14.9561C40.1507 14.751 40.2373 14.514 40.292 14.2451C40.3512 13.9762 40.3809 13.6868 40.3809 13.377V13.2334C40.3809 12.9326 40.3512 12.6501 40.292 12.3857C40.2373 12.1169 40.1484 11.8799 40.0254 11.6748C39.9069 11.4652 39.7497 11.3011 39.5537 11.1826C39.3577 11.0641 39.1208 11.0049 38.8428 11.0049C38.5648 11.0049 38.3278 11.0641 38.1318 11.1826C37.9404 11.3011 37.7832 11.4652 37.6602 11.6748C37.5417 11.8799 37.4551 12.1169 37.4004 12.3857C37.3457 12.6501 37.3184 12.9326 37.3184 13.2334ZM45.5352 11.1348V17H43.5596V9.60352H45.4121L45.5352 11.1348ZM45.2617 13.042H44.7148C44.7148 12.527 44.7764 12.0531 44.8994 11.6201C45.027 11.1826 45.2116 10.8044 45.4531 10.4854C45.6992 10.1618 46.0023 9.91113 46.3623 9.7334C46.7223 9.55566 47.1393 9.4668 47.6133 9.4668C47.9414 9.4668 48.2422 9.51693 48.5156 9.61719C48.7891 9.71289 49.0238 9.86556 49.2197 10.0752C49.4202 10.2803 49.5752 10.5492 49.6846 10.8818C49.7939 11.21 49.8486 11.6042 49.8486 12.0645V17H47.8799V12.2832C47.8799 11.946 47.8343 11.6862 47.7432 11.5039C47.652 11.3216 47.5221 11.194 47.3535 11.1211C47.1895 11.0482 46.9912 11.0117 46.7588 11.0117C46.5036 11.0117 46.2803 11.0641 46.0889 11.1689C45.902 11.2738 45.7471 11.4196 45.624 11.6064C45.501 11.7887 45.4098 12.0029 45.3506 12.249C45.2913 12.4951 45.2617 12.7594 45.2617 13.042ZM49.6641 12.8164L48.96 12.9053C48.96 12.4222 49.0192 11.9733 49.1377 11.5586C49.2607 11.1439 49.4408 10.7793 49.6777 10.4648C49.9193 10.1504 50.2178 9.90658 50.5732 9.7334C50.9287 9.55566 51.3389 9.4668 51.8037 9.4668C52.1592 9.4668 52.4827 9.51921 52.7744 9.62402C53.0661 9.72428 53.3145 9.88607 53.5195 10.1094C53.7292 10.3281 53.8887 10.6152 53.998 10.9707C54.112 11.3262 54.1689 11.7614 54.1689 12.2764V17H52.1934V12.2764C52.1934 11.9346 52.1478 11.6748 52.0566 11.4971C51.9701 11.3148 51.8424 11.1895 51.6738 11.1211C51.5098 11.0482 51.3138 11.0117 51.0859 11.0117C50.849 11.0117 50.6416 11.0596 50.4639 11.1553C50.2861 11.2464 50.138 11.374 50.0195 11.5381C49.901 11.7021 49.8122 11.8936 49.7529 12.1123C49.6937 12.3265 49.6641 12.5612 49.6641 12.8164ZM57.6621 11.0254V19.8438H55.6934V9.60352H57.5186L57.6621 11.0254ZM62.3447 13.2197V13.3633C62.3447 13.901 62.2809 14.4001 62.1533 14.8604C62.0303 15.3206 61.848 15.7217 61.6064 16.0635C61.3649 16.4007 61.0641 16.665 60.7041 16.8564C60.3486 17.0433 59.9385 17.1367 59.4736 17.1367C59.0225 17.1367 58.6305 17.0456 58.2979 16.8633C57.9652 16.681 57.6849 16.4258 57.457 16.0977C57.2337 15.765 57.0537 15.3799 56.917 14.9424C56.7803 14.5049 56.6755 14.0355 56.6025 13.5342V13.1582C56.6755 12.6204 56.7803 12.1283 56.917 11.6816C57.0537 11.2305 57.2337 10.8408 57.457 10.5127C57.6849 10.18 57.9629 9.92253 58.291 9.74023C58.6237 9.55794 59.0133 9.4668 59.46 9.4668C59.9294 9.4668 60.3418 9.55566 60.6973 9.7334C61.0573 9.91113 61.3581 10.1663 61.5996 10.499C61.8457 10.8317 62.0303 11.2282 62.1533 11.6885C62.2809 12.1488 62.3447 12.6592 62.3447 13.2197ZM60.3691 13.3633V13.2197C60.3691 12.9053 60.3418 12.6159 60.2871 12.3516C60.237 12.0827 60.1549 11.848 60.041 11.6475C59.9316 11.4469 59.7858 11.292 59.6035 11.1826C59.4258 11.0687 59.2093 11.0117 58.9541 11.0117C58.6852 11.0117 58.4551 11.055 58.2637 11.1416C58.0768 11.2282 57.9242 11.3535 57.8057 11.5176C57.6872 11.6816 57.5983 11.8776 57.5391 12.1055C57.4798 12.3333 57.4434 12.5908 57.4297 12.8779V13.8281C57.4525 14.1654 57.5163 14.4684 57.6211 14.7373C57.7259 15.0016 57.8877 15.2113 58.1064 15.3662C58.3252 15.5212 58.6123 15.5986 58.9678 15.5986C59.2275 15.5986 59.4463 15.5417 59.624 15.4277C59.8018 15.3092 59.9453 15.1475 60.0547 14.9424C60.1686 14.7373 60.2484 14.5003 60.2939 14.2314C60.3441 13.9626 60.3691 13.6732 60.3691 13.3633ZM65.6465 6.5V17H63.6709V6.5H65.6465ZM70.6777 17.1367C70.1035 17.1367 69.5885 17.0456 69.1328 16.8633C68.6771 16.6764 68.2897 16.4189 67.9707 16.0908C67.6562 15.7627 67.4147 15.3822 67.2461 14.9492C67.0775 14.5117 66.9932 14.0469 66.9932 13.5547V13.2812C66.9932 12.7207 67.0729 12.208 67.2324 11.7432C67.3919 11.2783 67.6198 10.875 67.916 10.5332C68.2168 10.1914 68.5814 9.92936 69.0098 9.74707C69.4382 9.56022 69.9212 9.4668 70.459 9.4668C70.9831 9.4668 71.4479 9.55339 71.8535 9.72656C72.2591 9.89974 72.5986 10.1458 72.8721 10.4648C73.1501 10.7839 73.3597 11.1667 73.501 11.6133C73.6423 12.0553 73.7129 12.5475 73.7129 13.0898V13.9102H67.834V12.5977H71.7783V12.4473C71.7783 12.1738 71.7282 11.93 71.6279 11.7158C71.5322 11.4971 71.3864 11.3239 71.1904 11.1963C70.9945 11.0687 70.7438 11.0049 70.4385 11.0049C70.1787 11.0049 69.9554 11.0618 69.7686 11.1758C69.5817 11.2897 69.429 11.4492 69.3105 11.6543C69.1966 11.8594 69.11 12.1009 69.0508 12.3789C68.9961 12.6523 68.9688 12.9531 68.9688 13.2812V13.5547C68.9688 13.8509 69.0098 14.1243 69.0918 14.375C69.1784 14.6257 69.2992 14.8421 69.4541 15.0244C69.6136 15.2067 69.805 15.348 70.0283 15.4482C70.2562 15.5485 70.5137 15.5986 70.8008 15.5986C71.1562 15.5986 71.4867 15.5303 71.792 15.3936C72.1019 15.2523 72.3685 15.0404 72.5918 14.7578L73.5488 15.7969C73.3939 16.0202 73.182 16.2344 72.9131 16.4395C72.6488 16.6445 72.3298 16.8132 71.9561 16.9453C71.5824 17.0729 71.1562 17.1367 70.6777 17.1367ZM78.457 9.60352V10.998H74.1504V9.60352H78.457ZM75.2168 7.77832H77.1855V14.7715C77.1855 14.9857 77.2129 15.1497 77.2676 15.2637C77.3268 15.3776 77.4134 15.4574 77.5273 15.5029C77.6413 15.5439 77.7848 15.5645 77.958 15.5645C78.0811 15.5645 78.1904 15.5599 78.2861 15.5508C78.3864 15.5371 78.4707 15.5234 78.5391 15.5098L78.5459 16.959C78.3773 17.0137 78.195 17.057 77.999 17.0889C77.8031 17.1208 77.5866 17.1367 77.3496 17.1367C76.9167 17.1367 76.5384 17.0661 76.2148 16.9248C75.8958 16.779 75.6497 16.5465 75.4766 16.2275C75.3034 15.9085 75.2168 15.4893 75.2168 14.9697V7.77832ZM82.9824 17.1367C82.4082 17.1367 81.8932 17.0456 81.4375 16.8633C80.9818 16.6764 80.5944 16.4189 80.2754 16.0908C79.9609 15.7627 79.7194 15.3822 79.5508 14.9492C79.3822 14.5117 79.2979 14.0469 79.2979 13.5547V13.2812C79.2979 12.7207 79.3776 12.208 79.5371 11.7432C79.6966 11.2783 79.9245 10.875 80.2207 10.5332C80.5215 10.1914 80.8861 9.92936 81.3145 9.74707C81.7428 9.56022 82.2259 9.4668 82.7637 9.4668C83.2878 9.4668 83.7526 9.55339 84.1582 9.72656C84.5638 9.89974 84.9033 10.1458 85.1768 10.4648C85.4548 10.7839 85.6644 11.1667 85.8057 11.6133C85.9469 12.0553 86.0176 12.5475 86.0176 13.0898V13.9102H80.1387V12.5977H84.083V12.4473C84.083 12.1738 84.0329 11.93 83.9326 11.7158C83.8369 11.4971 83.6911 11.3239 83.4951 11.1963C83.2992 11.0687 83.0485 11.0049 82.7432 11.0049C82.4834 11.0049 82.2601 11.0618 82.0732 11.1758C81.8864 11.2897 81.7337 11.4492 81.6152 11.6543C81.5013 11.8594 81.4147 12.1009 81.3555 12.3789C81.3008 12.6523 81.2734 12.9531 81.2734 13.2812V13.5547C81.2734 13.8509 81.3145 14.1243 81.3965 14.375C81.4831 14.6257 81.6038 14.8421 81.7588 15.0244C81.9183 15.2067 82.1097 15.348 82.333 15.4482C82.5609 15.5485 82.8184 15.5986 83.1055 15.5986C83.4609 15.5986 83.7913 15.5303 84.0967 15.3936C84.4066 15.2523 84.6732 15.0404 84.8965 14.7578L85.8535 15.7969C85.6986 16.0202 85.4867 16.2344 85.2178 16.4395C84.9535 16.6445 84.6344 16.8132 84.2607 16.9453C83.887 17.0729 83.4609 17.1367 82.9824 17.1367ZM91.5068 15.3867V6.5H93.4893V17H91.7051L91.5068 15.3867ZM86.8311 13.3906V13.2471C86.8311 12.682 86.8949 12.1693 87.0225 11.709C87.1501 11.2441 87.3369 10.8454 87.583 10.5127C87.8291 10.18 88.1322 9.92253 88.4922 9.74023C88.8522 9.55794 89.2624 9.4668 89.7227 9.4668C90.1556 9.4668 90.5339 9.55794 90.8574 9.74023C91.1855 9.92253 91.4635 10.1823 91.6914 10.5195C91.9238 10.8522 92.1107 11.2464 92.252 11.7021C92.3932 12.1533 92.4958 12.6478 92.5596 13.1855V13.5C92.4958 14.015 92.3932 14.4935 92.252 14.9355C92.1107 15.3776 91.9238 15.765 91.6914 16.0977C91.4635 16.4258 91.1855 16.681 90.8574 16.8633C90.5293 17.0456 90.1465 17.1367 89.709 17.1367C89.2487 17.1367 88.8385 17.0433 88.4785 16.8564C88.123 16.6696 87.8223 16.4076 87.5762 16.0703C87.3346 15.7331 87.1501 15.3366 87.0225 14.8809C86.8949 14.4251 86.8311 13.9284 86.8311 13.3906ZM88.7998 13.2471V13.3906C88.7998 13.696 88.8226 13.9808 88.8682 14.2451C88.9183 14.5094 88.998 14.7441 89.1074 14.9492C89.2214 15.1497 89.3672 15.307 89.5449 15.4209C89.7272 15.5303 89.9482 15.585 90.208 15.585C90.5452 15.585 90.8232 15.5098 91.042 15.3594C91.2607 15.2044 91.4271 14.9925 91.541 14.7236C91.6595 14.4548 91.7279 14.1449 91.7461 13.7939V12.8984C91.7324 12.6113 91.6914 12.3538 91.623 12.126C91.5592 11.8936 91.4635 11.6953 91.3359 11.5312C91.2129 11.3672 91.0579 11.2396 90.8711 11.1484C90.6888 11.0573 90.4723 11.0117 90.2217 11.0117C89.9665 11.0117 89.7477 11.071 89.5654 11.1895C89.3831 11.3034 89.235 11.4606 89.1211 11.6611C89.0117 11.8617 88.9297 12.0986 88.875 12.3721C88.8249 12.641 88.7998 12.9326 88.7998 13.2471Z" fill="#067306"/>
</svg>
