<svg width="121" height="24" viewBox="0 0 121 24" fill="none" xmlns="http://www.w3.org/2000/svg">
<rect x="0.478516" width="120.478" height="24" rx="12" fill="#D3FAD2"/>
<path d="M32.875 13.6982H34.9189C34.8779 14.3682 34.6934 14.9629 34.3652 15.4824C34.0417 16.002 33.5882 16.4076 33.0049 16.6992C32.4261 16.9909 31.7288 17.1367 30.9131 17.1367C30.2751 17.1367 29.7031 17.0273 29.1973 16.8086C28.6914 16.5853 28.2585 16.2663 27.8984 15.8516C27.543 15.4368 27.2718 14.9355 27.085 14.3477C26.8981 13.7598 26.8047 13.1012 26.8047 12.3721V11.6816C26.8047 10.9525 26.9004 10.2939 27.0918 9.70605C27.2878 9.11361 27.5658 8.61003 27.9258 8.19531C28.2904 7.7806 28.7256 7.46159 29.2314 7.23828C29.7373 7.01497 30.3024 6.90332 30.9268 6.90332C31.7562 6.90332 32.4557 7.05371 33.0254 7.35449C33.5996 7.65527 34.0439 8.06999 34.3584 8.59863C34.6774 9.12728 34.8688 9.72884 34.9326 10.4033H32.8818C32.859 10.0023 32.7793 9.66276 32.6426 9.38477C32.5059 9.10221 32.2985 8.8903 32.0205 8.74902C31.7471 8.60319 31.3825 8.53027 30.9268 8.53027C30.585 8.53027 30.2865 8.59408 30.0312 8.72168C29.776 8.84928 29.5618 9.04297 29.3887 9.30273C29.2155 9.5625 29.0856 9.89062 28.999 10.2871C28.917 10.679 28.876 11.1393 28.876 11.668V12.3721C28.876 12.887 28.9147 13.3405 28.9922 13.7324C29.0697 14.1198 29.1882 14.4479 29.3477 14.7168C29.5117 14.9811 29.7214 15.1816 29.9766 15.3184C30.2363 15.4505 30.5485 15.5166 30.9131 15.5166C31.3415 15.5166 31.6947 15.4482 31.9727 15.3115C32.2507 15.1748 32.4626 14.972 32.6084 14.7031C32.7588 14.4342 32.8477 14.0993 32.875 13.6982ZM35.8281 13.377V13.2334C35.8281 12.6911 35.9056 12.1921 36.0605 11.7363C36.2155 11.276 36.4411 10.8773 36.7373 10.54C37.0335 10.2028 37.3981 9.94076 37.8311 9.75391C38.264 9.5625 38.7607 9.4668 39.3213 9.4668C39.8818 9.4668 40.3809 9.5625 40.8184 9.75391C41.2559 9.94076 41.6227 10.2028 41.9189 10.54C42.2197 10.8773 42.4476 11.276 42.6025 11.7363C42.7575 12.1921 42.835 12.6911 42.835 13.2334V13.377C42.835 13.9147 42.7575 14.4137 42.6025 14.874C42.4476 15.3298 42.2197 15.7285 41.9189 16.0703C41.6227 16.4076 41.2581 16.6696 40.8252 16.8564C40.3923 17.0433 39.8955 17.1367 39.335 17.1367C38.7744 17.1367 38.2754 17.0433 37.8379 16.8564C37.4049 16.6696 37.0381 16.4076 36.7373 16.0703C36.4411 15.7285 36.2155 15.3298 36.0605 14.874C35.9056 14.4137 35.8281 13.9147 35.8281 13.377ZM37.7969 13.2334V13.377C37.7969 13.6868 37.8242 13.9762 37.8789 14.2451C37.9336 14.514 38.0202 14.751 38.1387 14.9561C38.2617 15.1566 38.4212 15.3138 38.6172 15.4277C38.8132 15.5417 39.0524 15.5986 39.335 15.5986C39.6084 15.5986 39.8431 15.5417 40.0391 15.4277C40.235 15.3138 40.3923 15.1566 40.5107 14.9561C40.6292 14.751 40.7158 14.514 40.7705 14.2451C40.8298 13.9762 40.8594 13.6868 40.8594 13.377V13.2334C40.8594 12.9326 40.8298 12.6501 40.7705 12.3857C40.7158 12.1169 40.627 11.8799 40.5039 11.6748C40.3854 11.4652 40.2282 11.3011 40.0322 11.1826C39.8363 11.0641 39.5993 11.0049 39.3213 11.0049C39.0433 11.0049 38.8063 11.0641 38.6104 11.1826C38.4189 11.3011 38.2617 11.4652 38.1387 11.6748C38.0202 11.8799 37.9336 12.1169 37.8789 12.3857C37.8242 12.6501 37.7969 12.9326 37.7969 13.2334ZM46.0137 11.1348V17H44.0381V9.60352H45.8906L46.0137 11.1348ZM45.7402 13.042H45.1934C45.1934 12.527 45.2549 12.0531 45.3779 11.6201C45.5055 11.1826 45.6901 10.8044 45.9316 10.4854C46.1777 10.1618 46.4808 9.91113 46.8408 9.7334C47.2008 9.55566 47.6178 9.4668 48.0918 9.4668C48.4199 9.4668 48.7207 9.51693 48.9941 9.61719C49.2676 9.71289 49.5023 9.86556 49.6982 10.0752C49.8988 10.2803 50.0537 10.5492 50.1631 10.8818C50.2725 11.21 50.3271 11.6042 50.3271 12.0645V17H48.3584V12.2832C48.3584 11.946 48.3128 11.6862 48.2217 11.5039C48.1305 11.3216 48.0007 11.194 47.832 11.1211C47.668 11.0482 47.4697 11.0117 47.2373 11.0117C46.9821 11.0117 46.7588 11.0641 46.5674 11.1689C46.3805 11.2738 46.2256 11.4196 46.1025 11.6064C45.9795 11.7887 45.8883 12.0029 45.8291 12.249C45.7699 12.4951 45.7402 12.7594 45.7402 13.042ZM50.1426 12.8164L49.4385 12.9053C49.4385 12.4222 49.4977 11.9733 49.6162 11.5586C49.7393 11.1439 49.9193 10.7793 50.1562 10.4648C50.3978 10.1504 50.6963 9.90658 51.0518 9.7334C51.4072 9.55566 51.8174 9.4668 52.2822 9.4668C52.6377 9.4668 52.9613 9.51921 53.2529 9.62402C53.5446 9.72428 53.793 9.88607 53.998 10.1094C54.2077 10.3281 54.3672 10.6152 54.4766 10.9707C54.5905 11.3262 54.6475 11.7614 54.6475 12.2764V17H52.6719V12.2764C52.6719 11.9346 52.6263 11.6748 52.5352 11.4971C52.4486 11.3148 52.321 11.1895 52.1523 11.1211C51.9883 11.0482 51.7923 11.0117 51.5645 11.0117C51.3275 11.0117 51.1201 11.0596 50.9424 11.1553C50.7646 11.2464 50.6165 11.374 50.498 11.5381C50.3796 11.7021 50.2907 11.8936 50.2314 12.1123C50.1722 12.3265 50.1426 12.5612 50.1426 12.8164ZM58.1406 11.0254V19.8438H56.1719V9.60352H57.9971L58.1406 11.0254ZM62.8232 13.2197V13.3633C62.8232 13.901 62.7594 14.4001 62.6318 14.8604C62.5088 15.3206 62.3265 15.7217 62.085 16.0635C61.8434 16.4007 61.5426 16.665 61.1826 16.8564C60.8271 17.0433 60.417 17.1367 59.9521 17.1367C59.501 17.1367 59.109 17.0456 58.7764 16.8633C58.4437 16.681 58.1634 16.4258 57.9355 16.0977C57.7122 15.765 57.5322 15.3799 57.3955 14.9424C57.2588 14.5049 57.154 14.0355 57.0811 13.5342V13.1582C57.154 12.6204 57.2588 12.1283 57.3955 11.6816C57.5322 11.2305 57.7122 10.8408 57.9355 10.5127C58.1634 10.18 58.4414 9.92253 58.7695 9.74023C59.1022 9.55794 59.4919 9.4668 59.9385 9.4668C60.4079 9.4668 60.8203 9.55566 61.1758 9.7334C61.5358 9.91113 61.8366 10.1663 62.0781 10.499C62.3242 10.8317 62.5088 11.2282 62.6318 11.6885C62.7594 12.1488 62.8232 12.6592 62.8232 13.2197ZM60.8477 13.3633V13.2197C60.8477 12.9053 60.8203 12.6159 60.7656 12.3516C60.7155 12.0827 60.6335 11.848 60.5195 11.6475C60.4102 11.4469 60.2643 11.292 60.082 11.1826C59.9043 11.0687 59.6878 11.0117 59.4326 11.0117C59.1637 11.0117 58.9336 11.055 58.7422 11.1416C58.5553 11.2282 58.4027 11.3535 58.2842 11.5176C58.1657 11.6816 58.0768 11.8776 58.0176 12.1055C57.9583 12.3333 57.9219 12.5908 57.9082 12.8779V13.8281C57.931 14.1654 57.9948 14.4684 58.0996 14.7373C58.2044 15.0016 58.3662 15.2113 58.585 15.3662C58.8037 15.5212 59.0908 15.5986 59.4463 15.5986C59.7061 15.5986 59.9248 15.5417 60.1025 15.4277C60.2803 15.3092 60.4238 15.1475 60.5332 14.9424C60.6471 14.7373 60.7269 14.5003 60.7725 14.2314C60.8226 13.9626 60.8477 13.6732 60.8477 13.3633ZM66.125 6.5V17H64.1494V6.5H66.125ZM71.1562 17.1367C70.582 17.1367 70.0671 17.0456 69.6113 16.8633C69.1556 16.6764 68.7682 16.4189 68.4492 16.0908C68.1348 15.7627 67.8932 15.3822 67.7246 14.9492C67.556 14.5117 67.4717 14.0469 67.4717 13.5547V13.2812C67.4717 12.7207 67.5514 12.208 67.7109 11.7432C67.8704 11.2783 68.0983 10.875 68.3945 10.5332C68.6953 10.1914 69.0599 9.92936 69.4883 9.74707C69.9167 9.56022 70.3997 9.4668 70.9375 9.4668C71.4616 9.4668 71.9264 9.55339 72.332 9.72656C72.7376 9.89974 73.0771 10.1458 73.3506 10.4648C73.6286 10.7839 73.8382 11.1667 73.9795 11.6133C74.1208 12.0553 74.1914 12.5475 74.1914 13.0898V13.9102H68.3125V12.5977H72.2568V12.4473C72.2568 12.1738 72.2067 11.93 72.1064 11.7158C72.0107 11.4971 71.8649 11.3239 71.6689 11.1963C71.473 11.0687 71.2223 11.0049 70.917 11.0049C70.6572 11.0049 70.4339 11.0618 70.2471 11.1758C70.0602 11.2897 69.9076 11.4492 69.7891 11.6543C69.6751 11.8594 69.5885 12.1009 69.5293 12.3789C69.4746 12.6523 69.4473 12.9531 69.4473 13.2812V13.5547C69.4473 13.8509 69.4883 14.1243 69.5703 14.375C69.6569 14.6257 69.7777 14.8421 69.9326 15.0244C70.0921 15.2067 70.2835 15.348 70.5068 15.4482C70.7347 15.5485 70.9922 15.5986 71.2793 15.5986C71.6348 15.5986 71.9652 15.5303 72.2705 15.3936C72.5804 15.2523 72.847 15.0404 73.0703 14.7578L74.0273 15.7969C73.8724 16.0202 73.6605 16.2344 73.3916 16.4395C73.1273 16.6445 72.8083 16.8132 72.4346 16.9453C72.0609 17.0729 71.6348 17.1367 71.1562 17.1367ZM78.9355 9.60352V10.998H74.6289V9.60352H78.9355ZM75.6953 7.77832H77.6641V14.7715C77.6641 14.9857 77.6914 15.1497 77.7461 15.2637C77.8053 15.3776 77.8919 15.4574 78.0059 15.5029C78.1198 15.5439 78.2633 15.5645 78.4365 15.5645C78.5596 15.5645 78.6689 15.5599 78.7646 15.5508C78.8649 15.5371 78.9492 15.5234 79.0176 15.5098L79.0244 16.959C78.8558 17.0137 78.6735 17.057 78.4775 17.0889C78.2816 17.1208 78.0651 17.1367 77.8281 17.1367C77.3952 17.1367 77.0169 17.0661 76.6934 16.9248C76.3743 16.779 76.1283 16.5465 75.9551 16.2275C75.7819 15.9085 75.6953 15.4893 75.6953 14.9697V7.77832ZM83.4609 17.1367C82.8867 17.1367 82.3717 17.0456 81.916 16.8633C81.4603 16.6764 81.0729 16.4189 80.7539 16.0908C80.4395 15.7627 80.1979 15.3822 80.0293 14.9492C79.8607 14.5117 79.7764 14.0469 79.7764 13.5547V13.2812C79.7764 12.7207 79.8561 12.208 80.0156 11.7432C80.1751 11.2783 80.403 10.875 80.6992 10.5332C81 10.1914 81.3646 9.92936 81.793 9.74707C82.2214 9.56022 82.7044 9.4668 83.2422 9.4668C83.7663 9.4668 84.2311 9.55339 84.6367 9.72656C85.0423 9.89974 85.3818 10.1458 85.6553 10.4648C85.9333 10.7839 86.1429 11.1667 86.2842 11.6133C86.4255 12.0553 86.4961 12.5475 86.4961 13.0898V13.9102H80.6172V12.5977H84.5615V12.4473C84.5615 12.1738 84.5114 11.93 84.4111 11.7158C84.3154 11.4971 84.1696 11.3239 83.9736 11.1963C83.7777 11.0687 83.527 11.0049 83.2217 11.0049C82.9619 11.0049 82.7386 11.0618 82.5518 11.1758C82.3649 11.2897 82.2122 11.4492 82.0938 11.6543C81.9798 11.8594 81.8932 12.1009 81.834 12.3789C81.7793 12.6523 81.752 12.9531 81.752 13.2812V13.5547C81.752 13.8509 81.793 14.1243 81.875 14.375C81.9616 14.6257 82.0824 14.8421 82.2373 15.0244C82.3968 15.2067 82.5882 15.348 82.8115 15.4482C83.0394 15.5485 83.2969 15.5986 83.584 15.5986C83.9395 15.5986 84.2699 15.5303 84.5752 15.3936C84.8851 15.2523 85.1517 15.0404 85.375 14.7578L86.332 15.7969C86.1771 16.0202 85.9652 16.2344 85.6963 16.4395C85.432 16.6445 85.113 16.8132 84.7393 16.9453C84.3656 17.0729 83.9395 17.1367 83.4609 17.1367ZM91.9854 15.3867V6.5H93.9678V17H92.1836L91.9854 15.3867ZM87.3096 13.3906V13.2471C87.3096 12.682 87.3734 12.1693 87.501 11.709C87.6286 11.2441 87.8154 10.8454 88.0615 10.5127C88.3076 10.18 88.6107 9.92253 88.9707 9.74023C89.3307 9.55794 89.7409 9.4668 90.2012 9.4668C90.6341 9.4668 91.0124 9.55794 91.3359 9.74023C91.6641 9.92253 91.9421 10.1823 92.1699 10.5195C92.4023 10.8522 92.5892 11.2464 92.7305 11.7021C92.8717 12.1533 92.9743 12.6478 93.0381 13.1855V13.5C92.9743 14.015 92.8717 14.4935 92.7305 14.9355C92.5892 15.3776 92.4023 15.765 92.1699 16.0977C91.9421 16.4258 91.6641 16.681 91.3359 16.8633C91.0078 17.0456 90.625 17.1367 90.1875 17.1367C89.7272 17.1367 89.3171 17.0433 88.957 16.8564C88.6016 16.6696 88.3008 16.4076 88.0547 16.0703C87.8132 15.7331 87.6286 15.3366 87.501 14.8809C87.3734 14.4251 87.3096 13.9284 87.3096 13.3906ZM89.2783 13.2471V13.3906C89.2783 13.696 89.3011 13.9808 89.3467 14.2451C89.3968 14.5094 89.4766 14.7441 89.5859 14.9492C89.6999 15.1497 89.8457 15.307 90.0234 15.4209C90.2057 15.5303 90.4268 15.585 90.6865 15.585C91.0238 15.585 91.3018 15.5098 91.5205 15.3594C91.7393 15.2044 91.9056 14.9925 92.0195 14.7236C92.138 14.4548 92.2064 14.1449 92.2246 13.7939V12.8984C92.2109 12.6113 92.1699 12.3538 92.1016 12.126C92.0378 11.8936 91.9421 11.6953 91.8145 11.5312C91.6914 11.3672 91.5365 11.2396 91.3496 11.1484C91.1673 11.0573 90.9508 11.0117 90.7002 11.0117C90.445 11.0117 90.2262 11.071 90.0439 11.1895C89.8617 11.3034 89.7135 11.4606 89.5996 11.6611C89.4902 11.8617 89.4082 12.0986 89.3535 12.3721C89.3034 12.641 89.2783 12.9326 89.2783 13.2471Z" fill="#067306"/>
</svg>
