<svg width="165" height="40" viewBox="0 0 165 40" fill="none" xmlns="http://www.w3.org/2000/svg">
<rect width="165" height="40" rx="8" fill="#3A379F"/>
<path d="M30 22V22.8C30 23.9201 30 24.4802 29.782 24.908C29.5903 25.2843 29.2843 25.5903 28.908 25.782C28.4802 26 27.9201 26 26.8 26H21.2C20.0799 26 19.5198 26 19.092 25.782C18.7157 25.5903 18.4097 25.2843 18.218 24.908C18 24.4802 18 23.9201 18 22.8V22M27.3333 18.6667L24 22M24 22L20.6667 18.6667M24 22V14" stroke="white" stroke-width="2" stroke-linecap="round" stroke-linejoin="round"/>
<path d="M48.3682 25H46.2012L46.2148 23.4004H48.3682C48.9059 23.4004 49.3594 23.2796 49.7285 23.0381C50.0977 22.792 50.3757 22.4342 50.5625 21.9648C50.7539 21.4954 50.8496 20.9281 50.8496 20.2627V19.7773C50.8496 19.2669 50.7949 18.818 50.6855 18.4307C50.5807 18.0433 50.4235 17.7174 50.2139 17.4531C50.0042 17.1888 49.7467 16.9906 49.4414 16.8584C49.1361 16.7217 48.7852 16.6533 48.3887 16.6533H46.1602V15.0469H48.3887C49.054 15.0469 49.6624 15.1608 50.2139 15.3887C50.7699 15.612 51.2507 15.9333 51.6562 16.3525C52.0618 16.7718 52.374 17.2731 52.5928 17.8564C52.8161 18.4352 52.9277 19.0801 52.9277 19.791V20.2627C52.9277 20.9691 52.8161 21.6139 52.5928 22.1973C52.374 22.7806 52.0618 23.2819 51.6562 23.7012C51.2552 24.1159 50.7744 24.4372 50.2139 24.665C49.6579 24.8883 49.0426 25 48.3682 25ZM47.3633 15.0469V25H45.3125V15.0469H47.3633ZM53.9805 21.377V21.2334C53.9805 20.6911 54.0579 20.1921 54.2129 19.7363C54.3678 19.276 54.5934 18.8773 54.8896 18.54C55.1859 18.2028 55.5505 17.9408 55.9834 17.7539C56.4163 17.5625 56.9131 17.4668 57.4736 17.4668C58.0342 17.4668 58.5332 17.5625 58.9707 17.7539C59.4082 17.9408 59.7751 18.2028 60.0713 18.54C60.3721 18.8773 60.5999 19.276 60.7549 19.7363C60.9098 20.1921 60.9873 20.6911 60.9873 21.2334V21.377C60.9873 21.9147 60.9098 22.4137 60.7549 22.874C60.5999 23.3298 60.3721 23.7285 60.0713 24.0703C59.7751 24.4076 59.4105 24.6696 58.9775 24.8564C58.5446 25.0433 58.0479 25.1367 57.4873 25.1367C56.9268 25.1367 56.4277 25.0433 55.9902 24.8564C55.5573 24.6696 55.1904 24.4076 54.8896 24.0703C54.5934 23.7285 54.3678 23.3298 54.2129 22.874C54.0579 22.4137 53.9805 21.9147 53.9805 21.377ZM55.9492 21.2334V21.377C55.9492 21.6868 55.9766 21.9762 56.0312 22.2451C56.0859 22.514 56.1725 22.751 56.291 22.9561C56.4141 23.1566 56.5736 23.3138 56.7695 23.4277C56.9655 23.5417 57.2048 23.5986 57.4873 23.5986C57.7607 23.5986 57.9954 23.5417 58.1914 23.4277C58.3874 23.3138 58.5446 23.1566 58.6631 22.9561C58.7816 22.751 58.8682 22.514 58.9229 22.2451C58.9821 21.9762 59.0117 21.6868 59.0117 21.377V21.2334C59.0117 20.9326 58.9821 20.6501 58.9229 20.3857C58.8682 20.1169 58.7793 19.8799 58.6562 19.6748C58.5378 19.4652 58.3805 19.3011 58.1846 19.1826C57.9886 19.0641 57.7516 19.0049 57.4736 19.0049C57.1956 19.0049 56.9587 19.0641 56.7627 19.1826C56.5713 19.3011 56.4141 19.4652 56.291 19.6748C56.1725 19.8799 56.0859 20.1169 56.0312 20.3857C55.9766 20.6501 55.9492 20.9326 55.9492 21.2334ZM64.3096 23.0859L65.8477 17.6035H67.0986L66.6953 19.7568L65.1572 25H64.1113L64.3096 23.0859ZM63.5303 17.6035L64.6309 23.0791L64.7334 25H63.5029L61.6299 17.6035H63.5303ZM68.5068 22.9902L69.5801 17.6035H71.4873L69.6143 25H68.3906L68.5068 22.9902ZM67.2695 17.6035L68.8008 23.0449L69.0127 25H67.96L66.4219 19.7637L66.0322 17.6035H67.2695ZM74.4062 19.1826V25H72.4375V17.6035H74.2832L74.4062 19.1826ZM74.1191 21.042H73.5859C73.5859 20.4951 73.6566 20.0029 73.7979 19.5654C73.9391 19.1234 74.1374 18.7474 74.3926 18.4375C74.6478 18.123 74.9508 17.8838 75.3018 17.7197C75.6572 17.5511 76.0537 17.4668 76.4912 17.4668C76.8376 17.4668 77.1543 17.5169 77.4414 17.6172C77.7285 17.7174 77.9746 17.877 78.1797 18.0957C78.3893 18.3145 78.5488 18.6038 78.6582 18.9639C78.7721 19.3239 78.8291 19.7637 78.8291 20.2832V25H76.8467V20.2764C76.8467 19.9482 76.8011 19.693 76.71 19.5107C76.6188 19.3285 76.4844 19.2008 76.3066 19.1279C76.1335 19.0505 75.9193 19.0117 75.6641 19.0117C75.3997 19.0117 75.1696 19.0641 74.9736 19.1689C74.7822 19.2738 74.6227 19.4196 74.4951 19.6064C74.3721 19.7887 74.2786 20.0029 74.2148 20.249C74.151 20.4951 74.1191 20.7594 74.1191 21.042ZM82.4043 14.5V25H80.4287V14.5H82.4043ZM83.7168 21.377V21.2334C83.7168 20.6911 83.7943 20.1921 83.9492 19.7363C84.1042 19.276 84.3298 18.8773 84.626 18.54C84.9222 18.2028 85.2868 17.9408 85.7197 17.7539C86.1527 17.5625 86.6494 17.4668 87.21 17.4668C87.7705 17.4668 88.2695 17.5625 88.707 17.7539C89.1445 17.9408 89.5114 18.2028 89.8076 18.54C90.1084 18.8773 90.3363 19.276 90.4912 19.7363C90.6462 20.1921 90.7236 20.6911 90.7236 21.2334V21.377C90.7236 21.9147 90.6462 22.4137 90.4912 22.874C90.3363 23.3298 90.1084 23.7285 89.8076 24.0703C89.5114 24.4076 89.1468 24.6696 88.7139 24.8564C88.2809 25.0433 87.7842 25.1367 87.2236 25.1367C86.6631 25.1367 86.1641 25.0433 85.7266 24.8564C85.2936 24.6696 84.9268 24.4076 84.626 24.0703C84.3298 23.7285 84.1042 23.3298 83.9492 22.874C83.7943 22.4137 83.7168 21.9147 83.7168 21.377ZM85.6855 21.2334V21.377C85.6855 21.6868 85.7129 21.9762 85.7676 22.2451C85.8223 22.514 85.9089 22.751 86.0273 22.9561C86.1504 23.1566 86.3099 23.3138 86.5059 23.4277C86.7018 23.5417 86.9411 23.5986 87.2236 23.5986C87.4971 23.5986 87.7318 23.5417 87.9277 23.4277C88.1237 23.3138 88.2809 23.1566 88.3994 22.9561C88.5179 22.751 88.6045 22.514 88.6592 22.2451C88.7184 21.9762 88.748 21.6868 88.748 21.377V21.2334C88.748 20.9326 88.7184 20.6501 88.6592 20.3857C88.6045 20.1169 88.5156 19.8799 88.3926 19.6748C88.2741 19.4652 88.1169 19.3011 87.9209 19.1826C87.7249 19.0641 87.488 19.0049 87.21 19.0049C86.932 19.0049 86.695 19.0641 86.499 19.1826C86.3076 19.3011 86.1504 19.4652 86.0273 19.6748C85.9089 19.8799 85.8223 20.1169 85.7676 20.3857C85.7129 20.6501 85.6855 20.9326 85.6855 21.2334ZM95.9258 23.332V20.0371C95.9258 19.8001 95.887 19.5973 95.8096 19.4287C95.7321 19.2555 95.6113 19.1211 95.4473 19.0254C95.2878 18.9297 95.0804 18.8818 94.8252 18.8818C94.6064 18.8818 94.4173 18.9206 94.2578 18.998C94.0983 19.071 93.9753 19.1781 93.8887 19.3193C93.8021 19.4561 93.7588 19.6178 93.7588 19.8047H91.79C91.79 19.4902 91.863 19.1917 92.0088 18.9092C92.1546 18.6266 92.3665 18.3783 92.6445 18.1641C92.9225 17.9453 93.2529 17.7744 93.6357 17.6514C94.0231 17.5283 94.4561 17.4668 94.9346 17.4668C95.5088 17.4668 96.0192 17.5625 96.4658 17.7539C96.9124 17.9453 97.2633 18.2324 97.5186 18.6152C97.7783 18.998 97.9082 19.4766 97.9082 20.0508V23.2158C97.9082 23.6214 97.9333 23.9541 97.9834 24.2139C98.0335 24.4691 98.1064 24.6924 98.2021 24.8838V25H96.2129C96.1172 24.7995 96.0443 24.5488 95.9941 24.248C95.9486 23.9427 95.9258 23.6374 95.9258 23.332ZM96.1855 20.4951L96.1992 21.6094H95.0986C94.8389 21.6094 94.6133 21.639 94.4219 21.6982C94.2305 21.7575 94.0732 21.8418 93.9502 21.9512C93.8271 22.056 93.736 22.179 93.6768 22.3203C93.6221 22.4616 93.5947 22.6165 93.5947 22.7852C93.5947 22.9538 93.6335 23.1064 93.7109 23.2432C93.7884 23.3753 93.9001 23.4801 94.0459 23.5576C94.1917 23.6305 94.3626 23.667 94.5586 23.667C94.8548 23.667 95.1123 23.6077 95.3311 23.4893C95.5498 23.3708 95.7184 23.2249 95.8369 23.0518C95.96 22.8786 96.0238 22.7145 96.0283 22.5596L96.5479 23.3936C96.4749 23.5804 96.3747 23.7741 96.2471 23.9746C96.124 24.1751 95.9668 24.3643 95.7754 24.542C95.584 24.7152 95.3538 24.8587 95.085 24.9727C94.8161 25.082 94.4971 25.1367 94.1279 25.1367C93.6585 25.1367 93.2324 25.0433 92.8496 24.8564C92.4714 24.665 92.1706 24.403 91.9473 24.0703C91.7285 23.7331 91.6191 23.3503 91.6191 22.9219C91.6191 22.5345 91.6921 22.1904 91.8379 21.8896C91.9837 21.5889 92.1979 21.3359 92.4805 21.1309C92.7676 20.9212 93.1253 20.764 93.5537 20.6592C93.9821 20.5498 94.4788 20.4951 95.0439 20.4951H96.1855ZM103.794 23.3867V14.5H105.776V25H103.992L103.794 23.3867ZM99.1182 21.3906V21.2471C99.1182 20.682 99.182 20.1693 99.3096 19.709C99.4372 19.2441 99.624 18.8454 99.8701 18.5127C100.116 18.18 100.419 17.9225 100.779 17.7402C101.139 17.5579 101.549 17.4668 102.01 17.4668C102.443 17.4668 102.821 17.5579 103.145 17.7402C103.473 17.9225 103.751 18.1823 103.979 18.5195C104.211 18.8522 104.398 19.2464 104.539 19.7021C104.68 20.1533 104.783 20.6478 104.847 21.1855V21.5C104.783 22.015 104.68 22.4935 104.539 22.9355C104.398 23.3776 104.211 23.765 103.979 24.0977C103.751 24.4258 103.473 24.681 103.145 24.8633C102.816 25.0456 102.434 25.1367 101.996 25.1367C101.536 25.1367 101.126 25.0433 100.766 24.8564C100.41 24.6696 100.109 24.4076 99.8633 24.0703C99.6217 23.7331 99.4372 23.3366 99.3096 22.8809C99.182 22.4251 99.1182 21.9284 99.1182 21.3906ZM101.087 21.2471V21.3906C101.087 21.696 101.11 21.9808 101.155 22.2451C101.205 22.5094 101.285 22.7441 101.395 22.9492C101.508 23.1497 101.654 23.307 101.832 23.4209C102.014 23.5303 102.235 23.585 102.495 23.585C102.832 23.585 103.11 23.5098 103.329 23.3594C103.548 23.2044 103.714 22.9925 103.828 22.7236C103.947 22.4548 104.015 22.1449 104.033 21.7939V20.8984C104.02 20.6113 103.979 20.3538 103.91 20.126C103.846 19.8936 103.751 19.6953 103.623 19.5312C103.5 19.3672 103.345 19.2396 103.158 19.1484C102.976 19.0573 102.759 19.0117 102.509 19.0117C102.254 19.0117 102.035 19.071 101.853 19.1895C101.67 19.3034 101.522 19.4606 101.408 19.6611C101.299 19.8617 101.217 20.0986 101.162 20.3721C101.112 20.641 101.087 20.9326 101.087 21.2471ZM112.77 19.2168V25H110.801V17.6035H112.653L112.77 19.2168ZM114.998 17.5557L114.964 19.3809C114.868 19.3672 114.752 19.3558 114.615 19.3467C114.483 19.333 114.362 19.3262 114.253 19.3262C113.975 19.3262 113.733 19.3626 113.528 19.4355C113.328 19.5039 113.159 19.6064 113.022 19.7432C112.89 19.8799 112.79 20.0462 112.722 20.2422C112.658 20.4382 112.621 20.6615 112.612 20.9121L112.216 20.7891C112.216 20.3105 112.264 19.8708 112.359 19.4697C112.455 19.0641 112.594 18.7109 112.776 18.4102C112.963 18.1094 113.191 17.877 113.46 17.7129C113.729 17.5488 114.036 17.4668 114.383 17.4668C114.492 17.4668 114.604 17.4759 114.718 17.4941C114.832 17.5078 114.925 17.5283 114.998 17.5557ZM119.195 25.1367C118.621 25.1367 118.106 25.0456 117.65 24.8633C117.195 24.6764 116.807 24.4189 116.488 24.0908C116.174 23.7627 115.932 23.3822 115.764 22.9492C115.595 22.5117 115.511 22.0469 115.511 21.5547V21.2812C115.511 20.7207 115.59 20.208 115.75 19.7432C115.91 19.2783 116.137 18.875 116.434 18.5332C116.734 18.1914 117.099 17.9294 117.527 17.7471C117.956 17.5602 118.439 17.4668 118.977 17.4668C119.501 17.4668 119.965 17.5534 120.371 17.7266C120.777 17.8997 121.116 18.1458 121.39 18.4648C121.668 18.7839 121.877 19.1667 122.019 19.6133C122.16 20.0553 122.23 20.5475 122.23 21.0898V21.9102H116.352V20.5977H120.296V20.4473C120.296 20.1738 120.246 19.93 120.146 19.7158C120.05 19.4971 119.904 19.3239 119.708 19.1963C119.512 19.0687 119.261 19.0049 118.956 19.0049C118.696 19.0049 118.473 19.0618 118.286 19.1758C118.099 19.2897 117.947 19.4492 117.828 19.6543C117.714 19.8594 117.628 20.1009 117.568 20.3789C117.514 20.6523 117.486 20.9531 117.486 21.2812V21.5547C117.486 21.8509 117.527 22.1243 117.609 22.375C117.696 22.6257 117.817 22.8421 117.972 23.0244C118.131 23.2067 118.323 23.348 118.546 23.4482C118.774 23.5485 119.031 23.5986 119.318 23.5986C119.674 23.5986 120.004 23.5303 120.31 23.3936C120.619 23.2523 120.886 23.0404 121.109 22.7578L122.066 23.7969C121.911 24.0202 121.7 24.2344 121.431 24.4395C121.166 24.6445 120.847 24.8132 120.474 24.9453C120.1 25.0729 119.674 25.1367 119.195 25.1367ZM125.32 19.0254V27.8438H123.352V17.6035H125.177L125.32 19.0254ZM130.003 21.2197V21.3633C130.003 21.901 129.939 22.4001 129.812 22.8604C129.688 23.3206 129.506 23.7217 129.265 24.0635C129.023 24.4007 128.722 24.665 128.362 24.8564C128.007 25.0433 127.597 25.1367 127.132 25.1367C126.681 25.1367 126.289 25.0456 125.956 24.8633C125.623 24.681 125.343 24.4258 125.115 24.0977C124.892 23.765 124.712 23.3799 124.575 22.9424C124.438 22.5049 124.334 22.0355 124.261 21.5342V21.1582C124.334 20.6204 124.438 20.1283 124.575 19.6816C124.712 19.2305 124.892 18.8408 125.115 18.5127C125.343 18.18 125.621 17.9225 125.949 17.7402C126.282 17.5579 126.672 17.4668 127.118 17.4668C127.588 17.4668 128 17.5557 128.355 17.7334C128.715 17.9111 129.016 18.1663 129.258 18.499C129.504 18.8317 129.688 19.2282 129.812 19.6885C129.939 20.1488 130.003 20.6592 130.003 21.2197ZM128.027 21.3633V21.2197C128.027 20.9053 128 20.6159 127.945 20.3516C127.895 20.0827 127.813 19.848 127.699 19.6475C127.59 19.4469 127.444 19.292 127.262 19.1826C127.084 19.0687 126.868 19.0117 126.612 19.0117C126.343 19.0117 126.113 19.055 125.922 19.1416C125.735 19.2282 125.582 19.3535 125.464 19.5176C125.345 19.6816 125.257 19.8776 125.197 20.1055C125.138 20.3333 125.102 20.5908 125.088 20.8779V21.8281C125.111 22.1654 125.174 22.4684 125.279 22.7373C125.384 23.0016 125.546 23.2113 125.765 23.3662C125.983 23.5212 126.271 23.5986 126.626 23.5986C126.886 23.5986 127.104 23.5417 127.282 23.4277C127.46 23.3092 127.604 23.1475 127.713 22.9424C127.827 22.7373 127.907 22.5003 127.952 22.2314C128.002 21.9626 128.027 21.6732 128.027 21.3633ZM130.912 21.377V21.2334C130.912 20.6911 130.99 20.1921 131.145 19.7363C131.299 19.276 131.525 18.8773 131.821 18.54C132.118 18.2028 132.482 17.9408 132.915 17.7539C133.348 17.5625 133.845 17.4668 134.405 17.4668C134.966 17.4668 135.465 17.5625 135.902 17.7539C136.34 17.9408 136.707 18.2028 137.003 18.54C137.304 18.8773 137.532 19.276 137.687 19.7363C137.841 20.1921 137.919 20.6911 137.919 21.2334V21.377C137.919 21.9147 137.841 22.4137 137.687 22.874C137.532 23.3298 137.304 23.7285 137.003 24.0703C136.707 24.4076 136.342 24.6696 135.909 24.8564C135.476 25.0433 134.979 25.1367 134.419 25.1367C133.858 25.1367 133.359 25.0433 132.922 24.8564C132.489 24.6696 132.122 24.4076 131.821 24.0703C131.525 23.7285 131.299 23.3298 131.145 22.874C130.99 22.4137 130.912 21.9147 130.912 21.377ZM132.881 21.2334V21.377C132.881 21.6868 132.908 21.9762 132.963 22.2451C133.018 22.514 133.104 22.751 133.223 22.9561C133.346 23.1566 133.505 23.3138 133.701 23.4277C133.897 23.5417 134.136 23.5986 134.419 23.5986C134.692 23.5986 134.927 23.5417 135.123 23.4277C135.319 23.3138 135.476 23.1566 135.595 22.9561C135.713 22.751 135.8 22.514 135.854 22.2451C135.914 21.9762 135.943 21.6868 135.943 21.377V21.2334C135.943 20.9326 135.914 20.6501 135.854 20.3857C135.8 20.1169 135.711 19.8799 135.588 19.6748C135.469 19.4652 135.312 19.3011 135.116 19.1826C134.92 19.0641 134.683 19.0049 134.405 19.0049C134.127 19.0049 133.89 19.0641 133.694 19.1826C133.503 19.3011 133.346 19.4652 133.223 19.6748C133.104 19.8799 133.018 20.1169 132.963 20.3857C132.908 20.6501 132.881 20.9326 132.881 21.2334ZM141.098 19.2168V25H139.129V17.6035H140.981L141.098 19.2168ZM143.326 17.5557L143.292 19.3809C143.196 19.3672 143.08 19.3558 142.943 19.3467C142.811 19.333 142.69 19.3262 142.581 19.3262C142.303 19.3262 142.062 19.3626 141.856 19.4355C141.656 19.5039 141.487 19.6064 141.351 19.7432C141.218 19.8799 141.118 20.0462 141.05 20.2422C140.986 20.4382 140.95 20.6615 140.94 20.9121L140.544 20.7891C140.544 20.3105 140.592 19.8708 140.688 19.4697C140.783 19.0641 140.922 18.7109 141.104 18.4102C141.291 18.1094 141.519 17.877 141.788 17.7129C142.057 17.5488 142.365 17.4668 142.711 17.4668C142.82 17.4668 142.932 17.4759 143.046 17.4941C143.16 17.5078 143.253 17.5283 143.326 17.5557ZM148.221 17.6035V18.998H143.914V17.6035H148.221ZM144.98 15.7783H146.949V22.7715C146.949 22.9857 146.977 23.1497 147.031 23.2637C147.09 23.3776 147.177 23.4574 147.291 23.5029C147.405 23.5439 147.549 23.5645 147.722 23.5645C147.845 23.5645 147.954 23.5599 148.05 23.5508C148.15 23.5371 148.234 23.5234 148.303 23.5098L148.31 24.959C148.141 25.0137 147.959 25.057 147.763 25.0889C147.567 25.1208 147.35 25.1367 147.113 25.1367C146.68 25.1367 146.302 25.0661 145.979 24.9248C145.66 24.779 145.413 24.5465 145.24 24.2275C145.067 23.9085 144.98 23.4893 144.98 22.9697V15.7783Z" fill="#FCFCFC"/>
</svg>
