<svg width="105" height="41" viewBox="0 0 105 41" fill="none" xmlns="http://www.w3.org/2000/svg">
<rect x="0.988281" y="0.825684" width="104" height="40" rx="20" fill="#F5F5FA"/>
<g clip-path="url(#clip0_1112_30479)">
<path d="M34.3203 15.4923H31.5203C30.4002 15.4923 29.8402 15.4923 29.4123 15.7103C29.036 15.9021 28.73 16.208 28.5383 16.5844C28.3203 17.0122 28.3203 17.5722 28.3203 18.6923V24.2923C28.3203 25.4124 28.3203 25.9725 28.5383 26.4003C28.73 26.7766 29.036 27.0826 29.4123 27.2744C29.8402 27.4923 30.4002 27.4923 31.5203 27.4923H37.1203C38.2404 27.4923 38.8005 27.4923 39.2283 27.2744C39.6046 27.0826 39.9106 26.7766 40.1023 26.4003C40.3203 25.9725 40.3203 25.4124 40.3203 24.2923V21.4923M32.3203 23.4923H33.4367C33.7628 23.4923 33.9258 23.4923 34.0793 23.4555C34.2153 23.4228 34.3454 23.369 34.4647 23.2959C34.5992 23.2134 34.7145 23.0981 34.9452 22.8675L41.3203 16.4923C41.8726 15.9401 41.8726 15.0446 41.3203 14.4923C40.768 13.9401 39.8726 13.9401 39.3203 14.4923L32.9451 20.8675C32.7145 21.0981 32.5992 21.2134 32.5168 21.348C32.4437 21.4673 32.3898 21.5973 32.3571 21.7334C32.3203 21.8868 32.3203 22.0499 32.3203 22.376V23.4923Z" stroke="#61308C" stroke-width="2" stroke-linecap="round" stroke-linejoin="round"/>
</g>
<path d="M54.4074 17.6357V20.0857H57.6974V21.6397H54.4074V24.2297H58.1174V25.8257H52.4474V16.0397H58.1174V17.6357H54.4074ZM59.6446 21.9197C59.6446 21.1357 59.7986 20.4404 60.1066 19.8337C60.424 19.227 60.8533 18.7603 61.3946 18.4337C61.936 18.107 62.538 17.9437 63.2006 17.9437C63.7046 17.9437 64.1853 18.0557 64.6426 18.2797C65.1 18.4943 65.464 18.7837 65.7346 19.1477V15.4657H67.7226V25.8257H65.7346V24.6777C65.492 25.0604 65.1513 25.3684 64.7126 25.6017C64.274 25.835 63.7653 25.9517 63.1866 25.9517C62.5333 25.9517 61.936 25.7837 61.3946 25.4477C60.8533 25.1117 60.424 24.6404 60.1066 24.0337C59.7986 23.4177 59.6446 22.713 59.6446 21.9197ZM65.7486 21.9477C65.7486 21.4717 65.6553 21.0657 65.4686 20.7297C65.282 20.3843 65.03 20.123 64.7126 19.9457C64.3953 19.759 64.0546 19.6657 63.6906 19.6657C63.3266 19.6657 62.9906 19.7543 62.6826 19.9317C62.3746 20.109 62.1226 20.3704 61.9266 20.7157C61.74 21.0517 61.6466 21.453 61.6466 21.9197C61.6466 22.3864 61.74 22.797 61.9266 23.1517C62.1226 23.497 62.3746 23.763 62.6826 23.9497C63 24.1364 63.336 24.2297 63.6906 24.2297C64.0546 24.2297 64.3953 24.141 64.7126 23.9637C65.03 23.777 65.282 23.5157 65.4686 23.1797C65.6553 22.8344 65.7486 22.4237 65.7486 21.9477ZM70.8809 17.1457C70.5356 17.1457 70.2462 17.0384 70.0129 16.8237C69.7889 16.5997 69.6769 16.3243 69.6769 15.9977C69.6769 15.671 69.7889 15.4003 70.0129 15.1857C70.2462 14.9617 70.5356 14.8497 70.8809 14.8497C71.2262 14.8497 71.5109 14.9617 71.7349 15.1857C71.9682 15.4003 72.0849 15.671 72.0849 15.9977C72.0849 16.3243 71.9682 16.5997 71.7349 16.8237C71.5109 17.0384 71.2262 17.1457 70.8809 17.1457ZM71.8469 18.0697V25.8257H69.8869V18.0697H71.8469ZM76.3154 19.6797V23.4317C76.3154 23.693 76.376 23.8844 76.4974 24.0057C76.628 24.1177 76.8427 24.1737 77.1414 24.1737H78.0514V25.8257H76.8194C75.1674 25.8257 74.3414 25.023 74.3414 23.4177V19.6797H73.4174V18.0697H74.3414V16.1517H76.3154V18.0697H78.0514V19.6797H76.3154Z" fill="#61308C"/>
<defs>
<clipPath id="clip0_1112_30479">
<rect width="16" height="16" fill="white" transform="translate(26.9883 12.8257)"/>
</clipPath>
</defs>
</svg>
