<svg width="105" height="40" viewBox="0 0 105 40" fill="none" xmlns="http://www.w3.org/2000/svg">
<rect width="105" height="40" rx="8" fill="#ECEFF1"/>
<path d="M30 22V22.8C30 23.9201 30 24.4802 29.782 24.908C29.5903 25.2843 29.2843 25.5903 28.908 25.782C28.4802 26 27.9201 26 26.8 26H21.2C20.0799 26 19.5198 26 19.092 25.782C18.7157 25.5903 18.4097 25.2843 18.218 24.908C18 24.4802 18 23.9201 18 22.8V22M27.3333 18.6667L24 22M24 22L20.6667 18.6667M24 22V14" stroke="#61308C" stroke-width="2" stroke-linecap="round" stroke-linejoin="round"/>
<path d="M55.5674 23.4004V25H50.2695V23.4004H55.5674ZM50.9395 15.0469V25H48.8887V15.0469H50.9395ZM54.877 19.1006V20.6592H50.2695V19.1006H54.877ZM55.5605 15.0469V16.6533H50.2695V15.0469H55.5605ZM58.2266 17.6035L59.4502 19.8525L60.708 17.6035H62.8066L60.7148 21.2197L62.9023 25H60.7969L59.4639 22.6211L58.1309 25H56.0254L58.2129 21.2197L56.1211 17.6035H58.2266ZM65.7324 19.0254V27.8438H63.7637V17.6035H65.5889L65.7324 19.0254ZM70.415 21.2197V21.3633C70.415 21.901 70.3512 22.4001 70.2236 22.8604C70.1006 23.3206 69.9183 23.7217 69.6768 24.0635C69.4352 24.4007 69.1344 24.665 68.7744 24.8564C68.4189 25.0433 68.0088 25.1367 67.5439 25.1367C67.0928 25.1367 66.7008 25.0456 66.3682 24.8633C66.0355 24.681 65.7552 24.4258 65.5273 24.0977C65.304 23.765 65.124 23.3799 64.9873 22.9424C64.8506 22.5049 64.7458 22.0355 64.6729 21.5342V21.1582C64.7458 20.6204 64.8506 20.1283 64.9873 19.6816C65.124 19.2305 65.304 18.8408 65.5273 18.5127C65.7552 18.18 66.0332 17.9225 66.3613 17.7402C66.694 17.5579 67.0837 17.4668 67.5303 17.4668C67.9997 17.4668 68.4121 17.5557 68.7676 17.7334C69.1276 17.9111 69.4284 18.1663 69.6699 18.499C69.916 18.8317 70.1006 19.2282 70.2236 19.6885C70.3512 20.1488 70.415 20.6592 70.415 21.2197ZM68.4395 21.3633V21.2197C68.4395 20.9053 68.4121 20.6159 68.3574 20.3516C68.3073 20.0827 68.2253 19.848 68.1113 19.6475C68.002 19.4469 67.8561 19.292 67.6738 19.1826C67.4961 19.0687 67.2796 19.0117 67.0244 19.0117C66.7555 19.0117 66.5254 19.055 66.334 19.1416C66.1471 19.2282 65.9945 19.3535 65.876 19.5176C65.7575 19.6816 65.6686 19.8776 65.6094 20.1055C65.5501 20.3333 65.5137 20.5908 65.5 20.8779V21.8281C65.5228 22.1654 65.5866 22.4684 65.6914 22.7373C65.7962 23.0016 65.958 23.2113 66.1768 23.3662C66.3955 23.5212 66.6826 23.5986 67.0381 23.5986C67.2979 23.5986 67.5166 23.5417 67.6943 23.4277C67.8721 23.3092 68.0156 23.1475 68.125 22.9424C68.2389 22.7373 68.3187 22.5003 68.3643 22.2314C68.4144 21.9626 68.4395 21.6732 68.4395 21.3633ZM71.3242 21.377V21.2334C71.3242 20.6911 71.4017 20.1921 71.5566 19.7363C71.7116 19.276 71.9372 18.8773 72.2334 18.54C72.5296 18.2028 72.8942 17.9408 73.3271 17.7539C73.7601 17.5625 74.2568 17.4668 74.8174 17.4668C75.3779 17.4668 75.877 17.5625 76.3145 17.7539C76.752 17.9408 77.1188 18.2028 77.415 18.54C77.7158 18.8773 77.9437 19.276 78.0986 19.7363C78.2536 20.1921 78.3311 20.6911 78.3311 21.2334V21.377C78.3311 21.9147 78.2536 22.4137 78.0986 22.874C77.9437 23.3298 77.7158 23.7285 77.415 24.0703C77.1188 24.4076 76.7542 24.6696 76.3213 24.8564C75.8883 25.0433 75.3916 25.1367 74.8311 25.1367C74.2705 25.1367 73.7715 25.0433 73.334 24.8564C72.901 24.6696 72.5342 24.4076 72.2334 24.0703C71.9372 23.7285 71.7116 23.3298 71.5566 22.874C71.4017 22.4137 71.3242 21.9147 71.3242 21.377ZM73.293 21.2334V21.377C73.293 21.6868 73.3203 21.9762 73.375 22.2451C73.4297 22.514 73.5163 22.751 73.6348 22.9561C73.7578 23.1566 73.9173 23.3138 74.1133 23.4277C74.3092 23.5417 74.5485 23.5986 74.8311 23.5986C75.1045 23.5986 75.3392 23.5417 75.5352 23.4277C75.7311 23.3138 75.8883 23.1566 76.0068 22.9561C76.1253 22.751 76.2119 22.514 76.2666 22.2451C76.3258 21.9762 76.3555 21.6868 76.3555 21.377V21.2334C76.3555 20.9326 76.3258 20.6501 76.2666 20.3857C76.2119 20.1169 76.123 19.8799 76 19.6748C75.8815 19.4652 75.7243 19.3011 75.5283 19.1826C75.3324 19.0641 75.0954 19.0049 74.8174 19.0049C74.5394 19.0049 74.3024 19.0641 74.1064 19.1826C73.915 19.3011 73.7578 19.4652 73.6348 19.6748C73.5163 19.8799 73.4297 20.1169 73.375 20.3857C73.3203 20.6501 73.293 20.9326 73.293 21.2334ZM81.5098 19.2168V25H79.541V17.6035H81.3936L81.5098 19.2168ZM83.7383 17.5557L83.7041 19.3809C83.6084 19.3672 83.4922 19.3558 83.3555 19.3467C83.2233 19.333 83.1025 19.3262 82.9932 19.3262C82.7152 19.3262 82.4736 19.3626 82.2686 19.4355C82.068 19.5039 81.8994 19.6064 81.7627 19.7432C81.6305 19.8799 81.5303 20.0462 81.4619 20.2422C81.3981 20.4382 81.3617 20.6615 81.3525 20.9121L80.9561 20.7891C80.9561 20.3105 81.0039 19.8708 81.0996 19.4697C81.1953 19.0641 81.3343 18.7109 81.5166 18.4102C81.7035 18.1094 81.9313 17.877 82.2002 17.7129C82.4691 17.5488 82.7767 17.4668 83.123 17.4668C83.2324 17.4668 83.3441 17.4759 83.458 17.4941C83.5719 17.5078 83.6654 17.5283 83.7383 17.5557ZM88.6328 17.6035V18.998H84.3262V17.6035H88.6328ZM85.3926 15.7783H87.3613V22.7715C87.3613 22.9857 87.3887 23.1497 87.4434 23.2637C87.5026 23.3776 87.5892 23.4574 87.7031 23.5029C87.8171 23.5439 87.9606 23.5645 88.1338 23.5645C88.2568 23.5645 88.3662 23.5599 88.4619 23.5508C88.5622 23.5371 88.6465 23.5234 88.7148 23.5098L88.7217 24.959C88.5531 25.0137 88.3708 25.057 88.1748 25.0889C87.9788 25.1208 87.7624 25.1367 87.5254 25.1367C87.0924 25.1367 86.7142 25.0661 86.3906 24.9248C86.0716 24.779 85.8255 24.5465 85.6523 24.2275C85.4792 23.9085 85.3926 23.4893 85.3926 22.9697V15.7783Z" fill="#61308C"/>
</svg>
