<svg width="24" height="24" viewBox="0 0 24 24" fill="none" xmlns="http://www.w3.org/2000/svg">
<g clip-path="url(#clip0_286_14426)">
<path d="M11.25 6.00017H8.1C6.83988 6.00017 6.20982 6.00017 5.72852 6.24541C5.30516 6.46112 4.96095 6.80533 4.74524 7.22869C4.5 7.70999 4.5 8.34005 4.5 9.60017V15.9002C4.5 17.1603 4.5 17.7903 4.74524 18.2716C4.96095 18.695 5.30516 19.0392 5.72852 19.2549C6.20982 19.5002 6.83988 19.5002 8.1 19.5002H14.4C15.6601 19.5002 16.2902 19.5002 16.7715 19.2549C17.1948 19.0392 17.539 18.695 17.7548 18.2716C18 17.7903 18 17.1603 18 15.9002V12.7502M8.99998 15.0002H10.2559C10.6228 15.0002 10.8062 15.0002 10.9788 14.9587C11.1319 14.922 11.2782 14.8614 11.4124 14.7791C11.5638 14.6864 11.6935 14.5567 11.9529 14.2972L19.125 7.12517C19.7463 6.50385 19.7463 5.49649 19.125 4.87517C18.5037 4.25385 17.4963 4.25385 16.875 4.87517L9.70293 12.0472C9.4435 12.3067 9.31378 12.4364 9.22102 12.5877C9.13878 12.722 9.07817 12.8683 9.04143 13.0213C8.99998 13.194 8.99998 13.3774 8.99998 13.7443V15.0002Z" stroke="white" stroke-width="2" stroke-linecap="round" stroke-linejoin="round"/>
</g>
<defs>
<clipPath id="clip0_286_14426">
<rect width="18" height="18" fill="white" transform="translate(3 3)"/>
</clipPath>
</defs>
</svg>
