<svg width="13" height="14" viewBox="0 0 13 14" fill="none" xmlns="http://www.w3.org/2000/svg">
<path d="M10.6654 5.54175V3.96675C10.6654 2.98666 10.6654 2.49661 10.4746 2.12226C10.3068 1.79298 10.0391 1.52527 9.70985 1.35749C9.3355 1.16675 8.84546 1.16675 7.86536 1.16675H4.13203C3.15194 1.16675 2.66189 1.16675 2.28755 1.35749C1.95826 1.52527 1.69055 1.79298 1.52277 2.12226C1.33203 2.49661 1.33203 2.98666 1.33203 3.96675V10.0334C1.33203 11.0135 1.33203 11.5036 1.52277 11.8779C1.69055 12.2072 1.95826 12.4749 2.28755 12.6427C2.66189 12.8334 3.15194 12.8334 4.13203 12.8334H7.16536M7.16536 6.41675H3.66536M4.83203 8.75008H3.66536M8.33203 4.08341H3.66536M8.6237 8.75139C8.72648 8.45921 8.92935 8.21283 9.19638 8.0559C9.4634 7.89897 9.77735 7.8416 10.0826 7.89396C10.3879 7.94632 10.6648 8.10503 10.8642 8.34198C11.0637 8.57893 11.1729 8.87883 11.1724 9.18856C11.1724 10.0629 9.8609 10.5001 9.8609 10.5001M9.87781 12.2501H9.88364" stroke="white" stroke-width="2" stroke-linecap="round" stroke-linejoin="round"/>
</svg>
