<svg width="109" height="40" viewBox="0 0 109 40" fill="none" xmlns="http://www.w3.org/2000/svg">
<rect width="109" height="40" rx="8" fill="#F5F5F5"/>
<path d="M22 20H34M19 14H37M25 26H31" stroke="#61308C" stroke-width="2" stroke-linecap="round" stroke-linejoin="round"/>
<path d="M59.1172 14.125V25.5H57.1562V14.125H59.1172ZM63.7578 19.1016V20.6562H58.6172V19.1016H63.7578ZM64.4062 14.125V15.6875H58.6172V14.125H64.4062ZM67.7969 17.0469V25.5H65.9062V17.0469H67.7969ZM65.7812 14.8281C65.7812 14.5417 65.875 14.3047 66.0625 14.1172C66.2552 13.9245 66.5208 13.8281 66.8594 13.8281C67.1927 13.8281 67.4557 13.9245 67.6484 14.1172C67.8411 14.3047 67.9375 14.5417 67.9375 14.8281C67.9375 15.1094 67.8411 15.3438 67.6484 15.5312C67.4557 15.7188 67.1927 15.8125 66.8594 15.8125C66.5208 15.8125 66.2552 15.7188 66.0625 15.5312C65.875 15.3438 65.7812 15.1094 65.7812 14.8281ZM71.875 13.5V25.5H69.9844V13.5H71.875ZM77.8125 17.0469V18.4219H73.0469V17.0469H77.8125ZM74.4219 14.9766H76.3047V23.1641C76.3047 23.4245 76.3411 23.625 76.4141 23.7656C76.4922 23.901 76.599 23.9922 76.7344 24.0391C76.8698 24.0859 77.0286 24.1094 77.2109 24.1094C77.3411 24.1094 77.4661 24.1016 77.5859 24.0859C77.7057 24.0703 77.8021 24.0547 77.875 24.0391L77.8828 25.4766C77.7266 25.5234 77.5443 25.5651 77.3359 25.6016C77.1328 25.638 76.8984 25.6562 76.6328 25.6562C76.2005 25.6562 75.8177 25.5807 75.4844 25.4297C75.151 25.2734 74.8906 25.0208 74.7031 24.6719C74.5156 24.3229 74.4219 23.8594 74.4219 23.2812V14.9766ZM82.9922 25.6562C82.3672 25.6562 81.8021 25.5547 81.2969 25.3516C80.7969 25.1432 80.3698 24.8542 80.0156 24.4844C79.6667 24.1146 79.3984 23.6797 79.2109 23.1797C79.0234 22.6797 78.9297 22.1406 78.9297 21.5625V21.25C78.9297 20.5885 79.026 19.9896 79.2188 19.4531C79.4115 18.9167 79.6797 18.4583 80.0234 18.0781C80.3672 17.6927 80.7734 17.3984 81.2422 17.1953C81.7109 16.9922 82.2188 16.8906 82.7656 16.8906C83.3698 16.8906 83.8984 16.9922 84.3516 17.1953C84.8047 17.3984 85.1797 17.6849 85.4766 18.0547C85.7786 18.4193 86.0026 18.8542 86.1484 19.3594C86.2995 19.8646 86.375 20.4219 86.375 21.0312V21.8359H79.8438V20.4844H84.5156V20.3359C84.5052 19.9974 84.4375 19.6797 84.3125 19.3828C84.1927 19.0859 84.0078 18.8464 83.7578 18.6641C83.5078 18.4818 83.1745 18.3906 82.7578 18.3906C82.4453 18.3906 82.1667 18.4583 81.9219 18.5938C81.6823 18.724 81.4818 18.9141 81.3203 19.1641C81.1589 19.4141 81.0339 19.7161 80.9453 20.0703C80.862 20.4193 80.8203 20.8125 80.8203 21.25V21.5625C80.8203 21.9323 80.8698 22.276 80.9688 22.5938C81.0729 22.9062 81.224 23.1797 81.4219 23.4141C81.6198 23.6484 81.8594 23.8333 82.1406 23.9688C82.4219 24.099 82.7422 24.1641 83.1016 24.1641C83.5547 24.1641 83.9583 24.0729 84.3125 23.8906C84.6667 23.7083 84.974 23.4505 85.2344 23.1172L86.2266 24.0781C86.0443 24.3438 85.8073 24.599 85.5156 24.8438C85.224 25.0833 84.8672 25.2786 84.4453 25.4297C84.0286 25.5807 83.5443 25.6562 82.9922 25.6562ZM89.7344 18.6562V25.5H87.8516V17.0469H89.6484L89.7344 18.6562ZM92.3203 16.9922L92.3047 18.7422C92.1901 18.7214 92.0651 18.7057 91.9297 18.6953C91.7995 18.6849 91.6693 18.6797 91.5391 18.6797C91.2161 18.6797 90.9323 18.7266 90.6875 18.8203C90.4427 18.9089 90.237 19.0391 90.0703 19.2109C89.9089 19.3776 89.7839 19.5807 89.6953 19.8203C89.6068 20.0599 89.5547 20.3281 89.5391 20.625L89.1094 20.6562C89.1094 20.125 89.1615 19.6328 89.2656 19.1797C89.3698 18.7266 89.526 18.3281 89.7344 17.9844C89.9479 17.6406 90.2135 17.3724 90.5312 17.1797C90.8542 16.987 91.2266 16.8906 91.6484 16.8906C91.763 16.8906 91.8854 16.901 92.0156 16.9219C92.151 16.9427 92.2526 16.9661 92.3203 16.9922Z" fill="#61308C"/>
</svg>
