<svg width="121" height="24" viewBox="0 0 121 24" fill="none" xmlns="http://www.w3.org/2000/svg">
<rect x="0.478516" width="120.478" height="24" rx="12" fill="#FFF9C4"/>
<path d="M24.2861 7.04688V17H22.2422V7.04688H24.2861ZM28.0117 11.1826V17H26.043V9.60352H27.8887L28.0117 11.1826ZM27.7246 13.042H27.1914C27.1914 12.4951 27.262 12.0029 27.4033 11.5654C27.5446 11.1234 27.7428 10.7474 27.998 10.4375C28.2533 10.123 28.5563 9.88379 28.9072 9.71973C29.2627 9.55111 29.6592 9.4668 30.0967 9.4668C30.443 9.4668 30.7598 9.51693 31.0469 9.61719C31.334 9.71745 31.5801 9.87695 31.7852 10.0957C31.9948 10.3145 32.1543 10.6038 32.2637 10.9639C32.3776 11.3239 32.4346 11.7637 32.4346 12.2832V17H30.4521V12.2764C30.4521 11.9482 30.4066 11.693 30.3154 11.5107C30.2243 11.3285 30.0898 11.2008 29.9121 11.1279C29.7389 11.0505 29.5247 11.0117 29.2695 11.0117C29.0052 11.0117 28.7751 11.0641 28.5791 11.1689C28.3877 11.2738 28.2282 11.4196 28.1006 11.6064C27.9775 11.7887 27.8841 12.0029 27.8203 12.249C27.7565 12.4951 27.7246 12.7594 27.7246 13.042ZM36.9873 15.5986C37.2288 15.5986 37.443 15.5531 37.6299 15.4619C37.8167 15.3662 37.9626 15.234 38.0674 15.0654C38.1768 14.8923 38.2337 14.6895 38.2383 14.457H40.0908C40.0863 14.9766 39.9473 15.4391 39.6738 15.8447C39.4004 16.2458 39.0335 16.5625 38.5732 16.7949C38.113 17.0228 37.598 17.1367 37.0283 17.1367C36.4541 17.1367 35.9528 17.041 35.5244 16.8496C35.1006 16.6582 34.7474 16.3939 34.4648 16.0566C34.1823 15.7148 33.9704 15.3184 33.8291 14.8672C33.6878 14.4115 33.6172 13.9238 33.6172 13.4043V13.2061C33.6172 12.682 33.6878 12.1943 33.8291 11.7432C33.9704 11.2874 34.1823 10.891 34.4648 10.5537C34.7474 10.2119 35.1006 9.94531 35.5244 9.75391C35.9482 9.5625 36.445 9.4668 37.0146 9.4668C37.6208 9.4668 38.1517 9.58301 38.6074 9.81543C39.0677 10.0479 39.4277 10.3805 39.6875 10.8135C39.9518 11.2419 40.0863 11.75 40.0908 12.3379H38.2383C38.2337 12.0918 38.1813 11.8685 38.0811 11.668C37.9854 11.4674 37.8441 11.3079 37.6572 11.1895C37.4749 11.0664 37.2493 11.0049 36.9805 11.0049C36.6934 11.0049 36.4587 11.0664 36.2764 11.1895C36.0941 11.3079 35.9528 11.472 35.8525 11.6816C35.7523 11.8867 35.6816 12.1214 35.6406 12.3857C35.6042 12.6455 35.5859 12.9189 35.5859 13.2061V13.4043C35.5859 13.6914 35.6042 13.9671 35.6406 14.2314C35.6771 14.4958 35.7454 14.7305 35.8457 14.9355C35.9505 15.1406 36.0941 15.3024 36.2764 15.4209C36.4587 15.5394 36.6956 15.5986 36.9873 15.5986ZM40.918 13.377V13.2334C40.918 12.6911 40.9954 12.1921 41.1504 11.7363C41.3053 11.276 41.5309 10.8773 41.8271 10.54C42.1234 10.2028 42.488 9.94076 42.9209 9.75391C43.3538 9.5625 43.8506 9.4668 44.4111 9.4668C44.9717 9.4668 45.4707 9.5625 45.9082 9.75391C46.3457 9.94076 46.7126 10.2028 47.0088 10.54C47.3096 10.8773 47.5374 11.276 47.6924 11.7363C47.8473 12.1921 47.9248 12.6911 47.9248 13.2334V13.377C47.9248 13.9147 47.8473 14.4137 47.6924 14.874C47.5374 15.3298 47.3096 15.7285 47.0088 16.0703C46.7126 16.4076 46.348 16.6696 45.915 16.8564C45.4821 17.0433 44.9854 17.1367 44.4248 17.1367C43.8643 17.1367 43.3652 17.0433 42.9277 16.8564C42.4948 16.6696 42.1279 16.4076 41.8271 16.0703C41.5309 15.7285 41.3053 15.3298 41.1504 14.874C40.9954 14.4137 40.918 13.9147 40.918 13.377ZM42.8867 13.2334V13.377C42.8867 13.6868 42.9141 13.9762 42.9688 14.2451C43.0234 14.514 43.11 14.751 43.2285 14.9561C43.3516 15.1566 43.5111 15.3138 43.707 15.4277C43.903 15.5417 44.1423 15.5986 44.4248 15.5986C44.6982 15.5986 44.9329 15.5417 45.1289 15.4277C45.3249 15.3138 45.4821 15.1566 45.6006 14.9561C45.7191 14.751 45.8057 14.514 45.8604 14.2451C45.9196 13.9762 45.9492 13.6868 45.9492 13.377V13.2334C45.9492 12.9326 45.9196 12.6501 45.8604 12.3857C45.8057 12.1169 45.7168 11.8799 45.5938 11.6748C45.4753 11.4652 45.318 11.3011 45.1221 11.1826C44.9261 11.0641 44.6891 11.0049 44.4111 11.0049C44.1331 11.0049 43.8962 11.0641 43.7002 11.1826C43.5088 11.3011 43.3516 11.4652 43.2285 11.6748C43.11 11.8799 43.0234 12.1169 42.9688 12.3857C42.9141 12.6501 42.8867 12.9326 42.8867 13.2334ZM51.1035 11.1348V17H49.1279V9.60352H50.9805L51.1035 11.1348ZM50.8301 13.042H50.2832C50.2832 12.527 50.3447 12.0531 50.4678 11.6201C50.5954 11.1826 50.7799 10.8044 51.0215 10.4854C51.2676 10.1618 51.5706 9.91113 51.9307 9.7334C52.2907 9.55566 52.7077 9.4668 53.1816 9.4668C53.5098 9.4668 53.8105 9.51693 54.084 9.61719C54.3574 9.71289 54.5921 9.86556 54.7881 10.0752C54.9886 10.2803 55.1436 10.5492 55.2529 10.8818C55.3623 11.21 55.417 11.6042 55.417 12.0645V17H53.4482V12.2832C53.4482 11.946 53.4027 11.6862 53.3115 11.5039C53.2204 11.3216 53.0905 11.194 52.9219 11.1211C52.7578 11.0482 52.5596 11.0117 52.3271 11.0117C52.0719 11.0117 51.8486 11.0641 51.6572 11.1689C51.4704 11.2738 51.3154 11.4196 51.1924 11.6064C51.0693 11.7887 50.9782 12.0029 50.9189 12.249C50.8597 12.4951 50.8301 12.7594 50.8301 13.042ZM55.2324 12.8164L54.5283 12.9053C54.5283 12.4222 54.5876 11.9733 54.7061 11.5586C54.8291 11.1439 55.0091 10.7793 55.2461 10.4648C55.4876 10.1504 55.7861 9.90658 56.1416 9.7334C56.4971 9.55566 56.9072 9.4668 57.3721 9.4668C57.7275 9.4668 58.0511 9.51921 58.3428 9.62402C58.6344 9.72428 58.8828 9.88607 59.0879 10.1094C59.2975 10.3281 59.457 10.6152 59.5664 10.9707C59.6803 11.3262 59.7373 11.7614 59.7373 12.2764V17H57.7617V12.2764C57.7617 11.9346 57.7161 11.6748 57.625 11.4971C57.5384 11.3148 57.4108 11.1895 57.2422 11.1211C57.0781 11.0482 56.8822 11.0117 56.6543 11.0117C56.4173 11.0117 56.21 11.0596 56.0322 11.1553C55.8545 11.2464 55.7064 11.374 55.5879 11.5381C55.4694 11.7021 55.3805 11.8936 55.3213 12.1123C55.262 12.3265 55.2324 12.5612 55.2324 12.8164ZM63.2305 11.0254V19.8438H61.2617V9.60352H63.0869L63.2305 11.0254ZM67.9131 13.2197V13.3633C67.9131 13.901 67.8493 14.4001 67.7217 14.8604C67.5986 15.3206 67.4163 15.7217 67.1748 16.0635C66.9333 16.4007 66.6325 16.665 66.2725 16.8564C65.917 17.0433 65.5068 17.1367 65.042 17.1367C64.5908 17.1367 64.1989 17.0456 63.8662 16.8633C63.5335 16.681 63.2533 16.4258 63.0254 16.0977C62.8021 15.765 62.6221 15.3799 62.4854 14.9424C62.3486 14.5049 62.2438 14.0355 62.1709 13.5342V13.1582C62.2438 12.6204 62.3486 12.1283 62.4854 11.6816C62.6221 11.2305 62.8021 10.8408 63.0254 10.5127C63.2533 10.18 63.5312 9.92253 63.8594 9.74023C64.1921 9.55794 64.5817 9.4668 65.0283 9.4668C65.4977 9.4668 65.9102 9.55566 66.2656 9.7334C66.6257 9.91113 66.9264 10.1663 67.168 10.499C67.4141 10.8317 67.5986 11.2282 67.7217 11.6885C67.8493 12.1488 67.9131 12.6592 67.9131 13.2197ZM65.9375 13.3633V13.2197C65.9375 12.9053 65.9102 12.6159 65.8555 12.3516C65.8053 12.0827 65.7233 11.848 65.6094 11.6475C65.5 11.4469 65.3542 11.292 65.1719 11.1826C64.9941 11.0687 64.7777 11.0117 64.5225 11.0117C64.2536 11.0117 64.0234 11.055 63.832 11.1416C63.6452 11.2282 63.4925 11.3535 63.374 11.5176C63.2555 11.6816 63.1667 11.8776 63.1074 12.1055C63.0482 12.3333 63.0117 12.5908 62.998 12.8779V13.8281C63.0208 14.1654 63.0846 14.4684 63.1895 14.7373C63.2943 15.0016 63.4561 15.2113 63.6748 15.3662C63.8936 15.5212 64.1807 15.5986 64.5361 15.5986C64.7959 15.5986 65.0146 15.5417 65.1924 15.4277C65.3701 15.3092 65.5137 15.1475 65.623 14.9424C65.737 14.7373 65.8167 14.5003 65.8623 14.2314C65.9124 13.9626 65.9375 13.6732 65.9375 13.3633ZM71.2148 6.5V17H69.2393V6.5H71.2148ZM76.2461 17.1367C75.6719 17.1367 75.1569 17.0456 74.7012 16.8633C74.2454 16.6764 73.8581 16.4189 73.5391 16.0908C73.2246 15.7627 72.9831 15.3822 72.8145 14.9492C72.6458 14.5117 72.5615 14.0469 72.5615 13.5547V13.2812C72.5615 12.7207 72.6413 12.208 72.8008 11.7432C72.9603 11.2783 73.1882 10.875 73.4844 10.5332C73.7852 10.1914 74.1497 9.92936 74.5781 9.74707C75.0065 9.56022 75.4896 9.4668 76.0273 9.4668C76.5514 9.4668 77.0163 9.55339 77.4219 9.72656C77.8275 9.89974 78.167 10.1458 78.4404 10.4648C78.7184 10.7839 78.9281 11.1667 79.0693 11.6133C79.2106 12.0553 79.2812 12.5475 79.2812 13.0898V13.9102H73.4023V12.5977H77.3467V12.4473C77.3467 12.1738 77.2965 11.93 77.1963 11.7158C77.1006 11.4971 76.9548 11.3239 76.7588 11.1963C76.5628 11.0687 76.3122 11.0049 76.0068 11.0049C75.7471 11.0049 75.5238 11.0618 75.3369 11.1758C75.1501 11.2897 74.9974 11.4492 74.8789 11.6543C74.765 11.8594 74.6784 12.1009 74.6191 12.3789C74.5645 12.6523 74.5371 12.9531 74.5371 13.2812V13.5547C74.5371 13.8509 74.5781 14.1243 74.6602 14.375C74.7467 14.6257 74.8675 14.8421 75.0225 15.0244C75.182 15.2067 75.3734 15.348 75.5967 15.4482C75.8245 15.5485 76.082 15.5986 76.3691 15.5986C76.7246 15.5986 77.055 15.5303 77.3604 15.3936C77.6702 15.2523 77.9368 15.0404 78.1602 14.7578L79.1172 15.7969C78.9622 16.0202 78.7503 16.2344 78.4814 16.4395C78.2171 16.6445 77.8981 16.8132 77.5244 16.9453C77.1507 17.0729 76.7246 17.1367 76.2461 17.1367ZM84.0254 9.60352V10.998H79.7188V9.60352H84.0254ZM80.7852 7.77832H82.7539V14.7715C82.7539 14.9857 82.7812 15.1497 82.8359 15.2637C82.8952 15.3776 82.9818 15.4574 83.0957 15.5029C83.2096 15.5439 83.3532 15.5645 83.5264 15.5645C83.6494 15.5645 83.7588 15.5599 83.8545 15.5508C83.9548 15.5371 84.0391 15.5234 84.1074 15.5098L84.1143 16.959C83.9456 17.0137 83.7633 17.057 83.5674 17.0889C83.3714 17.1208 83.1549 17.1367 82.918 17.1367C82.485 17.1367 82.1068 17.0661 81.7832 16.9248C81.4642 16.779 81.2181 16.5465 81.0449 16.2275C80.8717 15.9085 80.7852 15.4893 80.7852 14.9697V7.77832ZM88.5508 17.1367C87.9766 17.1367 87.4616 17.0456 87.0059 16.8633C86.5501 16.6764 86.1628 16.4189 85.8438 16.0908C85.5293 15.7627 85.2878 15.3822 85.1191 14.9492C84.9505 14.5117 84.8662 14.0469 84.8662 13.5547V13.2812C84.8662 12.7207 84.946 12.208 85.1055 11.7432C85.265 11.2783 85.4928 10.875 85.7891 10.5332C86.0898 10.1914 86.4544 9.92936 86.8828 9.74707C87.3112 9.56022 87.7943 9.4668 88.332 9.4668C88.8561 9.4668 89.321 9.55339 89.7266 9.72656C90.1322 9.89974 90.4717 10.1458 90.7451 10.4648C91.0231 10.7839 91.2327 11.1667 91.374 11.6133C91.5153 12.0553 91.5859 12.5475 91.5859 13.0898V13.9102H85.707V12.5977H89.6514V12.4473C89.6514 12.1738 89.6012 11.93 89.501 11.7158C89.4053 11.4971 89.2594 11.3239 89.0635 11.1963C88.8675 11.0687 88.6169 11.0049 88.3115 11.0049C88.0518 11.0049 87.8285 11.0618 87.6416 11.1758C87.4548 11.2897 87.3021 11.4492 87.1836 11.6543C87.0697 11.8594 86.9831 12.1009 86.9238 12.3789C86.8691 12.6523 86.8418 12.9531 86.8418 13.2812V13.5547C86.8418 13.8509 86.8828 14.1243 86.9648 14.375C87.0514 14.6257 87.1722 14.8421 87.3271 15.0244C87.4867 15.2067 87.6781 15.348 87.9014 15.4482C88.1292 15.5485 88.3867 15.5986 88.6738 15.5986C89.0293 15.5986 89.3597 15.5303 89.665 15.3936C89.9749 15.2523 90.2415 15.0404 90.4648 14.7578L91.4219 15.7969C91.2669 16.0202 91.055 16.2344 90.7861 16.4395C90.5218 16.6445 90.2028 16.8132 89.8291 16.9453C89.4554 17.0729 89.0293 17.1367 88.5508 17.1367ZM97.0752 15.3867V6.5H99.0576V17H97.2734L97.0752 15.3867ZM92.3994 13.3906V13.2471C92.3994 12.682 92.4632 12.1693 92.5908 11.709C92.7184 11.2441 92.9053 10.8454 93.1514 10.5127C93.3975 10.18 93.7005 9.92253 94.0605 9.74023C94.4206 9.55794 94.8307 9.4668 95.291 9.4668C95.724 9.4668 96.1022 9.55794 96.4258 9.74023C96.7539 9.92253 97.0319 10.1823 97.2598 10.5195C97.4922 10.8522 97.679 11.2464 97.8203 11.7021C97.9616 12.1533 98.0641 12.6478 98.1279 13.1855V13.5C98.0641 14.015 97.9616 14.4935 97.8203 14.9355C97.679 15.3776 97.4922 15.765 97.2598 16.0977C97.0319 16.4258 96.7539 16.681 96.4258 16.8633C96.0977 17.0456 95.7148 17.1367 95.2773 17.1367C94.8171 17.1367 94.4069 17.0433 94.0469 16.8564C93.6914 16.6696 93.3906 16.4076 93.1445 16.0703C92.903 15.7331 92.7184 15.3366 92.5908 14.8809C92.4632 14.4251 92.3994 13.9284 92.3994 13.3906ZM94.3682 13.2471V13.3906C94.3682 13.696 94.391 13.9808 94.4365 14.2451C94.4867 14.5094 94.5664 14.7441 94.6758 14.9492C94.7897 15.1497 94.9355 15.307 95.1133 15.4209C95.2956 15.5303 95.5166 15.585 95.7764 15.585C96.1136 15.585 96.3916 15.5098 96.6104 15.3594C96.8291 15.2044 96.9954 14.9925 97.1094 14.7236C97.2279 14.4548 97.2962 14.1449 97.3145 13.7939V12.8984C97.3008 12.6113 97.2598 12.3538 97.1914 12.126C97.1276 11.8936 97.0319 11.6953 96.9043 11.5312C96.7812 11.3672 96.6263 11.2396 96.4395 11.1484C96.2572 11.0573 96.0407 11.0117 95.79 11.0117C95.5348 11.0117 95.3161 11.071 95.1338 11.1895C94.9515 11.3034 94.8034 11.4606 94.6895 11.6611C94.5801 11.8617 94.498 12.0986 94.4434 12.3721C94.3932 12.641 94.3682 12.9326 94.3682 13.2471Z" fill="#F9A825"/>
</svg>
