<svg width="28" height="28" viewBox="0 0 28 28" fill="none" xmlns="http://www.w3.org/2000/svg">
<path d="M8.50677 0.666748H19.7068C23.9734 0.666748 27.4401 4.13341 27.4401 8.40008V19.6001C27.4401 21.6511 26.6253 23.6181 25.1751 25.0684C23.7248 26.5187 21.7578 27.3334 19.7068 27.3334H8.50677C4.2401 27.3334 0.773438 23.8668 0.773438 19.6001V8.40008C0.773438 6.34907 1.5882 4.38207 3.03848 2.93179C4.48876 1.48151 6.45576 0.666748 8.50677 0.666748ZM8.2401 3.33341C6.96706 3.33341 5.74617 3.83913 4.84599 4.7393C3.94582 5.63948 3.4401 6.86038 3.4401 8.13341V19.8667C3.4401 22.5201 5.58677 24.6667 8.2401 24.6667H19.9734C21.2465 24.6667 22.4674 24.161 23.3676 23.2609C24.2677 22.3607 24.7734 21.1398 24.7734 19.8667V8.13341C24.7734 5.48008 22.6268 3.33341 19.9734 3.33341H8.2401ZM21.1068 5.33342C21.5488 5.33342 21.9727 5.50901 22.2853 5.82157C22.5978 6.13413 22.7734 6.55805 22.7734 7.00008C22.7734 7.44211 22.5978 7.86603 22.2853 8.17859C21.9727 8.49115 21.5488 8.66675 21.1068 8.66675C20.6647 8.66675 20.2408 8.49115 19.9283 8.17859C19.6157 7.86603 19.4401 7.44211 19.4401 7.00008C19.4401 6.55805 19.6157 6.13413 19.9283 5.82157C20.2408 5.50901 20.6647 5.33342 21.1068 5.33342ZM14.1068 7.33342C15.8749 7.33342 17.5706 8.03579 18.8208 9.28604C20.0711 10.5363 20.7734 12.232 20.7734 14.0001C20.7734 15.7682 20.0711 17.4639 18.8208 18.7141C17.5706 19.9644 15.8749 20.6667 14.1068 20.6667C12.3387 20.6667 10.643 19.9644 9.39273 18.7141C8.14248 17.4639 7.4401 15.7682 7.4401 14.0001C7.4401 12.232 8.14248 10.5363 9.39273 9.28604C10.643 8.03579 12.3387 7.33342 14.1068 7.33342ZM14.1068 10.0001C13.0459 10.0001 12.0285 10.4215 11.2783 11.1717C10.5282 11.9218 10.1068 12.9392 10.1068 14.0001C10.1068 15.0609 10.5282 16.0784 11.2783 16.8285C12.0285 17.5787 13.0459 18.0001 14.1068 18.0001C15.1676 18.0001 16.1851 17.5787 16.9352 16.8285C17.6853 16.0784 18.1068 15.0609 18.1068 14.0001C18.1068 12.9392 17.6853 11.9218 16.9352 11.1717C16.1851 10.4215 15.1676 10.0001 14.1068 10.0001Z" fill="#61308C"/>
</svg>
