<svg width="90" height="40" viewBox="0 0 90 40" fill="none" xmlns="http://www.w3.org/2000/svg">
<rect width="90" height="40" rx="8" fill="#3A379F"/>
<path d="M26.5234 14.125V25.5H24.1797L19.6094 17.875V25.5H17.2656V14.125H19.6094L24.1875 21.7578V14.125H26.5234ZM32.3125 25.6562C31.6562 25.6562 31.0677 25.5521 30.5469 25.3438C30.026 25.1302 29.5833 24.8359 29.2188 24.4609C28.8594 24.0859 28.5833 23.651 28.3906 23.1562C28.1979 22.6562 28.1016 22.125 28.1016 21.5625V21.25C28.1016 20.6094 28.1927 20.0234 28.375 19.4922C28.5573 18.9609 28.8177 18.5 29.1562 18.1094C29.5 17.7188 29.9167 17.4193 30.4062 17.2109C30.8958 16.9974 31.4479 16.8906 32.0625 16.8906C32.6615 16.8906 33.1927 16.9896 33.6562 17.1875C34.1198 17.3854 34.5078 17.6667 34.8203 18.0312C35.138 18.3958 35.3776 18.8333 35.5391 19.3438C35.7005 19.849 35.7812 20.4115 35.7812 21.0312V21.9688H29.0625V20.4688H33.5703V20.2969C33.5703 19.9844 33.513 19.7057 33.3984 19.4609C33.2891 19.2109 33.1224 19.013 32.8984 18.8672C32.6745 18.7214 32.388 18.6484 32.0391 18.6484C31.7422 18.6484 31.487 18.7135 31.2734 18.8438C31.0599 18.974 30.8854 19.1562 30.75 19.3906C30.6198 19.625 30.5208 19.901 30.4531 20.2188C30.3906 20.5312 30.3594 20.875 30.3594 21.25V21.5625C30.3594 21.901 30.4062 22.2135 30.5 22.5C30.599 22.7865 30.737 23.0339 30.9141 23.2422C31.0964 23.4505 31.3151 23.612 31.5703 23.7266C31.8307 23.8411 32.125 23.8984 32.4531 23.8984C32.8594 23.8984 33.237 23.8203 33.5859 23.6641C33.9401 23.5026 34.2448 23.2604 34.5 22.9375L35.5938 24.125C35.4167 24.3802 35.1745 24.625 34.8672 24.8594C34.5651 25.0938 34.2005 25.2865 33.7734 25.4375C33.3464 25.5833 32.8594 25.6562 32.3125 25.6562ZM38.875 17.0469L40.2734 19.6172L41.7109 17.0469H44.1094L41.7188 21.1797L44.2188 25.5H41.8125L40.2891 22.7812L38.7656 25.5H36.3594L38.8594 21.1797L36.4688 17.0469H38.875ZM49.3438 17.0469V18.6406H44.4219V17.0469H49.3438ZM45.6406 14.9609H47.8906V22.9531C47.8906 23.1979 47.9219 23.3854 47.9844 23.5156C48.0521 23.6458 48.151 23.737 48.2812 23.7891C48.4115 23.8359 48.5755 23.8594 48.7734 23.8594C48.9141 23.8594 49.0391 23.8542 49.1484 23.8438C49.263 23.8281 49.3594 23.8125 49.4375 23.7969L49.4453 25.4531C49.2526 25.5156 49.0443 25.5651 48.8203 25.6016C48.5964 25.638 48.349 25.6562 48.0781 25.6562C47.5833 25.6562 47.151 25.5755 46.7812 25.4141C46.4167 25.2474 46.1354 24.9818 45.9375 24.6172C45.7396 24.2526 45.6406 23.7734 45.6406 23.1797V14.9609Z" fill="#FCFCFC"/>
<path d="M67 26L73 20L67 14" stroke="white" stroke-width="2" stroke-linecap="round" stroke-linejoin="round"/>
</svg>
