<svg width="20" height="20" viewBox="0 0 20 20" fill="none" xmlns="http://www.w3.org/2000/svg">
<path d="M10.0002 10.8334C10.4604 10.8334 10.8335 10.4603 10.8335 10.0001C10.8335 9.53984 10.4604 9.16675 10.0002 9.16675C9.53993 9.16675 9.16683 9.53984 9.16683 10.0001C9.16683 10.4603 9.53993 10.8334 10.0002 10.8334Z" stroke="#61308C" stroke-width="2" stroke-linecap="round" stroke-linejoin="round"/>
<path d="M15.8335 10.8334C16.2937 10.8334 16.6668 10.4603 16.6668 10.0001C16.6668 9.53984 16.2937 9.16675 15.8335 9.16675C15.3733 9.16675 15.0002 9.53984 15.0002 10.0001C15.0002 10.4603 15.3733 10.8334 15.8335 10.8334Z" stroke="#61308C" stroke-width="2" stroke-linecap="round" stroke-linejoin="round"/>
<path d="M4.16683 10.8334C4.62707 10.8334 5.00016 10.4603 5.00016 10.0001C5.00016 9.53984 4.62707 9.16675 4.16683 9.16675C3.70659 9.16675 3.3335 9.53984 3.3335 10.0001C3.3335 10.4603 3.70659 10.8334 4.16683 10.8334Z" stroke="#61308C" stroke-width="2" stroke-linecap="round" stroke-linejoin="round"/>
</svg>
