<svg width="20" height="20" viewBox="0 0 20 20" fill="none" xmlns="http://www.w3.org/2000/svg">
<path d="M9.30805 2.49135C9.56468 1.87658 10.4356 1.87657 10.6923 2.49134L12.384 6.54381C12.4865 6.7895 12.7117 6.96241 12.9755 6.99811L17.4544 7.60431C18.1046 7.69231 18.3363 8.5138 17.828 8.92862L14.3779 11.744C14.1564 11.9248 14.0569 12.2157 14.1214 12.4942L15.2239 17.2586C15.379 17.9287 14.6254 18.4367 14.0624 18.0415L10.431 15.4929C10.1724 15.3114 9.82788 15.3114 9.5693 15.4929L5.93793 18.0416C5.37489 18.4367 4.6213 17.9288 4.77637 17.2586L5.87883 12.4942C5.94327 12.2157 5.8438 11.9248 5.62232 11.744L2.1723 8.92862C1.66397 8.5138 1.89572 7.69232 2.54589 7.60432L7.02483 6.99811C7.28866 6.96241 7.51379 6.7895 7.61635 6.54381L9.30805 2.49135Z" stroke="#61308C" stroke-width="2" stroke-miterlimit="3.3292" stroke-linecap="round" stroke-linejoin="round"/>
</svg>
