<svg width="20" height="20" viewBox="0 0 20 20" fill="none" xmlns="http://www.w3.org/2000/svg">
<path d="M14.1626 3.33325H5.82923C2.63756 3.33325 1.7459 4.09992 1.6709 7.08325C3.27923 7.08325 4.57923 8.39159 4.57923 9.99992C4.57923 11.6083 3.27923 12.9083 1.6709 12.9166C1.7459 15.8999 2.63756 16.6666 5.82923 16.6666H14.1626C17.4959 16.6666 18.3292 15.8333 18.3292 12.4999V7.49992C18.3292 4.16659 17.4959 3.33325 14.1626 3.33325Z" stroke="#61308C" stroke-width="2" stroke-linecap="round" stroke-linejoin="round"/>
<path d="M7.49463 3.33325V6.24992" stroke="#61308C" stroke-width="2" stroke-linecap="round" stroke-linejoin="round"/>
<path d="M7.49463 13.75V16.6667" stroke="#61308C" stroke-width="2" stroke-linecap="round" stroke-linejoin="round"/>
<path d="M12.521 7.77505L13.0377 8.81672C13.0877 8.91672 13.1877 8.99172 13.296 9.00838L14.446 9.17505C14.7293 9.21672 14.846 9.56672 14.6377 9.76672L13.8043 10.575C13.721 10.65 13.6877 10.7667 13.7043 10.8834L13.9043 12.025C13.9543 12.3084 13.6543 12.525 13.4043 12.3917L12.3793 11.85C12.2793 11.8 12.1543 11.8 12.0543 11.85L11.0293 12.3917C10.771 12.525 10.4793 12.3084 10.5293 12.025L10.7293 10.8834C10.746 10.7667 10.7127 10.6584 10.6293 10.575L9.80434 9.76672C9.59601 9.56672 9.71268 9.21672 9.99601 9.17505L11.146 9.00838C11.2627 8.99172 11.3543 8.92505 11.4043 8.81672L11.9127 7.77505C12.0293 7.51672 12.396 7.51672 12.521 7.77505Z" fill="#61308C" stroke="#61308C" stroke-linecap="round" stroke-linejoin="round"/>
</svg>
