<svg width="25" height="25" viewBox="0 0 25 25" fill="none" xmlns="http://www.w3.org/2000/svg">
<path d="M16.9883 6.82568V6.02568C16.9883 4.90558 16.9883 4.34553 16.7703 3.9177C16.5785 3.54138 16.2726 3.23542 15.8963 3.04367C15.4684 2.82568 14.9084 2.82568 13.7883 2.82568H12.1883C11.0682 2.82568 10.5081 2.82568 10.0803 3.04367C9.70398 3.23542 9.39802 3.54138 9.20627 3.9177C8.98828 4.34553 8.98828 4.90558 8.98828 6.02568V6.82568M10.9883 12.3257V17.3257M14.9883 12.3257V17.3257M3.98828 6.82568H21.9883M19.9883 6.82568V18.0257C19.9883 19.7058 19.9883 20.5459 19.6613 21.1877C19.3737 21.7521 18.9147 22.2111 18.3503 22.4987C17.7085 22.8257 16.8684 22.8257 15.1883 22.8257H10.7883C9.10812 22.8257 8.26805 22.8257 7.62631 22.4987C7.06182 22.2111 6.60288 21.7521 6.31526 21.1877C5.98828 20.5459 5.98828 19.7058 5.98828 18.0257V6.82568" stroke="#546E7A" stroke-width="2" stroke-linecap="round" stroke-linejoin="round"/>
</svg>
