<svg width="18" height="18" viewBox="0 0 18 18" fill="none" xmlns="http://www.w3.org/2000/svg">
<path d="M12.5556 4.2V3.56C12.5556 2.66392 12.5556 2.21587 12.3618 1.87362C12.1913 1.57256 11.9194 1.32779 11.5849 1.17439C11.2046 1 10.7068 1 9.71111 1H8.28889C7.29324 1 6.79542 1 6.41513 1.17439C6.08062 1.32779 5.80865 1.57256 5.63821 1.87362C5.44444 2.21587 5.44444 2.66392 5.44444 3.56V4.2M7.22222 8.6V12.6M10.7778 8.6V12.6M1 4.2H17M15.2222 4.2V13.16C15.2222 14.5041 15.2222 15.1762 14.9316 15.6896C14.6759 16.1412 14.268 16.5083 13.7662 16.7384C13.1958 17 12.449 17 10.9556 17H7.04445C5.55097 17 4.80423 17 4.2338 16.7384C3.73204 16.5083 3.32409 16.1412 3.06843 15.6896C2.77778 15.1762 2.77778 14.5041 2.77778 13.16V4.2" stroke="#61308C" stroke-width="2" stroke-linecap="round" stroke-linejoin="round"/>
</svg>
