<svg width="24" height="24" viewBox="0 0 24 24" fill="none" xmlns="http://www.w3.org/2000/svg">
<path d="M15.5556 7.2V6.56C15.5556 5.66392 15.5556 5.21587 15.3618 4.87362C15.1913 4.57256 14.9194 4.32779 14.5849 4.17439C14.2046 4 13.7068 4 12.7111 4H11.2889C10.2932 4 9.79542 4 9.41513 4.17439C9.08062 4.32779 8.80865 4.57256 8.63821 4.87362C8.44444 5.21587 8.44444 5.66392 8.44444 6.56V7.2M10.2222 11.6V15.6M13.7778 11.6V15.6M4 7.2H20M18.2222 7.2V16.16C18.2222 17.5041 18.2222 18.1762 17.9316 18.6896C17.6759 19.1412 17.268 19.5083 16.7662 19.7384C16.1958 20 15.449 20 13.9556 20H10.0444C8.55097 20 7.80423 20 7.2338 19.7384C6.73204 19.5083 6.32409 19.1412 6.06843 18.6896C5.77778 18.1762 5.77778 17.5041 5.77778 16.16V7.2" stroke="white" stroke-width="2" stroke-linecap="round" stroke-linejoin="round"/>
</svg>
