<svg width="28" height="23" viewBox="0 0 28 23" fill="none" xmlns="http://www.w3.org/2000/svg">
<path d="M27.9949 2.99992C26.9682 3.46659 25.8616 3.77325 24.7149 3.91992C25.8882 3.21325 26.7949 2.09325 27.2216 0.746585C26.1149 1.41325 24.8882 1.87992 23.5949 2.14659C22.5416 0.999919 21.0616 0.333252 19.3816 0.333252C16.2482 0.333252 13.6882 2.89325 13.6882 6.05325C13.6882 6.50659 13.7416 6.94659 13.8349 7.35992C9.08823 7.11992 4.86156 4.83992 2.04823 1.38659C1.5549 2.22659 1.2749 3.21325 1.2749 4.25325C1.2749 6.23992 2.2749 7.99992 3.82156 8.99992C2.8749 8.99992 1.9949 8.73325 1.22156 8.33325V8.37325C1.22156 11.1466 3.1949 13.4666 5.80823 13.9866C4.9692 14.2162 4.08836 14.2481 3.2349 14.0799C3.59704 15.2166 4.30628 16.2111 5.26292 16.9238C6.21956 17.6365 7.37549 18.0315 8.56823 18.0533C6.5464 19.6538 4.04022 20.519 1.46156 20.5066C1.00823 20.5066 0.554896 20.4799 0.101562 20.4266C2.6349 22.0533 5.64823 22.9999 8.8749 22.9999C19.3816 22.9999 25.1549 14.2799 25.1549 6.71992C25.1549 6.46659 25.1549 6.22658 25.1416 5.97325C26.2616 5.17325 27.2216 4.15992 27.9949 2.99992Z" fill="#61308C"/>
</svg>
