<svg width="142" height="40" viewBox="0 0 142 40" fill="none" xmlns="http://www.w3.org/2000/svg">
<rect width="142" height="40" rx="8" fill="#3A379F"/>
<path d="M29.6356 20.5954C29.4504 22.3353 28.4646 23.9658 26.8333 24.9076C24.1229 26.4724 20.6573 25.5438 19.0924 22.8335L18.9258 22.5448M18.3644 19.4047C18.5496 17.6647 19.5355 16.0343 21.1668 15.0924C23.8771 13.5276 27.3428 14.4562 28.9076 17.1666L29.0743 17.4552M18.3291 24.044L18.8171 22.2227L20.6385 22.7107M27.3619 17.2893L29.1833 17.7774L29.6713 15.956" stroke="white" stroke-width="2" stroke-linecap="round" stroke-linejoin="round"/>
<path d="M54.3848 15.0469H56.4287V21.623C56.4287 22.3887 56.2646 23.0335 55.9365 23.5576C55.613 24.0817 55.1641 24.4759 54.5898 24.7402C54.0202 25.0046 53.3639 25.1367 52.6211 25.1367C51.8783 25.1367 51.2174 25.0046 50.6387 24.7402C50.0645 24.4759 49.6133 24.0817 49.2852 23.5576C48.9616 23.0335 48.7998 22.3887 48.7998 21.623V15.0469H50.8506V21.623C50.8506 22.0697 50.9212 22.4342 51.0625 22.7168C51.2038 22.9993 51.4066 23.2067 51.6709 23.3389C51.9398 23.471 52.2565 23.5371 52.6211 23.5371C52.9948 23.5371 53.3115 23.471 53.5713 23.3389C53.8356 23.2067 54.0361 22.9993 54.1729 22.7168C54.3141 22.4342 54.3848 22.0697 54.3848 21.623V15.0469ZM59.9629 19.0254V27.8438H57.9941V17.6035H59.8193L59.9629 19.0254ZM64.6455 21.2197V21.3633C64.6455 21.901 64.5817 22.4001 64.4541 22.8604C64.3311 23.3206 64.1488 23.7217 63.9072 24.0635C63.6657 24.4007 63.3649 24.665 63.0049 24.8564C62.6494 25.0433 62.2393 25.1367 61.7744 25.1367C61.3232 25.1367 60.9313 25.0456 60.5986 24.8633C60.266 24.681 59.9857 24.4258 59.7578 24.0977C59.5345 23.765 59.3545 23.3799 59.2178 22.9424C59.0811 22.5049 58.9762 22.0355 58.9033 21.5342V21.1582C58.9762 20.6204 59.0811 20.1283 59.2178 19.6816C59.3545 19.2305 59.5345 18.8408 59.7578 18.5127C59.9857 18.18 60.2637 17.9225 60.5918 17.7402C60.9245 17.5579 61.3141 17.4668 61.7607 17.4668C62.2301 17.4668 62.6426 17.5557 62.998 17.7334C63.3581 17.9111 63.6589 18.1663 63.9004 18.499C64.1465 18.8317 64.3311 19.2282 64.4541 19.6885C64.5817 20.1488 64.6455 20.6592 64.6455 21.2197ZM62.6699 21.3633V21.2197C62.6699 20.9053 62.6426 20.6159 62.5879 20.3516C62.5378 20.0827 62.4557 19.848 62.3418 19.6475C62.2324 19.4469 62.0866 19.292 61.9043 19.1826C61.7266 19.0687 61.5101 19.0117 61.2549 19.0117C60.986 19.0117 60.7559 19.055 60.5645 19.1416C60.3776 19.2282 60.2249 19.3535 60.1064 19.5176C59.988 19.6816 59.8991 19.8776 59.8398 20.1055C59.7806 20.3333 59.7441 20.5908 59.7305 20.8779V21.8281C59.7533 22.1654 59.8171 22.4684 59.9219 22.7373C60.0267 23.0016 60.1885 23.2113 60.4072 23.3662C60.626 23.5212 60.9131 23.5986 61.2686 23.5986C61.5283 23.5986 61.7471 23.5417 61.9248 23.4277C62.1025 23.3092 62.2461 23.1475 62.3555 22.9424C62.4694 22.7373 62.5492 22.5003 62.5947 22.2314C62.6449 21.9626 62.6699 21.6732 62.6699 21.3633ZM70.2373 23.3867V14.5H72.2197V25H70.4355L70.2373 23.3867ZM65.5615 21.3906V21.2471C65.5615 20.682 65.6253 20.1693 65.7529 19.709C65.8805 19.2441 66.0674 18.8454 66.3135 18.5127C66.5596 18.18 66.8626 17.9225 67.2227 17.7402C67.5827 17.5579 67.9928 17.4668 68.4531 17.4668C68.8861 17.4668 69.2643 17.5579 69.5879 17.7402C69.916 17.9225 70.194 18.1823 70.4219 18.5195C70.6543 18.8522 70.8411 19.2464 70.9824 19.7021C71.1237 20.1533 71.2262 20.6478 71.29 21.1855V21.5C71.2262 22.015 71.1237 22.4935 70.9824 22.9355C70.8411 23.3776 70.6543 23.765 70.4219 24.0977C70.194 24.4258 69.916 24.681 69.5879 24.8633C69.2598 25.0456 68.877 25.1367 68.4395 25.1367C67.9792 25.1367 67.569 25.0433 67.209 24.8564C66.8535 24.6696 66.5527 24.4076 66.3066 24.0703C66.0651 23.7331 65.8805 23.3366 65.7529 22.8809C65.6253 22.4251 65.5615 21.9284 65.5615 21.3906ZM67.5303 21.2471V21.3906C67.5303 21.696 67.5531 21.9808 67.5986 22.2451C67.6488 22.5094 67.7285 22.7441 67.8379 22.9492C67.9518 23.1497 68.0977 23.307 68.2754 23.4209C68.4577 23.5303 68.6787 23.585 68.9385 23.585C69.2757 23.585 69.5537 23.5098 69.7725 23.3594C69.9912 23.2044 70.1576 22.9925 70.2715 22.7236C70.39 22.4548 70.4583 22.1449 70.4766 21.7939V20.8984C70.4629 20.6113 70.4219 20.3538 70.3535 20.126C70.2897 19.8936 70.194 19.6953 70.0664 19.5312C69.9434 19.3672 69.7884 19.2396 69.6016 19.1484C69.4193 19.0573 69.2028 19.0117 68.9521 19.0117C68.6969 19.0117 68.4782 19.071 68.2959 19.1895C68.1136 19.3034 67.9655 19.4606 67.8516 19.6611C67.7422 19.8617 67.6602 20.0986 67.6055 20.3721C67.5553 20.641 67.5303 20.9326 67.5303 21.2471ZM77.75 23.332V20.0371C77.75 19.8001 77.7113 19.5973 77.6338 19.4287C77.5563 19.2555 77.4355 19.1211 77.2715 19.0254C77.112 18.9297 76.9046 18.8818 76.6494 18.8818C76.4307 18.8818 76.2415 18.9206 76.082 18.998C75.9225 19.071 75.7995 19.1781 75.7129 19.3193C75.6263 19.4561 75.583 19.6178 75.583 19.8047H73.6143C73.6143 19.4902 73.6872 19.1917 73.833 18.9092C73.9788 18.6266 74.1908 18.3783 74.4688 18.1641C74.7467 17.9453 75.0771 17.7744 75.46 17.6514C75.8473 17.5283 76.2803 17.4668 76.7588 17.4668C77.333 17.4668 77.8434 17.5625 78.29 17.7539C78.7367 17.9453 79.0876 18.2324 79.3428 18.6152C79.6025 18.998 79.7324 19.4766 79.7324 20.0508V23.2158C79.7324 23.6214 79.7575 23.9541 79.8076 24.2139C79.8577 24.4691 79.9307 24.6924 80.0264 24.8838V25H78.0371C77.9414 24.7995 77.8685 24.5488 77.8184 24.248C77.7728 23.9427 77.75 23.6374 77.75 23.332ZM78.0098 20.4951L78.0234 21.6094H76.9229C76.6631 21.6094 76.4375 21.639 76.2461 21.6982C76.0547 21.7575 75.8975 21.8418 75.7744 21.9512C75.6514 22.056 75.5602 22.179 75.501 22.3203C75.4463 22.4616 75.4189 22.6165 75.4189 22.7852C75.4189 22.9538 75.4577 23.1064 75.5352 23.2432C75.6126 23.3753 75.7243 23.4801 75.8701 23.5576C76.016 23.6305 76.1868 23.667 76.3828 23.667C76.679 23.667 76.9365 23.6077 77.1553 23.4893C77.374 23.3708 77.5426 23.2249 77.6611 23.0518C77.7842 22.8786 77.848 22.7145 77.8525 22.5596L78.3721 23.3936C78.2992 23.5804 78.1989 23.7741 78.0713 23.9746C77.9482 24.1751 77.791 24.3643 77.5996 24.542C77.4082 24.7152 77.1781 24.8587 76.9092 24.9727C76.6403 25.082 76.3213 25.1367 75.9521 25.1367C75.4827 25.1367 75.0566 25.0433 74.6738 24.8564C74.2956 24.665 73.9948 24.403 73.7715 24.0703C73.5527 23.7331 73.4434 23.3503 73.4434 22.9219C73.4434 22.5345 73.5163 22.1904 73.6621 21.8896C73.8079 21.5889 74.0221 21.3359 74.3047 21.1309C74.5918 20.9212 74.9495 20.764 75.3779 20.6592C75.8063 20.5498 76.3031 20.4951 76.8682 20.4951H78.0098ZM84.873 17.6035V18.998H80.5664V17.6035H84.873ZM81.6328 15.7783H83.6016V22.7715C83.6016 22.9857 83.6289 23.1497 83.6836 23.2637C83.7428 23.3776 83.8294 23.4574 83.9434 23.5029C84.0573 23.5439 84.2008 23.5645 84.374 23.5645C84.4971 23.5645 84.6064 23.5599 84.7021 23.5508C84.8024 23.5371 84.8867 23.5234 84.9551 23.5098L84.9619 24.959C84.7933 25.0137 84.611 25.057 84.415 25.0889C84.2191 25.1208 84.0026 25.1367 83.7656 25.1367C83.3327 25.1367 82.9544 25.0661 82.6309 24.9248C82.3118 24.779 82.0658 24.5465 81.8926 24.2275C81.7194 23.9085 81.6328 23.4893 81.6328 22.9697V15.7783ZM89.3984 25.1367C88.8242 25.1367 88.3092 25.0456 87.8535 24.8633C87.3978 24.6764 87.0104 24.4189 86.6914 24.0908C86.377 23.7627 86.1354 23.3822 85.9668 22.9492C85.7982 22.5117 85.7139 22.0469 85.7139 21.5547V21.2812C85.7139 20.7207 85.7936 20.208 85.9531 19.7432C86.1126 19.2783 86.3405 18.875 86.6367 18.5332C86.9375 18.1914 87.3021 17.9294 87.7305 17.7471C88.1589 17.5602 88.6419 17.4668 89.1797 17.4668C89.7038 17.4668 90.1686 17.5534 90.5742 17.7266C90.9798 17.8997 91.3193 18.1458 91.5928 18.4648C91.8708 18.7839 92.0804 19.1667 92.2217 19.6133C92.363 20.0553 92.4336 20.5475 92.4336 21.0898V21.9102H86.5547V20.5977H90.499V20.4473C90.499 20.1738 90.4489 19.93 90.3486 19.7158C90.2529 19.4971 90.1071 19.3239 89.9111 19.1963C89.7152 19.0687 89.4645 19.0049 89.1592 19.0049C88.8994 19.0049 88.6761 19.0618 88.4893 19.1758C88.3024 19.2897 88.1497 19.4492 88.0312 19.6543C87.9173 19.8594 87.8307 20.1009 87.7715 20.3789C87.7168 20.6523 87.6895 20.9531 87.6895 21.2812V21.5547C87.6895 21.8509 87.7305 22.1243 87.8125 22.375C87.8991 22.6257 88.0199 22.8421 88.1748 23.0244C88.3343 23.2067 88.5257 23.348 88.749 23.4482C88.9769 23.5485 89.2344 23.5986 89.5215 23.5986C89.877 23.5986 90.2074 23.5303 90.5127 23.3936C90.8226 23.2523 91.0892 23.0404 91.3125 22.7578L92.2695 23.7969C92.1146 24.0202 91.9027 24.2344 91.6338 24.4395C91.3695 24.6445 91.0505 24.8132 90.6768 24.9453C90.3031 25.0729 89.877 25.1367 89.3984 25.1367ZM100.22 25H98.0527L98.0664 23.4004H100.22C100.757 23.4004 101.211 23.2796 101.58 23.0381C101.949 22.792 102.227 22.4342 102.414 21.9648C102.605 21.4954 102.701 20.9281 102.701 20.2627V19.7773C102.701 19.2669 102.646 18.818 102.537 18.4307C102.432 18.0433 102.275 17.7174 102.065 17.4531C101.856 17.1888 101.598 16.9906 101.293 16.8584C100.988 16.7217 100.637 16.6533 100.24 16.6533H98.0117V15.0469H100.24C100.906 15.0469 101.514 15.1608 102.065 15.3887C102.621 15.612 103.102 15.9333 103.508 16.3525C103.913 16.7718 104.226 17.2731 104.444 17.8564C104.668 18.4352 104.779 19.0801 104.779 19.791V20.2627C104.779 20.9691 104.668 21.6139 104.444 22.1973C104.226 22.7806 103.913 23.2819 103.508 23.7012C103.107 24.1159 102.626 24.4372 102.065 24.665C101.509 24.8883 100.894 25 100.22 25ZM99.2148 15.0469V25H97.1641V15.0469H99.2148ZM110.139 23.332V20.0371C110.139 19.8001 110.1 19.5973 110.022 19.4287C109.945 19.2555 109.824 19.1211 109.66 19.0254C109.501 18.9297 109.293 18.8818 109.038 18.8818C108.819 18.8818 108.63 18.9206 108.471 18.998C108.311 19.071 108.188 19.1781 108.102 19.3193C108.015 19.4561 107.972 19.6178 107.972 19.8047H106.003C106.003 19.4902 106.076 19.1917 106.222 18.9092C106.368 18.6266 106.579 18.3783 106.857 18.1641C107.135 17.9453 107.466 17.7744 107.849 17.6514C108.236 17.5283 108.669 17.4668 109.147 17.4668C109.722 17.4668 110.232 17.5625 110.679 17.7539C111.125 17.9453 111.476 18.2324 111.731 18.6152C111.991 18.998 112.121 19.4766 112.121 20.0508V23.2158C112.121 23.6214 112.146 23.9541 112.196 24.2139C112.246 24.4691 112.319 24.6924 112.415 24.8838V25H110.426C110.33 24.7995 110.257 24.5488 110.207 24.248C110.161 23.9427 110.139 23.6374 110.139 23.332ZM110.398 20.4951L110.412 21.6094H109.312C109.052 21.6094 108.826 21.639 108.635 21.6982C108.443 21.7575 108.286 21.8418 108.163 21.9512C108.04 22.056 107.949 22.179 107.89 22.3203C107.835 22.4616 107.808 22.6165 107.808 22.7852C107.808 22.9538 107.846 23.1064 107.924 23.2432C108.001 23.3753 108.113 23.4801 108.259 23.5576C108.405 23.6305 108.576 23.667 108.771 23.667C109.068 23.667 109.325 23.6077 109.544 23.4893C109.763 23.3708 109.931 23.2249 110.05 23.0518C110.173 22.8786 110.237 22.7145 110.241 22.5596L110.761 23.3936C110.688 23.5804 110.588 23.7741 110.46 23.9746C110.337 24.1751 110.18 24.3643 109.988 24.542C109.797 24.7152 109.567 24.8587 109.298 24.9727C109.029 25.082 108.71 25.1367 108.341 25.1367C107.871 25.1367 107.445 25.0433 107.062 24.8564C106.684 24.665 106.383 24.403 106.16 24.0703C105.941 23.7331 105.832 23.3503 105.832 22.9219C105.832 22.5345 105.905 22.1904 106.051 21.8896C106.197 21.5889 106.411 21.3359 106.693 21.1309C106.98 20.9212 107.338 20.764 107.767 20.6592C108.195 20.5498 108.692 20.4951 109.257 20.4951H110.398ZM117.262 17.6035V18.998H112.955V17.6035H117.262ZM114.021 15.7783H115.99V22.7715C115.99 22.9857 116.018 23.1497 116.072 23.2637C116.132 23.3776 116.218 23.4574 116.332 23.5029C116.446 23.5439 116.59 23.5645 116.763 23.5645C116.886 23.5645 116.995 23.5599 117.091 23.5508C117.191 23.5371 117.275 23.5234 117.344 23.5098L117.351 24.959C117.182 25.0137 117 25.057 116.804 25.0889C116.608 25.1208 116.391 25.1367 116.154 25.1367C115.721 25.1367 115.343 25.0661 115.02 24.9248C114.701 24.779 114.454 24.5465 114.281 24.2275C114.108 23.9085 114.021 23.4893 114.021 22.9697V15.7783ZM122.375 23.332V20.0371C122.375 19.8001 122.336 19.5973 122.259 19.4287C122.181 19.2555 122.061 19.1211 121.896 19.0254C121.737 18.9297 121.53 18.8818 121.274 18.8818C121.056 18.8818 120.867 18.9206 120.707 18.998C120.548 19.071 120.424 19.1781 120.338 19.3193C120.251 19.4561 120.208 19.6178 120.208 19.8047H118.239C118.239 19.4902 118.312 19.1917 118.458 18.9092C118.604 18.6266 118.816 18.3783 119.094 18.1641C119.372 17.9453 119.702 17.7744 120.085 17.6514C120.472 17.5283 120.905 17.4668 121.384 17.4668C121.958 17.4668 122.468 17.5625 122.915 17.7539C123.362 17.9453 123.713 18.2324 123.968 18.6152C124.228 18.998 124.357 19.4766 124.357 20.0508V23.2158C124.357 23.6214 124.382 23.9541 124.433 24.2139C124.483 24.4691 124.556 24.6924 124.651 24.8838V25H122.662C122.566 24.7995 122.493 24.5488 122.443 24.248C122.398 23.9427 122.375 23.6374 122.375 23.332ZM122.635 20.4951L122.648 21.6094H121.548C121.288 21.6094 121.062 21.639 120.871 21.6982C120.68 21.7575 120.522 21.8418 120.399 21.9512C120.276 22.056 120.185 22.179 120.126 22.3203C120.071 22.4616 120.044 22.6165 120.044 22.7852C120.044 22.9538 120.083 23.1064 120.16 23.2432C120.238 23.3753 120.349 23.4801 120.495 23.5576C120.641 23.6305 120.812 23.667 121.008 23.667C121.304 23.667 121.562 23.6077 121.78 23.4893C121.999 23.3708 122.168 23.2249 122.286 23.0518C122.409 22.8786 122.473 22.7145 122.478 22.5596L122.997 23.3936C122.924 23.5804 122.824 23.7741 122.696 23.9746C122.573 24.1751 122.416 24.3643 122.225 24.542C122.033 24.7152 121.803 24.8587 121.534 24.9727C121.265 25.082 120.946 25.1367 120.577 25.1367C120.108 25.1367 119.682 25.0433 119.299 24.8564C118.921 24.665 118.62 24.403 118.396 24.0703C118.178 23.7331 118.068 23.3503 118.068 22.9219C118.068 22.5345 118.141 22.1904 118.287 21.8896C118.433 21.5889 118.647 21.3359 118.93 21.1309C119.217 20.9212 119.575 20.764 120.003 20.6592C120.431 20.5498 120.928 20.4951 121.493 20.4951H122.635Z" fill="white"/>
</svg>
