<svg width="26" height="26" viewBox="0 0 26 26" fill="none" xmlns="http://www.w3.org/2000/svg">
<path d="M13 25C15.66 24.9998 18.2446 24.1163 20.348 22.488C22.4515 20.8598 23.9546 18.5791 24.6213 16.004M13 25C10.34 24.9998 7.75539 24.1163 5.65197 22.488C3.54854 20.8598 2.04544 18.5791 1.37867 16.004M13 25C16.3133 25 19 19.6267 19 13C19 6.37334 16.3133 1 13 1M13 25C9.68667 25 7 19.6267 7 13C7 6.37334 9.68667 1 13 1M13 1C15.1283 0.999113 17.2186 1.56448 19.0563 2.63809C20.8939 3.71169 22.4129 5.25489 23.4573 7.10933M13 1C10.8717 0.999113 8.78144 1.56448 6.94375 2.63809C5.10605 3.71169 3.58708 5.25489 2.54267 7.10933M23.4573 7.10933C20.5542 9.62391 16.8407 11.0055 13 11C9.00267 11 5.34667 9.53333 2.54267 7.10933M23.4573 7.10933C24.4718 8.90665 25.0033 10.9361 25 13C25 14.0373 24.868 15.044 24.6213 16.004M24.6213 16.004C21.0656 17.9752 17.0656 19.0064 13 19C8.784 19 4.82267 17.9133 1.37867 16.004M1.37867 16.004C1.12633 15.0226 0.999103 14.0133 1 13C1 10.86 1.56 8.84933 2.54267 7.10933" stroke="#61308C" stroke-width="2" stroke-linecap="round" stroke-linejoin="round"/>
</svg>
