<svg width="30" height="29" viewBox="0 0 30 29" fill="none" xmlns="http://www.w3.org/2000/svg">
<path d="M5.58166 25.0971L13.4512 17.2275C13.9237 16.7551 14.1599 16.5189 14.4323 16.4304C14.6719 16.3525 14.93 16.3525 15.1696 16.4304C15.442 16.5189 15.6782 16.7551 16.1506 17.2275L23.9677 25.0446M17.1869 18.2638L20.6091 14.8416C21.0815 14.3691 21.3178 14.1329 21.5902 14.0444C21.8298 13.9665 22.0879 13.9665 22.3275 14.0444C22.5999 14.1329 22.8361 14.3691 23.3085 14.8416L26.7307 18.2638M12.415 11.1059C12.415 12.4236 11.3467 13.4919 10.029 13.4919C8.71126 13.4919 7.64302 12.4236 7.64302 11.1059C7.64302 9.78816 8.71126 8.71993 10.029 8.71993C11.3467 8.71993 12.415 9.78816 12.415 11.1059ZM8.59741 25.4217H21.0044C23.0088 25.4217 24.011 25.4217 24.7766 25.0316C25.45 24.6885 25.9975 24.141 26.3407 23.4675C26.7307 22.702 26.7307 21.6998 26.7307 19.6954V9.67431C26.7307 7.66992 26.7307 6.66772 26.3407 5.90214C25.9975 5.22872 25.45 4.68121 24.7766 4.33808C24.011 3.948 23.0088 3.948 21.0044 3.948H8.59741C6.59301 3.948 5.59081 3.948 4.82523 4.33808C4.15181 4.68121 3.6043 5.22872 3.26118 5.90214C2.87109 6.66772 2.87109 7.66991 2.87109 9.67431V19.6954C2.87109 21.6998 2.87109 22.702 3.26118 23.4675C3.6043 24.141 4.15181 24.6885 4.82523 25.0316C5.59081 25.4217 6.59301 25.4217 8.59741 25.4217Z" stroke="#61308C" stroke-width="2" stroke-linecap="round" stroke-linejoin="round"/>
</svg>
