<svg width="122" height="24" viewBox="0 0 122 24" fill="none" xmlns="http://www.w3.org/2000/svg">
<rect x="0.760742" width="120.478" height="24" rx="12" fill="#F5D2D2"/>
<path d="M44.9395 7.04688V17H42.8887V7.04688H44.9395ZM48.9043 11.2988V12.8984H44.3789V11.2988H48.9043ZM49.3828 7.04688V8.65332H44.3789V7.04688H49.3828ZM54.209 15.332V12.0371C54.209 11.8001 54.1702 11.5973 54.0928 11.4287C54.0153 11.2555 53.8945 11.1211 53.7305 11.0254C53.571 10.9297 53.3636 10.8818 53.1084 10.8818C52.8896 10.8818 52.7005 10.9206 52.541 10.998C52.3815 11.071 52.2585 11.1781 52.1719 11.3193C52.0853 11.4561 52.042 11.6178 52.042 11.8047H50.0732C50.0732 11.4902 50.1462 11.1917 50.292 10.9092C50.4378 10.6266 50.6497 10.3783 50.9277 10.1641C51.2057 9.94531 51.5361 9.77441 51.9189 9.65137C52.3063 9.52832 52.7393 9.4668 53.2178 9.4668C53.792 9.4668 54.3024 9.5625 54.749 9.75391C55.1956 9.94531 55.5465 10.2324 55.8018 10.6152C56.0615 10.998 56.1914 11.4766 56.1914 12.0508V15.2158C56.1914 15.6214 56.2165 15.9541 56.2666 16.2139C56.3167 16.4691 56.3896 16.6924 56.4854 16.8838V17H54.4961C54.4004 16.7995 54.3275 16.5488 54.2773 16.248C54.2318 15.9427 54.209 15.6374 54.209 15.332ZM54.4688 12.4951L54.4824 13.6094H53.3818C53.1221 13.6094 52.8965 13.639 52.7051 13.6982C52.5137 13.7575 52.3564 13.8418 52.2334 13.9512C52.1104 14.056 52.0192 14.179 51.96 14.3203C51.9053 14.4616 51.8779 14.6165 51.8779 14.7852C51.8779 14.9538 51.9167 15.1064 51.9941 15.2432C52.0716 15.3753 52.1833 15.4801 52.3291 15.5576C52.4749 15.6305 52.6458 15.667 52.8418 15.667C53.138 15.667 53.3955 15.6077 53.6143 15.4893C53.833 15.3708 54.0016 15.2249 54.1201 15.0518C54.2432 14.8786 54.307 14.7145 54.3115 14.5596L54.8311 15.3936C54.7581 15.5804 54.6579 15.7741 54.5303 15.9746C54.4072 16.1751 54.25 16.3643 54.0586 16.542C53.8672 16.7152 53.637 16.8587 53.3682 16.9727C53.0993 17.082 52.7803 17.1367 52.4111 17.1367C51.9417 17.1367 51.5156 17.0433 51.1328 16.8564C50.7546 16.665 50.4538 16.403 50.2305 16.0703C50.0117 15.7331 49.9023 15.3503 49.9023 14.9219C49.9023 14.5345 49.9753 14.1904 50.1211 13.8896C50.2669 13.5889 50.4811 13.3359 50.7637 13.1309C51.0508 12.9212 51.4085 12.764 51.8369 12.6592C52.2653 12.5498 52.762 12.4951 53.3271 12.4951H54.4688ZM59.7871 9.60352V17H57.8115V9.60352H59.7871ZM57.6885 7.67578C57.6885 7.38867 57.7887 7.15169 57.9893 6.96484C58.1898 6.77799 58.4587 6.68457 58.7959 6.68457C59.1286 6.68457 59.3952 6.77799 59.5957 6.96484C59.8008 7.15169 59.9033 7.38867 59.9033 7.67578C59.9033 7.96289 59.8008 8.19987 59.5957 8.38672C59.3952 8.57357 59.1286 8.66699 58.7959 8.66699C58.4587 8.66699 58.1898 8.57357 57.9893 8.38672C57.7887 8.19987 57.6885 7.96289 57.6885 7.67578ZM63.4922 6.5V17H61.5166V6.5H63.4922ZM68.5234 17.1367C67.9492 17.1367 67.4342 17.0456 66.9785 16.8633C66.5228 16.6764 66.1354 16.4189 65.8164 16.0908C65.502 15.7627 65.2604 15.3822 65.0918 14.9492C64.9232 14.5117 64.8389 14.0469 64.8389 13.5547V13.2812C64.8389 12.7207 64.9186 12.208 65.0781 11.7432C65.2376 11.2783 65.4655 10.875 65.7617 10.5332C66.0625 10.1914 66.4271 9.92936 66.8555 9.74707C67.2839 9.56022 67.7669 9.4668 68.3047 9.4668C68.8288 9.4668 69.2936 9.55339 69.6992 9.72656C70.1048 9.89974 70.4443 10.1458 70.7178 10.4648C70.9958 10.7839 71.2054 11.1667 71.3467 11.6133C71.488 12.0553 71.5586 12.5475 71.5586 13.0898V13.9102H65.6797V12.5977H69.624V12.4473C69.624 12.1738 69.5739 11.93 69.4736 11.7158C69.3779 11.4971 69.2321 11.3239 69.0361 11.1963C68.8402 11.0687 68.5895 11.0049 68.2842 11.0049C68.0244 11.0049 67.8011 11.0618 67.6143 11.1758C67.4274 11.2897 67.2747 11.4492 67.1562 11.6543C67.0423 11.8594 66.9557 12.1009 66.8965 12.3789C66.8418 12.6523 66.8145 12.9531 66.8145 13.2812V13.5547C66.8145 13.8509 66.8555 14.1243 66.9375 14.375C67.0241 14.6257 67.1449 14.8421 67.2998 15.0244C67.4593 15.2067 67.6507 15.348 67.874 15.4482C68.1019 15.5485 68.3594 15.5986 68.6465 15.5986C69.002 15.5986 69.3324 15.5303 69.6377 15.3936C69.9476 15.2523 70.2142 15.0404 70.4375 14.7578L71.3945 15.7969C71.2396 16.0202 71.0277 16.2344 70.7588 16.4395C70.4945 16.6445 70.1755 16.8132 69.8018 16.9453C69.4281 17.0729 69.002 17.1367 68.5234 17.1367ZM77.0479 15.3867V6.5H79.0303V17H77.2461L77.0479 15.3867ZM72.3721 13.3906V13.2471C72.3721 12.682 72.4359 12.1693 72.5635 11.709C72.6911 11.2441 72.8779 10.8454 73.124 10.5127C73.3701 10.18 73.6732 9.92253 74.0332 9.74023C74.3932 9.55794 74.8034 9.4668 75.2637 9.4668C75.6966 9.4668 76.0749 9.55794 76.3984 9.74023C76.7266 9.92253 77.0046 10.1823 77.2324 10.5195C77.4648 10.8522 77.6517 11.2464 77.793 11.7021C77.9342 12.1533 78.0368 12.6478 78.1006 13.1855V13.5C78.0368 14.015 77.9342 14.4935 77.793 14.9355C77.6517 15.3776 77.4648 15.765 77.2324 16.0977C77.0046 16.4258 76.7266 16.681 76.3984 16.8633C76.0703 17.0456 75.6875 17.1367 75.25 17.1367C74.7897 17.1367 74.3796 17.0433 74.0195 16.8564C73.6641 16.6696 73.3633 16.4076 73.1172 16.0703C72.8757 15.7331 72.6911 15.3366 72.5635 14.8809C72.4359 14.4251 72.3721 13.9284 72.3721 13.3906ZM74.3408 13.2471V13.3906C74.3408 13.696 74.3636 13.9808 74.4092 14.2451C74.4593 14.5094 74.5391 14.7441 74.6484 14.9492C74.7624 15.1497 74.9082 15.307 75.0859 15.4209C75.2682 15.5303 75.4893 15.585 75.749 15.585C76.0863 15.585 76.3643 15.5098 76.583 15.3594C76.8018 15.2044 76.9681 14.9925 77.082 14.7236C77.2005 14.4548 77.2689 14.1449 77.2871 13.7939V12.8984C77.2734 12.6113 77.2324 12.3538 77.1641 12.126C77.1003 11.8936 77.0046 11.6953 76.877 11.5312C76.7539 11.3672 76.599 11.2396 76.4121 11.1484C76.2298 11.0573 76.0133 11.0117 75.7627 11.0117C75.5075 11.0117 75.2887 11.071 75.1064 11.1895C74.9242 11.3034 74.776 11.4606 74.6621 11.6611C74.5527 11.8617 74.4707 12.0986 74.416 12.3721C74.3659 12.641 74.3408 12.9326 74.3408 13.2471Z" fill="#9E0038"/>
</svg>
