<svg width="122" height="24" viewBox="0 0 122 24" fill="none" xmlns="http://www.w3.org/2000/svg">
<rect x="0.760742" width="120.478" height="24" rx="12" fill="#D3FAD2"/>
<path d="M32.0703 14.3955C32.0703 14.2178 32.043 14.0583 31.9883 13.917C31.9382 13.7712 31.8424 13.639 31.7012 13.5205C31.5599 13.3975 31.3617 13.2767 31.1064 13.1582C30.8512 13.0397 30.5208 12.9167 30.1152 12.7891C29.6641 12.6432 29.2357 12.4792 28.8301 12.2969C28.429 12.1146 28.0736 11.9027 27.7637 11.6611C27.4583 11.415 27.2168 11.1302 27.0391 10.8066C26.8659 10.4831 26.7793 10.1071 26.7793 9.67871C26.7793 9.264 26.8704 8.88802 27.0527 8.55078C27.235 8.20898 27.4902 7.91732 27.8184 7.67578C28.1465 7.42969 28.5339 7.24056 28.9805 7.1084C29.4316 6.97624 29.9261 6.91016 30.4639 6.91016C31.1976 6.91016 31.8379 7.04232 32.3848 7.30664C32.9316 7.57096 33.3555 7.93327 33.6562 8.39355C33.9616 8.85384 34.1143 9.38021 34.1143 9.97266H32.0771C32.0771 9.68099 32.0156 9.42578 31.8926 9.20703C31.7741 8.98372 31.5918 8.80827 31.3457 8.68066C31.1042 8.55306 30.7988 8.48926 30.4297 8.48926C30.0742 8.48926 29.778 8.54395 29.541 8.65332C29.304 8.75814 29.1263 8.90169 29.0078 9.08398C28.8893 9.26172 28.8301 9.46224 28.8301 9.68555C28.8301 9.85417 28.8711 10.0068 28.9531 10.1436C29.0397 10.2803 29.1673 10.4079 29.3359 10.5264C29.5046 10.6449 29.7119 10.7565 29.958 10.8613C30.2041 10.9661 30.4889 11.0687 30.8125 11.1689C31.3548 11.333 31.8311 11.5176 32.2412 11.7227C32.6559 11.9277 33.0023 12.1579 33.2803 12.4131C33.5583 12.6683 33.7679 12.9577 33.9092 13.2812C34.0505 13.6048 34.1211 13.9717 34.1211 14.3818C34.1211 14.8148 34.0368 15.2021 33.8682 15.5439C33.6995 15.8857 33.4557 16.1751 33.1367 16.4121C32.8177 16.6491 32.4372 16.8291 31.9951 16.9521C31.5531 17.0752 31.0586 17.1367 30.5117 17.1367C30.0195 17.1367 29.5342 17.0729 29.0557 16.9453C28.5771 16.8132 28.1419 16.6149 27.75 16.3506C27.3626 16.0863 27.0527 15.749 26.8203 15.3389C26.5879 14.9287 26.4717 14.4434 26.4717 13.8828H28.5293C28.5293 14.1927 28.5771 14.4548 28.6729 14.6689C28.7686 14.8831 28.903 15.0563 29.0762 15.1885C29.2539 15.3206 29.4635 15.4163 29.7051 15.4756C29.9512 15.5348 30.2201 15.5645 30.5117 15.5645C30.8672 15.5645 31.1589 15.5143 31.3867 15.4141C31.6191 15.3138 31.79 15.1748 31.8994 14.9971C32.0133 14.8193 32.0703 14.6188 32.0703 14.3955ZM39.7676 15.2295V9.60352H41.7363V17H39.8838L39.7676 15.2295ZM39.9863 13.7119L40.5674 13.6982C40.5674 14.1904 40.5104 14.6484 40.3965 15.0723C40.2826 15.4915 40.1117 15.8561 39.8838 16.166C39.6559 16.4714 39.3688 16.7106 39.0225 16.8838C38.6761 17.0524 38.2682 17.1367 37.7988 17.1367C37.4388 17.1367 37.1061 17.0866 36.8008 16.9863C36.5 16.8815 36.2402 16.7197 36.0215 16.501C35.8073 16.2777 35.6387 15.9928 35.5156 15.6465C35.3971 15.2956 35.3379 14.874 35.3379 14.3818V9.60352H37.3066V14.3955C37.3066 14.6143 37.3317 14.7988 37.3818 14.9492C37.4365 15.0996 37.5117 15.2227 37.6074 15.3184C37.7031 15.4141 37.8148 15.4824 37.9424 15.5234C38.0745 15.5645 38.2204 15.585 38.3799 15.585C38.7855 15.585 39.1045 15.5029 39.3369 15.3389C39.5739 15.1748 39.7402 14.9515 39.8359 14.6689C39.9362 14.3818 39.9863 14.0628 39.9863 13.7119ZM46.2959 15.5986C46.5374 15.5986 46.7516 15.5531 46.9385 15.4619C47.1253 15.3662 47.2712 15.234 47.376 15.0654C47.4854 14.8923 47.5423 14.6895 47.5469 14.457H49.3994C49.3949 14.9766 49.2559 15.4391 48.9824 15.8447C48.709 16.2458 48.3421 16.5625 47.8818 16.7949C47.4215 17.0228 46.9066 17.1367 46.3369 17.1367C45.7627 17.1367 45.2614 17.041 44.833 16.8496C44.4092 16.6582 44.056 16.3939 43.7734 16.0566C43.4909 15.7148 43.279 15.3184 43.1377 14.8672C42.9964 14.4115 42.9258 13.9238 42.9258 13.4043V13.2061C42.9258 12.682 42.9964 12.1943 43.1377 11.7432C43.279 11.2874 43.4909 10.891 43.7734 10.5537C44.056 10.2119 44.4092 9.94531 44.833 9.75391C45.2568 9.5625 45.7536 9.4668 46.3232 9.4668C46.9294 9.4668 47.4603 9.58301 47.916 9.81543C48.3763 10.0479 48.7363 10.3805 48.9961 10.8135C49.2604 11.2419 49.3949 11.75 49.3994 12.3379H47.5469C47.5423 12.0918 47.4899 11.8685 47.3896 11.668C47.2939 11.4674 47.1527 11.3079 46.9658 11.1895C46.7835 11.0664 46.5579 11.0049 46.2891 11.0049C46.002 11.0049 45.7673 11.0664 45.585 11.1895C45.4027 11.3079 45.2614 11.472 45.1611 11.6816C45.0609 11.8867 44.9902 12.1214 44.9492 12.3857C44.9128 12.6455 44.8945 12.9189 44.8945 13.2061V13.4043C44.8945 13.6914 44.9128 13.9671 44.9492 14.2314C44.9857 14.4958 45.054 14.7305 45.1543 14.9355C45.2591 15.1406 45.4027 15.3024 45.585 15.4209C45.7673 15.5394 46.0042 15.5986 46.2959 15.5986ZM53.5967 15.5986C53.8382 15.5986 54.0524 15.5531 54.2393 15.4619C54.4261 15.3662 54.5719 15.234 54.6768 15.0654C54.7861 14.8923 54.8431 14.6895 54.8477 14.457H56.7002C56.6956 14.9766 56.5566 15.4391 56.2832 15.8447C56.0098 16.2458 55.6429 16.5625 55.1826 16.7949C54.7223 17.0228 54.2074 17.1367 53.6377 17.1367C53.0635 17.1367 52.5622 17.041 52.1338 16.8496C51.71 16.6582 51.3568 16.3939 51.0742 16.0566C50.7917 15.7148 50.5798 15.3184 50.4385 14.8672C50.2972 14.4115 50.2266 13.9238 50.2266 13.4043V13.2061C50.2266 12.682 50.2972 12.1943 50.4385 11.7432C50.5798 11.2874 50.7917 10.891 51.0742 10.5537C51.3568 10.2119 51.71 9.94531 52.1338 9.75391C52.5576 9.5625 53.0544 9.4668 53.624 9.4668C54.2301 9.4668 54.7611 9.58301 55.2168 9.81543C55.6771 10.0479 56.0371 10.3805 56.2969 10.8135C56.5612 11.2419 56.6956 11.75 56.7002 12.3379H54.8477C54.8431 12.0918 54.7907 11.8685 54.6904 11.668C54.5947 11.4674 54.4535 11.3079 54.2666 11.1895C54.0843 11.0664 53.8587 11.0049 53.5898 11.0049C53.3027 11.0049 53.068 11.0664 52.8857 11.1895C52.7035 11.3079 52.5622 11.472 52.4619 11.6816C52.3617 11.8867 52.291 12.1214 52.25 12.3857C52.2135 12.6455 52.1953 12.9189 52.1953 13.2061V13.4043C52.1953 13.6914 52.2135 13.9671 52.25 14.2314C52.2865 14.4958 52.3548 14.7305 52.4551 14.9355C52.5599 15.1406 52.7035 15.3024 52.8857 15.4209C53.068 15.5394 53.305 15.5986 53.5967 15.5986ZM61.2461 17.1367C60.6719 17.1367 60.1569 17.0456 59.7012 16.8633C59.2454 16.6764 58.8581 16.4189 58.5391 16.0908C58.2246 15.7627 57.9831 15.3822 57.8145 14.9492C57.6458 14.5117 57.5615 14.0469 57.5615 13.5547V13.2812C57.5615 12.7207 57.6413 12.208 57.8008 11.7432C57.9603 11.2783 58.1882 10.875 58.4844 10.5332C58.7852 10.1914 59.1497 9.92936 59.5781 9.74707C60.0065 9.56022 60.4896 9.4668 61.0273 9.4668C61.5514 9.4668 62.0163 9.55339 62.4219 9.72656C62.8275 9.89974 63.167 10.1458 63.4404 10.4648C63.7184 10.7839 63.9281 11.1667 64.0693 11.6133C64.2106 12.0553 64.2812 12.5475 64.2812 13.0898V13.9102H58.4023V12.5977H62.3467V12.4473C62.3467 12.1738 62.2965 11.93 62.1963 11.7158C62.1006 11.4971 61.9548 11.3239 61.7588 11.1963C61.5628 11.0687 61.3122 11.0049 61.0068 11.0049C60.7471 11.0049 60.5238 11.0618 60.3369 11.1758C60.1501 11.2897 59.9974 11.4492 59.8789 11.6543C59.765 11.8594 59.6784 12.1009 59.6191 12.3789C59.5645 12.6523 59.5371 12.9531 59.5371 13.2812V13.5547C59.5371 13.8509 59.5781 14.1243 59.6602 14.375C59.7467 14.6257 59.8675 14.8421 60.0225 15.0244C60.182 15.2067 60.3734 15.348 60.5967 15.4482C60.8245 15.5485 61.082 15.5986 61.3691 15.5986C61.7246 15.5986 62.055 15.5303 62.3604 15.3936C62.6702 15.2523 62.9368 15.0404 63.1602 14.7578L64.1172 15.7969C63.9622 16.0202 63.7503 16.2344 63.4814 16.4395C63.2171 16.6445 62.8981 16.8132 62.5244 16.9453C62.1507 17.0729 61.7246 17.1367 61.2461 17.1367ZM68.8066 17.1367C68.2324 17.1367 67.7174 17.0456 67.2617 16.8633C66.806 16.6764 66.4186 16.4189 66.0996 16.0908C65.7852 15.7627 65.5436 15.3822 65.375 14.9492C65.2064 14.5117 65.1221 14.0469 65.1221 13.5547V13.2812C65.1221 12.7207 65.2018 12.208 65.3613 11.7432C65.5208 11.2783 65.7487 10.875 66.0449 10.5332C66.3457 10.1914 66.7103 9.92936 67.1387 9.74707C67.5671 9.56022 68.0501 9.4668 68.5879 9.4668C69.112 9.4668 69.5768 9.55339 69.9824 9.72656C70.388 9.89974 70.7275 10.1458 71.001 10.4648C71.279 10.7839 71.4886 11.1667 71.6299 11.6133C71.7712 12.0553 71.8418 12.5475 71.8418 13.0898V13.9102H65.9629V12.5977H69.9072V12.4473C69.9072 12.1738 69.8571 11.93 69.7568 11.7158C69.6611 11.4971 69.5153 11.3239 69.3193 11.1963C69.1234 11.0687 68.8727 11.0049 68.5674 11.0049C68.3076 11.0049 68.0843 11.0618 67.8975 11.1758C67.7106 11.2897 67.5579 11.4492 67.4395 11.6543C67.3255 11.8594 67.2389 12.1009 67.1797 12.3789C67.125 12.6523 67.0977 12.9531 67.0977 13.2812V13.5547C67.0977 13.8509 67.1387 14.1243 67.2207 14.375C67.3073 14.6257 67.4281 14.8421 67.583 15.0244C67.7425 15.2067 67.9339 15.348 68.1572 15.4482C68.3851 15.5485 68.6426 15.5986 68.9297 15.5986C69.2852 15.5986 69.6156 15.5303 69.9209 15.3936C70.2308 15.2523 70.4974 15.0404 70.7207 14.7578L71.6777 15.7969C71.5228 16.0202 71.3109 16.2344 71.042 16.4395C70.7777 16.6445 70.4587 16.8132 70.085 16.9453C69.7113 17.0729 69.2852 17.1367 68.8066 17.1367ZM77.3311 15.3867V6.5H79.3135V17H77.5293L77.3311 15.3867ZM72.6553 13.3906V13.2471C72.6553 12.682 72.7191 12.1693 72.8467 11.709C72.9743 11.2441 73.1611 10.8454 73.4072 10.5127C73.6533 10.18 73.9564 9.92253 74.3164 9.74023C74.6764 9.55794 75.0866 9.4668 75.5469 9.4668C75.9798 9.4668 76.3581 9.55794 76.6816 9.74023C77.0098 9.92253 77.2878 10.1823 77.5156 10.5195C77.748 10.8522 77.9349 11.2464 78.0762 11.7021C78.2174 12.1533 78.32 12.6478 78.3838 13.1855V13.5C78.32 14.015 78.2174 14.4935 78.0762 14.9355C77.9349 15.3776 77.748 15.765 77.5156 16.0977C77.2878 16.4258 77.0098 16.681 76.6816 16.8633C76.3535 17.0456 75.9707 17.1367 75.5332 17.1367C75.0729 17.1367 74.6628 17.0433 74.3027 16.8564C73.9473 16.6696 73.6465 16.4076 73.4004 16.0703C73.1589 15.7331 72.9743 15.3366 72.8467 14.8809C72.7191 14.4251 72.6553 13.9284 72.6553 13.3906ZM74.624 13.2471V13.3906C74.624 13.696 74.6468 13.9808 74.6924 14.2451C74.7425 14.5094 74.8223 14.7441 74.9316 14.9492C75.0456 15.1497 75.1914 15.307 75.3691 15.4209C75.5514 15.5303 75.7725 15.585 76.0322 15.585C76.3695 15.585 76.6475 15.5098 76.8662 15.3594C77.085 15.2044 77.2513 14.9925 77.3652 14.7236C77.4837 14.4548 77.5521 14.1449 77.5703 13.7939V12.8984C77.5566 12.6113 77.5156 12.3538 77.4473 12.126C77.3835 11.8936 77.2878 11.6953 77.1602 11.5312C77.0371 11.3672 76.8822 11.2396 76.6953 11.1484C76.513 11.0573 76.2965 11.0117 76.0459 11.0117C75.7907 11.0117 75.5719 11.071 75.3896 11.1895C75.2074 11.3034 75.0592 11.4606 74.9453 11.6611C74.8359 11.8617 74.7539 12.0986 74.6992 12.3721C74.6491 12.641 74.624 12.9326 74.624 13.2471ZM84.2559 17.1367C83.6816 17.1367 83.1667 17.0456 82.7109 16.8633C82.2552 16.6764 81.8678 16.4189 81.5488 16.0908C81.2344 15.7627 80.9928 15.3822 80.8242 14.9492C80.6556 14.5117 80.5713 14.0469 80.5713 13.5547V13.2812C80.5713 12.7207 80.651 12.208 80.8105 11.7432C80.9701 11.2783 81.1979 10.875 81.4941 10.5332C81.7949 10.1914 82.1595 9.92936 82.5879 9.74707C83.0163 9.56022 83.4993 9.4668 84.0371 9.4668C84.5612 9.4668 85.026 9.55339 85.4316 9.72656C85.8372 9.89974 86.1768 10.1458 86.4502 10.4648C86.7282 10.7839 86.9378 11.1667 87.0791 11.6133C87.2204 12.0553 87.291 12.5475 87.291 13.0898V13.9102H81.4121V12.5977H85.3564V12.4473C85.3564 12.1738 85.3063 11.93 85.2061 11.7158C85.1104 11.4971 84.9645 11.3239 84.7686 11.1963C84.5726 11.0687 84.3219 11.0049 84.0166 11.0049C83.7568 11.0049 83.5335 11.0618 83.3467 11.1758C83.1598 11.2897 83.0072 11.4492 82.8887 11.6543C82.7747 11.8594 82.6882 12.1009 82.6289 12.3789C82.5742 12.6523 82.5469 12.9531 82.5469 13.2812V13.5547C82.5469 13.8509 82.5879 14.1243 82.6699 14.375C82.7565 14.6257 82.8773 14.8421 83.0322 15.0244C83.1917 15.2067 83.3831 15.348 83.6064 15.4482C83.8343 15.5485 84.0918 15.5986 84.3789 15.5986C84.7344 15.5986 85.0648 15.5303 85.3701 15.3936C85.68 15.2523 85.9466 15.0404 86.1699 14.7578L87.127 15.7969C86.972 16.0202 86.7601 16.2344 86.4912 16.4395C86.2269 16.6445 85.9079 16.8132 85.5342 16.9453C85.1605 17.0729 84.7344 17.1367 84.2559 17.1367ZM92.7803 15.3867V6.5H94.7627V17H92.9785L92.7803 15.3867ZM88.1045 13.3906V13.2471C88.1045 12.682 88.1683 12.1693 88.2959 11.709C88.4235 11.2441 88.6104 10.8454 88.8564 10.5127C89.1025 10.18 89.4056 9.92253 89.7656 9.74023C90.1257 9.55794 90.5358 9.4668 90.9961 9.4668C91.429 9.4668 91.8073 9.55794 92.1309 9.74023C92.459 9.92253 92.737 10.1823 92.9648 10.5195C93.1973 10.8522 93.3841 11.2464 93.5254 11.7021C93.6667 12.1533 93.7692 12.6478 93.833 13.1855V13.5C93.7692 14.015 93.6667 14.4935 93.5254 14.9355C93.3841 15.3776 93.1973 15.765 92.9648 16.0977C92.737 16.4258 92.459 16.681 92.1309 16.8633C91.8027 17.0456 91.4199 17.1367 90.9824 17.1367C90.5221 17.1367 90.112 17.0433 89.752 16.8564C89.3965 16.6696 89.0957 16.4076 88.8496 16.0703C88.6081 15.7331 88.4235 15.3366 88.2959 14.8809C88.1683 14.4251 88.1045 13.9284 88.1045 13.3906ZM90.0732 13.2471V13.3906C90.0732 13.696 90.096 13.9808 90.1416 14.2451C90.1917 14.5094 90.2715 14.7441 90.3809 14.9492C90.4948 15.1497 90.6406 15.307 90.8184 15.4209C91.0007 15.5303 91.2217 15.585 91.4814 15.585C91.8187 15.585 92.0967 15.5098 92.3154 15.3594C92.5342 15.2044 92.7005 14.9925 92.8145 14.7236C92.9329 14.4548 93.0013 14.1449 93.0195 13.7939V12.8984C93.0059 12.6113 92.9648 12.3538 92.8965 12.126C92.8327 11.8936 92.737 11.6953 92.6094 11.5312C92.4863 11.3672 92.3314 11.2396 92.1445 11.1484C91.9622 11.0573 91.7458 11.0117 91.4951 11.0117C91.2399 11.0117 91.0212 11.071 90.8389 11.1895C90.6566 11.3034 90.5085 11.4606 90.3945 11.6611C90.2852 11.8617 90.2031 12.0986 90.1484 12.3721C90.0983 12.641 90.0732 12.9326 90.0732 13.2471Z" fill="#067306"/>
</svg>
