<svg width="351" height="99" viewBox="0 0 351 99" fill="none" xmlns="http://www.w3.org/2000/svg">
<path d="M123.855 9.152C125.631 9.152 127.183 9.504 128.511 10.208C129.839 10.912 130.863 11.904 131.583 13.184C132.319 14.448 132.687 15.912 132.687 17.576C132.687 19.224 132.319 20.688 131.583 21.968C130.863 23.248 129.831 24.24 128.487 24.944C127.159 25.648 125.615 26 123.855 26H117.543V9.152H123.855ZM123.591 22.448C125.143 22.448 126.351 22.024 127.215 21.176C128.079 20.328 128.511 19.128 128.511 17.576C128.511 16.024 128.079 14.816 127.215 13.952C126.351 13.088 125.143 12.656 123.591 12.656H121.647V22.448H123.591ZM137.044 11.216C136.324 11.216 135.732 11.008 135.268 10.592C134.82 10.16 134.596 9.632 134.596 9.008C134.596 8.368 134.82 7.84 135.268 7.424C135.732 6.992 136.324 6.776 137.044 6.776C137.748 6.776 138.324 6.992 138.772 7.424C139.236 7.84 139.468 8.368 139.468 9.008C139.468 9.632 139.236 10.16 138.772 10.592C138.324 11.008 137.748 11.216 137.044 11.216ZM139.084 12.608V26H134.98V12.608H139.084ZM147.506 26.192C146.338 26.192 145.298 25.992 144.386 25.592C143.474 25.192 142.754 24.648 142.226 23.96C141.698 23.256 141.402 22.472 141.338 21.608H145.394C145.442 22.072 145.658 22.448 146.042 22.736C146.426 23.024 146.898 23.168 147.458 23.168C147.97 23.168 148.362 23.072 148.634 22.88C148.922 22.672 149.066 22.408 149.066 22.088C149.066 21.704 148.866 21.424 148.466 21.248C148.066 21.056 147.418 20.848 146.522 20.624C145.562 20.4 144.762 20.168 144.122 19.928C143.482 19.672 142.93 19.28 142.466 18.752C142.002 18.208 141.77 17.48 141.77 16.568C141.77 15.8 141.978 15.104 142.394 14.48C142.826 13.84 143.45 13.336 144.266 12.968C145.098 12.6 146.082 12.416 147.218 12.416C148.898 12.416 150.218 12.832 151.178 13.664C152.154 14.496 152.714 15.6 152.858 16.976H149.066C149.002 16.512 148.794 16.144 148.442 15.872C148.106 15.6 147.658 15.464 147.098 15.464C146.618 15.464 146.25 15.56 145.994 15.752C145.738 15.928 145.61 16.176 145.61 16.496C145.61 16.88 145.81 17.168 146.21 17.36C146.626 17.552 147.266 17.744 148.13 17.936C149.122 18.192 149.93 18.448 150.554 18.704C151.178 18.944 151.722 19.344 152.186 19.904C152.666 20.448 152.914 21.184 152.93 22.112C152.93 22.896 152.706 23.6 152.258 24.224C151.826 24.832 151.194 25.312 150.362 25.664C149.546 26.016 148.594 26.192 147.506 26.192ZM154.625 19.304C154.625 17.912 154.905 16.696 155.465 15.656C156.041 14.616 156.833 13.816 157.841 13.256C158.865 12.696 160.033 12.416 161.345 12.416C163.025 12.416 164.425 12.856 165.545 13.736C166.681 14.616 167.425 15.856 167.777 17.456H163.409C163.041 16.432 162.329 15.92 161.273 15.92C160.521 15.92 159.921 16.216 159.473 16.808C159.025 17.384 158.801 18.216 158.801 19.304C158.801 20.392 159.025 21.232 159.473 21.824C159.921 22.4 160.521 22.688 161.273 22.688C162.329 22.688 163.041 22.176 163.409 21.152H167.777C167.425 22.72 166.681 23.952 165.545 24.848C164.409 25.744 163.009 26.192 161.345 26.192C160.033 26.192 158.865 25.912 157.841 25.352C156.833 24.792 156.041 23.992 155.465 22.952C154.905 21.912 154.625 20.696 154.625 19.304ZM176.068 26.192C174.756 26.192 173.572 25.912 172.516 25.352C171.476 24.792 170.652 23.992 170.044 22.952C169.452 21.912 169.156 20.696 169.156 19.304C169.156 17.928 169.46 16.72 170.068 15.68C170.676 14.624 171.508 13.816 172.564 13.256C173.62 12.696 174.804 12.416 176.116 12.416C177.428 12.416 178.612 12.696 179.668 13.256C180.724 13.816 181.556 14.624 182.164 15.68C182.772 16.72 183.076 17.928 183.076 19.304C183.076 20.68 182.764 21.896 182.14 22.952C181.532 23.992 180.692 24.792 179.62 25.352C178.564 25.912 177.38 26.192 176.068 26.192ZM176.068 22.64C176.852 22.64 177.516 22.352 178.06 21.776C178.62 21.2 178.9 20.376 178.9 19.304C178.9 18.232 178.628 17.408 178.084 16.832C177.556 16.256 176.9 15.968 176.116 15.968C175.316 15.968 174.652 16.256 174.124 16.832C173.596 17.392 173.332 18.216 173.332 19.304C173.332 20.376 173.588 21.2 174.1 21.776C174.628 22.352 175.284 22.64 176.068 22.64ZM198.478 12.608V26H194.374V24.176C193.958 24.768 193.39 25.248 192.67 25.616C191.966 25.968 191.182 26.144 190.318 26.144C189.294 26.144 188.39 25.92 187.606 25.472C186.822 25.008 186.214 24.344 185.782 23.48C185.35 22.616 185.134 21.6 185.134 20.432V12.608H189.214V19.88C189.214 20.776 189.446 21.472 189.91 21.968C190.374 22.464 190.998 22.712 191.782 22.712C192.582 22.712 193.214 22.464 193.678 21.968C194.142 21.472 194.374 20.776 194.374 19.88V12.608H198.478ZM209.586 12.464C211.154 12.464 212.402 12.976 213.33 14C214.274 15.008 214.746 16.4 214.746 18.176V26H210.666V18.728C210.666 17.832 210.434 17.136 209.97 16.64C209.506 16.144 208.882 15.896 208.098 15.896C207.314 15.896 206.69 16.144 206.226 16.64C205.762 17.136 205.53 17.832 205.53 18.728V26H201.426V12.608H205.53V14.384C205.946 13.792 206.506 13.328 207.21 12.992C207.914 12.64 208.706 12.464 209.586 12.464ZM225.061 22.52V26H222.973C221.485 26 220.325 25.64 219.493 24.92C218.661 24.184 218.245 22.992 218.245 21.344V16.016H216.613V12.608H218.245V9.344H222.349V12.608H225.037V16.016H222.349V21.392C222.349 21.792 222.445 22.08 222.637 22.256C222.829 22.432 223.149 22.52 223.597 22.52H225.061ZM251.513 9.152V26H247.409V15.896L243.641 26H240.329L236.537 15.872V26H232.433V9.152H237.281L242.009 20.816L246.689 9.152H251.513ZM267.089 19.088C267.089 19.472 267.065 19.872 267.017 20.288H257.729C257.793 21.12 258.057 21.76 258.521 22.208C259.001 22.64 259.585 22.856 260.273 22.856C261.297 22.856 262.009 22.424 262.409 21.56H266.777C266.553 22.44 266.145 23.232 265.553 23.936C264.977 24.64 264.249 25.192 263.369 25.592C262.489 25.992 261.505 26.192 260.417 26.192C259.105 26.192 257.937 25.912 256.913 25.352C255.889 24.792 255.089 23.992 254.513 22.952C253.937 21.912 253.649 20.696 253.649 19.304C253.649 17.912 253.929 16.696 254.489 15.656C255.065 14.616 255.865 13.816 256.889 13.256C257.913 12.696 259.089 12.416 260.417 12.416C261.713 12.416 262.865 12.688 263.873 13.232C264.881 13.776 265.665 14.552 266.225 15.56C266.801 16.568 267.089 17.744 267.089 19.088ZM262.889 18.008C262.889 17.304 262.649 16.744 262.169 16.328C261.689 15.912 261.089 15.704 260.369 15.704C259.681 15.704 259.097 15.904 258.617 16.304C258.153 16.704 257.865 17.272 257.753 18.008H262.889ZM273.358 14.84C273.838 14.104 274.438 13.528 275.158 13.112C275.878 12.68 276.678 12.464 277.558 12.464V16.808H276.43C275.406 16.808 274.638 17.032 274.126 17.48C273.614 17.912 273.358 18.68 273.358 19.784V26H269.254V12.608H273.358V14.84ZM278.703 19.304C278.703 17.912 278.983 16.696 279.543 15.656C280.119 14.616 280.911 13.816 281.919 13.256C282.943 12.696 284.111 12.416 285.423 12.416C287.103 12.416 288.503 12.856 289.623 13.736C290.759 14.616 291.503 15.856 291.855 17.456H287.487C287.119 16.432 286.407 15.92 285.351 15.92C284.599 15.92 283.999 16.216 283.551 16.808C283.103 17.384 282.879 18.216 282.879 19.304C282.879 20.392 283.103 21.232 283.551 21.824C283.999 22.4 284.599 22.688 285.351 22.688C286.407 22.688 287.119 22.176 287.487 21.152H291.855C291.503 22.72 290.759 23.952 289.623 24.848C288.487 25.744 287.087 26.192 285.423 26.192C284.111 26.192 282.943 25.912 281.919 25.352C280.911 24.792 280.119 23.992 279.543 22.952C278.983 21.912 278.703 20.696 278.703 19.304ZM302.283 12.464C303.819 12.464 305.051 12.976 305.979 14C306.907 15.008 307.371 16.4 307.371 18.176V26H303.291V18.728C303.291 17.832 303.059 17.136 302.595 16.64C302.131 16.144 301.507 15.896 300.723 15.896C299.939 15.896 299.315 16.144 298.851 16.64C298.387 17.136 298.155 17.832 298.155 18.728V26H294.051V8.24H298.155V14.408C298.571 13.816 299.139 13.344 299.859 12.992C300.579 12.64 301.387 12.464 302.283 12.464ZM309.406 19.28C309.406 17.904 309.662 16.696 310.174 15.656C310.702 14.616 311.414 13.816 312.31 13.256C313.206 12.696 314.206 12.416 315.31 12.416C316.254 12.416 317.078 12.608 317.782 12.992C318.502 13.376 319.054 13.88 319.438 14.504V12.608H323.542V26H319.438V24.104C319.038 24.728 318.478 25.232 317.758 25.616C317.054 26 316.23 26.192 315.286 26.192C314.198 26.192 313.206 25.912 312.31 25.352C311.414 24.776 310.702 23.968 310.174 22.928C309.662 21.872 309.406 20.656 309.406 19.28ZM319.438 19.304C319.438 18.28 319.15 17.472 318.574 16.88C318.014 16.288 317.326 15.992 316.51 15.992C315.694 15.992 314.998 16.288 314.422 16.88C313.862 17.456 313.582 18.256 313.582 19.28C313.582 20.304 313.862 21.12 314.422 21.728C314.998 22.32 315.694 22.616 316.51 22.616C317.326 22.616 318.014 22.32 318.574 21.728C319.15 21.136 319.438 20.328 319.438 19.304ZM334.671 12.464C336.239 12.464 337.487 12.976 338.415 14C339.359 15.008 339.831 16.4 339.831 18.176V26H335.751V18.728C335.751 17.832 335.519 17.136 335.055 16.64C334.591 16.144 333.967 15.896 333.183 15.896C332.399 15.896 331.775 16.144 331.311 16.64C330.847 17.136 330.615 17.832 330.615 18.728V26H326.511V12.608H330.615V14.384C331.031 13.792 331.591 13.328 332.295 12.992C332.999 12.64 333.791 12.464 334.671 12.464ZM350.147 22.52V26H348.059C346.571 26 345.411 25.64 344.579 24.92C343.747 24.184 343.331 22.992 343.331 21.344V16.016H341.699V12.608H343.331V9.344H347.435V12.608H350.123V16.016H347.435V21.392C347.435 21.792 347.531 22.08 347.723 22.256C347.915 22.432 348.235 22.52 348.683 22.52H350.147Z" fill="#333333"/>
<circle cx="49.5" cy="49.5" r="49.5" fill="#F7EEFF"/>
<g clip-path="url(#clip0_1081_27189)">
<path d="M78.0055 27.7401C77.7721 27.5049 77.456 27.3726 77.1265 27.3726H77.0596C77.0548 27.3726 77.0487 27.3738 77.0426 27.3738C77.0378 27.3738 77.0329 27.3726 77.028 27.3726H66.8886V23.395C66.8886 20.7024 65.6072 18.1751 63.4444 16.5961C61.2804 15.0183 58.4975 14.5797 55.959 15.4189C53.4217 14.5797 50.6389 15.0183 48.4773 16.5961C46.3157 18.1751 45.0355 20.7036 45.0367 23.395V27.3726H37.4941C37.1647 27.3726 36.8486 27.5049 36.6152 27.7401C36.3829 27.9741 36.2516 28.2926 36.2516 28.6258V58.3067L38.5421 56.5893L38.7366 56.4435V29.8777H45.0367V33.9571C45.0367 34.648 45.5935 35.209 46.2792 35.209C46.9661 35.209 47.5217 34.648 47.5217 33.9571V29.8777H59.2124V33.9571C59.2124 34.648 59.768 35.209 60.4549 35.209C61.1418 35.209 61.6974 34.648 61.6974 33.9571V29.8777H67.398V56.3553L68.4922 56.0037L69.8843 55.5578V32.5005C70.7766 33.0848 71.8185 33.3972 72.8847 33.3972C73.9497 33.3972 74.9916 33.0861 75.884 32.5005V53.6321C76.3654 53.4887 76.8724 53.474 77.3599 53.5818C77.7125 53.659 78.0541 53.7999 78.3702 54.0033V28.6258C78.3702 28.2926 78.2389 27.9741 78.0055 27.7401ZM50.228 23.395V27.3738H47.5217V23.395C47.5241 21.9899 48.0238 20.6313 48.9307 19.5643C49.8377 18.4973 51.0936 17.7917 52.471 17.5737C50.831 19.4504 50.228 21.9984 50.228 23.395ZM59.2124 27.3738H52.713V23.395C52.7737 22.3843 53.0388 21.3969 53.491 20.4929C54.0782 19.3095 54.8855 18.501 55.8934 18.0833V18.0845C56.8866 18.5647 57.7255 19.3181 58.3127 20.2577C58.8999 21.1973 59.2112 22.2839 59.2124 23.395V27.3738ZM64.4036 27.3738H61.6974V23.395C61.6986 21.2156 60.8561 19.1221 59.3473 17.5602C60.7479 17.7537 62.0305 18.452 62.9593 19.5239C63.8894 20.5958 64.4012 21.9715 64.4036 23.395V27.3738ZM72.8835 30.8933C72.0264 30.8933 71.2094 30.5233 70.6417 29.8777H75.1266C74.5576 30.5233 73.7418 30.8933 72.8835 30.8933Z" fill="#61308C"/>
<path d="M50.0091 38.9294C49.3101 38.225 48.3618 37.8293 47.3734 37.8293C46.385 37.8293 45.4367 38.225 44.7376 38.9294C44.0386 39.6338 43.6446 40.5893 43.6446 41.5865C43.6459 42.5812 44.0398 43.5367 44.7376 44.2411C45.4367 44.9455 46.385 45.3412 47.3734 45.3424C48.3618 45.3424 49.3101 44.9467 50.0091 44.2423C50.7082 43.5379 51.1009 42.5824 51.1009 41.5865C51.1009 40.5893 50.7082 39.6338 50.0091 38.9294ZM48.2523 42.4709C47.8961 42.8299 47.3624 42.9364 46.898 42.7429C46.4336 42.5493 46.1309 42.0924 46.1309 41.5865C46.1309 40.8943 46.6877 40.3345 47.3734 40.3333C47.8755 40.3333 48.3289 40.6383 48.521 41.1063C48.7131 41.5742 48.6073 42.1132 48.2523 42.4709Z" fill="#61308C"/>
<path d="M61.4263 48.9023C60.7272 48.1979 59.7789 47.8022 58.7893 47.8022C57.8021 47.8022 56.8538 48.1992 56.1548 48.9023C55.4557 49.6067 55.063 50.5622 55.0618 51.5582C55.0618 52.5541 55.4545 53.5096 56.1535 54.214C56.8526 54.9184 57.8009 55.3141 58.7893 55.3141C59.7789 55.3141 60.7272 54.9184 61.4263 54.214C62.1253 53.5096 62.518 52.5541 62.518 51.5582C62.518 50.5622 62.1253 49.6067 61.4263 48.9023ZM59.2659 52.7146C58.8015 52.9081 58.2665 52.8015 57.9115 52.4438C57.5565 52.0849 57.4495 51.5471 57.6416 51.0792C57.8337 50.6112 58.2872 50.3062 58.7893 50.3062C59.4762 50.3074 60.0318 50.8672 60.033 51.5582C60.033 52.0641 59.7291 52.521 59.2659 52.7146Z" fill="#61308C"/>
<path d="M60.4926 40.2708L47.749 54.2618C47.5265 54.5068 47.2165 54.6525 46.8871 54.666C46.5576 54.6807 46.2366 54.5619 45.9935 54.3377C45.7503 54.1123 45.6069 53.7999 45.5923 53.4692C45.5911 53.4508 45.5911 53.4324 45.5911 53.4141C45.5911 53.1017 45.7078 52.8003 45.9181 52.5688L58.6616 38.5778C59.1261 38.0682 59.9114 38.0339 60.4172 38.5019C60.9229 38.9686 60.957 39.7612 60.4926 40.2708Z" fill="#61308C"/>
<path d="M37.9148 78.843L37.4431 79.4898H37.4419L33.8299 84.4279C33.4141 85.0551 32.5132 85.1947 31.8907 84.706L29.9832 83.2874L27.8034 81.6655H27.8022L27.0678 81.1191L24.6485 79.3208L21.5678 77.0275C20.9453 76.54 20.8067 75.6322 21.2906 75.0038L24.6497 70.4933L25.4472 69.4214L27.0691 70.6476L36.0766 77.4551H36.0778L37.9148 78.843Z" fill="#61308C"/>
<path d="M78.9903 59.1606C78.9222 59.9973 78.5745 60.7654 77.8827 61.324L77.6226 61.5322L76.639 62.3224L76.2877 62.6041L75.202 63.4751L75.0537 63.5939L70.9043 66.9223L70.1505 67.5275L59.5504 76.0328L59.5273 76.0512C59.3716 76.1688 59.2148 76.2827 59.0543 76.3905C57.7316 77.2786 56.2034 77.8164 54.6035 77.8936C54.2168 77.912 53.8254 77.9034 53.4315 77.8667L53.3464 77.8593L41.2107 76.7837L40.9554 76.7617L40.8253 76.7494L38.829 75.2574L38.7986 75.2353L27.942 67.1196L32.1266 63.9798L33.4469 62.99L35.2037 61.6731L36.6164 60.6135L38.8461 58.9413L39.0357 58.7992L40.1348 57.9748C41.5195 56.9984 43.1134 56.4398 44.7765 56.5084L59.8069 56.9274C60.4999 56.9972 61.1236 57.2753 61.6074 57.7653C62.0925 58.3239 62.3004 58.9511 62.3004 59.6494C62.236 60.687 61.5138 61.6045 60.5217 61.9536C60.4476 61.9794 60.3698 62.0014 60.292 62.021L59.6695 62.1607C59.2501 62.2599 58.8319 62.353 58.4124 62.4387C57.5371 62.6225 56.6629 62.7793 55.7864 62.9141C55.0217 63.0317 54.257 63.1321 53.4886 63.2142C52.2777 63.3465 51.0595 63.4359 49.8328 63.4874L46.9928 63.627C46.092 63.6968 45.3309 64.4637 45.4002 65.4425C45.4695 66.349 46.2306 67.1171 47.2019 67.0473L49.6942 66.926L50.0407 66.9076C51.6443 66.8439 53.2345 66.7092 54.8162 66.5083C56.7201 66.2669 58.6082 65.9313 60.4999 65.5123L61.1235 65.3727C61.2597 65.3408 61.3922 65.3041 61.5247 65.26C62.3624 65.0003 63.1125 64.5629 63.7411 63.9982C64.9276 62.9337 65.679 61.4061 65.7641 59.7192V59.0908L66.9434 58.7122L68.0084 58.3705L69.3639 57.9368L70.5384 57.5595L75.1157 56.0895C75.1448 56.0797 75.1765 56.0699 75.2056 56.0613C75.6749 55.9216 76.1685 55.9069 76.6427 56.0123C76.9855 56.087 77.3186 56.2242 77.6262 56.4227C77.8171 56.5439 77.997 56.6897 78.1636 56.8576C78.7824 57.486 79.0596 58.3239 78.9903 59.1606Z" fill="#61308C"/>
</g>
<path d="M117.324 47.242V53.416C117.324 54.284 117.534 54.928 117.954 55.348C118.383 55.768 118.976 55.978 119.732 55.978C120.479 55.978 121.062 55.768 121.482 55.348C121.911 54.928 122.126 54.284 122.126 53.416V47.242H123.4V53.402C123.4 54.214 123.237 54.9 122.91 55.46C122.583 56.0107 122.14 56.4213 121.58 56.692C121.029 56.9627 120.409 57.098 119.718 57.098C119.027 57.098 118.402 56.9627 117.842 56.692C117.291 56.4213 116.853 56.0107 116.526 55.46C116.209 54.9 116.05 54.214 116.05 53.402V47.242H117.324ZM126.799 50.742C127.051 50.3033 127.425 49.9393 127.919 49.65C128.423 49.3513 129.007 49.202 129.669 49.202C130.351 49.202 130.967 49.3653 131.517 49.692C132.077 50.0187 132.516 50.4807 132.833 51.078C133.151 51.666 133.309 52.352 133.309 53.136C133.309 53.9107 133.151 54.6013 132.833 55.208C132.516 55.8147 132.077 56.286 131.517 56.622C130.967 56.958 130.351 57.126 129.669 57.126C129.016 57.126 128.437 56.9813 127.933 56.692C127.439 56.3933 127.061 56.0247 126.799 55.586V60.64H125.525V49.328H126.799V50.742ZM132.007 53.136C132.007 52.5573 131.891 52.0533 131.657 51.624C131.424 51.1947 131.107 50.868 130.705 50.644C130.313 50.42 129.879 50.308 129.403 50.308C128.937 50.308 128.503 50.4247 128.101 50.658C127.709 50.882 127.392 51.2133 127.149 51.652C126.916 52.0813 126.799 52.5807 126.799 53.15C126.799 53.7287 126.916 54.2373 127.149 54.676C127.392 55.1053 127.709 55.4367 128.101 55.67C128.503 55.894 128.937 56.006 129.403 56.006C129.879 56.006 130.313 55.894 130.705 55.67C131.107 55.4367 131.424 55.1053 131.657 54.676C131.891 54.2373 132.007 53.724 132.007 53.136ZM140.273 50.378V54.9C140.273 55.2733 140.352 55.5393 140.511 55.698C140.669 55.8473 140.945 55.922 141.337 55.922H142.275V57H141.127C140.417 57 139.885 56.8367 139.531 56.51C139.176 56.1833 138.999 55.6467 138.999 54.9V50.378H138.005V49.328H138.999V47.396H140.273V49.328H142.275V50.378H140.273ZM147.164 57.126C146.446 57.126 145.792 56.9627 145.204 56.636C144.626 56.3093 144.168 55.8473 143.832 55.25C143.506 54.6433 143.342 53.9433 143.342 53.15C143.342 52.366 143.51 51.6753 143.846 51.078C144.192 50.4713 144.658 50.0093 145.246 49.692C145.834 49.3653 146.492 49.202 147.22 49.202C147.948 49.202 148.606 49.3653 149.194 49.692C149.782 50.0093 150.244 50.4667 150.58 51.064C150.926 51.6613 151.098 52.3567 151.098 53.15C151.098 53.9433 150.921 54.6433 150.566 55.25C150.221 55.8473 149.75 56.3093 149.152 56.636C148.555 56.9627 147.892 57.126 147.164 57.126ZM147.164 56.006C147.622 56.006 148.051 55.8987 148.452 55.684C148.854 55.4693 149.176 55.1473 149.418 54.718C149.67 54.2887 149.796 53.766 149.796 53.15C149.796 52.534 149.675 52.0113 149.432 51.582C149.19 51.1527 148.872 50.8353 148.48 50.63C148.088 50.4153 147.664 50.308 147.206 50.308C146.74 50.308 146.31 50.4153 145.918 50.63C145.536 50.8353 145.228 51.1527 144.994 51.582C144.761 52.0113 144.644 52.534 144.644 53.15C144.644 53.7753 144.756 54.3027 144.98 54.732C145.214 55.1613 145.522 55.4833 145.904 55.698C146.287 55.9033 146.707 56.006 147.164 56.006ZM156.03 53.136C156.03 52.352 156.188 51.666 156.506 51.078C156.823 50.4807 157.257 50.0187 157.808 49.692C158.368 49.3653 158.988 49.202 159.67 49.202C160.342 49.202 160.925 49.3467 161.42 49.636C161.914 49.9253 162.283 50.2893 162.526 50.728V49.328H163.814V57H162.526V55.572C162.274 56.02 161.896 56.3933 161.392 56.692C160.897 56.9813 160.318 57.126 159.656 57.126C158.974 57.126 158.358 56.958 157.808 56.622C157.257 56.286 156.823 55.8147 156.506 55.208C156.188 54.6013 156.03 53.9107 156.03 53.136ZM162.526 53.15C162.526 52.5713 162.409 52.0673 162.176 51.638C161.942 51.2087 161.625 50.882 161.224 50.658C160.832 50.4247 160.398 50.308 159.922 50.308C159.446 50.308 159.012 50.42 158.62 50.644C158.228 50.868 157.915 51.1947 157.682 51.624C157.448 52.0533 157.332 52.5573 157.332 53.136C157.332 53.724 157.448 54.2373 157.682 54.676C157.915 55.1053 158.228 55.4367 158.62 55.67C159.012 55.894 159.446 56.006 159.922 56.006C160.398 56.006 160.832 55.894 161.224 55.67C161.625 55.4367 161.942 55.1053 162.176 54.676C162.409 54.2373 162.526 53.7287 162.526 53.15ZM169.461 49.426C169.526 48.5673 169.858 47.8953 170.455 47.41C171.052 46.9247 171.827 46.682 172.779 46.682C173.414 46.682 173.96 46.7987 174.417 47.032C174.884 47.256 175.234 47.564 175.467 47.956C175.71 48.348 175.831 48.7913 175.831 49.286C175.831 49.8647 175.663 50.364 175.327 50.784C175 51.204 174.571 51.4747 174.039 51.596V51.666C174.646 51.8153 175.126 52.1093 175.481 52.548C175.836 52.9867 176.013 53.5607 176.013 54.27C176.013 54.802 175.892 55.2827 175.649 55.712C175.406 56.132 175.042 56.4633 174.557 56.706C174.072 56.9487 173.488 57.07 172.807 57.07C171.818 57.07 171.006 56.8133 170.371 56.3C169.736 55.7773 169.382 55.04 169.307 54.088H170.539C170.604 54.648 170.833 55.1053 171.225 55.46C171.617 55.8147 172.14 55.992 172.793 55.992C173.446 55.992 173.941 55.824 174.277 55.488C174.622 55.1427 174.795 54.6993 174.795 54.158C174.795 53.458 174.562 52.954 174.095 52.646C173.628 52.338 172.924 52.184 171.981 52.184H171.659V51.12H171.995C172.854 51.1107 173.502 50.9707 173.941 50.7C174.38 50.42 174.599 49.9907 174.599 49.412C174.599 48.9173 174.436 48.5207 174.109 48.222C173.792 47.9233 173.334 47.774 172.737 47.774C172.158 47.774 171.692 47.9233 171.337 48.222C170.982 48.5207 170.772 48.922 170.707 49.426H169.461ZM177.733 51.834C177.733 50.2287 177.995 48.978 178.517 48.082C179.04 47.1767 179.955 46.724 181.261 46.724C182.559 46.724 183.469 47.1767 183.991 48.082C184.514 48.978 184.775 50.2287 184.775 51.834C184.775 53.4673 184.514 54.7367 183.991 55.642C183.469 56.5473 182.559 57 181.261 57C179.955 57 179.04 56.5473 178.517 55.642C177.995 54.7367 177.733 53.4673 177.733 51.834ZM183.515 51.834C183.515 51.022 183.459 50.336 183.347 49.776C183.245 49.2067 183.025 48.7493 182.689 48.404C182.363 48.0587 181.887 47.886 181.261 47.886C180.627 47.886 180.141 48.0587 179.805 48.404C179.479 48.7493 179.259 49.2067 179.147 49.776C179.045 50.336 178.993 51.022 178.993 51.834C178.993 52.674 179.045 53.3787 179.147 53.948C179.259 54.5173 179.479 54.9747 179.805 55.32C180.141 55.6653 180.627 55.838 181.261 55.838C181.887 55.838 182.363 55.6653 182.689 55.32C183.025 54.9747 183.245 54.5173 183.347 53.948C183.459 53.3787 183.515 52.674 183.515 51.834ZM186.244 49.16C186.244 48.5253 186.436 48.0213 186.818 47.648C187.201 47.2653 187.691 47.074 188.288 47.074C188.886 47.074 189.376 47.2653 189.758 47.648C190.141 48.0213 190.332 48.5253 190.332 49.16C190.332 49.804 190.141 50.3173 189.758 50.7C189.376 51.0733 188.886 51.26 188.288 51.26C187.691 51.26 187.201 51.0733 186.818 50.7C186.436 50.3173 186.244 49.804 186.244 49.16ZM194.42 47.228L188.75 57H187.49L193.16 47.228H194.42ZM188.288 47.858C187.971 47.858 187.719 47.97 187.532 48.194C187.355 48.4087 187.266 48.7307 187.266 49.16C187.266 49.5893 187.355 49.916 187.532 50.14C187.719 50.364 187.971 50.476 188.288 50.476C188.606 50.476 188.858 50.364 189.044 50.14C189.231 49.9067 189.324 49.58 189.324 49.16C189.324 48.7307 189.231 48.4087 189.044 48.194C188.858 47.97 188.606 47.858 188.288 47.858ZM191.606 55.068C191.606 54.424 191.798 53.9153 192.18 53.542C192.563 53.1593 193.053 52.968 193.65 52.968C194.248 52.968 194.733 53.1593 195.106 53.542C195.489 53.9153 195.68 54.424 195.68 55.068C195.68 55.7027 195.489 56.2113 195.106 56.594C194.733 56.9767 194.248 57.168 193.65 57.168C193.053 57.168 192.563 56.9813 192.18 56.608C191.798 56.2253 191.606 55.712 191.606 55.068ZM193.636 53.766C193.319 53.766 193.067 53.878 192.88 54.102C192.694 54.3167 192.6 54.6387 192.6 55.068C192.6 55.488 192.694 55.81 192.88 56.034C193.067 56.2487 193.319 56.356 193.636 56.356C193.954 56.356 194.206 56.2487 194.392 56.034C194.579 55.81 194.672 55.488 194.672 55.068C194.672 54.6387 194.579 54.3167 194.392 54.102C194.206 53.878 193.954 53.766 193.636 53.766ZM200.614 53.136C200.614 52.352 200.772 51.666 201.09 51.078C201.407 50.4807 201.841 50.0187 202.392 49.692C202.952 49.3653 203.577 49.202 204.268 49.202C204.865 49.202 205.42 49.342 205.934 49.622C206.447 49.8927 206.839 50.252 207.11 50.7V46.64H208.398V57H207.11V55.558C206.858 56.0153 206.484 56.3933 205.99 56.692C205.495 56.9813 204.916 57.126 204.254 57.126C203.572 57.126 202.952 56.958 202.392 56.622C201.841 56.286 201.407 55.8147 201.09 55.208C200.772 54.6013 200.614 53.9107 200.614 53.136ZM207.11 53.15C207.11 52.5713 206.993 52.0673 206.76 51.638C206.526 51.2087 206.209 50.882 205.808 50.658C205.416 50.4247 204.982 50.308 204.506 50.308C204.03 50.308 203.596 50.42 203.204 50.644C202.812 50.868 202.499 51.1947 202.266 51.624C202.032 52.0533 201.916 52.5573 201.916 53.136C201.916 53.724 202.032 54.2373 202.266 54.676C202.499 55.1053 202.812 55.4367 203.204 55.67C203.596 55.894 204.03 56.006 204.506 56.006C204.982 56.006 205.416 55.894 205.808 55.67C206.209 55.4367 206.526 55.1053 206.76 54.676C206.993 54.2373 207.11 53.7287 207.11 53.15ZM211.209 48.082C210.966 48.082 210.761 47.998 210.593 47.83C210.425 47.662 210.341 47.4567 210.341 47.214C210.341 46.9713 210.425 46.766 210.593 46.598C210.761 46.43 210.966 46.346 211.209 46.346C211.442 46.346 211.638 46.43 211.797 46.598C211.965 46.766 212.049 46.9713 212.049 47.214C212.049 47.4567 211.965 47.662 211.797 47.83C211.638 47.998 211.442 48.082 211.209 48.082ZM211.825 49.328V57H210.551V49.328H211.825ZM216.712 57.126C216.124 57.126 215.597 57.028 215.13 56.832C214.663 56.6267 214.295 56.3467 214.024 55.992C213.753 55.628 213.604 55.2127 213.576 54.746H214.892C214.929 55.1287 215.107 55.4413 215.424 55.684C215.751 55.9267 216.175 56.048 216.698 56.048C217.183 56.048 217.566 55.9407 217.846 55.726C218.126 55.5113 218.266 55.2407 218.266 54.914C218.266 54.578 218.117 54.3307 217.818 54.172C217.519 54.004 217.057 53.8407 216.432 53.682C215.863 53.5327 215.396 53.3833 215.032 53.234C214.677 53.0753 214.369 52.8467 214.108 52.548C213.856 52.24 213.73 51.8387 213.73 51.344C213.73 50.952 213.847 50.5927 214.08 50.266C214.313 49.9393 214.645 49.6827 215.074 49.496C215.503 49.3 215.993 49.202 216.544 49.202C217.393 49.202 218.079 49.4167 218.602 49.846C219.125 50.2753 219.405 50.8633 219.442 51.61H218.168C218.14 51.2087 217.977 50.8867 217.678 50.644C217.389 50.4013 216.997 50.28 216.502 50.28C216.045 50.28 215.681 50.378 215.41 50.574C215.139 50.77 215.004 51.0267 215.004 51.344C215.004 51.596 215.083 51.806 215.242 51.974C215.41 52.1327 215.615 52.2633 215.858 52.366C216.11 52.4593 216.455 52.5667 216.894 52.688C217.445 52.8373 217.893 52.9867 218.238 53.136C218.583 53.276 218.877 53.4907 219.12 53.78C219.372 54.0693 219.503 54.4473 219.512 54.914C219.512 55.334 219.395 55.712 219.162 56.048C218.929 56.384 218.597 56.65 218.168 56.846C217.748 57.0327 217.263 57.126 216.712 57.126ZM220.834 53.15C220.834 52.3567 220.993 51.666 221.31 51.078C221.628 50.4807 222.066 50.0187 222.626 49.692C223.196 49.3653 223.844 49.202 224.572 49.202C225.515 49.202 226.29 49.4307 226.896 49.888C227.512 50.3453 227.918 50.98 228.114 51.792H226.742C226.612 51.3253 226.355 50.9567 225.972 50.686C225.599 50.4153 225.132 50.28 224.572 50.28C223.844 50.28 223.256 50.532 222.808 51.036C222.36 51.5307 222.136 52.2353 222.136 53.15C222.136 54.074 222.36 54.788 222.808 55.292C223.256 55.796 223.844 56.048 224.572 56.048C225.132 56.048 225.599 55.9173 225.972 55.656C226.346 55.3947 226.602 55.0213 226.742 54.536H228.114C227.909 55.32 227.498 55.95 226.882 56.426C226.266 56.8927 225.496 57.126 224.572 57.126C223.844 57.126 223.196 56.9627 222.626 56.636C222.066 56.3093 221.628 55.8473 221.31 55.25C220.993 54.6527 220.834 53.9527 220.834 53.15ZM233.16 57.126C232.442 57.126 231.788 56.9627 231.2 56.636C230.622 56.3093 230.164 55.8473 229.828 55.25C229.502 54.6433 229.338 53.9433 229.338 53.15C229.338 52.366 229.506 51.6753 229.842 51.078C230.188 50.4713 230.654 50.0093 231.242 49.692C231.83 49.3653 232.488 49.202 233.216 49.202C233.944 49.202 234.602 49.3653 235.19 49.692C235.778 50.0093 236.24 50.4667 236.576 51.064C236.922 51.6613 237.094 52.3567 237.094 53.15C237.094 53.9433 236.917 54.6433 236.562 55.25C236.217 55.8473 235.746 56.3093 235.148 56.636C234.551 56.9627 233.888 57.126 233.16 57.126ZM233.16 56.006C233.618 56.006 234.047 55.8987 234.448 55.684C234.85 55.4693 235.172 55.1473 235.414 54.718C235.666 54.2887 235.792 53.766 235.792 53.15C235.792 52.534 235.671 52.0113 235.428 51.582C235.186 51.1527 234.868 50.8353 234.476 50.63C234.084 50.4153 233.66 50.308 233.202 50.308C232.736 50.308 232.306 50.4153 231.914 50.63C231.532 50.8353 231.224 51.1527 230.99 51.582C230.757 52.0113 230.64 52.534 230.64 53.15C230.64 53.7753 230.752 54.3027 230.976 54.732C231.21 55.1613 231.518 55.4833 231.9 55.698C232.283 55.9033 232.703 56.006 233.16 56.006ZM245.573 49.328V57H244.299V55.866C244.057 56.258 243.716 56.566 243.277 56.79C242.848 57.0047 242.372 57.112 241.849 57.112C241.252 57.112 240.715 56.9907 240.239 56.748C239.763 56.496 239.385 56.1227 239.105 55.628C238.835 55.1333 238.699 54.5313 238.699 53.822V49.328H239.959V53.654C239.959 54.41 240.151 54.9933 240.533 55.404C240.916 55.8053 241.439 56.006 242.101 56.006C242.783 56.006 243.319 55.796 243.711 55.376C244.103 54.956 244.299 54.3447 244.299 53.542V49.328H245.573ZM251.462 49.188C252.396 49.188 253.152 49.4727 253.73 50.042C254.309 50.602 254.598 51.414 254.598 52.478V57H253.338V52.66C253.338 51.8947 253.147 51.3113 252.764 50.91C252.382 50.4993 251.859 50.294 251.196 50.294C250.524 50.294 249.988 50.504 249.586 50.924C249.194 51.344 248.998 51.9553 248.998 52.758V57H247.724V49.328H248.998V50.42C249.25 50.028 249.591 49.7247 250.02 49.51C250.459 49.2953 250.94 49.188 251.462 49.188ZM258.234 50.378V54.9C258.234 55.2733 258.313 55.5393 258.472 55.698C258.63 55.8473 258.906 55.922 259.298 55.922H260.236V57H259.088C258.378 57 257.846 56.8367 257.492 56.51C257.137 56.1833 256.96 55.6467 256.96 54.9V50.378H255.966V49.328H256.96V47.396H258.234V49.328H260.236V50.378H258.234ZM266.17 48.082C265.927 48.082 265.722 47.998 265.554 47.83C265.386 47.662 265.302 47.4567 265.302 47.214C265.302 46.9713 265.386 46.766 265.554 46.598C265.722 46.43 265.927 46.346 266.17 46.346C266.403 46.346 266.599 46.43 266.758 46.598C266.926 46.766 267.01 46.9713 267.01 47.214C267.01 47.4567 266.926 47.662 266.758 47.83C266.599 47.998 266.403 48.082 266.17 48.082ZM266.786 49.328V57H265.512V49.328H266.786ZM271.673 57.126C271.085 57.126 270.558 57.028 270.091 56.832C269.624 56.6267 269.256 56.3467 268.985 55.992C268.714 55.628 268.565 55.2127 268.537 54.746H269.853C269.89 55.1287 270.068 55.4413 270.385 55.684C270.712 55.9267 271.136 56.048 271.659 56.048C272.144 56.048 272.527 55.9407 272.807 55.726C273.087 55.5113 273.227 55.2407 273.227 54.914C273.227 54.578 273.078 54.3307 272.779 54.172C272.48 54.004 272.018 53.8407 271.393 53.682C270.824 53.5327 270.357 53.3833 269.993 53.234C269.638 53.0753 269.33 52.8467 269.069 52.548C268.817 52.24 268.691 51.8387 268.691 51.344C268.691 50.952 268.808 50.5927 269.041 50.266C269.274 49.9393 269.606 49.6827 270.035 49.496C270.464 49.3 270.954 49.202 271.505 49.202C272.354 49.202 273.04 49.4167 273.563 49.846C274.086 50.2753 274.366 50.8633 274.403 51.61H273.129C273.101 51.2087 272.938 50.8867 272.639 50.644C272.35 50.4013 271.958 50.28 271.463 50.28C271.006 50.28 270.642 50.378 270.371 50.574C270.1 50.77 269.965 51.0267 269.965 51.344C269.965 51.596 270.044 51.806 270.203 51.974C270.371 52.1327 270.576 52.2633 270.819 52.366C271.071 52.4593 271.416 52.5667 271.855 52.688C272.406 52.8373 272.854 52.9867 273.199 53.136C273.544 53.276 273.838 53.4907 274.081 53.78C274.333 54.0693 274.464 54.4473 274.473 54.914C274.473 55.334 274.356 55.712 274.123 56.048C273.89 56.384 273.558 56.65 273.129 56.846C272.709 57.0327 272.224 57.126 271.673 57.126ZM279.528 53.136C279.528 52.352 279.686 51.666 280.004 51.078C280.321 50.4807 280.755 50.0187 281.306 49.692C281.866 49.3653 282.486 49.202 283.168 49.202C283.84 49.202 284.423 49.3467 284.918 49.636C285.412 49.9253 285.781 50.2893 286.024 50.728V49.328H287.312V57H286.024V55.572C285.772 56.02 285.394 56.3933 284.89 56.692C284.395 56.9813 283.816 57.126 283.154 57.126C282.472 57.126 281.856 56.958 281.306 56.622C280.755 56.286 280.321 55.8147 280.004 55.208C279.686 54.6013 279.528 53.9107 279.528 53.136ZM286.024 53.15C286.024 52.5713 285.907 52.0673 285.674 51.638C285.44 51.2087 285.123 50.882 284.722 50.658C284.33 50.4247 283.896 50.308 283.42 50.308C282.944 50.308 282.51 50.42 282.118 50.644C281.726 50.868 281.413 51.1947 281.18 51.624C280.946 52.0533 280.83 52.5573 280.83 53.136C280.83 53.724 280.946 54.2373 281.18 54.676C281.413 55.1053 281.726 55.4367 282.118 55.67C282.51 55.894 282.944 56.006 283.42 56.006C283.896 56.006 284.33 55.894 284.722 55.67C285.123 55.4367 285.44 55.1053 285.674 54.676C285.907 54.2373 286.024 53.7287 286.024 53.15ZM292.321 55.824L294.701 49.328H296.059L293.049 57H291.565L288.555 49.328H289.927L292.321 55.824ZM296.836 53.136C296.836 52.352 296.995 51.666 297.312 51.078C297.63 50.4807 298.064 50.0187 298.614 49.692C299.174 49.3653 299.795 49.202 300.476 49.202C301.148 49.202 301.732 49.3467 302.226 49.636C302.721 49.9253 303.09 50.2893 303.332 50.728V49.328H304.62V57H303.332V55.572C303.08 56.02 302.702 56.3933 302.198 56.692C301.704 56.9813 301.125 57.126 300.462 57.126C299.781 57.126 299.165 56.958 298.614 56.622C298.064 56.286 297.63 55.8147 297.312 55.208C296.995 54.6013 296.836 53.9107 296.836 53.136ZM303.332 53.15C303.332 52.5713 303.216 52.0673 302.982 51.638C302.749 51.2087 302.432 50.882 302.03 50.658C301.638 50.4247 301.204 50.308 300.728 50.308C300.252 50.308 299.818 50.42 299.426 50.644C299.034 50.868 298.722 51.1947 298.488 51.624C298.255 52.0533 298.138 52.5573 298.138 53.136C298.138 53.724 298.255 54.2373 298.488 54.676C298.722 55.1053 299.034 55.4367 299.426 55.67C299.818 55.894 300.252 56.006 300.728 56.006C301.204 56.006 301.638 55.894 302.03 55.67C302.432 55.4367 302.749 55.1053 302.982 54.676C303.216 54.2373 303.332 53.7287 303.332 53.15ZM307.431 48.082C307.189 48.082 306.983 47.998 306.815 47.83C306.647 47.662 306.563 47.4567 306.563 47.214C306.563 46.9713 306.647 46.766 306.815 46.598C306.983 46.43 307.189 46.346 307.431 46.346C307.665 46.346 307.861 46.43 308.019 46.598C308.187 46.766 308.271 46.9713 308.271 47.214C308.271 47.4567 308.187 47.662 308.019 47.83C307.861 47.998 307.665 48.082 307.431 48.082ZM308.047 49.328V57H306.773V49.328H308.047ZM311.493 46.64V57H310.219V46.64H311.493ZM313.188 53.136C313.188 52.352 313.347 51.666 313.664 51.078C313.981 50.4807 314.415 50.0187 314.966 49.692C315.526 49.3653 316.147 49.202 316.828 49.202C317.5 49.202 318.083 49.3467 318.578 49.636C319.073 49.9253 319.441 50.2893 319.684 50.728V49.328H320.972V57H319.684V55.572C319.432 56.02 319.054 56.3933 318.55 56.692C318.055 56.9813 317.477 57.126 316.814 57.126C316.133 57.126 315.517 56.958 314.966 56.622C314.415 56.286 313.981 55.8147 313.664 55.208C313.347 54.6013 313.188 53.9107 313.188 53.136ZM319.684 53.15C319.684 52.5713 319.567 52.0673 319.334 51.638C319.101 51.2087 318.783 50.882 318.382 50.658C317.99 50.4247 317.556 50.308 317.08 50.308C316.604 50.308 316.17 50.42 315.778 50.644C315.386 50.868 315.073 51.1947 314.84 51.624C314.607 52.0533 314.49 52.5573 314.49 53.136C314.49 53.724 314.607 54.2373 314.84 54.676C315.073 55.1053 315.386 55.4367 315.778 55.67C316.17 55.894 316.604 56.006 317.08 56.006C317.556 56.006 317.99 55.894 318.382 55.67C318.783 55.4367 319.101 55.1053 319.334 54.676C319.567 54.2373 319.684 53.7287 319.684 53.15ZM324.399 50.756C324.66 50.2987 325.043 49.9253 325.547 49.636C326.051 49.3467 326.625 49.202 327.269 49.202C327.96 49.202 328.58 49.3653 329.131 49.692C329.682 50.0187 330.116 50.4807 330.433 51.078C330.75 51.666 330.909 52.352 330.909 53.136C330.909 53.9107 330.75 54.6013 330.433 55.208C330.116 55.8147 329.677 56.286 329.117 56.622C328.566 56.958 327.95 57.126 327.269 57.126C326.606 57.126 326.023 56.9813 325.519 56.692C325.024 56.4027 324.651 56.034 324.399 55.586V57H323.125V46.64H324.399V50.756ZM329.607 53.136C329.607 52.5573 329.49 52.0533 329.257 51.624C329.024 51.1947 328.706 50.868 328.305 50.644C327.913 50.42 327.479 50.308 327.003 50.308C326.536 50.308 326.102 50.4247 325.701 50.658C325.309 50.882 324.992 51.2133 324.749 51.652C324.516 52.0813 324.399 52.5807 324.399 53.15C324.399 53.7287 324.516 54.2373 324.749 54.676C324.992 55.1053 325.309 55.4367 325.701 55.67C326.102 55.894 326.536 56.006 327.003 56.006C327.479 56.006 327.913 55.894 328.305 55.67C328.706 55.4367 329.024 55.1053 329.257 54.676C329.49 54.2373 329.607 53.724 329.607 53.136ZM333.86 46.64V57H332.586V46.64H333.86ZM343.031 52.87C343.031 53.1127 343.017 53.3693 342.989 53.64H336.857C336.904 54.396 337.16 54.9887 337.627 55.418C338.103 55.838 338.677 56.048 339.349 56.048C339.9 56.048 340.357 55.922 340.721 55.67C341.094 55.4087 341.356 55.0633 341.505 54.634H342.877C342.672 55.3713 342.261 55.9733 341.645 56.44C341.029 56.8973 340.264 57.126 339.349 57.126C338.621 57.126 337.968 56.9627 337.389 56.636C336.82 56.3093 336.372 55.8473 336.045 55.25C335.718 54.6433 335.555 53.9433 335.555 53.15C335.555 52.3567 335.714 51.6613 336.031 51.064C336.348 50.4667 336.792 50.0093 337.361 49.692C337.94 49.3653 338.602 49.202 339.349 49.202C340.077 49.202 340.721 49.3607 341.281 49.678C341.841 49.9953 342.27 50.434 342.569 50.994C342.877 51.5447 343.031 52.17 343.031 52.87ZM341.715 52.604C341.715 52.1187 341.608 51.7033 341.393 51.358C341.178 51.0033 340.884 50.7373 340.511 50.56C340.147 50.3733 339.741 50.28 339.293 50.28C338.649 50.28 338.098 50.4853 337.641 50.896C337.193 51.3067 336.936 51.876 336.871 52.604H341.715ZM119.424 78.126C118.705 78.126 118.052 77.9627 117.464 77.636C116.885 77.3093 116.428 76.8473 116.092 76.25C115.765 75.6433 115.602 74.9433 115.602 74.15C115.602 73.366 115.77 72.6753 116.106 72.078C116.451 71.4713 116.918 71.0093 117.506 70.692C118.094 70.3653 118.752 70.202 119.48 70.202C120.208 70.202 120.866 70.3653 121.454 70.692C122.042 71.0093 122.504 71.4667 122.84 72.064C123.185 72.6613 123.358 73.3567 123.358 74.15C123.358 74.9433 123.181 75.6433 122.826 76.25C122.481 76.8473 122.009 77.3093 121.412 77.636C120.815 77.9627 120.152 78.126 119.424 78.126ZM119.424 77.006C119.881 77.006 120.311 76.8987 120.712 76.684C121.113 76.4693 121.435 76.1473 121.678 75.718C121.93 75.2887 122.056 74.766 122.056 74.15C122.056 73.534 121.935 73.0113 121.692 72.582C121.449 72.1527 121.132 71.8353 120.74 71.63C120.348 71.4153 119.923 71.308 119.466 71.308C118.999 71.308 118.57 71.4153 118.178 71.63C117.795 71.8353 117.487 72.1527 117.254 72.582C117.021 73.0113 116.904 73.534 116.904 74.15C116.904 74.7753 117.016 75.3027 117.24 75.732C117.473 76.1613 117.781 76.4833 118.164 76.698C118.547 76.9033 118.967 77.006 119.424 77.006ZM128.771 70.188C129.704 70.188 130.46 70.4727 131.039 71.042C131.618 71.602 131.907 72.414 131.907 73.478V78H130.647V73.66C130.647 72.8947 130.456 72.3113 130.073 71.91C129.69 71.4993 129.168 71.294 128.505 71.294C127.833 71.294 127.296 71.504 126.895 71.924C126.503 72.344 126.307 72.9553 126.307 73.758V78H125.033V70.328H126.307V71.42C126.559 71.028 126.9 70.7247 127.329 70.51C127.768 70.2953 128.248 70.188 128.771 70.188ZM141.067 78.126C140.348 78.126 139.695 77.9627 139.107 77.636C138.528 77.3093 138.071 76.8473 137.735 76.25C137.408 75.6433 137.245 74.9433 137.245 74.15C137.245 73.366 137.413 72.6753 137.749 72.078C138.094 71.4713 138.561 71.0093 139.149 70.692C139.737 70.3653 140.395 70.202 141.123 70.202C141.851 70.202 142.509 70.3653 143.097 70.692C143.685 71.0093 144.147 71.4667 144.483 72.064C144.828 72.6613 145.001 73.3567 145.001 74.15C145.001 74.9433 144.823 75.6433 144.469 76.25C144.123 76.8473 143.652 77.3093 143.055 77.636C142.457 77.9627 141.795 78.126 141.067 78.126ZM141.067 77.006C141.524 77.006 141.953 76.8987 142.355 76.684C142.756 76.4693 143.078 76.1473 143.321 75.718C143.573 75.2887 143.699 74.766 143.699 74.15C143.699 73.534 143.577 73.0113 143.335 72.582C143.092 72.1527 142.775 71.8353 142.383 71.63C141.991 71.4153 141.566 71.308 141.109 71.308C140.642 71.308 140.213 71.4153 139.821 71.63C139.438 71.8353 139.13 72.1527 138.897 72.582C138.663 73.0113 138.547 73.534 138.547 74.15C138.547 74.7753 138.659 75.3027 138.883 75.732C139.116 76.1613 139.424 76.4833 139.807 76.698C140.189 76.9033 140.609 77.006 141.067 77.006ZM153.48 70.328V78H152.206V76.866C151.963 77.258 151.622 77.566 151.184 77.79C150.754 78.0047 150.278 78.112 149.756 78.112C149.158 78.112 148.622 77.9907 148.146 77.748C147.67 77.496 147.292 77.1227 147.012 76.628C146.741 76.1333 146.606 75.5313 146.606 74.822V70.328H147.866V74.654C147.866 75.41 148.057 75.9933 148.44 76.404C148.822 76.8053 149.345 77.006 150.008 77.006C150.689 77.006 151.226 76.796 151.618 76.376C152.01 75.956 152.206 75.3447 152.206 74.542V70.328H153.48ZM156.905 71.574C157.129 71.1353 157.446 70.7947 157.857 70.552C158.277 70.3093 158.785 70.188 159.383 70.188V71.504H159.047C157.619 71.504 156.905 72.2787 156.905 73.828V78H155.631V70.328H156.905V71.574ZM173.812 70.188C174.409 70.188 174.941 70.314 175.408 70.566C175.874 70.8087 176.243 71.1773 176.514 71.672C176.784 72.1667 176.92 72.7687 176.92 73.478V78H175.66V73.66C175.66 72.8947 175.468 72.3113 175.086 71.91C174.712 71.4993 174.204 71.294 173.56 71.294C172.897 71.294 172.37 71.5087 171.978 71.938C171.586 72.358 171.39 72.9693 171.39 73.772V78H170.13V73.66C170.13 72.8947 169.938 72.3113 169.556 71.91C169.182 71.4993 168.674 71.294 168.03 71.294C167.367 71.294 166.84 71.5087 166.448 71.938C166.056 72.358 165.86 72.9693 165.86 73.772V78H164.586V70.328H165.86V71.434C166.112 71.0327 166.448 70.7247 166.868 70.51C167.297 70.2953 167.768 70.188 168.282 70.188C168.926 70.188 169.495 70.3327 169.99 70.622C170.484 70.9113 170.853 71.336 171.096 71.896C171.31 71.3547 171.665 70.9347 172.16 70.636C172.654 70.3373 173.205 70.188 173.812 70.188ZM186.01 73.87C186.01 74.1127 185.996 74.3693 185.968 74.64H179.836C179.882 75.396 180.139 75.9887 180.606 76.418C181.082 76.838 181.656 77.048 182.328 77.048C182.878 77.048 183.336 76.922 183.7 76.67C184.073 76.4087 184.334 76.0633 184.484 75.634H185.856C185.65 76.3713 185.24 76.9733 184.624 77.44C184.008 77.8973 183.242 78.126 182.328 78.126C181.6 78.126 180.946 77.9627 180.368 77.636C179.798 77.3093 179.35 76.8473 179.024 76.25C178.697 75.6433 178.534 74.9433 178.534 74.15C178.534 73.3567 178.692 72.6613 179.01 72.064C179.327 71.4667 179.77 71.0093 180.34 70.692C180.918 70.3653 181.581 70.202 182.328 70.202C183.056 70.202 183.7 70.3607 184.26 70.678C184.82 70.9953 185.249 71.434 185.548 71.994C185.856 72.5447 186.01 73.17 186.01 73.87ZM184.694 73.604C184.694 73.1187 184.586 72.7033 184.372 72.358C184.157 72.0033 183.863 71.7373 183.49 71.56C183.126 71.3733 182.72 71.28 182.272 71.28C181.628 71.28 181.077 71.4853 180.62 71.896C180.172 72.3067 179.915 72.876 179.85 73.604H184.694ZM188.965 71.574C189.189 71.1353 189.507 70.7947 189.917 70.552C190.337 70.3093 190.846 70.188 191.443 70.188V71.504H191.107C189.679 71.504 188.965 72.2787 188.965 73.828V78H187.691V70.328H188.965V71.574ZM192.438 74.15C192.438 73.3567 192.597 72.666 192.914 72.078C193.231 71.4807 193.67 71.0187 194.23 70.692C194.799 70.3653 195.448 70.202 196.176 70.202C197.119 70.202 197.893 70.4307 198.5 70.888C199.116 71.3453 199.522 71.98 199.718 72.792H198.346C198.215 72.3253 197.959 71.9567 197.576 71.686C197.203 71.4153 196.736 71.28 196.176 71.28C195.448 71.28 194.86 71.532 194.412 72.036C193.964 72.5307 193.74 73.2353 193.74 74.15C193.74 75.074 193.964 75.788 194.412 76.292C194.86 76.796 195.448 77.048 196.176 77.048C196.736 77.048 197.203 76.9173 197.576 76.656C197.949 76.3947 198.206 76.0213 198.346 75.536H199.718C199.513 76.32 199.102 76.95 198.486 77.426C197.87 77.8927 197.1 78.126 196.176 78.126C195.448 78.126 194.799 77.9627 194.23 77.636C193.67 77.3093 193.231 76.8473 192.914 76.25C192.597 75.6527 192.438 74.9527 192.438 74.15ZM205.226 70.188C205.805 70.188 206.327 70.314 206.794 70.566C207.261 70.8087 207.625 71.1773 207.886 71.672C208.157 72.1667 208.292 72.7687 208.292 73.478V78H207.032V73.66C207.032 72.8947 206.841 72.3113 206.458 71.91C206.075 71.4993 205.553 71.294 204.89 71.294C204.218 71.294 203.681 71.504 203.28 71.924C202.888 72.344 202.692 72.9553 202.692 73.758V78H201.418V67.64H202.692V71.42C202.944 71.028 203.289 70.7247 203.728 70.51C204.176 70.2953 204.675 70.188 205.226 70.188ZM209.897 74.136C209.897 73.352 210.056 72.666 210.373 72.078C210.69 71.4807 211.124 71.0187 211.675 70.692C212.235 70.3653 212.856 70.202 213.537 70.202C214.209 70.202 214.792 70.3467 215.287 70.636C215.782 70.9253 216.15 71.2893 216.393 71.728V70.328H217.681V78H216.393V76.572C216.141 77.02 215.763 77.3933 215.259 77.692C214.764 77.9813 214.186 78.126 213.523 78.126C212.842 78.126 212.226 77.958 211.675 77.622C211.124 77.286 210.69 76.8147 210.373 76.208C210.056 75.6013 209.897 74.9107 209.897 74.136ZM216.393 74.15C216.393 73.5713 216.276 73.0673 216.043 72.638C215.81 72.2087 215.492 71.882 215.091 71.658C214.699 71.4247 214.265 71.308 213.789 71.308C213.313 71.308 212.879 71.42 212.487 71.644C212.095 71.868 211.782 72.1947 211.549 72.624C211.316 73.0533 211.199 73.5573 211.199 74.136C211.199 74.724 211.316 75.2373 211.549 75.676C211.782 76.1053 212.095 76.4367 212.487 76.67C212.879 76.894 213.313 77.006 213.789 77.006C214.265 77.006 214.699 76.894 215.091 76.67C215.492 76.4367 215.81 76.1053 216.043 75.676C216.276 75.2373 216.393 74.7287 216.393 74.15ZM223.572 70.188C224.505 70.188 225.261 70.4727 225.84 71.042C226.419 71.602 226.708 72.414 226.708 73.478V78H225.448V73.66C225.448 72.8947 225.257 72.3113 224.874 71.91C224.491 71.4993 223.969 71.294 223.306 71.294C222.634 71.294 222.097 71.504 221.696 71.924C221.304 72.344 221.108 72.9553 221.108 73.758V78H219.834V70.328H221.108V71.42C221.36 71.028 221.701 70.7247 222.13 70.51C222.569 70.2953 223.049 70.188 223.572 70.188ZM230.343 71.378V75.9C230.343 76.2733 230.422 76.5393 230.581 76.698C230.74 76.8473 231.015 76.922 231.407 76.922H232.345V78H231.197C230.488 78 229.956 77.8367 229.601 77.51C229.246 77.1833 229.069 76.6467 229.069 75.9V71.378H228.075V70.328H229.069V68.396H230.343V70.328H232.345V71.378H230.343ZM236.605 78.126C236.017 78.126 235.489 78.028 235.023 77.832C234.556 77.6267 234.187 77.3467 233.917 76.992C233.646 76.628 233.497 76.2127 233.469 75.746H234.785C234.822 76.1287 234.999 76.4413 235.317 76.684C235.643 76.9267 236.068 77.048 236.591 77.048C237.076 77.048 237.459 76.9407 237.739 76.726C238.019 76.5113 238.159 76.2407 238.159 75.914C238.159 75.578 238.009 75.3307 237.711 75.172C237.412 75.004 236.95 74.8407 236.325 74.682C235.755 74.5327 235.289 74.3833 234.925 74.234C234.57 74.0753 234.262 73.8467 234.001 73.548C233.749 73.24 233.623 72.8387 233.623 72.344C233.623 71.952 233.739 71.5927 233.973 71.266C234.206 70.9393 234.537 70.6827 234.967 70.496C235.396 70.3 235.886 70.202 236.437 70.202C237.286 70.202 237.972 70.4167 238.495 70.846C239.017 71.2753 239.297 71.8633 239.335 72.61H238.061C238.033 72.2087 237.869 71.8867 237.571 71.644C237.281 71.4013 236.889 71.28 236.395 71.28C235.937 71.28 235.573 71.378 235.303 71.574C235.032 71.77 234.897 72.0267 234.897 72.344C234.897 72.596 234.976 72.806 235.135 72.974C235.303 73.1327 235.508 73.2633 235.751 73.366C236.003 73.4593 236.348 73.5667 236.787 73.688C237.337 73.8373 237.785 73.9867 238.131 74.136C238.476 74.276 238.77 74.4907 239.013 74.78C239.265 75.0693 239.395 75.4473 239.405 75.914C239.405 76.334 239.288 76.712 239.055 77.048C238.821 77.384 238.49 77.65 238.061 77.846C237.641 78.0327 237.155 78.126 236.605 78.126ZM241.609 78.084C241.366 78.084 241.161 78 240.993 77.832C240.825 77.664 240.741 77.4587 240.741 77.216C240.741 76.9733 240.825 76.768 240.993 76.6C241.161 76.432 241.366 76.348 241.609 76.348C241.842 76.348 242.038 76.432 242.197 76.6C242.365 76.768 242.449 76.9733 242.449 77.216C242.449 77.4587 242.365 77.664 242.197 77.832C242.038 78 241.842 78.084 241.609 78.084Z" fill="#333333"/>
<defs>
<clipPath id="clip0_1081_27189">
<rect width="58" height="70" fill="white" transform="translate(21 15)"/>
</clipPath>
</defs>
</svg>
