<svg width="292" height="99" viewBox="0 0 292 99" fill="none" xmlns="http://www.w3.org/2000/svg">
<path d="M120.942 12.296V15.848H126.678V18.944H120.942V22.712H127.398V26H116.838V9.032H127.398V12.296H120.942ZM134.817 12.44C135.841 12.44 136.721 12.672 137.457 13.136C138.193 13.6 138.737 14.232 139.089 15.032V12.608H143.169V26H139.089V23.576C138.737 24.376 138.193 25.008 137.457 25.472C136.721 25.936 135.841 26.168 134.817 26.168C133.713 26.168 132.721 25.896 131.84 25.352C130.977 24.792 130.289 23.992 129.777 22.952C129.281 21.912 129.033 20.696 129.033 19.304C129.033 17.896 129.281 16.68 129.777 15.656C130.289 14.616 130.977 13.824 131.84 13.28C132.721 12.72 133.713 12.44 134.817 12.44ZM136.137 16.04C135.257 16.04 134.545 16.328 134.001 16.904C133.473 17.48 133.209 18.28 133.209 19.304C133.209 20.328 133.473 21.128 134.001 21.704C134.545 22.28 135.257 22.568 136.137 22.568C137.001 22.568 137.705 22.272 138.249 21.68C138.809 21.088 139.089 20.296 139.089 19.304C139.089 18.296 138.809 17.504 138.249 16.928C137.705 16.336 137.001 16.04 136.137 16.04ZM150.098 15.128C150.61 14.312 151.266 13.664 152.066 13.184C152.882 12.704 153.762 12.464 154.706 12.464V16.856H153.53C152.442 16.856 151.594 17.088 150.986 17.552C150.394 18.016 150.098 18.8 150.098 19.904V26H145.994V12.608H150.098V15.128ZM164.92 12.464C166.456 12.464 167.672 12.976 168.568 14C169.48 15.024 169.936 16.432 169.936 18.224V26H165.832V18.704C165.832 17.808 165.592 17.112 165.112 16.616C164.648 16.104 164.024 15.848 163.24 15.848C162.408 15.848 161.744 16.112 161.248 16.64C160.768 17.168 160.528 17.92 160.528 18.896V26H156.424V12.608H160.528V15.056C160.912 14.256 161.48 13.624 162.232 13.16C163 12.696 163.896 12.464 164.92 12.464ZM181.551 20.048V26H177.447V9.032H184.095C186.111 9.032 187.647 9.536 188.703 10.544C189.759 11.536 190.287 12.88 190.287 14.576C190.287 15.632 190.047 16.576 189.567 17.408C189.103 18.224 188.407 18.872 187.479 19.352C186.551 19.816 185.423 20.048 184.095 20.048H181.551ZM183.639 16.76C185.287 16.76 186.111 16.032 186.111 14.576C186.111 13.088 185.287 12.344 183.639 12.344H181.551V16.76H183.639ZM198.571 12.44C199.899 12.44 201.083 12.72 202.123 13.28C203.179 13.824 204.003 14.616 204.595 15.656C205.203 16.696 205.507 17.912 205.507 19.304C205.507 20.696 205.203 21.912 204.595 22.952C204.003 23.992 203.179 24.792 202.123 25.352C201.083 25.896 199.899 26.168 198.571 26.168C197.243 26.168 196.051 25.896 194.995 25.352C193.939 24.792 193.107 23.992 192.499 22.952C191.907 21.912 191.611 20.696 191.611 19.304C191.611 17.912 191.907 16.696 192.499 15.656C193.107 14.616 193.939 13.824 194.995 13.28C196.051 12.72 197.243 12.44 198.571 12.44ZM198.571 15.992C197.787 15.992 197.123 16.28 196.579 16.856C196.051 17.416 195.787 18.232 195.787 19.304C195.787 20.376 196.051 21.192 196.579 21.752C197.123 22.312 197.787 22.592 198.571 22.592C199.355 22.592 200.011 22.312 200.539 21.752C201.067 21.192 201.331 20.376 201.331 19.304C201.331 18.232 201.067 17.416 200.539 16.856C200.011 16.28 199.355 15.992 198.571 15.992ZM207.251 8.84C207.251 8.216 207.475 7.704 207.923 7.304C208.371 6.888 208.963 6.68 209.699 6.68C210.435 6.68 211.027 6.888 211.475 7.304C211.923 7.704 212.147 8.216 212.147 8.84C212.147 9.448 211.923 9.96 211.475 10.376C211.027 10.776 210.435 10.976 209.699 10.976C208.963 10.976 208.371 10.776 207.923 10.376C207.475 9.96 207.251 9.448 207.251 8.84ZM211.739 12.608V26H207.635V12.608H211.739ZM223.068 12.464C224.604 12.464 225.82 12.976 226.716 14C227.628 15.024 228.084 16.432 228.084 18.224V26H223.98V18.704C223.98 17.808 223.74 17.112 223.26 16.616C222.796 16.104 222.172 15.848 221.388 15.848C220.556 15.848 219.892 16.112 219.396 16.64C218.916 17.168 218.676 17.92 218.676 18.896V26H214.572V12.608H218.676V15.056C219.06 14.256 219.628 13.624 220.38 13.16C221.148 12.696 222.044 12.464 223.068 12.464ZM238.375 22.472V26H236.527C234.959 26 233.735 25.616 232.855 24.848C231.991 24.064 231.559 22.776 231.559 20.984V16.064H229.759V12.608H231.559V9.32H235.663V12.608H238.351V16.064H235.663V21.056C235.663 21.584 235.767 21.952 235.975 22.16C236.199 22.368 236.567 22.472 237.079 22.472H238.375ZM245.554 12.44C247.25 12.44 248.602 12.864 249.61 13.712C250.634 14.56 251.274 15.68 251.53 17.072H247.69C247.578 16.528 247.322 16.104 246.922 15.8C246.538 15.48 246.05 15.32 245.458 15.32C244.994 15.32 244.642 15.424 244.402 15.632C244.162 15.824 244.042 16.104 244.042 16.472C244.042 16.888 244.258 17.2 244.69 17.408C245.138 17.616 245.834 17.824 246.778 18.032C247.802 18.272 248.642 18.52 249.298 18.776C249.954 19.016 250.522 19.416 251.002 19.976C251.482 20.536 251.722 21.288 251.722 22.232C251.722 23 251.514 23.68 251.098 24.272C250.682 24.864 250.082 25.328 249.298 25.664C248.514 26 247.586 26.168 246.514 26.168C244.706 26.168 243.258 25.768 242.17 24.968C241.082 24.168 240.418 23.024 240.178 21.536H244.138C244.202 22.112 244.442 22.552 244.858 22.856C245.29 23.16 245.842 23.312 246.514 23.312C246.978 23.312 247.33 23.208 247.57 23C247.81 22.776 247.93 22.488 247.93 22.136C247.93 21.672 247.706 21.344 247.258 21.152C246.826 20.944 246.114 20.728 245.122 20.504C244.13 20.296 243.314 20.072 242.674 19.832C242.034 19.592 241.482 19.208 241.018 18.68C240.554 18.136 240.322 17.4 240.322 16.472C240.322 15.272 240.778 14.304 241.69 13.568C242.602 12.816 243.89 12.44 245.554 12.44Z" fill="#333333"/>
<circle cx="49.5" cy="49.5" r="49.5" fill="#F7EEFF"/>
<g clip-path="url(#clip0_1081_27188)">
<path d="M57.6499 17C45.4758 17 35.5843 26.7003 35.5843 38.6392C35.5843 43.0484 36.9677 47.1863 39.3195 50.6458C40.0804 50.5102 40.8413 50.3745 41.6022 50.3745H41.948L45.4758 50.4423C42.3631 47.3898 40.4954 43.1841 40.4954 38.5713C40.4954 29.3458 48.1734 21.8162 57.6499 21.8162C67.1264 21.8162 74.7352 29.3458 74.7352 38.6392C74.7352 43.2519 72.8676 47.4576 69.7549 50.5102L70.9308 50.171C71.5533 49.9675 72.245 49.8318 72.9367 49.8318C73.9743 49.8318 75.0119 50.1032 75.9803 50.578C78.3321 47.1863 79.7155 43.0484 79.7155 38.6392C79.7155 26.7003 69.7549 17 57.6499 17Z" fill="#61308C"/>
<path d="M68.3023 36.7399C69.2707 35.858 68.7173 34.2978 67.4722 34.1622L62.0077 33.5516C61.6618 33.4838 61.3851 33.3481 61.2468 33.009L58.9641 28.1249C58.4108 26.9717 56.7507 26.9717 56.1973 28.1249L53.9147 33.009C53.7763 33.2803 53.4996 33.4838 53.1538 33.5516L47.7584 34.1622C46.4442 34.2978 45.96 35.858 46.9284 36.7399L50.9403 40.3351C51.1478 40.5386 51.2861 40.8777 51.217 41.1491L50.1102 46.3723C49.8336 47.6612 51.217 48.6109 52.3929 48.0004L57.1657 45.3548C57.4424 45.2191 57.7882 45.2191 58.0649 45.3548L62.8377 48.0004C63.9445 48.6109 65.3279 47.6612 65.1204 46.3723L64.0136 41.1491C63.9445 40.8099 64.0828 40.5386 64.2903 40.2672L68.3023 36.7399Z" fill="#61308C"/>
<path d="M18.2915 71.7424C17.8073 72.3529 17.9457 73.2348 18.5682 73.7096L28.8747 81.1714C29.4973 81.6462 30.3965 81.5106 30.8115 80.9001L34.8926 75.4733L22.4418 66.3157L18.2915 71.7424Z" fill="#61308C"/>
<path d="M72.0375 53.3591L62.6994 56.276V56.8865C62.5611 59.532 60.6934 61.7706 58.0649 62.3811L57.4424 62.5168C53.9838 63.2629 50.5253 63.7378 46.9975 63.8734L44.1615 64.0091C43.1931 64.0769 42.4323 63.3308 42.3631 62.4489C42.2939 61.4992 43.0548 60.7531 43.954 60.6852L46.79 60.5496C50.1103 60.4139 53.3613 60.0069 56.6123 59.2607L57.2349 59.125C58.3416 58.8537 59.1717 57.904 59.2408 56.8187C59.2408 56.1403 59.0333 55.5298 58.5491 54.9871C58.0649 54.5123 57.4424 54.241 56.7507 54.1731L41.7405 53.7661C40.0804 53.6983 38.4895 54.241 37.1061 55.1906L24.9319 64.0769L37.7978 73.4381L50.3869 74.5234C52.6004 74.7269 54.7447 74.0486 56.474 72.7597L74.8044 58.4467C75.4961 57.904 75.8419 57.1578 75.9111 56.3438C75.9803 55.5298 75.7036 54.7158 75.081 54.1053C74.2497 53.2913 73.0738 53.0199 72.0375 53.3591Z" fill="#61308C"/>
</g>
<path d="M119.172 57.098C118.528 57.098 117.949 56.986 117.436 56.762C116.932 56.5287 116.535 56.2113 116.246 55.81C115.957 55.3993 115.807 54.928 115.798 54.396H117.156C117.203 54.8533 117.389 55.2407 117.716 55.558C118.052 55.866 118.537 56.02 119.172 56.02C119.779 56.02 120.255 55.8707 120.6 55.572C120.955 55.264 121.132 54.872 121.132 54.396C121.132 54.0227 121.029 53.7193 120.824 53.486C120.619 53.2527 120.362 53.0753 120.054 52.954C119.746 52.8327 119.331 52.702 118.808 52.562C118.164 52.394 117.646 52.226 117.254 52.058C116.871 51.89 116.54 51.6287 116.26 51.274C115.989 50.91 115.854 50.4247 115.854 49.818C115.854 49.286 115.989 48.8147 116.26 48.404C116.531 47.9933 116.909 47.676 117.394 47.452C117.889 47.228 118.453 47.116 119.088 47.116C120.003 47.116 120.749 47.3447 121.328 47.802C121.916 48.2593 122.247 48.866 122.322 49.622H120.922C120.875 49.2487 120.679 48.922 120.334 48.642C119.989 48.3527 119.531 48.208 118.962 48.208C118.43 48.208 117.996 48.348 117.66 48.628C117.324 48.8987 117.156 49.2813 117.156 49.776C117.156 50.1307 117.254 50.42 117.45 50.644C117.655 50.868 117.903 51.0407 118.192 51.162C118.491 51.274 118.906 51.4047 119.438 51.554C120.082 51.7313 120.6 51.9087 120.992 52.086C121.384 52.254 121.72 52.52 122 52.884C122.28 53.2387 122.42 53.724 122.42 54.34C122.42 54.816 122.294 55.264 122.042 55.684C121.79 56.104 121.417 56.4447 120.922 56.706C120.427 56.9673 119.844 57.098 119.172 57.098ZM124.953 48.082C124.71 48.082 124.505 47.998 124.337 47.83C124.169 47.662 124.085 47.4567 124.085 47.214C124.085 46.9713 124.169 46.766 124.337 46.598C124.505 46.43 124.71 46.346 124.953 46.346C125.186 46.346 125.382 46.43 125.541 46.598C125.709 46.766 125.793 46.9713 125.793 47.214C125.793 47.4567 125.709 47.662 125.541 47.83C125.382 47.998 125.186 48.082 124.953 48.082ZM125.569 49.328V57H124.295V49.328H125.569ZM130.904 49.202C131.567 49.202 132.145 49.3467 132.64 49.636C133.144 49.9253 133.517 50.2893 133.76 50.728V49.328H135.048V57.168C135.048 57.868 134.899 58.4887 134.6 59.03C134.301 59.5807 133.872 60.01 133.312 60.318C132.761 60.626 132.117 60.78 131.38 60.78C130.372 60.78 129.532 60.542 128.86 60.066C128.188 59.59 127.791 58.9413 127.67 58.12H128.93C129.07 58.5867 129.359 58.96 129.798 59.24C130.237 59.5293 130.764 59.674 131.38 59.674C132.08 59.674 132.649 59.4547 133.088 59.016C133.536 58.5773 133.76 57.9613 133.76 57.168V55.558C133.508 56.006 133.135 56.3793 132.64 56.678C132.145 56.9767 131.567 57.126 130.904 57.126C130.223 57.126 129.602 56.958 129.042 56.622C128.491 56.286 128.057 55.8147 127.74 55.208C127.423 54.6013 127.264 53.9107 127.264 53.136C127.264 52.352 127.423 51.666 127.74 51.078C128.057 50.4807 128.491 50.0187 129.042 49.692C129.602 49.3653 130.223 49.202 130.904 49.202ZM133.76 53.15C133.76 52.5713 133.643 52.0673 133.41 51.638C133.177 51.2087 132.859 50.882 132.458 50.658C132.066 50.4247 131.632 50.308 131.156 50.308C130.68 50.308 130.246 50.42 129.854 50.644C129.462 50.868 129.149 51.1947 128.916 51.624C128.683 52.0533 128.566 52.5573 128.566 53.136C128.566 53.724 128.683 54.2373 128.916 54.676C129.149 55.1053 129.462 55.4367 129.854 55.67C130.246 55.894 130.68 56.006 131.156 56.006C131.632 56.006 132.066 55.894 132.458 55.67C132.859 55.4367 133.177 55.1053 133.41 54.676C133.643 54.2373 133.76 53.7287 133.76 53.15ZM140.939 49.188C141.872 49.188 142.628 49.4727 143.207 50.042C143.786 50.602 144.075 51.414 144.075 52.478V57H142.815V52.66C142.815 51.8947 142.624 51.3113 142.241 50.91C141.858 50.4993 141.336 50.294 140.673 50.294C140.001 50.294 139.464 50.504 139.063 50.924C138.671 51.344 138.475 51.9553 138.475 52.758V57H137.201V49.328H138.475V50.42C138.727 50.028 139.068 49.7247 139.497 49.51C139.936 49.2953 140.416 49.188 140.939 49.188ZM156.693 49.328V57H155.419V55.866C155.176 56.258 154.835 56.566 154.397 56.79C153.967 57.0047 153.491 57.112 152.969 57.112C152.371 57.112 151.835 56.9907 151.359 56.748C150.883 56.496 150.505 56.1227 150.225 55.628C149.954 55.1333 149.819 54.5313 149.819 53.822V49.328H151.079V53.654C151.079 54.41 151.27 54.9933 151.653 55.404C152.035 55.8053 152.558 56.006 153.221 56.006C153.902 56.006 154.439 55.796 154.831 55.376C155.223 54.956 155.419 54.3447 155.419 53.542V49.328H156.693ZM160.118 50.742C160.37 50.3033 160.743 49.9393 161.238 49.65C161.742 49.3513 162.325 49.202 162.988 49.202C163.669 49.202 164.285 49.3653 164.836 49.692C165.396 50.0187 165.834 50.4807 166.152 51.078C166.469 51.666 166.628 52.352 166.628 53.136C166.628 53.9107 166.469 54.6013 166.152 55.208C165.834 55.8147 165.396 56.286 164.836 56.622C164.285 56.958 163.669 57.126 162.988 57.126C162.334 57.126 161.756 56.9813 161.252 56.692C160.757 56.3933 160.379 56.0247 160.118 55.586V60.64H158.844V49.328H160.118V50.742ZM165.326 53.136C165.326 52.5573 165.209 52.0533 164.976 51.624C164.742 51.1947 164.425 50.868 164.024 50.644C163.632 50.42 163.198 50.308 162.722 50.308C162.255 50.308 161.821 50.4247 161.42 50.658C161.028 50.882 160.71 51.2133 160.468 51.652C160.234 52.0813 160.118 52.5807 160.118 53.15C160.118 53.7287 160.234 54.2373 160.468 54.676C160.71 55.1053 161.028 55.4367 161.42 55.67C161.821 55.894 162.255 56.006 162.722 56.006C163.198 56.006 163.632 55.894 164.024 55.67C164.425 55.4367 164.742 55.1053 164.976 54.676C165.209 54.2373 165.326 53.724 165.326 53.136ZM171.561 53.136C171.561 52.352 171.72 51.666 172.037 51.078C172.354 50.4807 172.788 50.0187 173.339 49.692C173.899 49.3653 174.52 49.202 175.201 49.202C175.873 49.202 176.456 49.3467 176.951 49.636C177.446 49.9253 177.814 50.2893 178.057 50.728V49.328H179.345V57H178.057V55.572C177.805 56.02 177.427 56.3933 176.923 56.692C176.428 56.9813 175.85 57.126 175.187 57.126C174.506 57.126 173.89 56.958 173.339 56.622C172.788 56.286 172.354 55.8147 172.037 55.208C171.72 54.6013 171.561 53.9107 171.561 53.136ZM178.057 53.15C178.057 52.5713 177.94 52.0673 177.707 51.638C177.474 51.2087 177.156 50.882 176.755 50.658C176.363 50.4247 175.929 50.308 175.453 50.308C174.977 50.308 174.543 50.42 174.151 50.644C173.759 50.868 173.446 51.1947 173.213 51.624C172.98 52.0533 172.863 52.5573 172.863 53.136C172.863 53.724 172.98 54.2373 173.213 54.676C173.446 55.1053 173.759 55.4367 174.151 55.67C174.543 55.894 174.977 56.006 175.453 56.006C175.929 56.006 176.363 55.894 176.755 55.67C177.156 55.4367 177.474 55.1053 177.707 54.676C177.94 54.2373 178.057 53.7287 178.057 53.15ZM185.236 49.188C186.169 49.188 186.925 49.4727 187.504 50.042C188.083 50.602 188.372 51.414 188.372 52.478V57H187.112V52.66C187.112 51.8947 186.921 51.3113 186.538 50.91C186.155 50.4993 185.633 50.294 184.97 50.294C184.298 50.294 183.761 50.504 183.36 50.924C182.968 51.344 182.772 51.9553 182.772 52.758V57H181.498V49.328H182.772V50.42C183.024 50.028 183.365 49.7247 183.794 49.51C184.233 49.2953 184.713 49.188 185.236 49.188ZM189.977 53.136C189.977 52.352 190.136 51.666 190.453 51.078C190.77 50.4807 191.204 50.0187 191.755 49.692C192.315 49.3653 192.94 49.202 193.631 49.202C194.228 49.202 194.784 49.342 195.297 49.622C195.81 49.8927 196.202 50.252 196.473 50.7V46.64H197.761V57H196.473V55.558C196.221 56.0153 195.848 56.3933 195.353 56.692C194.858 56.9813 194.28 57.126 193.617 57.126C192.936 57.126 192.315 56.958 191.755 56.622C191.204 56.286 190.77 55.8147 190.453 55.208C190.136 54.6013 189.977 53.9107 189.977 53.136ZM196.473 53.15C196.473 52.5713 196.356 52.0673 196.123 51.638C195.89 51.2087 195.572 50.882 195.171 50.658C194.779 50.4247 194.345 50.308 193.869 50.308C193.393 50.308 192.959 50.42 192.567 50.644C192.175 50.868 191.862 51.1947 191.629 51.624C191.396 52.0533 191.279 52.5573 191.279 53.136C191.279 53.724 191.396 54.2373 191.629 54.676C191.862 55.1053 192.175 55.4367 192.567 55.67C192.959 55.894 193.393 56.006 193.869 56.006C194.345 56.006 194.779 55.894 195.171 55.67C195.572 55.4367 195.89 55.1053 196.123 54.676C196.356 54.2373 196.473 53.7287 196.473 53.15ZM206.81 49.202C207.473 49.202 208.052 49.3467 208.546 49.636C209.05 49.9253 209.424 50.2893 209.666 50.728V49.328H210.954V57.168C210.954 57.868 210.805 58.4887 210.506 59.03C210.208 59.5807 209.778 60.01 209.218 60.318C208.668 60.626 208.024 60.78 207.286 60.78C206.278 60.78 205.438 60.542 204.766 60.066C204.094 59.59 203.698 58.9413 203.576 58.12H204.836C204.976 58.5867 205.266 58.96 205.704 59.24C206.143 59.5293 206.67 59.674 207.286 59.674C207.986 59.674 208.556 59.4547 208.994 59.016C209.442 58.5773 209.666 57.9613 209.666 57.168V55.558C209.414 56.006 209.041 56.3793 208.546 56.678C208.052 56.9767 207.473 57.126 206.81 57.126C206.129 57.126 205.508 56.958 204.948 56.622C204.398 56.286 203.964 55.8147 203.646 55.208C203.329 54.6013 203.17 53.9107 203.17 53.136C203.17 52.352 203.329 51.666 203.646 51.078C203.964 50.4807 204.398 50.0187 204.948 49.692C205.508 49.3653 206.129 49.202 206.81 49.202ZM209.666 53.15C209.666 52.5713 209.55 52.0673 209.316 51.638C209.083 51.2087 208.766 50.882 208.364 50.658C207.972 50.4247 207.538 50.308 207.062 50.308C206.586 50.308 206.152 50.42 205.76 50.644C205.368 50.868 205.056 51.1947 204.822 51.624C204.589 52.0533 204.472 52.5573 204.472 53.136C204.472 53.724 204.589 54.2373 204.822 54.676C205.056 55.1053 205.368 55.4367 205.76 55.67C206.152 55.894 206.586 56.006 207.062 56.006C207.538 56.006 207.972 55.894 208.364 55.67C208.766 55.4367 209.083 55.1053 209.316 54.676C209.55 54.2373 209.666 53.7287 209.666 53.15ZM220.107 52.87C220.107 53.1127 220.093 53.3693 220.065 53.64H213.933C213.98 54.396 214.237 54.9887 214.703 55.418C215.179 55.838 215.753 56.048 216.425 56.048C216.976 56.048 217.433 55.922 217.797 55.67C218.171 55.4087 218.432 55.0633 218.581 54.634H219.953C219.748 55.3713 219.337 55.9733 218.721 56.44C218.105 56.8973 217.34 57.126 216.425 57.126C215.697 57.126 215.044 56.9627 214.465 56.636C213.896 56.3093 213.448 55.8473 213.121 55.25C212.795 54.6433 212.631 53.9433 212.631 53.15C212.631 52.3567 212.79 51.6613 213.107 51.064C213.425 50.4667 213.868 50.0093 214.437 49.692C215.016 49.3653 215.679 49.202 216.425 49.202C217.153 49.202 217.797 49.3607 218.357 49.678C218.917 49.9953 219.347 50.434 219.645 50.994C219.953 51.5447 220.107 52.17 220.107 52.87ZM218.791 52.604C218.791 52.1187 218.684 51.7033 218.469 51.358C218.255 51.0033 217.961 50.7373 217.587 50.56C217.223 50.3733 216.817 50.28 216.369 50.28C215.725 50.28 215.175 50.4853 214.717 50.896C214.269 51.3067 214.013 51.876 213.947 52.604H218.791ZM223.343 50.378V54.9C223.343 55.2733 223.422 55.5393 223.581 55.698C223.74 55.8473 224.015 55.922 224.407 55.922H225.345V57H224.197C223.488 57 222.956 56.8367 222.601 56.51C222.246 56.1833 222.069 55.6467 222.069 54.9V50.378H221.075V49.328H222.069V47.396H223.343V49.328H225.345V50.378H223.343ZM231.895 50.742C232.147 50.3033 232.52 49.9393 233.015 49.65C233.519 49.3513 234.102 49.202 234.765 49.202C235.446 49.202 236.062 49.3653 236.613 49.692C237.173 50.0187 237.612 50.4807 237.929 51.078C238.246 51.666 238.405 52.352 238.405 53.136C238.405 53.9107 238.246 54.6013 237.929 55.208C237.612 55.8147 237.173 56.286 236.613 56.622C236.062 56.958 235.446 57.126 234.765 57.126C234.112 57.126 233.533 56.9813 233.029 56.692C232.534 56.3933 232.156 56.0247 231.895 55.586V60.64H230.621V49.328H231.895V50.742ZM237.103 53.136C237.103 52.5573 236.986 52.0533 236.753 51.624C236.52 51.1947 236.202 50.868 235.801 50.644C235.409 50.42 234.975 50.308 234.499 50.308C234.032 50.308 233.598 50.4247 233.197 50.658C232.805 50.882 232.488 51.2133 232.245 51.652C232.012 52.0813 231.895 52.5807 231.895 53.15C231.895 53.7287 232.012 54.2373 232.245 54.676C232.488 55.1053 232.805 55.4367 233.197 55.67C233.598 55.894 234.032 56.006 234.499 56.006C234.975 56.006 235.409 55.894 235.801 55.67C236.202 55.4367 236.52 55.1053 236.753 54.676C236.986 54.2373 237.103 53.724 237.103 53.136ZM243.428 57.126C242.709 57.126 242.056 56.9627 241.468 56.636C240.889 56.3093 240.432 55.8473 240.096 55.25C239.769 54.6433 239.606 53.9433 239.606 53.15C239.606 52.366 239.774 51.6753 240.11 51.078C240.455 50.4713 240.922 50.0093 241.51 49.692C242.098 49.3653 242.756 49.202 243.484 49.202C244.212 49.202 244.87 49.3653 245.458 49.692C246.046 50.0093 246.508 50.4667 246.844 51.064C247.189 51.6613 247.362 52.3567 247.362 53.15C247.362 53.9433 247.185 54.6433 246.83 55.25C246.485 55.8473 246.013 56.3093 245.416 56.636C244.819 56.9627 244.156 57.126 243.428 57.126ZM243.428 56.006C243.885 56.006 244.315 55.8987 244.716 55.684C245.117 55.4693 245.439 55.1473 245.682 54.718C245.934 54.2887 246.06 53.766 246.06 53.15C246.06 52.534 245.939 52.0113 245.696 51.582C245.453 51.1527 245.136 50.8353 244.744 50.63C244.352 50.4153 243.927 50.308 243.47 50.308C243.003 50.308 242.574 50.4153 242.182 50.63C241.799 50.8353 241.491 51.1527 241.258 51.582C241.025 52.0113 240.908 52.534 240.908 53.15C240.908 53.7753 241.02 54.3027 241.244 54.732C241.477 55.1613 241.785 55.4833 242.168 55.698C242.551 55.9033 242.971 56.006 243.428 56.006ZM249.695 48.082C249.452 48.082 249.247 47.998 249.079 47.83C248.911 47.662 248.827 47.4567 248.827 47.214C248.827 46.9713 248.911 46.766 249.079 46.598C249.247 46.43 249.452 46.346 249.695 46.346C249.928 46.346 250.124 46.43 250.283 46.598C250.451 46.766 250.535 46.9713 250.535 47.214C250.535 47.4567 250.451 47.662 250.283 47.83C250.124 47.998 249.928 48.082 249.695 48.082ZM250.311 49.328V57H249.037V49.328H250.311ZM256.22 49.188C257.154 49.188 257.91 49.4727 258.488 50.042C259.067 50.602 259.356 51.414 259.356 52.478V57H258.096V52.66C258.096 51.8947 257.905 51.3113 257.522 50.91C257.14 50.4993 256.617 50.294 255.954 50.294C255.282 50.294 254.746 50.504 254.344 50.924C253.952 51.344 253.756 51.9553 253.756 52.758V57H252.482V49.328H253.756V50.42C254.008 50.028 254.349 49.7247 254.778 49.51C255.217 49.2953 255.698 49.188 256.22 49.188ZM262.991 50.378V54.9C262.991 55.2733 263.071 55.5393 263.229 55.698C263.388 55.8473 263.663 55.922 264.055 55.922H264.993V57H263.845C263.136 57 262.604 56.8367 262.249 56.51C261.895 56.1833 261.717 55.6467 261.717 54.9V50.378H260.723V49.328H261.717V47.396H262.991V49.328H264.993V50.378H262.991ZM117.352 71.574C117.576 71.1353 117.893 70.7947 118.304 70.552C118.724 70.3093 119.233 70.188 119.83 70.188V71.504H119.494C118.066 71.504 117.352 72.2787 117.352 73.828V78H116.078V70.328H117.352V71.574ZM128.301 73.87C128.301 74.1127 128.287 74.3693 128.259 74.64H122.127C122.173 75.396 122.43 75.9887 122.897 76.418C123.373 76.838 123.947 77.048 124.619 77.048C125.169 77.048 125.627 76.922 125.991 76.67C126.364 76.4087 126.625 76.0633 126.775 75.634H128.147C127.941 76.3713 127.531 76.9733 126.915 77.44C126.299 77.8973 125.533 78.126 124.619 78.126C123.891 78.126 123.237 77.9627 122.659 77.636C122.089 77.3093 121.641 76.8473 121.315 76.25C120.988 75.6433 120.825 74.9433 120.825 74.15C120.825 73.3567 120.983 72.6613 121.301 72.064C121.618 71.4667 122.061 71.0093 122.631 70.692C123.209 70.3653 123.872 70.202 124.619 70.202C125.347 70.202 125.991 70.3607 126.551 70.678C127.111 70.9953 127.54 71.434 127.839 71.994C128.147 72.5447 128.301 73.17 128.301 73.87ZM126.985 73.604C126.985 73.1187 126.877 72.7033 126.663 72.358C126.448 72.0033 126.154 71.7373 125.781 71.56C125.417 71.3733 125.011 71.28 124.563 71.28C123.919 71.28 123.368 71.4853 122.911 71.896C122.463 72.3067 122.206 72.876 122.141 73.604H126.985ZM140.202 70.328L137.808 78H136.492L134.644 71.91L132.796 78H131.48L129.072 70.328H130.374L132.138 76.768L134.042 70.328H135.344L137.206 76.782L138.942 70.328H140.202ZM140.991 74.136C140.991 73.352 141.149 72.666 141.467 72.078C141.784 71.4807 142.218 71.0187 142.769 70.692C143.329 70.3653 143.949 70.202 144.631 70.202C145.303 70.202 145.886 70.3467 146.381 70.636C146.875 70.9253 147.244 71.2893 147.487 71.728V70.328H148.775V78H147.487V76.572C147.235 77.02 146.857 77.3933 146.353 77.692C145.858 77.9813 145.279 78.126 144.617 78.126C143.935 78.126 143.319 77.958 142.769 77.622C142.218 77.286 141.784 76.8147 141.467 76.208C141.149 75.6013 140.991 74.9107 140.991 74.136ZM147.487 74.15C147.487 73.5713 147.37 73.0673 147.137 72.638C146.903 72.2087 146.586 71.882 146.185 71.658C145.793 71.4247 145.359 71.308 144.883 71.308C144.407 71.308 143.973 71.42 143.581 71.644C143.189 71.868 142.876 72.1947 142.643 72.624C142.409 73.0533 142.293 73.5573 142.293 74.136C142.293 74.724 142.409 75.2373 142.643 75.676C142.876 76.1053 143.189 76.4367 143.581 76.67C143.973 76.894 144.407 77.006 144.883 77.006C145.359 77.006 145.793 76.894 146.185 76.67C146.586 76.4367 146.903 76.1053 147.137 75.676C147.37 75.2373 147.487 74.7287 147.487 74.15ZM152.202 71.574C152.426 71.1353 152.743 70.7947 153.154 70.552C153.574 70.3093 154.082 70.188 154.68 70.188V71.504H154.344C152.916 71.504 152.202 72.2787 152.202 73.828V78H150.928V70.328H152.202V71.574ZM155.674 74.136C155.674 73.352 155.833 72.666 156.15 72.078C156.468 71.4807 156.902 71.0187 157.452 70.692C158.012 70.3653 158.638 70.202 159.328 70.202C159.926 70.202 160.481 70.342 160.994 70.622C161.508 70.8927 161.9 71.252 162.17 71.7V67.64H163.458V78H162.17V76.558C161.918 77.0153 161.545 77.3933 161.05 77.692C160.556 77.9813 159.977 78.126 159.314 78.126C158.633 78.126 158.012 77.958 157.452 77.622C156.902 77.286 156.468 76.8147 156.15 76.208C155.833 75.6013 155.674 74.9107 155.674 74.136ZM162.17 74.15C162.17 73.5713 162.054 73.0673 161.82 72.638C161.587 72.2087 161.27 71.882 160.868 71.658C160.476 71.4247 160.042 71.308 159.566 71.308C159.09 71.308 158.656 71.42 158.264 71.644C157.872 71.868 157.56 72.1947 157.326 72.624C157.093 73.0533 156.976 73.5573 156.976 74.136C156.976 74.724 157.093 75.2373 157.326 75.676C157.56 76.1053 157.872 76.4367 158.264 76.67C158.656 76.894 159.09 77.006 159.566 77.006C160.042 77.006 160.476 76.894 160.868 76.67C161.27 76.4367 161.587 76.1053 161.82 75.676C162.054 75.2373 162.17 74.7287 162.17 74.15ZM168.327 78.126C167.739 78.126 167.212 78.028 166.745 77.832C166.279 77.6267 165.91 77.3467 165.639 76.992C165.369 76.628 165.219 76.2127 165.191 75.746H166.507C166.545 76.1287 166.722 76.4413 167.039 76.684C167.366 76.9267 167.791 77.048 168.313 77.048C168.799 77.048 169.181 76.9407 169.461 76.726C169.741 76.5113 169.881 76.2407 169.881 75.914C169.881 75.578 169.732 75.3307 169.433 75.172C169.135 75.004 168.673 74.8407 168.047 74.682C167.478 74.5327 167.011 74.3833 166.647 74.234C166.293 74.0753 165.985 73.8467 165.723 73.548C165.471 73.24 165.345 72.8387 165.345 72.344C165.345 71.952 165.462 71.5927 165.695 71.266C165.929 70.9393 166.26 70.6827 166.689 70.496C167.119 70.3 167.609 70.202 168.159 70.202C169.009 70.202 169.695 70.4167 170.217 70.846C170.74 71.2753 171.02 71.8633 171.057 72.61H169.783C169.755 72.2087 169.592 71.8867 169.293 71.644C169.004 71.4013 168.612 71.28 168.117 71.28C167.66 71.28 167.296 71.378 167.025 71.574C166.755 71.77 166.619 72.0267 166.619 72.344C166.619 72.596 166.699 72.806 166.857 72.974C167.025 73.1327 167.231 73.2633 167.473 73.366C167.725 73.4593 168.071 73.5667 168.509 73.688C169.06 73.8373 169.508 73.9867 169.853 74.136C170.199 74.276 170.493 74.4907 170.735 74.78C170.987 75.0693 171.118 75.4473 171.127 75.914C171.127 76.334 171.011 76.712 170.777 77.048C170.544 77.384 170.213 77.65 169.783 77.846C169.363 78.0327 168.878 78.126 168.327 78.126ZM173.332 78.084C173.089 78.084 172.884 78 172.716 77.832C172.548 77.664 172.464 77.4587 172.464 77.216C172.464 76.9733 172.548 76.768 172.716 76.6C172.884 76.432 173.089 76.348 173.332 76.348C173.565 76.348 173.761 76.432 173.92 76.6C174.088 76.768 174.172 76.9733 174.172 77.216C174.172 77.4587 174.088 77.664 173.92 77.832C173.761 78 173.565 78.084 173.332 78.084Z" fill="#333333"/>
<defs>
<clipPath id="clip0_1081_27188">
<rect width="61.7143" height="64.4571" fill="white" transform="translate(18 17)"/>
</clipPath>
</defs>
</svg>
