<svg width="332" height="99" viewBox="0 0 332 99" fill="none" xmlns="http://www.w3.org/2000/svg">
<path d="M120.977 12.296V15.848H126.713V18.944H120.977V22.712H127.433V26H116.873V9.032H127.433V12.296H120.977ZM139.076 15.872V19.28H128.492V15.872H139.076ZM145.963 9.032L150.115 21.8L154.267 9.032H158.659L152.755 26H147.451L141.571 9.032H145.963ZM166.496 12.44C167.824 12.44 169.008 12.72 170.048 13.28C171.104 13.824 171.928 14.616 172.52 15.656C173.128 16.696 173.432 17.912 173.432 19.304C173.432 20.696 173.128 21.912 172.52 22.952C171.928 23.992 171.104 24.792 170.048 25.352C169.008 25.896 167.824 26.168 166.496 26.168C165.168 26.168 163.976 25.896 162.92 25.352C161.864 24.792 161.032 23.992 160.424 22.952C159.832 21.912 159.536 20.696 159.536 19.304C159.536 17.912 159.832 16.696 160.424 15.656C161.032 14.616 161.864 13.824 162.92 13.28C163.976 12.72 165.168 12.44 166.496 12.44ZM166.496 15.992C165.712 15.992 165.048 16.28 164.504 16.856C163.976 17.416 163.712 18.232 163.712 19.304C163.712 20.376 163.976 21.192 164.504 21.752C165.048 22.312 165.712 22.592 166.496 22.592C167.28 22.592 167.936 22.312 168.464 21.752C168.992 21.192 169.256 20.376 169.256 19.304C169.256 18.232 168.992 17.416 168.464 16.856C167.936 16.28 167.28 15.992 166.496 15.992ZM188.881 12.608V26H184.753V23.576C184.369 24.36 183.793 24.984 183.025 25.448C182.273 25.912 181.393 26.144 180.385 26.144C178.849 26.144 177.625 25.632 176.713 24.608C175.817 23.584 175.369 22.176 175.369 20.384V12.608H179.449V19.88C179.449 20.792 179.681 21.504 180.145 22.016C180.625 22.512 181.265 22.76 182.065 22.76C182.897 22.76 183.553 22.496 184.033 21.968C184.513 21.44 184.753 20.688 184.753 19.712V12.608H188.881ZM197.757 12.44C199.485 12.44 200.933 12.92 202.101 13.88C203.269 14.824 204.005 16.128 204.309 17.792H199.965C199.837 17.216 199.573 16.768 199.173 16.448C198.773 16.128 198.269 15.968 197.661 15.968C196.941 15.968 196.349 16.256 195.885 16.832C195.421 17.392 195.189 18.216 195.189 19.304C195.189 20.392 195.421 21.224 195.885 21.8C196.349 22.36 196.941 22.64 197.661 22.64C198.269 22.64 198.773 22.48 199.173 22.16C199.573 21.84 199.837 21.392 199.965 20.816H204.309C204.005 22.48 203.269 23.792 202.101 24.752C200.933 25.696 199.485 26.168 197.757 26.168C196.445 26.168 195.277 25.896 194.253 25.352C193.245 24.792 192.453 23.992 191.877 22.952C191.301 21.912 191.013 20.696 191.013 19.304C191.013 17.896 191.293 16.68 191.853 15.656C192.429 14.616 193.229 13.824 194.253 13.28C195.277 12.72 196.445 12.44 197.757 12.44ZM214.947 12.464C216.483 12.464 217.699 12.976 218.595 14C219.507 15.024 219.963 16.432 219.963 18.224V26H215.859V18.704C215.859 17.808 215.619 17.112 215.139 16.616C214.675 16.104 214.051 15.848 213.267 15.848C212.435 15.848 211.771 16.112 211.275 16.64C210.795 17.168 210.555 17.92 210.555 18.896V26H206.451V8.24H210.555V15.056C210.939 14.256 211.507 13.624 212.259 13.16C213.027 12.696 213.923 12.464 214.947 12.464ZM235.39 18.944C235.39 19.28 235.35 19.648 235.27 20.048H225.982C226.03 21.056 226.286 21.784 226.75 22.232C227.214 22.664 227.806 22.88 228.526 22.88C229.134 22.88 229.638 22.728 230.038 22.424C230.438 22.12 230.702 21.728 230.83 21.248H235.174C234.998 22.192 234.614 23.04 234.022 23.792C233.43 24.528 232.678 25.112 231.766 25.544C230.854 25.96 229.838 26.168 228.718 26.168C227.406 26.168 226.238 25.896 225.214 25.352C224.206 24.792 223.414 23.992 222.838 22.952C222.262 21.912 221.974 20.696 221.974 19.304C221.974 17.896 222.254 16.68 222.814 15.656C223.39 14.616 224.19 13.824 225.214 13.28C226.238 12.72 227.406 12.44 228.718 12.44C230.046 12.44 231.214 12.712 232.222 13.256C233.23 13.8 234.006 14.568 234.55 15.56C235.11 16.536 235.39 17.664 235.39 18.944ZM231.238 18.32C231.254 17.44 231.014 16.784 230.518 16.352C230.038 15.904 229.438 15.68 228.718 15.68C227.966 15.68 227.342 15.904 226.846 16.352C226.35 16.8 226.07 17.456 226.006 18.32H231.238ZM241.633 15.128C242.145 14.312 242.801 13.664 243.601 13.184C244.417 12.704 245.297 12.464 246.241 12.464V16.856H245.065C243.977 16.856 243.129 17.088 242.521 17.552C241.929 18.016 241.633 18.8 241.633 19.904V26H237.529V12.608H241.633V15.128Z" fill="#333333"/>
<circle cx="49.5" cy="49.5" r="49.5" fill="#F7EEFF"/>
<g clip-path="url(#clip0_1081_27190)">
<path d="M78 27.9743V21.8043C78 20.7919 77.6091 19.8222 76.9014 19.1083C76.1831 18.3943 75.2218 18 74.2183 18H46.6056L43.5845 21.0477L40.5634 18H36.1796C35.176 18 34.2148 18.3943 33.507 19.1083C32.7993 19.8222 32.3979 20.7919 32.4084 21.8043V28.1661C34.0035 28.9227 35.25 30.276 35.9049 31.9278C36.5493 33.5795 36.5493 35.423 35.9049 37.0854C35.2606 38.7478 34.0035 40.0905 32.4084 40.8471V47.2089C32.4084 48.2212 32.7993 49.191 33.507 49.9049C34.2148 50.6189 35.176 51.0238 36.1796 51.0132H40.9753L43.5845 48.3811L46.1831 51.0025H74.2183C75.2218 51.0025 76.1831 50.6083 76.8908 49.8943C77.5986 49.1803 78 48.2106 77.9894 47.1982V41.0282C76.2676 40.3143 74.8944 38.9396 74.1866 37.2026C73.4683 35.4657 73.4683 33.5156 74.1866 31.7892C74.9049 30.0629 76.2782 28.6883 78 27.9743ZM44.4613 46.9212H42.5704V43.3726H44.4613V46.9212ZM44.4613 39.8134H42.5704V36.2755H44.4613V39.8134ZM44.4613 32.7377H42.5704V29.1785H44.4613V32.7377ZM44.4613 25.6406H42.5704V22.092H44.4613V25.6406ZM59.3873 44.1932C56.8415 44.1932 54.4014 43.1702 52.5951 41.3586C50.7887 39.5364 49.7852 37.0748 49.7852 34.5066C49.7852 31.9384 50.7993 29.4768 52.5951 27.6546C54.4014 25.8324 56.8415 24.82 59.3873 24.82C61.9331 24.82 64.3732 25.843 66.1796 27.6546C67.9859 29.4768 68.9894 31.9384 68.9894 34.5066C68.9894 37.0748 67.9753 39.5364 66.1796 41.3586C64.3838 43.1702 61.9331 44.1932 59.3873 44.1932Z" fill="#61308C"/>
<path d="M65.4084 32.141L61.5951 31.5655C61.4894 31.5442 61.4049 31.4803 61.3521 31.395L59.6514 27.9104C59.5986 27.8038 59.4824 27.7292 59.3662 27.7292C59.25 27.7292 59.1338 27.7932 59.081 27.9104L57.3803 31.395C57.338 31.4909 57.2535 31.5549 57.1584 31.5655L53.3451 32.141C53.2289 32.1516 53.1232 32.2369 53.081 32.3434C53.0387 32.4606 53.0704 32.5885 53.1549 32.6738L55.9225 35.3698C55.9859 35.4551 56.007 35.551 55.9965 35.6575L55.3521 39.4831C55.331 39.6004 55.3732 39.7282 55.4683 39.8028C55.5634 39.8774 55.6901 39.8881 55.7958 39.8348L59.2077 38.0232C59.2922 37.9699 59.4084 37.9699 59.4929 38.0232L62.9049 39.8348C63.0106 39.8881 63.1373 39.8774 63.2324 39.8028C63.3275 39.7282 63.3803 39.611 63.3591 39.4938L62.7148 35.6682C62.7042 35.5616 62.7359 35.4551 62.8098 35.3805L65.5669 32.6844C65.6514 32.5992 65.6937 32.482 65.6514 32.3647C65.6303 32.2369 65.5246 32.1623 65.4084 32.141Z" fill="#61308C"/>
<path d="M37.6056 74.9471L37.1408 75.5865L33.5915 80.4351C33.1796 81.0531 32.3028 81.1917 31.6901 80.7121L29.8204 79.3162L27.676 77.7177L26.9577 77.1849L24.581 75.416L21.5598 73.1675C20.9472 72.688 20.8098 71.7928 21.2852 71.1748L24.581 66.7417L25.3627 65.6868L26.9577 66.8909L35.7993 73.5831L37.6056 74.9471Z" fill="#61308C"/>
<path d="M77.926 55.606C77.8626 56.4266 77.5141 57.1832 76.838 57.7373L76.5845 57.9398L75.6232 58.7177L75.2746 58.9947L74.2077 59.8472L74.0598 59.9645L69.9824 63.2359L69.2429 63.8327L58.838 72.1872L58.8169 72.2085C58.669 72.3258 58.5105 72.4323 58.3521 72.5389C57.0528 73.4127 55.5528 73.9455 53.9788 74.0201C53.5986 74.0414 53.2183 74.0308 52.8274 73.9881L52.7429 73.9775L40.8274 72.9225L40.5739 72.9012L40.4472 72.8905L38.4929 71.42L38.4612 71.3987L27.8134 63.4278L31.9225 60.3374L33.2218 59.3677L34.9436 58.0783L36.3274 57.034L38.5141 55.3929L38.7042 55.2544L39.7817 54.4445C41.1443 53.4854 42.7077 52.9313 44.3345 53.0059L59.0915 53.4215C59.7676 53.4854 60.3803 53.7625 60.8556 54.242C61.331 54.7855 61.5317 55.4036 61.5317 56.0962C61.4683 57.1192 60.7605 58.0144 59.7887 58.366C59.7148 58.3873 59.6408 58.4086 59.5669 58.43L58.9542 58.5685C58.5422 58.6644 58.1303 58.7603 57.7183 58.8455C56.8626 59.0267 55.9965 59.1759 55.1408 59.3144C54.3908 59.4316 53.6408 59.5276 52.8803 59.6128C51.6866 59.7407 50.4929 59.8259 49.2887 59.8792L46.5 60.0177C45.6126 60.0817 44.8732 60.8383 44.9366 61.7973C45 62.6925 45.75 63.4384 46.7007 63.3745L49.1514 63.2573L49.4894 63.2359C51.0634 63.172 52.6267 63.0441 54.1796 62.8417C56.0493 62.6072 57.8979 62.2769 59.757 61.8613L60.3697 61.7227C60.507 61.6908 60.6338 61.6588 60.7605 61.6162C61.5845 61.3604 62.3239 60.9342 62.9366 60.3801C64.0986 59.3357 64.838 57.8332 64.9225 56.1708V55.5528L66.0845 55.1798L67.1303 54.8388L68.4612 54.4125L69.6126 54.0396L74.1021 52.5903C74.1338 52.5796 74.1655 52.569 74.1866 52.5583C74.6514 52.4198 75.1267 52.4091 75.6021 52.5051C75.9401 52.5796 76.2676 52.7182 76.5634 52.91C76.7535 53.0272 76.9225 53.1764 77.0915 53.3362C77.7253 53.965 78 54.7855 77.926 55.606Z" fill="#61308C"/>
</g>
<path d="M121.594 47.242V48.278H117.352V51.568H120.796V52.604H117.352V57H116.078V47.242H121.594ZM123.791 48.082C123.548 48.082 123.343 47.998 123.175 47.83C123.007 47.662 122.923 47.4567 122.923 47.214C122.923 46.9713 123.007 46.766 123.175 46.598C123.343 46.43 123.548 46.346 123.791 46.346C124.024 46.346 124.22 46.43 124.379 46.598C124.547 46.766 124.631 46.9713 124.631 47.214C124.631 47.4567 124.547 47.662 124.379 47.83C124.22 47.998 124.024 48.082 123.791 48.082ZM124.407 49.328V57H123.133V49.328H124.407ZM130.316 49.188C131.249 49.188 132.005 49.4727 132.584 50.042C133.163 50.602 133.452 51.414 133.452 52.478V57H132.192V52.66C132.192 51.8947 132.001 51.3113 131.618 50.91C131.235 50.4993 130.713 50.294 130.05 50.294C129.378 50.294 128.841 50.504 128.44 50.924C128.048 51.344 127.852 51.9553 127.852 52.758V57H126.578V49.328H127.852V50.42C128.104 50.028 128.445 49.7247 128.874 49.51C129.313 49.2953 129.793 49.188 130.316 49.188ZM135.057 53.136C135.057 52.352 135.216 51.666 135.533 51.078C135.85 50.4807 136.284 50.0187 136.835 49.692C137.395 49.3653 138.02 49.202 138.711 49.202C139.308 49.202 139.864 49.342 140.377 49.622C140.89 49.8927 141.282 50.252 141.553 50.7V46.64H142.841V57H141.553V55.558C141.301 56.0153 140.928 56.3933 140.433 56.692C139.938 56.9813 139.36 57.126 138.697 57.126C138.016 57.126 137.395 56.958 136.835 56.622C136.284 56.286 135.85 55.8147 135.533 55.208C135.216 54.6013 135.057 53.9107 135.057 53.136ZM141.553 53.15C141.553 52.5713 141.436 52.0673 141.203 51.638C140.97 51.2087 140.652 50.882 140.251 50.658C139.859 50.4247 139.425 50.308 138.949 50.308C138.473 50.308 138.039 50.42 137.647 50.644C137.255 50.868 136.942 51.1947 136.709 51.624C136.476 52.0533 136.359 52.5573 136.359 53.136C136.359 53.724 136.476 54.2373 136.709 54.676C136.942 55.1053 137.255 55.4367 137.647 55.67C138.039 55.894 138.473 56.006 138.949 56.006C139.425 56.006 139.859 55.894 140.251 55.67C140.652 55.4367 140.97 55.1053 141.203 54.676C141.436 54.2373 141.553 53.7287 141.553 53.15ZM156.216 57L154.942 55.712C154.466 56.2067 153.958 56.5753 153.416 56.818C152.875 57.0513 152.264 57.168 151.582 57.168C150.91 57.168 150.313 57.0467 149.79 56.804C149.277 56.5613 148.876 56.216 148.586 55.768C148.306 55.32 148.166 54.7973 148.166 54.2C148.166 53.5187 148.358 52.9213 148.74 52.408C149.132 51.8853 149.706 51.4747 150.462 51.176C150.164 50.8213 149.949 50.4947 149.818 50.196C149.688 49.8973 149.622 49.5707 149.622 49.216C149.622 48.8053 149.725 48.4367 149.93 48.11C150.145 47.774 150.448 47.5127 150.84 47.326C151.232 47.1393 151.685 47.046 152.198 47.046C152.702 47.046 153.141 47.144 153.514 47.34C153.888 47.536 154.168 47.8113 154.354 48.166C154.541 48.5113 154.625 48.8987 154.606 49.328H153.332C153.342 48.9453 153.234 48.6467 153.01 48.432C152.786 48.208 152.497 48.096 152.142 48.096C151.769 48.096 151.466 48.2033 151.232 48.418C151.008 48.6233 150.896 48.8893 150.896 49.216C150.896 49.496 150.971 49.7667 151.12 50.028C151.279 50.2893 151.54 50.6113 151.904 50.994L154.816 53.92L155.068 53.528L156.02 51.932H157.392L156.244 53.92C156.086 54.2 155.899 54.494 155.684 54.802L157.882 57H156.216ZM151.582 56.076C152.086 56.076 152.539 55.978 152.94 55.782C153.351 55.586 153.738 55.2827 154.102 54.872L151.232 51.988C150.038 52.4453 149.44 53.1687 149.44 54.158C149.44 54.7087 149.636 55.166 150.028 55.53C150.43 55.894 150.948 56.076 151.582 56.076ZM164.082 50.574C164.306 50.1353 164.624 49.7947 165.034 49.552C165.454 49.3093 165.963 49.188 166.56 49.188V50.504H166.224C164.796 50.504 164.082 51.2787 164.082 52.828V57H162.808V49.328H164.082V50.574ZM175.031 52.87C175.031 53.1127 175.017 53.3693 174.989 53.64H168.857C168.904 54.396 169.16 54.9887 169.627 55.418C170.103 55.838 170.677 56.048 171.349 56.048C171.9 56.048 172.357 55.922 172.721 55.67C173.094 55.4087 173.356 55.0633 173.505 54.634H174.877C174.672 55.3713 174.261 55.9733 173.645 56.44C173.029 56.8973 172.264 57.126 171.349 57.126C170.621 57.126 169.968 56.9627 169.389 56.636C168.82 56.3093 168.372 55.8473 168.045 55.25C167.718 54.6433 167.555 53.9433 167.555 53.15C167.555 52.3567 167.714 51.6613 168.031 51.064C168.348 50.4667 168.792 50.0093 169.361 49.692C169.94 49.3653 170.602 49.202 171.349 49.202C172.077 49.202 172.721 49.3607 173.281 49.678C173.841 49.9953 174.27 50.434 174.569 50.994C174.877 51.5447 175.031 52.17 175.031 52.87ZM173.715 52.604C173.715 52.1187 173.608 51.7033 173.393 51.358C173.178 51.0033 172.884 50.7373 172.511 50.56C172.147 50.3733 171.741 50.28 171.293 50.28C170.649 50.28 170.098 50.4853 169.641 50.896C169.193 51.3067 168.936 51.876 168.871 52.604H173.715ZM176.237 53.136C176.237 52.352 176.395 51.666 176.713 51.078C177.03 50.4807 177.464 50.0187 178.015 49.692C178.575 49.3653 179.2 49.202 179.891 49.202C180.488 49.202 181.043 49.342 181.557 49.622C182.07 49.8927 182.462 50.252 182.733 50.7V46.64H184.021V57H182.733V55.558C182.481 56.0153 182.107 56.3933 181.613 56.692C181.118 56.9813 180.539 57.126 179.877 57.126C179.195 57.126 178.575 56.958 178.015 56.622C177.464 56.286 177.03 55.8147 176.713 55.208C176.395 54.6013 176.237 53.9107 176.237 53.136ZM182.733 53.15C182.733 52.5713 182.616 52.0673 182.383 51.638C182.149 51.2087 181.832 50.882 181.431 50.658C181.039 50.4247 180.605 50.308 180.129 50.308C179.653 50.308 179.219 50.42 178.827 50.644C178.435 50.868 178.122 51.1947 177.889 51.624C177.655 52.0533 177.539 52.5573 177.539 53.136C177.539 53.724 177.655 54.2373 177.889 54.676C178.122 55.1053 178.435 55.4367 178.827 55.67C179.219 55.894 179.653 56.006 180.129 56.006C180.605 56.006 181.039 55.894 181.431 55.67C181.832 55.4367 182.149 55.1053 182.383 54.676C182.616 54.2373 182.733 53.7287 182.733 53.15ZM193.174 52.87C193.174 53.1127 193.16 53.3693 193.132 53.64H187C187.046 54.396 187.303 54.9887 187.77 55.418C188.246 55.838 188.82 56.048 189.492 56.048C190.042 56.048 190.5 55.922 190.864 55.67C191.237 55.4087 191.498 55.0633 191.648 54.634H193.02C192.814 55.3713 192.404 55.9733 191.788 56.44C191.172 56.8973 190.406 57.126 189.492 57.126C188.764 57.126 188.11 56.9627 187.532 56.636C186.962 56.3093 186.514 55.8473 186.188 55.25C185.861 54.6433 185.698 53.9433 185.698 53.15C185.698 52.3567 185.856 51.6613 186.174 51.064C186.491 50.4667 186.934 50.0093 187.504 49.692C188.082 49.3653 188.745 49.202 189.492 49.202C190.22 49.202 190.864 49.3607 191.424 49.678C191.984 49.9953 192.413 50.434 192.712 50.994C193.02 51.5447 193.174 52.17 193.174 52.87ZM191.858 52.604C191.858 52.1187 191.75 51.7033 191.536 51.358C191.321 51.0033 191.027 50.7373 190.654 50.56C190.29 50.3733 189.884 50.28 189.436 50.28C188.792 50.28 188.241 50.4853 187.784 50.896C187.336 51.3067 187.079 51.876 187.014 52.604H191.858ZM201.855 52.87C201.855 53.1127 201.841 53.3693 201.813 53.64H195.681C195.728 54.396 195.985 54.9887 196.451 55.418C196.927 55.838 197.501 56.048 198.173 56.048C198.724 56.048 199.181 55.922 199.545 55.67C199.919 55.4087 200.18 55.0633 200.329 54.634H201.701C201.496 55.3713 201.085 55.9733 200.469 56.44C199.853 56.8973 199.088 57.126 198.173 57.126C197.445 57.126 196.792 56.9627 196.213 56.636C195.644 56.3093 195.196 55.8473 194.869 55.25C194.543 54.6433 194.379 53.9433 194.379 53.15C194.379 52.3567 194.538 51.6613 194.855 51.064C195.173 50.4667 195.616 50.0093 196.185 49.692C196.764 49.3653 197.427 49.202 198.173 49.202C198.901 49.202 199.545 49.3607 200.105 49.678C200.665 49.9953 201.095 50.434 201.393 50.994C201.701 51.5447 201.855 52.17 201.855 52.87ZM200.539 52.604C200.539 52.1187 200.432 51.7033 200.217 51.358C200.003 51.0033 199.709 50.7373 199.335 50.56C198.971 50.3733 198.565 50.28 198.117 50.28C197.473 50.28 196.923 50.4853 196.465 50.896C196.017 51.3067 195.761 51.876 195.695 52.604H200.539ZM212.763 49.188C213.36 49.188 213.892 49.314 214.359 49.566C214.826 49.8087 215.194 50.1773 215.465 50.672C215.736 51.1667 215.871 51.7687 215.871 52.478V57H214.611V52.66C214.611 51.8947 214.42 51.3113 214.037 50.91C213.664 50.4993 213.155 50.294 212.511 50.294C211.848 50.294 211.321 50.5087 210.929 50.938C210.537 51.358 210.341 51.9693 210.341 52.772V57H209.081V52.66C209.081 51.8947 208.89 51.3113 208.507 50.91C208.134 50.4993 207.625 50.294 206.981 50.294C206.318 50.294 205.791 50.5087 205.399 50.938C205.007 51.358 204.811 51.9693 204.811 52.772V57H203.537V49.328H204.811V50.434C205.063 50.0327 205.399 49.7247 205.819 49.51C206.248 49.2953 206.72 49.188 207.233 49.188C207.877 49.188 208.446 49.3327 208.941 49.622C209.436 49.9113 209.804 50.336 210.047 50.896C210.262 50.3547 210.616 49.9347 211.111 49.636C211.606 49.3373 212.156 49.188 212.763 49.188ZM228.301 49.328L223.681 60.612H222.365L223.877 56.916L220.783 49.328H222.197L224.605 55.544L226.985 49.328H228.301ZM232.928 57.126C232.209 57.126 231.556 56.9627 230.968 56.636C230.389 56.3093 229.932 55.8473 229.596 55.25C229.269 54.6433 229.106 53.9433 229.106 53.15C229.106 52.366 229.274 51.6753 229.61 51.078C229.955 50.4713 230.422 50.0093 231.01 49.692C231.598 49.3653 232.256 49.202 232.984 49.202C233.712 49.202 234.37 49.3653 234.958 49.692C235.546 50.0093 236.008 50.4667 236.344 51.064C236.689 51.6613 236.862 52.3567 236.862 53.15C236.862 53.9433 236.685 54.6433 236.33 55.25C235.985 55.8473 235.513 56.3093 234.916 56.636C234.319 56.9627 233.656 57.126 232.928 57.126ZM232.928 56.006C233.385 56.006 233.815 55.8987 234.216 55.684C234.617 55.4693 234.939 55.1473 235.182 54.718C235.434 54.2887 235.56 53.766 235.56 53.15C235.56 52.534 235.439 52.0113 235.196 51.582C234.953 51.1527 234.636 50.8353 234.244 50.63C233.852 50.4153 233.427 50.308 232.97 50.308C232.503 50.308 232.074 50.4153 231.682 50.63C231.299 50.8353 230.991 51.1527 230.758 51.582C230.525 52.0113 230.408 52.534 230.408 53.15C230.408 53.7753 230.52 54.3027 230.744 54.732C230.977 55.1613 231.285 55.4833 231.668 55.698C232.051 55.9033 232.471 56.006 232.928 56.006ZM245.341 49.328V57H244.067V55.866C243.824 56.258 243.484 56.566 243.045 56.79C242.616 57.0047 242.14 57.112 241.617 57.112C241.02 57.112 240.483 56.9907 240.007 56.748C239.531 56.496 239.153 56.1227 238.873 55.628C238.602 55.1333 238.467 54.5313 238.467 53.822V49.328H239.727V53.654C239.727 54.41 239.918 54.9933 240.301 55.404C240.684 55.8053 241.206 56.006 241.869 56.006C242.55 56.006 243.087 55.796 243.479 55.376C243.871 54.956 244.067 54.3447 244.067 53.542V49.328H245.341ZM248.766 50.574C248.99 50.1353 249.307 49.7947 249.718 49.552C250.138 49.3093 250.647 49.188 251.244 49.188V50.504H250.908C249.48 50.504 248.766 51.2787 248.766 52.828V57H247.492V49.328H248.766V50.574ZM263.447 52.87C263.447 53.1127 263.433 53.3693 263.405 53.64H257.273C257.32 54.396 257.576 54.9887 258.043 55.418C258.519 55.838 259.093 56.048 259.765 56.048C260.316 56.048 260.773 55.922 261.137 55.67C261.51 55.4087 261.772 55.0633 261.921 54.634H263.293C263.088 55.3713 262.677 55.9733 262.061 56.44C261.445 56.8973 260.68 57.126 259.765 57.126C259.037 57.126 258.384 56.9627 257.805 56.636C257.236 56.3093 256.788 55.8473 256.461 55.25C256.134 54.6433 255.971 53.9433 255.971 53.15C255.971 52.3567 256.13 51.6613 256.447 51.064C256.764 50.4667 257.208 50.0093 257.777 49.692C258.356 49.3653 259.018 49.202 259.765 49.202C260.493 49.202 261.137 49.3607 261.697 49.678C262.257 49.9953 262.686 50.434 262.985 50.994C263.293 51.5447 263.447 52.17 263.447 52.87ZM262.131 52.604C262.131 52.1187 262.024 51.7033 261.809 51.358C261.594 51.0033 261.3 50.7373 260.927 50.56C260.563 50.3733 260.157 50.28 259.709 50.28C259.065 50.28 258.514 50.4853 258.057 50.896C257.609 51.3067 257.352 51.876 257.287 52.604H262.131ZM270.449 51.33V52.408H264.863V51.33H270.449ZM275.696 55.824L278.076 49.328H279.434L276.424 57H274.94L271.93 49.328H273.302L275.696 55.824ZM284.033 57.126C283.315 57.126 282.661 56.9627 282.073 56.636C281.495 56.3093 281.037 55.8473 280.701 55.25C280.375 54.6433 280.211 53.9433 280.211 53.15C280.211 52.366 280.379 51.6753 280.715 51.078C281.061 50.4713 281.527 50.0093 282.115 49.692C282.703 49.3653 283.361 49.202 284.089 49.202C284.817 49.202 285.475 49.3653 286.063 49.692C286.651 50.0093 287.113 50.4667 287.449 51.064C287.795 51.6613 287.967 52.3567 287.967 53.15C287.967 53.9433 287.79 54.6433 287.435 55.25C287.09 55.8473 286.619 56.3093 286.021 56.636C285.424 56.9627 284.761 57.126 284.033 57.126ZM284.033 56.006C284.491 56.006 284.92 55.8987 285.321 55.684C285.723 55.4693 286.045 55.1473 286.287 54.718C286.539 54.2887 286.665 53.766 286.665 53.15C286.665 52.534 286.544 52.0113 286.301 51.582C286.059 51.1527 285.741 50.8353 285.349 50.63C284.957 50.4153 284.533 50.308 284.075 50.308C283.609 50.308 283.179 50.4153 282.787 50.63C282.405 50.8353 282.097 51.1527 281.863 51.582C281.63 52.0113 281.513 52.534 281.513 53.15C281.513 53.7753 281.625 54.3027 281.849 54.732C282.083 55.1613 282.391 55.4833 282.773 55.698C283.156 55.9033 283.576 56.006 284.033 56.006ZM296.446 49.328V57H295.172V55.866C294.93 56.258 294.589 56.566 294.15 56.79C293.721 57.0047 293.245 57.112 292.722 57.112C292.125 57.112 291.588 56.9907 291.112 56.748C290.636 56.496 290.258 56.1227 289.978 55.628C289.708 55.1333 289.572 54.5313 289.572 53.822V49.328H290.832V53.654C290.832 54.41 291.024 54.9933 291.406 55.404C291.789 55.8053 292.312 56.006 292.974 56.006C293.656 56.006 294.192 55.796 294.584 55.376C294.976 54.956 295.172 54.3447 295.172 53.542V49.328H296.446ZM298.122 53.15C298.122 52.3567 298.28 51.666 298.598 51.078C298.915 50.4807 299.354 50.0187 299.914 49.692C300.483 49.3653 301.132 49.202 301.86 49.202C302.802 49.202 303.577 49.4307 304.184 49.888C304.8 50.3453 305.206 50.98 305.402 51.792H304.03C303.899 51.3253 303.642 50.9567 303.26 50.686C302.886 50.4153 302.42 50.28 301.86 50.28C301.132 50.28 300.544 50.532 300.096 51.036C299.648 51.5307 299.424 52.2353 299.424 53.15C299.424 54.074 299.648 54.788 300.096 55.292C300.544 55.796 301.132 56.048 301.86 56.048C302.42 56.048 302.886 55.9173 303.26 55.656C303.633 55.3947 303.89 55.0213 304.03 54.536H305.402C305.196 55.32 304.786 55.95 304.17 56.426C303.554 56.8927 302.784 57.126 301.86 57.126C301.132 57.126 300.483 56.9627 299.914 56.636C299.354 56.3093 298.915 55.8473 298.598 55.25C298.28 54.6527 298.122 53.9527 298.122 53.15ZM310.909 49.188C311.488 49.188 312.011 49.314 312.477 49.566C312.944 49.8087 313.308 50.1773 313.569 50.672C313.84 51.1667 313.975 51.7687 313.975 52.478V57H312.715V52.66C312.715 51.8947 312.524 51.3113 312.141 50.91C311.759 50.4993 311.236 50.294 310.573 50.294C309.901 50.294 309.365 50.504 308.963 50.924C308.571 51.344 308.375 51.9553 308.375 52.758V57H307.101V46.64H308.375V50.42C308.627 50.028 308.973 49.7247 309.411 49.51C309.859 49.2953 310.359 49.188 310.909 49.188ZM323.057 52.87C323.057 53.1127 323.043 53.3693 323.015 53.64H316.883C316.929 54.396 317.186 54.9887 317.653 55.418C318.129 55.838 318.703 56.048 319.375 56.048C319.925 56.048 320.383 55.922 320.747 55.67C321.12 55.4087 321.381 55.0633 321.531 54.634H322.903C322.697 55.3713 322.287 55.9733 321.671 56.44C321.055 56.8973 320.289 57.126 319.375 57.126C318.647 57.126 317.993 56.9627 317.415 56.636C316.845 56.3093 316.397 55.8473 316.071 55.25C315.744 54.6433 315.581 53.9433 315.581 53.15C315.581 52.3567 315.739 51.6613 316.057 51.064C316.374 50.4667 316.817 50.0093 317.387 49.692C317.965 49.3653 318.628 49.202 319.375 49.202C320.103 49.202 320.747 49.3607 321.307 49.678C321.867 49.9953 322.296 50.434 322.595 50.994C322.903 51.5447 323.057 52.17 323.057 52.87ZM321.741 52.604C321.741 52.1187 321.633 51.7033 321.419 51.358C321.204 51.0033 320.91 50.7373 320.537 50.56C320.173 50.3733 319.767 50.28 319.319 50.28C318.675 50.28 318.124 50.4853 317.667 50.896C317.219 51.3067 316.962 51.876 316.897 52.604H321.741ZM326.012 50.574C326.236 50.1353 326.553 49.7947 326.964 49.552C327.384 49.3093 327.893 49.188 328.49 49.188V50.504H328.154C326.726 50.504 326.012 51.2787 326.012 52.828V57H324.738V49.328H326.012V50.574ZM119.2 71.378H117.59V78H116.316V71.378H115.322V70.328H116.316V69.782C116.316 68.9233 116.535 68.298 116.974 67.906C117.422 67.5047 118.136 67.304 119.116 67.304V68.368C118.556 68.368 118.159 68.48 117.926 68.704C117.702 68.9187 117.59 69.278 117.59 69.782V70.328H119.2V71.378ZM121.959 71.574C122.183 71.1353 122.501 70.7947 122.911 70.552C123.331 70.3093 123.84 70.188 124.437 70.188V71.504H124.101C122.673 71.504 121.959 72.2787 121.959 73.828V78H120.685V70.328H121.959V71.574ZM129.254 78.126C128.535 78.126 127.882 77.9627 127.294 77.636C126.715 77.3093 126.258 76.8473 125.922 76.25C125.595 75.6433 125.432 74.9433 125.432 74.15C125.432 73.366 125.6 72.6753 125.936 72.078C126.281 71.4713 126.748 71.0093 127.336 70.692C127.924 70.3653 128.582 70.202 129.31 70.202C130.038 70.202 130.696 70.3653 131.284 70.692C131.872 71.0093 132.334 71.4667 132.67 72.064C133.015 72.6613 133.188 73.3567 133.188 74.15C133.188 74.9433 133.011 75.6433 132.656 76.25C132.311 76.8473 131.839 77.3093 131.242 77.636C130.645 77.9627 129.982 78.126 129.254 78.126ZM129.254 77.006C129.711 77.006 130.141 76.8987 130.542 76.684C130.943 76.4693 131.265 76.1473 131.508 75.718C131.76 75.2887 131.886 74.766 131.886 74.15C131.886 73.534 131.765 73.0113 131.522 72.582C131.279 72.1527 130.962 71.8353 130.57 71.63C130.178 71.4153 129.753 71.308 129.296 71.308C128.829 71.308 128.4 71.4153 128.008 71.63C127.625 71.8353 127.317 72.1527 127.084 72.582C126.851 73.0113 126.734 73.534 126.734 74.15C126.734 74.7753 126.846 75.3027 127.07 75.732C127.303 76.1613 127.611 76.4833 127.994 76.698C128.377 76.9033 128.797 77.006 129.254 77.006ZM144.089 70.188C144.686 70.188 145.218 70.314 145.685 70.566C146.152 70.8087 146.52 71.1773 146.791 71.672C147.062 72.1667 147.197 72.7687 147.197 73.478V78H145.937V73.66C145.937 72.8947 145.746 72.3113 145.363 71.91C144.99 71.4993 144.481 71.294 143.837 71.294C143.174 71.294 142.647 71.5087 142.255 71.938C141.863 72.358 141.667 72.9693 141.667 73.772V78H140.407V73.66C140.407 72.8947 140.216 72.3113 139.833 71.91C139.46 71.4993 138.951 71.294 138.307 71.294C137.644 71.294 137.117 71.5087 136.725 71.938C136.333 72.358 136.137 72.9693 136.137 73.772V78H134.863V70.328H136.137V71.434C136.389 71.0327 136.725 70.7247 137.145 70.51C137.574 70.2953 138.046 70.188 138.559 70.188C139.203 70.188 139.772 70.3327 140.267 70.622C140.762 70.9113 141.13 71.336 141.373 71.896C141.588 71.3547 141.942 70.9347 142.437 70.636C142.932 70.3373 143.482 70.188 144.089 70.188ZM159.627 70.328L155.007 81.612H153.691L155.203 77.916L152.109 70.328H153.523L155.931 76.544L158.311 70.328H159.627ZM164.254 78.126C163.535 78.126 162.882 77.9627 162.294 77.636C161.715 77.3093 161.258 76.8473 160.922 76.25C160.595 75.6433 160.432 74.9433 160.432 74.15C160.432 73.366 160.6 72.6753 160.936 72.078C161.281 71.4713 161.748 71.0093 162.336 70.692C162.924 70.3653 163.582 70.202 164.31 70.202C165.038 70.202 165.696 70.3653 166.284 70.692C166.872 71.0093 167.334 71.4667 167.67 72.064C168.015 72.6613 168.188 73.3567 168.188 74.15C168.188 74.9433 168.011 75.6433 167.656 76.25C167.311 76.8473 166.839 77.3093 166.242 77.636C165.645 77.9627 164.982 78.126 164.254 78.126ZM164.254 77.006C164.711 77.006 165.141 76.8987 165.542 76.684C165.943 76.4693 166.265 76.1473 166.508 75.718C166.76 75.2887 166.886 74.766 166.886 74.15C166.886 73.534 166.765 73.0113 166.522 72.582C166.279 72.1527 165.962 71.8353 165.57 71.63C165.178 71.4153 164.753 71.308 164.296 71.308C163.829 71.308 163.4 71.4153 163.008 71.63C162.625 71.8353 162.317 72.1527 162.084 72.582C161.851 73.0113 161.734 73.534 161.734 74.15C161.734 74.7753 161.846 75.3027 162.07 75.732C162.303 76.1613 162.611 76.4833 162.994 76.698C163.377 76.9033 163.797 77.006 164.254 77.006ZM176.667 70.328V78H175.393V76.866C175.15 77.258 174.81 77.566 174.371 77.79C173.942 78.0047 173.466 78.112 172.943 78.112C172.346 78.112 171.809 77.9907 171.333 77.748C170.857 77.496 170.479 77.1227 170.199 76.628C169.928 76.1333 169.793 75.5313 169.793 74.822V70.328H171.053V74.654C171.053 75.41 171.244 75.9933 171.627 76.404C172.01 76.8053 172.532 77.006 173.195 77.006C173.876 77.006 174.413 76.796 174.805 76.376C175.197 75.956 175.393 75.3447 175.393 74.542V70.328H176.667ZM180.092 71.574C180.316 71.1353 180.634 70.7947 181.044 70.552C181.464 70.3093 181.973 70.188 182.57 70.188V71.504H182.234C180.806 71.504 180.092 72.2787 180.092 73.828V78H178.818V70.328H180.092V71.574ZM190.895 71.378H189.285V78H188.011V71.378H187.017V70.328H188.011V69.782C188.011 68.9233 188.231 68.298 188.669 67.906C189.117 67.5047 189.831 67.304 190.811 67.304V68.368C190.251 68.368 189.855 68.48 189.621 68.704C189.397 68.9187 189.285 69.278 189.285 69.782V70.328H190.895V71.378ZM191.905 74.136C191.905 73.352 192.063 72.666 192.381 72.078C192.698 71.4807 193.132 71.0187 193.683 70.692C194.243 70.3653 194.863 70.202 195.545 70.202C196.217 70.202 196.8 70.3467 197.295 70.636C197.789 70.9253 198.158 71.2893 198.401 71.728V70.328H199.689V78H198.401V76.572C198.149 77.02 197.771 77.3933 197.267 77.692C196.772 77.9813 196.193 78.126 195.531 78.126C194.849 78.126 194.233 77.958 193.683 77.622C193.132 77.286 192.698 76.8147 192.381 76.208C192.063 75.6013 191.905 74.9107 191.905 74.136ZM198.401 74.15C198.401 73.5713 198.284 73.0673 198.051 72.638C197.817 72.2087 197.5 71.882 197.099 71.658C196.707 71.4247 196.273 71.308 195.797 71.308C195.321 71.308 194.887 71.42 194.495 71.644C194.103 71.868 193.79 72.1947 193.557 72.624C193.323 73.0533 193.207 73.5573 193.207 74.136C193.207 74.724 193.323 75.2373 193.557 75.676C193.79 76.1053 194.103 76.4367 194.495 76.67C194.887 76.894 195.321 77.006 195.797 77.006C196.273 77.006 196.707 76.894 197.099 76.67C197.5 76.4367 197.817 76.1053 198.051 75.676C198.284 75.2373 198.401 74.7287 198.401 74.15ZM204.698 76.824L207.078 70.328H208.436L205.426 78H203.942L200.932 70.328H202.304L204.698 76.824ZM213.035 78.126C212.317 78.126 211.663 77.9627 211.075 77.636C210.497 77.3093 210.039 76.8473 209.703 76.25C209.377 75.6433 209.213 74.9433 209.213 74.15C209.213 73.366 209.381 72.6753 209.717 72.078C210.063 71.4713 210.529 71.0093 211.117 70.692C211.705 70.3653 212.363 70.202 213.091 70.202C213.819 70.202 214.477 70.3653 215.065 70.692C215.653 71.0093 216.115 71.4667 216.451 72.064C216.797 72.6613 216.969 73.3567 216.969 74.15C216.969 74.9433 216.792 75.6433 216.437 76.25C216.092 76.8473 215.621 77.3093 215.023 77.636C214.426 77.9627 213.763 78.126 213.035 78.126ZM213.035 77.006C213.493 77.006 213.922 76.8987 214.323 76.684C214.725 76.4693 215.047 76.1473 215.289 75.718C215.541 75.2887 215.667 74.766 215.667 74.15C215.667 73.534 215.546 73.0113 215.303 72.582C215.061 72.1527 214.743 71.8353 214.351 71.63C213.959 71.4153 213.535 71.308 213.077 71.308C212.611 71.308 212.181 71.4153 211.789 71.63C211.407 71.8353 211.099 72.1527 210.865 72.582C210.632 73.0113 210.515 73.534 210.515 74.15C210.515 74.7753 210.627 75.3027 210.851 75.732C211.085 76.1613 211.393 76.4833 211.775 76.698C212.158 76.9033 212.578 77.006 213.035 77.006ZM219.918 71.574C220.142 71.1353 220.46 70.7947 220.87 70.552C221.29 70.3093 221.799 70.188 222.396 70.188V71.504H222.06C220.632 71.504 219.918 72.2787 219.918 73.828V78H218.644V70.328H219.918V71.574ZM224.525 69.082C224.282 69.082 224.077 68.998 223.909 68.83C223.741 68.662 223.657 68.4567 223.657 68.214C223.657 67.9713 223.741 67.766 223.909 67.598C224.077 67.43 224.282 67.346 224.525 67.346C224.758 67.346 224.954 67.43 225.113 67.598C225.281 67.766 225.365 67.9713 225.365 68.214C225.365 68.4567 225.281 68.662 225.113 68.83C224.954 68.998 224.758 69.082 224.525 69.082ZM225.141 70.328V78H223.867V70.328H225.141ZM228.866 71.378V75.9C228.866 76.2733 228.946 76.5393 229.104 76.698C229.263 76.8473 229.538 76.922 229.93 76.922H230.868V78H229.72C229.011 78 228.479 77.8367 228.124 77.51C227.77 77.1833 227.592 76.6467 227.592 75.9V71.378H226.598V70.328H227.592V68.396H228.866V70.328H230.868V71.378H228.866ZM239.412 73.87C239.412 74.1127 239.398 74.3693 239.37 74.64H233.238C233.285 75.396 233.541 75.9887 234.008 76.418C234.484 76.838 235.058 77.048 235.73 77.048C236.281 77.048 236.738 76.922 237.102 76.67C237.475 76.4087 237.737 76.0633 237.886 75.634H239.258C239.053 76.3713 238.642 76.9733 238.026 77.44C237.41 77.8973 236.645 78.126 235.73 78.126C235.002 78.126 234.349 77.9627 233.77 77.636C233.201 77.3093 232.753 76.8473 232.426 76.25C232.099 75.6433 231.936 74.9433 231.936 74.15C231.936 73.3567 232.095 72.6613 232.412 72.064C232.729 71.4667 233.173 71.0093 233.742 70.692C234.321 70.3653 234.983 70.202 235.73 70.202C236.458 70.202 237.102 70.3607 237.662 70.678C238.222 70.9953 238.651 71.434 238.95 71.994C239.258 72.5447 239.412 73.17 239.412 73.87ZM238.096 73.604C238.096 73.1187 237.989 72.7033 237.774 72.358C237.559 72.0033 237.265 71.7373 236.892 71.56C236.528 71.3733 236.122 71.28 235.674 71.28C235.03 71.28 234.479 71.4853 234.022 71.896C233.574 72.3067 233.317 72.876 233.252 73.604H238.096ZM254.052 70.188C254.649 70.188 255.181 70.314 255.648 70.566C256.115 70.8087 256.483 71.1773 256.754 71.672C257.025 72.1667 257.16 72.7687 257.16 73.478V78H255.9V73.66C255.9 72.8947 255.709 72.3113 255.326 71.91C254.953 71.4993 254.444 71.294 253.8 71.294C253.137 71.294 252.61 71.5087 252.218 71.938C251.826 72.358 251.63 72.9693 251.63 73.772V78H250.37V73.66C250.37 72.8947 250.179 72.3113 249.796 71.91C249.423 71.4993 248.914 71.294 248.27 71.294C247.607 71.294 247.08 71.5087 246.688 71.938C246.296 72.358 246.1 72.9693 246.1 73.772V78H244.826V70.328H246.1V71.434C246.352 71.0327 246.688 70.7247 247.108 70.51C247.537 70.2953 248.009 70.188 248.522 70.188C249.166 70.188 249.735 70.3327 250.23 70.622C250.725 70.9113 251.093 71.336 251.336 71.896C251.551 71.3547 251.905 70.9347 252.4 70.636C252.895 70.3373 253.445 70.188 254.052 70.188ZM266.25 73.87C266.25 74.1127 266.236 74.3693 266.208 74.64H260.076C260.123 75.396 260.379 75.9887 260.846 76.418C261.322 76.838 261.896 77.048 262.568 77.048C263.119 77.048 263.576 76.922 263.94 76.67C264.313 76.4087 264.575 76.0633 264.724 75.634H266.096C265.891 76.3713 265.48 76.9733 264.864 77.44C264.248 77.8973 263.483 78.126 262.568 78.126C261.84 78.126 261.187 77.9627 260.608 77.636C260.039 77.3093 259.591 76.8473 259.264 76.25C258.937 75.6433 258.774 74.9433 258.774 74.15C258.774 73.3567 258.933 72.6613 259.25 72.064C259.567 71.4667 260.011 71.0093 260.58 70.692C261.159 70.3653 261.821 70.202 262.568 70.202C263.296 70.202 263.94 70.3607 264.5 70.678C265.06 70.9953 265.489 71.434 265.788 71.994C266.096 72.5447 266.25 73.17 266.25 73.87ZM264.934 73.604C264.934 73.1187 264.827 72.7033 264.612 72.358C264.397 72.0033 264.103 71.7373 263.73 71.56C263.366 71.3733 262.96 71.28 262.512 71.28C261.868 71.28 261.317 71.4853 260.86 71.896C260.412 72.3067 260.155 72.876 260.09 73.604H264.934ZM269.206 71.574C269.43 71.1353 269.747 70.7947 270.158 70.552C270.578 70.3093 271.086 70.188 271.684 70.188V71.504H271.348C269.92 71.504 269.206 72.2787 269.206 73.828V78H267.932V70.328H269.206V71.574ZM272.678 74.15C272.678 73.3567 272.837 72.666 273.154 72.078C273.472 71.4807 273.91 71.0187 274.47 70.692C275.04 70.3653 275.688 70.202 276.416 70.202C277.359 70.202 278.134 70.4307 278.74 70.888C279.356 71.3453 279.762 71.98 279.958 72.792H278.586C278.456 72.3253 278.199 71.9567 277.816 71.686C277.443 71.4153 276.976 71.28 276.416 71.28C275.688 71.28 275.1 71.532 274.652 72.036C274.204 72.5307 273.98 73.2353 273.98 74.15C273.98 75.074 274.204 75.788 274.652 76.292C275.1 76.796 275.688 77.048 276.416 77.048C276.976 77.048 277.443 76.9173 277.816 76.656C278.19 76.3947 278.446 76.0213 278.586 75.536H279.958C279.753 76.32 279.342 76.95 278.726 77.426C278.11 77.8927 277.34 78.126 276.416 78.126C275.688 78.126 275.04 77.9627 274.47 77.636C273.91 77.3093 273.472 76.8473 273.154 76.25C272.837 75.6527 272.678 74.9527 272.678 74.15ZM285.466 70.188C286.045 70.188 286.567 70.314 287.034 70.566C287.501 70.8087 287.865 71.1773 288.126 71.672C288.397 72.1667 288.532 72.7687 288.532 73.478V78H287.272V73.66C287.272 72.8947 287.081 72.3113 286.698 71.91C286.315 71.4993 285.793 71.294 285.13 71.294C284.458 71.294 283.921 71.504 283.52 71.924C283.128 72.344 282.932 72.9553 282.932 73.758V78H281.658V67.64H282.932V71.42C283.184 71.028 283.529 70.7247 283.968 70.51C284.416 70.2953 284.915 70.188 285.466 70.188ZM290.137 74.136C290.137 73.352 290.296 72.666 290.613 72.078C290.93 71.4807 291.364 71.0187 291.915 70.692C292.475 70.3653 293.096 70.202 293.777 70.202C294.449 70.202 295.032 70.3467 295.527 70.636C296.022 70.9253 296.39 71.2893 296.633 71.728V70.328H297.921V78H296.633V76.572C296.381 77.02 296.003 77.3933 295.499 77.692C295.004 77.9813 294.426 78.126 293.763 78.126C293.082 78.126 292.466 77.958 291.915 77.622C291.364 77.286 290.93 76.8147 290.613 76.208C290.296 75.6013 290.137 74.9107 290.137 74.136ZM296.633 74.15C296.633 73.5713 296.516 73.0673 296.283 72.638C296.05 72.2087 295.732 71.882 295.331 71.658C294.939 71.4247 294.505 71.308 294.029 71.308C293.553 71.308 293.119 71.42 292.727 71.644C292.335 71.868 292.022 72.1947 291.789 72.624C291.556 73.0533 291.439 73.5573 291.439 74.136C291.439 74.724 291.556 75.2373 291.789 75.676C292.022 76.1053 292.335 76.4367 292.727 76.67C293.119 76.894 293.553 77.006 294.029 77.006C294.505 77.006 294.939 76.894 295.331 76.67C295.732 76.4367 296.05 76.1053 296.283 75.676C296.516 75.2373 296.633 74.7287 296.633 74.15ZM303.812 70.188C304.745 70.188 305.501 70.4727 306.08 71.042C306.659 71.602 306.948 72.414 306.948 73.478V78H305.688V73.66C305.688 72.8947 305.497 72.3113 305.114 71.91C304.731 71.4993 304.209 71.294 303.546 71.294C302.874 71.294 302.337 71.504 301.936 71.924C301.544 72.344 301.348 72.9553 301.348 73.758V78H300.074V70.328H301.348V71.42C301.6 71.028 301.941 70.7247 302.37 70.51C302.809 70.2953 303.289 70.188 303.812 70.188ZM310.583 71.378V75.9C310.583 76.2733 310.663 76.5393 310.821 76.698C310.98 76.8473 311.255 76.922 311.647 76.922H312.585V78H311.437C310.728 78 310.196 77.8367 309.841 77.51C309.487 77.1833 309.309 76.6467 309.309 75.9V71.378H308.315V70.328H309.309V68.396H310.583V70.328H312.585V71.378H310.583ZM314.535 78.084C314.292 78.084 314.087 78 313.919 77.832C313.751 77.664 313.667 77.4587 313.667 77.216C313.667 76.9733 313.751 76.768 313.919 76.6C314.087 76.432 314.292 76.348 314.535 76.348C314.768 76.348 314.964 76.432 315.123 76.6C315.291 76.768 315.375 76.9733 315.375 77.216C315.375 77.4587 315.291 77.664 315.123 77.832C314.964 78 314.768 78.084 314.535 78.084Z" fill="#333333"/>
<defs>
<clipPath id="clip0_1081_27190">
<rect width="57" height="63" fill="white" transform="translate(21 18)"/>
</clipPath>
</defs>
</svg>
