<svg width="25" height="24" viewBox="0 0 25 24" fill="none" xmlns="http://www.w3.org/2000/svg">
<path d="M18.157 16.657L13.914 20.9C13.7284 21.0857 13.5081 21.233 13.2656 21.3336C13.023 21.4341 12.7631 21.4859 12.5005 21.4859C12.238 21.4859 11.978 21.4341 11.7354 21.3336C11.4929 21.233 11.2726 21.0857 11.087 20.9L6.843 16.657C5.72422 15.5381 4.96234 14.1127 4.65369 12.5608C4.34504 11.009 4.50349 9.40047 5.10901 7.93868C5.71452 6.4769 6.7399 5.22749 8.05548 4.34846C9.37107 3.46943 10.9178 3.00024 12.5 3.00024C14.0822 3.00024 15.6289 3.46943 16.9445 4.34846C18.2601 5.22749 19.2855 6.4769 19.891 7.93868C20.4965 9.40047 20.655 11.009 20.3463 12.5608C20.0377 14.1127 19.2758 15.5381 18.157 16.657V16.657Z" stroke="#333333" stroke-width="2" stroke-linecap="round" stroke-linejoin="round"/>
<path d="M15.5 11C15.5 11.7956 15.1839 12.5587 14.6213 13.1213C14.0587 13.6839 13.2956 14 12.5 14C11.7044 14 10.9413 13.6839 10.3787 13.1213C9.81607 12.5587 9.5 11.7956 9.5 11C9.5 10.2044 9.81607 9.44129 10.3787 8.87868C10.9413 8.31607 11.7044 8 12.5 8C13.2956 8 14.0587 8.31607 14.6213 8.87868C15.1839 9.44129 15.5 10.2044 15.5 11V11Z" stroke="#333333" stroke-width="2" stroke-linecap="round" stroke-linejoin="round"/>
</svg>
