<svg width="21" height="20" viewBox="0 0 21 20" fill="none" xmlns="http://www.w3.org/2000/svg">
<path d="M19.5 19L13.5 13L19.5 19ZM15.5 8C15.5 8.91925 15.3189 9.82951 14.9672 10.6788C14.6154 11.5281 14.0998 12.2997 13.4497 12.9497C12.7997 13.5998 12.0281 14.1154 11.1788 14.4672C10.3295 14.8189 9.41925 15 8.5 15C7.58075 15 6.6705 14.8189 5.82122 14.4672C4.97194 14.1154 4.20026 13.5998 3.55025 12.9497C2.90024 12.2997 2.38463 11.5281 2.03284 10.6788C1.68106 9.82951 1.5 8.91925 1.5 8C1.5 6.14348 2.2375 4.36301 3.55025 3.05025C4.86301 1.7375 6.64348 1 8.5 1C10.3565 1 12.137 1.7375 13.4497 3.05025C14.7625 4.36301 15.5 6.14348 15.5 8Z" stroke="#333333" stroke-width="2" stroke-linecap="round" stroke-linejoin="round"/>
</svg>
