<svg width="26" height="26" viewBox="0 0 26 26" fill="none" xmlns="http://www.w3.org/2000/svg">
<path d="M13.38 25.98C20.3056 25.98 25.92 20.3657 25.92 13.44C25.92 6.51435 20.3056 0.899994 13.38 0.899994C6.45435 0.899994 0.839996 6.51435 0.839996 13.44C0.839996 20.3657 6.45435 25.98 13.38 25.98Z" fill="white"/>
<path d="M9.36 23.74C8.54 23.74 7.87 23.07 7.87 22.25V4.75C7.87 3.93 8.54 3.26001 9.36 3.26001H16.61C17.43 3.26001 18.1 3.93 18.1 4.75V22.25C18.1 23.07 17.43 23.74 16.61 23.74H9.36Z" fill="#E6E7E8"/>
<path d="M16.85 23.48H9.12C8.57 23.48 8.12 23.03 8.12 22.48V4.51001C8.12 3.96001 8.57 3.51001 9.12 3.51001H16.85C17.4 3.51001 17.85 3.96001 17.85 4.51001V22.48C17.84 23.04 17.4 23.48 16.85 23.48Z" fill="#F5F5F5"/>
<path d="M8.12 4.75H7.86V4.82999H8.12V4.75Z" fill="white"/>
<path d="M8.12 22.17H7.86V22.25H8.12V22.17Z" fill="white"/>
<path d="M18.1 4.75H17.84V4.82999H18.1V4.75Z" fill="white"/>
<path d="M18.1 22.17H17.84V22.25H18.1V22.17Z" fill="white"/>
<path d="M13.66 4.19H12.31C12.26 4.19 12.21 4.15 12.21 4.09C12.21 4.04 12.25 3.98999 12.31 3.98999H13.66C13.71 3.98999 13.76 4.03 13.76 4.09C13.76 4.15 13.72 4.19 13.66 4.19Z" fill="#33302B"/>
<path d="M14.34 4.10001C14.34 4.15001 14.3 4.20001 14.24 4.20001C14.19 4.20001 14.14 4.16001 14.14 4.10001C14.14 4.04001 14.18 4 14.24 4C14.3 4 14.34 4.04001 14.34 4.10001Z" fill="#33302B"/>
<path d="M7.93 9H7.83C7.82 9 7.82 8.98999 7.82 8.98999V7.62C7.82 7.61 7.83 7.60999 7.83 7.60999H7.93C7.95 7.60999 7.96 7.62001 7.96 7.64001V8.98001C7.96 8.99001 7.95 9 7.93 9Z" fill="#D1D4D5"/>
<path d="M7.93 10.59H7.83C7.82 10.59 7.82 10.58 7.82 10.58V9.20999C7.82 9.19999 7.83 9.20001 7.83 9.20001H7.93C7.95 9.20001 7.96 9.21001 7.96 9.23001V10.57C7.96 10.58 7.95 10.59 7.93 10.59Z" fill="#D1D4D5"/>
<path d="M18.02 7.60001H18.12C18.13 7.60001 18.13 7.60999 18.13 7.60999V10.57C18.13 10.58 18.12 10.58 18.12 10.58H18.02C18 10.58 17.99 10.57 17.99 10.55V7.62C17.99 7.62 18 7.60001 18.02 7.60001Z" fill="#D1D4D5"/>
<path d="M9.31 6.13H9.18C9.15 6.13 9.12 6.16 9.12 6.19V6.32001C9.12 6.35001 9.15 6.38 9.18 6.38H9.31C9.34 6.38 9.37 6.35001 9.37 6.32001V6.19C9.37 6.16 9.34 6.13 9.31 6.13Z" fill="white"/>
<path d="M9.74 6.13H9.61C9.58 6.13 9.55 6.16 9.55 6.19V6.32001C9.55 6.35001 9.58 6.38 9.61 6.38H9.74C9.77 6.38 9.8 6.35001 9.8 6.32001V6.19C9.8 6.16 9.77 6.13 9.74 6.13Z" fill="white"/>
<path d="M9.31 6.54001H9.18C9.15 6.54001 9.12 6.57001 9.12 6.60001V6.73001C9.12 6.76001 9.15 6.79001 9.18 6.79001H9.31C9.34 6.79001 9.37 6.76001 9.37 6.73001V6.60001C9.37 6.56001 9.34 6.54001 9.31 6.54001Z" fill="white"/>
<path d="M9.74 6.54001H9.61C9.58 6.54001 9.55 6.57001 9.55 6.60001V6.73001C9.55 6.76001 9.58 6.79001 9.61 6.79001H9.74C9.77 6.79001 9.8 6.76001 9.8 6.73001V6.60001C9.8 6.56001 9.77 6.54001 9.74 6.54001Z" fill="white"/>
<path d="M9.96 4.89001H9.93L9.94 4.81H10.06V4.79001H9.92L9.91 4.92001H9.96C10.03 4.92001 10.05 4.94 10.05 4.97C10.05 5 10.03 5.01999 9.98 5.01999C9.95 5.01999 9.92 5.00999 9.9 4.98999L9.89 5.01001C9.91 5.03001 9.94 5.04001 9.98 5.04001C10.04 5.04001 10.07 5.00999 10.07 4.95999C10.06 4.91999 10.04 4.89001 9.96 4.89001ZM9.75 4.89001H9.72L9.73 4.81H9.85V4.79001H9.71L9.7 4.92001H9.75C9.82 4.92001 9.84 4.94 9.84 4.97C9.84 5 9.82 5.01999 9.77 5.01999C9.74 5.01999 9.71 5.00999 9.69 4.98999L9.68 5.01001C9.7 5.03001 9.73 5.04001 9.77 5.04001C9.83 5.04001 9.86 5.00999 9.86 4.95999C9.86 4.91999 9.83 4.89001 9.75 4.89001ZM9.63 5.04001C9.64 5.04001 9.65 5.02999 9.65 5.01999C9.65 5.00999 9.64 5 9.63 5C9.62 5 9.61 5.00999 9.61 5.01999C9.61 5.02999 9.62 5.04001 9.63 5.04001ZM9.63 4.88C9.64 4.88 9.65 4.86999 9.65 4.85999C9.65 4.84999 9.64 4.84 9.63 4.84C9.62 4.84 9.61 4.84999 9.61 4.85999C9.61 4.86999 9.62 4.88 9.63 4.88ZM9.47 5.01999C9.43 5.01999 9.39 4.98 9.39 4.91C9.39 4.84 9.42 4.79999 9.47 4.79999C9.51 4.79999 9.55 4.84 9.55 4.91C9.55 4.98 9.51 5.01999 9.47 5.01999ZM9.47 5.04001C9.53 5.04001 9.57 4.99 9.57 4.91C9.57 4.83 9.53 4.78 9.47 4.78C9.41 4.78 9.37 4.83 9.37 4.91C9.37 4.99 9.41 5.04001 9.47 5.04001ZM9.19 5.01001L9.28 4.92001C9.31 4.89001 9.32 4.86 9.32 4.84C9.32 4.8 9.29 4.76999 9.24 4.76999C9.2 4.76999 9.17 4.78 9.15 4.81L9.17 4.82999C9.19 4.80999 9.21 4.79999 9.24 4.79999C9.28 4.79999 9.3 4.82001 9.3 4.85001C9.3 4.87001 9.29 4.88 9.27 4.91L9.16 5.01001V5.03H9.34V5.01001H9.19Z" fill="white"/>
<path d="M19.68 23.5H16.09C15.66 23.5 15.3 23.15 15.3 22.71V19.12C15.3 18.69 15.65 18.33 16.09 18.33H19.68C20.11 18.33 20.47 18.68 20.47 19.12V22.71C20.47 23.14 20.12 23.5 19.68 23.5Z" fill="white"/>
<path d="M19.68 23.56H16.09C15.62 23.56 15.24 23.18 15.24 22.71V19.12C15.24 18.65 15.62 18.27 16.09 18.27H19.68C20.15 18.27 20.53 18.65 20.53 19.12V22.71C20.53 23.18 20.15 23.56 19.68 23.56ZM16.09 18.4C15.69 18.4 15.37 18.72 15.37 19.12V22.71C15.37 23.11 15.69 23.43 16.09 23.43H19.68C20.08 23.43 20.4 23.11 20.4 22.71V19.12C20.4 18.72 20.08 18.4 19.68 18.4H16.09Z" fill="#ED2F35"/>
<path d="M17.07 22.37C17.11 22.39 17.16 22.41 17.21 22.41C17.27 22.41 17.3 22.38 17.3 22.35C17.3 22.31 17.27 22.29 17.2 22.27C17.1 22.24 17.04 22.18 17.04 22.1C17.04 22 17.12 21.93 17.26 21.93C17.32 21.93 17.37 21.94 17.41 21.96L17.38 22.07C17.36 22.06 17.32 22.04 17.26 22.04C17.2 22.04 17.18 22.07 17.18 22.1C17.18 22.14 17.21 22.15 17.29 22.18C17.39 22.22 17.44 22.27 17.44 22.35C17.44 22.45 17.37 22.53 17.21 22.53C17.14 22.53 17.08 22.51 17.05 22.5L17.07 22.37Z" fill="#231F20"/>
<path d="M17.85 22.49C17.83 22.5 17.78 22.51 17.73 22.51C17.59 22.51 17.51 22.43 17.51 22.3C17.51 22.18 17.59 22.08 17.75 22.08C17.78 22.08 17.82 22.09 17.85 22.1L17.83 22.2C17.81 22.19 17.79 22.19 17.76 22.19C17.69 22.19 17.65 22.24 17.65 22.31C17.65 22.39 17.7 22.43 17.77 22.43C17.8 22.43 17.82 22.42 17.84 22.42L17.85 22.49Z" fill="#231F20"/>
<path d="M18.16 22.5L18.15 22.46C18.12 22.49 18.08 22.51 18.03 22.51C17.95 22.51 17.89 22.45 17.89 22.38C17.89 22.27 17.99 22.22 18.13 22.22V22.21C18.13 22.19 18.12 22.16 18.05 22.16C18.01 22.16 17.96 22.17 17.93 22.19L17.91 22.11C17.94 22.09 18 22.07 18.07 22.07C18.21 22.07 18.25 22.15 18.25 22.25V22.4C18.25 22.44 18.25 22.48 18.26 22.5H18.16ZM18.14 22.3C18.07 22.3 18.02 22.32 18.02 22.37C18.02 22.4 18.04 22.42 18.07 22.42C18.1 22.42 18.13 22.4 18.14 22.37C18.14 22.36 18.14 22.36 18.14 22.35V22.3Z" fill="#231F20"/>
<path d="M18.37 22.21C18.37 22.16 18.37 22.11 18.37 22.08H18.48L18.49 22.14C18.51 22.11 18.55 22.07 18.62 22.07C18.71 22.07 18.77 22.13 18.77 22.25V22.5H18.64V22.27C18.64 22.22 18.62 22.18 18.57 22.18C18.53 22.18 18.51 22.21 18.5 22.23C18.5 22.24 18.5 22.25 18.5 22.26V22.5H18.37V22.21Z" fill="#231F20"/>
<path d="M14.89 21.72H13.65V21.82H14.89V21.72Z" fill="#ED2F35"/>
<path d="M13.65 21.88C13.7108 21.88 13.76 21.8307 13.76 21.77C13.76 21.7092 13.7108 21.66 13.65 21.66C13.5893 21.66 13.54 21.7092 13.54 21.77C13.54 21.8307 13.5893 21.88 13.65 21.88Z" fill="#ED2F35"/>
<path d="M14.88 21.88C14.9407 21.88 14.99 21.8307 14.99 21.77C14.99 21.7092 14.9407 21.66 14.88 21.66C14.8192 21.66 14.77 21.7092 14.77 21.77C14.77 21.8307 14.8192 21.88 14.88 21.88Z" fill="#ED2F35"/>
</svg>
