<svg width="26" height="26" viewBox="0 0 26 26" fill="none" xmlns="http://www.w3.org/2000/svg">
<path d="M13.15 25.98C20.0756 25.98 25.69 20.3657 25.69 13.44C25.69 6.51435 20.0756 0.899994 13.15 0.899994C6.22434 0.899994 0.609985 6.51435 0.609985 13.44C0.609985 20.3657 6.22434 25.98 13.15 25.98Z" fill="white"/>
<path d="M19.91 17.12L12.94 21.62C12.79 21.71 12.6 21.67 12.5 21.53L9.92998 17.54C9.83998 17.39 9.87998 17.2 10.02 17.1L16.99 12.6C17.14 12.51 17.33 12.55 17.43 12.69L20 16.68C20.1 16.83 20.06 17.03 19.91 17.12Z" fill="url(#paint0_linear_171_14385)"/>
<path opacity="0.3" d="M17.8847 13.398L10.3742 18.247L11.2312 19.5744L18.7417 14.7253L17.8847 13.398Z" fill="white"/>
<path d="M15.6 17.8L12.17 20.01C12.13 20.03 12.09 20.02 12.06 19.99L12.02 19.93C12 19.89 12.01 19.85 12.04 19.82L15.47 17.61C15.51 17.59 15.55 17.6 15.58 17.63L15.62 17.69C15.65 17.73 15.64 17.78 15.6 17.8Z" fill="white"/>
<path d="M15.84 18.17L12.41 20.38C12.37 20.4 12.33 20.39 12.3 20.36L12.26 20.3C12.24 20.26 12.25 20.22 12.28 20.19L15.71 17.98C15.75 17.96 15.79 17.97 15.82 18L15.86 18.06C15.89 18.1 15.88 18.15 15.84 18.17Z" fill="white"/>
<path d="M15.2 19.11L12.66 20.75C12.62 20.77 12.58 20.76 12.55 20.73L12.51 20.67C12.49 20.63 12.5 20.59 12.53 20.56L15.07 18.92C15.11 18.9 15.15 18.91 15.18 18.94L15.22 19C15.24 19.04 15.23 19.09 15.2 19.11Z" fill="white"/>
<path d="M18.87 16.72L18.2 17.15C18.05 17.24 17.86 17.2 17.77 17.06L17.62 16.83C17.53 16.68 17.57 16.49 17.71 16.4L18.38 15.97C18.53 15.88 18.72 15.92 18.81 16.06L18.96 16.29C19.05 16.43 19.01 16.63 18.87 16.72Z" fill="url(#paint1_radial_171_14385)"/>
<path d="M13.82 9.04999C13.71 9.01999 13.6 8.98001 13.48 8.95001V8.45999C13.48 7.91999 13.04 7.48001 12.5 7.48001H7.72C7.18 7.48001 6.73999 7.91999 6.73999 8.45999V8.95001C6.62999 8.98001 6.51999 9.00999 6.39999 9.04999C6.18999 9.11999 6.04999 9.31 6.04999 9.53L6.20001 20.63C6.21001 21.53 6.94 22.25 7.84 22.25H12.36C13.26 22.25 13.99 21.53 14 20.63L14.15 9.53C14.17 9.31 14.03 9.10999 13.82 9.04999Z" fill="#7900FF"/>
<path d="M13.07 4.01001H7.16V10.83H13.07V4.01001Z" fill="white"/>
<path d="M13.07 4.01001H7.16V10.83H13.07V4.01001Z" fill="url(#paint2_linear_171_14385)"/>
<path d="M6.54001 10.77L6.85001 10.67C9.09001 9.98003 11.1 9.98003 13.35 10.67L13.66 10.77L13.52 20.82C13.51 21.61 12.87 22.24 12.08 22.24H8.12C7.33 22.24 6.68999 21.61 6.67999 20.82L6.54001 10.77Z" fill="#7900FF"/>
<path d="M13.14 11.65H7.06V16.19H13.14V11.65Z" fill="white"/>
<path d="M13.14 11.65H7.06V12.44H13.14V11.65Z" fill="url(#paint3_linear_171_14385)"/>
<path d="M10.1 15.74C10.8843 15.74 11.52 15.1043 11.52 14.32C11.52 13.5358 10.8843 12.9 10.1 12.9C9.31576 12.9 8.67999 13.5358 8.67999 14.32C8.67999 15.1043 9.31576 15.74 10.1 15.74Z" fill="url(#paint4_linear_171_14385)"/>
<path d="M10.06 14.98C10.01 14.98 9.95999 14.95 9.92999 14.91L9.29999 13.98C9.24999 13.91 9.27 13.81 9.34 13.76C9.41 13.71 9.51 13.73 9.56 13.8L10.05 14.52L11.01 12.81C11.05 12.73 11.15 12.71 11.22 12.75C11.3 12.79 11.32 12.89 11.28 12.96L10.19 14.89C10.17 14.94 10.12 14.97 10.06 14.98Z" fill="#7900FF"/>
<path d="M7.82999 17.73H7.28C7.16 17.73 7.06 17.63 7.06 17.51V17.32C7.06 17.2 7.16 17.1 7.28 17.1H7.82999C7.94999 17.1 8.04999 17.2 8.04999 17.32V17.51C8.03999 17.64 7.93999 17.73 7.82999 17.73Z" fill="white"/>
<path d="M9.20999 17.73H8.66C8.54 17.73 8.44 17.63 8.44 17.51V17.32C8.44 17.2 8.54 17.1 8.66 17.1H9.20999C9.32999 17.1 9.42999 17.2 9.42999 17.32V17.51C9.41999 17.64 9.32999 17.73 9.20999 17.73Z" fill="white"/>
<path d="M11.55 17.73H11C10.88 17.73 10.78 17.63 10.78 17.51V17.32C10.78 17.2 10.88 17.1 11 17.1H11.55C11.67 17.1 11.77 17.2 11.77 17.32V17.51C11.76 17.64 11.66 17.73 11.55 17.73Z" fill="white"/>
<path d="M12.93 17.73H12.38C12.26 17.73 12.16 17.63 12.16 17.51V17.32C12.16 17.2 12.26 17.1 12.38 17.1H12.93C13.05 17.1 13.15 17.2 13.15 17.32V17.51C13.14 17.64 13.05 17.73 12.93 17.73Z" fill="white"/>
<path d="M8.26999 19.02H7.5C7.35 19.02 7.23001 18.9 7.23001 18.75V18.52C7.23001 18.37 7.35 18.25 7.5 18.25H8.26999C8.41999 18.25 8.54001 18.37 8.54001 18.52V18.75C8.54001 18.9 8.41999 19.02 8.26999 19.02Z" fill="white"/>
<path d="M10.49 19.02H9.72C9.57 19.02 9.45001 18.9 9.45001 18.75V18.52C9.45001 18.37 9.57 18.25 9.72 18.25H10.49C10.64 18.25 10.76 18.37 10.76 18.52V18.75C10.75 18.9 10.63 19.02 10.49 19.02Z" fill="white"/>
<path d="M12.7 19.02H11.93C11.78 19.02 11.66 18.9 11.66 18.75V18.52C11.66 18.37 11.78 18.25 11.93 18.25H12.7C12.85 18.25 12.97 18.37 12.97 18.52V18.75C12.97 18.9 12.85 19.02 12.7 19.02Z" fill="white"/>
<path d="M8.26999 20.05H7.5C7.35 20.05 7.23001 19.93 7.23001 19.78V19.55C7.23001 19.4 7.35 19.28 7.5 19.28H8.26999C8.41999 19.28 8.54001 19.4 8.54001 19.55V19.78C8.54001 19.93 8.41999 20.05 8.26999 20.05Z" fill="white"/>
<path d="M10.49 20.05H9.72C9.57 20.05 9.45001 19.93 9.45001 19.78V19.55C9.45001 19.4 9.57 19.28 9.72 19.28H10.49C10.64 19.28 10.76 19.4 10.76 19.55V19.78C10.75 19.93 10.63 20.05 10.49 20.05Z" fill="white"/>
<path d="M12.7 20.05H11.93C11.78 20.05 11.66 19.93 11.66 19.78V19.55C11.66 19.4 11.78 19.28 11.93 19.28H12.7C12.85 19.28 12.97 19.4 12.97 19.55V19.78C12.97 19.93 12.85 20.05 12.7 20.05Z" fill="white"/>
<path d="M8.26999 21.07H7.5C7.35 21.07 7.23001 20.95 7.23001 20.8V20.57C7.23001 20.42 7.35 20.3 7.5 20.3H8.26999C8.41999 20.3 8.54001 20.42 8.54001 20.57V20.8C8.54001 20.95 8.41999 21.07 8.26999 21.07Z" fill="white"/>
<path d="M10.49 21.07H9.72C9.57 21.07 9.45001 20.95 9.45001 20.8V20.57C9.45001 20.42 9.57 20.3 9.72 20.3H10.49C10.64 20.3 10.76 20.42 10.76 20.57V20.8C10.75 20.95 10.63 21.07 10.49 21.07Z" fill="white"/>
<path d="M12.7 21.07H11.93C11.78 21.07 11.66 20.95 11.66 20.8V20.57C11.66 20.42 11.78 20.3 11.93 20.3H12.7C12.85 20.3 12.97 20.42 12.97 20.57V20.8C12.97 20.95 12.85 21.07 12.7 21.07Z" fill="white"/>
<mask id="mask0_171_14385" style="mask-type:luminance" maskUnits="userSpaceOnUse" x="7" y="11" width="7" height="6">
<path d="M13.14 11.65H7.06V16.19H13.14V11.65Z" fill="white"/>
</mask>
<g mask="url(#mask0_171_14385)">
<path d="M7.29999 17.35L6.39001 16.36L12.9 10.37L13.81 11.35L7.29999 17.35Z" fill="url(#paint5_linear_171_14385)"/>
</g>
<path opacity="0.4" d="M11.71 4.34H8.51001V4.64999H11.71V4.34Z" fill="#7900FF"/>
<g opacity="0.4">
<path d="M8.92999 6.70001H7.54999V6.85999H8.92999V6.70001Z" fill="#7900FF"/>
<path d="M10.65 6.70001H9.26999V6.85999H10.65V6.70001Z" fill="#7900FF"/>
<path d="M12.65 6.70001H12.31V6.85999H12.65V6.70001Z" fill="#7900FF"/>
<path d="M12.65 7.13H12.31V7.29001H12.65V7.13Z" fill="#7900FF"/>
<path d="M12.65 7.56H12.31V7.72H12.65V7.56Z" fill="#7900FF"/>
<path d="M12.65 7.98001H12.31V8.14001H12.65V7.98001Z" fill="#7900FF"/>
<path d="M12.65 8.41H12.31V8.57001H12.65V8.41Z" fill="#7900FF"/>
<path d="M12.65 8.84H12.31V9H12.65V8.84Z" fill="#7900FF"/>
<path d="M12.14 6.70001H11.96V6.85999H12.14V6.70001Z" fill="#7900FF"/>
<path d="M12.14 7.13H11.96V7.29001H12.14V7.13Z" fill="#7900FF"/>
<path d="M12.14 7.56H11.96V7.72H12.14V7.56Z" fill="#7900FF"/>
<path d="M12.14 7.98001H11.96V8.14001H12.14V7.98001Z" fill="#7900FF"/>
<path d="M12.14 8.41H11.96V8.57001H12.14V8.41Z" fill="#7900FF"/>
<path d="M12.14 8.84H11.96V9H12.14V8.84Z" fill="#7900FF"/>
<path d="M9.32001 7.13H7.54999V7.29001H9.32001V7.13Z" fill="#7900FF"/>
<path d="M10.96 7.13H9.75V7.29001H10.96V7.13Z" fill="#7900FF"/>
<path d="M8.92999 7.64001H7.54999V7.79999H8.92999V7.64001Z" fill="#7900FF"/>
<path d="M10.65 7.64001H9.26999V7.79999H10.65V7.64001Z" fill="#7900FF"/>
<path d="M9.32001 8.07001H7.54999V8.23001H9.32001V8.07001Z" fill="#7900FF"/>
<path d="M10.29 5.66H7.54999V5.82001H10.29V5.66Z" fill="#7900FF"/>
<path d="M12.66 5.66H10.72V5.82001H12.66V5.66Z" fill="#7900FF"/>
<path d="M11.52 8.07001H9.75V8.23001H11.52V8.07001Z" fill="#7900FF"/>
<path d="M8.92999 8.59H7.54999V8.75H8.92999V8.59Z" fill="#7900FF"/>
<path d="M10.65 8.59H9.26999V8.75H10.65V8.59Z" fill="#7900FF"/>
<path d="M9.32001 9.01999H7.54999V9.17999H9.32001V9.01999Z" fill="#7900FF"/>
<path d="M11.52 9.01999H9.75V9.17999H11.52V9.01999Z" fill="#7900FF"/>
</g>
<path d="M19.47 22.88H12.1C11.67 22.88 11.32 22.53 11.32 22.1V18.29C11.32 17.86 11.67 17.51 12.1 17.51H19.47C19.9 17.51 20.25 17.86 20.25 18.29V22.1C20.25 22.53 19.9 22.88 19.47 22.88Z" fill="url(#paint6_linear_171_14385)"/>
<path opacity="0.2" d="M20.25 18.66H11.31V20.24H20.25V18.66Z" fill="white"/>
<path d="M15.94 21.11H11.86C11.82 21.11 11.78 21.08 11.78 21.03V20.96C11.78 20.92 11.81 20.88 11.86 20.88H15.94C15.98 20.88 16.02 20.91 16.02 20.96V21.03C16.02 21.07 15.98 21.11 15.94 21.11Z" fill="white"/>
<path d="M15.94 21.55H11.86C11.82 21.55 11.78 21.52 11.78 21.47V21.4C11.78 21.36 11.81 21.32 11.86 21.32H15.94C15.98 21.32 16.02 21.35 16.02 21.4V21.47C16.02 21.51 15.98 21.55 15.94 21.55Z" fill="white"/>
<path d="M14.89 21.99H11.86C11.82 21.99 11.78 21.96 11.78 21.91V21.84C11.78 21.8 11.81 21.76 11.86 21.76H14.89C14.93 21.76 14.97 21.79 14.97 21.84V21.91C14.97 21.95 14.93 21.99 14.89 21.99Z" fill="white"/>
<path d="M19.27 21.97H18.47C18.3 21.97 18.16 21.83 18.16 21.66V21.38C18.16 21.21 18.3 21.07 18.47 21.07H19.27C19.44 21.07 19.58 21.21 19.58 21.38V21.66C19.58 21.83 19.44 21.97 19.27 21.97Z" fill="url(#paint7_linear_171_14385)"/>
<defs>
<linearGradient id="paint0_linear_171_14385" x1="9.87668" y1="17.1133" x2="20.0594" y2="17.1133" gradientUnits="userSpaceOnUse">
<stop stop-color="#D4ADFF"/>
<stop offset="1" stop-color="#E0C4FF"/>
</linearGradient>
<radialGradient id="paint1_radial_171_14385" cx="0" cy="0" r="1" gradientUnits="userSpaceOnUse" gradientTransform="translate(17.4684 16.5263) rotate(-32.8477) scale(2.46755 2.46755)">
<stop stop-color="#DEBFFF"/>
<stop offset="1" stop-color="#BB7DFF"/>
</radialGradient>
<linearGradient id="paint2_linear_171_14385" x1="7.1562" y1="7.4171" x2="13.0631" y2="7.4171" gradientUnits="userSpaceOnUse">
<stop stop-color="#7A03FF" stop-opacity="0"/>
<stop offset="1" stop-color="#A14DFF" stop-opacity="0.2"/>
</linearGradient>
<linearGradient id="paint3_linear_171_14385" x1="7.0584" y1="12.0488" x2="13.1428" y2="12.0488" gradientUnits="userSpaceOnUse">
<stop stop-color="#C794FF"/>
<stop offset="1" stop-color="#C794FF" stop-opacity="0"/>
</linearGradient>
<linearGradient id="paint4_linear_171_14385" x1="8.67949" y1="14.3162" x2="13.8029" y2="14.3162" gradientUnits="userSpaceOnUse">
<stop stop-color="#C794FF"/>
<stop offset="1" stop-color="#C794FF" stop-opacity="0"/>
</linearGradient>
<linearGradient id="paint5_linear_171_14385" x1="6.39391" y1="13.8575" x2="13.8073" y2="13.8575" gradientUnits="userSpaceOnUse">
<stop stop-color="#7A03FF" stop-opacity="0"/>
<stop offset="1" stop-color="#A14DFF" stop-opacity="0.2"/>
</linearGradient>
<linearGradient id="paint6_linear_171_14385" x1="11.9487" y1="22.1641" x2="20.2836" y2="17.8656" gradientUnits="userSpaceOnUse">
<stop stop-color="#810FFF"/>
<stop offset="1" stop-color="#8A21FF"/>
</linearGradient>
<linearGradient id="paint7_linear_171_14385" x1="18.1551" y1="21.5222" x2="19.5804" y2="21.5222" gradientUnits="userSpaceOnUse">
<stop stop-color="#D4ADFF"/>
<stop offset="1" stop-color="#E0C4FF"/>
</linearGradient>
</defs>
</svg>
