<svg width="47" height="37" viewBox="0 0 47 37" fill="none" xmlns="http://www.w3.org/2000/svg">
<path d="M46.69 22.99C46.69 17.94 42.09 16.6 40.27 16.6C38.46 16.6 33.85 17.94 33.85 22.99V25.28C33.86 25.57 33.85 25.89 33.85 26.21V27.69C33.85 27.92 33.89 28.14 33.99 28.34C34.18 28.75 34.61 29.34 35.51 29.34C36.26 29.34 36.68 28.94 36.91 28.56C36.95 28.5 36.98 28.44 37.01 28.38C37.1 28.21 37.17 27.92 37.17 27.73V22.88C37.17 22.55 37.22 22.22 37.33 21.91C37.6 21.12 38.34 19.89 40.27 19.89C42.2 19.89 42.94 21.12 43.21 21.91C43.32 22.22 43.37 22.55 43.37 22.88V27.73C43.37 27.92 43.44 28.21 43.53 28.38C43.56 28.44 43.59 28.5 43.63 28.56C43.86 28.93 44.28 29.34 45.03 29.34C45.93 29.34 46.36 28.75 46.55 28.34C46.65 28.14 46.69 27.91 46.69 27.69V26.21C46.69 25.88 46.68 25.57 46.69 25.28V22.99Z" fill="#61308C"/>
<path d="M33.85 11.72C33.49 12.8 32.09 16.28 30.15 15.56C29.21 15.21 28.36 14.06 27.78 13.04C27.52 12.58 27.31 12.14 27.17 11.82H27.15C26.04 11.84 23.55 11.7 22.53 10.67C22.39 10.53 22.29 10.38 22.22 10.21C22.06 9.84999 22.07 9.43999 22.18 9.01999C22.47 7.91999 23.47 6.74 24.14 6.06C24.28 5.92 24.4 5.79999 24.5 5.70999C24.37 5.15999 23.92 3.68999 23.98 2.49999C24 2.07999 24.09 1.69999 24.28 1.39999C24.35 1.28999 24.43 1.2 24.53 1.11999C25.75 0.109995 27.89 1.18999 29.21 1.90999C29.34 1.97999 29.47 2.04999 29.59 2.11999C29.68 2.06999 29.8 1.98999 29.94 1.87999C30.39 1.56999 31.08 1.06999 31.82 0.659994C32.82 0.109994 33.92 -0.260006 34.63 0.229994C35.13 0.519994 35.35 1.13999 35.41 1.85999C35.44 2.20999 35.44 2.59 35.41 2.97C35.37 3.51 35.29 4.03999 35.21 4.49999C35.12 4.98999 35.04 5.39 35.01 5.60999C35.5 5.97999 36.19 6.47999 36.8 7.06999C37.18 7.43999 37.53 7.84999 37.77 8.27999C38.04 8.76999 38.16 9.27999 38.02 9.79C37.99 9.91 37.93 10.03 37.86 10.14C37.13 11.26 34.6 11.57 33.85 11.72Z" fill="#B3742A"/>
<path d="M33.72 11.41C33.38 12.45 32.02 15.81 30.15 15.12C29.24 14.79 28.43 13.67 27.87 12.69C27.61 12.24 27.41 11.82 27.28 11.51C27.27 11.51 27.27 11.51 27.26 11.51C26.19 11.53 23.79 11.39 22.8 10.4C22.66 10.26 22.57 10.12 22.5 9.95999C22.35 9.60999 22.35 9.21 22.46 8.81C22.74 7.75 23.71 6.60999 24.35 5.95999C24.48 5.81999 24.6 5.70999 24.7 5.61999C24.58 5.08999 24.14 3.66999 24.2 2.52999C24.22 2.12999 24.31 1.75999 24.49 1.46999C24.56 1.36999 24.64 1.27 24.73 1.2C25.91 0.229996 27.97 1.26999 29.25 1.95999C29.38 2.02999 29.5 2.09999 29.61 2.15999C29.7 2.10999 29.81 2.03 29.95 1.93C30.38 1.63 31.05 1.13999 31.76 0.749995C32.73 0.219995 33.78 -0.140005 34.47 0.339995C34.95 0.619995 35.16 1.21999 35.22 1.90999C35.25 2.24999 35.25 2.60999 35.22 2.97999C35.18 3.49999 35.1 4.00999 35.02 4.45999C34.94 4.93999 34.85 5.31999 34.83 5.52999C35.3 5.87999 35.97 6.36999 36.56 6.93999C36.93 7.29999 37.27 7.7 37.49 8.11C37.75 8.58 37.86 9.06999 37.73 9.56999C37.7 9.68999 37.65 9.8 37.58 9.9C36.88 10.96 34.44 11.26 33.72 11.41Z" fill="#FBF28B"/>
<mask id="mask0_171_13431" style="mask-type:luminance" maskUnits="userSpaceOnUse" x="22" y="0" width="16" height="15">
<path d="M34.24 0.429982C34.23 0.419982 34.22 0.409982 34.2 0.409982C33.53 -0.0200182 32.53 0.329982 31.61 0.829982C30.92 1.20998 30.27 1.67998 29.85 1.96998C29.71 2.06998 29.6 2.13998 29.52 2.18998C29.41 2.12998 29.29 2.06998 29.17 1.99998C27.93 1.31998 25.93 0.319982 24.79 1.25998C24.7 1.33998 24.62 1.42998 24.56 1.52998C24.38 1.80998 24.3 2.15998 24.28 2.55998C24.22 3.66998 24.65 5.04998 24.76 5.56998C24.67 5.65998 24.55 5.76998 24.42 5.89998C23.8 6.52998 22.86 7.63998 22.59 8.66998C22.49 9.05998 22.48 9.44998 22.63 9.78998C22.7 9.93998 22.79 10.09 22.92 10.22C23.88 11.19 26.21 11.32 27.25 11.3C27.25 11.3 27.26 11.3 27.27 11.3C27.4 11.6 27.59 12.01 27.84 12.44C28.38 13.4 29.18 14.48 30.06 14.8C31.88 15.47 33.19 12.21 33.52 11.2C34.22 11.06 36.59 10.77 37.27 9.70998C37.33 9.60998 37.38 9.49998 37.41 9.38998C37.54 8.90998 37.43 8.42998 37.17 7.96998C36.95 7.56998 36.62 7.18998 36.26 6.83998C35.69 6.28998 35.04 5.80998 34.58 5.46998C34.6 5.26998 34.68 4.89998 34.76 4.42998C34.83 3.99998 34.91 3.49998 34.95 2.99998C34.97 2.64998 34.98 2.28998 34.95 1.95998C34.89 1.30998 34.7 0.739981 34.26 0.459981C34.27 0.449981 34.25 0.439982 34.24 0.429982Z" fill="white"/>
</mask>
<g mask="url(#mask0_171_13431)">
<path d="M23.99 19.95L43.61 12.94L36.57 -6.76001L16.96 0.24999L23.99 19.95Z" fill="url(#paint0_linear_171_13431)"/>
</g>
<mask id="mask1_171_13431" style="mask-type:luminance" maskUnits="userSpaceOnUse" x="24" y="1" width="12" height="5">
<path d="M29.85 2C29.71 2.1 29.6 2.17 29.52 2.22C29.41 2.16 29.29 2.1 29.17 2.03C27.48 2.12 25.71 2.28 24.27 2.58C24.21 3.69 24.64 5.07 24.76 5.58C24.67 5.67 24.55 5.78 24.42 5.91C25.9 5.46 31.11 4 34.79 4.44C34.87 4.01 34.94 3.51 34.98 3.01C35.01 2.66 35.01 2.3 34.98 1.97C34.13 1.95 32.1 1.91 29.85 2Z" fill="white"/>
</mask>
<g mask="url(#mask1_171_13431)">
<path d="M22.79 4.88001L31.07 10.2L35.95 2.61001L27.66 -2.70999L22.79 4.88001Z" fill="url(#paint1_linear_171_13431)"/>
</g>
<mask id="mask2_171_13431" style="mask-type:luminance" maskUnits="userSpaceOnUse" x="22" y="6" width="16" height="7">
<path d="M36.27 6.85001C30.69 9.49001 24.03 8.94001 22.58 8.68001C22.48 9.07001 22.47 9.46001 22.62 9.80001C24.47 11.24 27.38 11.06 27.38 11.06L27.24 11.31C27.25 11.31 27.25 11.31 27.26 11.31C27.39 11.61 27.58 12.02 27.83 12.45C30.65 11.92 35.87 8.79001 37.18 7.98001C36.95 7.59001 36.63 7.21001 36.27 6.85001Z" fill="white"/>
</mask>
<g mask="url(#mask2_171_13431)">
<path d="M21.96 9.64L31.98 16.08L37.43 7.6L27.41 1.16L21.96 9.64Z" fill="url(#paint2_linear_171_13431)"/>
</g>
<path d="M34.62 3.75C34.48 4.26 34.08 4.59 33.72 4.5C33.36 4.4 33.18 3.91 33.31 3.4C33.45 2.89 33.85 2.56 34.21 2.65C34.58 2.75 34.76 3.24 34.62 3.75Z" fill="#FBF28D"/>
<path d="M34.3 5.58C34.19 5.75 33.96 5.79999 33.79 5.68999C33.62 5.57999 33.57 5.34999 33.68 5.17999C33.79 5.00999 34.02 4.95999 34.19 5.06999C34.36 5.18999 34.41 5.41 34.3 5.58Z" fill="#FBF28D"/>
<path d="M29.23 5.61001C28.84 6.22001 28.27 6.54001 27.95 6.34001C27.63 6.14001 27.69 5.48001 28.08 4.87001C28.47 4.26001 29.04 3.94001 29.36 4.14001C29.67 4.35001 29.62 5.00001 29.23 5.61001Z" fill="#231F20"/>
<path d="M32.84 8.65999C32.82 8.65999 32.8 8.64999 32.78 8.63999C32.72 8.59999 32.71 8.52999 32.74 8.46999C32.92 8.18999 33.03 7.89999 33.05 7.63999C33.07 7.40999 33.02 7.23998 32.9 7.16998C32.79 7.09998 32.61 7.11999 32.41 7.22999C32.18 7.35999 31.96 7.57999 31.78 7.85999C31.74 7.91999 31.67 7.92999 31.61 7.89999C31.55 7.85999 31.54 7.78999 31.57 7.72999C31.77 7.41999 32.02 7.16999 32.28 7.01999C32.56 6.85999 32.83 6.83999 33.02 6.95999C33.21 7.07999 33.3 7.32999 33.28 7.64999C33.25 7.94999 33.13 8.27999 32.93 8.58999C32.91 8.63999 32.88 8.65999 32.84 8.65999Z" fill="#231F20"/>
<path d="M29.37 5.1C29.2 5.36 28.96 5.5 28.82 5.42C28.69 5.33 28.71 5.05 28.88 4.79C29.05 4.53 29.29 4.39 29.43 4.47C29.56 4.56 29.53 4.84 29.37 5.1Z" fill="white"/>
<path d="M28.6 5.03999C28.54 5.12999 28.45 5.18999 28.4 5.14999C28.35 5.11999 28.36 5.01999 28.42 4.91999C28.48 4.82999 28.57 4.76999 28.62 4.80999C28.67 4.83999 28.66 4.93999 28.6 5.03999Z" fill="white"/>
<path d="M28.6 5.61999C28.54 5.70999 28.45 5.76999 28.4 5.73999C28.35 5.70999 28.36 5.60999 28.42 5.50999C28.48 5.41999 28.57 5.35999 28.62 5.39999C28.67 5.42999 28.66 5.52999 28.6 5.61999Z" fill="white"/>
<path d="M28.02 6.66999C27.94 6.78999 27.67 6.73999 27.4 6.56999C27.13 6.39999 26.98 6.15999 27.05 6.04999C27.13 5.92999 27.4 5.97999 27.67 6.14999C27.94 6.31999 28.09 6.54999 28.02 6.66999Z" fill="#D96282"/>
<path d="M32.41 9.49C32.33 9.61 32.06 9.56 31.79 9.39C31.52 9.22 31.37 8.98 31.44 8.87C31.52 8.75 31.79 8.8 32.06 8.97C32.33 9.14 32.49 9.38 32.41 9.49Z" fill="#D96282"/>
<path d="M29.64 3.61998C29.61 3.61998 29.58 3.60998 29.56 3.58998C29.53 3.55998 29.21 3.27998 28.88 3.58998C28.83 3.63998 28.76 3.62998 28.71 3.57998C28.66 3.52998 28.67 3.45998 28.72 3.40998C29.13 3.02998 29.56 3.23998 29.73 3.40998C29.78 3.45998 29.78 3.52998 29.73 3.57998C29.7 3.60998 29.67 3.61998 29.64 3.61998Z" fill="#231F20"/>
<path d="M34 6.97C33.99 6.97 33.97 6.97 33.96 6.96C33.9 6.94 33.86 6.87 33.88 6.81C34.03 6.38 33.64 6.21 33.6 6.19C33.54 6.17 33.51 6.1 33.53 6.03C33.55 5.97 33.62 5.94 33.69 5.96C33.91 6.05 34.29 6.35 34.11 6.88C34.1 6.94 34.05 6.97 34 6.97Z" fill="#231F20"/>
<path d="M28.34 10.4C27.47 10.04 27.01 9.12998 27.33 8.37998C27.46 8.05998 27.65 7.95998 27.91 8.06998C28.04 8.11998 28.17 8.21999 28.33 8.32999C28.53 8.46999 28.76 8.62999 29.03 8.73999C29.3 8.84999 29.57 8.88998 29.81 8.92998C30 8.95998 30.16 8.98998 30.29 9.03998C30.55 9.14998 30.62 9.34998 30.49 9.66998C30.17 10.43 29.21 10.75 28.34 10.4Z" fill="white"/>
<path d="M30.25 9.13998C30.43 9.21998 30.51 9.34998 30.39 9.62998C30.1 10.34 29.2 10.64 28.38 10.3C27.56 9.95998 27.13 9.11998 27.42 8.40998C27.54 8.11998 27.68 8.07998 27.87 8.15998C28.14 8.26998 28.5 8.62998 28.98 8.82998C29.47 9.02998 29.97 9.02998 30.25 9.13998ZM30.32 8.93998C30.18 8.87998 30.01 8.85998 29.82 8.81998C29.58 8.77998 29.31 8.73998 29.06 8.62998C28.8 8.51998 28.58 8.36998 28.39 8.22998C28.23 8.11998 28.09 8.01998 27.95 7.95998C27.77 7.88998 27.43 7.82998 27.23 8.32998C26.9 9.13998 27.38 10.11 28.3 10.49C29.22 10.87 30.25 10.52 30.58 9.69998C30.78 9.21998 30.51 9.01998 30.32 8.93998Z" fill="#231F20"/>
<path d="M28.34 10.4C27.54 10.07 27.08 9.26998 27.27 8.53998C27.28 8.49998 27.31 8.46998 27.35 8.45998C27.37 8.44998 27.39 8.45998 27.41 8.46998C27.43 8.47998 27.44 8.48998 27.45 8.49998C27.71 8.81998 28.17 9.13998 28.71 9.35998C29.3 9.59998 29.9 9.69998 30.31 9.61998C30.33 9.61998 30.35 9.61998 30.37 9.62998C30.39 9.63998 30.4 9.64998 30.41 9.65998C30.43 9.68998 30.44 9.73998 30.42 9.76998C30.09 10.46 29.17 10.74 28.34 10.4Z" fill="#D96282"/>
<path d="M30.35 9.73C30.02 10.37 29.17 10.63 28.39 10.31C27.63 10 27.21 9.25 27.38 8.58C27.64 8.9 28.11 9.23 28.68 9.47C29.31 9.72 29.93 9.81 30.35 9.73ZM30.43 9.53C30.39 9.51 30.35 9.51 30.31 9.52C29.91 9.6 29.34 9.5 28.77 9.27C28.24 9.05 27.8 8.75 27.55 8.44C27.53 8.41 27.5 8.39 27.47 8.38C27.43 8.36 27.39 8.36 27.35 8.37C27.27 8.39 27.21 8.45 27.19 8.52C26.99 9.3 27.47 10.15 28.32 10.5C29.19 10.86 30.17 10.56 30.55 9.82C30.59 9.75 30.58 9.66 30.53 9.6C30.49 9.57 30.46 9.54 30.43 9.53Z" fill="#231F20"/>
<path d="M12.33 7.31C11.55 6.66 10.19 6.12 8.23 5.67C6.27 5.23 5.13 4.88 4.8 4.64C4.56 4.46 4.43 4.23 4.43 3.97C4.43 3.67 4.57 3.42 4.85 3.23C5.27 2.96 5.96 2.82 6.93 2.82C7.58 2.82 7.98 2.89 8.54 3.13C8.74 3.21 8.89 3.36 9 3.55C9.29 4.03 9.87 4.36 10.39 4.36C11.34 4.36 12.08 3.64 12.08 2.68C12.08 2.56 12.07 2.45 12.05 2.34C12.05 2.32 12.04 2.31 12.04 2.29C11.96 1.97 11.79 1.67 11.52 1.43C11.39 1.32 11.25 1.21 11.1 1.12C11.1 1.12 11.09 1.12 11.09 1.11C10.17 0.490003 8.76 0.190002 6.87 0.190002C4.87 0.190002 3.4 0.600002 2.45 1.42C1.5 2.24 1.03 3.25 1.03 4.45C1.03 5.78 1.58 6.83 2.68 7.57C3.47 8.11 5.35 8.71 8.31 9.36C8.95 9.51 9.35 9.67 9.53 9.85C9.71 10.03 9.79 10.26 9.79 10.54C9.79 10.95 9.63 11.28 9.31 11.52C8.83 11.87 8.12 12.09 7.17 12.04C4.95 11.93 4.61 11.14 4.61 11.14C4.61 11.14 4.27 10.03 2.92 10.05L2.78 10.07C1.46 10.27 0.919998 11.88 1.85 12.84C2.1 13.1 2.37 13.33 2.68 13.54C3.78 14.31 5.28 14.69 7.17 14.69C9.25 14.69 10.83 14.23 11.89 13.32C12.95 12.41 13.48 11.31 13.48 10.04C13.48 8.87 13.1 7.96 12.33 7.31Z" fill="#61308C"/>
<path fill-rule="evenodd" clip-rule="evenodd" d="M6.56 19.99C6.48 20.01 6.39 20.04 6.32 20.07H6.31C6.23 20.1 6.16 20.13 6.09 20.16C6.01 20.19 5.94 20.23 5.86 20.27C5.79 20.31 5.72 20.36 5.65 20.4H5.64C5.59 20.44 5.53 20.48 5.48 20.52C5.47 20.53 5.46 20.54 5.45 20.55C5.4 20.59 5.35 20.64 5.29 20.68C5.27 20.69 5.26 20.71 5.24 20.72C5.19 20.77 5.13 20.82 5.08 20.88C5.03 20.94 4.98 21 4.93 21.06L4.92 21.07C4.88 21.13 4.83 21.18 4.79 21.24C4.71 21.36 4.64 21.49 4.57 21.62C4.56 21.64 4.55 21.66 4.54 21.69C4.53 21.71 4.52 21.73 4.51 21.76C4.49 21.81 4.47 21.86 4.46 21.9C4.44 21.93 4.43 21.97 4.43 22C4.43 22.01 4.42 22.02 4.42 22.03C4.41 22.07 4.39 22.1 4.39 22.14V22.15C4.38 22.18 4.37 22.2 4.37 22.23C4.35 22.29 4.34 22.36 4.33 22.42C4.33 22.43 4.33 22.44 4.33 22.45C4.33 22.46 4.33 22.47 4.32 22.48C4.31 22.55 4.3 22.62 4.29 22.7C4.28 22.79 4.28 22.88 4.28 22.97C4.28 23.19 4.3 23.4 4.34 23.6C4.35 23.65 4.36 23.7 4.37 23.75C4.4 23.86 4.43 23.97 4.47 24.07C4.49 24.12 4.51 24.17 4.53 24.22C4.37 23.84 4.28 23.41 4.29 22.97C4.33 21.41 5.34 20.34 6.56 19.99Z" fill="#61308C"/>
<path d="M21.38 32.04C21.19 31.57 20.75 31.28 20.24 31.28C19.92 31.28 19.61 31.41 19.38 31.63C18.02 32.96 16.21 33.69 14.31 33.69C12.41 33.69 10.6 32.96 9.24 31.63C9.01 31.4 8.7 31.28 8.38 31.28C7.87 31.28 7.43 31.57 7.24 32.05C7.05 32.52 7.15 33.04 7.52 33.4C9.24 35.1 11.72 36.08 14.32 36.08C16.92 36.08 19.4 35.1 21.12 33.4C21.47 33.04 21.57 32.52 21.38 32.04Z" fill="#BD202F"/>
<path d="M46.72 1.65998C46.55 0.369982 45.41 0.199982 45.03 0.159982C40.85 -0.340018 39.01 2.72998 38.75 4.94998C38.74 5.05998 38.73 5.15998 38.73 5.26998V13.04C38.73 13.26 38.77 13.49 38.87 13.69C39.06 14.1 39.49 14.69 40.39 14.69C41.3 14.69 41.72 14.1 41.91 13.69C42 13.49 42.04 13.27 42.04 13.05V6.29998C42.04 5.43998 41.93 4.66998 42.78 3.90998C43.28 3.45998 44.03 3.31998 44.58 3.42998C45.88 3.76998 46.86 2.69998 46.72 1.65998Z" fill="#61308C"/>
<path d="M32.21 17.61C32.02 17.2 31.59 16.6 30.69 16.6C29.79 16.6 29.36 17.19 29.17 17.6C29.07 17.8 29.03 18.03 29.03 18.25V22.25V23.02V23.79V27.79C29.03 28.01 29.07 28.24 29.17 28.44C29.36 28.85 29.79 29.44 30.69 29.44C31.59 29.44 32.03 28.85 32.21 28.43C32.3 28.23 32.34 28.01 32.34 27.79V23.78V22.25V18.24C32.34 18.02 32.3 17.81 32.21 17.61Z" fill="#61308C"/>
<path d="M20.95 11.45C20.4 11.56 19.66 11.42 19.15 10.97C18.29 10.21 18.41 9.44 18.41 8.58V6.58H20.03C20.26 6.58 20.48 6.54 20.68 6.44C21.09 6.25 21.68 5.82 21.68 4.92C21.68 4.02 21.09 3.59 20.67 3.4C20.47 3.31 20.25 3.27 20.03 3.27H18.41V1.83C18.41 1.61 18.37 1.39 18.28 1.19C18.09 0.780002 17.66 0.190002 16.76 0.190002C15.86 0.190002 15.43 0.780002 15.24 1.19C15.15 1.39 15.1 1.62 15.1 1.84V9.61C15.1 9.72 15.1 9.82 15.12 9.93C15.37 12.15 17.22 15.21 21.4 14.72C21.79 14.67 22.92 14.51 23.09 13.22C23.22 12.16 22.24 11.1 20.95 11.45Z" fill="#61308C"/>
<path d="M21.49 16.59C17.88 16.61 15.06 19.44 15.1 23.06C15.01 26.42 17.91 29.43 21.42 29.43C25.05 29.42 27.78 26.62 27.84 22.94C27.88 19.9 25.29 16.57 21.49 16.59ZM21.46 26.11C19.74 26.11 18.35 24.72 18.35 23C18.35 21.29 19.74 19.89 21.46 19.89C23.18 19.89 24.57 21.28 24.57 23C24.57 24.72 23.18 26.11 21.46 26.11Z" fill="#61308C"/>
<path d="M1.01 23.03C1 23.22 1.01 23.41 1.02 23.59C1.02 23.11 1.03 22.65 1.05 22.19C1.02 22.47 1 22.75 1.01 23.03ZM5.12 28.98C5.03 28.95 4.95 28.91 4.86 28.88C5.01 28.95 5.17 29.01 5.33 29.06C5.25 29.04 5.19 29.01 5.12 28.98Z" fill="#61308C"/>
<path d="M7.83 16.58C7.69 16.57 7.54 16.57 7.4 16.57H7.37C7.27 16.57 7.18 16.57 7.09 16.58C6.97 16.58 6.85 16.59 6.73 16.61C3.72 16.92 1.39 19.21 1.05 22.2C1.03 22.66 1.02 23.13 1.02 23.6C1.01 24.88 1.04 26.26 0.999997 27.98V32.57C0.959997 33.03 1.34 34.18 2.65 34.23C4.09 34.15 4.33 32.87 4.31 32.57L4.29 29C4.29 29 4.33 28.72 4.59 28.81C4.68 28.84 4.76 28.87 4.85 28.89H4.86C4.95 28.92 5.03 28.95 5.12 28.99C5.19 29.02 5.26 29.05 5.33 29.07C5.96 29.29 6.63 29.41 7.33 29.41C10.96 29.4 13.69 26.6 13.75 22.92C13.79 20 11.4 16.8 7.83 16.58ZM7.37 26.09C7.31 26.09 7.24 26.09 7.18 26.08C7.11 26.08 7.03 26.07 6.96 26.06C6.92 26.06 6.87 26.05 6.82 26.04C6.69 26.02 6.57 25.99 6.44 25.95C6.34 25.92 6.25 25.89 6.15 25.85C6.13 25.84 6.12 25.84 6.1 25.83C6.04999 25.81 5.99 25.78 5.94 25.76C5.65 25.61 5.39 25.42 5.16 25.19C5.12 25.16 5.09 25.12 5.06 25.08C4.99 25.01 4.93 24.93 4.87 24.85C4.84 24.81 4.81 24.77 4.78 24.73C4.73 24.66 4.68 24.58 4.64 24.5C4.62 24.47 4.6 24.43 4.59 24.4C4.56 24.35 4.53999 24.29 4.50999 24.24C4.49 24.19 4.47 24.14 4.45 24.09C4.41 23.99 4.37 23.88 4.35 23.77C4.34 23.72 4.32 23.67 4.32 23.62C4.28 23.42 4.25999 23.21 4.25999 22.99C4.25999 22.9 4.26 22.81 4.27 22.72C4.28 22.65 4.28 22.58 4.3 22.5C4.3 22.49 4.3 22.48 4.31 22.47C4.31 22.46 4.31 22.45 4.31 22.44C4.32 22.38 4.34 22.31 4.35 22.25C4.36 22.22 4.36 22.2 4.37 22.17V22.16C4.38 22.13 4.39 22.09 4.4 22.05C4.4 22.04 4.41 22.03 4.41 22.02C4.42 21.99 4.43 21.95 4.44 21.92C4.46 21.87 4.47 21.82 4.49 21.78C4.5 21.76 4.51 21.74 4.52 21.71C4.53 21.68 4.54 21.66 4.55 21.64C4.61 21.51 4.69 21.38 4.77 21.26C4.81 21.2 4.85 21.14 4.9 21.09C4.9 21.09 4.9 21.08 4.91 21.08C4.96 21.02 5.01 20.96 5.06 20.9C5.11 20.84 5.16 20.79 5.22 20.74C5.23 20.72 5.25 20.71 5.27 20.7C5.32 20.65 5.37 20.61 5.43 20.57C5.44 20.56 5.45 20.55 5.46 20.54C5.51 20.5 5.56 20.46 5.62 20.42C5.62 20.42 5.62 20.42 5.63 20.42C5.7 20.38 5.77 20.33 5.84 20.29C5.91 20.25 5.99 20.21 6.07 20.18C6.14 20.15 6.22 20.12 6.29 20.09H6.3C6.38 20.06 6.46 20.04 6.54 20.01C6.58 20 6.61 19.99 6.65 19.98C6.75 19.95 6.84 19.94 6.94 19.93C7 19.92 7.06 19.91 7.12 19.91C7.2 19.9 7.27 19.9 7.35 19.9C9.06999 19.9 10.46 21.29 10.46 23.01C10.48 24.7 9.09 26.09 7.37 26.09Z" fill="#61308C"/>
<defs>
<linearGradient id="paint0_linear_171_13431" x1="23.7302" y1="8.9501" x2="37.6186" y2="3.98817" gradientUnits="userSpaceOnUse">
<stop stop-color="#F6B419"/>
<stop offset="1" stop-color="#FBE822"/>
</linearGradient>
<linearGradient id="paint1_linear_171_13431" x1="25.2639" y1="1.15167" x2="33.5474" y2="6.47437" gradientUnits="userSpaceOnUse">
<stop stop-color="#FFC809"/>
<stop offset="1" stop-color="#F5ED6D"/>
</linearGradient>
<linearGradient id="paint2_linear_171_13431" x1="24.7345" y1="5.40069" x2="34.7537" y2="11.8387" gradientUnits="userSpaceOnUse">
<stop stop-color="#F4A51E"/>
<stop offset="1" stop-color="#FFE000"/>
</linearGradient>
</defs>
</svg>
