<svg width="16" height="20" viewBox="0 0 16 20" fill="none" xmlns="http://www.w3.org/2000/svg">
<path d="M9.66536 1.89128V5.3334C9.66536 5.80011 9.66536 6.03346 9.75619 6.21172C9.83609 6.36853 9.96357 6.49601 10.1204 6.5759C10.2986 6.66673 10.532 6.66673 10.9987 6.66673H14.4408M11.332 10.8333H4.66536M11.332 14.1667H4.66536M6.33203 7.50001H4.66536M9.66536 1.66667H5.33203C3.9319 1.66667 3.23183 1.66667 2.69705 1.93916C2.22665 2.17884 1.8442 2.56129 1.60451 3.0317C1.33203 3.56647 1.33203 4.26654 1.33203 5.66667V14.3333C1.33203 15.7335 1.33203 16.4335 1.60451 16.9683C1.8442 17.4387 2.22665 17.8212 2.69705 18.0609C3.23183 18.3333 3.9319 18.3333 5.33203 18.3333H10.6654C12.0655 18.3333 12.7656 18.3333 13.3003 18.0609C13.7707 17.8212 14.1532 17.4387 14.3929 16.9683C14.6654 16.4335 14.6654 15.7335 14.6654 14.3333V6.66667L9.66536 1.66667Z" stroke="#61308C" stroke-width="2" stroke-linecap="round" stroke-linejoin="round"/>
</svg>
