<svg width="200" height="56" viewBox="0 0 200 56" fill="none" xmlns="http://www.w3.org/2000/svg">
<path d="M50.9346 32.9467C50.8357 31.3027 50.1129 29.7585 48.9138 28.6294C47.7148 27.5003 46.1299 26.8716 44.4829 26.8716C42.8359 26.8716 41.2511 27.5003 40.052 28.6294C38.853 29.7585 38.1302 31.3027 38.0312 32.9467V35.2801C38.0312 35.5601 38.0312 35.8867 38.0312 36.2134V37.7067C38.0374 38.1483 38.2171 38.5696 38.5315 38.8796C38.8459 39.1897 39.2697 39.3635 39.7113 39.3634C39.9941 39.368 40.2731 39.2969 40.5193 39.1574C40.7654 39.0179 40.9698 38.8151 41.1113 38.5701C41.1189 38.5159 41.1189 38.4609 41.1113 38.4067C41.2118 38.2032 41.2675 37.9804 41.2746 37.7534V32.8534C41.2743 32.4481 41.3558 32.0469 41.5143 31.6739C41.6728 31.3009 41.9051 30.9638 42.197 30.6827C42.489 30.4016 42.8348 30.1824 43.2135 30.0382C43.5923 29.8939 43.9963 29.8277 44.4013 29.8434C45.0509 29.8026 45.6955 29.9803 46.2325 30.3481C46.7695 30.716 47.168 31.2529 47.3646 31.8734C47.4568 32.1919 47.504 32.5218 47.5046 32.8534V37.7301C47.5117 37.957 47.5674 38.1798 47.6679 38.3834V38.5467C47.8113 38.7953 48.0193 39.0004 48.27 39.1401C48.5206 39.2798 48.8044 39.3489 49.0913 39.3401C49.5288 39.334 49.9466 39.1576 50.256 38.8482C50.5654 38.5388 50.7419 38.1209 50.7479 37.6834V33.0167L50.9346 32.9467Z" fill="#61308C"/>
<path d="M38.0303 21.63C37.6803 22.7267 36.257 26.2967 34.3203 25.5034C33.2952 24.9211 32.4789 24.0314 31.987 22.96C31.7497 22.5623 31.5393 22.1491 31.357 21.7234C29.7184 21.8616 28.0795 21.46 26.6903 20.58C26.5604 20.4452 26.4575 20.2868 26.387 20.1134C26.246 19.7292 26.246 19.3075 26.387 18.9234C26.7987 17.7887 27.4699 16.766 28.347 15.9367L28.7203 15.5867C28.3343 14.5511 28.0909 13.4679 27.997 12.3667C28.0061 11.9817 28.1103 11.6049 28.3003 11.27C28.373 11.1587 28.4593 11.0568 28.557 10.9667C29.7937 9.96336 31.9403 10.9667 33.2237 11.76L33.597 11.97L33.947 11.7367C34.5558 11.293 35.1866 10.8802 35.837 10.5C36.8403 9.96336 37.9603 9.59003 38.6603 10.08C38.9456 10.2411 39.1865 10.4703 39.3616 10.7471C39.5367 11.024 39.6405 11.3399 39.6637 11.6667C39.687 12.0397 39.687 12.4137 39.6637 12.7867C39.6637 13.3234 39.5237 13.86 39.4537 14.3267C39.3837 14.7934 39.2903 15.2134 39.2437 15.4234C39.7337 15.7967 40.4337 16.31 41.0637 16.8934C41.4356 17.253 41.7574 17.6611 42.0203 18.1067C42.1638 18.3332 42.2605 18.5862 42.3046 18.8507C42.3487 19.1152 42.3393 19.3859 42.277 19.6467C42.242 19.7715 42.1868 19.8897 42.1137 19.9967C41.3903 21.1167 38.847 21.42 38.1003 21.5834" fill="#B3742A"/>
<path d="M37.8916 21.3034C37.5416 22.3534 36.1883 25.7368 34.2983 25.0368C33.2757 24.4944 32.4568 23.6346 31.965 22.5868C31.7424 22.2126 31.5475 21.8226 31.3816 21.4201C29.8056 21.5515 28.2304 21.1577 26.9016 20.3001C26.7724 20.1737 26.6693 20.023 26.5983 19.8568C26.4568 19.4807 26.4568 19.0661 26.5983 18.6901C27.0069 17.6047 27.6526 16.6242 28.4883 15.8201L28.8383 15.4934C28.5337 14.4783 28.3688 13.4264 28.3483 12.3668C28.349 11.9984 28.4455 11.6365 28.6283 11.3168C28.6952 11.2079 28.7823 11.1129 28.885 11.0368C30.0516 10.0568 32.1283 11.0368 33.4116 11.8068L33.785 12.0168C33.8919 11.9254 34.0094 11.847 34.135 11.7834C34.7167 11.3499 35.3245 10.9525 35.955 10.5934C36.9116 10.0568 37.985 9.70675 38.6616 10.1734C38.9064 10.3581 39.1038 10.5982 39.2377 10.874C39.3716 11.1499 39.438 11.4535 39.4316 11.7601C39.4661 12.117 39.4661 12.4765 39.4316 12.8334C39.3968 13.3265 39.3345 13.8173 39.245 14.3034C39.245 14.7934 39.0816 15.1668 39.0583 15.3768C39.667 15.8095 40.244 16.2851 40.785 16.8001C41.1556 17.1434 41.4775 17.536 41.7416 17.9668C41.8755 18.1843 41.9651 18.4262 42.0051 18.6784C42.0452 18.9307 42.0349 19.1884 41.975 19.4368C41.9426 19.5512 41.8955 19.661 41.835 19.7634C41.1116 20.8601 38.6616 21.1634 37.9383 21.3034" fill="#FBF28B"/>
<path d="M41.6004 19.2734C41.5783 19.3912 41.5305 19.5027 41.4604 19.6C40.7837 20.6734 38.4037 20.9534 37.7037 21.0934C37.3537 22.12 36.0471 25.3867 34.2037 24.7334C33.2388 24.2068 32.4635 23.3907 31.9871 22.4C31.7304 21.9567 31.5437 21.5367 31.4037 21.2334C29.8778 21.3702 28.35 20.9924 27.0637 20.16C26.9403 20.0376 26.8378 19.8957 26.7604 19.74C26.6424 19.3681 26.6424 18.9687 26.7604 18.5967C27.1535 17.5486 27.7845 16.6061 28.6037 15.8434L28.9537 15.5167C28.661 14.5388 28.4963 13.527 28.4637 12.5067C28.4641 12.1457 28.5608 11.7913 28.7437 11.48C28.8088 11.3837 28.8874 11.2973 28.9771 11.2234C30.1204 10.2667 32.1504 11.2234 33.3871 11.97L33.7371 12.1567L34.0871 11.9234C34.5071 11.6434 35.1604 11.1534 35.8371 10.78C36.5137 10.4067 37.7737 9.91669 38.4504 10.36C38.675 10.5375 38.8552 10.7648 38.9767 11.024C39.0982 11.2832 39.1577 11.5672 39.1504 11.8534C39.1737 12.203 39.1737 12.5537 39.1504 12.9034C39.1504 13.4167 39.0337 13.9067 38.9637 14.35C38.8937 14.7934 38.8004 15.19 38.7771 15.3767C39.3637 15.8021 39.9247 16.2618 40.4571 16.7534C40.8186 17.0843 41.1257 17.4702 41.3671 17.8967C41.6224 18.3072 41.7062 18.8016 41.6004 19.2734Z" fill="url(#paint0_linear_1539_6738)"/>
<path d="M39.1551 12.88C39.1551 13.3934 39.0384 13.8834 38.9684 14.3034C35.4316 14.1946 31.9027 14.6999 28.5384 15.7967L28.8884 15.47C28.5957 14.4921 28.431 13.4803 28.3984 12.46C30.024 12.1554 31.6693 11.9683 33.3218 11.9L33.6718 12.11L33.9984 11.8767C36.3318 11.8767 38.3151 11.8767 39.1551 11.8767C39.1764 12.2108 39.1764 12.5459 39.1551 12.88Z" fill="url(#paint1_linear_1539_6738)"/>
<path d="M41.3903 17.8734C38.4895 19.7762 35.3516 21.2902 32.057 22.3768C31.8501 21.9979 31.6632 21.6085 31.497 21.2101C31.497 21.2101 27.5303 21.2101 26.8303 19.6934C26.7128 19.3373 26.7128 18.9529 26.8303 18.5968C31.5091 19.2246 36.2707 18.5881 40.6203 16.7534C40.9165 17.098 41.1746 17.4735 41.3903 17.8734Z" fill="url(#paint2_linear_1539_6738)"/>
<path d="M38.8017 13.6268C38.6617 14.1401 38.265 14.4668 37.8917 14.3734C37.5183 14.2801 37.355 13.7901 37.495 13.2768C37.635 12.7634 38.0317 12.4134 38.405 12.5068C38.598 12.6113 38.7454 12.7836 38.8187 12.9905C38.8919 13.1974 38.8859 13.4241 38.8017 13.6268Z" fill="#FBF28D"/>
<path d="M38.4758 15.4701C38.4065 15.5357 38.3146 15.5723 38.2192 15.5723C38.1237 15.5723 38.0318 15.5357 37.9625 15.4701C37.8837 15.4136 37.8282 15.3301 37.8067 15.2355C37.7852 15.1409 37.7991 15.0417 37.8458 14.9567C37.9152 14.8911 38.007 14.8545 38.1025 14.8545C38.198 14.8545 38.2898 14.8911 38.3592 14.9567C38.3945 14.9895 38.4227 15.0292 38.442 15.0734C38.4613 15.1175 38.4712 15.1652 38.4712 15.2134C38.4712 15.2616 38.4613 15.3092 38.442 15.3534C38.4227 15.3976 38.3945 15.4373 38.3592 15.4701" fill="#FBF28D"/>
<path d="M33.3886 15.4932C32.9919 16.0999 32.4086 16.4266 32.0819 16.2166C31.7553 16.0066 31.8253 15.3532 32.2219 14.7466C32.6186 14.1399 33.1786 13.8132 33.5053 13.9999C33.8319 14.1866 33.7619 14.8866 33.5053 15.4932" fill="#231F20"/>
<path d="M37.0029 18.6667V18.5033C37.1891 18.2077 37.3012 17.8715 37.3296 17.5233C37.3296 17.29 37.3296 17.1267 37.1896 17.0567C37.1151 17.0137 37.0306 16.991 36.9446 16.991C36.8586 16.991 36.7741 17.0137 36.6996 17.0567C36.44 17.2104 36.2234 17.4271 36.0696 17.6867H35.9062C35.9062 17.6867 35.9062 17.6867 35.9062 17.5233C36.0936 17.2401 36.3404 17.0013 36.6296 16.8233C36.7387 16.7575 36.8638 16.7227 36.9912 16.7227C37.1187 16.7227 37.2438 16.7575 37.3529 16.8233C37.462 16.8999 37.545 17.008 37.5909 17.1331C37.6368 17.2582 37.6433 17.3944 37.6096 17.5233C37.5774 17.8599 37.4567 18.1819 37.2596 18.4567C37.2596 18.4567 37.0496 18.6667 37.0029 18.6667Z" fill="#231F20"/>
<path d="M33.5285 14.98C33.3418 15.2367 33.1085 15.3767 32.9685 15.3067C32.8285 15.2367 32.9685 14.9334 32.9685 14.6767C32.9685 14.42 33.3885 14.2567 33.5051 14.35C33.6218 14.4434 33.5051 14.7234 33.5051 14.98" fill="white"/>
<path d="M32.6682 14.9101C32.6682 14.9101 32.5049 15.0501 32.4582 15.0268C32.4116 15.0034 32.4582 14.8868 32.4582 14.7934C32.4582 14.7001 32.5982 14.6534 32.6682 14.7934C32.7382 14.9334 32.6682 14.9334 32.6682 15.0268" fill="white"/>
<path d="M32.6682 15.4934C32.6682 15.4934 32.5049 15.6567 32.4582 15.6101C32.4116 15.5634 32.4582 15.4934 32.4582 15.3767C32.4582 15.2601 32.5982 15.2367 32.6682 15.3767C32.7382 15.5167 32.6682 15.3767 32.6682 15.5867" fill="white"/>
<path d="M32.1759 16.5432C32.1759 16.5432 31.8026 16.5432 31.5459 16.5432C31.2893 16.5432 31.1259 16.1465 31.1959 16.0299C31.2659 15.9132 31.5459 16.0299 31.8259 16.0299C32.1059 16.0299 32.2459 16.4265 32.1759 16.5432Z" fill="#D96282"/>
<path d="M36.5838 19.39C36.5838 19.39 36.2338 19.39 35.9538 19.39C35.6738 19.39 35.5338 18.97 35.6038 18.8534C35.6738 18.7367 35.9538 18.8534 36.2338 18.8534C36.5138 18.8534 36.6538 19.2734 36.5838 19.39Z" fill="#D96282"/>
<path d="M32.4761 20.2999C32.0753 20.1618 31.7451 19.8712 31.5573 19.4911C31.3694 19.111 31.3391 18.6722 31.4728 18.2699C31.4728 17.9432 31.7995 17.8499 32.0561 17.9432L32.4761 18.2232C32.6899 18.3874 32.9255 18.5209 33.1761 18.6199C33.4309 18.7223 33.6974 18.7928 33.9695 18.8299H34.4361C34.7161 18.9466 34.7628 19.1566 34.6461 19.4832C34.4468 19.8597 34.1101 20.1448 33.706 20.2795C33.3019 20.4142 32.8615 20.3881 32.4761 20.2066" fill="white"/>
<path d="M34.4154 19.0399C34.5788 19.0399 34.6721 19.2266 34.5554 19.5299C34.3546 19.8671 34.0392 20.1207 33.6667 20.2443C33.2943 20.3679 32.8898 20.3534 32.5273 20.2032C32.1647 20.0531 31.8683 19.7775 31.6923 19.4268C31.5163 19.076 31.4724 18.6737 31.5688 18.2933C31.6854 18.0133 31.8254 17.9666 32.0121 18.0599C32.1988 18.1533 32.6421 18.5266 33.1321 18.7366C33.6221 18.9466 34.1354 18.9233 34.4154 19.0399ZM34.4154 18.8299L33.9721 18.6666C33.7165 18.6349 33.4658 18.5722 33.2254 18.4799C33.0253 18.3864 32.8372 18.2688 32.6654 18.1299L32.2221 17.8499C32.1509 17.8165 32.0729 17.7999 31.9943 17.8014C31.9156 17.8028 31.8384 17.8224 31.7685 17.8584C31.6986 17.8945 31.6379 17.9462 31.5911 18.0094C31.5444 18.0727 31.5128 18.1459 31.4988 18.2233C31.4256 18.4362 31.3953 18.6615 31.4098 18.8861C31.4242 19.1108 31.483 19.3304 31.5828 19.5322C31.6826 19.7339 31.8214 19.9139 31.9912 20.0618C32.161 20.2096 32.3585 20.3222 32.5721 20.3933C32.777 20.4966 33.0004 20.558 33.2293 20.574C33.4582 20.5899 33.688 20.5601 33.9052 20.4862C34.1225 20.4124 34.3228 20.296 34.4945 20.1438C34.6663 19.9916 34.806 19.8067 34.9054 19.5999C35.1154 19.1099 34.9054 18.8999 34.6488 18.8299" fill="#231F20"/>
<path d="M34.5097 19.6234C34.2945 19.9204 33.9869 20.1375 33.6351 20.2408C33.2832 20.3442 32.9071 20.3278 32.5655 20.1944C32.2239 20.061 31.9363 19.818 31.7476 19.5035C31.559 19.1891 31.48 18.8209 31.5231 18.4568C31.8824 18.8571 32.3296 19.1686 32.8297 19.3668C33.3579 19.5969 33.9369 19.6854 34.5097 19.6234ZM34.5097 19.4368H34.3931C33.8661 19.4881 33.3349 19.3996 32.8531 19.1801C32.3758 19.0104 31.9501 18.7212 31.6164 18.3401C31.5791 18.3541 31.5453 18.376 31.5171 18.4041C31.4889 18.4323 31.4671 18.4661 31.4531 18.5034C31.3992 18.918 31.4861 19.3387 31.6998 19.6981C31.9135 20.0574 32.2416 20.3346 32.6317 20.4852C33.0217 20.6358 33.451 20.6512 33.8507 20.5288C34.2505 20.4063 34.5976 20.1533 34.8364 19.8101C34.8595 19.7756 34.8718 19.735 34.8718 19.6934C34.8718 19.6519 34.8595 19.6113 34.8364 19.5768" fill="#231F20"/>
<path d="M16.3345 17.1967C15.0969 16.3464 13.6865 15.7807 12.2045 15.54C11.0224 15.3438 9.86994 14.9988 8.77446 14.5133C8.66121 14.4401 8.56784 14.34 8.50269 14.222C8.43755 14.1039 8.40265 13.9715 8.40113 13.8367C8.40011 13.6864 8.43832 13.5385 8.51198 13.4076C8.58564 13.2766 8.6922 13.1672 8.82113 13.09C9.46396 12.7701 10.1823 12.6329 10.8978 12.6933C11.458 12.6721 12.0159 12.7757 12.5311 12.9967C12.7276 13.0831 12.8912 13.2303 12.9978 13.4167C13.148 13.6556 13.3538 13.8546 13.5976 13.9968C13.8413 14.139 14.1159 14.2202 14.3978 14.2333C14.6224 14.2365 14.8453 14.1946 15.0533 14.1101C15.2614 14.0256 15.4504 13.9002 15.6092 13.7414C15.768 13.5826 15.8934 13.3936 15.9779 13.1855C16.0624 12.9775 16.1043 12.7546 16.1011 12.53C16.1141 12.4215 16.1141 12.3118 16.1011 12.2033C16.0087 11.8767 15.822 11.5845 15.5645 11.3633L15.1678 10.9667C13.8713 10.254 12.397 9.93002 10.9211 10.0333C9.33644 9.90931 7.75866 10.3471 6.46446 11.27C6.01398 11.6357 5.65198 12.0984 5.4055 12.6237C5.15903 13.149 5.03447 13.7232 5.04113 14.3033C5.01996 14.927 5.16159 15.5455 5.45208 16.0978C5.74257 16.6502 6.1719 17.1173 6.6978 17.4533C8.48753 18.3319 10.3987 18.9375 12.3678 19.25C12.8083 19.3036 13.2269 19.4727 13.5811 19.74C13.6728 19.8316 13.7449 19.9409 13.793 20.0613C13.8411 20.1816 13.8643 20.3104 13.8611 20.44C13.8639 20.6307 13.8209 20.8192 13.7356 20.9897C13.6504 21.1603 13.5253 21.3079 13.3711 21.42C12.7376 21.8368 11.978 22.0184 11.2245 21.9333C8.98446 21.84 8.63446 21 8.63446 21C8.50732 20.6754 8.28101 20.3991 7.98775 20.2106C7.69449 20.0221 7.34924 19.9309 7.00113 19.95H6.81446C6.51516 19.9951 6.23393 20.1213 6.00131 20.315C5.76869 20.5087 5.59358 20.7623 5.49498 21.0485C5.39638 21.3347 5.37807 21.6424 5.44203 21.9383C5.506 22.2341 5.64979 22.5068 5.8578 22.7267C6.11616 22.9848 6.3973 23.2191 6.6978 23.4267C8.05295 24.2668 9.63205 24.6738 11.2245 24.5933C12.893 24.693 14.5438 24.206 15.8911 23.2167C16.3843 22.8162 16.7824 22.3112 17.0567 21.7383C17.3311 21.1653 17.4749 20.5386 17.4778 19.9033C17.503 19.3952 17.4132 18.888 17.2153 18.4194C17.0173 17.9508 16.7163 17.5328 16.3345 17.1967Z" fill="#61308C"/>
<path d="M25.506 42C25.4068 41.7726 25.2438 41.5789 25.0367 41.4422C24.8296 41.3055 24.5874 41.2318 24.3393 41.23C24.0183 41.2366 23.711 41.3612 23.476 41.58C22.1121 42.9098 20.2826 43.654 18.3777 43.654C16.4728 43.654 14.6433 42.9098 13.2793 41.58C13.0443 41.3612 12.737 41.2366 12.416 41.23C12.17 41.2361 11.9312 41.3142 11.7291 41.4545C11.5269 41.5948 11.3703 41.7912 11.2785 42.0194C11.1867 42.2477 11.1637 42.4979 11.2124 42.7391C11.2612 42.9803 11.3794 43.2019 11.5527 43.3766C13.3962 45.1256 15.8483 46.088 18.3893 46.06C20.9299 46.0856 23.3811 45.1235 25.226 43.3766C25.3989 43.1977 25.5171 42.973 25.5668 42.7291C25.6164 42.4853 25.5953 42.2323 25.506 42Z" fill="#BD202F"/>
<path d="M50.9572 11.5034C50.901 11.091 50.6977 10.7128 50.3847 10.4384C50.0717 10.164 49.6701 10.0119 49.2539 10.0101C48.5202 9.87752 47.767 9.89926 47.0422 10.0739C46.3174 10.2486 45.637 10.5724 45.0443 11.0246C44.4515 11.4768 43.9595 12.0476 43.5996 12.7005C43.2397 13.3534 43.0198 14.0741 42.9539 14.8168C42.9539 14.9334 42.9539 15.0268 42.9539 15.1434V22.9601C42.947 23.1836 42.9867 23.4061 43.0706 23.6134C43.202 23.9122 43.4177 24.1662 43.6912 24.3444C43.9647 24.5226 44.2841 24.6172 44.6106 24.6168C44.9403 24.6183 45.263 24.5214 45.5373 24.3385C45.8116 24.1557 46.0252 23.895 46.1506 23.5901C46.1968 23.3826 46.1968 23.1675 46.1506 22.9601V16.1701C46.0769 15.7498 46.1064 15.3179 46.2364 14.9114C46.3665 14.505 46.5932 14.1362 46.8972 13.8368C47.1498 13.633 47.4422 13.4842 47.7555 13.3998C48.0689 13.3154 48.3965 13.2974 48.7172 13.3468C48.9926 13.4561 49.2922 13.4896 49.5848 13.4438C49.8775 13.398 50.1526 13.2745 50.3813 13.0863C50.6101 12.898 50.7841 12.6519 50.8854 12.3735C50.9867 12.0951 51.0115 11.7947 50.9572 11.5034Z" fill="#61308C"/>
<path d="M36.3764 27.5334C36.2515 27.2346 36.0406 26.9797 35.7706 26.8011C35.5005 26.6225 35.1835 26.5281 34.8597 26.53C34.5313 26.5202 34.2077 26.611 33.9324 26.7903C33.6572 26.9697 33.4433 27.229 33.3197 27.5334C33.2291 27.7394 33.1815 27.9617 33.1797 28.1867V32.2V33.7634V37.7767C33.1815 38.0017 33.2291 38.224 33.3197 38.43C33.4433 38.7344 33.6572 38.9937 33.9324 39.173C34.2077 39.3524 34.5313 39.4432 34.8597 39.4334C35.1835 39.4353 35.5005 39.3409 35.7706 39.1623C36.0406 38.9836 36.2515 38.7288 36.3764 38.43C36.4696 38.2249 36.5173 38.002 36.5164 37.7767V28.1867C36.5173 27.9614 36.4696 27.7385 36.3764 27.5334Z" fill="#61308C"/>
<path d="M25.0606 21.3501C24.7544 21.3995 24.4412 21.3812 24.1429 21.2965C23.8446 21.2119 23.5685 21.0629 23.3339 20.8601C23.0282 20.5618 22.8004 20.1931 22.6702 19.7864C22.54 19.3796 22.5115 18.9471 22.5872 18.5268V16.4501H24.2206C24.436 16.4948 24.6584 16.4948 24.8739 16.4501C25.1726 16.3186 25.4266 16.103 25.6048 15.8295C25.783 15.556 25.8777 15.2365 25.8772 14.9101C25.882 14.5797 25.7864 14.2556 25.6031 13.9807C25.4198 13.7057 25.1574 13.4928 24.8506 13.3701C24.6431 13.3238 24.428 13.3238 24.2206 13.3701H22.5872V11.6668C22.5856 11.4492 22.5379 11.2345 22.4472 11.0368C22.3277 10.7342 22.1182 10.4757 21.8469 10.2963C21.5756 10.1168 21.2557 10.0251 20.9306 10.0334C20.6021 10.0236 20.2786 10.1144 20.0033 10.2938C19.728 10.4731 19.5142 10.7324 19.3906 11.0368C19.2742 11.2284 19.2024 11.4437 19.1806 11.6668V19.5068C19.169 19.6076 19.169 19.7093 19.1806 19.8101C19.2469 20.5534 19.4668 21.2748 19.8264 21.9287C20.1861 22.5826 20.6776 23.1547 21.2698 23.6087C21.862 24.0628 22.5421 24.3889 23.2669 24.5664C23.9917 24.744 24.7455 24.7691 25.4806 24.6401C25.8989 24.6327 26.3007 24.4756 26.6132 24.1974C26.9257 23.9191 27.1282 23.5381 27.1839 23.1234C27.2148 22.851 27.1776 22.5751 27.0757 22.3206C26.9737 22.066 26.8102 21.8408 26.5997 21.665C26.3893 21.4892 26.1385 21.3685 25.8698 21.3135C25.6012 21.2585 25.3231 21.2711 25.0606 21.3501Z" fill="#61308C"/>
<path d="M25.6666 26.53C23.9586 26.53 22.3205 27.2085 21.1128 28.4163C19.9051 29.624 19.2266 31.262 19.2266 32.97C19.2266 34.678 19.9051 36.3161 21.1128 37.5238C22.3205 38.7315 23.9586 39.41 25.6666 39.41C27.3746 39.41 29.0126 38.7315 30.2203 37.5238C31.4281 36.3161 32.1066 34.678 32.1066 32.97C32.1066 31.262 31.4281 29.624 30.2203 28.4163C29.0126 27.2085 27.3746 26.53 25.6666 26.53ZM25.6666 36.0967C25.0482 36.0967 24.4437 35.9133 23.9295 35.5698C23.4153 35.2262 23.0145 34.7379 22.7779 34.1666C22.5412 33.5952 22.4793 32.9666 22.6 32.36C22.7206 31.7535 23.0184 31.1964 23.4557 30.7591C23.8929 30.3219 24.4501 30.0241 25.0566 29.9034C25.6631 29.7828 26.2918 29.8447 26.8631 30.0814C27.4344 30.318 27.9227 30.7188 28.2663 31.2329C28.6099 31.7471 28.7932 32.3516 28.7932 32.97C28.7932 33.7993 28.4638 34.5946 27.8774 35.1809C27.2911 35.7673 26.4958 36.0967 25.6666 36.0967Z" fill="#61308C"/>
<path d="M5.01653 32.9933C5.00491 33.1798 5.00491 33.3668 5.01653 33.5533C5.01653 33.0867 5.01653 32.62 5.01653 32.1533C5.03986 32.4333 5.01653 32.6667 5.01653 32.9933ZM9.14653 38.9667H8.88986L9.35653 39.1533L9.14653 38.9667Z" fill="#61308C"/>
<path d="M11.8758 26.5067H10.7792C9.32467 26.6429 7.96169 27.2767 6.92024 28.3011C5.87879 29.3256 5.22263 30.6779 5.0625 32.13C5.0625 32.5967 5.0625 33.0633 5.0625 33.53C5.0625 34.8133 5.0625 36.2133 5.0625 37.94V42.6067C5.0625 43.046 5.23704 43.4674 5.54773 43.7781C5.85841 44.0888 6.27979 44.2633 6.71917 44.2633C7.16072 44.2634 7.58453 44.0896 7.89893 43.7796C8.21333 43.4695 8.39303 43.0482 8.39917 42.6067V38.99C8.39917 38.99 8.39917 38.71 8.67917 38.8033H8.95917H9.21583H9.42583C10.0715 39.0273 10.7491 39.1455 11.4325 39.1533C13.0962 39.1445 14.6925 38.4944 15.8891 37.3384C17.0856 36.1824 17.7903 34.6095 17.8564 32.947C17.9226 31.2846 17.3451 29.6606 16.2441 28.4132C15.1432 27.1658 13.6036 26.391 11.9458 26.25L11.8758 26.5067ZM11.4092 36.0733H10.8725H10.4992L10.1958 35.9567H10.0325C9.76154 35.728 9.52568 35.4607 9.3325 35.1633L9.09917 35L8.9125 34.7667V34.65L8.7725 34.4167V34.2533V34.09C8.75908 33.9815 8.75908 33.8718 8.7725 33.7633V33.6233C8.74957 33.414 8.74957 33.2027 8.7725 32.9933C8.7725 32.9933 8.7725 32.8067 8.7725 32.7367C8.7725 32.6667 8.7725 32.5733 8.7725 32.5033C8.7725 32.5033 8.7725 32.3867 8.7725 32.3167C8.76238 32.2705 8.76238 32.2228 8.7725 32.1767C8.82848 32.0448 8.89891 31.9196 8.9825 31.8033L9.1225 31.6167L9.2625 31.43L9.3325 30.6833L9.49583 30.5433L9.6825 30.3333H9.8925H10.1258H10.3358H10.5692H10.8492H11.2692C12.0984 30.3333 12.8937 30.6627 13.4801 31.2491C14.0664 31.8355 14.3958 32.6308 14.3958 33.46C14.3958 34.2892 14.0664 35.0845 13.4801 35.6709C12.8937 36.2573 12.0984 36.5867 11.2692 36.5867L11.4092 36.0733Z" fill="#61308C"/>
<path d="M76.3984 33H74.0234L74.0391 31.7734H76.3984C77.2109 31.7734 77.888 31.6042 78.4297 31.2656C78.9714 30.9219 79.3776 30.4427 79.6484 29.8281C79.9245 29.2083 80.0625 28.4844 80.0625 27.6562V26.9609C80.0625 26.3099 79.9844 25.7318 79.8281 25.2266C79.6719 24.7161 79.4427 24.2865 79.1406 23.9375C78.8385 23.5833 78.4688 23.3151 78.0312 23.1328C77.599 22.9505 77.1016 22.8594 76.5391 22.8594H73.9766V21.625H76.5391C77.2839 21.625 77.9635 21.75 78.5781 22C79.1927 22.2448 79.7214 22.6016 80.1641 23.0703C80.612 23.5339 80.9557 24.0964 81.1953 24.7578C81.4349 25.4141 81.5547 26.1536 81.5547 26.9766V27.6562C81.5547 28.4792 81.4349 29.2214 81.1953 29.8828C80.9557 30.5391 80.6094 31.099 80.1562 31.5625C79.7083 32.026 79.1667 32.3828 78.5312 32.6328C77.901 32.8776 77.1901 33 76.3984 33ZM74.8281 21.625V33H73.3203V21.625H74.8281ZM88.5859 31.5547V27.2031C88.5859 26.8698 88.5182 26.5807 88.3828 26.3359C88.2526 26.0859 88.0547 25.8932 87.7891 25.7578C87.5234 25.6224 87.1953 25.5547 86.8047 25.5547C86.4401 25.5547 86.1198 25.6172 85.8438 25.7422C85.5729 25.8672 85.3594 26.0312 85.2031 26.2344C85.0521 26.4375 84.9766 26.6562 84.9766 26.8906H83.5312C83.5312 26.5885 83.6094 26.2891 83.7656 25.9922C83.9219 25.6953 84.1458 25.4271 84.4375 25.1875C84.7344 24.9427 85.0885 24.75 85.5 24.6094C85.9167 24.4635 86.3802 24.3906 86.8906 24.3906C87.5052 24.3906 88.0469 24.4948 88.5156 24.7031C88.9896 24.9115 89.3594 25.2266 89.625 25.6484C89.8958 26.0651 90.0312 26.5885 90.0312 27.2188V31.1562C90.0312 31.4375 90.0547 31.737 90.1016 32.0547C90.1536 32.3724 90.2292 32.6458 90.3281 32.875V33H88.8203C88.7474 32.8333 88.6901 32.612 88.6484 32.3359C88.6068 32.0547 88.5859 31.7943 88.5859 31.5547ZM88.8359 27.875L88.8516 28.8906H87.3906C86.9792 28.8906 86.612 28.9245 86.2891 28.9922C85.9661 29.0547 85.6953 29.151 85.4766 29.2812C85.2578 29.4115 85.0911 29.5755 84.9766 29.7734C84.862 29.9661 84.8047 30.1927 84.8047 30.4531C84.8047 30.7188 84.8646 30.9609 84.9844 31.1797C85.1042 31.3984 85.2839 31.5729 85.5234 31.7031C85.7682 31.8281 86.0677 31.8906 86.4219 31.8906C86.8646 31.8906 87.2552 31.7969 87.5938 31.6094C87.9323 31.4219 88.2005 31.1927 88.3984 30.9219C88.6016 30.651 88.7109 30.388 88.7266 30.1328L89.3438 30.8281C89.3073 31.0469 89.2083 31.2891 89.0469 31.5547C88.8854 31.8203 88.6693 32.0755 88.3984 32.3203C88.1328 32.5599 87.8151 32.7604 87.4453 32.9219C87.0807 33.0781 86.6693 33.1562 86.2109 33.1562C85.638 33.1562 85.1354 33.0443 84.7031 32.8203C84.276 32.5964 83.9427 32.2969 83.7031 31.9219C83.4688 31.5417 83.3516 31.1172 83.3516 30.6484C83.3516 30.1953 83.4401 29.7969 83.6172 29.4531C83.7943 29.1042 84.0495 28.8151 84.3828 28.5859C84.7161 28.3516 85.1172 28.1745 85.5859 28.0547C86.0547 27.9349 86.5781 27.875 87.1562 27.875H88.8359ZM97.2266 30.7578C97.2266 30.5495 97.1797 30.3568 97.0859 30.1797C96.9974 29.9974 96.8125 29.8333 96.5312 29.6875C96.2552 29.5365 95.8385 29.4062 95.2812 29.2969C94.8125 29.1979 94.388 29.0807 94.0078 28.9453C93.6328 28.8099 93.3125 28.6458 93.0469 28.4531C92.7865 28.2604 92.5859 28.0339 92.4453 27.7734C92.3047 27.513 92.2344 27.2083 92.2344 26.8594C92.2344 26.526 92.3073 26.2109 92.4531 25.9141C92.6042 25.6172 92.8151 25.3542 93.0859 25.125C93.362 24.8958 93.6927 24.7161 94.0781 24.5859C94.4635 24.4557 94.8932 24.3906 95.3672 24.3906C96.0443 24.3906 96.6224 24.5104 97.1016 24.75C97.5807 24.9896 97.9479 25.3099 98.2031 25.7109C98.4583 26.1068 98.5859 26.5469 98.5859 27.0312H97.1406C97.1406 26.7969 97.0703 26.5703 96.9297 26.3516C96.7943 26.1276 96.5938 25.9427 96.3281 25.7969C96.0677 25.651 95.7474 25.5781 95.3672 25.5781C94.9661 25.5781 94.6406 25.6406 94.3906 25.7656C94.1458 25.8854 93.9661 26.0391 93.8516 26.2266C93.7422 26.4141 93.6875 26.612 93.6875 26.8203C93.6875 26.9766 93.7135 27.1172 93.7656 27.2422C93.8229 27.362 93.9219 27.474 94.0625 27.5781C94.2031 27.6771 94.401 27.7708 94.6562 27.8594C94.9115 27.9479 95.237 28.0365 95.6328 28.125C96.3255 28.2812 96.8958 28.4688 97.3438 28.6875C97.7917 28.9062 98.125 29.1745 98.3438 29.4922C98.5625 29.8099 98.6719 30.1953 98.6719 30.6484C98.6719 31.0182 98.5938 31.3568 98.4375 31.6641C98.2865 31.9714 98.0651 32.237 97.7734 32.4609C97.487 32.6797 97.1432 32.8516 96.7422 32.9766C96.3464 33.0964 95.901 33.1562 95.4062 33.1562C94.6615 33.1562 94.0312 33.0234 93.5156 32.7578C93 32.4922 92.6094 32.1484 92.3438 31.7266C92.0781 31.3047 91.9453 30.8594 91.9453 30.3906H93.3984C93.4193 30.7865 93.5339 31.1016 93.7422 31.3359C93.9505 31.5651 94.2057 31.7292 94.5078 31.8281C94.8099 31.9219 95.1094 31.9688 95.4062 31.9688C95.8021 31.9688 96.1328 31.9167 96.3984 31.8125C96.6693 31.7083 96.875 31.5651 97.0156 31.3828C97.1562 31.2005 97.2266 30.9922 97.2266 30.7578ZM102.016 21V33H100.57V21H102.016ZM101.672 28.4531L101.07 28.4297C101.076 27.8516 101.161 27.3177 101.328 26.8281C101.495 26.3333 101.729 25.9036 102.031 25.5391C102.333 25.1745 102.693 24.8932 103.109 24.6953C103.531 24.4922 103.997 24.3906 104.508 24.3906C104.924 24.3906 105.299 24.4479 105.633 24.5625C105.966 24.6719 106.25 24.849 106.484 25.0938C106.724 25.3385 106.906 25.6562 107.031 26.0469C107.156 26.4323 107.219 26.9036 107.219 27.4609V33H105.766V27.4453C105.766 27.0026 105.701 26.6484 105.57 26.3828C105.44 26.112 105.25 25.9167 105 25.7969C104.75 25.6719 104.443 25.6094 104.078 25.6094C103.719 25.6094 103.391 25.6849 103.094 25.8359C102.802 25.987 102.549 26.1953 102.336 26.4609C102.128 26.7266 101.964 27.0312 101.844 27.375C101.729 27.7135 101.672 28.0729 101.672 28.4531ZM109.375 21H110.828V31.3594L110.703 33H109.375V21ZM116.539 28.7031V28.8672C116.539 29.4818 116.466 30.0521 116.32 30.5781C116.174 31.099 115.961 31.5521 115.68 31.9375C115.398 32.3229 115.055 32.6224 114.648 32.8359C114.242 33.0495 113.776 33.1562 113.25 33.1562C112.714 33.1562 112.242 33.0651 111.836 32.8828C111.435 32.6953 111.096 32.4271 110.82 32.0781C110.544 31.7292 110.323 31.3073 110.156 30.8125C109.995 30.3177 109.883 29.7604 109.82 29.1406V28.4219C109.883 27.7969 109.995 27.237 110.156 26.7422C110.323 26.2474 110.544 25.8255 110.82 25.4766C111.096 25.1224 111.435 24.8542 111.836 24.6719C112.237 24.4844 112.703 24.3906 113.234 24.3906C113.766 24.3906 114.237 24.4948 114.648 24.7031C115.06 24.9062 115.404 25.1979 115.68 25.5781C115.961 25.9583 116.174 26.4141 116.32 26.9453C116.466 27.4714 116.539 28.0573 116.539 28.7031ZM115.086 28.8672V28.7031C115.086 28.2812 115.047 27.8854 114.969 27.5156C114.891 27.1406 114.766 26.8125 114.594 26.5312C114.422 26.2448 114.195 26.0208 113.914 25.8594C113.633 25.6927 113.286 25.6094 112.875 25.6094C112.51 25.6094 112.193 25.6719 111.922 25.7969C111.656 25.9219 111.43 26.0911 111.242 26.3047C111.055 26.513 110.901 26.7526 110.781 27.0234C110.667 27.2891 110.581 27.5651 110.523 27.8516V29.7344C110.607 30.099 110.742 30.4505 110.93 30.7891C111.122 31.1224 111.378 31.3958 111.695 31.6094C112.018 31.8229 112.417 31.9297 112.891 31.9297C113.281 31.9297 113.615 31.8516 113.891 31.6953C114.172 31.5339 114.398 31.3125 114.57 31.0312C114.747 30.75 114.878 30.4245 114.961 30.0547C115.044 29.6849 115.086 29.2891 115.086 28.8672ZM117.984 28.8672V28.6875C117.984 28.0781 118.073 27.513 118.25 26.9922C118.427 26.4661 118.682 26.0104 119.016 25.625C119.349 25.2344 119.753 24.9323 120.227 24.7188C120.701 24.5 121.232 24.3906 121.82 24.3906C122.414 24.3906 122.948 24.5 123.422 24.7188C123.901 24.9323 124.307 25.2344 124.641 25.625C124.979 26.0104 125.237 26.4661 125.414 26.9922C125.591 27.513 125.68 28.0781 125.68 28.6875V28.8672C125.68 29.4766 125.591 30.0417 125.414 30.5625C125.237 31.0833 124.979 31.5391 124.641 31.9297C124.307 32.3151 123.904 32.6172 123.43 32.8359C122.961 33.0495 122.43 33.1562 121.836 33.1562C121.242 33.1562 120.708 33.0495 120.234 32.8359C119.76 32.6172 119.354 32.3151 119.016 31.9297C118.682 31.5391 118.427 31.0833 118.25 30.5625C118.073 30.0417 117.984 29.4766 117.984 28.8672ZM119.43 28.6875V28.8672C119.43 29.2891 119.479 29.6875 119.578 30.0625C119.677 30.4323 119.826 30.7604 120.023 31.0469C120.227 31.3333 120.479 31.5599 120.781 31.7266C121.083 31.888 121.435 31.9688 121.836 31.9688C122.232 31.9688 122.578 31.888 122.875 31.7266C123.177 31.5599 123.427 31.3333 123.625 31.0469C123.823 30.7604 123.971 30.4323 124.07 30.0625C124.174 29.6875 124.227 29.2891 124.227 28.8672V28.6875C124.227 28.2708 124.174 27.8776 124.07 27.5078C123.971 27.1328 123.82 26.8021 123.617 26.5156C123.419 26.224 123.169 25.9948 122.867 25.8281C122.57 25.6615 122.221 25.5781 121.82 25.5781C121.424 25.5781 121.076 25.6615 120.773 25.8281C120.477 25.9948 120.227 26.224 120.023 26.5156C119.826 26.8021 119.677 27.1328 119.578 27.5078C119.479 27.8776 119.43 28.2708 119.43 28.6875ZM132.477 31.5547V27.2031C132.477 26.8698 132.409 26.5807 132.273 26.3359C132.143 26.0859 131.945 25.8932 131.68 25.7578C131.414 25.6224 131.086 25.5547 130.695 25.5547C130.331 25.5547 130.01 25.6172 129.734 25.7422C129.464 25.8672 129.25 26.0312 129.094 26.2344C128.943 26.4375 128.867 26.6562 128.867 26.8906H127.422C127.422 26.5885 127.5 26.2891 127.656 25.9922C127.812 25.6953 128.036 25.4271 128.328 25.1875C128.625 24.9427 128.979 24.75 129.391 24.6094C129.807 24.4635 130.271 24.3906 130.781 24.3906C131.396 24.3906 131.938 24.4948 132.406 24.7031C132.88 24.9115 133.25 25.2266 133.516 25.6484C133.786 26.0651 133.922 26.5885 133.922 27.2188V31.1562C133.922 31.4375 133.945 31.737 133.992 32.0547C134.044 32.3724 134.12 32.6458 134.219 32.875V33H132.711C132.638 32.8333 132.581 32.612 132.539 32.3359C132.497 32.0547 132.477 31.7943 132.477 31.5547ZM132.727 27.875L132.742 28.8906H131.281C130.87 28.8906 130.503 28.9245 130.18 28.9922C129.857 29.0547 129.586 29.151 129.367 29.2812C129.148 29.4115 128.982 29.5755 128.867 29.7734C128.753 29.9661 128.695 30.1927 128.695 30.4531C128.695 30.7188 128.755 30.9609 128.875 31.1797C128.995 31.3984 129.174 31.5729 129.414 31.7031C129.659 31.8281 129.958 31.8906 130.312 31.8906C130.755 31.8906 131.146 31.7969 131.484 31.6094C131.823 31.4219 132.091 31.1927 132.289 30.9219C132.492 30.651 132.602 30.388 132.617 30.1328L133.234 30.8281C133.198 31.0469 133.099 31.2891 132.938 31.5547C132.776 31.8203 132.56 32.0755 132.289 32.3203C132.023 32.5599 131.706 32.7604 131.336 32.9219C130.971 33.0781 130.56 33.1562 130.102 33.1562C129.529 33.1562 129.026 33.0443 128.594 32.8203C128.167 32.5964 127.833 32.2969 127.594 31.9219C127.359 31.5417 127.242 31.1172 127.242 30.6484C127.242 30.1953 127.331 29.7969 127.508 29.4531C127.685 29.1042 127.94 28.8151 128.273 28.5859C128.607 28.3516 129.008 28.1745 129.477 28.0547C129.945 27.9349 130.469 27.875 131.047 27.875H132.727ZM137.641 25.875V33H136.195V24.5469H137.602L137.641 25.875ZM140.281 24.5L140.273 25.8438C140.154 25.8177 140.039 25.8021 139.93 25.7969C139.826 25.7865 139.706 25.7812 139.57 25.7812C139.237 25.7812 138.943 25.8333 138.688 25.9375C138.432 26.0417 138.216 26.1875 138.039 26.375C137.862 26.5625 137.721 26.7865 137.617 27.0469C137.518 27.3021 137.453 27.5833 137.422 27.8906L137.016 28.125C137.016 27.6146 137.065 27.1354 137.164 26.6875C137.268 26.2396 137.427 25.8438 137.641 25.5C137.854 25.151 138.125 24.8802 138.453 24.6875C138.786 24.4896 139.182 24.3906 139.641 24.3906C139.745 24.3906 139.865 24.4036 140 24.4297C140.135 24.4505 140.229 24.474 140.281 24.5ZM146.789 31.3594V21H148.242V33H146.914L146.789 31.3594ZM141.102 28.8672V28.7031C141.102 28.0573 141.18 27.4714 141.336 26.9453C141.497 26.4141 141.724 25.9583 142.016 25.5781C142.312 25.1979 142.664 24.9062 143.07 24.7031C143.482 24.4948 143.94 24.3906 144.445 24.3906C144.977 24.3906 145.44 24.4844 145.836 24.6719C146.237 24.8542 146.576 25.1224 146.852 25.4766C147.133 25.8255 147.354 26.2474 147.516 26.7422C147.677 27.237 147.789 27.7969 147.852 28.4219V29.1406C147.794 29.7604 147.682 30.3177 147.516 30.8125C147.354 31.3073 147.133 31.7292 146.852 32.0781C146.576 32.4271 146.237 32.6953 145.836 32.8828C145.435 33.0651 144.966 33.1562 144.43 33.1562C143.935 33.1562 143.482 33.0495 143.07 32.8359C142.664 32.6224 142.312 32.3229 142.016 31.9375C141.724 31.5521 141.497 31.099 141.336 30.5781C141.18 30.0521 141.102 29.4818 141.102 28.8672ZM142.555 28.7031V28.8672C142.555 29.2891 142.596 29.6849 142.68 30.0547C142.768 30.4245 142.904 30.75 143.086 31.0312C143.268 31.3125 143.5 31.5339 143.781 31.6953C144.062 31.8516 144.398 31.9297 144.789 31.9297C145.268 31.9297 145.661 31.8281 145.969 31.625C146.281 31.4219 146.531 31.1536 146.719 30.8203C146.906 30.487 147.052 30.125 147.156 29.7344V27.8516C147.094 27.5651 147.003 27.2891 146.883 27.0234C146.768 26.7526 146.617 26.513 146.43 26.3047C146.247 26.0911 146.021 25.9219 145.75 25.7969C145.484 25.6719 145.169 25.6094 144.805 25.6094C144.409 25.6094 144.068 25.6927 143.781 25.8594C143.5 26.0208 143.268 26.2448 143.086 26.5312C142.904 26.8125 142.768 27.1406 142.68 27.5156C142.596 27.8854 142.555 28.2812 142.555 28.7031ZM158.891 22.6328L155.125 33H153.586L157.922 21.625H158.914L158.891 22.6328ZM162.047 33L158.273 22.6328L158.25 21.625H159.242L163.594 33H162.047ZM161.852 28.7891V30.0234H155.461V28.7891H161.852ZM170.227 31.3594V21H171.68V33H170.352L170.227 31.3594ZM164.539 28.8672V28.7031C164.539 28.0573 164.617 27.4714 164.773 26.9453C164.935 26.4141 165.161 25.9583 165.453 25.5781C165.75 25.1979 166.102 24.9062 166.508 24.7031C166.919 24.4948 167.378 24.3906 167.883 24.3906C168.414 24.3906 168.878 24.4844 169.273 24.6719C169.674 24.8542 170.013 25.1224 170.289 25.4766C170.57 25.8255 170.792 26.2474 170.953 26.7422C171.115 27.237 171.227 27.7969 171.289 28.4219V29.1406C171.232 29.7604 171.12 30.3177 170.953 30.8125C170.792 31.3073 170.57 31.7292 170.289 32.0781C170.013 32.4271 169.674 32.6953 169.273 32.8828C168.872 33.0651 168.404 33.1562 167.867 33.1562C167.372 33.1562 166.919 33.0495 166.508 32.8359C166.102 32.6224 165.75 32.3229 165.453 31.9375C165.161 31.5521 164.935 31.099 164.773 30.5781C164.617 30.0521 164.539 29.4818 164.539 28.8672ZM165.992 28.7031V28.8672C165.992 29.2891 166.034 29.6849 166.117 30.0547C166.206 30.4245 166.341 30.75 166.523 31.0312C166.706 31.3125 166.938 31.5339 167.219 31.6953C167.5 31.8516 167.836 31.9297 168.227 31.9297C168.706 31.9297 169.099 31.8281 169.406 31.625C169.719 31.4219 169.969 31.1536 170.156 30.8203C170.344 30.487 170.49 30.125 170.594 29.7344V27.8516C170.531 27.5651 170.44 27.2891 170.32 27.0234C170.206 26.7526 170.055 26.513 169.867 26.3047C169.685 26.0911 169.458 25.9219 169.188 25.7969C168.922 25.6719 168.607 25.6094 168.242 25.6094C167.846 25.6094 167.505 25.6927 167.219 25.8594C166.938 26.0208 166.706 26.2448 166.523 26.5312C166.341 26.8125 166.206 27.1406 166.117 27.5156C166.034 27.8854 165.992 28.2812 165.992 28.7031ZM175.367 26.2266V33H173.914V24.5469H175.289L175.367 26.2266ZM175.07 28.4531L174.398 28.4297C174.404 27.8516 174.479 27.3177 174.625 26.8281C174.771 26.3333 174.987 25.9036 175.273 25.5391C175.56 25.1745 175.917 24.8932 176.344 24.6953C176.771 24.4922 177.266 24.3906 177.828 24.3906C178.224 24.3906 178.589 24.4479 178.922 24.5625C179.255 24.6719 179.544 24.8464 179.789 25.0859C180.034 25.3255 180.224 25.6328 180.359 26.0078C180.495 26.3828 180.562 26.8359 180.562 27.3672V33H179.117V27.4375C179.117 26.9948 179.042 26.6406 178.891 26.375C178.745 26.1094 178.536 25.9167 178.266 25.7969C177.995 25.6719 177.677 25.6094 177.312 25.6094C176.885 25.6094 176.529 25.6849 176.242 25.8359C175.956 25.987 175.727 26.1953 175.555 26.4609C175.383 26.7266 175.258 27.0312 175.18 27.375C175.107 27.7135 175.07 28.0729 175.07 28.4531ZM180.547 27.6562L179.578 27.9531C179.583 27.4896 179.659 27.0443 179.805 26.6172C179.956 26.1901 180.172 25.8099 180.453 25.4766C180.74 25.1432 181.091 24.8802 181.508 24.6875C181.924 24.4896 182.401 24.3906 182.938 24.3906C183.391 24.3906 183.792 24.4505 184.141 24.5703C184.495 24.6901 184.792 24.875 185.031 25.125C185.276 25.3698 185.461 25.6849 185.586 26.0703C185.711 26.4557 185.773 26.9141 185.773 27.4453V33H184.32V27.4297C184.32 26.9557 184.245 26.5885 184.094 26.3281C183.948 26.0625 183.74 25.8776 183.469 25.7734C183.203 25.6641 182.885 25.6094 182.516 25.6094C182.198 25.6094 181.917 25.6641 181.672 25.7734C181.427 25.8828 181.221 26.0339 181.055 26.2266C180.888 26.4141 180.76 26.6302 180.672 26.875C180.589 27.1198 180.547 27.3802 180.547 27.6562ZM189.531 24.5469V33H188.078V24.5469H189.531ZM187.969 22.3047C187.969 22.0703 188.039 21.8724 188.18 21.7109C188.326 21.5495 188.539 21.4688 188.82 21.4688C189.096 21.4688 189.307 21.5495 189.453 21.7109C189.604 21.8724 189.68 22.0703 189.68 22.3047C189.68 22.5286 189.604 22.7214 189.453 22.8828C189.307 23.0391 189.096 23.1172 188.82 23.1172C188.539 23.1172 188.326 23.0391 188.18 22.8828C188.039 22.7214 187.969 22.5286 187.969 22.3047ZM193.297 26.3516V33H191.852V24.5469H193.219L193.297 26.3516ZM192.953 28.4531L192.352 28.4297C192.357 27.8516 192.443 27.3177 192.609 26.8281C192.776 26.3333 193.01 25.9036 193.312 25.5391C193.615 25.1745 193.974 24.8932 194.391 24.6953C194.812 24.4922 195.279 24.3906 195.789 24.3906C196.206 24.3906 196.581 24.4479 196.914 24.5625C197.247 24.6719 197.531 24.849 197.766 25.0938C198.005 25.3385 198.188 25.6562 198.312 26.0469C198.438 26.4323 198.5 26.9036 198.5 27.4609V33H197.047V27.4453C197.047 27.0026 196.982 26.6484 196.852 26.3828C196.721 26.112 196.531 25.9167 196.281 25.7969C196.031 25.6719 195.724 25.6094 195.359 25.6094C195 25.6094 194.672 25.6849 194.375 25.8359C194.083 25.987 193.831 26.1953 193.617 26.4609C193.409 26.7266 193.245 27.0312 193.125 27.375C193.01 27.7135 192.953 28.0729 192.953 28.4531Z" fill="#61308C"/>
<defs>
<linearGradient id="paint0_linear_1539_6738" x1="29.1637" y1="17.43" x2="39.8037" y2="17.43" gradientUnits="userSpaceOnUse">
<stop stop-color="#F6B419"/>
<stop offset="1" stop-color="#FBE822"/>
</linearGradient>
<linearGradient id="paint1_linear_1539_6738" x1="28.3984" y1="13.79" x2="39.1784" y2="13.79" gradientUnits="userSpaceOnUse">
<stop stop-color="#FFC809"/>
<stop offset="1" stop-color="#F5ED6D"/>
</linearGradient>
<linearGradient id="paint2_linear_1539_6738" x1="26.6203" y1="19.5534" x2="41.3903" y2="19.5534" gradientUnits="userSpaceOnUse">
<stop stop-color="#F4A51E"/>
<stop offset="1" stop-color="#FFE000"/>
</linearGradient>
</defs>
</svg>
