<svg width="20" height="19" viewBox="0 0 20 19" fill="none" xmlns="http://www.w3.org/2000/svg">
<path d="M3.33464 10.6667L4.64684 15.9155C4.68375 16.0631 4.7022 16.1369 4.72403 16.2014C4.93727 16.8309 5.50423 17.2736 6.16674 17.3278C6.23455 17.3333 6.31063 17.3333 6.46279 17.3333C6.65334 17.3333 6.74861 17.3333 6.82887 17.3255C7.62213 17.2486 8.24991 16.6208 8.32685 15.8276C8.33464 15.7473 8.33464 15.652 8.33464 15.4615V3.58333M15.418 10.25C17.0288 10.25 18.3346 8.94416 18.3346 7.33333C18.3346 5.7225 17.0288 4.41667 15.418 4.41667M8.54297 3.58333H5.41797C3.3469 3.58333 1.66797 5.26227 1.66797 7.33334C1.66797 9.4044 3.3469 11.0833 5.41797 11.0833H8.54297C10.015 11.0833 11.8157 11.8724 13.2049 12.6297C14.0153 13.0715 14.4205 13.2924 14.6859 13.2599C14.9321 13.2297 15.1181 13.1192 15.2624 12.9176C15.418 12.7001 15.418 12.265 15.418 11.3948V3.2719C15.418 2.40166 15.418 1.96654 15.2624 1.74908C15.1181 1.54742 14.9321 1.43692 14.6859 1.40677C14.4205 1.37427 14.0153 1.59517 13.2049 2.03696C11.8157 2.79426 10.015 3.58333 8.54297 3.58333Z" stroke="#61308C" stroke-width="2" stroke-linecap="round" stroke-linejoin="round"/>
</svg>
