<svg width="16" height="4" viewBox="0 0 16 4" fill="none" xmlns="http://www.w3.org/2000/svg">
<path d="M7.9987 2.83334C8.45894 2.83334 8.83203 2.46024 8.83203 2C8.83203 1.53977 8.45894 1.16667 7.9987 1.16667C7.53846 1.16667 7.16536 1.53977 7.16536 2C7.16536 2.46024 7.53846 2.83334 7.9987 2.83334Z" stroke="#61308C" stroke-width="2" stroke-linecap="round" stroke-linejoin="round"/>
<path d="M13.832 2.83334C14.2923 2.83334 14.6654 2.46024 14.6654 2C14.6654 1.53977 14.2923 1.16667 13.832 1.16667C13.3718 1.16667 12.9987 1.53977 12.9987 2C12.9987 2.46024 13.3718 2.83334 13.832 2.83334Z" stroke="#61308C" stroke-width="2" stroke-linecap="round" stroke-linejoin="round"/>
<path d="M2.16536 2.83334C2.6256 2.83334 2.9987 2.46024 2.9987 2C2.9987 1.53977 2.6256 1.16667 2.16536 1.16667C1.70513 1.16667 1.33203 1.53977 1.33203 2C1.33203 2.46024 1.70513 2.83334 2.16536 2.83334Z" stroke="#61308C" stroke-width="2" stroke-linecap="round" stroke-linejoin="round"/>
</svg>
