<svg width="20" height="19" viewBox="0 0 20 19" fill="none" xmlns="http://www.w3.org/2000/svg">
<path d="M9.30658 1.4913C9.56322 0.87653 10.4342 0.876528 10.6908 1.4913L12.3825 5.54377C12.4851 5.78946 12.7102 5.96236 12.974 5.99807L17.4529 6.60427C18.1031 6.69227 18.3349 7.51376 17.8265 7.92857L14.3764 10.744C14.1549 10.9247 14.0555 11.2156 14.1199 11.4941L15.2224 16.2585C15.3775 16.9287 14.6239 17.4367 14.0609 17.0415L10.4296 14.4928C10.171 14.3113 9.82641 14.3113 9.56784 14.4928L5.93646 17.0415C5.37343 17.4367 4.61983 16.9287 4.77491 16.2586L5.87736 11.4941C5.94181 11.2156 5.84233 10.9247 5.62086 10.744L2.17083 7.92857C1.66251 7.51375 1.89425 6.69227 2.54443 6.60427L7.02337 5.99807C7.2872 5.96236 7.51233 5.78946 7.61489 5.54377L9.30658 1.4913Z" stroke="#61308C" stroke-width="2" stroke-miterlimit="3.3292" stroke-linecap="round" stroke-linejoin="round"/>
</svg>
