<svg width="304" height="48" viewBox="0 0 304 48" fill="none" xmlns="http://www.w3.org/2000/svg">
<rect x="16" width="288" height="48" rx="16" fill="#3A379F" fill-opacity="0.05"/>
<path d="M49.3076 16.4913C49.5642 15.8765 50.4352 15.8765 50.6918 16.4913L52.3835 20.5438C52.486 20.7895 52.7112 20.9624 52.975 20.9981L57.4539 21.6043C58.1041 21.6923 58.3358 22.5138 57.8275 22.9286L54.3774 25.744C54.1559 25.9247 54.0564 26.2156 54.1209 26.4941L55.2234 31.2585C55.3785 31.9287 54.6249 32.4367 54.0619 32.0415L50.4305 29.4928C50.172 29.3113 49.8274 29.3113 49.5688 29.4928L45.9374 32.0415C45.3744 32.4367 44.6208 31.9287 44.7759 31.2586L45.8783 26.4941C45.9428 26.2156 45.8433 25.9247 45.6218 25.744L42.1718 22.9286C41.6635 22.5138 41.8952 21.6923 42.5454 21.6043L47.0243 20.9981C47.2882 20.9624 47.5133 20.7895 47.6159 20.5438L49.3076 16.4913Z" stroke="#61308C" stroke-width="2" stroke-miterlimit="3.3292" stroke-linecap="round" stroke-linejoin="round"/>
<path d="M74.9375 26.5234C74.9375 26.3203 74.9062 26.138 74.8438 25.9766C74.7865 25.8099 74.6771 25.6589 74.5156 25.5234C74.3542 25.3828 74.1276 25.2448 73.8359 25.1094C73.5443 24.974 73.1667 24.8333 72.7031 24.6875C72.1875 24.5208 71.6979 24.3333 71.2344 24.125C70.776 23.9167 70.3698 23.6745 70.0156 23.3984C69.6667 23.1172 69.3906 22.7917 69.1875 22.4219C68.9896 22.0521 68.8906 21.6224 68.8906 21.1328C68.8906 20.6589 68.9948 20.2292 69.2031 19.8438C69.4115 19.4531 69.7031 19.1198 70.0781 18.8438C70.4531 18.5625 70.8958 18.3464 71.4062 18.1953C71.9219 18.0443 72.487 17.9688 73.1016 17.9688C73.9401 17.9688 74.6719 18.1198 75.2969 18.4219C75.9219 18.724 76.4062 19.138 76.75 19.6641C77.099 20.1901 77.2734 20.7917 77.2734 21.4688H74.9453C74.9453 21.1354 74.875 20.8438 74.7344 20.5938C74.599 20.3385 74.3906 20.138 74.1094 19.9922C73.8333 19.8464 73.4844 19.7734 73.0625 19.7734C72.6562 19.7734 72.3177 19.8359 72.0469 19.9609C71.776 20.0807 71.5729 20.2448 71.4375 20.4531C71.3021 20.6562 71.2344 20.8854 71.2344 21.1406C71.2344 21.3333 71.2812 21.5078 71.375 21.6641C71.474 21.8203 71.6198 21.9661 71.8125 22.1016C72.0052 22.237 72.2422 22.3646 72.5234 22.4844C72.8047 22.6042 73.1302 22.7214 73.5 22.8359C74.1198 23.0234 74.6641 23.2344 75.1328 23.4688C75.6068 23.7031 76.0026 23.9661 76.3203 24.2578C76.638 24.5495 76.8776 24.8802 77.0391 25.25C77.2005 25.6198 77.2812 26.0391 77.2812 26.5078C77.2812 27.0026 77.1849 27.4453 76.9922 27.8359C76.7995 28.2266 76.5208 28.5573 76.1562 28.8281C75.7917 29.099 75.3568 29.3047 74.8516 29.4453C74.3464 29.5859 73.7812 29.6562 73.1562 29.6562C72.5938 29.6562 72.0391 29.5833 71.4922 29.4375C70.9453 29.2865 70.4479 29.0599 70 28.7578C69.5573 28.4557 69.2031 28.0703 68.9375 27.6016C68.6719 27.1328 68.5391 26.5781 68.5391 25.9375H70.8906C70.8906 26.2917 70.9453 26.5911 71.0547 26.8359C71.1641 27.0807 71.3177 27.2786 71.5156 27.4297C71.7188 27.5807 71.9583 27.6901 72.2344 27.7578C72.5156 27.8255 72.8229 27.8594 73.1562 27.8594C73.5625 27.8594 73.8958 27.8021 74.1562 27.6875C74.4219 27.5729 74.6172 27.4141 74.7422 27.2109C74.8724 27.0078 74.9375 26.7786 74.9375 26.5234ZM82.875 21.0469V22.6406H77.9531V21.0469H82.875ZM79.1719 18.9609H81.4219V26.9531C81.4219 27.1979 81.4531 27.3854 81.5156 27.5156C81.5833 27.6458 81.6823 27.737 81.8125 27.7891C81.9427 27.8359 82.1068 27.8594 82.3047 27.8594C82.4453 27.8594 82.5703 27.8542 82.6797 27.8438C82.7943 27.8281 82.8906 27.8125 82.9688 27.7969L82.9766 29.4531C82.7839 29.5156 82.5755 29.5651 82.3516 29.6016C82.1276 29.638 81.8802 29.6562 81.6094 29.6562C81.1146 29.6562 80.6823 29.5755 80.3125 29.4141C79.9479 29.2474 79.6667 28.9818 79.4688 28.6172C79.2708 28.2526 79.1719 27.7734 79.1719 27.1797V18.9609ZM88.7188 27.5938V23.8281C88.7188 23.5573 88.6745 23.3255 88.5859 23.1328C88.4974 22.9349 88.3594 22.7812 88.1719 22.6719C87.9896 22.5625 87.7526 22.5078 87.4609 22.5078C87.2109 22.5078 86.9948 22.5521 86.8125 22.6406C86.6302 22.724 86.4896 22.8464 86.3906 23.0078C86.2917 23.1641 86.2422 23.349 86.2422 23.5625H83.9922C83.9922 23.2031 84.0755 22.862 84.2422 22.5391C84.4089 22.2161 84.651 21.9323 84.9688 21.6875C85.2865 21.4375 85.6641 21.2422 86.1016 21.1016C86.5443 20.9609 87.0391 20.8906 87.5859 20.8906C88.2422 20.8906 88.8255 21 89.3359 21.2188C89.8464 21.4375 90.2474 21.7656 90.5391 22.2031C90.8359 22.6406 90.9844 23.1875 90.9844 23.8438V27.4609C90.9844 27.9245 91.013 28.3047 91.0703 28.6016C91.1276 28.8932 91.2109 29.1484 91.3203 29.3672V29.5H89.0469C88.9375 29.2708 88.8542 28.9844 88.7969 28.6406C88.7448 28.2917 88.7188 27.9427 88.7188 27.5938ZM89.0156 24.3516L89.0312 25.625H87.7734C87.4766 25.625 87.2188 25.6589 87 25.7266C86.7812 25.7943 86.6016 25.8906 86.4609 26.0156C86.3203 26.1354 86.2161 26.276 86.1484 26.4375C86.0859 26.599 86.0547 26.776 86.0547 26.9688C86.0547 27.1615 86.099 27.3359 86.1875 27.4922C86.276 27.6432 86.4036 27.763 86.5703 27.8516C86.737 27.9349 86.9323 27.9766 87.1562 27.9766C87.4948 27.9766 87.7891 27.9089 88.0391 27.7734C88.2891 27.638 88.4818 27.4714 88.6172 27.2734C88.7578 27.0755 88.8307 26.888 88.8359 26.7109L89.4297 27.6641C89.3464 27.8776 89.2318 28.099 89.0859 28.3281C88.9453 28.5573 88.7656 28.7734 88.5469 28.9766C88.3281 29.1745 88.0651 29.3385 87.7578 29.4688C87.4505 29.5938 87.0859 29.6562 86.6641 29.6562C86.1276 29.6562 85.6406 29.5495 85.2031 29.3359C84.7708 29.1172 84.4271 28.8177 84.1719 28.4375C83.9219 28.0521 83.7969 27.6146 83.7969 27.125C83.7969 26.6823 83.8802 26.2891 84.0469 25.9453C84.2135 25.6016 84.4583 25.3125 84.7812 25.0781C85.1094 24.8385 85.5182 24.6589 86.0078 24.5391C86.4974 24.4141 87.0651 24.3516 87.7109 24.3516H89.0156ZM94.9688 22.8906V29.5H92.7188V21.0469H94.8359L94.9688 22.8906ZM97.5156 20.9922L97.4766 23.0781C97.3672 23.0625 97.2344 23.0495 97.0781 23.0391C96.9271 23.0234 96.7891 23.0156 96.6641 23.0156C96.3464 23.0156 96.0703 23.0573 95.8359 23.1406C95.6068 23.2188 95.4141 23.3359 95.2578 23.4922C95.1068 23.6484 94.9922 23.8385 94.9141 24.0625C94.8411 24.2865 94.7995 24.5417 94.7891 24.8281L94.3359 24.6875C94.3359 24.1406 94.3906 23.638 94.5 23.1797C94.6094 22.7161 94.7682 22.3125 94.9766 21.9688C95.1901 21.625 95.4505 21.3594 95.7578 21.1719C96.0651 20.9844 96.4167 20.8906 96.8125 20.8906C96.9375 20.8906 97.0651 20.901 97.1953 20.9219C97.3255 20.9375 97.4323 20.9609 97.5156 20.9922ZM103.148 25.4453H100.25V23.6172H103.148C103.596 23.6172 103.961 23.5443 104.242 23.3984C104.523 23.2474 104.729 23.0391 104.859 22.7734C104.99 22.5078 105.055 22.2083 105.055 21.875C105.055 21.5365 104.99 21.2214 104.859 20.9297C104.729 20.638 104.523 20.4036 104.242 20.2266C103.961 20.0495 103.596 19.9609 103.148 19.9609H101.062V29.5H98.7188V18.125H103.148C104.039 18.125 104.802 18.2865 105.438 18.6094C106.078 18.9271 106.568 19.3672 106.906 19.9297C107.245 20.4922 107.414 21.1354 107.414 21.8594C107.414 22.5938 107.245 23.2292 106.906 23.7656C106.568 24.3021 106.078 24.7161 105.438 25.0078C104.802 25.2995 104.039 25.4453 103.148 25.4453ZM108.422 25.3594V25.1953C108.422 24.5755 108.51 24.0052 108.688 23.4844C108.865 22.9583 109.122 22.5026 109.461 22.1172C109.799 21.7318 110.216 21.4323 110.711 21.2188C111.206 21 111.773 20.8906 112.414 20.8906C113.055 20.8906 113.625 21 114.125 21.2188C114.625 21.4323 115.044 21.7318 115.383 22.1172C115.727 22.5026 115.987 22.9583 116.164 23.4844C116.341 24.0052 116.43 24.5755 116.43 25.1953V25.3594C116.43 25.974 116.341 26.5443 116.164 27.0703C115.987 27.5911 115.727 28.0469 115.383 28.4375C115.044 28.8229 114.628 29.1224 114.133 29.3359C113.638 29.5495 113.07 29.6562 112.43 29.6562C111.789 29.6562 111.219 29.5495 110.719 29.3359C110.224 29.1224 109.805 28.8229 109.461 28.4375C109.122 28.0469 108.865 27.5911 108.688 27.0703C108.51 26.5443 108.422 25.974 108.422 25.3594ZM110.672 25.1953V25.3594C110.672 25.7135 110.703 26.0443 110.766 26.3516C110.828 26.6589 110.927 26.9297 111.062 27.1641C111.203 27.3932 111.385 27.5729 111.609 27.7031C111.833 27.8333 112.107 27.8984 112.43 27.8984C112.742 27.8984 113.01 27.8333 113.234 27.7031C113.458 27.5729 113.638 27.3932 113.773 27.1641C113.909 26.9297 114.008 26.6589 114.07 26.3516C114.138 26.0443 114.172 25.7135 114.172 25.3594V25.1953C114.172 24.8516 114.138 24.5286 114.07 24.2266C114.008 23.9193 113.906 23.6484 113.766 23.4141C113.63 23.1745 113.451 22.987 113.227 22.8516C113.003 22.7161 112.732 22.6484 112.414 22.6484C112.096 22.6484 111.826 22.7161 111.602 22.8516C111.383 22.987 111.203 23.1745 111.062 23.4141C110.927 23.6484 110.828 23.9193 110.766 24.2266C110.703 24.5286 110.672 24.8516 110.672 25.1953ZM120.188 21.0469V29.5H117.93V21.0469H120.188ZM117.789 18.8438C117.789 18.5156 117.904 18.2448 118.133 18.0312C118.362 17.8177 118.669 17.7109 119.055 17.7109C119.435 17.7109 119.74 17.8177 119.969 18.0312C120.203 18.2448 120.32 18.5156 120.32 18.8438C120.32 19.1719 120.203 19.4427 119.969 19.6562C119.74 19.8698 119.435 19.9766 119.055 19.9766C118.669 19.9766 118.362 19.8698 118.133 19.6562C117.904 19.4427 117.789 19.1719 117.789 18.8438ZM124.25 22.8516V29.5H122V21.0469H124.109L124.25 22.8516ZM123.922 24.9766H123.312C123.312 24.3516 123.393 23.7891 123.555 23.2891C123.716 22.7839 123.943 22.3542 124.234 22C124.526 21.6406 124.872 21.3672 125.273 21.1797C125.68 20.987 126.133 20.8906 126.633 20.8906C127.029 20.8906 127.391 20.9479 127.719 21.0625C128.047 21.1771 128.328 21.3594 128.562 21.6094C128.802 21.8594 128.984 22.1901 129.109 22.6016C129.24 23.013 129.305 23.5156 129.305 24.1094V29.5H127.039V24.1016C127.039 23.7266 126.987 23.4349 126.883 23.2266C126.779 23.0182 126.625 22.8724 126.422 22.7891C126.224 22.7005 125.979 22.6562 125.688 22.6562C125.385 22.6562 125.122 22.7161 124.898 22.8359C124.68 22.9557 124.497 23.1224 124.352 23.3359C124.211 23.5443 124.104 23.7891 124.031 24.0703C123.958 24.3516 123.922 24.6536 123.922 24.9766ZM135.141 18.125H139.383C140.253 18.125 141 18.2552 141.625 18.5156C142.255 18.776 142.74 19.1615 143.078 19.6719C143.417 20.1823 143.586 20.8099 143.586 21.5547C143.586 22.1641 143.482 22.6875 143.273 23.125C143.07 23.5573 142.781 23.9193 142.406 24.2109C142.036 24.4974 141.602 24.7266 141.102 24.8984L140.359 25.2891H136.672L136.656 23.4609H139.398C139.81 23.4609 140.151 23.388 140.422 23.2422C140.693 23.0964 140.896 22.8932 141.031 22.6328C141.172 22.3724 141.242 22.0703 141.242 21.7266C141.242 21.362 141.174 21.0469 141.039 20.7812C140.904 20.5156 140.698 20.3125 140.422 20.1719C140.146 20.0312 139.799 19.9609 139.383 19.9609H137.484V29.5H135.141V18.125ZM141.5 29.5L138.906 24.4297L141.383 24.4141L144.008 29.3906V29.5H141.5ZM149.141 29.6562C148.484 29.6562 147.896 29.5521 147.375 29.3438C146.854 29.1302 146.411 28.8359 146.047 28.4609C145.688 28.0859 145.411 27.651 145.219 27.1562C145.026 26.6562 144.93 26.125 144.93 25.5625V25.25C144.93 24.6094 145.021 24.0234 145.203 23.4922C145.385 22.9609 145.646 22.5 145.984 22.1094C146.328 21.7188 146.745 21.4193 147.234 21.2109C147.724 20.9974 148.276 20.8906 148.891 20.8906C149.49 20.8906 150.021 20.9896 150.484 21.1875C150.948 21.3854 151.336 21.6667 151.648 22.0312C151.966 22.3958 152.206 22.8333 152.367 23.3438C152.529 23.849 152.609 24.4115 152.609 25.0312V25.9688H145.891V24.4688H150.398V24.2969C150.398 23.9844 150.341 23.7057 150.227 23.4609C150.117 23.2109 149.951 23.013 149.727 22.8672C149.503 22.7214 149.216 22.6484 148.867 22.6484C148.57 22.6484 148.315 22.7135 148.102 22.8438C147.888 22.974 147.714 23.1562 147.578 23.3906C147.448 23.625 147.349 23.901 147.281 24.2188C147.219 24.5312 147.188 24.875 147.188 25.25V25.5625C147.188 25.901 147.234 26.2135 147.328 26.5C147.427 26.7865 147.565 27.0339 147.742 27.2422C147.924 27.4505 148.143 27.612 148.398 27.7266C148.659 27.8411 148.953 27.8984 149.281 27.8984C149.688 27.8984 150.065 27.8203 150.414 27.6641C150.768 27.5026 151.073 27.2604 151.328 26.9375L152.422 28.125C152.245 28.3802 152.003 28.625 151.695 28.8594C151.393 29.0938 151.029 29.2865 150.602 29.4375C150.174 29.5833 149.688 29.6562 149.141 29.6562ZM156.141 22.6719V32.75H153.891V21.0469H155.977L156.141 22.6719ZM161.492 25.1797V25.3438C161.492 25.9583 161.419 26.5286 161.273 27.0547C161.133 27.5807 160.924 28.0391 160.648 28.4297C160.372 28.8151 160.029 29.1172 159.617 29.3359C159.211 29.5495 158.742 29.6562 158.211 29.6562C157.695 29.6562 157.247 29.5521 156.867 29.3438C156.487 29.1354 156.167 28.8438 155.906 28.4688C155.651 28.0885 155.445 27.6484 155.289 27.1484C155.133 26.6484 155.013 26.112 154.93 25.5391V25.1094C155.013 24.4948 155.133 23.9323 155.289 23.4219C155.445 22.9062 155.651 22.4609 155.906 22.0859C156.167 21.7057 156.484 21.4115 156.859 21.2031C157.24 20.9948 157.685 20.8906 158.195 20.8906C158.732 20.8906 159.203 20.9922 159.609 21.1953C160.021 21.3984 160.365 21.6901 160.641 22.0703C160.922 22.4505 161.133 22.9036 161.273 23.4297C161.419 23.9557 161.492 24.5391 161.492 25.1797ZM159.234 25.3438V25.1797C159.234 24.8203 159.203 24.4896 159.141 24.1875C159.083 23.8802 158.99 23.612 158.859 23.3828C158.734 23.1536 158.568 22.9766 158.359 22.8516C158.156 22.7214 157.909 22.6562 157.617 22.6562C157.31 22.6562 157.047 22.7057 156.828 22.8047C156.615 22.9036 156.44 23.0469 156.305 23.2344C156.169 23.4219 156.068 23.6458 156 23.9062C155.932 24.1667 155.891 24.4609 155.875 24.7891V25.875C155.901 26.2604 155.974 26.6068 156.094 26.9141C156.214 27.2161 156.398 27.4557 156.648 27.6328C156.898 27.8099 157.227 27.8984 157.633 27.8984C157.93 27.8984 158.18 27.8333 158.383 27.7031C158.586 27.5677 158.75 27.3828 158.875 27.1484C159.005 26.9141 159.096 26.6432 159.148 26.3359C159.206 26.0286 159.234 25.6979 159.234 25.3438ZM162.531 25.3594V25.1953C162.531 24.5755 162.62 24.0052 162.797 23.4844C162.974 22.9583 163.232 22.5026 163.57 22.1172C163.909 21.7318 164.326 21.4323 164.82 21.2188C165.315 21 165.883 20.8906 166.523 20.8906C167.164 20.8906 167.734 21 168.234 21.2188C168.734 21.4323 169.154 21.7318 169.492 22.1172C169.836 22.5026 170.096 22.9583 170.273 23.4844C170.451 24.0052 170.539 24.5755 170.539 25.1953V25.3594C170.539 25.974 170.451 26.5443 170.273 27.0703C170.096 27.5911 169.836 28.0469 169.492 28.4375C169.154 28.8229 168.737 29.1224 168.242 29.3359C167.747 29.5495 167.18 29.6562 166.539 29.6562C165.898 29.6562 165.328 29.5495 164.828 29.3359C164.333 29.1224 163.914 28.8229 163.57 28.4375C163.232 28.0469 162.974 27.5911 162.797 27.0703C162.62 26.5443 162.531 25.974 162.531 25.3594ZM164.781 25.1953V25.3594C164.781 25.7135 164.812 26.0443 164.875 26.3516C164.938 26.6589 165.036 26.9297 165.172 27.1641C165.312 27.3932 165.495 27.5729 165.719 27.7031C165.943 27.8333 166.216 27.8984 166.539 27.8984C166.852 27.8984 167.12 27.8333 167.344 27.7031C167.568 27.5729 167.747 27.3932 167.883 27.1641C168.018 26.9297 168.117 26.6589 168.18 26.3516C168.247 26.0443 168.281 25.7135 168.281 25.3594V25.1953C168.281 24.8516 168.247 24.5286 168.18 24.2266C168.117 23.9193 168.016 23.6484 167.875 23.4141C167.74 23.1745 167.56 22.987 167.336 22.8516C167.112 22.7161 166.841 22.6484 166.523 22.6484C166.206 22.6484 165.935 22.7161 165.711 22.8516C165.492 22.987 165.312 23.1745 165.172 23.4141C165.036 23.6484 164.938 23.9193 164.875 24.2266C164.812 24.5286 164.781 24.8516 164.781 25.1953ZM174.172 22.8906V29.5H171.922V21.0469H174.039L174.172 22.8906ZM176.719 20.9922L176.68 23.0781C176.57 23.0625 176.438 23.0495 176.281 23.0391C176.13 23.0234 175.992 23.0156 175.867 23.0156C175.549 23.0156 175.273 23.0573 175.039 23.1406C174.81 23.2188 174.617 23.3359 174.461 23.4922C174.31 23.6484 174.195 23.8385 174.117 24.0625C174.044 24.2865 174.003 24.5417 173.992 24.8281L173.539 24.6875C173.539 24.1406 173.594 23.638 173.703 23.1797C173.812 22.7161 173.971 22.3125 174.18 21.9688C174.393 21.625 174.654 21.3594 174.961 21.1719C175.268 20.9844 175.62 20.8906 176.016 20.8906C176.141 20.8906 176.268 20.901 176.398 20.9219C176.529 20.9375 176.635 20.9609 176.719 20.9922ZM182.312 21.0469V22.6406H177.391V21.0469H182.312ZM178.609 18.9609H180.859V26.9531C180.859 27.1979 180.891 27.3854 180.953 27.5156C181.021 27.6458 181.12 27.737 181.25 27.7891C181.38 27.8359 181.544 27.8594 181.742 27.8594C181.883 27.8594 182.008 27.8542 182.117 27.8438C182.232 27.8281 182.328 27.8125 182.406 27.7969L182.414 29.4531C182.221 29.5156 182.013 29.5651 181.789 29.6016C181.565 29.638 181.318 29.6562 181.047 29.6562C180.552 29.6562 180.12 29.5755 179.75 29.4141C179.385 29.2474 179.104 28.9818 178.906 28.6172C178.708 28.2526 178.609 27.7734 178.609 27.1797V18.9609Z" fill="#61308C"/>
<path d="M0 3C2.76142 3 5 5.23858 5 8V40C5 42.7614 2.76142 45 0 45V3Z" fill="#3A379F"/>
</svg>
