<svg width="288" height="48" viewBox="0 0 288 48" fill="none" xmlns="http://www.w3.org/2000/svg">
<path d="M33.308 16.4913C33.5647 15.8765 34.4356 15.8765 34.6923 16.4913L36.384 20.5438C36.4865 20.7895 36.7117 20.9624 36.9755 20.9981L41.4544 21.6043C42.1046 21.6923 42.3363 22.5138 41.828 22.9286L38.3779 25.744C38.1564 25.9247 38.0569 26.2156 38.1214 26.4941L39.2239 31.2585C39.379 31.9287 38.6254 32.4367 38.0624 32.0415L34.431 29.4928C34.1724 29.3113 33.8279 29.3113 33.5693 29.4928L29.9379 32.0415C29.3749 32.4367 28.6213 31.9287 28.7764 31.2586L29.8788 26.4941C29.9433 26.2156 29.8438 25.9247 29.6223 25.744L26.1723 22.9286C25.664 22.5138 25.8957 21.6923 26.5459 21.6043L31.0248 20.9981C31.2887 20.9624 31.5138 20.7895 31.6164 20.5438L33.308 16.4913Z" stroke="#61308C" stroke-width="2" stroke-miterlimit="3.3292" stroke-linecap="round" stroke-linejoin="round"/>
<path d="M59.1406 26.5703C59.1406 26.3359 59.1042 26.1276 59.0312 25.9453C58.9635 25.763 58.8411 25.5964 58.6641 25.4453C58.487 25.2943 58.237 25.1484 57.9141 25.0078C57.5964 24.862 57.1901 24.7135 56.6953 24.5625C56.1536 24.3958 55.6536 24.2109 55.1953 24.0078C54.7422 23.7995 54.3464 23.5599 54.0078 23.2891C53.6693 23.013 53.4062 22.6979 53.2188 22.3438C53.0312 21.9844 52.9375 21.5703 52.9375 21.1016C52.9375 20.638 53.0339 20.2161 53.2266 19.8359C53.4245 19.4557 53.7031 19.1276 54.0625 18.8516C54.4271 18.5703 54.8568 18.3542 55.3516 18.2031C55.8464 18.0469 56.3932 17.9688 56.9922 17.9688C57.8359 17.9688 58.5625 18.125 59.1719 18.4375C59.7865 18.75 60.2578 19.1693 60.5859 19.6953C60.9193 20.2214 61.0859 20.8021 61.0859 21.4375H59.1406C59.1406 21.0625 59.0599 20.7318 58.8984 20.4453C58.7422 20.1536 58.5026 19.9245 58.1797 19.7578C57.862 19.5911 57.4583 19.5078 56.9688 19.5078C56.5052 19.5078 56.1198 19.5781 55.8125 19.7188C55.5052 19.8594 55.276 20.0495 55.125 20.2891C54.974 20.5286 54.8984 20.7995 54.8984 21.1016C54.8984 21.3151 54.9479 21.5104 55.0469 21.6875C55.1458 21.8594 55.2969 22.0208 55.5 22.1719C55.7031 22.3177 55.9583 22.4557 56.2656 22.5859C56.5729 22.7161 56.9349 22.8411 57.3516 22.9609C57.9818 23.1484 58.5312 23.3568 59 23.5859C59.4688 23.8099 59.8594 24.0651 60.1719 24.3516C60.4844 24.638 60.7188 24.9635 60.875 25.3281C61.0312 25.6875 61.1094 26.0964 61.1094 26.5547C61.1094 27.0339 61.013 27.4661 60.8203 27.8516C60.6276 28.2318 60.3516 28.5573 59.9922 28.8281C59.638 29.0938 59.2109 29.2995 58.7109 29.4453C58.2161 29.5859 57.6641 29.6562 57.0547 29.6562C56.5078 29.6562 55.9688 29.5833 55.4375 29.4375C54.9115 29.2917 54.4323 29.0703 54 28.7734C53.5677 28.4714 53.224 28.0964 52.9688 27.6484C52.7135 27.1953 52.5859 26.6667 52.5859 26.0625H54.5469C54.5469 26.4323 54.6094 26.7474 54.7344 27.0078C54.8646 27.2682 55.0443 27.4818 55.2734 27.6484C55.5026 27.8099 55.7682 27.9297 56.0703 28.0078C56.3776 28.0859 56.7057 28.125 57.0547 28.125C57.513 28.125 57.8958 28.0599 58.2031 27.9297C58.5156 27.7995 58.75 27.6172 58.9062 27.3828C59.0625 27.1484 59.1406 26.8776 59.1406 26.5703ZM66.5312 21.0469V22.4219H61.7656V21.0469H66.5312ZM63.1406 18.9766H65.0234V27.1641C65.0234 27.4245 65.0599 27.625 65.1328 27.7656C65.2109 27.901 65.3177 27.9922 65.4531 28.0391C65.5885 28.0859 65.7474 28.1094 65.9297 28.1094C66.0599 28.1094 66.1849 28.1016 66.3047 28.0859C66.4245 28.0703 66.5208 28.0547 66.5938 28.0391L66.6016 29.4766C66.4453 29.5234 66.263 29.5651 66.0547 29.6016C65.8516 29.638 65.6172 29.6562 65.3516 29.6562C64.9193 29.6562 64.5365 29.5807 64.2031 29.4297C63.8698 29.2734 63.6094 29.0208 63.4219 28.6719C63.2344 28.3229 63.1406 27.8594 63.1406 27.2812V18.9766ZM72.75 27.8047V23.7734C72.75 23.4714 72.6953 23.2109 72.5859 22.9922C72.4766 22.7734 72.3099 22.6042 72.0859 22.4844C71.8672 22.3646 71.5911 22.3047 71.2578 22.3047C70.9505 22.3047 70.6849 22.3568 70.4609 22.4609C70.237 22.5651 70.0625 22.7057 69.9375 22.8828C69.8125 23.0599 69.75 23.2604 69.75 23.4844H67.875C67.875 23.151 67.9557 22.8281 68.1172 22.5156C68.2786 22.2031 68.513 21.9245 68.8203 21.6797C69.1276 21.4349 69.4948 21.2422 69.9219 21.1016C70.349 20.9609 70.8281 20.8906 71.3594 20.8906C71.9948 20.8906 72.5573 20.9974 73.0469 21.2109C73.5417 21.4245 73.9297 21.7474 74.2109 22.1797C74.4974 22.6068 74.6406 23.1432 74.6406 23.7891V27.5469C74.6406 27.9323 74.6667 28.2786 74.7188 28.5859C74.776 28.888 74.8568 29.151 74.9609 29.375V29.5H73.0312C72.9427 29.2969 72.8724 29.0391 72.8203 28.7266C72.7734 28.4089 72.75 28.1016 72.75 27.8047ZM73.0234 24.3594L73.0391 25.5234H71.6875C71.3385 25.5234 71.0312 25.5573 70.7656 25.625C70.5 25.6875 70.2786 25.7812 70.1016 25.9062C69.9245 26.0312 69.7917 26.1823 69.7031 26.3594C69.6146 26.5365 69.5703 26.737 69.5703 26.9609C69.5703 27.1849 69.6224 27.3906 69.7266 27.5781C69.8307 27.7604 69.9818 27.9036 70.1797 28.0078C70.3828 28.112 70.6276 28.1641 70.9141 28.1641C71.2995 28.1641 71.6354 28.0859 71.9219 27.9297C72.2135 27.7682 72.4427 27.5729 72.6094 27.3438C72.776 27.1094 72.8646 26.888 72.875 26.6797L73.4844 27.5156C73.4219 27.7292 73.3151 27.9583 73.1641 28.2031C73.013 28.4479 72.8151 28.6823 72.5703 28.9062C72.3307 29.125 72.0417 29.3047 71.7031 29.4453C71.3698 29.5859 70.9844 29.6562 70.5469 29.6562C69.9948 29.6562 69.5026 29.5469 69.0703 29.3281C68.638 29.1042 68.2995 28.8047 68.0547 28.4297C67.8099 28.0495 67.6875 27.6198 67.6875 27.1406C67.6875 26.6927 67.7708 26.2969 67.9375 25.9531C68.1094 25.6042 68.3594 25.3125 68.6875 25.0781C69.0208 24.8438 69.4271 24.6667 69.9062 24.5469C70.3854 24.4219 70.9323 24.3594 71.5469 24.3594H73.0234ZM78.5 22.6562V29.5H76.6172V21.0469H78.4141L78.5 22.6562ZM81.0859 20.9922L81.0703 22.7422C80.9557 22.7214 80.8307 22.7057 80.6953 22.6953C80.5651 22.6849 80.4349 22.6797 80.3047 22.6797C79.9818 22.6797 79.6979 22.7266 79.4531 22.8203C79.2083 22.9089 79.0026 23.0391 78.8359 23.2109C78.6745 23.3776 78.5495 23.5807 78.4609 23.8203C78.3724 24.0599 78.3203 24.3281 78.3047 24.625L77.875 24.6562C77.875 24.125 77.9271 23.6328 78.0312 23.1797C78.1354 22.7266 78.2917 22.3281 78.5 21.9844C78.7135 21.6406 78.9792 21.3724 79.2969 21.1797C79.6198 20.987 79.9922 20.8906 80.4141 20.8906C80.5286 20.8906 80.651 20.901 80.7812 20.9219C80.9167 20.9427 81.0182 20.9661 81.0859 20.9922ZM86.7734 25.2578H83.8125V23.7031H86.7734C87.2891 23.7031 87.7057 23.6198 88.0234 23.4531C88.3411 23.2865 88.5729 23.0573 88.7188 22.7656C88.8698 22.4688 88.9453 22.1302 88.9453 21.75C88.9453 21.3906 88.8698 21.0547 88.7188 20.7422C88.5729 20.4245 88.3411 20.1693 88.0234 19.9766C87.7057 19.7839 87.2891 19.6875 86.7734 19.6875H84.4141V29.5H82.4531V18.125H86.7734C87.6536 18.125 88.401 18.2812 89.0156 18.5938C89.6354 18.901 90.1068 19.3281 90.4297 19.875C90.7526 20.4167 90.9141 21.0365 90.9141 21.7344C90.9141 22.4688 90.7526 23.099 90.4297 23.625C90.1068 24.151 89.6354 24.5547 89.0156 24.8359C88.401 25.1172 87.6536 25.2578 86.7734 25.2578ZM92.0156 25.3672V25.1875C92.0156 24.5781 92.1042 24.013 92.2812 23.4922C92.4583 22.9661 92.7135 22.5104 93.0469 22.125C93.3854 21.7344 93.7969 21.4323 94.2812 21.2188C94.7708 21 95.3229 20.8906 95.9375 20.8906C96.5573 20.8906 97.1094 21 97.5938 21.2188C98.0833 21.4323 98.4974 21.7344 98.8359 22.125C99.1745 22.5104 99.4323 22.9661 99.6094 23.4922C99.7865 24.013 99.875 24.5781 99.875 25.1875V25.3672C99.875 25.9766 99.7865 26.5417 99.6094 27.0625C99.4323 27.5833 99.1745 28.0391 98.8359 28.4297C98.4974 28.8151 98.0859 29.1172 97.6016 29.3359C97.1172 29.5495 96.5677 29.6562 95.9531 29.6562C95.3333 29.6562 94.7786 29.5495 94.2891 29.3359C93.8047 29.1172 93.3932 28.8151 93.0547 28.4297C92.7161 28.0391 92.4583 27.5833 92.2812 27.0625C92.1042 26.5417 92.0156 25.9766 92.0156 25.3672ZM93.8984 25.1875V25.3672C93.8984 25.7474 93.9375 26.1068 94.0156 26.4453C94.0938 26.7839 94.2161 27.0807 94.3828 27.3359C94.5495 27.5911 94.763 27.7917 95.0234 27.9375C95.2839 28.0833 95.5938 28.1562 95.9531 28.1562C96.3021 28.1562 96.6042 28.0833 96.8594 27.9375C97.1198 27.7917 97.3333 27.5911 97.5 27.3359C97.6667 27.0807 97.7891 26.7839 97.8672 26.4453C97.9505 26.1068 97.9922 25.7474 97.9922 25.3672V25.1875C97.9922 24.8125 97.9505 24.4583 97.8672 24.125C97.7891 23.7865 97.6641 23.487 97.4922 23.2266C97.3255 22.9661 97.112 22.763 96.8516 22.6172C96.5964 22.4661 96.2917 22.3906 95.9375 22.3906C95.5833 22.3906 95.276 22.4661 95.0156 22.6172C94.7604 22.763 94.5495 22.9661 94.3828 23.2266C94.2161 23.487 94.0938 23.7865 94.0156 24.125C93.9375 24.4583 93.8984 24.8125 93.8984 25.1875ZM103.469 21.0469V29.5H101.578V21.0469H103.469ZM101.453 18.8281C101.453 18.5417 101.547 18.3047 101.734 18.1172C101.927 17.9245 102.193 17.8281 102.531 17.8281C102.865 17.8281 103.128 17.9245 103.32 18.1172C103.513 18.3047 103.609 18.5417 103.609 18.8281C103.609 19.1094 103.513 19.3438 103.32 19.5312C103.128 19.7188 102.865 19.8125 102.531 19.8125C102.193 19.8125 101.927 19.7188 101.734 19.5312C101.547 19.3438 101.453 19.1094 101.453 18.8281ZM107.398 22.8516V29.5H105.516V21.0469H107.289L107.398 22.8516ZM107.062 24.9609L106.453 24.9531C106.458 24.3542 106.542 23.8047 106.703 23.3047C106.87 22.8047 107.099 22.375 107.391 22.0156C107.688 21.6562 108.042 21.3802 108.453 21.1875C108.865 20.9896 109.323 20.8906 109.828 20.8906C110.234 20.8906 110.602 20.9479 110.93 21.0625C111.263 21.1719 111.547 21.3516 111.781 21.6016C112.021 21.8516 112.203 22.1771 112.328 22.5781C112.453 22.974 112.516 23.4609 112.516 24.0391V29.5H110.625V24.0312C110.625 23.625 110.565 23.3047 110.445 23.0703C110.331 22.8307 110.161 22.6615 109.938 22.5625C109.719 22.4583 109.445 22.4062 109.117 22.4062C108.794 22.4062 108.505 22.474 108.25 22.6094C107.995 22.7448 107.779 22.9297 107.602 23.1641C107.43 23.3984 107.297 23.6693 107.203 23.9766C107.109 24.2839 107.062 24.612 107.062 24.9609ZM118.609 18.125H122.633C123.497 18.125 124.234 18.2552 124.844 18.5156C125.453 18.776 125.919 19.1615 126.242 19.6719C126.57 20.1771 126.734 20.8021 126.734 21.5469C126.734 22.1146 126.63 22.6146 126.422 23.0469C126.214 23.4792 125.919 23.8438 125.539 24.1406C125.159 24.4323 124.706 24.6589 124.18 24.8203L123.586 25.1094H119.969L119.953 23.5547H122.664C123.133 23.5547 123.523 23.4714 123.836 23.3047C124.148 23.138 124.383 22.9115 124.539 22.625C124.701 22.3333 124.781 22.0052 124.781 21.6406C124.781 21.2448 124.703 20.901 124.547 20.6094C124.396 20.3125 124.161 20.0859 123.844 19.9297C123.526 19.7682 123.122 19.6875 122.633 19.6875H120.57V29.5H118.609V18.125ZM125.102 29.5L122.43 24.3906L124.484 24.3828L127.195 29.3984V29.5H125.102ZM132.227 29.6562C131.602 29.6562 131.036 29.5547 130.531 29.3516C130.031 29.1432 129.604 28.8542 129.25 28.4844C128.901 28.1146 128.633 27.6797 128.445 27.1797C128.258 26.6797 128.164 26.1406 128.164 25.5625V25.25C128.164 24.5885 128.26 23.9896 128.453 23.4531C128.646 22.9167 128.914 22.4583 129.258 22.0781C129.602 21.6927 130.008 21.3984 130.477 21.1953C130.945 20.9922 131.453 20.8906 132 20.8906C132.604 20.8906 133.133 20.9922 133.586 21.1953C134.039 21.3984 134.414 21.6849 134.711 22.0547C135.013 22.4193 135.237 22.8542 135.383 23.3594C135.534 23.8646 135.609 24.4219 135.609 25.0312V25.8359H129.078V24.4844H133.75V24.3359C133.74 23.9974 133.672 23.6797 133.547 23.3828C133.427 23.0859 133.242 22.8464 132.992 22.6641C132.742 22.4818 132.409 22.3906 131.992 22.3906C131.68 22.3906 131.401 22.4583 131.156 22.5938C130.917 22.724 130.716 22.9141 130.555 23.1641C130.393 23.4141 130.268 23.7161 130.18 24.0703C130.096 24.4193 130.055 24.8125 130.055 25.25V25.5625C130.055 25.9323 130.104 26.276 130.203 26.5938C130.307 26.9062 130.458 27.1797 130.656 27.4141C130.854 27.6484 131.094 27.8333 131.375 27.9688C131.656 28.099 131.977 28.1641 132.336 28.1641C132.789 28.1641 133.193 28.0729 133.547 27.8906C133.901 27.7083 134.208 27.4505 134.469 27.1172L135.461 28.0781C135.279 28.3438 135.042 28.599 134.75 28.8438C134.458 29.0833 134.102 29.2786 133.68 29.4297C133.263 29.5807 132.779 29.6562 132.227 29.6562ZM138.969 22.6719V32.75H137.086V21.0469H138.82L138.969 22.6719ZM144.477 25.1953V25.3594C144.477 25.974 144.404 26.5443 144.258 27.0703C144.117 27.5911 143.906 28.0469 143.625 28.4375C143.349 28.8229 143.008 29.1224 142.602 29.3359C142.195 29.5495 141.727 29.6562 141.195 29.6562C140.669 29.6562 140.208 29.5599 139.812 29.3672C139.422 29.1693 139.091 28.8906 138.82 28.5312C138.549 28.1719 138.331 27.75 138.164 27.2656C138.003 26.776 137.888 26.2396 137.82 25.6562V25.0234C137.888 24.4036 138.003 23.8411 138.164 23.3359C138.331 22.8307 138.549 22.3958 138.82 22.0312C139.091 21.6667 139.422 21.3854 139.812 21.1875C140.203 20.9896 140.659 20.8906 141.18 20.8906C141.711 20.8906 142.182 20.9948 142.594 21.2031C143.005 21.4062 143.352 21.6979 143.633 22.0781C143.914 22.4531 144.125 22.9062 144.266 23.4375C144.406 23.9635 144.477 24.5495 144.477 25.1953ZM142.594 25.3594V25.1953C142.594 24.8047 142.557 24.4427 142.484 24.1094C142.411 23.7708 142.297 23.474 142.141 23.2188C141.984 22.9635 141.784 22.7656 141.539 22.625C141.299 22.4792 141.01 22.4062 140.672 22.4062C140.339 22.4062 140.052 22.4635 139.812 22.5781C139.573 22.6875 139.372 22.8411 139.211 23.0391C139.049 23.237 138.924 23.4688 138.836 23.7344C138.747 23.9948 138.685 24.2786 138.648 24.5859V26.1016C138.711 26.4766 138.818 26.8203 138.969 27.1328C139.12 27.4453 139.333 27.6953 139.609 27.8828C139.891 28.0651 140.25 28.1562 140.688 28.1562C141.026 28.1562 141.315 28.0833 141.555 27.9375C141.794 27.7917 141.99 27.5911 142.141 27.3359C142.297 27.0755 142.411 26.776 142.484 26.4375C142.557 26.099 142.594 25.7396 142.594 25.3594ZM145.719 25.3672V25.1875C145.719 24.5781 145.807 24.013 145.984 23.4922C146.161 22.9661 146.417 22.5104 146.75 22.125C147.089 21.7344 147.5 21.4323 147.984 21.2188C148.474 21 149.026 20.8906 149.641 20.8906C150.26 20.8906 150.812 21 151.297 21.2188C151.786 21.4323 152.201 21.7344 152.539 22.125C152.878 22.5104 153.135 22.9661 153.312 23.4922C153.49 24.013 153.578 24.5781 153.578 25.1875V25.3672C153.578 25.9766 153.49 26.5417 153.312 27.0625C153.135 27.5833 152.878 28.0391 152.539 28.4297C152.201 28.8151 151.789 29.1172 151.305 29.3359C150.82 29.5495 150.271 29.6562 149.656 29.6562C149.036 29.6562 148.482 29.5495 147.992 29.3359C147.508 29.1172 147.096 28.8151 146.758 28.4297C146.419 28.0391 146.161 27.5833 145.984 27.0625C145.807 26.5417 145.719 25.9766 145.719 25.3672ZM147.602 25.1875V25.3672C147.602 25.7474 147.641 26.1068 147.719 26.4453C147.797 26.7839 147.919 27.0807 148.086 27.3359C148.253 27.5911 148.466 27.7917 148.727 27.9375C148.987 28.0833 149.297 28.1562 149.656 28.1562C150.005 28.1562 150.307 28.0833 150.562 27.9375C150.823 27.7917 151.036 27.5911 151.203 27.3359C151.37 27.0807 151.492 26.7839 151.57 26.4453C151.654 26.1068 151.695 25.7474 151.695 25.3672V25.1875C151.695 24.8125 151.654 24.4583 151.57 24.125C151.492 23.7865 151.367 23.487 151.195 23.2266C151.029 22.9661 150.815 22.763 150.555 22.6172C150.299 22.4661 149.995 22.3906 149.641 22.3906C149.286 22.3906 148.979 22.4661 148.719 22.6172C148.464 22.763 148.253 22.9661 148.086 23.2266C147.919 23.487 147.797 23.7865 147.719 24.125C147.641 24.4583 147.602 24.8125 147.602 25.1875ZM157.047 22.6562V29.5H155.164V21.0469H156.961L157.047 22.6562ZM159.633 20.9922L159.617 22.7422C159.503 22.7214 159.378 22.7057 159.242 22.6953C159.112 22.6849 158.982 22.6797 158.852 22.6797C158.529 22.6797 158.245 22.7266 158 22.8203C157.755 22.9089 157.549 23.0391 157.383 23.2109C157.221 23.3776 157.096 23.5807 157.008 23.8203C156.919 24.0599 156.867 24.3281 156.852 24.625L156.422 24.6562C156.422 24.125 156.474 23.6328 156.578 23.1797C156.682 22.7266 156.839 22.3281 157.047 21.9844C157.26 21.6406 157.526 21.3724 157.844 21.1797C158.167 20.987 158.539 20.8906 158.961 20.8906C159.076 20.8906 159.198 20.901 159.328 20.9219C159.464 20.9427 159.565 20.9661 159.633 20.9922ZM165.078 21.0469V22.4219H160.312V21.0469H165.078ZM161.688 18.9766H163.57V27.1641C163.57 27.4245 163.607 27.625 163.68 27.7656C163.758 27.901 163.865 27.9922 164 28.0391C164.135 28.0859 164.294 28.1094 164.477 28.1094C164.607 28.1094 164.732 28.1016 164.852 28.0859C164.971 28.0703 165.068 28.0547 165.141 28.0391L165.148 29.4766C164.992 29.5234 164.81 29.5651 164.602 29.6016C164.398 29.638 164.164 29.6562 163.898 29.6562C163.466 29.6562 163.083 29.5807 162.75 29.4297C162.417 29.2734 162.156 29.0208 161.969 28.6719C161.781 28.3229 161.688 27.8594 161.688 27.2812V18.9766Z" fill="#61308C"/>
</svg>
