<svg width="304" height="48" viewBox="0 0 304 48" fill="none" xmlns="http://www.w3.org/2000/svg">
<rect x="16" width="288" height="48" rx="16" fill="#3A379F" fill-opacity="0.05"/>
<path d="M43.3307 25.6667L44.6429 30.9155C44.6798 31.0631 44.6983 31.1369 44.7201 31.2014C44.9334 31.8309 45.5003 32.2736 46.1628 32.3278C46.2306 32.3333 46.3067 32.3333 46.4589 32.3333C46.6494 32.3333 46.7447 32.3333 46.825 32.3255C47.6182 32.2486 48.246 31.6208 48.3229 30.8276C48.3307 30.7473 48.3307 30.652 48.3307 30.4615V18.5833M55.4141 25.25C57.0249 25.25 58.3307 23.9442 58.3307 22.3333C58.3307 20.7225 57.0249 19.4167 55.4141 19.4167M48.5391 18.5833H45.4141C43.343 18.5833 41.6641 20.2623 41.6641 22.3333C41.6641 24.4044 43.343 26.0833 45.4141 26.0833H48.5391C50.0111 26.0833 51.8118 26.8724 53.201 27.6297C54.0114 28.0715 54.4166 28.2924 54.682 28.2599C54.9281 28.2298 55.1142 28.1192 55.2585 27.9176C55.4141 27.7001 55.4141 27.265 55.4141 26.3948V18.2719C55.4141 17.4017 55.4141 16.9665 55.2585 16.7491C55.1142 16.5474 54.9281 16.4369 54.682 16.4068C54.4166 16.3743 54.0114 16.5952 53.201 17.037C51.8118 17.7943 50.0111 18.5833 48.5391 18.5833Z" stroke="#61308C" stroke-width="2.2" stroke-linecap="round" stroke-linejoin="round"/>
<path d="M70.0859 18.125H72.0703L74.9922 26.4766L77.9141 18.125H79.8984L75.7891 29.5H74.1953L70.0859 18.125ZM69.0156 18.125H70.9922L71.3516 26.2656V29.5H69.0156V18.125ZM78.9922 18.125H80.9766V29.5H78.6328V26.2656L78.9922 18.125ZM87.4531 27.5938V23.8281C87.4531 23.5573 87.4089 23.3255 87.3203 23.1328C87.2318 22.9349 87.0938 22.7812 86.9062 22.6719C86.724 22.5625 86.487 22.5078 86.1953 22.5078C85.9453 22.5078 85.7292 22.5521 85.5469 22.6406C85.3646 22.724 85.224 22.8464 85.125 23.0078C85.026 23.1641 84.9766 23.349 84.9766 23.5625H82.7266C82.7266 23.2031 82.8099 22.862 82.9766 22.5391C83.1432 22.2161 83.3854 21.9323 83.7031 21.6875C84.0208 21.4375 84.3984 21.2422 84.8359 21.1016C85.2786 20.9609 85.7734 20.8906 86.3203 20.8906C86.9766 20.8906 87.5599 21 88.0703 21.2188C88.5807 21.4375 88.9818 21.7656 89.2734 22.2031C89.5703 22.6406 89.7188 23.1875 89.7188 23.8438V27.4609C89.7188 27.9245 89.7474 28.3047 89.8047 28.6016C89.862 28.8932 89.9453 29.1484 90.0547 29.3672V29.5H87.7812C87.6719 29.2708 87.5885 28.9844 87.5312 28.6406C87.4792 28.2917 87.4531 27.9427 87.4531 27.5938ZM87.75 24.3516L87.7656 25.625H86.5078C86.2109 25.625 85.9531 25.6589 85.7344 25.7266C85.5156 25.7943 85.3359 25.8906 85.1953 26.0156C85.0547 26.1354 84.9505 26.276 84.8828 26.4375C84.8203 26.599 84.7891 26.776 84.7891 26.9688C84.7891 27.1615 84.8333 27.3359 84.9219 27.4922C85.0104 27.6432 85.138 27.763 85.3047 27.8516C85.4714 27.9349 85.6667 27.9766 85.8906 27.9766C86.2292 27.9766 86.5234 27.9089 86.7734 27.7734C87.0234 27.638 87.2161 27.4714 87.3516 27.2734C87.4922 27.0755 87.5651 26.888 87.5703 26.7109L88.1641 27.6641C88.0807 27.8776 87.9661 28.099 87.8203 28.3281C87.6797 28.5573 87.5 28.7734 87.2812 28.9766C87.0625 29.1745 86.7995 29.3385 86.4922 29.4688C86.1849 29.5938 85.8203 29.6562 85.3984 29.6562C84.862 29.6562 84.375 29.5495 83.9375 29.3359C83.5052 29.1172 83.1615 28.8177 82.9062 28.4375C82.6562 28.0521 82.5312 27.6146 82.5312 27.125C82.5312 26.6823 82.6146 26.2891 82.7812 25.9453C82.9479 25.6016 83.1927 25.3125 83.5156 25.0781C83.8438 24.8385 84.2526 24.6589 84.7422 24.5391C85.2318 24.4141 85.7995 24.3516 86.4453 24.3516H87.75ZM93.7031 22.8906V29.5H91.4531V21.0469H93.5703L93.7031 22.8906ZM96.25 20.9922L96.2109 23.0781C96.1016 23.0625 95.9688 23.0495 95.8125 23.0391C95.6615 23.0234 95.5234 23.0156 95.3984 23.0156C95.0807 23.0156 94.8047 23.0573 94.5703 23.1406C94.3411 23.2188 94.1484 23.3359 93.9922 23.4922C93.8411 23.6484 93.7266 23.8385 93.6484 24.0625C93.5755 24.2865 93.5339 24.5417 93.5234 24.8281L93.0703 24.6875C93.0703 24.1406 93.125 23.638 93.2344 23.1797C93.3438 22.7161 93.5026 22.3125 93.7109 21.9688C93.9245 21.625 94.1849 21.3594 94.4922 21.1719C94.7995 20.9844 95.151 20.8906 95.5469 20.8906C95.6719 20.8906 95.7995 20.901 95.9297 20.9219C96.0599 20.9375 96.1667 20.9609 96.25 20.9922ZM99.5625 17.4922V29.5H97.3125V17.4922H99.5625ZM104.891 21.0469L101.219 25.2344L99.25 27.2266L98.4297 25.6016L99.9922 23.6172L102.188 21.0469H104.891ZM102.555 29.5L100.055 25.5938L101.609 24.2344L105.148 29.5H102.555ZM109.594 29.6562C108.938 29.6562 108.349 29.5521 107.828 29.3438C107.307 29.1302 106.865 28.8359 106.5 28.4609C106.141 28.0859 105.865 27.651 105.672 27.1562C105.479 26.6562 105.383 26.125 105.383 25.5625V25.25C105.383 24.6094 105.474 24.0234 105.656 23.4922C105.839 22.9609 106.099 22.5 106.438 22.1094C106.781 21.7188 107.198 21.4193 107.688 21.2109C108.177 20.9974 108.729 20.8906 109.344 20.8906C109.943 20.8906 110.474 20.9896 110.938 21.1875C111.401 21.3854 111.789 21.6667 112.102 22.0312C112.419 22.3958 112.659 22.8333 112.82 23.3438C112.982 23.849 113.062 24.4115 113.062 25.0312V25.9688H106.344V24.4688H110.852V24.2969C110.852 23.9844 110.794 23.7057 110.68 23.4609C110.57 23.2109 110.404 23.013 110.18 22.8672C109.956 22.7214 109.669 22.6484 109.32 22.6484C109.023 22.6484 108.768 22.7135 108.555 22.8438C108.341 22.974 108.167 23.1562 108.031 23.3906C107.901 23.625 107.802 23.901 107.734 24.2188C107.672 24.5312 107.641 24.875 107.641 25.25V25.5625C107.641 25.901 107.688 26.2135 107.781 26.5C107.88 26.7865 108.018 27.0339 108.195 27.2422C108.378 27.4505 108.596 27.612 108.852 27.7266C109.112 27.8411 109.406 27.8984 109.734 27.8984C110.141 27.8984 110.518 27.8203 110.867 27.6641C111.221 27.5026 111.526 27.2604 111.781 26.9375L112.875 28.125C112.698 28.3802 112.456 28.625 112.148 28.8594C111.846 29.0938 111.482 29.2865 111.055 29.4375C110.628 29.5833 110.141 29.6562 109.594 29.6562ZM118.484 21.0469V22.6406H113.562V21.0469H118.484ZM114.781 18.9609H117.031V26.9531C117.031 27.1979 117.062 27.3854 117.125 27.5156C117.193 27.6458 117.292 27.737 117.422 27.7891C117.552 27.8359 117.716 27.8594 117.914 27.8594C118.055 27.8594 118.18 27.8542 118.289 27.8438C118.404 27.8281 118.5 27.8125 118.578 27.7969L118.586 29.4531C118.393 29.5156 118.185 29.5651 117.961 29.6016C117.737 29.638 117.49 29.6562 117.219 29.6562C116.724 29.6562 116.292 29.5755 115.922 29.4141C115.557 29.2474 115.276 28.9818 115.078 28.6172C114.88 28.2526 114.781 27.7734 114.781 27.1797V18.9609ZM122.141 21.0469V29.5H119.883V21.0469H122.141ZM119.742 18.8438C119.742 18.5156 119.857 18.2448 120.086 18.0312C120.315 17.8177 120.622 17.7109 121.008 17.7109C121.388 17.7109 121.693 17.8177 121.922 18.0312C122.156 18.2448 122.273 18.5156 122.273 18.8438C122.273 19.1719 122.156 19.4427 121.922 19.6562C121.693 19.8698 121.388 19.9766 121.008 19.9766C120.622 19.9766 120.315 19.8698 120.086 19.6562C119.857 19.4427 119.742 19.1719 119.742 18.8438ZM126.203 22.8516V29.5H123.953V21.0469H126.062L126.203 22.8516ZM125.875 24.9766H125.266C125.266 24.3516 125.346 23.7891 125.508 23.2891C125.669 22.7839 125.896 22.3542 126.188 22C126.479 21.6406 126.826 21.3672 127.227 21.1797C127.633 20.987 128.086 20.8906 128.586 20.8906C128.982 20.8906 129.344 20.9479 129.672 21.0625C130 21.1771 130.281 21.3594 130.516 21.6094C130.755 21.8594 130.938 22.1901 131.062 22.6016C131.193 23.013 131.258 23.5156 131.258 24.1094V29.5H128.992V24.1016C128.992 23.7266 128.94 23.4349 128.836 23.2266C128.732 23.0182 128.578 22.8724 128.375 22.7891C128.177 22.7005 127.932 22.6562 127.641 22.6562C127.339 22.6562 127.076 22.7161 126.852 22.8359C126.633 22.9557 126.451 23.1224 126.305 23.3359C126.164 23.5443 126.057 23.7891 125.984 24.0703C125.911 24.3516 125.875 24.6536 125.875 24.9766ZM138.32 21.0469H140.359V29.2188C140.359 29.9896 140.188 30.6432 139.844 31.1797C139.505 31.7214 139.031 32.1302 138.422 32.4062C137.812 32.6875 137.104 32.8281 136.297 32.8281C135.943 32.8281 135.568 32.7812 135.172 32.6875C134.781 32.5938 134.406 32.4479 134.047 32.25C133.693 32.0521 133.396 31.8021 133.156 31.5L134.148 30.1719C134.409 30.474 134.711 30.7083 135.055 30.875C135.398 31.0469 135.779 31.1328 136.195 31.1328C136.602 31.1328 136.945 31.0573 137.227 30.9062C137.508 30.7604 137.724 30.5443 137.875 30.2578C138.026 29.9766 138.102 29.6354 138.102 29.2344V23L138.32 21.0469ZM132.633 25.375V25.2109C132.633 24.5651 132.711 23.9792 132.867 23.4531C133.029 22.9219 133.255 22.4661 133.547 22.0859C133.844 21.7057 134.203 21.4115 134.625 21.2031C135.047 20.9948 135.523 20.8906 136.055 20.8906C136.617 20.8906 137.089 20.9948 137.469 21.2031C137.849 21.4115 138.161 21.7083 138.406 22.0938C138.651 22.474 138.841 22.9245 138.977 23.4453C139.117 23.9609 139.227 24.526 139.305 25.1406V25.5C139.227 26.0885 139.109 26.6354 138.953 27.1406C138.797 27.6458 138.591 28.0885 138.336 28.4688C138.081 28.8438 137.763 29.1354 137.383 29.3438C137.008 29.5521 136.56 29.6562 136.039 29.6562C135.518 29.6562 135.047 29.5495 134.625 29.3359C134.208 29.1224 133.852 28.8229 133.555 28.4375C133.258 28.0521 133.029 27.599 132.867 27.0781C132.711 26.5573 132.633 25.9896 132.633 25.375ZM134.883 25.2109V25.375C134.883 25.724 134.917 26.0495 134.984 26.3516C135.052 26.6536 135.156 26.9219 135.297 27.1562C135.443 27.3854 135.622 27.5651 135.836 27.6953C136.055 27.8203 136.312 27.8828 136.609 27.8828C137.021 27.8828 137.357 27.7969 137.617 27.625C137.878 27.4479 138.073 27.2057 138.203 26.8984C138.333 26.5911 138.409 26.237 138.43 25.8359V24.8125C138.419 24.4844 138.375 24.1901 138.297 23.9297C138.219 23.6641 138.109 23.4375 137.969 23.25C137.828 23.0625 137.646 22.9167 137.422 22.8125C137.198 22.7083 136.932 22.6562 136.625 22.6562C136.328 22.6562 136.07 22.724 135.852 22.8594C135.638 22.9896 135.458 23.1693 135.312 23.3984C135.172 23.6276 135.065 23.8984 134.992 24.2109C134.919 24.5182 134.883 24.8516 134.883 25.2109Z" fill="#61308C"/>
<path d="M0 3C2.76142 3 5 5.23858 5 8V40C5 42.7614 2.76142 45 0 45V3Z" fill="#3A379F"/>
</svg>
