<svg width="304" height="48" viewBox="0 0 304 48" fill="none" xmlns="http://www.w3.org/2000/svg">
<rect x="16" width="288" height="48" rx="16" fill="#3A379F" fill-opacity="0.05"/>
<path d="M52.5 31.5V27C52.5 26.5333 52.5 26.2999 52.4092 26.1217C52.3293 25.9649 52.2018 25.8374 52.045 25.7575C51.8667 25.6667 51.6334 25.6667 51.1667 25.6667H48.8333C48.3666 25.6667 48.1333 25.6667 47.955 25.7575C47.7982 25.8374 47.6707 25.9649 47.5908 26.1217C47.5 26.2999 47.5 26.5333 47.5 27V31.5M42.5 19.8333C42.5 21.214 43.6193 22.3333 45 22.3333C46.3807 22.3333 47.5 21.214 47.5 19.8333C47.5 21.214 48.6193 22.3333 50 22.3333C51.3807 22.3333 52.5 21.214 52.5 19.8333C52.5 21.214 53.6193 22.3333 55 22.3333C56.3807 22.3333 57.5 21.214 57.5 19.8333M45.1667 31.5H54.8333C55.7668 31.5 56.2335 31.5 56.59 31.3183C56.9036 31.1586 57.1586 30.9036 57.3183 30.59C57.5 30.2335 57.5 29.7668 57.5 28.8333V19.1667C57.5 18.2332 57.5 17.7665 57.3183 17.41C57.1586 17.0964 56.9036 16.8414 56.59 16.6817C56.2335 16.5 55.7668 16.5 54.8333 16.5H45.1667C44.2332 16.5 43.7665 16.5 43.41 16.6817C43.0964 16.8414 42.8414 17.0964 42.6817 17.41C42.5 17.7665 42.5 18.2332 42.5 19.1667V28.8333C42.5 29.7668 42.5 30.2335 42.6817 30.59C42.8414 30.9036 43.0964 31.1586 43.41 31.3183C43.7665 31.5 44.2332 31.5 45.1667 31.5Z" stroke="#61308C" stroke-width="2.2" stroke-linecap="round" stroke-linejoin="round"/>
<path d="M70.0859 18.125H72.0703L74.9922 26.4766L77.9141 18.125H79.8984L75.7891 29.5H74.1953L70.0859 18.125ZM69.0156 18.125H70.9922L71.3516 26.2656V29.5H69.0156V18.125ZM78.9922 18.125H80.9766V29.5H78.6328V26.2656L78.9922 18.125ZM86.7812 29.6562C86.125 29.6562 85.5365 29.5521 85.0156 29.3438C84.4948 29.1302 84.0521 28.8359 83.6875 28.4609C83.3281 28.0859 83.0521 27.651 82.8594 27.1562C82.6667 26.6562 82.5703 26.125 82.5703 25.5625V25.25C82.5703 24.6094 82.6615 24.0234 82.8438 23.4922C83.026 22.9609 83.2865 22.5 83.625 22.1094C83.9688 21.7188 84.3854 21.4193 84.875 21.2109C85.3646 20.9974 85.9167 20.8906 86.5312 20.8906C87.1302 20.8906 87.6615 20.9896 88.125 21.1875C88.5885 21.3854 88.9766 21.6667 89.2891 22.0312C89.6068 22.3958 89.8464 22.8333 90.0078 23.3438C90.1693 23.849 90.25 24.4115 90.25 25.0312V25.9688H83.5312V24.4688H88.0391V24.2969C88.0391 23.9844 87.9818 23.7057 87.8672 23.4609C87.7578 23.2109 87.5911 23.013 87.3672 22.8672C87.1432 22.7214 86.8568 22.6484 86.5078 22.6484C86.2109 22.6484 85.9557 22.7135 85.7422 22.8438C85.5286 22.974 85.3542 23.1562 85.2188 23.3906C85.0885 23.625 84.9896 23.901 84.9219 24.2188C84.8594 24.5312 84.8281 24.875 84.8281 25.25V25.5625C84.8281 25.901 84.875 26.2135 84.9688 26.5C85.0677 26.7865 85.2057 27.0339 85.3828 27.2422C85.5651 27.4505 85.7839 27.612 86.0391 27.7266C86.2995 27.8411 86.5938 27.8984 86.9219 27.8984C87.3281 27.8984 87.7057 27.8203 88.0547 27.6641C88.4089 27.5026 88.7135 27.2604 88.9688 26.9375L90.0625 28.125C89.8854 28.3802 89.6432 28.625 89.3359 28.8594C89.0339 29.0938 88.6693 29.2865 88.2422 29.4375C87.8151 29.5833 87.3281 29.6562 86.7812 29.6562ZM93.7812 22.8906V29.5H91.5312V21.0469H93.6484L93.7812 22.8906ZM96.3281 20.9922L96.2891 23.0781C96.1797 23.0625 96.0469 23.0495 95.8906 23.0391C95.7396 23.0234 95.6016 23.0156 95.4766 23.0156C95.1589 23.0156 94.8828 23.0573 94.6484 23.1406C94.4193 23.2188 94.2266 23.3359 94.0703 23.4922C93.9193 23.6484 93.8047 23.8385 93.7266 24.0625C93.6536 24.2865 93.612 24.5417 93.6016 24.8281L93.1484 24.6875C93.1484 24.1406 93.2031 23.638 93.3125 23.1797C93.4219 22.7161 93.5807 22.3125 93.7891 21.9688C94.0026 21.625 94.263 21.3594 94.5703 21.1719C94.8776 20.9844 95.2292 20.8906 95.625 20.8906C95.75 20.8906 95.8776 20.901 96.0078 20.9219C96.138 20.9375 96.2448 20.9609 96.3281 20.9922ZM100.727 27.8984C101.003 27.8984 101.247 27.8464 101.461 27.7422C101.674 27.6328 101.841 27.4818 101.961 27.2891C102.086 27.0911 102.151 26.8594 102.156 26.5938H104.273C104.268 27.1875 104.109 27.7161 103.797 28.1797C103.484 28.638 103.065 29 102.539 29.2656C102.013 29.526 101.424 29.6562 100.773 29.6562C100.117 29.6562 99.5443 29.5469 99.0547 29.3281C98.5703 29.1094 98.1667 28.8073 97.8438 28.4219C97.5208 28.0312 97.2786 27.5781 97.1172 27.0625C96.9557 26.5417 96.875 25.9844 96.875 25.3906V25.1641C96.875 24.5651 96.9557 24.0078 97.1172 23.4922C97.2786 22.9714 97.5208 22.5182 97.8438 22.1328C98.1667 21.7422 98.5703 21.4375 99.0547 21.2188C99.5391 21 100.107 20.8906 100.758 20.8906C101.451 20.8906 102.057 21.0234 102.578 21.2891C103.104 21.5547 103.516 21.9349 103.812 22.4297C104.115 22.9193 104.268 23.5 104.273 24.1719H102.156C102.151 23.8906 102.091 23.6354 101.977 23.4062C101.867 23.1771 101.706 22.9948 101.492 22.8594C101.284 22.7188 101.026 22.6484 100.719 22.6484C100.391 22.6484 100.122 22.7188 99.9141 22.8594C99.7057 22.9948 99.5443 23.1823 99.4297 23.4219C99.3151 23.6562 99.2344 23.9245 99.1875 24.2266C99.1458 24.5234 99.125 24.8359 99.125 25.1641V25.3906C99.125 25.7188 99.1458 26.0339 99.1875 26.3359C99.2292 26.638 99.3073 26.9062 99.4219 27.1406C99.5417 27.375 99.7057 27.5599 99.9141 27.6953C100.122 27.8307 100.393 27.8984 100.727 27.8984ZM107.773 17.5V29.5H105.523V17.5H107.773ZM107.453 24.9766H106.836C106.841 24.388 106.919 23.8464 107.07 23.3516C107.221 22.8516 107.438 22.4193 107.719 22.0547C108 21.6849 108.336 21.3984 108.727 21.1953C109.122 20.9922 109.56 20.8906 110.039 20.8906C110.456 20.8906 110.833 20.9505 111.172 21.0703C111.516 21.1849 111.81 21.3724 112.055 21.6328C112.305 21.888 112.497 22.224 112.633 22.6406C112.768 23.0573 112.836 23.5625 112.836 24.1562V29.5H110.57V24.1406C110.57 23.7656 110.516 23.4714 110.406 23.2578C110.302 23.0391 110.148 22.8854 109.945 22.7969C109.747 22.7031 109.503 22.6562 109.211 22.6562C108.888 22.6562 108.612 22.7161 108.383 22.8359C108.159 22.9557 107.979 23.1224 107.844 23.3359C107.708 23.5443 107.609 23.7891 107.547 24.0703C107.484 24.3516 107.453 24.6536 107.453 24.9766ZM119.109 27.5938V23.8281C119.109 23.5573 119.065 23.3255 118.977 23.1328C118.888 22.9349 118.75 22.7812 118.562 22.6719C118.38 22.5625 118.143 22.5078 117.852 22.5078C117.602 22.5078 117.385 22.5521 117.203 22.6406C117.021 22.724 116.88 22.8464 116.781 23.0078C116.682 23.1641 116.633 23.349 116.633 23.5625H114.383C114.383 23.2031 114.466 22.862 114.633 22.5391C114.799 22.2161 115.042 21.9323 115.359 21.6875C115.677 21.4375 116.055 21.2422 116.492 21.1016C116.935 20.9609 117.43 20.8906 117.977 20.8906C118.633 20.8906 119.216 21 119.727 21.2188C120.237 21.4375 120.638 21.7656 120.93 22.2031C121.227 22.6406 121.375 23.1875 121.375 23.8438V27.4609C121.375 27.9245 121.404 28.3047 121.461 28.6016C121.518 28.8932 121.602 29.1484 121.711 29.3672V29.5H119.438C119.328 29.2708 119.245 28.9844 119.188 28.6406C119.135 28.2917 119.109 27.9427 119.109 27.5938ZM119.406 24.3516L119.422 25.625H118.164C117.867 25.625 117.609 25.6589 117.391 25.7266C117.172 25.7943 116.992 25.8906 116.852 26.0156C116.711 26.1354 116.607 26.276 116.539 26.4375C116.477 26.599 116.445 26.776 116.445 26.9688C116.445 27.1615 116.49 27.3359 116.578 27.4922C116.667 27.6432 116.794 27.763 116.961 27.8516C117.128 27.9349 117.323 27.9766 117.547 27.9766C117.885 27.9766 118.18 27.9089 118.43 27.7734C118.68 27.638 118.872 27.4714 119.008 27.2734C119.148 27.0755 119.221 26.888 119.227 26.7109L119.82 27.6641C119.737 27.8776 119.622 28.099 119.477 28.3281C119.336 28.5573 119.156 28.7734 118.938 28.9766C118.719 29.1745 118.456 29.3385 118.148 29.4688C117.841 29.5938 117.477 29.6562 117.055 29.6562C116.518 29.6562 116.031 29.5495 115.594 29.3359C115.161 29.1172 114.818 28.8177 114.562 28.4375C114.312 28.0521 114.188 27.6146 114.188 27.125C114.188 26.6823 114.271 26.2891 114.438 25.9453C114.604 25.6016 114.849 25.3125 115.172 25.0781C115.5 24.8385 115.909 24.6589 116.398 24.5391C116.888 24.4141 117.456 24.3516 118.102 24.3516H119.406ZM125.312 22.8516V29.5H123.062V21.0469H125.172L125.312 22.8516ZM124.984 24.9766H124.375C124.375 24.3516 124.456 23.7891 124.617 23.2891C124.779 22.7839 125.005 22.3542 125.297 22C125.589 21.6406 125.935 21.3672 126.336 21.1797C126.742 20.987 127.195 20.8906 127.695 20.8906C128.091 20.8906 128.453 20.9479 128.781 21.0625C129.109 21.1771 129.391 21.3594 129.625 21.6094C129.865 21.8594 130.047 22.1901 130.172 22.6016C130.302 23.013 130.367 23.5156 130.367 24.1094V29.5H128.102V24.1016C128.102 23.7266 128.049 23.4349 127.945 23.2266C127.841 23.0182 127.688 22.8724 127.484 22.7891C127.286 22.7005 127.042 22.6562 126.75 22.6562C126.448 22.6562 126.185 22.7161 125.961 22.8359C125.742 22.9557 125.56 23.1224 125.414 23.3359C125.273 23.5443 125.167 23.7891 125.094 24.0703C125.021 24.3516 124.984 24.6536 124.984 24.9766ZM136.219 21.0469V22.6406H131.297V21.0469H136.219ZM132.516 18.9609H134.766V26.9531C134.766 27.1979 134.797 27.3854 134.859 27.5156C134.927 27.6458 135.026 27.737 135.156 27.7891C135.286 27.8359 135.451 27.8594 135.648 27.8594C135.789 27.8594 135.914 27.8542 136.023 27.8438C136.138 27.8281 136.234 27.8125 136.312 27.7969L136.32 29.4531C136.128 29.5156 135.919 29.5651 135.695 29.6016C135.471 29.638 135.224 29.6562 134.953 29.6562C134.458 29.6562 134.026 29.5755 133.656 29.4141C133.292 29.2474 133.01 28.9818 132.812 28.6172C132.615 28.2526 132.516 27.7734 132.516 27.1797V18.9609Z" fill="#61308C"/>
<path d="M0 3C2.76142 3 5 5.23858 5 8V40C5 42.7614 2.76142 45 0 45V3Z" fill="#3A379F"/>
</svg>
