<svg width="288" height="48" viewBox="0 0 288 48" fill="none" xmlns="http://www.w3.org/2000/svg">
<path d="M35.6668 15.8913V19.3334C35.6668 19.8001 35.6668 20.0335 35.7577 20.2117C35.8376 20.3685 35.965 20.496 36.1218 20.5759C36.3001 20.6667 36.5335 20.6667 37.0002 20.6667H40.4423M37.3335 24.8333H30.6668M37.3335 28.1667H30.6668M32.3335 21.5H30.6668M35.6668 15.6667H31.3335C29.9334 15.6667 29.2333 15.6667 28.6985 15.9391C28.2281 16.1788 27.8457 16.5613 27.606 17.0317C27.3335 17.5665 27.3335 18.2665 27.3335 19.6667V28.3333C27.3335 29.7335 27.3335 30.4335 27.606 30.9683C27.8457 31.4387 28.2281 31.8212 28.6985 32.0608C29.2333 32.3333 29.9334 32.3333 31.3335 32.3333H36.6668C38.067 32.3333 38.767 32.3333 39.3018 32.0608C39.7722 31.8212 40.1547 31.4387 40.3943 30.9683C40.6668 30.4335 40.6668 29.7335 40.6668 28.3333V20.6667L35.6668 15.6667Z" stroke="#61308C" stroke-width="2" stroke-linecap="round" stroke-linejoin="round"/>
<path d="M59.875 25.7969H61.8281C61.7656 26.5417 61.5573 27.2057 61.2031 27.7891C60.849 28.3672 60.3516 28.8229 59.7109 29.1562C59.0703 29.4896 58.2917 29.6562 57.375 29.6562C56.6719 29.6562 56.0391 29.5312 55.4766 29.2812C54.9141 29.026 54.4323 28.6667 54.0312 28.2031C53.6302 27.7344 53.3229 27.1693 53.1094 26.5078C52.901 25.8464 52.7969 25.1068 52.7969 24.2891V23.3438C52.7969 22.526 52.9036 21.7865 53.1172 21.125C53.3359 20.4635 53.6484 19.8984 54.0547 19.4297C54.4609 18.9557 54.9479 18.5938 55.5156 18.3438C56.0885 18.0938 56.7318 17.9688 57.4453 17.9688C58.3516 17.9688 59.1172 18.1354 59.7422 18.4688C60.3672 18.8021 60.8516 19.263 61.1953 19.8516C61.5443 20.4401 61.7578 21.1146 61.8359 21.875H59.8828C59.8307 21.3854 59.7161 20.9661 59.5391 20.6172C59.3672 20.2682 59.112 20.0026 58.7734 19.8203C58.4349 19.6328 57.9922 19.5391 57.4453 19.5391C56.9974 19.5391 56.6068 19.6224 56.2734 19.7891C55.9401 19.9557 55.6615 20.2005 55.4375 20.5234C55.2135 20.8464 55.0443 21.2448 54.9297 21.7188C54.8203 22.1875 54.7656 22.724 54.7656 23.3281V24.2891C54.7656 24.862 54.8151 25.3828 54.9141 25.8516C55.0182 26.3151 55.1745 26.7135 55.3828 27.0469C55.5964 27.3802 55.8672 27.638 56.1953 27.8203C56.5234 28.0026 56.9167 28.0938 57.375 28.0938C57.9323 28.0938 58.3828 28.0052 58.7266 27.8281C59.0755 27.651 59.3385 27.3932 59.5156 27.0547C59.6979 26.7109 59.8177 26.2917 59.875 25.7969ZM63.0625 25.3672V25.1875C63.0625 24.5781 63.151 24.013 63.3281 23.4922C63.5052 22.9661 63.7604 22.5104 64.0938 22.125C64.4323 21.7344 64.8438 21.4323 65.3281 21.2188C65.8177 21 66.3698 20.8906 66.9844 20.8906C67.6042 20.8906 68.1562 21 68.6406 21.2188C69.1302 21.4323 69.5443 21.7344 69.8828 22.125C70.2214 22.5104 70.4792 22.9661 70.6562 23.4922C70.8333 24.013 70.9219 24.5781 70.9219 25.1875V25.3672C70.9219 25.9766 70.8333 26.5417 70.6562 27.0625C70.4792 27.5833 70.2214 28.0391 69.8828 28.4297C69.5443 28.8151 69.1328 29.1172 68.6484 29.3359C68.1641 29.5495 67.6146 29.6562 67 29.6562C66.3802 29.6562 65.8255 29.5495 65.3359 29.3359C64.8516 29.1172 64.4401 28.8151 64.1016 28.4297C63.763 28.0391 63.5052 27.5833 63.3281 27.0625C63.151 26.5417 63.0625 25.9766 63.0625 25.3672ZM64.9453 25.1875V25.3672C64.9453 25.7474 64.9844 26.1068 65.0625 26.4453C65.1406 26.7839 65.263 27.0807 65.4297 27.3359C65.5964 27.5911 65.8099 27.7917 66.0703 27.9375C66.3307 28.0833 66.6406 28.1562 67 28.1562C67.349 28.1562 67.651 28.0833 67.9062 27.9375C68.1667 27.7917 68.3802 27.5911 68.5469 27.3359C68.7135 27.0807 68.8359 26.7839 68.9141 26.4453C68.9974 26.1068 69.0391 25.7474 69.0391 25.3672V25.1875C69.0391 24.8125 68.9974 24.4583 68.9141 24.125C68.8359 23.7865 68.7109 23.487 68.5391 23.2266C68.3724 22.9661 68.1589 22.763 67.8984 22.6172C67.6432 22.4661 67.3385 22.3906 66.9844 22.3906C66.6302 22.3906 66.3229 22.4661 66.0625 22.6172C65.8073 22.763 65.5964 22.9661 65.4297 23.2266C65.263 23.487 65.1406 23.7865 65.0625 24.125C64.9844 24.4583 64.9453 24.8125 64.9453 25.1875ZM74.3672 22.8516V29.5H72.4844V21.0469H74.2578L74.3672 22.8516ZM74.0312 24.9609L73.4219 24.9531C73.4271 24.3542 73.5104 23.8047 73.6719 23.3047C73.8385 22.8047 74.0677 22.375 74.3594 22.0156C74.6562 21.6562 75.0104 21.3802 75.4219 21.1875C75.8333 20.9896 76.2917 20.8906 76.7969 20.8906C77.2031 20.8906 77.5703 20.9479 77.8984 21.0625C78.2318 21.1719 78.5156 21.3516 78.75 21.6016C78.9896 21.8516 79.1719 22.1771 79.2969 22.5781C79.4219 22.974 79.4844 23.4609 79.4844 24.0391V29.5H77.5938V24.0312C77.5938 23.625 77.5339 23.3047 77.4141 23.0703C77.2995 22.8307 77.1302 22.6615 76.9062 22.5625C76.6875 22.4583 76.4141 22.4062 76.0859 22.4062C75.763 22.4062 75.474 22.474 75.2188 22.6094C74.9635 22.7448 74.7474 22.9297 74.5703 23.1641C74.3984 23.3984 74.2656 23.6693 74.1719 23.9766C74.0781 24.2839 74.0312 24.612 74.0312 24.9609ZM85.2812 21.0469V22.4219H80.5156V21.0469H85.2812ZM81.8906 18.9766H83.7734V27.1641C83.7734 27.4245 83.8099 27.625 83.8828 27.7656C83.9609 27.901 84.0677 27.9922 84.2031 28.0391C84.3385 28.0859 84.4974 28.1094 84.6797 28.1094C84.8099 28.1094 84.9349 28.1016 85.0547 28.0859C85.1745 28.0703 85.2708 28.0547 85.3438 28.0391L85.3516 29.4766C85.1953 29.5234 85.013 29.5651 84.8047 29.6016C84.6016 29.638 84.3672 29.6562 84.1016 29.6562C83.6693 29.6562 83.2865 29.5807 82.9531 29.4297C82.6198 29.2734 82.3594 29.0208 82.1719 28.6719C81.9844 28.3229 81.8906 27.8594 81.8906 27.2812V18.9766ZM90.4609 29.6562C89.8359 29.6562 89.2708 29.5547 88.7656 29.3516C88.2656 29.1432 87.8385 28.8542 87.4844 28.4844C87.1354 28.1146 86.8672 27.6797 86.6797 27.1797C86.4922 26.6797 86.3984 26.1406 86.3984 25.5625V25.25C86.3984 24.5885 86.4948 23.9896 86.6875 23.4531C86.8802 22.9167 87.1484 22.4583 87.4922 22.0781C87.8359 21.6927 88.2422 21.3984 88.7109 21.1953C89.1797 20.9922 89.6875 20.8906 90.2344 20.8906C90.8385 20.8906 91.3672 20.9922 91.8203 21.1953C92.2734 21.3984 92.6484 21.6849 92.9453 22.0547C93.2474 22.4193 93.4714 22.8542 93.6172 23.3594C93.7682 23.8646 93.8438 24.4219 93.8438 25.0312V25.8359H87.3125V24.4844H91.9844V24.3359C91.974 23.9974 91.9062 23.6797 91.7812 23.3828C91.6615 23.0859 91.4766 22.8464 91.2266 22.6641C90.9766 22.4818 90.6432 22.3906 90.2266 22.3906C89.9141 22.3906 89.6354 22.4583 89.3906 22.5938C89.151 22.724 88.9505 22.9141 88.7891 23.1641C88.6276 23.4141 88.5026 23.7161 88.4141 24.0703C88.3307 24.4193 88.2891 24.8125 88.2891 25.25V25.5625C88.2891 25.9323 88.3385 26.276 88.4375 26.5938C88.5417 26.9062 88.6927 27.1797 88.8906 27.4141C89.0885 27.6484 89.3281 27.8333 89.6094 27.9688C89.8906 28.099 90.2109 28.1641 90.5703 28.1641C91.0234 28.1641 91.4271 28.0729 91.7812 27.8906C92.1354 27.7083 92.4427 27.4505 92.7031 27.1172L93.6953 28.0781C93.513 28.3438 93.276 28.599 92.9844 28.8438C92.6927 29.0833 92.3359 29.2786 91.9141 29.4297C91.4974 29.5807 91.013 29.6562 90.4609 29.6562ZM97.1797 22.8516V29.5H95.2969V21.0469H97.0703L97.1797 22.8516ZM96.8438 24.9609L96.2344 24.9531C96.2396 24.3542 96.3229 23.8047 96.4844 23.3047C96.651 22.8047 96.8802 22.375 97.1719 22.0156C97.4688 21.6562 97.8229 21.3802 98.2344 21.1875C98.6458 20.9896 99.1042 20.8906 99.6094 20.8906C100.016 20.8906 100.383 20.9479 100.711 21.0625C101.044 21.1719 101.328 21.3516 101.562 21.6016C101.802 21.8516 101.984 22.1771 102.109 22.5781C102.234 22.974 102.297 23.4609 102.297 24.0391V29.5H100.406V24.0312C100.406 23.625 100.346 23.3047 100.227 23.0703C100.112 22.8307 99.9427 22.6615 99.7188 22.5625C99.5 22.4583 99.2266 22.4062 98.8984 22.4062C98.5755 22.4062 98.2865 22.474 98.0312 22.6094C97.776 22.7448 97.5599 22.9297 97.3828 23.1641C97.2109 23.3984 97.0781 23.6693 96.9844 23.9766C96.8906 24.2839 96.8438 24.612 96.8438 24.9609ZM108.094 21.0469V22.4219H103.328V21.0469H108.094ZM104.703 18.9766H106.586V27.1641C106.586 27.4245 106.622 27.625 106.695 27.7656C106.773 27.901 106.88 27.9922 107.016 28.0391C107.151 28.0859 107.31 28.1094 107.492 28.1094C107.622 28.1094 107.747 28.1016 107.867 28.0859C107.987 28.0703 108.083 28.0547 108.156 28.0391L108.164 29.4766C108.008 29.5234 107.826 29.5651 107.617 29.6016C107.414 29.638 107.18 29.6562 106.914 29.6562C106.482 29.6562 106.099 29.5807 105.766 29.4297C105.432 29.2734 105.172 29.0208 104.984 28.6719C104.797 28.3229 104.703 27.8594 104.703 27.2812V18.9766Z" fill="#61308C"/>
</svg>
