<svg width="304" height="48" viewBox="0 0 304 48" fill="none" xmlns="http://www.w3.org/2000/svg">
<rect x="16" width="288" height="48" rx="16" fill="#3A379F" fill-opacity="0.05"/>
<path d="M51.6654 15.8913V19.3334C51.6654 19.8001 51.6654 20.0335 51.7562 20.2117C51.8361 20.3685 51.9636 20.496 52.1204 20.5759C52.2986 20.6667 52.532 20.6667 52.9987 20.6667H56.4408M53.332 24.8333H46.6654M53.332 28.1667H46.6654M48.332 21.5H46.6654M51.6654 15.6667H47.332C45.9319 15.6667 45.2318 15.6667 44.6971 15.9392C44.2266 16.1788 43.8442 16.5613 43.6045 17.0317C43.332 17.5665 43.332 18.2665 43.332 19.6667V28.3333C43.332 29.7335 43.332 30.4335 43.6045 30.9683C43.8442 31.4387 44.2266 31.8212 44.6971 32.0609C45.2318 32.3333 45.9319 32.3333 47.332 32.3333H52.6654C54.0655 32.3333 54.7656 32.3333 55.3003 32.0609C55.7707 31.8212 56.1532 31.4387 56.3929 30.9683C56.6654 30.4335 56.6654 29.7335 56.6654 28.3333V20.6667L51.6654 15.6667Z" stroke="#61308C" stroke-width="2.2" stroke-linecap="round" stroke-linejoin="round"/>
<path d="M75.6094 25.7266H77.9453C77.8984 26.4922 77.6875 27.1719 77.3125 27.7656C76.9427 28.3594 76.4245 28.8229 75.7578 29.1562C75.0964 29.4896 74.2995 29.6562 73.3672 29.6562C72.638 29.6562 71.9844 29.5312 71.4062 29.2812C70.8281 29.026 70.3333 28.6615 69.9219 28.1875C69.5156 27.7135 69.2057 27.1406 68.9922 26.4688C68.7786 25.7969 68.6719 25.0443 68.6719 24.2109V23.4219C68.6719 22.5885 68.7812 21.8359 69 21.1641C69.224 20.487 69.5417 19.9115 69.9531 19.4375C70.3698 18.9635 70.8672 18.599 71.4453 18.3438C72.0234 18.0885 72.6693 17.9609 73.3828 17.9609C74.3307 17.9609 75.1302 18.1328 75.7812 18.4766C76.4375 18.8203 76.9453 19.2943 77.3047 19.8984C77.6693 20.5026 77.888 21.1901 77.9609 21.9609H75.6172C75.5911 21.5026 75.5 21.1146 75.3438 20.7969C75.1875 20.474 74.9505 20.2318 74.6328 20.0703C74.3203 19.9036 73.9036 19.8203 73.3828 19.8203C72.9922 19.8203 72.651 19.8932 72.3594 20.0391C72.0677 20.1849 71.8229 20.4062 71.625 20.7031C71.4271 21 71.2786 21.375 71.1797 21.8281C71.0859 22.276 71.0391 22.8021 71.0391 23.4062V24.2109C71.0391 24.7995 71.0833 25.3177 71.1719 25.7656C71.2604 26.2083 71.3958 26.5833 71.5781 26.8906C71.7656 27.1927 72.0052 27.4219 72.2969 27.5781C72.5938 27.7292 72.9505 27.8047 73.3672 27.8047C73.8568 27.8047 74.2604 27.7266 74.5781 27.5703C74.8958 27.4141 75.138 27.1823 75.3047 26.875C75.4766 26.5677 75.5781 26.1849 75.6094 25.7266ZM78.9844 25.3594V25.1953C78.9844 24.5755 79.0729 24.0052 79.25 23.4844C79.4271 22.9583 79.6849 22.5026 80.0234 22.1172C80.362 21.7318 80.7786 21.4323 81.2734 21.2188C81.7682 21 82.3359 20.8906 82.9766 20.8906C83.6172 20.8906 84.1875 21 84.6875 21.2188C85.1875 21.4323 85.6068 21.7318 85.9453 22.1172C86.2891 22.5026 86.5495 22.9583 86.7266 23.4844C86.9036 24.0052 86.9922 24.5755 86.9922 25.1953V25.3594C86.9922 25.974 86.9036 26.5443 86.7266 27.0703C86.5495 27.5911 86.2891 28.0469 85.9453 28.4375C85.6068 28.8229 85.1901 29.1224 84.6953 29.3359C84.2005 29.5495 83.6328 29.6562 82.9922 29.6562C82.3516 29.6562 81.7812 29.5495 81.2812 29.3359C80.7865 29.1224 80.3672 28.8229 80.0234 28.4375C79.6849 28.0469 79.4271 27.5911 79.25 27.0703C79.0729 26.5443 78.9844 25.974 78.9844 25.3594ZM81.2344 25.1953V25.3594C81.2344 25.7135 81.2656 26.0443 81.3281 26.3516C81.3906 26.6589 81.4896 26.9297 81.625 27.1641C81.7656 27.3932 81.9479 27.5729 82.1719 27.7031C82.3958 27.8333 82.6693 27.8984 82.9922 27.8984C83.3047 27.8984 83.5729 27.8333 83.7969 27.7031C84.0208 27.5729 84.2005 27.3932 84.3359 27.1641C84.4714 26.9297 84.5703 26.6589 84.6328 26.3516C84.7005 26.0443 84.7344 25.7135 84.7344 25.3594V25.1953C84.7344 24.8516 84.7005 24.5286 84.6328 24.2266C84.5703 23.9193 84.4688 23.6484 84.3281 23.4141C84.1927 23.1745 84.013 22.987 83.7891 22.8516C83.5651 22.7161 83.2943 22.6484 82.9766 22.6484C82.6589 22.6484 82.388 22.7161 82.1641 22.8516C81.9453 22.987 81.7656 23.1745 81.625 23.4141C81.4896 23.6484 81.3906 23.9193 81.3281 24.2266C81.2656 24.5286 81.2344 24.8516 81.2344 25.1953ZM90.5781 22.8516V29.5H88.3281V21.0469H90.4375L90.5781 22.8516ZM90.25 24.9766H89.6406C89.6406 24.3516 89.7214 23.7891 89.8828 23.2891C90.0443 22.7839 90.2708 22.3542 90.5625 22C90.8542 21.6406 91.2005 21.3672 91.6016 21.1797C92.0078 20.987 92.4609 20.8906 92.9609 20.8906C93.3568 20.8906 93.7188 20.9479 94.0469 21.0625C94.375 21.1771 94.6562 21.3594 94.8906 21.6094C95.1302 21.8594 95.3125 22.1901 95.4375 22.6016C95.5677 23.013 95.6328 23.5156 95.6328 24.1094V29.5H93.3672V24.1016C93.3672 23.7266 93.3151 23.4349 93.2109 23.2266C93.1068 23.0182 92.9531 22.8724 92.75 22.7891C92.5521 22.7005 92.3073 22.6562 92.0156 22.6562C91.7135 22.6562 91.4505 22.7161 91.2266 22.8359C91.0078 22.9557 90.8255 23.1224 90.6797 23.3359C90.5391 23.5443 90.4323 23.7891 90.3594 24.0703C90.2865 24.3516 90.25 24.6536 90.25 24.9766ZM101.484 21.0469V22.6406H96.5625V21.0469H101.484ZM97.7812 18.9609H100.031V26.9531C100.031 27.1979 100.062 27.3854 100.125 27.5156C100.193 27.6458 100.292 27.737 100.422 27.7891C100.552 27.8359 100.716 27.8594 100.914 27.8594C101.055 27.8594 101.18 27.8542 101.289 27.8438C101.404 27.8281 101.5 27.8125 101.578 27.7969L101.586 29.4531C101.393 29.5156 101.185 29.5651 100.961 29.6016C100.737 29.638 100.49 29.6562 100.219 29.6562C99.724 29.6562 99.2917 29.5755 98.9219 29.4141C98.5573 29.2474 98.276 28.9818 98.0781 28.6172C97.8802 28.2526 97.7812 27.7734 97.7812 27.1797V18.9609ZM106.656 29.6562C106 29.6562 105.411 29.5521 104.891 29.3438C104.37 29.1302 103.927 28.8359 103.562 28.4609C103.203 28.0859 102.927 27.651 102.734 27.1562C102.542 26.6562 102.445 26.125 102.445 25.5625V25.25C102.445 24.6094 102.536 24.0234 102.719 23.4922C102.901 22.9609 103.161 22.5 103.5 22.1094C103.844 21.7188 104.26 21.4193 104.75 21.2109C105.24 20.9974 105.792 20.8906 106.406 20.8906C107.005 20.8906 107.536 20.9896 108 21.1875C108.464 21.3854 108.852 21.6667 109.164 22.0312C109.482 22.3958 109.721 22.8333 109.883 23.3438C110.044 23.849 110.125 24.4115 110.125 25.0312V25.9688H103.406V24.4688H107.914V24.2969C107.914 23.9844 107.857 23.7057 107.742 23.4609C107.633 23.2109 107.466 23.013 107.242 22.8672C107.018 22.7214 106.732 22.6484 106.383 22.6484C106.086 22.6484 105.831 22.7135 105.617 22.8438C105.404 22.974 105.229 23.1562 105.094 23.3906C104.964 23.625 104.865 23.901 104.797 24.2188C104.734 24.5312 104.703 24.875 104.703 25.25V25.5625C104.703 25.901 104.75 26.2135 104.844 26.5C104.943 26.7865 105.081 27.0339 105.258 27.2422C105.44 27.4505 105.659 27.612 105.914 27.7266C106.174 27.8411 106.469 27.8984 106.797 27.8984C107.203 27.8984 107.581 27.8203 107.93 27.6641C108.284 27.5026 108.589 27.2604 108.844 26.9375L109.938 28.125C109.76 28.3802 109.518 28.625 109.211 28.8594C108.909 29.0938 108.544 29.2865 108.117 29.4375C107.69 29.5833 107.203 29.6562 106.656 29.6562ZM113.609 22.8516V29.5H111.359V21.0469H113.469L113.609 22.8516ZM113.281 24.9766H112.672C112.672 24.3516 112.753 23.7891 112.914 23.2891C113.076 22.7839 113.302 22.3542 113.594 22C113.885 21.6406 114.232 21.3672 114.633 21.1797C115.039 20.987 115.492 20.8906 115.992 20.8906C116.388 20.8906 116.75 20.9479 117.078 21.0625C117.406 21.1771 117.688 21.3594 117.922 21.6094C118.161 21.8594 118.344 22.1901 118.469 22.6016C118.599 23.013 118.664 23.5156 118.664 24.1094V29.5H116.398V24.1016C116.398 23.7266 116.346 23.4349 116.242 23.2266C116.138 23.0182 115.984 22.8724 115.781 22.7891C115.583 22.7005 115.339 22.6562 115.047 22.6562C114.745 22.6562 114.482 22.7161 114.258 22.8359C114.039 22.9557 113.857 23.1224 113.711 23.3359C113.57 23.5443 113.464 23.7891 113.391 24.0703C113.318 24.3516 113.281 24.6536 113.281 24.9766ZM124.516 21.0469V22.6406H119.594V21.0469H124.516ZM120.812 18.9609H123.062V26.9531C123.062 27.1979 123.094 27.3854 123.156 27.5156C123.224 27.6458 123.323 27.737 123.453 27.7891C123.583 27.8359 123.747 27.8594 123.945 27.8594C124.086 27.8594 124.211 27.8542 124.32 27.8438C124.435 27.8281 124.531 27.8125 124.609 27.7969L124.617 29.4531C124.424 29.5156 124.216 29.5651 123.992 29.6016C123.768 29.638 123.521 29.6562 123.25 29.6562C122.755 29.6562 122.323 29.5755 121.953 29.4141C121.589 29.2474 121.307 28.9818 121.109 28.6172C120.911 28.2526 120.812 27.7734 120.812 27.1797V18.9609Z" fill="#61308C"/>
<path d="M0 3C2.76142 3 5 5.23858 5 8V40C5 42.7614 2.76142 45 0 45V3Z" fill="#3A379F"/>
</svg>
