<svg width="288" height="48" viewBox="0 0 288 48" fill="none" xmlns="http://www.w3.org/2000/svg">
<path d="M27.3332 25.6667L28.6454 30.9155C28.6823 31.0631 28.7007 31.1369 28.7226 31.2014C28.9358 31.8309 29.5028 32.2736 30.1653 32.3278C30.2331 32.3333 30.3092 32.3333 30.4613 32.3333C30.6519 32.3333 30.7471 32.3333 30.8274 32.3255C31.6207 32.2486 32.2484 31.6208 32.3254 30.8276C32.3332 30.7473 32.3332 30.652 32.3332 30.4615V18.5833M39.4165 25.25C41.0273 25.25 42.3332 23.9442 42.3332 22.3333C42.3332 20.7225 41.0273 19.4167 39.4165 19.4167M32.5415 18.5833H29.4165C27.3454 18.5833 25.6665 20.2623 25.6665 22.3333C25.6665 24.4044 27.3454 26.0833 29.4165 26.0833H32.5415C34.0135 26.0833 35.8142 26.8724 37.2034 27.6297C38.0139 28.0715 38.4191 28.2924 38.6845 28.2599C38.9306 28.2298 39.1167 28.1192 39.2609 27.9176C39.4165 27.7001 39.4165 27.265 39.4165 26.3948V18.2719C39.4165 17.4017 39.4165 16.9665 39.2609 16.7491C39.1167 16.5474 38.9306 16.4369 38.6845 16.4068C38.4191 16.3743 38.0139 16.5952 37.2034 17.037C35.8142 17.7943 34.0135 18.5833 32.5415 18.5833Z" stroke="#61308C" stroke-width="2" stroke-linecap="round" stroke-linejoin="round"/>
<path d="M53.9531 18.125H55.7031L58.9922 26.8984L62.2734 18.125H64.0234L59.6797 29.5H58.2891L53.9531 18.125ZM53.1562 18.125H54.8203L55.1094 25.7188V29.5H53.1562V18.125ZM63.1562 18.125H64.8281V29.5H62.8672V25.7188L63.1562 18.125ZM71.7344 27.8047V23.7734C71.7344 23.4714 71.6797 23.2109 71.5703 22.9922C71.4609 22.7734 71.2943 22.6042 71.0703 22.4844C70.8516 22.3646 70.5755 22.3047 70.2422 22.3047C69.9349 22.3047 69.6693 22.3568 69.4453 22.4609C69.2214 22.5651 69.0469 22.7057 68.9219 22.8828C68.7969 23.0599 68.7344 23.2604 68.7344 23.4844H66.8594C66.8594 23.151 66.9401 22.8281 67.1016 22.5156C67.263 22.2031 67.4974 21.9245 67.8047 21.6797C68.112 21.4349 68.4792 21.2422 68.9062 21.1016C69.3333 20.9609 69.8125 20.8906 70.3438 20.8906C70.9792 20.8906 71.5417 20.9974 72.0312 21.2109C72.526 21.4245 72.9141 21.7474 73.1953 22.1797C73.4818 22.6068 73.625 23.1432 73.625 23.7891V27.5469C73.625 27.9323 73.651 28.2786 73.7031 28.5859C73.7604 28.888 73.8411 29.151 73.9453 29.375V29.5H72.0156C71.9271 29.2969 71.8568 29.0391 71.8047 28.7266C71.7578 28.4089 71.7344 28.1016 71.7344 27.8047ZM72.0078 24.3594L72.0234 25.5234H70.6719C70.3229 25.5234 70.0156 25.5573 69.75 25.625C69.4844 25.6875 69.263 25.7812 69.0859 25.9062C68.9089 26.0312 68.776 26.1823 68.6875 26.3594C68.599 26.5365 68.5547 26.737 68.5547 26.9609C68.5547 27.1849 68.6068 27.3906 68.7109 27.5781C68.8151 27.7604 68.9661 27.9036 69.1641 28.0078C69.3672 28.112 69.612 28.1641 69.8984 28.1641C70.2839 28.1641 70.6198 28.0859 70.9062 27.9297C71.1979 27.7682 71.4271 27.5729 71.5938 27.3438C71.7604 27.1094 71.849 26.888 71.8594 26.6797L72.4688 27.5156C72.4062 27.7292 72.2995 27.9583 72.1484 28.2031C71.9974 28.4479 71.7995 28.6823 71.5547 28.9062C71.3151 29.125 71.026 29.3047 70.6875 29.4453C70.3542 29.5859 69.9688 29.6562 69.5312 29.6562C68.9792 29.6562 68.487 29.5469 68.0547 29.3281C67.6224 29.1042 67.2839 28.8047 67.0391 28.4297C66.7943 28.0495 66.6719 27.6198 66.6719 27.1406C66.6719 26.6927 66.7552 26.2969 66.9219 25.9531C67.0938 25.6042 67.3438 25.3125 67.6719 25.0781C68.0052 24.8438 68.4115 24.6667 68.8906 24.5469C69.3698 24.4219 69.9167 24.3594 70.5312 24.3594H72.0078ZM77.4844 22.6562V29.5H75.6016V21.0469H77.3984L77.4844 22.6562ZM80.0703 20.9922L80.0547 22.7422C79.9401 22.7214 79.8151 22.7057 79.6797 22.6953C79.5495 22.6849 79.4193 22.6797 79.2891 22.6797C78.9661 22.6797 78.6823 22.7266 78.4375 22.8203C78.1927 22.9089 77.987 23.0391 77.8203 23.2109C77.6589 23.3776 77.5339 23.5807 77.4453 23.8203C77.3568 24.0599 77.3047 24.3281 77.2891 24.625L76.8594 24.6562C76.8594 24.125 76.9115 23.6328 77.0156 23.1797C77.1198 22.7266 77.276 22.3281 77.4844 21.9844C77.6979 21.6406 77.9635 21.3724 78.2812 21.1797C78.6042 20.987 78.9766 20.8906 79.3984 20.8906C79.513 20.8906 79.6354 20.901 79.7656 20.9219C79.901 20.9427 80.0026 20.9661 80.0703 20.9922ZM83.1484 17.5V29.5H81.2578V17.5H83.1484ZM88.3984 21.0469L84.7188 25.125L82.7031 27.1875L82.2109 25.5938L83.7344 23.7109L86.125 21.0469H88.3984ZM86.5312 29.5L83.7891 25.5312L84.9766 24.2109L88.7109 29.5H86.5312ZM93.1641 29.6562C92.5391 29.6562 91.974 29.5547 91.4688 29.3516C90.9688 29.1432 90.5417 28.8542 90.1875 28.4844C89.8385 28.1146 89.5703 27.6797 89.3828 27.1797C89.1953 26.6797 89.1016 26.1406 89.1016 25.5625V25.25C89.1016 24.5885 89.1979 23.9896 89.3906 23.4531C89.5833 22.9167 89.8516 22.4583 90.1953 22.0781C90.5391 21.6927 90.9453 21.3984 91.4141 21.1953C91.8828 20.9922 92.3906 20.8906 92.9375 20.8906C93.5417 20.8906 94.0703 20.9922 94.5234 21.1953C94.9766 21.3984 95.3516 21.6849 95.6484 22.0547C95.9505 22.4193 96.1745 22.8542 96.3203 23.3594C96.4714 23.8646 96.5469 24.4219 96.5469 25.0312V25.8359H90.0156V24.4844H94.6875V24.3359C94.6771 23.9974 94.6094 23.6797 94.4844 23.3828C94.3646 23.0859 94.1797 22.8464 93.9297 22.6641C93.6797 22.4818 93.3464 22.3906 92.9297 22.3906C92.6172 22.3906 92.3385 22.4583 92.0938 22.5938C91.8542 22.724 91.6536 22.9141 91.4922 23.1641C91.3307 23.4141 91.2057 23.7161 91.1172 24.0703C91.0339 24.4193 90.9922 24.8125 90.9922 25.25V25.5625C90.9922 25.9323 91.0417 26.276 91.1406 26.5938C91.2448 26.9062 91.3958 27.1797 91.5938 27.4141C91.7917 27.6484 92.0312 27.8333 92.3125 27.9688C92.5938 28.099 92.9141 28.1641 93.2734 28.1641C93.7266 28.1641 94.1302 28.0729 94.4844 27.8906C94.8385 27.7083 95.1458 27.4505 95.4062 27.1172L96.3984 28.0781C96.2161 28.3438 95.9792 28.599 95.6875 28.8438C95.3958 29.0833 95.0391 29.2786 94.6172 29.4297C94.2005 29.5807 93.7161 29.6562 93.1641 29.6562ZM101.891 21.0469V22.4219H97.125V21.0469H101.891ZM98.5 18.9766H100.383V27.1641C100.383 27.4245 100.419 27.625 100.492 27.7656C100.57 27.901 100.677 27.9922 100.812 28.0391C100.948 28.0859 101.107 28.1094 101.289 28.1094C101.419 28.1094 101.544 28.1016 101.664 28.0859C101.784 28.0703 101.88 28.0547 101.953 28.0391L101.961 29.4766C101.805 29.5234 101.622 29.5651 101.414 29.6016C101.211 29.638 100.977 29.6562 100.711 29.6562C100.279 29.6562 99.8958 29.5807 99.5625 29.4297C99.2292 29.2734 98.9688 29.0208 98.7812 28.6719C98.5938 28.3229 98.5 27.8594 98.5 27.2812V18.9766ZM105.359 21.0469V29.5H103.469V21.0469H105.359ZM103.344 18.8281C103.344 18.5417 103.438 18.3047 103.625 18.1172C103.818 17.9245 104.083 17.8281 104.422 17.8281C104.755 17.8281 105.018 17.9245 105.211 18.1172C105.404 18.3047 105.5 18.5417 105.5 18.8281C105.5 19.1094 105.404 19.3438 105.211 19.5312C105.018 19.7188 104.755 19.8125 104.422 19.8125C104.083 19.8125 103.818 19.7188 103.625 19.5312C103.438 19.3438 103.344 19.1094 103.344 18.8281ZM109.289 22.8516V29.5H107.406V21.0469H109.18L109.289 22.8516ZM108.953 24.9609L108.344 24.9531C108.349 24.3542 108.432 23.8047 108.594 23.3047C108.76 22.8047 108.99 22.375 109.281 22.0156C109.578 21.6562 109.932 21.3802 110.344 21.1875C110.755 20.9896 111.214 20.8906 111.719 20.8906C112.125 20.8906 112.492 20.9479 112.82 21.0625C113.154 21.1719 113.438 21.3516 113.672 21.6016C113.911 21.8516 114.094 22.1771 114.219 22.5781C114.344 22.974 114.406 23.4609 114.406 24.0391V29.5H112.516V24.0312C112.516 23.625 112.456 23.3047 112.336 23.0703C112.221 22.8307 112.052 22.6615 111.828 22.5625C111.609 22.4583 111.336 22.4062 111.008 22.4062C110.685 22.4062 110.396 22.474 110.141 22.6094C109.885 22.7448 109.669 22.9297 109.492 23.1641C109.32 23.3984 109.188 23.6693 109.094 23.9766C109 24.2839 108.953 24.612 108.953 24.9609ZM121.742 21.0469H123.453V29.2656C123.453 30.026 123.292 30.6719 122.969 31.2031C122.646 31.7344 122.195 32.138 121.617 32.4141C121.039 32.6953 120.37 32.8359 119.609 32.8359C119.286 32.8359 118.927 32.7891 118.531 32.6953C118.141 32.6016 117.76 32.4505 117.391 32.2422C117.026 32.0391 116.721 31.7708 116.477 31.4375L117.359 30.3281C117.661 30.6875 117.995 30.9505 118.359 31.1172C118.724 31.2839 119.107 31.3672 119.508 31.3672C119.94 31.3672 120.307 31.2865 120.609 31.125C120.917 30.9688 121.154 30.737 121.32 30.4297C121.487 30.1224 121.57 29.7474 121.57 29.3047V22.9609L121.742 21.0469ZM116 25.3672V25.2031C116 24.5625 116.078 23.9792 116.234 23.4531C116.391 22.9219 116.615 22.4661 116.906 22.0859C117.198 21.7005 117.552 21.4062 117.969 21.2031C118.385 20.9948 118.857 20.8906 119.383 20.8906C119.93 20.8906 120.396 20.9896 120.781 21.1875C121.172 21.3854 121.497 21.6693 121.758 22.0391C122.018 22.4036 122.221 22.8411 122.367 23.3516C122.518 23.8568 122.63 24.4193 122.703 25.0391V25.5625C122.635 26.1667 122.521 26.7188 122.359 27.2188C122.198 27.7188 121.984 28.151 121.719 28.5156C121.453 28.8802 121.125 29.1615 120.734 29.3594C120.349 29.5573 119.893 29.6562 119.367 29.6562C118.852 29.6562 118.385 29.5495 117.969 29.3359C117.557 29.1224 117.203 28.8229 116.906 28.4375C116.615 28.0521 116.391 27.599 116.234 27.0781C116.078 26.5521 116 25.9818 116 25.3672ZM117.883 25.2031V25.3672C117.883 25.7526 117.919 26.112 117.992 26.4453C118.07 26.7786 118.188 27.0729 118.344 27.3281C118.505 27.5781 118.708 27.776 118.953 27.9219C119.203 28.0625 119.497 28.1328 119.836 28.1328C120.279 28.1328 120.641 28.0391 120.922 27.8516C121.208 27.6641 121.427 27.4115 121.578 27.0938C121.734 26.7708 121.844 26.4115 121.906 26.0156V24.6016C121.875 24.2943 121.81 24.0078 121.711 23.7422C121.617 23.4766 121.49 23.2448 121.328 23.0469C121.167 22.8438 120.964 22.6875 120.719 22.5781C120.474 22.4635 120.185 22.4062 119.852 22.4062C119.513 22.4062 119.219 22.4792 118.969 22.625C118.719 22.7708 118.513 22.9714 118.352 23.2266C118.195 23.4818 118.078 23.7786 118 24.1172C117.922 24.4557 117.883 24.8177 117.883 25.2031Z" fill="#61308C"/>
</svg>
