<svg width="288" height="48" viewBox="0 0 288 48" fill="none" xmlns="http://www.w3.org/2000/svg">
<path d="M36.5 31.5V27C36.5 26.5333 36.5 26.2999 36.4092 26.1217C36.3293 25.9649 36.2018 25.8374 36.045 25.7575C35.8667 25.6667 35.6334 25.6667 35.1667 25.6667H32.8333C32.3666 25.6667 32.1333 25.6667 31.955 25.7575C31.7982 25.8374 31.6707 25.9649 31.5908 26.1217C31.5 26.2999 31.5 26.5333 31.5 27V31.5M26.5 19.8333C26.5 21.214 27.6193 22.3333 29 22.3333C30.3807 22.3333 31.5 21.214 31.5 19.8333C31.5 21.214 32.6193 22.3333 34 22.3333C35.3807 22.3333 36.5 21.214 36.5 19.8333C36.5 21.214 37.6193 22.3333 39 22.3333C40.3807 22.3333 41.5 21.214 41.5 19.8333M29.1667 31.5H38.8333C39.7668 31.5 40.2335 31.5 40.59 31.3183C40.9036 31.1586 41.1586 30.9036 41.3183 30.59C41.5 30.2335 41.5 29.7668 41.5 28.8333V19.1667C41.5 18.2332 41.5 17.7665 41.3183 17.41C41.1586 17.0964 40.9036 16.8414 40.59 16.6817C40.2335 16.5 39.7668 16.5 38.8333 16.5H29.1667C28.2332 16.5 27.7665 16.5 27.41 16.6817C27.0964 16.8414 26.8414 17.0964 26.6817 17.41C26.5 17.7665 26.5 18.2332 26.5 19.1667V28.8333C26.5 29.7668 26.5 30.2335 26.6817 30.59C26.8414 30.9036 27.0964 31.1586 27.41 31.3183C27.7665 31.5 28.2332 31.5 29.1667 31.5Z" stroke="#61308C" stroke-width="2" stroke-linecap="round" stroke-linejoin="round"/>
<path d="M53.9531 18.125H55.7031L58.9922 26.8984L62.2734 18.125H64.0234L59.6797 29.5H58.2891L53.9531 18.125ZM53.1562 18.125H54.8203L55.1094 25.7188V29.5H53.1562V18.125ZM63.1562 18.125H64.8281V29.5H62.8672V25.7188L63.1562 18.125ZM70.6953 29.6562C70.0703 29.6562 69.5052 29.5547 69 29.3516C68.5 29.1432 68.0729 28.8542 67.7188 28.4844C67.3698 28.1146 67.1016 27.6797 66.9141 27.1797C66.7266 26.6797 66.6328 26.1406 66.6328 25.5625V25.25C66.6328 24.5885 66.7292 23.9896 66.9219 23.4531C67.1146 22.9167 67.3828 22.4583 67.7266 22.0781C68.0703 21.6927 68.4766 21.3984 68.9453 21.1953C69.4141 20.9922 69.9219 20.8906 70.4688 20.8906C71.0729 20.8906 71.6016 20.9922 72.0547 21.1953C72.5078 21.3984 72.8828 21.6849 73.1797 22.0547C73.4818 22.4193 73.7057 22.8542 73.8516 23.3594C74.0026 23.8646 74.0781 24.4219 74.0781 25.0312V25.8359H67.5469V24.4844H72.2188V24.3359C72.2083 23.9974 72.1406 23.6797 72.0156 23.3828C71.8958 23.0859 71.7109 22.8464 71.4609 22.6641C71.2109 22.4818 70.8776 22.3906 70.4609 22.3906C70.1484 22.3906 69.8698 22.4583 69.625 22.5938C69.3854 22.724 69.1849 22.9141 69.0234 23.1641C68.862 23.4141 68.737 23.7161 68.6484 24.0703C68.5651 24.4193 68.5234 24.8125 68.5234 25.25V25.5625C68.5234 25.9323 68.5729 26.276 68.6719 26.5938C68.776 26.9062 68.9271 27.1797 69.125 27.4141C69.3229 27.6484 69.5625 27.8333 69.8438 27.9688C70.125 28.099 70.4453 28.1641 70.8047 28.1641C71.2578 28.1641 71.6615 28.0729 72.0156 27.8906C72.3698 27.7083 72.6771 27.4505 72.9375 27.1172L73.9297 28.0781C73.7474 28.3438 73.5104 28.599 73.2188 28.8438C72.9271 29.0833 72.5703 29.2786 72.1484 29.4297C71.7318 29.5807 71.2474 29.6562 70.6953 29.6562ZM77.4375 22.6562V29.5H75.5547V21.0469H77.3516L77.4375 22.6562ZM80.0234 20.9922L80.0078 22.7422C79.8932 22.7214 79.7682 22.7057 79.6328 22.6953C79.5026 22.6849 79.3724 22.6797 79.2422 22.6797C78.9193 22.6797 78.6354 22.7266 78.3906 22.8203C78.1458 22.9089 77.9401 23.0391 77.7734 23.2109C77.612 23.3776 77.487 23.5807 77.3984 23.8203C77.3099 24.0599 77.2578 24.3281 77.2422 24.625L76.8125 24.6562C76.8125 24.125 76.8646 23.6328 76.9688 23.1797C77.0729 22.7266 77.2292 22.3281 77.4375 21.9844C77.651 21.6406 77.9167 21.3724 78.2344 21.1797C78.5573 20.987 78.9297 20.8906 79.3516 20.8906C79.4661 20.8906 79.5885 20.901 79.7188 20.9219C79.8542 20.9427 79.9557 20.9661 80.0234 20.9922ZM84.5 28.1562C84.8073 28.1562 85.0833 28.0964 85.3281 27.9766C85.5781 27.8516 85.7786 27.6797 85.9297 27.4609C86.0859 27.2422 86.1719 26.9896 86.1875 26.7031H87.9609C87.9505 27.25 87.7891 27.7474 87.4766 28.1953C87.1641 28.6432 86.75 29 86.2344 29.2656C85.7188 29.526 85.1484 29.6562 84.5234 29.6562C83.8776 29.6562 83.3151 29.5469 82.8359 29.3281C82.3568 29.1042 81.9583 28.7969 81.6406 28.4062C81.3229 28.0156 81.0833 27.5651 80.9219 27.0547C80.7656 26.5443 80.6875 25.9974 80.6875 25.4141V25.1406C80.6875 24.5573 80.7656 24.0104 80.9219 23.5C81.0833 22.9844 81.3229 22.5312 81.6406 22.1406C81.9583 21.75 82.3568 21.4453 82.8359 21.2266C83.3151 21.0026 83.875 20.8906 84.5156 20.8906C85.1927 20.8906 85.7865 21.026 86.2969 21.2969C86.8073 21.5625 87.2083 21.9349 87.5 22.4141C87.7969 22.888 87.9505 23.4401 87.9609 24.0703H86.1875C86.1719 23.7578 86.0938 23.4766 85.9531 23.2266C85.8177 22.9714 85.625 22.7682 85.375 22.6172C85.1302 22.4661 84.8359 22.3906 84.4922 22.3906C84.112 22.3906 83.7969 22.4688 83.5469 22.625C83.2969 22.776 83.1016 22.9844 82.9609 23.25C82.8203 23.5104 82.7188 23.8047 82.6562 24.1328C82.599 24.4557 82.5703 24.7917 82.5703 25.1406V25.4141C82.5703 25.763 82.599 26.1016 82.6562 26.4297C82.7135 26.7578 82.8125 27.0521 82.9531 27.3125C83.099 27.5677 83.2969 27.7734 83.5469 27.9297C83.7969 28.0807 84.1146 28.1562 84.5 28.1562ZM91.2656 17.5V29.5H89.3906V17.5H91.2656ZM90.9375 24.9609L90.3281 24.9531C90.3333 24.3698 90.4141 23.8307 90.5703 23.3359C90.7318 22.8411 90.9557 22.4115 91.2422 22.0469C91.5339 21.6771 91.8828 21.3932 92.2891 21.1953C92.6953 20.9922 93.1458 20.8906 93.6406 20.8906C94.0573 20.8906 94.4323 20.9479 94.7656 21.0625C95.1042 21.1771 95.3958 21.362 95.6406 21.6172C95.8854 21.8672 96.0703 22.1953 96.1953 22.6016C96.3255 23.0026 96.3906 23.4922 96.3906 24.0703V29.5H94.5V24.0547C94.5 23.6484 94.4401 23.3255 94.3203 23.0859C94.2057 22.8464 94.0365 22.6745 93.8125 22.5703C93.5885 22.4609 93.3151 22.4062 92.9922 22.4062C92.6536 22.4062 92.3542 22.474 92.0938 22.6094C91.8385 22.7448 91.625 22.9297 91.4531 23.1641C91.2812 23.3984 91.151 23.6693 91.0625 23.9766C90.9792 24.2839 90.9375 24.612 90.9375 24.9609ZM103.062 27.8047V23.7734C103.062 23.4714 103.008 23.2109 102.898 22.9922C102.789 22.7734 102.622 22.6042 102.398 22.4844C102.18 22.3646 101.904 22.3047 101.57 22.3047C101.263 22.3047 100.997 22.3568 100.773 22.4609C100.549 22.5651 100.375 22.7057 100.25 22.8828C100.125 23.0599 100.062 23.2604 100.062 23.4844H98.1875C98.1875 23.151 98.2682 22.8281 98.4297 22.5156C98.5911 22.2031 98.8255 21.9245 99.1328 21.6797C99.4401 21.4349 99.8073 21.2422 100.234 21.1016C100.661 20.9609 101.141 20.8906 101.672 20.8906C102.307 20.8906 102.87 20.9974 103.359 21.2109C103.854 21.4245 104.242 21.7474 104.523 22.1797C104.81 22.6068 104.953 23.1432 104.953 23.7891V27.5469C104.953 27.9323 104.979 28.2786 105.031 28.5859C105.089 28.888 105.169 29.151 105.273 29.375V29.5H103.344C103.255 29.2969 103.185 29.0391 103.133 28.7266C103.086 28.4089 103.062 28.1016 103.062 27.8047ZM103.336 24.3594L103.352 25.5234H102C101.651 25.5234 101.344 25.5573 101.078 25.625C100.812 25.6875 100.591 25.7812 100.414 25.9062C100.237 26.0312 100.104 26.1823 100.016 26.3594C99.9271 26.5365 99.8828 26.737 99.8828 26.9609C99.8828 27.1849 99.9349 27.3906 100.039 27.5781C100.143 27.7604 100.294 27.9036 100.492 28.0078C100.695 28.112 100.94 28.1641 101.227 28.1641C101.612 28.1641 101.948 28.0859 102.234 27.9297C102.526 27.7682 102.755 27.5729 102.922 27.3438C103.089 27.1094 103.177 26.888 103.188 26.6797L103.797 27.5156C103.734 27.7292 103.628 27.9583 103.477 28.2031C103.326 28.4479 103.128 28.6823 102.883 28.9062C102.643 29.125 102.354 29.3047 102.016 29.4453C101.682 29.5859 101.297 29.6562 100.859 29.6562C100.307 29.6562 99.8151 29.5469 99.3828 29.3281C98.9505 29.1042 98.612 28.8047 98.3672 28.4297C98.1224 28.0495 98 27.6198 98 27.1406C98 26.6927 98.0833 26.2969 98.25 25.9531C98.4219 25.6042 98.6719 25.3125 99 25.0781C99.3333 24.8438 99.7396 24.6667 100.219 24.5469C100.698 24.4219 101.245 24.3594 101.859 24.3594H103.336ZM108.789 22.8516V29.5H106.906V21.0469H108.68L108.789 22.8516ZM108.453 24.9609L107.844 24.9531C107.849 24.3542 107.932 23.8047 108.094 23.3047C108.26 22.8047 108.49 22.375 108.781 22.0156C109.078 21.6562 109.432 21.3802 109.844 21.1875C110.255 20.9896 110.714 20.8906 111.219 20.8906C111.625 20.8906 111.992 20.9479 112.32 21.0625C112.654 21.1719 112.938 21.3516 113.172 21.6016C113.411 21.8516 113.594 22.1771 113.719 22.5781C113.844 22.974 113.906 23.4609 113.906 24.0391V29.5H112.016V24.0312C112.016 23.625 111.956 23.3047 111.836 23.0703C111.721 22.8307 111.552 22.6615 111.328 22.5625C111.109 22.4583 110.836 22.4062 110.508 22.4062C110.185 22.4062 109.896 22.474 109.641 22.6094C109.385 22.7448 109.169 22.9297 108.992 23.1641C108.82 23.3984 108.688 23.6693 108.594 23.9766C108.5 24.2839 108.453 24.612 108.453 24.9609ZM119.703 21.0469V22.4219H114.938V21.0469H119.703ZM116.312 18.9766H118.195V27.1641C118.195 27.4245 118.232 27.625 118.305 27.7656C118.383 27.901 118.49 27.9922 118.625 28.0391C118.76 28.0859 118.919 28.1094 119.102 28.1094C119.232 28.1094 119.357 28.1016 119.477 28.0859C119.596 28.0703 119.693 28.0547 119.766 28.0391L119.773 29.4766C119.617 29.5234 119.435 29.5651 119.227 29.6016C119.023 29.638 118.789 29.6562 118.523 29.6562C118.091 29.6562 117.708 29.5807 117.375 29.4297C117.042 29.2734 116.781 29.0208 116.594 28.6719C116.406 28.3229 116.312 27.8594 116.312 27.2812V18.9766Z" fill="#61308C"/>
</svg>
