<svg width="288" height="48" viewBox="0 0 288 48" fill="none" xmlns="http://www.w3.org/2000/svg">
<path d="M38.1626 17.3333H29.8292C26.6376 17.3333 25.7459 18.1 25.6709 21.0833C27.2792 21.0833 28.5792 22.3917 28.5792 24C28.5792 25.6083 27.2792 26.9083 25.6709 26.9167C25.7459 29.9 26.6376 30.6667 29.8292 30.6667H38.1626C41.4959 30.6667 42.3292 29.8333 42.3292 26.5V21.5C42.3292 18.1667 41.4959 17.3333 38.1626 17.3333Z" stroke="#61308C" stroke-width="2" stroke-linecap="round" stroke-linejoin="round"/>
<path d="M31.4946 17.3333V20.25" stroke="#61308C" stroke-width="2" stroke-linecap="round" stroke-linejoin="round"/>
<path d="M31.4946 27.75V30.6667" stroke="#61308C" stroke-width="2" stroke-linecap="round" stroke-linejoin="round"/>
<path d="M36.521 21.775L37.0377 22.8167C37.0877 22.9167 37.1877 22.9917 37.296 23.0083L38.446 23.175C38.7293 23.2167 38.846 23.5667 38.6377 23.7667L37.8043 24.575C37.721 24.65 37.6877 24.7667 37.7043 24.8833L37.9043 26.025C37.9543 26.3083 37.6543 26.525 37.4043 26.3917L36.3793 25.85C36.2793 25.8 36.1543 25.8 36.0543 25.85L35.0293 26.3917C34.771 26.525 34.4793 26.3083 34.5293 26.025L34.7293 24.8833C34.746 24.7667 34.7127 24.6583 34.6293 24.575L33.8043 23.7667C33.596 23.5667 33.7127 23.2167 33.996 23.175L35.146 23.0083C35.2627 22.9917 35.3543 22.925 35.4043 22.8167L35.9127 21.775C36.0293 21.5167 36.396 21.5167 36.521 21.775Z" fill="#61308C" stroke="#61308C" stroke-linecap="round" stroke-linejoin="round"/>
<path d="M59.1406 26.5703C59.1406 26.3359 59.1042 26.1276 59.0312 25.9453C58.9635 25.763 58.8411 25.5964 58.6641 25.4453C58.487 25.2943 58.237 25.1484 57.9141 25.0078C57.5964 24.862 57.1901 24.7135 56.6953 24.5625C56.1536 24.3958 55.6536 24.2109 55.1953 24.0078C54.7422 23.7995 54.3464 23.5599 54.0078 23.2891C53.6693 23.013 53.4062 22.6979 53.2188 22.3438C53.0312 21.9844 52.9375 21.5703 52.9375 21.1016C52.9375 20.638 53.0339 20.2161 53.2266 19.8359C53.4245 19.4557 53.7031 19.1276 54.0625 18.8516C54.4271 18.5703 54.8568 18.3542 55.3516 18.2031C55.8464 18.0469 56.3932 17.9688 56.9922 17.9688C57.8359 17.9688 58.5625 18.125 59.1719 18.4375C59.7865 18.75 60.2578 19.1693 60.5859 19.6953C60.9193 20.2214 61.0859 20.8021 61.0859 21.4375H59.1406C59.1406 21.0625 59.0599 20.7318 58.8984 20.4453C58.7422 20.1536 58.5026 19.9245 58.1797 19.7578C57.862 19.5911 57.4583 19.5078 56.9688 19.5078C56.5052 19.5078 56.1198 19.5781 55.8125 19.7188C55.5052 19.8594 55.276 20.0495 55.125 20.2891C54.974 20.5286 54.8984 20.7995 54.8984 21.1016C54.8984 21.3151 54.9479 21.5104 55.0469 21.6875C55.1458 21.8594 55.2969 22.0208 55.5 22.1719C55.7031 22.3177 55.9583 22.4557 56.2656 22.5859C56.5729 22.7161 56.9349 22.8411 57.3516 22.9609C57.9818 23.1484 58.5312 23.3568 59 23.5859C59.4688 23.8099 59.8594 24.0651 60.1719 24.3516C60.4844 24.638 60.7188 24.9635 60.875 25.3281C61.0312 25.6875 61.1094 26.0964 61.1094 26.5547C61.1094 27.0339 61.013 27.4661 60.8203 27.8516C60.6276 28.2318 60.3516 28.5573 59.9922 28.8281C59.638 29.0938 59.2109 29.2995 58.7109 29.4453C58.2161 29.5859 57.6641 29.6562 57.0547 29.6562C56.5078 29.6562 55.9688 29.5833 55.4375 29.4375C54.9115 29.2917 54.4323 29.0703 54 28.7734C53.5677 28.4714 53.224 28.0964 52.9688 27.6484C52.7135 27.1953 52.5859 26.6667 52.5859 26.0625H54.5469C54.5469 26.4323 54.6094 26.7474 54.7344 27.0078C54.8646 27.2682 55.0443 27.4818 55.2734 27.6484C55.5026 27.8099 55.7682 27.9297 56.0703 28.0078C56.3776 28.0859 56.7057 28.125 57.0547 28.125C57.513 28.125 57.8958 28.0599 58.2031 27.9297C58.5156 27.7995 58.75 27.6172 58.9062 27.3828C59.0625 27.1484 59.1406 26.8776 59.1406 26.5703ZM66.5312 21.0469V22.4219H61.7656V21.0469H66.5312ZM63.1406 18.9766H65.0234V27.1641C65.0234 27.4245 65.0599 27.625 65.1328 27.7656C65.2109 27.901 65.3177 27.9922 65.4531 28.0391C65.5885 28.0859 65.7474 28.1094 65.9297 28.1094C66.0599 28.1094 66.1849 28.1016 66.3047 28.0859C66.4245 28.0703 66.5208 28.0547 66.5938 28.0391L66.6016 29.4766C66.4453 29.5234 66.263 29.5651 66.0547 29.6016C65.8516 29.638 65.6172 29.6562 65.3516 29.6562C64.9193 29.6562 64.5365 29.5807 64.2031 29.4297C63.8698 29.2734 63.6094 29.0208 63.4219 28.6719C63.2344 28.3229 63.1406 27.8594 63.1406 27.2812V18.9766ZM72.75 27.8047V23.7734C72.75 23.4714 72.6953 23.2109 72.5859 22.9922C72.4766 22.7734 72.3099 22.6042 72.0859 22.4844C71.8672 22.3646 71.5911 22.3047 71.2578 22.3047C70.9505 22.3047 70.6849 22.3568 70.4609 22.4609C70.237 22.5651 70.0625 22.7057 69.9375 22.8828C69.8125 23.0599 69.75 23.2604 69.75 23.4844H67.875C67.875 23.151 67.9557 22.8281 68.1172 22.5156C68.2786 22.2031 68.513 21.9245 68.8203 21.6797C69.1276 21.4349 69.4948 21.2422 69.9219 21.1016C70.349 20.9609 70.8281 20.8906 71.3594 20.8906C71.9948 20.8906 72.5573 20.9974 73.0469 21.2109C73.5417 21.4245 73.9297 21.7474 74.2109 22.1797C74.4974 22.6068 74.6406 23.1432 74.6406 23.7891V27.5469C74.6406 27.9323 74.6667 28.2786 74.7188 28.5859C74.776 28.888 74.8568 29.151 74.9609 29.375V29.5H73.0312C72.9427 29.2969 72.8724 29.0391 72.8203 28.7266C72.7734 28.4089 72.75 28.1016 72.75 27.8047ZM73.0234 24.3594L73.0391 25.5234H71.6875C71.3385 25.5234 71.0312 25.5573 70.7656 25.625C70.5 25.6875 70.2786 25.7812 70.1016 25.9062C69.9245 26.0312 69.7917 26.1823 69.7031 26.3594C69.6146 26.5365 69.5703 26.737 69.5703 26.9609C69.5703 27.1849 69.6224 27.3906 69.7266 27.5781C69.8307 27.7604 69.9818 27.9036 70.1797 28.0078C70.3828 28.112 70.6276 28.1641 70.9141 28.1641C71.2995 28.1641 71.6354 28.0859 71.9219 27.9297C72.2135 27.7682 72.4427 27.5729 72.6094 27.3438C72.776 27.1094 72.8646 26.888 72.875 26.6797L73.4844 27.5156C73.4219 27.7292 73.3151 27.9583 73.1641 28.2031C73.013 28.4479 72.8151 28.6823 72.5703 28.9062C72.3307 29.125 72.0417 29.3047 71.7031 29.4453C71.3698 29.5859 70.9844 29.6562 70.5469 29.6562C69.9948 29.6562 69.5026 29.5469 69.0703 29.3281C68.638 29.1042 68.2995 28.8047 68.0547 28.4297C67.8099 28.0495 67.6875 27.6198 67.6875 27.1406C67.6875 26.6927 67.7708 26.2969 67.9375 25.9531C68.1094 25.6042 68.3594 25.3125 68.6875 25.0781C69.0208 24.8438 69.4271 24.6667 69.9062 24.5469C70.3854 24.4219 70.9323 24.3594 71.5469 24.3594H73.0234ZM78.5 22.6562V29.5H76.6172V21.0469H78.4141L78.5 22.6562ZM81.0859 20.9922L81.0703 22.7422C80.9557 22.7214 80.8307 22.7057 80.6953 22.6953C80.5651 22.6849 80.4349 22.6797 80.3047 22.6797C79.9818 22.6797 79.6979 22.7266 79.4531 22.8203C79.2083 22.9089 79.0026 23.0391 78.8359 23.2109C78.6745 23.3776 78.5495 23.5807 78.4609 23.8203C78.3724 24.0599 78.3203 24.3281 78.3047 24.625L77.875 24.6562C77.875 24.125 77.9271 23.6328 78.0312 23.1797C78.1354 22.7266 78.2917 22.3281 78.5 21.9844C78.7135 21.6406 78.9792 21.3724 79.2969 21.1797C79.6198 20.987 79.9922 20.8906 80.4141 20.8906C80.5286 20.8906 80.651 20.901 80.7812 20.9219C80.9167 20.9427 81.0182 20.9661 81.0859 20.9922ZM86.3516 27.4219L89.3438 18.125H91.5078L87.4297 29.5H85.9688L86.3516 27.4219ZM83.5859 18.125L86.5547 27.4219L86.9609 29.5H85.4922L81.4297 18.125H83.5859ZM91.875 25.3672V25.1875C91.875 24.5781 91.9635 24.013 92.1406 23.4922C92.3177 22.9661 92.5729 22.5104 92.9062 22.125C93.2448 21.7344 93.6562 21.4323 94.1406 21.2188C94.6302 21 95.1823 20.8906 95.7969 20.8906C96.4167 20.8906 96.9688 21 97.4531 21.2188C97.9427 21.4323 98.3568 21.7344 98.6953 22.125C99.0339 22.5104 99.2917 22.9661 99.4688 23.4922C99.6458 24.013 99.7344 24.5781 99.7344 25.1875V25.3672C99.7344 25.9766 99.6458 26.5417 99.4688 27.0625C99.2917 27.5833 99.0339 28.0391 98.6953 28.4297C98.3568 28.8151 97.9453 29.1172 97.4609 29.3359C96.9766 29.5495 96.4271 29.6562 95.8125 29.6562C95.1927 29.6562 94.638 29.5495 94.1484 29.3359C93.6641 29.1172 93.2526 28.8151 92.9141 28.4297C92.5755 28.0391 92.3177 27.5833 92.1406 27.0625C91.9635 26.5417 91.875 25.9766 91.875 25.3672ZM93.7578 25.1875V25.3672C93.7578 25.7474 93.7969 26.1068 93.875 26.4453C93.9531 26.7839 94.0755 27.0807 94.2422 27.3359C94.4089 27.5911 94.6224 27.7917 94.8828 27.9375C95.1432 28.0833 95.4531 28.1562 95.8125 28.1562C96.1615 28.1562 96.4635 28.0833 96.7188 27.9375C96.9792 27.7917 97.1927 27.5911 97.3594 27.3359C97.526 27.0807 97.6484 26.7839 97.7266 26.4453C97.8099 26.1068 97.8516 25.7474 97.8516 25.3672V25.1875C97.8516 24.8125 97.8099 24.4583 97.7266 24.125C97.6484 23.7865 97.5234 23.487 97.3516 23.2266C97.1849 22.9661 96.9714 22.763 96.7109 22.6172C96.4557 22.4661 96.151 22.3906 95.7969 22.3906C95.4427 22.3906 95.1354 22.4661 94.875 22.6172C94.6198 22.763 94.4089 22.9661 94.2422 23.2266C94.0755 23.487 93.9531 23.7865 93.875 24.125C93.7969 24.4583 93.7578 24.8125 93.7578 25.1875ZM106.398 27.5078V21.0469H108.289V29.5H106.508L106.398 27.5078ZM106.664 25.75L107.297 25.7344C107.297 26.3021 107.234 26.8255 107.109 27.3047C106.984 27.7786 106.792 28.1927 106.531 28.5469C106.271 28.8958 105.938 29.1693 105.531 29.3672C105.125 29.5599 104.638 29.6562 104.07 29.6562C103.659 29.6562 103.281 29.5964 102.938 29.4766C102.594 29.3568 102.297 29.1719 102.047 28.9219C101.802 28.6719 101.612 28.3464 101.477 27.9453C101.341 27.5443 101.273 27.0651 101.273 26.5078V21.0469H103.156V26.5234C103.156 26.8307 103.193 27.0885 103.266 27.2969C103.339 27.5 103.438 27.6641 103.562 27.7891C103.688 27.9141 103.833 28.0026 104 28.0547C104.167 28.1068 104.344 28.1328 104.531 28.1328C105.068 28.1328 105.49 28.0286 105.797 27.8203C106.109 27.6068 106.331 27.3203 106.461 26.9609C106.596 26.6016 106.664 26.1979 106.664 25.75ZM113.672 28.1562C113.979 28.1562 114.255 28.0964 114.5 27.9766C114.75 27.8516 114.951 27.6797 115.102 27.4609C115.258 27.2422 115.344 26.9896 115.359 26.7031H117.133C117.122 27.25 116.961 27.7474 116.648 28.1953C116.336 28.6432 115.922 29 115.406 29.2656C114.891 29.526 114.32 29.6562 113.695 29.6562C113.049 29.6562 112.487 29.5469 112.008 29.3281C111.529 29.1042 111.13 28.7969 110.812 28.4062C110.495 28.0156 110.255 27.5651 110.094 27.0547C109.938 26.5443 109.859 25.9974 109.859 25.4141V25.1406C109.859 24.5573 109.938 24.0104 110.094 23.5C110.255 22.9844 110.495 22.5312 110.812 22.1406C111.13 21.75 111.529 21.4453 112.008 21.2266C112.487 21.0026 113.047 20.8906 113.688 20.8906C114.365 20.8906 114.958 21.026 115.469 21.2969C115.979 21.5625 116.38 21.9349 116.672 22.4141C116.969 22.888 117.122 23.4401 117.133 24.0703H115.359C115.344 23.7578 115.266 23.4766 115.125 23.2266C114.99 22.9714 114.797 22.7682 114.547 22.6172C114.302 22.4661 114.008 22.3906 113.664 22.3906C113.284 22.3906 112.969 22.4688 112.719 22.625C112.469 22.776 112.273 22.9844 112.133 23.25C111.992 23.5104 111.891 23.8047 111.828 24.1328C111.771 24.4557 111.742 24.7917 111.742 25.1406V25.4141C111.742 25.763 111.771 26.1016 111.828 26.4297C111.885 26.7578 111.984 27.0521 112.125 27.3125C112.271 27.5677 112.469 27.7734 112.719 27.9297C112.969 28.0807 113.286 28.1562 113.672 28.1562ZM120.438 17.5V29.5H118.562V17.5H120.438ZM120.109 24.9609L119.5 24.9531C119.505 24.3698 119.586 23.8307 119.742 23.3359C119.904 22.8411 120.128 22.4115 120.414 22.0469C120.706 21.6771 121.055 21.3932 121.461 21.1953C121.867 20.9922 122.318 20.8906 122.812 20.8906C123.229 20.8906 123.604 20.9479 123.938 21.0625C124.276 21.1771 124.568 21.362 124.812 21.6172C125.057 21.8672 125.242 22.1953 125.367 22.6016C125.497 23.0026 125.562 23.4922 125.562 24.0703V29.5H123.672V24.0547C123.672 23.6484 123.612 23.3255 123.492 23.0859C123.378 22.8464 123.208 22.6745 122.984 22.5703C122.76 22.4609 122.487 22.4062 122.164 22.4062C121.826 22.4062 121.526 22.474 121.266 22.6094C121.01 22.7448 120.797 22.9297 120.625 23.1641C120.453 23.3984 120.323 23.6693 120.234 23.9766C120.151 24.2839 120.109 24.612 120.109 24.9609ZM131.195 29.6562C130.57 29.6562 130.005 29.5547 129.5 29.3516C129 29.1432 128.573 28.8542 128.219 28.4844C127.87 28.1146 127.602 27.6797 127.414 27.1797C127.227 26.6797 127.133 26.1406 127.133 25.5625V25.25C127.133 24.5885 127.229 23.9896 127.422 23.4531C127.615 22.9167 127.883 22.4583 128.227 22.0781C128.57 21.6927 128.977 21.3984 129.445 21.1953C129.914 20.9922 130.422 20.8906 130.969 20.8906C131.573 20.8906 132.102 20.9922 132.555 21.1953C133.008 21.3984 133.383 21.6849 133.68 22.0547C133.982 22.4193 134.206 22.8542 134.352 23.3594C134.503 23.8646 134.578 24.4219 134.578 25.0312V25.8359H128.047V24.4844H132.719V24.3359C132.708 23.9974 132.641 23.6797 132.516 23.3828C132.396 23.0859 132.211 22.8464 131.961 22.6641C131.711 22.4818 131.378 22.3906 130.961 22.3906C130.648 22.3906 130.37 22.4583 130.125 22.5938C129.885 22.724 129.685 22.9141 129.523 23.1641C129.362 23.4141 129.237 23.7161 129.148 24.0703C129.065 24.4193 129.023 24.8125 129.023 25.25V25.5625C129.023 25.9323 129.073 26.276 129.172 26.5938C129.276 26.9062 129.427 27.1797 129.625 27.4141C129.823 27.6484 130.062 27.8333 130.344 27.9688C130.625 28.099 130.945 28.1641 131.305 28.1641C131.758 28.1641 132.161 28.0729 132.516 27.8906C132.87 27.7083 133.177 27.4505 133.438 27.1172L134.43 28.0781C134.247 28.3438 134.01 28.599 133.719 28.8438C133.427 29.0833 133.07 29.2786 132.648 29.4297C132.232 29.5807 131.747 29.6562 131.195 29.6562ZM137.938 22.6562V29.5H136.055V21.0469H137.852L137.938 22.6562ZM140.523 20.9922L140.508 22.7422C140.393 22.7214 140.268 22.7057 140.133 22.6953C140.003 22.6849 139.872 22.6797 139.742 22.6797C139.419 22.6797 139.135 22.7266 138.891 22.8203C138.646 22.9089 138.44 23.0391 138.273 23.2109C138.112 23.3776 137.987 23.5807 137.898 23.8203C137.81 24.0599 137.758 24.3281 137.742 24.625L137.312 24.6562C137.312 24.125 137.365 23.6328 137.469 23.1797C137.573 22.7266 137.729 22.3281 137.938 21.9844C138.151 21.6406 138.417 21.3724 138.734 21.1797C139.057 20.987 139.43 20.8906 139.852 20.8906C139.966 20.8906 140.089 20.901 140.219 20.9219C140.354 20.9427 140.456 20.9661 140.523 20.9922ZM146.445 27.2109C146.445 27.0234 146.398 26.8542 146.305 26.7031C146.211 26.5469 146.031 26.4062 145.766 26.2812C145.505 26.1562 145.12 26.0417 144.609 25.9375C144.161 25.8385 143.75 25.7214 143.375 25.5859C143.005 25.4453 142.688 25.276 142.422 25.0781C142.156 24.8802 141.951 24.6458 141.805 24.375C141.659 24.1042 141.586 23.7917 141.586 23.4375C141.586 23.0938 141.661 22.7682 141.812 22.4609C141.964 22.1536 142.18 21.8828 142.461 21.6484C142.742 21.4141 143.083 21.2292 143.484 21.0938C143.891 20.9583 144.344 20.8906 144.844 20.8906C145.552 20.8906 146.159 21.0104 146.664 21.25C147.174 21.4844 147.565 21.8047 147.836 22.2109C148.107 22.612 148.242 23.0651 148.242 23.5703H146.359C146.359 23.3464 146.302 23.138 146.188 22.9453C146.078 22.7474 145.911 22.5885 145.688 22.4688C145.464 22.3438 145.182 22.2812 144.844 22.2812C144.521 22.2812 144.253 22.3333 144.039 22.4375C143.831 22.5365 143.674 22.6667 143.57 22.8281C143.471 22.9896 143.422 23.1667 143.422 23.3594C143.422 23.5 143.448 23.6276 143.5 23.7422C143.557 23.8516 143.651 23.9531 143.781 24.0469C143.911 24.1354 144.089 24.2188 144.312 24.2969C144.542 24.375 144.828 24.4505 145.172 24.5234C145.818 24.6589 146.372 24.8333 146.836 25.0469C147.305 25.2552 147.664 25.526 147.914 25.8594C148.164 26.1875 148.289 26.6042 148.289 27.1094C148.289 27.4844 148.208 27.8281 148.047 28.1406C147.891 28.4479 147.661 28.7161 147.359 28.9453C147.057 29.1693 146.695 29.3438 146.273 29.4688C145.857 29.5938 145.388 29.6562 144.867 29.6562C144.102 29.6562 143.453 29.5208 142.922 29.25C142.391 28.974 141.987 28.6224 141.711 28.1953C141.44 27.763 141.305 27.3151 141.305 26.8516H143.125C143.146 27.2005 143.242 27.4792 143.414 27.6875C143.591 27.8906 143.81 28.0391 144.07 28.1328C144.336 28.2214 144.609 28.2656 144.891 28.2656C145.229 28.2656 145.513 28.2214 145.742 28.1328C145.971 28.0391 146.146 27.9141 146.266 27.7578C146.385 27.5964 146.445 27.4141 146.445 27.2109Z" fill="#61308C"/>
</svg>
