<svg width="288" height="48" viewBox="0 0 288 48" fill="none" xmlns="http://www.w3.org/2000/svg">
<path d="M34.0002 24.8333C34.4604 24.8333 34.8335 24.4602 34.8335 24C34.8335 23.5398 34.4604 23.1667 34.0002 23.1667C33.5399 23.1667 33.1668 23.5398 33.1668 24C33.1668 24.4602 33.5399 24.8333 34.0002 24.8333Z" stroke="#61308C" stroke-width="2" stroke-linecap="round" stroke-linejoin="round"/>
<path d="M39.8335 24.8333C40.2937 24.8333 40.6668 24.4602 40.6668 24C40.6668 23.5398 40.2937 23.1667 39.8335 23.1667C39.3733 23.1667 39.0002 23.5398 39.0002 24C39.0002 24.4602 39.3733 24.8333 39.8335 24.8333Z" stroke="#61308C" stroke-width="2" stroke-linecap="round" stroke-linejoin="round"/>
<path d="M28.1668 24.8333C28.6271 24.8333 29.0002 24.4602 29.0002 24C29.0002 23.5398 28.6271 23.1667 28.1668 23.1667C27.7066 23.1667 27.3335 23.5398 27.3335 24C27.3335 24.4602 27.7066 24.8333 28.1668 24.8333Z" stroke="#61308C" stroke-width="2" stroke-linecap="round" stroke-linejoin="round"/>
<path d="M62.2266 23.5V24.125C62.2266 24.9844 62.1146 25.7552 61.8906 26.4375C61.6667 27.1198 61.3464 27.7005 60.9297 28.1797C60.5182 28.6589 60.0234 29.026 59.4453 29.2812C58.8672 29.5312 58.2266 29.6562 57.5234 29.6562C56.8255 29.6562 56.1875 29.5312 55.6094 29.2812C55.0365 29.026 54.5391 28.6589 54.1172 28.1797C53.6953 27.7005 53.3672 27.1198 53.1328 26.4375C52.9036 25.7552 52.7891 24.9844 52.7891 24.125V23.5C52.7891 22.6406 52.9036 21.8724 53.1328 21.1953C53.362 20.513 53.6849 19.9323 54.1016 19.4531C54.5234 18.9688 55.0208 18.6016 55.5938 18.3516C56.1719 18.0964 56.8099 17.9688 57.5078 17.9688C58.2109 17.9688 58.8516 18.0964 59.4297 18.3516C60.0078 18.6016 60.5052 18.9688 60.9219 19.4531C61.3385 19.9323 61.6589 20.513 61.8828 21.1953C62.112 21.8724 62.2266 22.6406 62.2266 23.5ZM60.2656 24.125V23.4844C60.2656 22.849 60.2031 22.2891 60.0781 21.8047C59.9583 21.3151 59.7786 20.9062 59.5391 20.5781C59.3047 20.2448 59.0156 19.9948 58.6719 19.8281C58.3281 19.6562 57.9401 19.5703 57.5078 19.5703C57.0755 19.5703 56.6901 19.6562 56.3516 19.8281C56.013 19.9948 55.724 20.2448 55.4844 20.5781C55.25 20.9062 55.0703 21.3151 54.9453 21.8047C54.8203 22.2891 54.7578 22.849 54.7578 23.4844V24.125C54.7578 24.7604 54.8203 25.3229 54.9453 25.8125C55.0703 26.3021 55.2526 26.7161 55.4922 27.0547C55.737 27.388 56.0286 27.6406 56.3672 27.8125C56.7057 27.9792 57.0911 28.0625 57.5234 28.0625C57.9609 28.0625 58.349 27.9792 58.6875 27.8125C59.026 27.6406 59.3125 27.388 59.5469 27.0547C59.7812 26.7161 59.9583 26.3021 60.0781 25.8125C60.2031 25.3229 60.2656 24.7604 60.2656 24.125ZM67.875 21.0469V22.4219H63.1094V21.0469H67.875ZM64.4844 18.9766H66.3672V27.1641C66.3672 27.4245 66.4036 27.625 66.4766 27.7656C66.5547 27.901 66.6615 27.9922 66.7969 28.0391C66.9323 28.0859 67.0911 28.1094 67.2734 28.1094C67.4036 28.1094 67.5286 28.1016 67.6484 28.0859C67.7682 28.0703 67.8646 28.0547 67.9375 28.0391L67.9453 29.4766C67.7891 29.5234 67.6068 29.5651 67.3984 29.6016C67.1953 29.638 66.9609 29.6562 66.6953 29.6562C66.263 29.6562 65.8802 29.5807 65.5469 29.4297C65.2135 29.2734 64.9531 29.0208 64.7656 28.6719C64.5781 28.3229 64.4844 27.8594 64.4844 27.2812V18.9766ZM71.1875 17.5V29.5H69.3125V17.5H71.1875ZM70.8594 24.9609L70.25 24.9531C70.2552 24.3698 70.3359 23.8307 70.4922 23.3359C70.6536 22.8411 70.8776 22.4115 71.1641 22.0469C71.4557 21.6771 71.8047 21.3932 72.2109 21.1953C72.6172 20.9922 73.0677 20.8906 73.5625 20.8906C73.9792 20.8906 74.3542 20.9479 74.6875 21.0625C75.026 21.1771 75.3177 21.362 75.5625 21.6172C75.8073 21.8672 75.9922 22.1953 76.1172 22.6016C76.2474 23.0026 76.3125 23.4922 76.3125 24.0703V29.5H74.4219V24.0547C74.4219 23.6484 74.362 23.3255 74.2422 23.0859C74.1276 22.8464 73.9583 22.6745 73.7344 22.5703C73.5104 22.4609 73.237 22.4062 72.9141 22.4062C72.5755 22.4062 72.276 22.474 72.0156 22.6094C71.7604 22.7448 71.5469 22.9297 71.375 23.1641C71.2031 23.3984 71.0729 23.6693 70.9844 23.9766C70.901 24.2839 70.8594 24.612 70.8594 24.9609ZM81.9453 29.6562C81.3203 29.6562 80.7552 29.5547 80.25 29.3516C79.75 29.1432 79.3229 28.8542 78.9688 28.4844C78.6198 28.1146 78.3516 27.6797 78.1641 27.1797C77.9766 26.6797 77.8828 26.1406 77.8828 25.5625V25.25C77.8828 24.5885 77.9792 23.9896 78.1719 23.4531C78.3646 22.9167 78.6328 22.4583 78.9766 22.0781C79.3203 21.6927 79.7266 21.3984 80.1953 21.1953C80.6641 20.9922 81.1719 20.8906 81.7188 20.8906C82.3229 20.8906 82.8516 20.9922 83.3047 21.1953C83.7578 21.3984 84.1328 21.6849 84.4297 22.0547C84.7318 22.4193 84.9557 22.8542 85.1016 23.3594C85.2526 23.8646 85.3281 24.4219 85.3281 25.0312V25.8359H78.7969V24.4844H83.4688V24.3359C83.4583 23.9974 83.3906 23.6797 83.2656 23.3828C83.1458 23.0859 82.9609 22.8464 82.7109 22.6641C82.4609 22.4818 82.1276 22.3906 81.7109 22.3906C81.3984 22.3906 81.1198 22.4583 80.875 22.5938C80.6354 22.724 80.4349 22.9141 80.2734 23.1641C80.112 23.4141 79.987 23.7161 79.8984 24.0703C79.8151 24.4193 79.7734 24.8125 79.7734 25.25V25.5625C79.7734 25.9323 79.8229 26.276 79.9219 26.5938C80.026 26.9062 80.1771 27.1797 80.375 27.4141C80.5729 27.6484 80.8125 27.8333 81.0938 27.9688C81.375 28.099 81.6953 28.1641 82.0547 28.1641C82.5078 28.1641 82.9115 28.0729 83.2656 27.8906C83.6198 27.7083 83.9271 27.4505 84.1875 27.1172L85.1797 28.0781C84.9974 28.3438 84.7604 28.599 84.4688 28.8438C84.1771 29.0833 83.8203 29.2786 83.3984 29.4297C82.9818 29.5807 82.4974 29.6562 81.9453 29.6562ZM88.6875 22.6562V29.5H86.8047V21.0469H88.6016L88.6875 22.6562ZM91.2734 20.9922L91.2578 22.7422C91.1432 22.7214 91.0182 22.7057 90.8828 22.6953C90.7526 22.6849 90.6224 22.6797 90.4922 22.6797C90.1693 22.6797 89.8854 22.7266 89.6406 22.8203C89.3958 22.9089 89.1901 23.0391 89.0234 23.2109C88.862 23.3776 88.737 23.5807 88.6484 23.8203C88.5599 24.0599 88.5078 24.3281 88.4922 24.625L88.0625 24.6562C88.0625 24.125 88.1146 23.6328 88.2188 23.1797C88.3229 22.7266 88.4792 22.3281 88.6875 21.9844C88.901 21.6406 89.1667 21.3724 89.4844 21.1797C89.8073 20.987 90.1797 20.8906 90.6016 20.8906C90.7161 20.8906 90.8385 20.901 90.9688 20.9219C91.1042 20.9427 91.2057 20.9661 91.2734 20.9922Z" fill="#61308C"/>
</svg>
