<svg width="288" height="48" viewBox="0 0 288 48" fill="none" xmlns="http://www.w3.org/2000/svg">
<path d="M31 16.5H27.8333C27.3666 16.5 27.1333 16.5 26.955 16.5908C26.7982 16.6707 26.6707 16.7982 26.5908 16.955C26.5 17.1333 26.5 17.3666 26.5 17.8333V21C26.5 21.4667 26.5 21.7001 26.5908 21.8783C26.6707 22.0351 26.7982 22.1626 26.955 22.2425C27.1333 22.3333 27.3666 22.3333 27.8333 22.3333H31C31.4667 22.3333 31.7001 22.3333 31.8783 22.2425C32.0351 22.1626 32.1626 22.0351 32.2425 21.8783C32.3333 21.7001 32.3333 21.4667 32.3333 21V17.8333C32.3333 17.3666 32.3333 17.1333 32.2425 16.955C32.1626 16.7982 32.0351 16.6707 31.8783 16.5908C31.7001 16.5 31.4667 16.5 31 16.5Z" stroke="#61308C" stroke-width="2" stroke-linecap="round" stroke-linejoin="round"/>
<path d="M40.1667 16.5H37C36.5333 16.5 36.2999 16.5 36.1217 16.5908C35.9649 16.6707 35.8374 16.7982 35.7575 16.955C35.6667 17.1333 35.6667 17.3666 35.6667 17.8333V21C35.6667 21.4667 35.6667 21.7001 35.7575 21.8783C35.8374 22.0351 35.9649 22.1626 36.1217 22.2425C36.2999 22.3333 36.5333 22.3333 37 22.3333H40.1667C40.6334 22.3333 40.8667 22.3333 41.045 22.2425C41.2018 22.1626 41.3293 22.0351 41.4092 21.8783C41.5 21.7001 41.5 21.4667 41.5 21V17.8333C41.5 17.3666 41.5 17.1333 41.4092 16.955C41.3293 16.7982 41.2018 16.6707 41.045 16.5908C40.8667 16.5 40.6334 16.5 40.1667 16.5Z" stroke="#61308C" stroke-width="2" stroke-linecap="round" stroke-linejoin="round"/>
<path d="M40.1667 25.6667H37C36.5333 25.6667 36.2999 25.6667 36.1217 25.7575C35.9649 25.8374 35.8374 25.9649 35.7575 26.1217C35.6667 26.2999 35.6667 26.5333 35.6667 27V30.1667C35.6667 30.6334 35.6667 30.8667 35.7575 31.045C35.8374 31.2018 35.9649 31.3293 36.1217 31.4092C36.2999 31.5 36.5333 31.5 37 31.5H40.1667C40.6334 31.5 40.8667 31.5 41.045 31.4092C41.2018 31.3293 41.3293 31.2018 41.4092 31.045C41.5 30.8667 41.5 30.6334 41.5 30.1667V27C41.5 26.5333 41.5 26.2999 41.4092 26.1217C41.3293 25.9649 41.2018 25.8374 41.045 25.7575C40.8667 25.6667 40.6334 25.6667 40.1667 25.6667Z" stroke="#61308C" stroke-width="2" stroke-linecap="round" stroke-linejoin="round"/>
<path d="M31 25.6667H27.8333C27.3666 25.6667 27.1333 25.6667 26.955 25.7575C26.7982 25.8374 26.6707 25.9649 26.5908 26.1217C26.5 26.2999 26.5 26.5333 26.5 27V30.1667C26.5 30.6334 26.5 30.8667 26.5908 31.045C26.6707 31.2018 26.7982 31.3293 26.955 31.4092C27.1333 31.5 27.3666 31.5 27.8333 31.5H31C31.4667 31.5 31.7001 31.5 31.8783 31.4092C32.0351 31.3293 32.1626 31.2018 32.2425 31.045C32.3333 30.8667 32.3333 30.6334 32.3333 30.1667V27C32.3333 26.5333 32.3333 26.2999 32.2425 26.1217C32.1626 25.9649 32.0351 25.8374 31.8783 25.7575C31.7001 25.6667 31.4667 25.6667 31 25.6667Z" stroke="#61308C" stroke-width="2" stroke-linecap="round" stroke-linejoin="round"/>
<path d="M62.2266 23.5V24.125C62.2266 24.9844 62.1146 25.7552 61.8906 26.4375C61.6667 27.1198 61.3464 27.7005 60.9297 28.1797C60.5182 28.6589 60.0234 29.026 59.4453 29.2812C58.8672 29.5312 58.2266 29.6562 57.5234 29.6562C56.8255 29.6562 56.1875 29.5312 55.6094 29.2812C55.0365 29.026 54.5391 28.6589 54.1172 28.1797C53.6953 27.7005 53.3672 27.1198 53.1328 26.4375C52.9036 25.7552 52.7891 24.9844 52.7891 24.125V23.5C52.7891 22.6406 52.9036 21.8724 53.1328 21.1953C53.362 20.513 53.6849 19.9323 54.1016 19.4531C54.5234 18.9688 55.0208 18.6016 55.5938 18.3516C56.1719 18.0964 56.8099 17.9688 57.5078 17.9688C58.2109 17.9688 58.8516 18.0964 59.4297 18.3516C60.0078 18.6016 60.5052 18.9688 60.9219 19.4531C61.3385 19.9323 61.6589 20.513 61.8828 21.1953C62.112 21.8724 62.2266 22.6406 62.2266 23.5ZM60.2656 24.125V23.4844C60.2656 22.849 60.2031 22.2891 60.0781 21.8047C59.9583 21.3151 59.7786 20.9062 59.5391 20.5781C59.3047 20.2448 59.0156 19.9948 58.6719 19.8281C58.3281 19.6562 57.9401 19.5703 57.5078 19.5703C57.0755 19.5703 56.6901 19.6562 56.3516 19.8281C56.013 19.9948 55.724 20.2448 55.4844 20.5781C55.25 20.9062 55.0703 21.3151 54.9453 21.8047C54.8203 22.2891 54.7578 22.849 54.7578 23.4844V24.125C54.7578 24.7604 54.8203 25.3229 54.9453 25.8125C55.0703 26.3021 55.2526 26.7161 55.4922 27.0547C55.737 27.388 56.0286 27.6406 56.3672 27.8125C56.7057 27.9792 57.0911 28.0625 57.5234 28.0625C57.9609 28.0625 58.349 27.9792 58.6875 27.8125C59.026 27.6406 59.3125 27.388 59.5469 27.0547C59.7812 26.7161 59.9583 26.3021 60.0781 25.8125C60.2031 25.3229 60.2656 24.7604 60.2656 24.125ZM66.75 28.0078L68.8203 21.0469H70.7734L67.8359 29.5H66.6172L66.75 28.0078ZM65.1641 21.0469L67.2734 28.0391L67.375 29.5H66.1562L63.2031 21.0469H65.1641ZM75.5547 29.6562C74.9297 29.6562 74.3646 29.5547 73.8594 29.3516C73.3594 29.1432 72.9323 28.8542 72.5781 28.4844C72.2292 28.1146 71.9609 27.6797 71.7734 27.1797C71.5859 26.6797 71.4922 26.1406 71.4922 25.5625V25.25C71.4922 24.5885 71.5885 23.9896 71.7812 23.4531C71.974 22.9167 72.2422 22.4583 72.5859 22.0781C72.9297 21.6927 73.3359 21.3984 73.8047 21.1953C74.2734 20.9922 74.7812 20.8906 75.3281 20.8906C75.9323 20.8906 76.4609 20.9922 76.9141 21.1953C77.3672 21.3984 77.7422 21.6849 78.0391 22.0547C78.3411 22.4193 78.5651 22.8542 78.7109 23.3594C78.862 23.8646 78.9375 24.4219 78.9375 25.0312V25.8359H72.4062V24.4844H77.0781V24.3359C77.0677 23.9974 77 23.6797 76.875 23.3828C76.7552 23.0859 76.5703 22.8464 76.3203 22.6641C76.0703 22.4818 75.737 22.3906 75.3203 22.3906C75.0078 22.3906 74.7292 22.4583 74.4844 22.5938C74.2448 22.724 74.0443 22.9141 73.8828 23.1641C73.7214 23.4141 73.5964 23.7161 73.5078 24.0703C73.4245 24.4193 73.3828 24.8125 73.3828 25.25V25.5625C73.3828 25.9323 73.4323 26.276 73.5312 26.5938C73.6354 26.9062 73.7865 27.1797 73.9844 27.4141C74.1823 27.6484 74.4219 27.8333 74.7031 27.9688C74.9844 28.099 75.3047 28.1641 75.6641 28.1641C76.1172 28.1641 76.5208 28.0729 76.875 27.8906C77.2292 27.7083 77.5365 27.4505 77.7969 27.1172L78.7891 28.0781C78.6068 28.3438 78.3698 28.599 78.0781 28.8438C77.7865 29.0833 77.4297 29.2786 77.0078 29.4297C76.5911 29.5807 76.1068 29.6562 75.5547 29.6562ZM82.2969 22.6562V29.5H80.4141V21.0469H82.2109L82.2969 22.6562ZM84.8828 20.9922L84.8672 22.7422C84.7526 22.7214 84.6276 22.7057 84.4922 22.6953C84.362 22.6849 84.2318 22.6797 84.1016 22.6797C83.7786 22.6797 83.4948 22.7266 83.25 22.8203C83.0052 22.9089 82.7995 23.0391 82.6328 23.2109C82.4714 23.3776 82.3464 23.5807 82.2578 23.8203C82.1693 24.0599 82.1172 24.3281 82.1016 24.625L81.6719 24.6562C81.6719 24.125 81.724 23.6328 81.8281 23.1797C81.9323 22.7266 82.0885 22.3281 82.2969 21.9844C82.5104 21.6406 82.776 21.3724 83.0938 21.1797C83.4167 20.987 83.7891 20.8906 84.2109 20.8906C84.3255 20.8906 84.4479 20.901 84.5781 20.9219C84.7135 20.9427 84.8151 20.9661 84.8828 20.9922ZM88.9531 28.0078L91.0234 21.0469H92.9766L90.0391 29.5H88.8203L88.9531 28.0078ZM87.3672 21.0469L89.4766 28.0391L89.5781 29.5H88.3594L85.4062 21.0469H87.3672ZM96.1562 21.0469V29.5H94.2656V21.0469H96.1562ZM94.1406 18.8281C94.1406 18.5417 94.2344 18.3047 94.4219 18.1172C94.6146 17.9245 94.8802 17.8281 95.2188 17.8281C95.5521 17.8281 95.8151 17.9245 96.0078 18.1172C96.2005 18.3047 96.2969 18.5417 96.2969 18.8281C96.2969 19.1094 96.2005 19.3438 96.0078 19.5312C95.8151 19.7188 95.5521 19.8125 95.2188 19.8125C94.8802 19.8125 94.6146 19.7188 94.4219 19.5312C94.2344 19.3438 94.1406 19.1094 94.1406 18.8281ZM101.945 29.6562C101.32 29.6562 100.755 29.5547 100.25 29.3516C99.75 29.1432 99.3229 28.8542 98.9688 28.4844C98.6198 28.1146 98.3516 27.6797 98.1641 27.1797C97.9766 26.6797 97.8828 26.1406 97.8828 25.5625V25.25C97.8828 24.5885 97.9792 23.9896 98.1719 23.4531C98.3646 22.9167 98.6328 22.4583 98.9766 22.0781C99.3203 21.6927 99.7266 21.3984 100.195 21.1953C100.664 20.9922 101.172 20.8906 101.719 20.8906C102.323 20.8906 102.852 20.9922 103.305 21.1953C103.758 21.3984 104.133 21.6849 104.43 22.0547C104.732 22.4193 104.956 22.8542 105.102 23.3594C105.253 23.8646 105.328 24.4219 105.328 25.0312V25.8359H98.7969V24.4844H103.469V24.3359C103.458 23.9974 103.391 23.6797 103.266 23.3828C103.146 23.0859 102.961 22.8464 102.711 22.6641C102.461 22.4818 102.128 22.3906 101.711 22.3906C101.398 22.3906 101.12 22.4583 100.875 22.5938C100.635 22.724 100.435 22.9141 100.273 23.1641C100.112 23.4141 99.987 23.7161 99.8984 24.0703C99.8151 24.4193 99.7734 24.8125 99.7734 25.25V25.5625C99.7734 25.9323 99.8229 26.276 99.9219 26.5938C100.026 26.9062 100.177 27.1797 100.375 27.4141C100.573 27.6484 100.812 27.8333 101.094 27.9688C101.375 28.099 101.695 28.1641 102.055 28.1641C102.508 28.1641 102.911 28.0729 103.266 27.8906C103.62 27.7083 103.927 27.4505 104.188 27.1172L105.18 28.0781C104.997 28.3438 104.76 28.599 104.469 28.8438C104.177 29.0833 103.82 29.2786 103.398 29.4297C102.982 29.5807 102.497 29.6562 101.945 29.6562ZM109.094 27.625L111.047 21.0469H112.25L111.922 23.0156L109.953 29.5H108.875L109.094 27.625ZM107.945 21.0469L109.469 27.6562L109.594 29.5H108.391L106.102 21.0469H107.945ZM114.078 27.5781L115.555 21.0469H117.391L115.109 29.5H113.906L114.078 27.5781ZM112.453 21.0469L114.383 27.5469L114.625 29.5H113.547L111.555 23.0078L111.227 21.0469H112.453Z" fill="#61308C"/>
</svg>
