<svg width="304" height="48" viewBox="0 0 304 48" fill="none" xmlns="http://www.w3.org/2000/svg">
<rect x="16" width="288" height="48" rx="16" fill="#3A379F" fill-opacity="0.05"/>
<path d="M54.1635 17.3334H45.8302C42.6385 17.3334 41.7469 18.1 41.6719 21.0834C43.2802 21.0834 44.5802 22.3917 44.5802 24C44.5802 25.6084 43.2802 26.9084 41.6719 26.9167C41.7469 29.9 42.6385 30.6667 45.8302 30.6667H54.1635C57.4969 30.6667 58.3302 29.8334 58.3302 26.5V21.5C58.3302 18.1667 57.4969 17.3334 54.1635 17.3334Z" stroke="#61308C" stroke-width="2" stroke-linecap="round" stroke-linejoin="round"/>
<path d="M47.4922 17.3334V20.25" stroke="#61308C" stroke-width="2" stroke-linecap="round" stroke-linejoin="round"/>
<path d="M47.4922 27.75V30.6667" stroke="#61308C" stroke-width="2" stroke-linecap="round" stroke-linejoin="round"/>
<path d="M52.5181 21.775L53.0347 22.8167C53.0847 22.9167 53.1847 22.9917 53.2931 23.0084L54.4431 23.175C54.7264 23.2167 54.8431 23.5667 54.6347 23.7667L53.8014 24.575C53.7181 24.65 53.6847 24.7667 53.7014 24.8834L53.9014 26.025C53.9514 26.3084 53.6514 26.525 53.4014 26.3917L52.3764 25.85C52.2764 25.8 52.1514 25.8 52.0514 25.85L51.0264 26.3917C50.7681 26.525 50.4764 26.3084 50.5264 26.025L50.7264 24.8834C50.7431 24.7667 50.7097 24.6584 50.6264 24.575L49.8014 23.7667C49.5931 23.5667 49.7097 23.2167 49.9931 23.175L51.1431 23.0084C51.2597 22.9917 51.3514 22.925 51.4014 22.8167L51.9097 21.775C52.0264 21.5167 52.3931 21.5167 52.5181 21.775Z" fill="#61308C" stroke="#61308C" stroke-linecap="round" stroke-linejoin="round"/>
<path d="M74.9375 26.5234C74.9375 26.3203 74.9062 26.138 74.8438 25.9766C74.7865 25.8099 74.6771 25.6589 74.5156 25.5234C74.3542 25.3828 74.1276 25.2448 73.8359 25.1094C73.5443 24.974 73.1667 24.8333 72.7031 24.6875C72.1875 24.5208 71.6979 24.3333 71.2344 24.125C70.776 23.9167 70.3698 23.6745 70.0156 23.3984C69.6667 23.1172 69.3906 22.7917 69.1875 22.4219C68.9896 22.0521 68.8906 21.6224 68.8906 21.1328C68.8906 20.6589 68.9948 20.2292 69.2031 19.8438C69.4115 19.4531 69.7031 19.1198 70.0781 18.8438C70.4531 18.5625 70.8958 18.3464 71.4062 18.1953C71.9219 18.0443 72.487 17.9688 73.1016 17.9688C73.9401 17.9688 74.6719 18.1198 75.2969 18.4219C75.9219 18.724 76.4062 19.138 76.75 19.6641C77.099 20.1901 77.2734 20.7917 77.2734 21.4688H74.9453C74.9453 21.1354 74.875 20.8438 74.7344 20.5938C74.599 20.3385 74.3906 20.138 74.1094 19.9922C73.8333 19.8464 73.4844 19.7734 73.0625 19.7734C72.6562 19.7734 72.3177 19.8359 72.0469 19.9609C71.776 20.0807 71.5729 20.2448 71.4375 20.4531C71.3021 20.6562 71.2344 20.8854 71.2344 21.1406C71.2344 21.3333 71.2812 21.5078 71.375 21.6641C71.474 21.8203 71.6198 21.9661 71.8125 22.1016C72.0052 22.237 72.2422 22.3646 72.5234 22.4844C72.8047 22.6042 73.1302 22.7214 73.5 22.8359C74.1198 23.0234 74.6641 23.2344 75.1328 23.4688C75.6068 23.7031 76.0026 23.9661 76.3203 24.2578C76.638 24.5495 76.8776 24.8802 77.0391 25.25C77.2005 25.6198 77.2812 26.0391 77.2812 26.5078C77.2812 27.0026 77.1849 27.4453 76.9922 27.8359C76.7995 28.2266 76.5208 28.5573 76.1562 28.8281C75.7917 29.099 75.3568 29.3047 74.8516 29.4453C74.3464 29.5859 73.7812 29.6562 73.1562 29.6562C72.5938 29.6562 72.0391 29.5833 71.4922 29.4375C70.9453 29.2865 70.4479 29.0599 70 28.7578C69.5573 28.4557 69.2031 28.0703 68.9375 27.6016C68.6719 27.1328 68.5391 26.5781 68.5391 25.9375H70.8906C70.8906 26.2917 70.9453 26.5911 71.0547 26.8359C71.1641 27.0807 71.3177 27.2786 71.5156 27.4297C71.7188 27.5807 71.9583 27.6901 72.2344 27.7578C72.5156 27.8255 72.8229 27.8594 73.1562 27.8594C73.5625 27.8594 73.8958 27.8021 74.1562 27.6875C74.4219 27.5729 74.6172 27.4141 74.7422 27.2109C74.8724 27.0078 74.9375 26.7786 74.9375 26.5234ZM82.875 21.0469V22.6406H77.9531V21.0469H82.875ZM79.1719 18.9609H81.4219V26.9531C81.4219 27.1979 81.4531 27.3854 81.5156 27.5156C81.5833 27.6458 81.6823 27.737 81.8125 27.7891C81.9427 27.8359 82.1068 27.8594 82.3047 27.8594C82.4453 27.8594 82.5703 27.8542 82.6797 27.8438C82.7943 27.8281 82.8906 27.8125 82.9688 27.7969L82.9766 29.4531C82.7839 29.5156 82.5755 29.5651 82.3516 29.6016C82.1276 29.638 81.8802 29.6562 81.6094 29.6562C81.1146 29.6562 80.6823 29.5755 80.3125 29.4141C79.9479 29.2474 79.6667 28.9818 79.4688 28.6172C79.2708 28.2526 79.1719 27.7734 79.1719 27.1797V18.9609ZM88.7188 27.5938V23.8281C88.7188 23.5573 88.6745 23.3255 88.5859 23.1328C88.4974 22.9349 88.3594 22.7812 88.1719 22.6719C87.9896 22.5625 87.7526 22.5078 87.4609 22.5078C87.2109 22.5078 86.9948 22.5521 86.8125 22.6406C86.6302 22.724 86.4896 22.8464 86.3906 23.0078C86.2917 23.1641 86.2422 23.349 86.2422 23.5625H83.9922C83.9922 23.2031 84.0755 22.862 84.2422 22.5391C84.4089 22.2161 84.651 21.9323 84.9688 21.6875C85.2865 21.4375 85.6641 21.2422 86.1016 21.1016C86.5443 20.9609 87.0391 20.8906 87.5859 20.8906C88.2422 20.8906 88.8255 21 89.3359 21.2188C89.8464 21.4375 90.2474 21.7656 90.5391 22.2031C90.8359 22.6406 90.9844 23.1875 90.9844 23.8438V27.4609C90.9844 27.9245 91.013 28.3047 91.0703 28.6016C91.1276 28.8932 91.2109 29.1484 91.3203 29.3672V29.5H89.0469C88.9375 29.2708 88.8542 28.9844 88.7969 28.6406C88.7448 28.2917 88.7188 27.9427 88.7188 27.5938ZM89.0156 24.3516L89.0312 25.625H87.7734C87.4766 25.625 87.2188 25.6589 87 25.7266C86.7812 25.7943 86.6016 25.8906 86.4609 26.0156C86.3203 26.1354 86.2161 26.276 86.1484 26.4375C86.0859 26.599 86.0547 26.776 86.0547 26.9688C86.0547 27.1615 86.099 27.3359 86.1875 27.4922C86.276 27.6432 86.4036 27.763 86.5703 27.8516C86.737 27.9349 86.9323 27.9766 87.1562 27.9766C87.4948 27.9766 87.7891 27.9089 88.0391 27.7734C88.2891 27.638 88.4818 27.4714 88.6172 27.2734C88.7578 27.0755 88.8307 26.888 88.8359 26.7109L89.4297 27.6641C89.3464 27.8776 89.2318 28.099 89.0859 28.3281C88.9453 28.5573 88.7656 28.7734 88.5469 28.9766C88.3281 29.1745 88.0651 29.3385 87.7578 29.4688C87.4505 29.5938 87.0859 29.6562 86.6641 29.6562C86.1276 29.6562 85.6406 29.5495 85.2031 29.3359C84.7708 29.1172 84.4271 28.8177 84.1719 28.4375C83.9219 28.0521 83.7969 27.6146 83.7969 27.125C83.7969 26.6823 83.8802 26.2891 84.0469 25.9453C84.2135 25.6016 84.4583 25.3125 84.7812 25.0781C85.1094 24.8385 85.5182 24.6589 86.0078 24.5391C86.4974 24.4141 87.0651 24.3516 87.7109 24.3516H89.0156ZM94.9688 22.8906V29.5H92.7188V21.0469H94.8359L94.9688 22.8906ZM97.5156 20.9922L97.4766 23.0781C97.3672 23.0625 97.2344 23.0495 97.0781 23.0391C96.9271 23.0234 96.7891 23.0156 96.6641 23.0156C96.3464 23.0156 96.0703 23.0573 95.8359 23.1406C95.6068 23.2188 95.4141 23.3359 95.2578 23.4922C95.1068 23.6484 94.9922 23.8385 94.9141 24.0625C94.8411 24.2865 94.7995 24.5417 94.7891 24.8281L94.3359 24.6875C94.3359 24.1406 94.3906 23.638 94.5 23.1797C94.6094 22.7161 94.7682 22.3125 94.9766 21.9688C95.1901 21.625 95.4505 21.3594 95.7578 21.1719C96.0651 20.9844 96.4167 20.8906 96.8125 20.8906C96.9375 20.8906 97.0651 20.901 97.1953 20.9219C97.3255 20.9375 97.4323 20.9609 97.5156 20.9922ZM102.82 27.125L105.5 18.125H108.109L104.148 29.5H102.43L102.82 27.125ZM100.352 18.125L103.023 27.125L103.43 29.5H101.695L97.7578 18.125H100.352ZM108.312 25.3594V25.1953C108.312 24.5755 108.401 24.0052 108.578 23.4844C108.755 22.9583 109.013 22.5026 109.352 22.1172C109.69 21.7318 110.107 21.4323 110.602 21.2188C111.096 21 111.664 20.8906 112.305 20.8906C112.945 20.8906 113.516 21 114.016 21.2188C114.516 21.4323 114.935 21.7318 115.273 22.1172C115.617 22.5026 115.878 22.9583 116.055 23.4844C116.232 24.0052 116.32 24.5755 116.32 25.1953V25.3594C116.32 25.974 116.232 26.5443 116.055 27.0703C115.878 27.5911 115.617 28.0469 115.273 28.4375C114.935 28.8229 114.518 29.1224 114.023 29.3359C113.529 29.5495 112.961 29.6562 112.32 29.6562C111.68 29.6562 111.109 29.5495 110.609 29.3359C110.115 29.1224 109.695 28.8229 109.352 28.4375C109.013 28.0469 108.755 27.5911 108.578 27.0703C108.401 26.5443 108.312 25.974 108.312 25.3594ZM110.562 25.1953V25.3594C110.562 25.7135 110.594 26.0443 110.656 26.3516C110.719 26.6589 110.818 26.9297 110.953 27.1641C111.094 27.3932 111.276 27.5729 111.5 27.7031C111.724 27.8333 111.997 27.8984 112.32 27.8984C112.633 27.8984 112.901 27.8333 113.125 27.7031C113.349 27.5729 113.529 27.3932 113.664 27.1641C113.799 26.9297 113.898 26.6589 113.961 26.3516C114.029 26.0443 114.062 25.7135 114.062 25.3594V25.1953C114.062 24.8516 114.029 24.5286 113.961 24.2266C113.898 23.9193 113.797 23.6484 113.656 23.4141C113.521 23.1745 113.341 22.987 113.117 22.8516C112.893 22.7161 112.622 22.6484 112.305 22.6484C111.987 22.6484 111.716 22.7161 111.492 22.8516C111.273 22.987 111.094 23.1745 110.953 23.4141C110.818 23.6484 110.719 23.9193 110.656 24.2266C110.594 24.5286 110.562 24.8516 110.562 25.1953ZM122.703 27.4766V21.0469H124.953V29.5H122.836L122.703 27.4766ZM122.953 25.7422L123.617 25.7266C123.617 26.2891 123.552 26.8125 123.422 27.2969C123.292 27.776 123.096 28.1927 122.836 28.5469C122.576 28.8958 122.247 29.1693 121.852 29.3672C121.456 29.5599 120.99 29.6562 120.453 29.6562C120.042 29.6562 119.661 29.599 119.312 29.4844C118.969 29.3646 118.672 29.1797 118.422 28.9297C118.177 28.6745 117.984 28.349 117.844 27.9531C117.708 27.5521 117.641 27.0703 117.641 26.5078V21.0469H119.891V26.5234C119.891 26.7734 119.919 26.9844 119.977 27.1562C120.039 27.3281 120.125 27.4688 120.234 27.5781C120.344 27.6875 120.471 27.7656 120.617 27.8125C120.768 27.8594 120.935 27.8828 121.117 27.8828C121.581 27.8828 121.945 27.7891 122.211 27.6016C122.482 27.4141 122.672 27.1589 122.781 26.8359C122.896 26.5078 122.953 26.1432 122.953 25.7422ZM130.164 27.8984C130.44 27.8984 130.685 27.8464 130.898 27.7422C131.112 27.6328 131.279 27.4818 131.398 27.2891C131.523 27.0911 131.589 26.8594 131.594 26.5938H133.711C133.706 27.1875 133.547 27.7161 133.234 28.1797C132.922 28.638 132.503 29 131.977 29.2656C131.451 29.526 130.862 29.6562 130.211 29.6562C129.555 29.6562 128.982 29.5469 128.492 29.3281C128.008 29.1094 127.604 28.8073 127.281 28.4219C126.958 28.0312 126.716 27.5781 126.555 27.0625C126.393 26.5417 126.312 25.9844 126.312 25.3906V25.1641C126.312 24.5651 126.393 24.0078 126.555 23.4922C126.716 22.9714 126.958 22.5182 127.281 22.1328C127.604 21.7422 128.008 21.4375 128.492 21.2188C128.977 21 129.544 20.8906 130.195 20.8906C130.888 20.8906 131.495 21.0234 132.016 21.2891C132.542 21.5547 132.953 21.9349 133.25 22.4297C133.552 22.9193 133.706 23.5 133.711 24.1719H131.594C131.589 23.8906 131.529 23.6354 131.414 23.4062C131.305 23.1771 131.143 22.9948 130.93 22.8594C130.721 22.7188 130.464 22.6484 130.156 22.6484C129.828 22.6484 129.56 22.7188 129.352 22.8594C129.143 22.9948 128.982 23.1823 128.867 23.4219C128.753 23.6562 128.672 23.9245 128.625 24.2266C128.583 24.5234 128.562 24.8359 128.562 25.1641V25.3906C128.562 25.7188 128.583 26.0339 128.625 26.3359C128.667 26.638 128.745 26.9062 128.859 27.1406C128.979 27.375 129.143 27.5599 129.352 27.6953C129.56 27.8307 129.831 27.8984 130.164 27.8984ZM137.211 17.5V29.5H134.961V17.5H137.211ZM136.891 24.9766H136.273C136.279 24.388 136.357 23.8464 136.508 23.3516C136.659 22.8516 136.875 22.4193 137.156 22.0547C137.438 21.6849 137.773 21.3984 138.164 21.1953C138.56 20.9922 138.997 20.8906 139.477 20.8906C139.893 20.8906 140.271 20.9505 140.609 21.0703C140.953 21.1849 141.247 21.3724 141.492 21.6328C141.742 21.888 141.935 22.224 142.07 22.6406C142.206 23.0573 142.273 23.5625 142.273 24.1562V29.5H140.008V24.1406C140.008 23.7656 139.953 23.4714 139.844 23.2578C139.74 23.0391 139.586 22.8854 139.383 22.7969C139.185 22.7031 138.94 22.6562 138.648 22.6562C138.326 22.6562 138.049 22.7161 137.82 22.8359C137.596 22.9557 137.417 23.1224 137.281 23.3359C137.146 23.5443 137.047 23.7891 136.984 24.0703C136.922 24.3516 136.891 24.6536 136.891 24.9766ZM147.875 29.6562C147.219 29.6562 146.63 29.5521 146.109 29.3438C145.589 29.1302 145.146 28.8359 144.781 28.4609C144.422 28.0859 144.146 27.651 143.953 27.1562C143.76 26.6562 143.664 26.125 143.664 25.5625V25.25C143.664 24.6094 143.755 24.0234 143.938 23.4922C144.12 22.9609 144.38 22.5 144.719 22.1094C145.062 21.7188 145.479 21.4193 145.969 21.2109C146.458 20.9974 147.01 20.8906 147.625 20.8906C148.224 20.8906 148.755 20.9896 149.219 21.1875C149.682 21.3854 150.07 21.6667 150.383 22.0312C150.701 22.3958 150.94 22.8333 151.102 23.3438C151.263 23.849 151.344 24.4115 151.344 25.0312V25.9688H144.625V24.4688H149.133V24.2969C149.133 23.9844 149.076 23.7057 148.961 23.4609C148.852 23.2109 148.685 23.013 148.461 22.8672C148.237 22.7214 147.951 22.6484 147.602 22.6484C147.305 22.6484 147.049 22.7135 146.836 22.8438C146.622 22.974 146.448 23.1562 146.312 23.3906C146.182 23.625 146.083 23.901 146.016 24.2188C145.953 24.5312 145.922 24.875 145.922 25.25V25.5625C145.922 25.901 145.969 26.2135 146.062 26.5C146.161 26.7865 146.299 27.0339 146.477 27.2422C146.659 27.4505 146.878 27.612 147.133 27.7266C147.393 27.8411 147.688 27.8984 148.016 27.8984C148.422 27.8984 148.799 27.8203 149.148 27.6641C149.503 27.5026 149.807 27.2604 150.062 26.9375L151.156 28.125C150.979 28.3802 150.737 28.625 150.43 28.8594C150.128 29.0938 149.763 29.2865 149.336 29.4375C148.909 29.5833 148.422 29.6562 147.875 29.6562ZM154.875 22.8906V29.5H152.625V21.0469H154.742L154.875 22.8906ZM157.422 20.9922L157.383 23.0781C157.273 23.0625 157.141 23.0495 156.984 23.0391C156.833 23.0234 156.695 23.0156 156.57 23.0156C156.253 23.0156 155.977 23.0573 155.742 23.1406C155.513 23.2188 155.32 23.3359 155.164 23.4922C155.013 23.6484 154.898 23.8385 154.82 24.0625C154.747 24.2865 154.706 24.5417 154.695 24.8281L154.242 24.6875C154.242 24.1406 154.297 23.638 154.406 23.1797C154.516 22.7161 154.674 22.3125 154.883 21.9688C155.096 21.625 155.357 21.3594 155.664 21.1719C155.971 20.9844 156.323 20.8906 156.719 20.8906C156.844 20.8906 156.971 20.901 157.102 20.9219C157.232 20.9375 157.339 20.9609 157.422 20.9922ZM163.055 27.1641C163.055 27.0026 163.008 26.8568 162.914 26.7266C162.82 26.5964 162.646 26.4766 162.391 26.3672C162.141 26.2526 161.779 26.1484 161.305 26.0547C160.878 25.9609 160.479 25.8438 160.109 25.7031C159.745 25.5573 159.427 25.3828 159.156 25.1797C158.891 24.9766 158.682 24.737 158.531 24.4609C158.38 24.1797 158.305 23.8594 158.305 23.5C158.305 23.1458 158.38 22.8125 158.531 22.5C158.688 22.1875 158.909 21.9115 159.195 21.6719C159.487 21.4271 159.841 21.237 160.258 21.1016C160.68 20.9609 161.154 20.8906 161.68 20.8906C162.414 20.8906 163.044 21.0078 163.57 21.2422C164.102 21.4766 164.508 21.7995 164.789 22.2109C165.076 22.6172 165.219 23.0807 165.219 23.6016H162.969C162.969 23.3828 162.922 23.1875 162.828 23.0156C162.74 22.8385 162.599 22.7005 162.406 22.6016C162.219 22.4974 161.974 22.4453 161.672 22.4453C161.422 22.4453 161.206 22.4896 161.023 22.5781C160.841 22.6615 160.701 22.776 160.602 22.9219C160.508 23.0625 160.461 23.2188 160.461 23.3906C160.461 23.5208 160.487 23.638 160.539 23.7422C160.596 23.8411 160.688 23.9323 160.812 24.0156C160.938 24.099 161.099 24.1771 161.297 24.25C161.5 24.3177 161.75 24.3802 162.047 24.4375C162.656 24.5625 163.201 24.7266 163.68 24.9297C164.159 25.1276 164.539 25.3984 164.82 25.7422C165.102 26.0807 165.242 26.526 165.242 27.0781C165.242 27.4531 165.159 27.7969 164.992 28.1094C164.826 28.4219 164.586 28.6953 164.273 28.9297C163.961 29.1589 163.586 29.3385 163.148 29.4688C162.716 29.5938 162.229 29.6562 161.688 29.6562C160.901 29.6562 160.234 29.5156 159.688 29.2344C159.146 28.9531 158.734 28.5964 158.453 28.1641C158.177 27.7266 158.039 27.2786 158.039 26.8203H160.172C160.182 27.1276 160.26 27.375 160.406 27.5625C160.557 27.75 160.747 27.8854 160.977 27.9688C161.211 28.0521 161.464 28.0938 161.734 28.0938C162.026 28.0938 162.268 28.0547 162.461 27.9766C162.654 27.8932 162.799 27.7839 162.898 27.6484C163.003 27.5078 163.055 27.3464 163.055 27.1641Z" fill="#61308C"/>
<path d="M0 3V3C2.76142 3 5 5.23858 5 8V40C5 42.7614 2.76142 45 0 45V45V3Z" fill="#3A379F"/>
</svg>
